<svg width="196" height="150" viewBox="0 0 196 150" fill="none" xmlns="http://www.w3.org/2000/svg">
<path d="M41.0191 125.845C-39.5507 67.6817 16.9022 17.7136 55.1999 0C63.9784 13.6259 95.1375 35.2132 149.545 12.5553C203.953 -10.1026 199.226 52.1677 190.062 86.135C173.952 123.606 121.589 184.008 41.0191 125.845Z" fill="#E0F6F6"/>
<g clip-path="url(#clip0_672:3429)">
<path d="M122.327 69.7525C119.057 69.7525 115.502 64.1698 113.813 58.8819C111.74 52.3946 110.57 40.5379 113.254 39.1944C115.847 37.8958 120.623 43.791 122.327 48.1484C124.138 52.7822 125.264 58.6105 125.247 63.5878C125.236 66.7355 124.517 69.7525 122.327 69.7525V69.7525ZM112.242 22.2771C112.242 22.2771 107.87 15.7999 109.762 11.0884H102.235H94.7091C96.6011 15.7999 92.2284 22.2771 92.2284 22.2771C69.8608 36.4476 69.8608 58.7854 69.8608 58.7854V120.027C71.4025 130.205 102.235 128.271 102.235 128.271C102.235 128.271 133.068 130.205 134.61 120.027V58.7854C134.61 58.7854 134.61 36.4476 112.242 22.2771" fill="#DAAE13"/>
<path d="M122.327 69.7527C119.057 69.7527 115.502 64.17 113.813 58.8821C111.74 52.3947 110.57 40.538 113.254 39.1946C115.847 37.896 120.623 43.7912 122.327 48.1485C124.138 52.7823 125.264 58.6106 125.247 63.5879C125.236 66.735 124.517 69.7527 122.327 69.7527V69.7527ZM121.055 29.2861C121.152 29.425 121.207 29.5633 121.207 29.7047C121.207 31.5563 112.71 33.0563 102.229 33.0563C91.7475 33.0563 83.2496 31.5563 83.2496 29.7047C83.2496 29.5784 83.2919 29.4566 83.3676 29.3335C69.8634 42.8303 69.8608 58.7855 69.8608 58.7855V120.027C71.4025 130.205 102.235 128.271 102.235 128.271C102.235 128.271 133.068 130.205 134.61 120.027V58.7855C134.61 58.7855 134.605 42.7931 121.055 29.2861" fill="url(#paint0_linear_672:3429)"/>
<path d="M109.011 69.9878H109.012H109.011ZM109.012 69.9878C109.635 69.7529 109.865 69.4524 109.865 69.1147L109.862 69.0585C109.859 69.0117 109.852 68.9732 109.844 68.9354C109.685 68.2226 108.704 67.3918 108.162 66.6898C106.886 65.032 105.805 63.0749 104.939 61.1626C104.906 61.0995 104.877 61.0338 104.847 60.9688C103.521 57.9953 102.775 54.7876 102.773 51.5648C102.772 49.948 102.958 48.3274 103.351 46.7308C103.709 45.2744 105.524 41.7756 105.528 39.6671C105.528 39.2119 105.444 38.8211 105.242 38.5301C104.413 37.3337 102.471 36.9467 100.699 36.7794C100.929 36.7472 101.189 36.7314 101.469 36.7314C103.367 36.7314 106.188 37.489 106.804 39.5111C107.539 41.9208 104.638 47.5559 104.638 53.4871C104.638 57.0313 106.884 61.3375 109.027 64.1197C110.042 65.4354 112.052 69.0263 109.011 69.9884" fill="url(#paint1_linear_672:3429)"/>
<path d="M115.385 62.7905L113.218 60.0335C110.954 56.983 110.791 53.2141 111.086 49.5815C111.191 48.286 111.437 46.9477 111.696 45.6011C111.757 49.8309 112.642 55.2147 113.813 58.882L113.823 58.9123C114.241 60.2172 114.773 61.5392 115.386 62.7905" fill="url(#paint2_linear_672:3429)"/>
<path d="M97.9478 122.013C97.0213 122.011 96.095 121.984 95.1699 121.934C90.5694 121.701 85.3353 120.729 81.2876 118.47C78.4194 116.869 77.2652 114.4 75.4856 112.134C75.3865 110.92 75.3076 109.705 75.2691 108.483C75.1587 104.966 74.06 93.659 77.2374 91.4065C77.9745 90.8838 78.8927 90.683 79.8804 90.683C81.5211 90.683 83.3525 91.2392 84.8626 91.7998C85.4691 92.0252 86.0232 92.2506 86.4921 92.4431C92.893 95.0498 97.4581 95.0726 104.404 95.4293C114.876 95.9633 115.57 114.275 108.425 119.322C105.353 121.492 101.676 122.013 97.9472 122.013H97.9478ZM81.7919 93.5511C81.0668 93.5511 80.4149 93.6805 79.8822 93.9854C73.8284 97.4476 76.3079 111.473 80.2685 115.631C81.246 116.656 82.5365 117.495 83.9867 118.11C85.7909 118.876 87.8419 119.293 89.8367 119.293C93.9147 119.294 97.7617 117.548 98.8168 113.451C100.644 106.359 97.7295 101.069 91.716 97.368C89.7326 96.1483 85.0318 93.5511 81.7912 93.5511H81.7919ZM105.697 89.9059C96.9097 89.9059 87.1679 88.9349 80.1858 84.0486L79.3547 83.4558L80.1858 84.0486C87.1679 88.9349 96.9097 89.9059 105.697 89.9059C107.731 89.9059 109.715 89.8535 111.602 89.7853C117.15 89.5877 122.669 88.457 127.4 85.8712L127.395 85.9848C122.823 88.7354 116.68 89.6041 111.601 89.7853C109.715 89.8535 107.731 89.9059 105.696 89.9059H105.697ZM72.4167 77.2569C72.016 77.0694 71.6197 76.9494 71.2316 76.9116L71.2347 75.7954C71.6064 76.2929 72.0027 76.7803 72.4167 77.2569Z" fill="url(#paint3_linear_672:3429)"/>
<path d="M100.836 124.287H100.775C82.491 124.278 76.2473 119.962 73.032 115.424C71.6815 107.364 71.2057 90.9167 71.2315 76.9116C71.6203 76.9495 72.0159 77.0695 72.4167 77.257C74.5705 79.7323 77.204 81.8889 79.3553 83.4558L80.1864 84.0486C87.1691 88.935 96.9103 89.9059 105.698 89.9059C107.732 89.9059 109.717 89.8535 111.603 89.7854C116.682 89.6042 122.825 88.7355 127.397 85.9849C127.08 95.0486 126.485 103.135 126.037 107.482C125.077 116.806 122.508 124.287 100.837 124.287H100.836ZM79.8809 90.6824C78.894 90.6824 77.9757 90.8838 77.2387 91.4066C74.0612 93.6591 75.1599 104.966 75.2704 108.483C75.3089 109.705 75.3884 110.92 75.4868 112.134C77.2664 114.4 78.4207 116.869 81.2889 118.47C85.3365 120.729 90.5706 121.701 95.1705 121.934C96.0937 121.982 97.0226 122.013 97.9484 122.013C101.677 122.013 105.354 121.492 108.426 119.321C115.572 114.275 114.877 95.9628 104.406 95.4293C97.4593 95.0726 92.8942 95.0499 86.4933 92.4426L84.8639 91.7999C83.3531 91.2393 81.5223 90.6824 79.8816 90.6824" fill="url(#paint4_linear_672:3429)"/>
<path d="M127.4 85.8713C127.853 72.8473 127.73 57.8353 125.77 49.0133C124.33 42.5279 118.519 33.4041 116.39 31.9357C117.677 31.6813 118.746 31.3921 119.548 31.0771C126.918 38.0954 129.242 47.2873 130.352 57.1604C130.977 62.7109 131.435 72.6093 131.573 83.0032C130.704 83.7396 129.785 84.4146 128.822 85.0234L128.738 85.0866C128.3 85.3614 127.854 85.6231 127.4 85.8713V85.8713V85.8713ZM121.206 29.7116V29.7109V29.7116Z" fill="url(#paint5_linear_672:3429)"/>
<path d="M99.2472 125.96C85.7631 125.96 78.6415 124.038 74.5516 120.179C73.9533 119.616 73.451 117.924 73.032 115.424C76.2473 119.962 82.4911 124.278 100.775 124.287H100.836C122.507 124.287 125.076 116.806 126.036 107.482C126.483 103.136 127.079 95.0486 127.396 85.9849C127.86 85.7052 128.308 85.4066 128.738 85.0865C129.726 84.4672 130.673 83.7772 131.573 83.0107C131.789 99.3542 131.212 116.919 129.234 120.72C126.561 125.86 108.268 125.821 102.091 125.934L99.2478 125.96H99.2472Z" fill="url(#paint6_linear_672:3429)"/>
<path d="M109.843 68.9295C109.686 68.2237 108.704 67.3923 108.162 66.6902C106.843 64.9781 105.729 62.9415 104.848 60.9699C102.856 56.5053 102.175 51.5135 103.352 46.7319C103.788 44.9617 106.378 40.1681 105.244 38.5305C103.977 36.7041 100.113 36.7635 98.228 36.6107C89.7629 35.9162 81.2283 37.4996 79.8172 46.3891C78.6245 53.9017 84.0877 60.8133 89.8443 64.9238C94.5438 68.278 102.765 71.7066 108.65 70.1037C109.683 69.8234 109.95 69.4049 109.844 68.9295" fill="url(#paint7_linear_672:3429)"/>
<path d="M105.381 70.5103C99.9987 70.5103 93.7228 67.6915 89.8442 64.9238C84.6272 61.199 79.6512 55.1732 79.6519 48.4844C79.6521 47.8164 79.7023 47.1493 79.802 46.4888C78.7993 53.1246 82.9776 59.2786 87.9384 63.4408C87.7554 63.0892 87.621 62.7117 87.4007 62.3872C83.868 57.1612 81.9982 50.3771 83.2496 45.5854C84.5256 40.7022 89.7761 38.3891 95.3194 37.3916C90.5895 39.2426 86.9584 43.3967 87.0492 49.444C87.1622 56.9718 94.1544 62.3241 100.362 62.3228C101.587 62.3228 102.783 62.1138 103.888 61.6719C104.269 62.4156 104.711 63.1631 105.218 63.9213C106.566 65.9345 107.885 67.9061 109.013 69.9882C108.904 70.0286 108.784 70.0677 108.651 70.1037C107.622 70.384 106.522 70.5103 105.382 70.5103H105.381ZM109.019 69.9857C109.667 69.7401 109.889 69.4194 109.863 69.0589C109.865 69.0776 109.865 69.0963 109.865 69.1151C109.865 69.4528 109.635 69.7533 109.019 69.9857H109.019ZM79.802 46.485C79.8027 46.48 79.8039 46.4743 79.8046 46.4693C79.8039 46.4749 79.8027 46.4794 79.802 46.485ZM79.8052 46.4648C79.8061 46.4598 79.807 46.4547 79.8077 46.4497C79.8071 46.4547 79.8058 46.4598 79.8052 46.4648ZM79.809 46.4421L79.8109 46.4295C79.8096 46.4339 79.8096 46.4377 79.809 46.4421Z" fill="url(#paint8_linear_672:3429)"/>
<path d="M103.887 61.6718C101.858 57.7122 101.551 53.8605 102.188 49.0708C102.957 43.2861 106.458 39.1863 102.329 37.0127C103.549 37.2595 104.665 37.6989 105.243 38.5304C105.445 38.8214 105.529 39.2122 105.528 39.6674C105.525 41.776 103.71 45.2753 103.352 46.7311C102.958 48.3277 102.772 49.9483 102.773 51.5651C102.776 54.788 103.521 57.9957 104.848 60.9691L104.937 61.1642C104.6 61.3578 104.249 61.5272 103.888 61.6712" fill="url(#paint9_linear_672:3429)"/>
<path d="M109.012 69.9883C107.883 67.9062 106.565 65.9346 105.217 63.9213C104.71 63.1631 104.268 62.4157 103.887 61.672C104.248 61.5281 104.598 61.3587 104.936 61.165C105.802 63.076 106.886 65.0344 108.162 66.6903C108.703 67.3923 109.685 68.2231 109.843 68.9296C109.852 68.9693 109.858 69.0096 109.862 69.0501C109.889 69.4195 109.667 69.7402 109.019 69.9857L109.012 69.9883Z" fill="url(#paint10_linear_672:3429)"/>
<path d="M122.326 69.7528C119.057 69.7528 115.502 64.1701 113.813 58.8822C111.74 52.3948 110.57 40.5381 113.254 39.1947C113.383 39.129 110.449 39.4238 108.222 43.9365C105.949 48.5419 107.556 60.7206 112.483 66.1688C117.151 71.3279 122.669 69.7528 122.326 69.7528" fill="#EB9A12"/>
<path d="M71.234 75.7957C70.7241 75.1126 70.2603 74.4131 69.8608 73.6979V58.7856C69.8608 58.7856 69.8627 42.8367 83.3594 29.3418C83.2907 29.4484 83.2525 29.5717 83.2489 29.6985V29.7117V29.7124C83.2534 29.9977 83.4578 30.2736 83.8403 30.5381C81.9224 32.5886 72.5858 43.2023 71.7017 57.2143C71.4385 61.3917 71.2624 68.1815 71.2334 75.7951L71.234 75.7957ZM121.205 29.7559V29.7553V29.7559ZM121.207 29.7307V29.7301V29.7307ZM121.208 29.7206V29.72V29.7206ZM121.208 29.7155V29.7149V29.7143V29.7155ZM121.208 29.7105V29.7099V29.7105Z" fill="url(#paint11_linear_672:3429)"/>
<path d="M69.8608 77.1675V73.6978C70.2603 74.413 70.7241 75.1125 71.234 75.7956L71.2309 76.9118L70.9728 76.8991C70.5935 76.8991 70.2224 76.9831 69.8608 77.1675V77.1675Z" fill="url(#paint12_linear_672:3429)"/>
<path d="M73.032 115.424C71.6556 113.482 70.8346 111.497 69.8608 109.793V77.1672C70.2048 76.9903 70.586 76.8983 70.9728 76.8989C71.059 76.8991 71.1451 76.9033 71.2309 76.9116C71.205 90.9166 71.6815 107.364 73.0313 115.424" fill="url(#paint13_linear_672:3429)"/>
<path d="M131.573 83.0034C131.435 72.6095 130.976 62.7117 130.352 57.1612C129.242 47.2881 126.918 38.0962 119.548 31.0779C120.573 30.6745 121.162 30.2294 121.204 29.7604L121.205 29.7553L121.206 29.742L121.206 29.7288V29.7231V29.7162V29.7111V29.6985C121.205 29.5653 121.16 29.4352 121.073 29.3052C134.552 42.7553 134.609 58.6612 134.609 58.785V79.8974L134.364 80.1966C134.36 80.2004 134.356 80.2054 134.352 80.2099C133.507 81.2183 132.577 82.1528 131.573 83.0034" fill="url(#paint14_linear_672:3429)"/>
<path d="M134.364 80.1956L134.609 79.897L134.364 80.1956Z" fill="url(#paint15_linear_672:3429)"/>
<path d="M131.573 83.0107C132.559 82.1666 133.488 81.2398 134.35 80.2127C133.488 81.2405 132.559 82.171 131.573 83.0107ZM134.352 80.2095L134.364 80.1963C134.36 80.2001 134.356 80.2051 134.352 80.2095Z" fill="url(#paint16_linear_672:3429)"/>
<path d="M107.992 128.417C104.574 128.417 102.235 128.271 102.235 128.271L96.4786 128.417C87.4777 128.417 70.9784 127.403 69.8615 120.027V109.793C70.8346 111.497 71.6562 113.482 73.0326 115.423C73.451 117.923 73.9539 119.615 74.5522 120.179C78.6428 124.038 85.7637 125.96 99.2478 125.96L102.091 125.933C108.268 125.821 126.561 125.86 129.234 120.72C131.212 116.918 131.79 99.354 131.573 83.0106C132.56 82.171 133.488 81.2404 134.35 80.2126C134.356 80.2051 134.36 80.2 134.364 80.1962L134.609 79.897V120.027C133.491 127.403 116.992 128.417 107.992 128.417V128.417Z" fill="url(#paint17_linear_672:3429)"/>
<path d="M120.648 28.8972C118.27 26.5797 115.499 24.3398 112.242 22.2767C112.242 22.2767 107.87 15.7994 109.762 11.0879H102.235H94.7091C96.601 15.7994 92.2284 22.2767 92.2284 22.2767C88.991 24.3278 86.2357 26.5525 83.868 28.853C85.9997 27.413 93.4116 26.3486 102.229 26.3486C111.133 26.3486 118.601 27.4345 120.648 28.8966" fill="#D9F1DA"/>
<path d="M94.788 21.4009C96.3972 18.2412 96.5525 14.7273 96.5253 11.0884H94.7085C96.6004 15.7999 92.2278 22.2771 92.2278 22.2771C88.9904 24.3283 86.2351 26.553 83.8674 28.8535C84.7603 28.25 86.5942 27.7153 89.0604 27.2936C90.9372 25.3952 93.4508 23.6629 94.788 21.4002V21.4009ZM112.241 22.2771C112.241 22.2771 107.869 15.7999 109.761 11.0884H107.482C107.534 14.0833 107.939 16.8415 108.595 19.5322C109.084 20.4388 109.689 21.3068 110.368 22.1869C111.668 23.8712 113.043 25.4779 114.352 27.1263C117.408 27.5764 119.662 28.1925 120.648 28.8971C118.27 26.5795 115.499 24.3396 112.242 22.2765" fill="#BED4BE"/>
<path d="M92.6102 22.6195C95.8703 19.2602 95.7441 15.5513 95.816 11.0885H94.7085C96.6004 15.8 92.2278 22.2773 92.2278 22.2773C88.9904 24.3284 86.2351 26.5532 83.8674 28.8537C84.5281 28.4067 85.7082 27.9982 87.2751 27.6447C88.8806 25.6226 91.0704 24.2034 92.6108 22.6195H92.6102ZM108.351 11.0885C108.63 14.42 108.494 19.1264 111.487 22.3669C112.3 23.2501 113.157 24.1971 115.002 25.7388C115.614 26.2508 116.627 27.1131 117.209 27.6523C118.808 28.014 120.002 28.4351 120.647 28.8972C118.269 26.5797 115.498 24.3398 112.241 22.2767C112.241 22.2767 107.869 15.7994 109.761 11.0879H108.35" fill="#9DAF9F"/>
<path d="M104.093 88.9484C96.6358 88.9471 88.577 87.42 81.7306 83.5008C78.6882 81.7584 74.8462 78.3682 74.1407 74.9566C72.8685 68.795 74.8014 52.8183 75.1952 50.8442C75.3498 50.0709 75.8862 48.3853 76.6549 48.3853C76.918 48.3853 77.2083 48.5829 77.5194 49.0816C79.2883 51.9124 79.5919 55.7003 80.9531 58.771C82.077 61.3044 83.6705 63.5936 85.6577 65.5065C90.7908 70.4427 97.7004 73.4781 104.64 74.8C106.861 75.2211 119.408 76.0077 125.148 78.8512C127.174 79.8543 128.739 80.932 126.013 83.2375C122.234 86.4364 113.658 88.9478 104.094 88.9478L104.093 88.9484ZM76.8776 59.8133C76.8625 59.8135 76.8473 59.8145 76.8322 59.8164C75.572 59.9888 74.9889 74.2906 80.6943 80.7685C84.8556 85.4919 92.9225 87.5412 97.8468 87.7906C98.6842 87.8335 99.5696 87.8543 100.489 87.8543C110.69 87.8543 125.138 85.2906 125.147 81.2634C125.153 78.9661 105.877 81.2634 91.791 75.3758C85.3693 72.6921 80.7953 67.5052 79.1968 63.8C78.8194 62.9225 77.7189 59.8133 76.877 59.8133" fill="url(#paint18_linear_672:3429)"/>
<path d="M100.49 87.854C99.5702 87.854 98.6849 87.8332 97.8474 87.7903C92.9232 87.5409 84.8563 85.4917 80.695 80.7682C74.9895 74.2903 75.572 59.9891 76.8329 59.8161C76.8474 59.8143 76.8625 59.813 76.8777 59.813C77.7195 59.813 78.8201 62.9222 79.1975 63.7997C80.796 67.5049 85.3706 72.6918 91.7917 75.3755C105.878 81.2631 125.154 78.9658 125.147 81.2631C125.139 85.2903 110.69 87.854 100.49 87.854V87.854ZM78.9135 68.2379C78.5588 68.2379 78.3108 68.6514 78.2017 69.7606C77.7195 74.6848 82.491 79.9178 86.605 81.9639C90.0834 83.6949 94.0156 84.272 97.8739 84.2732L98.7549 84.2631C99.9729 84.2379 108.468 83.1735 104.799 81.2398C102.544 80.0516 98.534 80.2391 95.9662 79.7379C89.831 78.5434 84.9408 74.0434 80.7625 69.7151C80.016 68.9386 79.3748 68.2379 78.9135 68.2379V68.2379Z" fill="url(#paint19_linear_672:3429)"/>
<path d="M97.8746 84.2731C94.0156 84.2719 90.084 83.6949 86.6056 81.9638C82.4917 79.9177 77.7202 74.6848 78.2023 69.7605C78.3108 68.6513 78.5595 68.2378 78.9141 68.2378C79.3755 68.2378 80.0166 68.9386 80.7632 69.7151C84.9415 74.0434 89.831 78.5434 95.9669 79.7378C98.5347 80.2391 102.546 80.0516 104.799 81.2397C108.468 83.1734 99.9735 84.2378 98.7555 84.263L97.8746 84.2731" fill="url(#paint20_linear_672:3429)"/>
<path d="M89.8373 119.293C87.8425 119.293 85.7921 118.876 83.9873 118.111C82.5371 117.495 81.2465 116.656 80.269 115.631C76.3084 111.473 73.829 97.4477 79.8828 93.9856C80.4148 93.6807 81.0667 93.5513 81.7924 93.5513C85.033 93.5513 89.7331 96.1485 91.7172 97.3682C97.7307 101.07 100.646 106.359 98.818 113.452C97.7629 117.548 93.9159 119.294 89.8379 119.293" fill="url(#paint21_linear_672:3429)"/>
<path d="M99.2402 16.0348C99.0162 15.7715 98.7784 15.5203 98.5278 15.2822L99.3015 15.3422L99.2402 16.0348Z" fill="#D9F1DA"/>
<path d="M111.511 26.7778L105.722 26.4066C104.909 24.0505 104.558 21.4805 104.587 19.1244C104.595 18.3826 104.601 15.2563 105.878 15.2563C106.071 15.2563 106.294 15.3289 106.55 15.4912C107.122 15.8529 107.044 16.6276 107.043 17.2317C107.04 19.4666 107.717 21.156 108.937 23.0455C109.756 24.3132 110.627 25.5499 111.511 26.7772" fill="url(#paint22_radial_672:3429)"/>
<path d="M111.056 6.16406C111.056 7.35598 107.123 8.32315 102.273 8.32315C97.4234 8.32315 93.4924 7.35598 93.4924 6.16406V15.1533H93.5208C93.5208 16.3478 97.453 17.3168 102.302 17.3168C107.151 17.3168 111.085 16.3478 111.085 15.1533V6.16406H111.056Z" fill="#C01E24"/>
<path d="M111.099 6.16414C111.099 7.35606 107.157 8.32323 102.295 8.32323C97.4335 8.32323 93.4931 7.35606 93.4931 6.16414C93.4931 4.9678 97.4329 4 102.295 4C107.158 4 111.099 4.9678 111.099 6.16414Z" fill="url(#paint23_linear_672:3429)"/>
<path d="M102.392 7.82574C99.8227 7.7241 94.564 7.71779 93.524 6.01514L93.4931 6.16413C93.4931 7.35605 97.4329 8.32322 102.295 8.32322C107.078 8.32322 110.961 7.38572 111.087 6.21968C110.077 7.16981 105.854 7.96021 102.392 7.82574" fill="#FABFB2"/>
</g>
<defs>
<linearGradient id="paint0_linear_672:3429" x1="-396.525" y1="12433.3" x2="6982.88" y2="11841.5" gradientUnits="userSpaceOnUse">
<stop stop-color="#F6D812"/>
<stop offset="1" stop-color="#EEAF0E"/>
</linearGradient>
<linearGradient id="paint1_linear_672:3429" x1="29.2195" y1="4198.07" x2="1165.96" y2="4156.42" gradientUnits="userSpaceOnUse">
<stop stop-color="#F7E825"/>
<stop offset="1" stop-color="#F4CF19"/>
</linearGradient>
<linearGradient id="paint2_linear_672:3429" x1="79.2018" y1="2196.46" x2="584.666" y2="2180.53" gradientUnits="userSpaceOnUse">
<stop stop-color="#F6EA29"/>
<stop offset="1" stop-color="#F4D41D"/>
</linearGradient>
<linearGradient id="paint3_linear_672:3429" x1="-333.348" y1="5858.89" x2="5968.96" y2="4918.43" gradientUnits="userSpaceOnUse">
<stop stop-color="#F4CB11"/>
<stop offset="1" stop-color="#ECAA0F"/>
</linearGradient>
<linearGradient id="paint4_linear_672:3429" x1="-333.338" y1="6004.88" x2="5975.44" y2="5086.49" gradientUnits="userSpaceOnUse">
<stop stop-color="#EEB60D"/>
<stop offset="1" stop-color="#E8A011"/>
</linearGradient>
<linearGradient id="paint5_linear_672:3429" x1="7.02803" y1="7056.89" x2="1746.63" y2="6999.14" gradientUnits="userSpaceOnUse">
<stop stop-color="#EAAA10"/>
<stop offset="1" stop-color="#E79A13"/>
</linearGradient>
<linearGradient id="paint6_linear_672:3429" x1="-348.947" y1="5457.15" x2="6187.42" y2="4362.4" gradientUnits="userSpaceOnUse">
<stop stop-color="#E79E12"/>
<stop offset="1" stop-color="#E69414"/>
</linearGradient>
<linearGradient id="paint7_linear_672:3429" x1="2198.8" y1="3231.33" x2="554.152" y2="2209.31" gradientUnits="userSpaceOnUse">
<stop stop-color="#F9D905"/>
<stop offset="0.733" stop-color="#F0B00D"/>
</linearGradient>
<linearGradient id="paint8_linear_672:3429" x1="2198.81" y1="3145.41" x2="579.712" y2="2111.16" gradientUnits="userSpaceOnUse">
<stop stop-color="#EEAF0E"/>
<stop offset="0.733" stop-color="#E99C12"/>
</linearGradient>
<linearGradient id="paint9_linear_672:3429" x1="357.017" y1="2351.15" x2="85.4526" y2="2323.1" gradientUnits="userSpaceOnUse">
<stop stop-color="#F8F338"/>
<stop offset="0.733" stop-color="#F7ED35"/>
</linearGradient>
<linearGradient id="paint10_linear_672:3429" x1="523.112" y1="889.181" x2="154.951" y2="714.543" gradientUnits="userSpaceOnUse">
<stop stop-color="#F6ED34"/>
<stop offset="0.733" stop-color="#F5E935"/>
</linearGradient>
<linearGradient id="paint11_linear_672:3429" x1="-299.99" y1="5841.98" x2="5483.1" y2="5057.09" gradientUnits="userSpaceOnUse">
<stop stop-color="#E5AC10"/>
<stop offset="1" stop-color="#E19614"/>
</linearGradient>
<linearGradient id="paint12_linear_672:3429" x1="59.9697" y1="507.85" x2="217.109" y2="500.214" gradientUnits="userSpaceOnUse">
<stop stop-color="#E4A412"/>
<stop offset="1" stop-color="#E29215"/>
</linearGradient>
<linearGradient id="paint13_linear_672:3429" x1="47.0193" y1="4897.37" x2="410.718" y2="4893.69" gradientUnits="userSpaceOnUse">
<stop stop-color="#E29A14"/>
<stop offset="1" stop-color="#DE8B16"/>
</linearGradient>
<linearGradient id="paint14_linear_672:3429" x1="11.0631" y1="6748.4" x2="1736.56" y2="6688.98" gradientUnits="userSpaceOnUse">
<stop stop-color="#E09215"/>
<stop offset="1" stop-color="#DD8917"/>
</linearGradient>
<linearGradient id="paint15_linear_672:3429" x1="132.6" y1="117.261" x2="160.405" y2="114.461" gradientUnits="userSpaceOnUse">
<stop stop-color="#DF8E16"/>
<stop offset="1" stop-color="#DD8617"/>
</linearGradient>
<linearGradient id="paint16_linear_672:3429" x1="111.472" y1="432.353" x2="426.884" y2="393.951" gradientUnits="userSpaceOnUse">
<stop stop-color="#DE8C16"/>
<stop offset="1" stop-color="#DC8517"/>
</linearGradient>
<linearGradient id="paint17_linear_672:3429" x1="-396.515" y1="6151.09" x2="6836.02" y2="4966" gradientUnits="userSpaceOnUse">
<stop stop-color="#DD8A17"/>
<stop offset="1" stop-color="#DC8418"/>
</linearGradient>
<linearGradient id="paint18_linear_672:3429" x1="-313.513" y1="5123.93" x2="5693.7" y2="4146.35" gradientUnits="userSpaceOnUse">
<stop stop-color="#F6EA29"/>
<stop offset="1" stop-color="#F4D41D"/>
</linearGradient>
<linearGradient id="paint19_linear_672:3429" x1="-278.041" y1="3568.5" x2="5110.16" y2="2408.81" gradientUnits="userSpaceOnUse">
<stop stop-color="#F7F346"/>
<stop offset="1" stop-color="#F7F340"/>
</linearGradient>
<linearGradient id="paint20_linear_672:3429" x1="-120.228" y1="2074.69" x2="2904.55" y2="1436.73" gradientUnits="userSpaceOnUse">
<stop stop-color="#FBF9A0"/>
<stop offset="1" stop-color="#FCF99F"/>
</linearGradient>
<linearGradient id="paint21_linear_672:3429" x1="-90.2338" y1="3314.55" x2="2529" y2="3025.78" gradientUnits="userSpaceOnUse">
<stop stop-color="#F5D81D"/>
<stop offset="1" stop-color="#F0C10F"/>
</linearGradient>
<radialGradient id="paint22_radial_672:3429" cx="0" cy="0" r="1" gradientUnits="userSpaceOnUse" gradientTransform="translate(504.81 147.497) scale(78.9224 126.395)">
<stop stop-color="#FCFDEE"/>
<stop offset="1" stop-color="#D9F1DA"/>
</radialGradient>
<linearGradient id="paint23_linear_672:3429" x1="998.365" y1="33.6055" x2="998.365" y2="4" gradientUnits="userSpaceOnUse">
<stop stop-color="#F79185"/>
<stop offset="0.745" stop-color="#EE2030"/>
</linearGradient>
<clipPath id="clip0_672:3429">
<rect width="65" height="125" fill="white" transform="translate(69.8608 4)"/>
</clipPath>
</defs>
</svg>
