<svg width="1440" height="1024" viewBox="0 0 1440 1024" fill="none" xmlns="http://www.w3.org/2000/svg">
<g clip-path="url(#clip0_808:2731)">
<rect width="1440" height="1024" fill="#E0F6F6"/>
<path d="M-23.6916 526.498C25.0857 510.443 64.6148 473.65 95.1682 432.365C125.721 391.079 148.701 344.789 175.348 300.879C201.993 256.967 233.293 214.44 275.878 185.735C324.494 152.964 383.686 140.816 437.827 118.325C491.967 95.8334 545.861 56.4619 556.927 -1.12575C567.11 -54.1089 536.536 -108.679 492.951 -140.46C449.366 -172.242 394.968 -185.109 341.606 -192.945C208.075 -212.548 65.2103 -203.327 -51.3933 -135.351C-156.634 -74.0005 -233.377 34.2156 -256.486 153.849C-263.288 189.067 -265.412 225.153 -263.101 260.937C-260.79 296.74 -254.052 332.254 -243.144 366.43C-232.241 400.592 -217.16 433.435 -198.164 463.853C-190.763 475.702 -183.169 489.32 -171.513 497.541C-167.036 500.701 -162.106 503.195 -157.44 506.056C-150.326 510.42 -143.665 515.407 -136.244 519.273C-105.721 535.178 -69.044 537.888 -35.8349 529.941C-31.7421 528.959 -27.6896 527.815 -23.6916 526.498Z" fill="#1C6467"/>
<path d="M778.954 945.942C846.377 904.936 932.082 881.712 1004.19 913.758C1036.92 928.298 1065.92 953.683 1101.51 957.584C1165.43 964.582 1225.34 899.727 1286.84 918.48C1319.85 928.543 1342.65 960.745 1375.84 970.185C1409.1 979.64 1443.68 964.18 1475.59 950.88C1507.1 937.748 1540.22 926.262 1574.34 926.754C1608.47 927.244 1644.08 941.722 1662.12 970.706C1678.15 996.455 1678 1029.93 1667.68 1058.45C1650.64 1105.58 1608.74 1140.35 1562.71 1160.13C1516.67 1179.91 1466.26 1186.67 1416.56 1192.95C1175.72 1223.41 928.586 1247.21 692.392 1191.15C664.945 1184.63 636.708 1176.51 615.524 1157.87C600.732 1144.86 590.388 1125.61 589.849 1105.71C589.672 1099.09 590.108 1092.04 594.429 1086.69C599.03 1080.99 606.15 1077.13 611.977 1072.85C630.041 1059.6 647.51 1045.56 664.875 1031.41C682.326 1017.19 699.68 1002.84 717.46 989.029C735.195 975.253 753.363 961.999 772.37 950.02C774.553 948.642 776.746 947.283 778.954 945.942" fill="#1C6467"/>
<path d="M979.994 102.368C999.949 168.142 1048.37 223.225 1107.16 258.809C1165.95 294.391 1234.51 311.595 1303.04 316.681C1389.52 323.103 1480.26 309.631 1552.38 261.462C1624.51 213.293 1673.87 125.883 1660.87 40.1145C1649.62 -34.1641 1594.17 -96.4199 1527.8 -131.574C1437.24 -179.535 1321.82 -189.446 1221.11 -181.142C1166.98 -176.678 1112.72 -162.632 1067.14 -133.07C1014.07 -98.6512 975.502 -42.0453 971.007 21.9396C969.313 46.0137 971.521 70.3801 977.57 93.7441C978.317 96.636 979.126 99.5115 979.994 102.368" fill="#047B57"/>
<path d="M51.1943 1131.06C78.6123 1173.01 123.76 1201.64 172.18 1214.51C220.6 1227.38 272.094 1225.38 321.089 1214.92C382.921 1201.71 443.667 1173.71 484.284 1125.24C524.902 1076.77 541.567 1005.5 514.933 948.142C491.865 898.464 440.327 866.25 386.69 855.234C313.513 840.203 230.713 856.895 161.939 883.317C124.969 897.519 89.8691 918.455 64.0225 948.469C33.927 983.416 18.5149 1030.92 28.4552 1076.62C32.1949 1093.81 38.7215 1110.41 47.7358 1125.52C48.8507 1127.39 50.0031 1129.24 51.1943 1131.06" fill="#FBBE2B"/>
<path d="M259.888 236.818C306.405 196.998 365.455 172.215 426.382 166.172C433.485 165.466 440.804 165.03 447.631 167.113C454.46 169.196 460.781 174.298 462.405 181.254C464.222 189.024 459.952 196.866 455.185 203.265C442.536 220.238 425.491 233.354 408.301 245.702C395.622 254.81 382.739 263.63 369.694 272.2C356.651 280.771 343.447 289.097 330.121 297.221C316.79 305.354 303.337 313.286 289.8 321.071C276.252 328.86 262.621 336.502 248.937 344.048C235.345 351.542 221.809 359.259 207.988 366.323C200.259 370.273 189.029 372.508 180.928 368.299C170.722 362.997 178.439 350.495 181.644 343.07C187.072 330.492 193.397 318.303 200.536 306.611C207.68 294.914 215.639 283.717 224.336 273.129C233.036 262.541 242.474 252.558 252.573 243.297C254.974 241.097 257.413 238.936 259.888 236.818" fill="#FBBE2B"/>
<path d="M-24.0163 906.904C0.213947 928.567 39.5011 933.267 65.913 914.326C84.9251 900.692 95.202 877.356 97.8238 854.102C100.975 826.156 93.6621 796.566 75.3347 775.243C57.0054 753.917 27.2244 742.09 -0.263489 747.987C-27.09 753.742 -50.9633 779.311 -55.6027 806.219C-61.2958 839.228 -49.4082 884.205 -24.0163 906.904Z" fill="#047B57"/>
<path d="M1620.59 468.242C1599.63 443.748 1577.11 420.337 1552.49 399.499C1552.64 398.735 1552.69 397.926 1552.81 397.208C1553.31 394.013 1553.76 390.812 1554.23 387.612C1555.97 375.581 1557.78 363.562 1559.27 351.497C1560.42 352.32 1561.55 353.174 1562.64 354.102C1568.11 358.779 1572.5 364.52 1576.15 370.697C1583.95 383.89 1588.63 398.673 1594.36 412.814C1600.96 429.11 1608.05 445.379 1616.61 460.75C1618.02 463.296 1619.47 465.824 1620.91 468.353C1620.8 468.321 1620.7 468.275 1620.59 468.242V468.242ZM1568.97 426.817C1560.37 418.305 1550.96 410.348 1539.83 405.373C1539.24 405.11 1538.64 404.902 1538.04 404.655C1539.39 404.437 1540.72 404.169 1542.06 403.893C1543.72 403.547 1545.39 403.199 1547.05 402.854C1548.22 402.611 1549.71 402.547 1550.8 402.055C1551.18 401.882 1551.46 401.635 1551.7 401.355C1552.82 402.329 1553.98 403.269 1555.09 404.255C1576.86 423.488 1596.93 444.411 1615.77 466.482C1596.83 458.632 1583.25 440.945 1568.97 426.817V426.817ZM1497.02 397.302C1481.76 396.85 1466.43 397.772 1451.2 396.409C1451.07 396.397 1450.94 396.376 1450.81 396.362C1470.4 386.854 1490.44 377.839 1510.96 370.532C1524.61 379.442 1537.65 389.345 1550.09 399.982C1548.4 401.555 1543.85 401.604 1541.97 401.946C1539.66 402.368 1537.36 402.81 1535.12 403.475C1522.97 399.019 1509.91 397.683 1497.02 397.302V397.302ZM1404.97 385.129C1399.29 383.4 1393.55 381.793 1387.72 380.624C1392.56 377.882 1397.25 374.852 1402.02 371.991C1407.88 368.469 1413.78 365.011 1419.69 361.558C1431.53 354.631 1443.48 347.909 1455.51 341.306C1474.37 348.977 1492.41 358.544 1509.55 369.612C1489.06 377.934 1468.74 386.404 1448.87 396.133C1433.74 394.429 1419.5 389.551 1404.97 385.129ZM1381.98 379.628C1373.68 378.434 1365.27 378.452 1356.91 378.92C1340.85 379.813 1324.69 382.314 1308.64 379.996C1303.48 379.251 1298.39 378.012 1293.55 376.102C1308.26 367.148 1322.55 357.492 1337.19 348.419C1344.55 343.856 1351.96 339.346 1359.39 334.896C1366.6 330.576 1373.78 326.017 1381.21 322.069C1389.62 323.096 1398 324.44 1406.29 326.177C1422.48 329.571 1438.17 334.425 1453.36 340.462C1453.29 340.515 1453.23 340.563 1453.15 340.616C1449.72 342.893 1445.79 344.64 1442.18 346.645C1438.39 348.753 1434.61 350.879 1430.84 353.022C1423.3 357.311 1415.81 361.681 1408.38 366.152C1400.79 370.709 1392.94 375.134 1385.71 380.274C1384.47 380.05 1383.23 379.807 1381.98 379.628ZM1287.88 373.484C1281.39 369.97 1276.39 364.892 1271.54 359.433C1269.51 357.161 1267.47 354.858 1265.3 352.699C1275.45 342.257 1286.35 332.476 1298 323.717C1304.34 322.676 1310.72 321.805 1317.11 321.184C1337.58 319.204 1358.25 319.463 1378.69 321.783C1372.22 325.79 1365.54 329.487 1359.03 333.412C1351.47 337.973 1343.94 342.592 1336.45 347.271C1321.73 356.465 1306.82 365.602 1292.78 375.803C1291.11 375.116 1289.47 374.346 1287.88 373.484V373.484ZM1256.88 346.009C1251.04 342.609 1243.92 341.295 1237.23 342.061C1237.03 342.084 1236.83 342.133 1236.62 342.16C1241.69 339.663 1246.82 337.306 1252.12 335.335C1259 332.782 1266.06 330.71 1273.16 328.886C1280.47 327.009 1287.86 325.43 1295.29 324.137C1284.43 332.735 1274.06 341.87 1264.4 351.824C1262.1 349.628 1259.65 347.617 1256.88 346.009V346.009ZM1286.51 303.597C1290.04 309.7 1293.67 315.748 1297.55 321.628C1290.64 322.727 1283.75 324.057 1276.93 325.652C1263.32 328.836 1248.86 332.78 1236.54 339.904C1251.34 325.492 1268.45 313.656 1286.51 303.597ZM1307.27 292.923C1323.13 285.416 1339.57 278.614 1357.33 277.879C1358.05 277.85 1358.76 277.873 1359.48 277.858C1363.07 285.073 1366.68 292.277 1370.25 299.499C1373.64 306.343 1376.65 313.568 1380.52 320.167C1362.56 317.954 1344.36 317.347 1326.15 318.475C1317.09 319.035 1308.05 320.015 1299.08 321.392C1295.3 315.223 1291.51 309.068 1287.88 302.813C1294.25 299.31 1300.73 296.021 1307.27 292.923V292.923ZM1412.6 284.373C1423.1 286.145 1433.6 287.938 1444.1 289.72C1446.14 298.135 1448.11 306.574 1449.88 315.048C1450.83 319.551 1451.74 324.063 1452.55 328.596C1452.89 330.565 1453.23 332.537 1453.56 334.511C1453.72 335.499 1453.88 336.487 1454.04 337.475C1454.14 338.093 1454.25 338.554 1454.26 338.939C1431.19 329.841 1407.09 323.604 1382.52 320.408C1379.57 313.078 1375.43 306.109 1371.86 299.067C1368.29 292.007 1364.77 284.918 1361.22 277.842C1378.47 277.745 1395.69 281.516 1412.6 284.373V284.373ZM1466.66 293.551C1475.02 294.992 1483.53 296.611 1491.07 300.695C1497.03 303.927 1501.93 308.673 1506.5 313.628C1506.76 317.948 1506.71 322.307 1506.92 326.632C1507.17 331.502 1507.44 336.372 1507.75 341.24C1508.31 350.08 1509 358.911 1509.86 367.726C1505.3 364.781 1500.69 361.901 1495.98 359.158C1483.15 351.669 1469.82 345.153 1456.12 339.645C1453.31 323.011 1450.1 306.417 1446.02 290.045C1452.9 291.215 1459.79 292.365 1466.66 293.551V293.551ZM1522.87 330.708C1528.67 335.555 1535.4 338.928 1542.18 342.148C1547.5 344.677 1552.86 347.191 1557.76 350.445C1555.95 361.323 1554.42 372.244 1552.85 383.162C1552.46 385.858 1552.07 388.552 1551.69 391.249C1551.49 392.597 1551.3 393.945 1551.12 395.296C1551.01 396.096 1551.02 397.187 1550.88 398.144C1538.29 387.581 1525.14 377.685 1511.36 368.688C1510.63 359.516 1509.92 350.34 1509.35 341.156C1509.06 336.454 1508.8 331.753 1508.57 327.05C1508.38 323.108 1508.03 319.125 1507.91 315.167C1512.73 320.502 1517.35 326.078 1522.87 330.708V330.708ZM1534.98 477.494C1525.86 478.898 1516.78 480.57 1507.75 482.461C1473.89 473.874 1439.85 465.982 1405.61 459.029C1397.09 457.298 1388.56 455.693 1379.98 454.351C1380.7 453.931 1381.43 453.519 1382.17 453.126C1397.12 445.249 1414.35 447.435 1430.61 446.813C1438.97 446.492 1447.02 445.099 1455.09 442.892C1463.66 440.552 1472.14 437.897 1481.05 437.25C1498.5 435.984 1515.95 440.688 1532.22 446.554C1547.69 452.128 1562.66 459.311 1576.7 467.866C1579 469.267 1581.26 470.733 1583.5 472.225C1567.27 473.273 1551.08 475.018 1534.98 477.494V477.494ZM1484.97 538.19C1477.61 556.235 1470 574.2 1462.96 592.371C1458.9 593.433 1454.89 594.666 1450.99 596.292C1437.46 601.94 1427.18 612.432 1415.03 620.284C1402.03 628.69 1387.62 631.099 1372.82 631.588C1379.06 603.859 1385.19 576.102 1391.44 548.373C1393.01 541.393 1394.66 534.423 1396.18 527.433C1396.46 526.161 1396.77 524.891 1395.99 523.951C1409.88 516.936 1424.16 510.689 1438.73 505.234C1460.74 496.999 1483.39 490.524 1506.39 485.685C1499.25 503.184 1492.11 520.688 1484.97 538.19V538.19ZM1328.8 631.356C1322.79 631.636 1316.86 632.463 1311.07 633.768C1313.1 614.966 1314.79 596.128 1316.95 577.337C1329.79 565.613 1343.72 555.081 1358.29 545.604C1369.76 538.141 1381.63 531.324 1393.8 525.085C1394.1 525.35 1394.38 525.661 1394.6 526.063C1394.49 526.561 1394.39 527.061 1394.27 527.559C1392.81 534.216 1391.34 540.874 1389.88 547.529C1386.9 561.007 1383.86 574.472 1380.85 587.944C1377.6 602.504 1374.35 617.067 1371.13 631.636C1357.04 631.969 1342.63 630.71 1328.8 631.356V631.356ZM1258.94 664.799C1257.8 666.135 1256.72 667.508 1255.67 668.91C1255.66 668.869 1255.65 668.828 1255.64 668.786C1264.19 643.228 1277.78 619.889 1295.37 599.477C1301.61 592.244 1308.28 585.422 1315.26 578.937C1313.52 597.346 1311.35 615.711 1309.52 634.11C1290.02 638.817 1272.22 649.249 1258.94 664.799V664.799ZM1254.77 665.411C1248.1 639.371 1243.27 610.268 1255.08 585.416C1259.52 585.272 1264.08 584.157 1268.4 583.527C1273.71 582.751 1279.02 582.002 1284.34 581.287C1293.92 579.999 1303.52 578.852 1313.12 577.776C1308.46 582.131 1303.93 586.622 1299.59 591.301C1280.88 611.444 1265.3 634.797 1256.21 660.86C1255.69 662.362 1255.22 663.884 1254.77 665.411ZM1256.74 582.053C1260.53 575.11 1265.66 569.046 1270.44 562.781C1275.24 556.474 1279.43 549.933 1282.42 542.558C1285.5 534.957 1287.68 527.02 1290.92 519.478C1293.31 513.896 1296.39 508.719 1300.22 504.08C1325.86 508.021 1351.28 513.293 1376.35 519.941C1379.39 520.748 1382.42 521.573 1385.45 522.417C1387.05 522.862 1388.64 523.313 1390.23 523.768C1390.35 523.803 1390.49 523.835 1390.62 523.868C1381.85 528.458 1373.22 533.333 1364.81 538.557C1347.17 549.517 1330.34 561.927 1315.03 575.987C1304.57 576.92 1294.15 578.074 1283.74 579.449C1278.42 580.153 1273.11 580.917 1267.81 581.742C1263.97 582.341 1259.79 582.683 1255.93 583.7C1256.21 583.152 1256.45 582.594 1256.74 582.053V582.053ZM1303.64 500.284C1309.24 494.64 1315.92 490.361 1323.21 487.247C1330.67 484.056 1338.48 481.739 1345.78 478.172C1358.09 472.163 1367.48 461.853 1379.12 454.861C1395.18 458.669 1411.37 461.87 1427.48 465.414C1444.74 469.212 1461.97 473.106 1479.15 477.241C1487.35 479.213 1495.53 481.257 1503.71 483.315C1484.37 487.533 1465.28 492.88 1446.62 499.486C1428.28 505.977 1410.36 513.68 1393.05 522.586C1392.53 522.465 1392.01 522.349 1391.56 522.22C1389.65 521.68 1387.74 521.147 1385.82 520.622C1372.43 516.946 1358.93 513.655 1345.34 510.753C1330.76 507.637 1316.08 504.998 1301.33 502.781C1302.08 501.931 1302.84 501.095 1303.64 500.284V500.284ZM1626.54 471.126C1626.43 471.124 1626.32 471.126 1626.21 471.124C1626.17 470.342 1625.73 469.591 1624.74 469.372C1624.28 469.271 1623.85 469.125 1623.39 469.012C1615.6 453.182 1608.12 437.123 1601.27 420.87C1595.08 406.196 1590.17 390.903 1583.16 376.587C1576.55 363.095 1567.4 351.674 1554.03 344.461C1546.96 340.643 1539.4 337.763 1532.45 333.713C1525.81 329.845 1520.39 324.609 1515.25 318.961C1510.26 313.479 1505.48 307.73 1499.68 303.066C1493.55 298.13 1486.46 295.08 1478.87 293.168C1470.17 290.98 1461.19 289.827 1452.36 288.347C1442.97 286.773 1433.59 285.206 1424.2 283.623C1406 280.557 1387.67 276.568 1369.22 275.386C1360.21 274.81 1351.19 275.209 1342.34 277.084C1333.73 278.906 1325.43 281.942 1317.35 285.383C1287.63 298.042 1259.07 314.474 1235.31 336.547C1232.32 339.326 1229.43 342.209 1226.62 345.165C1225.23 346.624 1227.18 348.683 1228.82 347.767C1235.48 344.041 1243.26 343.012 1250.6 345.317C1257.71 347.553 1263.03 352.618 1267.89 358.054C1272.6 363.322 1277.09 368.743 1282.98 372.759C1288.41 376.464 1294.56 378.952 1300.91 380.583C1315.52 384.333 1330.66 383.386 1345.53 382.283C1354.18 381.643 1362.86 381.007 1371.54 381.373C1375.53 381.542 1379.49 381.997 1383.42 382.657C1383.53 382.738 1383.66 382.764 1383.83 382.715C1387.89 383.415 1391.92 384.347 1395.92 385.451C1411.13 389.656 1425.81 395.857 1441.43 398.537C1456.21 401.073 1471.29 400.797 1486.23 400.853C1500.99 400.911 1516.01 401.32 1530.22 405.75C1542.71 409.646 1553.19 417.101 1562.63 425.989C1579.26 441.651 1593.62 462.316 1615.71 470.721C1616.06 470.854 1616.42 470.955 1616.77 471.081C1606.59 471.124 1596.42 471.459 1586.26 472.063C1573.29 462.905 1559.54 454.911 1544.96 448.598C1529.21 441.785 1512.4 435.953 1495.24 434.251C1486.59 433.391 1477.98 433.753 1469.47 435.55C1460.48 437.448 1451.77 440.593 1442.69 442.054C1426.19 444.71 1409.22 441.593 1392.86 445.502C1377.28 449.223 1366.51 460.699 1353.89 469.685C1340.25 479.407 1322.99 481.523 1309.37 491.217C1303.34 495.513 1298.1 500.863 1293.96 506.994C1289.37 513.779 1286.5 521.4 1283.82 529.09C1281.04 537.073 1278.25 545.069 1273.7 552.246C1269.22 559.307 1263.56 565.512 1258.71 572.311C1249.62 585.075 1245.15 599.693 1244.42 615.287C1243.68 631.119 1246.41 646.944 1250.03 662.294C1250.96 666.203 1251.95 670.093 1252.98 673.975C1253.33 675.291 1255.46 675.916 1256.3 674.69C1272.05 651.739 1296.77 637.031 1324.55 634.629C1353.29 632.142 1384.15 640.526 1411.1 626.863C1423.96 620.34 1434.06 609.622 1446.66 602.692C1460.19 595.255 1475.89 594.039 1490.54 590.006C1514.33 583.461 1536.03 569.857 1552.8 551.82C1569.55 533.8 1582.07 511.02 1586.82 486.771C1587.42 483.731 1587.77 480.664 1588.18 477.597C1588.46 475.516 1585.25 474.831 1584.97 476.933C1581.7 501.499 1570.46 525.062 1554.51 543.877C1538.48 562.781 1517.37 577.665 1493.64 585.093C1484.26 588.032 1474.45 589.527 1464.9 591.879C1472.39 574.365 1479.37 556.62 1486.57 538.989C1493.88 521.077 1501.2 503.166 1508.51 485.252C1514.3 484.061 1520.1 482.941 1525.93 481.957C1555.56 476.955 1585.62 474.757 1615.66 474.817C1619.36 474.825 1623.05 474.87 1626.74 474.948C1629.21 475 1629 471.161 1626.54 471.126Z" fill="#1C6467"/>
<path d="M-122.995 599.753C-91.7358 607.614 -59.8358 613.694 -27.7007 616.454C-27.3799 617.164 -26.9554 617.858 -26.6332 618.508C-25.1976 621.405 -23.7188 624.282 -22.2463 627.16C-16.7156 637.984 -11.2483 648.84 -5.48535 659.541C-6.90239 659.537 -8.32263 659.496 -9.7453 659.368C-16.9125 658.716 -23.812 656.571 -30.3618 653.642C-44.3482 647.387 -56.7093 638.03 -69.5543 629.805C-84.3588 620.328 -99.5499 611.156 -115.417 603.561C-118.045 602.305 -120.687 601.081 -123.326 599.85C-123.216 599.813 -123.105 599.788 -122.995 599.753V599.753ZM-56.936 603.699C-44.9992 605.667 -32.7226 606.72 -20.7625 604.339C-20.1324 604.213 -19.5199 604.036 -18.8953 603.894C-19.8631 604.847 -20.7979 605.84 -21.7294 606.838C-22.8869 608.083 -24.0418 609.328 -25.1992 610.572C-26.0151 611.448 -27.1949 612.362 -27.7978 613.394C-28.0085 613.756 -28.0968 614.118 -28.1275 614.482C-29.6096 614.34 -31.095 614.242 -32.5763 614.083C-61.4482 610.975 -89.916 605.512 -118.046 598.403C-98.0565 593.854 -76.7527 600.432 -56.936 603.699V603.699ZM18.8245 586.168C31.5418 577.708 43.5154 568.09 56.7324 560.394C56.8449 560.328 56.9616 560.272 57.0748 560.207C46.5849 579.298 35.4447 598.242 22.9285 616.069C6.64184 616.695 -9.71958 616.156 -26.02 614.672C-25.5546 612.414 -21.8653 609.738 -20.5326 608.375C-18.8881 606.692 -17.2701 605.004 -15.8218 603.162C-3.33528 599.774 8.08541 593.315 18.8245 586.168V586.168ZM100.964 542.863C106.6 540.988 112.216 538.979 117.646 536.563C115.28 541.597 113.206 546.782 110.972 551.872C108.223 558.136 105.408 564.371 102.586 570.605C96.9263 583.105 91.0573 595.503 85.0619 607.844C65.237 612.498 44.9903 615.125 24.6116 616.004C36.5153 597.367 48.2045 578.701 58.7941 559.27C72.1198 551.914 86.5609 547.655 100.964 542.863V542.863ZM122.906 534.054C130.37 530.225 137.218 525.347 143.769 520.133C156.356 510.115 168.096 498.727 182.535 491.335C187.172 488.96 192.046 487.025 197.099 485.784C190.271 501.596 184.19 517.741 177.49 533.611C174.118 541.595 170.686 549.553 167.194 557.485C163.806 565.179 160.585 573.051 156.807 580.57C149.346 584.6 141.735 588.346 133.964 591.724C118.793 598.32 103.183 603.435 87.3043 607.291C87.3325 607.208 87.3502 607.136 87.3856 607.044C88.8719 603.203 91.0653 599.504 92.8472 595.785C94.7223 591.874 96.5783 587.951 98.4156 584.021C102.089 576.161 105.675 568.263 109.159 560.316C112.714 552.208 116.558 544.061 119.492 535.682C120.635 535.149 121.783 534.628 122.906 534.054V534.054ZM203.236 484.644C210.563 483.754 217.573 485.008 224.691 486.653C227.656 487.338 230.654 488.034 233.674 488.54C231.421 502.934 228.185 517.219 223.74 531.102C219.168 535.62 214.472 540.014 209.61 544.222C194.061 557.673 177.04 569.42 159.024 579.347C161.982 572.338 165.299 565.455 168.34 558.49C171.873 550.395 175.345 542.272 178.752 534.124C185.448 518.108 192.332 502.03 197.902 485.582C199.659 485.179 201.437 484.86 203.236 484.644V484.644ZM244.405 489.133C251.138 488.528 257.705 485.483 262.722 480.988C262.876 480.85 263.01 480.696 263.16 480.554C260.471 485.52 257.65 490.409 254.456 495.088C250.325 501.147 245.763 506.921 241.024 512.515C236.144 518.277 231.028 523.836 225.709 529.192C229.602 515.895 232.785 502.442 234.911 488.736C238.055 489.197 241.224 489.417 244.405 489.133V489.133ZM244.744 540.871C238.339 537.936 231.884 535.097 225.312 532.545C230.322 527.65 235.17 522.585 239.814 517.336C249.084 506.863 258.599 495.285 264.529 482.351C260.782 502.67 253.67 522.216 244.744 540.871V540.871ZM233.975 561.588C225.372 576.887 215.896 591.944 201.828 602.814C201.261 603.254 200.663 603.647 200.085 604.073C192.987 600.268 185.875 596.478 178.786 592.65C172.07 589.023 165.439 584.865 158.467 581.72C174.4 573.139 189.595 563.113 203.802 551.663C210.874 545.961 217.68 539.934 224.207 533.621C230.851 536.472 237.502 539.3 244.078 542.307C240.909 548.845 237.524 555.277 233.975 561.588V561.588ZM152.975 629.486C143.383 634.113 133.782 638.719 124.187 643.34C117.655 637.655 111.176 631.904 104.828 626.017C101.455 622.889 98.0989 619.737 94.8268 616.504C93.4042 615.098 91.9896 613.682 90.5813 612.261C89.8772 611.549 89.1739 610.839 88.4739 610.125C88.035 609.678 87.6829 609.363 87.4484 609.057C111.53 603.135 134.804 594.284 156.696 582.686C163.337 586.959 170.743 590.25 177.721 593.934C184.721 597.627 191.69 601.373 198.673 605.099C184.656 615.149 168.427 622.032 152.975 629.486V629.486ZM103.561 653.263C95.9096 656.921 88.027 660.523 79.5207 661.548C72.7885 662.359 66.0456 661.322 59.4565 659.92C56.7478 656.546 54.2665 652.959 51.5932 649.556C48.5806 645.722 45.5417 641.907 42.476 638.116C36.9068 631.227 31.2403 624.422 25.4427 617.726C30.8681 617.492 36.2943 617.173 41.7197 616.691C56.5194 615.378 71.1624 612.986 85.5265 609.553C97.4318 621.501 109.638 633.184 122.43 644.184C116.139 647.21 109.858 650.252 103.561 653.263ZM36.2212 655.455C28.6956 654.85 21.2519 655.993 13.8581 657.285C8.05809 658.3 2.22596 659.354 -3.65197 659.531C-8.45608 649.604 -13.5246 639.812 -18.5522 629.994C-19.794 627.571 -21.035 625.147 -22.2768 622.722C-22.8973 621.51 -23.5162 620.297 -24.1504 619.091C-24.5266 618.377 -25.1624 617.49 -25.6077 616.633C-9.22285 617.965 7.21975 618.441 23.6688 617.805C29.5613 624.871 35.4424 631.947 41.2157 639.112C44.1697 642.778 47.0993 646.465 50.0033 650.17C52.4371 653.276 55.0268 656.32 57.4165 659.477C50.4021 657.913 43.4084 656.036 36.2212 655.455V655.455ZM-58.4936 542.69C-51.8641 536.272 -45.4252 529.657 -39.1494 522.889C-6.55516 510.313 25.7818 497.061 57.7371 482.933C65.6897 479.418 73.5721 475.797 81.3518 471.927C81.0036 472.689 80.646 473.446 80.2651 474.196C72.6237 489.271 57.3023 497.45 44.4003 507.359C37.7603 512.46 31.9973 518.254 26.6886 524.719C21.0509 531.584 15.6649 538.656 8.76862 544.337C-4.73624 555.46 -21.69 561.713 -38.3634 566.34C-54.2008 570.737 -70.5701 573.538 -86.967 574.677C-89.6539 574.864 -92.3457 574.975 -95.0375 575.053C-82.3976 564.809 -70.1981 554.023 -58.4936 542.69V542.69ZM-52.7732 464.246C-57.1988 445.268 -61.3719 426.206 -66.1293 407.308C-63.4287 404.091 -60.8663 400.767 -58.627 397.186C-50.8555 384.755 -48.5293 370.248 -43.157 356.816C-37.4076 342.436 -27.0383 332.134 -15.2471 323.175C-4.31426 349.412 6.73105 375.6 17.6574 401.842C20.4079 408.447 23.0941 415.085 25.8927 421.669C26.4007 422.865 26.8822 424.082 28.0582 424.401C20.7818 438.159 12.7432 451.511 4.0055 464.39C-9.19151 483.837 -23.9358 502.226 -39.9002 519.474C-44.189 501.065 -48.4828 482.655 -52.7732 464.246V464.246ZM20.8025 297.909C25.5423 294.206 29.902 290.099 33.8782 285.682C43.0828 302.202 52.5988 318.545 61.6917 335.129C57.9943 352.119 52.7144 368.77 46.3076 384.928C41.2633 397.651 35.5138 410.079 29.1915 422.209C28.7903 422.167 28.3845 422.073 27.9697 421.877C27.7711 421.406 27.5728 420.934 27.3742 420.463C24.7225 414.185 22.0678 407.907 19.42 401.627C14.0582 388.909 8.75415 376.164 3.42357 363.433C-2.33861 349.671 -8.10561 335.911 -13.8927 322.16C-2.58697 313.737 9.89227 306.432 20.8025 297.909V297.909ZM58.4703 230.217C58.6293 228.469 58.717 226.722 58.7629 224.972C58.795 224.999 58.8271 225.028 58.8592 225.054C66.6557 250.853 69.0591 277.756 66.5022 304.586C65.5956 314.091 64.095 323.516 62.1458 332.847C52.9274 316.818 44.0853 300.578 34.9441 284.507C48.1282 269.393 56.6295 250.582 58.4703 230.217V230.217ZM61.5252 227.302C82.0141 244.695 102.777 265.647 107.506 292.753C103.963 295.439 100.891 298.985 97.7261 302.003C93.8439 305.704 89.9433 309.388 86.0191 313.044C78.9493 319.634 71.7766 326.122 64.5627 332.556C65.8454 326.309 66.9459 320.023 67.7874 313.694C71.4099 286.44 70.6264 258.373 62.9761 231.851C62.5355 230.322 62.0429 228.809 61.5252 227.302V227.302ZM108.093 296.46C109.012 304.316 108.335 312.226 108.058 320.102C107.78 328.028 108.149 335.786 109.972 343.531C111.851 351.516 114.654 359.255 116.376 367.28C117.648 373.216 118.132 379.221 117.68 385.227C94.4869 396.838 70.6955 407.24 46.3969 416.316C43.4526 417.415 40.5019 418.495 37.5441 419.557C35.9881 420.115 34.4288 420.669 32.8687 421.216C32.7498 421.258 32.614 421.313 32.4885 421.361C36.9937 412.543 41.2133 403.579 45.0561 394.45C53.1188 375.302 59.6775 355.443 64.0436 335.115C72.0377 328.308 79.8705 321.341 87.569 314.196C91.5025 310.547 95.3935 306.852 99.2411 303.112C102.029 300.403 105.239 297.707 107.805 294.644C107.894 295.251 108.021 295.844 108.093 296.46V296.46ZM117.084 390.303C115.779 398.143 112.807 405.493 108.661 412.252C104.416 419.171 99.3818 425.58 95.4828 432.716C88.9153 444.735 87.2119 458.579 81.7536 471.015C66.4547 477.192 51.393 483.948 36.1972 490.374C19.9233 497.257 3.61166 504.047 -12.7956 510.609C-20.6251 513.74 -28.481 516.807 -36.3434 519.853C-23.0034 505.229 -10.5201 489.829 0.887695 473.646C12.1002 457.741 22.275 441.087 31.2459 423.814C31.7442 423.612 32.2329 423.404 32.6765 423.248C34.5478 422.585 36.414 421.914 38.2789 421.235C51.3327 416.488 64.2502 411.365 77.0098 405.878C90.7116 399.985 104.216 393.645 117.531 386.925C117.413 388.051 117.27 389.177 117.084 390.303V390.303ZM-129.521 600.844C-129.428 600.78 -129.338 600.714 -129.246 600.651C-128.764 601.268 -127.972 601.628 -127.037 601.235C-126.604 601.05 -126.163 600.914 -125.726 600.743C-110.217 609.151 -94.8406 617.936 -79.8536 627.232C-66.3232 635.625 -53.4773 645.263 -39.4846 652.889C-26.2947 660.076 -12.2233 664.102 2.8505 662.254C10.8327 661.276 18.6597 659.257 26.6773 658.539C34.3276 657.855 41.7727 658.996 49.2308 660.632C56.4688 662.219 63.6946 664.143 71.1206 664.596C78.9791 665.074 86.5208 663.466 93.827 660.632C102.185 657.388 110.179 653.134 118.242 649.235C126.81 645.09 135.373 640.942 143.942 636.805C160.57 628.777 177.826 621.433 193.563 611.726C201.253 606.984 208.38 601.443 214.518 594.795C220.487 588.329 225.51 581.049 230.111 573.569C247.043 546.052 260.852 516.126 267.475 484.376C268.308 480.379 269 476.357 269.586 472.316C269.878 470.324 267.095 469.772 266.284 471.468C263.004 478.362 257.249 483.701 249.934 486.062C242.837 488.351 235.571 487.293 228.464 485.671C221.573 484.098 214.781 482.27 207.653 482.4C201.078 482.519 194.623 484.045 188.499 486.387C174.416 491.774 162.608 501.306 151.108 510.807C144.421 516.334 137.709 521.87 130.418 526.59C127.06 528.764 123.569 530.68 119.985 532.413C119.846 532.411 119.72 532.469 119.617 532.602C115.893 534.383 112.064 535.953 108.169 537.361C93.3254 542.734 77.7653 546.161 63.4736 553.007C49.9488 559.484 37.8021 568.434 25.5793 577.027C13.5052 585.518 1.00825 593.872 -13.142 598.475C-25.5875 602.522 -38.4461 602.499 -51.2847 600.708C-73.909 597.551 -97.5647 588.988 -120.449 594.908C-120.809 595.002 -121.159 595.128 -121.518 595.229C-113.237 589.305 -105.132 583.147 -97.1949 576.782C-81.3182 576.749 -65.4824 575.325 -49.9335 572.04C-33.1501 568.493 -16.0557 563.523 -1.07671 554.993C6.47868 550.689 13.2946 545.413 19.2015 539.024C25.4394 532.277 30.7267 524.676 37.2943 518.227C49.2206 506.521 64.8633 499.249 75.9552 486.599C86.5208 474.548 88.6716 458.96 93.7698 444.329C99.2837 428.507 112.147 416.797 117.651 401.01C120.09 394.02 121.271 386.624 121.112 379.223C120.936 371.035 118.868 363.157 116.608 355.334C114.26 347.214 111.917 339.075 111.482 330.587C111.056 322.234 112.093 313.896 112.115 305.545C112.154 289.875 107.357 275.36 98.9382 262.215C90.3916 248.871 79.0209 237.536 67.1887 227.109C64.1753 224.453 61.1129 221.856 58.0281 219.285C56.9832 218.414 54.8893 219.131 54.912 220.619C55.3219 248.453 43.6553 274.755 22.3779 292.781C0.364446 311.432 -29.6569 322.438 -43.7478 349.169C-50.4736 361.933 -52.5185 376.516 -58.7967 389.461C-65.5338 403.352 -77.641 413.426 -87.266 425.189C-102.891 444.288 -112.732 467.936 -115.991 492.354C-119.247 516.745 -116.29 542.571 -106.157 565.107C-104.887 567.933 -103.402 570.638 -101.962 573.378C-100.985 575.234 -97.9704 573.938 -98.9567 572.062C-110.489 550.127 -114.938 524.4 -112.794 499.822C-110.642 475.128 -102.027 450.778 -86.9565 430.991C-80.9949 423.164 -73.8584 416.276 -67.4283 408.832C-63.4126 427.449 -58.8521 445.966 -54.5352 464.517C-50.1489 483.361 -45.7659 502.205 -41.3758 521.051C-45.4124 525.372 -49.5034 529.643 -53.6911 533.817C-74.9763 555.034 -98.2318 574.216 -122.779 591.542C-125.796 593.671 -128.836 595.768 -131.893 597.841C-133.932 599.224 -131.546 602.235 -129.521 600.844" fill="#FBBE2B"/>
<path d="M649.3 -44.7005C658.576 -56.3177 668.445 -67.4573 678.86 -78.0638C689.589 -88.9894 701.515 -98.7931 711.739 -110.204C716.464 -115.476 720.731 -121.26 724.021 -127.49C719.538 -106.325 711.371 -86.0747 700.149 -67.4099C684.605 -41.5636 663.642 -19.2967 640.329 -0.308667C628.454 9.36338 615.923 18.1915 603.032 26.4495C616.068 1.31535 631.648 -22.5901 649.3 -44.7005V-44.7005ZM762.53 -155.944C773.485 -155.549 784.382 -154.028 795.082 -151.665C816.51 -146.929 837.039 -138.815 856.753 -129.283C866.216 -124.707 875.424 -119.691 884.706 -114.792C843.473 -115.848 800.339 -120.313 763.448 -139.857C753.793 -144.972 744.23 -150.823 733.369 -152.754C742.664 -155.998 752.754 -156.298 762.53 -155.944V-155.944ZM807.856 -99.4312C832.045 -95.3928 855.362 -88.0405 876.986 -76.3574C888.009 -70.4048 898.235 -63.3571 907.55 -55.0271C895.563 -54.5105 883.665 -53.4751 871.645 -54.5125C859.85 -55.5335 848.202 -58.1372 837.021 -62.0068C814.866 -69.6782 794.685 -82.1125 776.602 -96.9221C769.662 -102.605 763.077 -108.681 756.635 -114.908C771.578 -105.281 790.339 -102.354 807.856 -99.4312V-99.4312ZM754.668 13.8628C744.433 36.5269 729.081 56.7459 711.013 73.7435C701.708 82.4934 691.566 90.2285 680.891 97.2103C693.426 75.9047 705.439 54.2738 718.279 33.1493C724.861 22.3205 731.803 11.7057 739.419 1.57468C746.723 -8.14265 754.586 -17.576 760.582 -28.1969C764.37 -34.907 767.394 -42.2819 768.921 -49.9059C768.516 -27.9457 763.748 -6.24906 754.668 13.8628V13.8628ZM827.722 -35.6336C847.087 -25.6075 864.558 -12.8377 880.04 2.52564C887.079 9.51158 893.126 17.1335 899.192 24.8543C892.83 20.1819 886.375 15.8245 879.227 12.1565C869.535 7.18363 859.443 3.05459 849.457 -1.27612C839.56 -5.56977 829.71 -10.0425 820.508 -15.7111C810.948 -21.602 802.08 -28.6065 794.07 -36.4734C786.232 -44.1715 779.331 -52.7526 773.261 -61.9019C789.323 -49.6816 809.948 -44.8343 827.722 -35.6336V-35.6336ZM886.441 78.7864C892.569 87.5692 897.591 96.8934 902.513 106.355C895.316 100.903 887.702 95.9692 879.924 91.408C870.741 86.0234 861.373 80.9003 852.692 74.7171C835.677 62.5998 821.457 47.117 808.642 30.7266C802.094 22.3513 795.81 13.7455 789.709 5.03472C828.374 19.3153 862.809 44.9023 886.441 78.7864V78.7864ZM826.693 83.9177C837.99 101.914 849.449 120.231 856.245 140.491C859.552 150.342 861.679 160.537 862.288 170.89C858.412 163.194 854.272 155.627 849.578 148.395C844.07 139.91 837.92 131.864 832.358 123.413C821.383 106.73 811.712 89.1438 803.483 70.9483C799.053 61.1569 794.584 51.3119 791.115 41.1335C806.212 52.2711 816.831 68.2127 826.693 83.9177V83.9177ZM829.591 189.456C830.257 197.354 830.016 205.118 829.595 212.964C824.261 198.286 818.255 183.913 812.697 169.309C809.664 161.335 807.064 153.244 805.029 144.955C803.113 137.158 801.512 129.285 799.411 121.531C797.502 114.474 795.092 107.566 791.734 101.088C813.315 125.527 826.848 156.957 829.591 189.456V189.456ZM752.707 226.465C743.256 242.404 731.598 256.909 718.842 270.315C712.63 276.844 706.126 283.073 699.505 289.18C703.772 268.736 715.828 250.761 727.789 233.992C734.433 224.674 741.38 215.574 748.6 206.692C755.11 198.683 761.791 190.788 767.65 182.277C770.215 178.547 772.648 174.603 774.783 170.503C772.685 178.804 770.326 187.025 767.705 195.143C763.596 205.984 758.621 216.494 752.707 226.465ZM800.977 193.962C806.393 210.5 809.566 227.521 809.584 244.954C809.592 253.877 808.681 262.619 807.619 271.422C805.298 264.725 803.277 257.901 801.201 251.14C798.693 242.978 796.29 234.782 794.109 226.53C789.679 209.772 786.312 192.628 784.792 175.348C784.09 167.387 783.738 159.359 783.773 151.352C790.037 165.332 796.207 179.397 800.977 193.962ZM700.083 214.971C691.996 219.357 683.616 223.542 674.784 226.242C686.428 214.465 698.219 203.039 711.332 192.819C725.386 181.869 740.365 172.106 756.065 163.688C763.184 159.87 770.818 156.611 777.74 152.351C755.664 177.433 729.482 199.029 700.083 214.971V214.971ZM751.265 137.998C737.624 149.827 722.6 160.125 706.663 168.605C698.698 172.843 690.461 176.279 682.2 179.798C686.801 173.442 692.079 167.428 697.354 161.704C703.507 155.033 710.056 148.72 716.96 142.831C730.629 131.171 745.637 121.015 761.588 112.751C769.252 108.778 777.172 105.215 785.316 102.325C774.816 115.033 763.748 127.171 751.265 137.998V137.998ZM711.776 117.863C703.737 122.635 695.447 126.965 687.009 130.985C707.348 101.901 733.624 76.9462 763.596 57.9664C770.777 53.4196 778.174 49.2145 785.738 45.3387C768.193 75.8924 742.003 99.9355 711.776 117.863V117.863ZM739.388 -73.7372C737.878 -58.446 735.559 -43.1712 731.524 -28.3286C724.102 -1.02092 710.77 24.741 689.198 43.4985C677.488 53.681 664.066 61.6611 650.71 69.4889C660.84 42.8151 671.292 16.2382 683.733 -9.45583C690.14 -22.6888 697.011 -35.7201 704.645 -48.2861C712.299 -60.8851 720.921 -72.6669 729.645 -84.5228C733.962 -90.389 738.392 -96.7533 741.443 -103.562C740.855 -93.6144 740.367 -83.6583 739.388 -73.7372V-73.7372ZM600.409 31.128C626.179 14.9599 650.644 -3.60815 671.525 -25.8277C692.245 -47.8744 709.276 -73.6301 719.538 -102.2C723.624 -113.568 726.602 -125.325 728.188 -137.284C728.925 -139.556 729.521 -141.874 729.945 -144.239C734.334 -136.909 738.487 -129.437 742.408 -121.848C742.415 -108.945 735.32 -97.4532 727.937 -87.2027C719.742 -75.8243 711.614 -64.5262 704.383 -52.4953C689.346 -27.4744 677.153 -0.96121 665.759 25.8772C659.27 41.1664 653.119 56.5977 646.883 71.9898C646.387 73.2104 647.64 74.431 648.827 73.7188C661.764 65.9651 674.692 58.0982 686.424 48.5682C697.466 39.6001 706.933 29.1582 714.583 17.148C730.655 -8.08704 738.149 -37.7948 741.439 -67.2535C743.071 -81.8552 744.09 -96.6525 744.207 -111.388C744.633 -113.068 744.937 -114.776 745.129 -116.503C754.193 -98.3115 761.931 -79.4613 768.257 -60.1461C766.68 -37.1814 750.8 -18.5516 737.427 -0.827368C722.715 18.6793 710.741 39.9952 698.715 61.2083C691.443 74.0336 684.268 86.9003 677.171 99.8244C676.706 100.672 677.772 101.512 678.537 101.041C699.986 87.7976 719.945 71.1212 735.45 51.1576C751.314 30.7308 762.987 6.94278 768.318 -18.4301C770.503 -28.8349 771.61 -39.3982 771.44 -49.978C771.755 -48.9324 772.086 -47.893 772.388 -46.8453C780.779 -17.9053 785.779 11.9074 787.477 41.9197C754.446 57.8409 724.917 80.6244 701.052 108.478C694.173 116.505 687.805 124.948 681.9 133.717C681.278 134.641 682.513 136.041 683.513 135.58C717.999 119.733 750.639 98.2992 773.868 67.7908C779.113 60.9036 783.728 53.5163 787.65 45.7915C788.487 63.5506 788.166 81.3654 786.72 99.106C770.421 105.518 754.678 112.858 739.908 122.373C724.464 132.319 710.27 144.212 697.661 157.571C690.451 165.209 684.233 173.453 677.858 181.772C677.155 182.692 677.937 184.092 679.13 183.715C687.723 181.015 696.052 176.995 704.073 172.928C712.303 168.751 720.289 164.095 727.98 158.995C743.184 148.907 757.392 137.018 769.775 123.6C775.767 117.11 781.384 110.266 786.401 102.992C786.137 105.878 785.847 108.76 785.524 111.637C784.168 123.715 782.296 135.796 779.94 147.792C772.861 152.633 764.763 155.796 757.174 159.73C749.207 163.861 741.45 168.436 733.896 173.282C718.914 182.888 704.756 193.772 691.591 205.75C683.99 212.664 676.521 219.886 669.928 227.782C669.163 228.7 670.048 230.015 671.183 229.7C688.933 224.783 705.416 215.218 720.705 205.126C735.579 195.304 749.534 184.047 762.158 171.456C768.084 165.547 773.633 159.312 778.907 152.83C778.67 153.958 778.394 155.08 778.152 156.21C775.024 164.67 770.859 172.465 765.732 180.004C759.923 188.548 753.269 196.473 746.777 204.498C732.863 221.698 719.063 239.704 708.416 259.155C702.682 269.63 698.225 280.831 696.134 292.625C695.885 294.033 697.507 294.646 698.461 293.786C725.791 269.154 751.053 240.222 765.615 206.06C769.036 198.029 771.703 189.884 773.495 181.404C776.415 172.088 779.047 162.702 781.281 153.211C780.909 185.422 789.1 217.28 798.277 247.945C801.144 257.518 804.492 266.981 807.088 276.628C807.385 277.733 809.049 277.571 809.257 276.502C812.675 258.968 812.965 240.138 810.296 222.498C807.72 205.474 802.185 189.085 795.635 173.214C791.95 164.287 787.884 155.523 783.825 146.762C783.829 146.548 783.825 146.334 783.831 146.122C783.847 145.529 783.506 145.2 783.08 145.099C784.726 137.343 786.162 129.53 787.308 121.643C788.275 114.982 789.059 108.296 789.691 101.597C796.745 114.642 799.533 129.413 803.086 143.718C807.129 159.987 813.508 175.35 819.802 190.841C823.407 199.706 827.132 208.71 829.37 218.042C829.599 219.003 831.113 218.869 831.263 217.931C833.912 201.33 832.033 183.39 828.241 167.123C824.327 150.331 817.576 134.186 808.339 119.625C803.154 111.452 797 103.881 790.263 96.9428C790.212 96.8934 790.158 96.8708 790.107 96.8358C791.446 80.5792 791.831 64.2402 791.234 47.9403C793.837 54.9716 796.442 62.0028 799.535 68.8426C803.594 77.819 807.994 86.643 812.73 95.2797C817.485 103.949 822.613 112.419 828.049 120.679C833.677 129.228 839.836 137.383 845.677 145.781C852.519 155.617 857.521 166.279 862.673 177.055C863.241 178.242 864.893 177.4 864.898 176.328C864.951 154.722 857.192 133.976 847.272 115.079C842.099 105.223 836.255 95.7448 830.346 86.3219C825.101 77.9548 819.811 69.5939 813.792 61.7517C807.259 53.2344 799.71 45.4807 790.847 39.3737C790.226 28.5881 789.139 17.8231 787.664 7.1054C799.181 22.7836 810.547 38.5976 824.051 52.6662C831.272 60.1873 839.021 67.2845 847.484 73.3894C855.895 79.4553 864.972 84.4055 874.044 89.397C884.772 95.3023 895.62 101.208 904.4 109.881C904.982 110.458 906.048 109.764 905.752 108.994C901.9 99.0422 896.349 89.6769 890.441 80.822C884.492 71.9033 877.817 63.4745 870.523 55.6179C855.741 39.6948 838.494 25.8896 819.383 15.5198C809.331 10.0673 798.72 5.73659 787.812 2.33418C787.746 2.23744 787.679 2.14278 787.611 2.04604C787.407 1.7517 787.146 1.60142 786.874 1.51086C783.86 -18.3725 779.401 -38.0563 773.506 -57.2913C784.232 -41.9238 797.767 -28.5241 813.288 -18.0143C831.615 -5.60267 852.515 0.944802 872.439 10.1393C883.546 15.2645 895.888 21.3551 903.921 30.8563C904.748 31.834 906.287 30.9181 905.624 29.7531C900.334 20.4186 893.032 11.9568 885.791 4.08788C878.344 -4.00338 870.198 -11.3824 861.47 -18.0699C853.083 -24.4939 844.196 -30.2841 834.914 -35.3352C825.072 -40.693 814.71 -44.7767 804.226 -48.6813C792.864 -52.9111 781.325 -57.2768 771.52 -64.5324C771.327 -64.837 771.113 -65.1314 770.919 -65.4381C765.742 -81.1616 759.612 -96.5619 752.549 -111.499C751.244 -114.255 749.896 -116.991 748.536 -119.718C779.855 -86.3362 820.681 -57.7564 867.031 -52.2236C881.507 -50.4947 896.511 -50.9578 910.991 -52.4645C912.061 -52.5756 912.799 -54.072 911.808 -54.8213C893.26 -68.859 873.354 -81.2933 851.651 -89.8168C840.741 -94.1022 829.449 -97.3935 817.965 -99.7153C805.096 -102.317 791.977 -103.764 779.327 -107.38C773.236 -109.122 767.347 -111.561 761.874 -114.757C758.549 -116.698 755.427 -118.977 752.489 -121.461C749.534 -123.958 746.285 -126.237 743.884 -129.308C741.581 -132.259 740.227 -135.779 738.429 -139.029C736.472 -142.567 734.262 -146.001 732.164 -149.459C732.019 -149.697 731.869 -149.93 731.721 -150.167C742.065 -148.685 751.232 -143.502 760.372 -138.687C769.757 -133.745 779.501 -129.641 789.611 -126.43C810.183 -119.897 831.702 -116.915 853.144 -115.039C865.365 -113.971 877.612 -113.206 889.832 -112.154C891.262 -112.03 891.918 -113.763 890.645 -114.537C871.412 -126.214 850.716 -136.238 829.671 -144.175C809.238 -151.881 787.88 -157.321 766.02 -158.563C753.707 -159.262 740.81 -159.135 729.421 -153.851C726.581 -158.398 723.684 -162.906 720.668 -167.337C716.579 -173.343 712.484 -179.335 707.334 -184.489C706.036 -185.788 704.159 -183.94 704.986 -182.474C708.196 -176.81 712.099 -171.641 715.791 -166.288C719.309 -161.183 722.713 -155.998 725.995 -150.739C726.414 -150.068 726.812 -149.387 727.227 -148.714C726.923 -145.363 726.53 -142.028 726.04 -138.712C722.779 -128.958 716.7 -120.107 709.89 -112.477C699.778 -101.148 688 -91.4099 677.356 -80.5955C657.041 -59.9444 638.821 -37.2658 622.973 -13.0147C614.012 0.695797 605.979 14.9002 598.602 29.5205C598.036 30.6402 599.374 31.7764 600.409 31.128" fill="#1C6467"/>
<path d="M585.007 1034.29C575.884 1046.02 566.161 1057.29 555.884 1068.03C545.297 1079.1 533.499 1089.06 523.422 1100.6C518.768 1105.93 514.574 1111.77 511.364 1118.04C515.574 1096.82 523.48 1076.46 534.459 1057.66C549.667 1031.61 570.341 1009.07 593.407 989.784C605.154 979.962 617.569 970.969 630.354 962.547C617.644 987.847 602.374 1011.95 585.007 1034.29ZM473.228 1146.99C462.271 1146.73 451.351 1145.36 440.625 1143.13C419.137 1138.67 398.503 1130.83 378.667 1121.55C369.147 1117.1 359.875 1112.2 350.529 1107.42C391.773 1107.94 434.96 1111.85 472.103 1130.91C481.821 1135.9 491.463 1141.63 502.346 1143.42C493.095 1146.78 483.008 1147.22 473.228 1146.99ZM427.176 1091.07C402.937 1087.34 379.528 1080.29 357.752 1068.89C346.655 1063.08 336.336 1056.16 326.914 1047.96C338.895 1047.29 350.776 1046.1 362.813 1046.98C374.616 1047.85 386.299 1050.3 397.528 1054.02C419.783 1061.41 440.121 1073.58 458.393 1088.15C465.407 1093.75 472.07 1099.74 478.595 1105.88C463.526 1096.45 444.728 1093.76 427.176 1091.07ZM478.895 977.095C488.833 954.3 503.922 933.884 521.77 916.654C530.959 907.782 541.001 899.918 551.587 892.8C539.326 914.268 527.595 936.051 515.029 957.339C508.587 968.25 501.784 978.953 494.298 989.185C487.123 998.995 479.381 1008.53 473.525 1019.23C469.821 1025.99 466.895 1033.4 465.465 1041.04C465.588 1019.08 470.074 997.323 478.895 977.095V977.095ZM406.487 1027.53C386.993 1017.76 369.357 1005.22 353.68 990.054C346.552 983.16 340.402 975.617 334.237 967.974C340.659 972.566 347.171 976.837 354.367 980.412C364.12 985.262 374.266 989.257 384.307 993.46C394.26 997.626 404.168 1001.97 413.442 1007.52C423.077 1013.28 432.034 1020.18 440.146 1027.94C448.082 1035.53 455.094 1044.02 461.282 1053.09C445.063 1041.08 424.376 1036.5 406.487 1027.53V1027.53ZM346.291 913.883C340.052 905.181 334.908 895.92 329.864 886.522C337.132 891.884 344.807 896.717 352.645 901.177C361.896 906.443 371.33 911.445 380.091 917.514C397.258 929.409 411.68 944.709 424.705 960.93C431.362 969.221 437.755 977.743 443.969 986.376C405.123 972.597 370.361 947.459 346.291 913.883V913.883ZM405.968 907.978C394.439 890.131 382.746 871.964 375.686 851.792C372.252 841.984 369.992 831.821 369.25 821.473C373.227 829.12 377.462 836.63 382.25 843.801C387.867 852.214 394.122 860.18 399.791 868.562C410.983 885.098 420.882 902.557 429.345 920.645C433.899 930.379 438.495 940.166 442.096 950.297C426.857 939.355 416.03 923.553 405.968 907.978ZM401.703 802.487C400.935 794.598 401.077 786.832 401.396 778.981C406.919 793.589 413.11 807.882 418.857 822.412C421.995 830.347 424.699 838.402 426.841 846.665C428.855 854.437 430.561 862.289 432.759 870.015C434.761 877.047 437.259 883.923 440.703 890.355C418.806 866.2 404.867 834.947 401.703 802.487V802.487ZM478.103 764.485C487.348 748.423 498.817 733.77 511.397 720.2C517.525 713.59 523.949 707.28 530.49 701.086C526.486 721.583 514.665 739.713 502.922 756.638C496.397 766.041 489.57 775.229 482.467 784.201C476.06 792.294 469.481 800.277 463.734 808.864C461.218 812.625 458.835 816.599 456.753 820.726C458.745 812.398 460.996 804.15 463.512 795.997C467.479 785.105 472.319 774.531 478.103 764.485V764.485ZM430.257 797.611C424.629 781.145 421.236 764.165 420.991 746.734C420.865 737.813 421.668 729.059 422.615 720.243C425.02 726.908 427.129 733.704 429.294 740.441C431.907 748.57 434.417 756.731 436.705 764.958C441.351 781.657 444.94 798.753 446.683 816.01C447.487 823.966 447.942 831.987 448.012 839.994C441.567 826.098 435.213 812.114 430.257 797.611V797.611ZM530.871 775.297C538.902 770.806 547.227 766.512 556.023 763.698C544.532 775.626 532.889 787.204 519.91 797.593C506 808.724 491.148 818.68 475.558 827.302C468.487 831.209 460.899 834.568 454.033 838.917C475.782 813.549 501.681 791.619 530.871 775.297V775.297ZM480.691 852.924C494.175 840.922 509.068 830.429 524.891 821.745C532.801 817.404 540.992 813.862 549.209 810.235C544.69 816.651 539.49 822.733 534.289 828.523C528.225 835.274 521.756 841.672 514.928 847.649C501.412 859.484 486.537 869.835 470.695 878.306C463.082 882.375 455.21 886.04 447.102 889.037C457.436 876.194 468.348 863.914 480.691 852.924V852.924ZM520.435 872.547C528.414 867.674 536.645 863.237 545.032 859.105C525.07 888.451 499.117 913.746 469.395 933.11C462.273 937.749 454.932 942.052 447.417 946.024C464.566 915.244 490.442 890.866 520.435 872.547V872.547ZM495.305 1064.49C496.617 1049.18 498.739 1033.88 502.58 1018.98C509.65 991.581 522.647 965.65 543.974 946.613C555.55 936.28 568.869 928.127 582.125 920.127C572.339 946.932 562.231 973.639 550.124 999.495C543.89 1012.81 537.188 1025.93 529.717 1038.59C522.227 1051.29 513.756 1063.18 505.185 1075.15C500.947 1081.07 496.599 1087.49 493.636 1094.34C494.095 1084.38 494.453 1074.42 495.305 1064.49V1064.49ZM632.915 957.835C607.357 974.334 583.135 993.217 562.542 1015.71C542.11 1038.02 525.412 1063.99 515.521 1092.69C511.585 1104.11 508.757 1115.91 507.325 1127.89C506.62 1130.17 506.054 1132.49 505.659 1134.86C501.177 1127.59 496.928 1120.17 492.905 1112.64C492.733 1099.73 499.679 1088.15 506.93 1077.81C514.978 1066.32 522.957 1054.92 530.031 1042.8C544.746 1017.58 556.593 990.914 567.639 963.932C573.931 948.56 579.88 933.051 585.917 917.578C586.396 916.349 585.129 915.145 583.952 915.872C571.114 923.795 558.291 931.828 546.682 941.508C535.758 950.62 526.426 961.184 518.932 973.291C503.187 998.732 496.08 1028.53 493.169 1058.03C491.726 1072.65 490.901 1087.46 490.975 1102.2C490.57 1103.89 490.286 1105.6 490.117 1107.33C480.819 1089.25 472.837 1070.51 466.263 1051.27C467.543 1028.29 483.181 1009.46 496.321 991.558C510.782 971.864 522.478 950.396 534.229 929.029C541.334 916.11 548.344 903.149 555.27 890.137C555.725 889.285 554.649 888.458 553.888 888.939C532.614 902.456 512.873 919.392 497.628 939.555C482.029 960.183 470.664 984.119 465.662 1009.56C463.611 1019.99 462.64 1030.57 462.946 1041.15C462.621 1040.11 462.275 1039.07 461.959 1038.03C453.193 1009.2 447.81 979.455 445.724 949.463C478.545 933.118 507.78 909.954 531.28 881.794C538.056 873.679 544.313 865.153 550.104 856.308C550.715 855.376 549.462 853.993 548.466 854.466C514.19 870.76 481.829 892.615 458.998 923.42C453.843 930.375 449.323 937.819 445.5 945.594C444.434 927.849 444.522 910.03 445.74 892.271C461.954 885.65 477.601 878.108 492.249 868.402C507.562 858.257 521.601 846.181 534.034 832.66C541.147 824.927 547.258 816.605 553.523 808.205C554.215 807.277 553.414 805.886 552.227 806.279C543.672 809.09 535.396 813.217 527.428 817.389C519.251 821.669 511.325 826.427 503.702 831.629C488.63 841.912 474.574 853.986 462.368 867.561C456.461 874.131 450.93 881.045 446.01 888.381C446.236 885.495 446.487 882.611 446.773 879.728C447.975 867.633 449.689 855.53 451.891 843.506C458.905 838.571 466.963 835.303 474.5 831.271C482.414 827.039 490.109 822.362 497.601 817.42C512.457 807.621 526.474 796.555 539.482 784.409C546.993 777.396 554.369 770.077 560.857 762.097C561.612 761.169 560.711 759.864 559.579 760.193C541.894 765.341 525.535 775.12 510.379 785.409C495.632 795.421 481.823 806.859 469.364 819.61C463.516 825.598 458.049 831.905 452.858 838.454C453.08 837.323 453.341 836.196 453.57 835.064C456.588 826.565 460.652 818.717 465.679 811.11C471.378 802.491 477.928 794.48 484.317 786.373C498.008 768.994 511.572 750.813 521.968 731.224C527.564 720.677 531.877 709.416 533.815 697.597C534.046 696.187 532.416 695.593 531.474 696.467C504.465 721.451 479.58 750.706 465.461 785.055C462.142 793.13 459.582 801.31 457.899 809.813C455.1 819.164 452.592 828.585 450.481 838.104C450.436 805.89 441.831 774.14 432.259 743.597C429.269 734.063 425.8 724.644 423.077 715.029C422.767 713.93 421.106 714.111 420.911 715.184C417.719 732.762 417.674 751.591 420.569 769.196C423.366 786.187 429.115 802.504 435.868 818.287C439.666 827.166 443.847 835.877 448.02 844.584C448.018 844.798 448.024 845.01 448.022 845.224C448.012 845.819 448.36 846.142 448.786 846.237C447.238 854.013 445.905 861.845 444.862 869.749C443.979 876.42 443.283 883.115 442.738 889.823C435.518 876.869 432.538 862.133 428.798 847.877C424.547 831.664 417.968 816.381 411.472 800.976C407.754 792.157 403.915 783.201 401.557 773.899C401.314 772.942 399.801 773.094 399.664 774.035C397.231 790.668 399.341 808.584 403.345 824.799C407.476 841.54 414.431 857.596 423.857 872.036C429.145 880.141 435.401 887.629 442.226 894.48C442.277 894.533 442.333 894.552 442.384 894.587C441.255 910.86 441.082 927.203 441.89 943.494C439.195 936.494 436.501 929.502 433.318 922.701C429.143 913.776 424.631 905.012 419.783 896.437C414.915 887.827 409.678 879.425 404.135 871.237C398.396 862.763 392.135 854.686 386.184 846.364C379.217 836.618 374.077 826.024 368.785 815.313C368.202 814.135 366.56 814.998 366.571 816.072C366.799 837.677 374.824 858.319 384.986 877.087C390.289 886.872 396.252 896.274 402.283 905.621C407.639 913.919 413.036 922.214 419.151 929.974C425.798 938.406 433.446 946.063 442.386 952.053C443.148 962.828 444.372 973.581 445.987 984.278C434.269 968.75 422.699 953.084 409.013 939.193C401.697 931.768 393.855 924.768 385.314 918.774C376.826 912.82 367.684 907.986 358.552 903.113C347.747 897.347 336.823 891.582 327.932 883.023C327.342 882.455 326.284 883.161 326.591 883.927C330.572 893.829 336.241 903.123 342.264 911.899C348.33 920.74 355.112 929.082 362.509 936.842C377.495 952.574 394.919 966.154 414.164 976.278C424.281 981.598 434.948 985.791 445.899 989.051C445.969 989.148 446.037 989.24 446.107 989.338C446.314 989.629 446.576 989.776 446.847 989.862C450.123 1009.71 454.835 1029.33 460.977 1048.49C450.053 1033.26 436.345 1020.04 420.689 1009.73C402.205 997.554 381.223 991.28 361.18 982.341C350.009 977.36 337.587 971.43 329.432 962.036C328.595 961.069 327.068 962.003 327.745 963.162C333.155 972.424 340.566 980.791 347.908 988.566C355.457 996.56 363.698 1003.83 372.513 1010.41C380.984 1016.72 389.945 1022.4 399.289 1027.33C409.201 1032.56 419.614 1036.51 430.15 1040.27C441.563 1044.36 453.158 1048.57 463.055 1055.7C463.255 1056 463.471 1056.3 463.668 1056.6C469.049 1072.25 475.376 1087.57 482.634 1102.42C483.973 1105.16 485.356 1107.87 486.753 1110.58C455.004 1077.61 413.812 1049.56 367.394 1044.63C352.898 1043.09 337.902 1043.75 323.443 1045.44C322.373 1045.57 321.654 1047.07 322.654 1047.81C341.383 1061.6 361.449 1073.78 383.262 1082.02C394.223 1086.16 405.557 1089.31 417.071 1091.48C429.973 1093.92 443.109 1095.19 455.804 1098.65C461.917 1100.31 467.837 1102.67 473.352 1105.8C476.702 1107.69 479.854 1109.93 482.823 1112.38C485.809 1114.84 489.089 1117.07 491.529 1120.11C493.87 1123.03 495.268 1126.54 497.109 1129.76C499.111 1133.28 501.366 1136.68 503.508 1140.11C503.657 1140.35 503.809 1140.58 503.959 1140.81C493.599 1139.47 484.364 1134.4 475.162 1129.71C465.716 1124.89 455.917 1120.91 445.767 1117.83C425.112 1111.56 403.557 1108.86 382.093 1107.26C369.859 1106.35 357.603 1105.74 345.369 1104.85C343.939 1104.75 343.305 1106.49 344.589 1107.24C363.972 1118.67 384.795 1128.43 405.941 1136.09C426.473 1143.53 447.899 1148.69 469.773 1149.65C482.095 1150.19 494.99 1149.9 506.309 1144.47C509.206 1148.98 512.163 1153.45 515.235 1157.84C519.402 1163.79 523.573 1169.73 528.791 1174.82C530.106 1176.1 531.957 1174.23 531.11 1172.77C527.828 1167.15 523.859 1162.03 520.097 1156.73C516.513 1151.67 513.044 1146.53 509.694 1141.31C509.266 1140.65 508.858 1139.97 508.436 1139.3C508.696 1135.95 509.046 1132.61 509.492 1129.29C512.628 1119.49 518.591 1110.56 525.303 1102.84C535.266 1091.39 546.918 1081.5 557.419 1070.54C577.468 1049.63 595.392 1026.72 610.925 1002.27C619.707 988.44 627.557 974.133 634.743 959.418C635.292 958.29 633.942 957.17 632.915 957.835" fill="#1C6467"/>
<path d="M1700.11 227.173C1674.41 242.31 1646.33 252.107 1616.57 254.972C1587.06 257.815 1556.9 254.256 1529.03 244.059C1501.34 233.924 1477.93 216.334 1453.45 200.363C1429 184.407 1403.51 171.503 1373.8 170.25C1340.52 168.848 1307.76 178.792 1274.48 176.416C1245.43 174.346 1217.77 160.94 1198.14 139.404C1180.9 120.496 1172.44 93.2274 1150.36 78.8624C1137.67 70.6147 1122.43 69.7544 1107.75 71.0182C1092.03 72.3725 1076.46 75.1821 1060.76 76.8164C1030.76 79.9369 999.379 77.9383 975.928 56.789C956.327 39.1122 945.685 13.2535 939.255 -11.8169C937.563 -18.4158 936.217 -25.1033 935.055 -31.8155C934.933 -32.5174 933.818 -32.4762 933.931 -31.7558C937.962 -6.0474 944.711 20.3382 959.423 42.1687C966.463 52.6106 975.337 61.7825 986.012 68.5256C998.551 76.4501 1013.07 80.2868 1027.76 81.4394C1043.26 82.6559 1058.85 81.1637 1074.21 79.0951C1090.28 76.9297 1106.65 73.3462 1122.93 73.976C1138.68 74.5873 1151.72 81.2645 1161.9 93.1431C1170.74 103.447 1177.12 115.57 1184.62 126.825C1200.04 149.979 1222.74 167.335 1249.46 175.396C1281.28 184.996 1314.01 177.929 1346.22 174.778C1363.12 173.123 1380.27 172.714 1396.89 176.69C1411.3 180.136 1424.79 186.519 1437.55 193.941C1463.11 208.81 1486.04 228.056 1512.94 240.618C1566.03 265.4 1630.22 265.048 1683.34 240.537C1689.84 237.538 1696.09 234.175 1702.14 230.344C1704.19 229.044 1702.19 225.948 1700.11 227.173" fill="#FBBE2B"/>
<path d="M1679.98 177.423C1649.43 182.013 1618.78 187.861 1587.74 185C1560.12 182.455 1534.57 173.152 1513.39 155.008C1503.89 146.865 1495.08 137.874 1484.69 130.812C1474.07 123.596 1462.25 119.413 1449.39 118.728C1420.96 117.217 1394.35 130.102 1366.96 135.441C1342.03 140.303 1314.42 140.69 1291.28 128.871C1268.01 116.993 1255.86 93.6431 1238.93 74.9659C1230.53 65.7055 1220.71 58.1061 1209.19 53.1374C1198.05 48.3312 1186.05 45.9682 1173.99 45.0934C1147.61 43.1771 1121.78 48.4814 1095.82 52.2502C1068.15 56.2681 1038.38 58.7958 1012.1 47.191C989.362 37.1505 972.115 16.5075 964.953 -7.17139C963.158 -13.1055 962.105 -19.1714 961.747 -25.3587C961.708 -26.0235 960.693 -25.9679 960.72 -25.3072C961.632 -1.48217 972.317 21.1388 990.389 36.7532C1010.78 54.3724 1037.63 59.4544 1063.9 58.6166C1091.65 57.7295 1118.75 50.972 1146.38 48.852C1172.33 46.8595 1200.43 48.6667 1222.35 64.2091C1243.36 79.0948 1254.48 103.535 1273.57 120.395C1292.51 137.135 1317.88 142.716 1342.62 141.771C1355.3 141.287 1367.92 139.196 1380.22 136.084C1394.63 132.432 1408.77 127.669 1423.37 124.767C1438.42 121.778 1454.36 120.912 1468.94 126.498C1481.03 131.133 1491.01 139.616 1500.58 148.11C1510.31 156.749 1519.9 165.499 1531.28 171.958C1542.96 178.594 1555.84 183.067 1568.97 185.833C1598.35 192.025 1628.63 189.371 1658.07 184.956C1665.63 183.822 1673.15 182.556 1680.66 181.157C1682.78 180.761 1682.13 177.1 1679.98 177.423" fill="#FBBE2B"/>
<path d="M1109.57 747.637C1113.5 738.119 1123.83 730.028 1134.53 732.669C1143.51 734.882 1148.74 743.914 1149.84 752.569C1152.19 771.054 1136.9 784.139 1122.14 792.889C1111.26 779.932 1103.09 763.303 1109.57 747.637V747.637ZM1572.86 794.493C1485.81 795.989 1408.35 842.454 1323.06 853.676C1278.71 859.513 1233.16 854.073 1191.53 837.606C1171.66 829.748 1151.79 819.888 1135.35 806.062C1131.8 803.082 1128.07 799.548 1124.52 795.614C1124.62 795.553 1124.73 795.497 1124.83 795.437C1139.44 786.539 1154.86 772.401 1153.01 753.641C1151.57 739.076 1139.3 725.253 1123.66 730.331C1104.28 736.625 1101.36 759.378 1108.03 775.955C1110.76 782.742 1114.59 788.939 1119.14 794.616C1118.09 795.201 1117.06 795.763 1116.04 796.304C1078.1 816.422 1035.07 823.221 992.875 827.807C951.356 832.318 909.378 834.844 868.797 845.358C832.229 854.832 797.401 870.456 765.339 890.359C699.781 931.056 645.766 988.773 602.333 1052.09C597.057 1059.78 591.934 1067.57 586.94 1075.45C585.683 1077.44 588.973 1079.08 590.22 1077.09C633.741 1007.63 688.988 943.566 757.892 898.312C791.788 876.049 828.914 858.723 868.19 848.441C911.701 837.052 956.897 835.357 1001.4 830.417C1042.56 825.849 1085.14 818.394 1121.45 797.387C1129.33 806.462 1139.01 814.119 1148.91 820.553C1186.43 844.937 1231.53 858.123 1276.07 860.161C1368.61 864.393 1449.92 813.269 1539.41 799.657C1550.53 797.967 1561.73 796.952 1572.97 796.646C1574.36 796.609 1574.24 794.468 1572.86 794.493" fill="#1C6467"/>
<path d="M526.143 -97.0725C492.286 -53.3743 446.537 -20.715 392.89 -6.33967C379.205 -2.67174 365.244 -0.376654 351.128 0.771889C334.579 2.11597 317.945 2.22293 301.428 3.99103C273.963 6.93237 248.748 15.8367 225.567 30.8666C179.657 60.636 146.23 105.4 106.711 142.483C63.7652 182.781 13.7807 217.408 -42.8204 235.186C-98.1991 252.578 -160.65 252.62 -214.164 228.714C-220.632 225.824 -226.909 222.562 -233.012 218.968C-233.442 218.715 -233.776 219.398 -233.358 219.658C-183.756 250.368 -123.275 256.364 -66.8732 244.506C-9.07839 232.355 43.1293 201.337 87.7657 163.459C109.741 144.813 129.707 124.168 149.516 103.276C168.501 83.2549 187.623 63.1246 209.359 46.0343C230.654 29.292 254.666 15.707 281.327 9.90669C313.297 2.95162 346.488 6.94472 378.663 1.10938C432 -8.56266 483.015 -37.4182 517.665 -79.3153C521.795 -84.3068 525.509 -89.6687 529.091 -95.0615C530.208 -96.7411 527.383 -98.6738 526.143 -97.0725" fill="#047B57"/>
<path d="M488.823 66.4094C493.977 73.4551 492.624 83.2177 485.798 88.2132C478.973 93.2088 469.263 91.5477 464.109 84.5041C458.955 77.4585 460.309 67.6959 467.134 62.7003C473.959 57.7048 483.669 59.3659 488.823 66.4094Z" fill="#FBBE2B"/>
<path d="M531.945 39.5323C531.945 47.4424 524.77 53.854 515.921 53.854C507.071 53.854 499.896 47.4424 499.896 39.5323C499.896 31.6222 507.071 25.2105 515.921 25.2105C524.77 25.2105 531.945 31.6222 531.945 39.5323Z" fill="#FBBE2B"/>
<path d="M527.556 120.261C521.795 126.023 511.789 125.356 505.208 118.771C498.624 112.186 497.957 102.177 503.719 96.4156C509.478 90.6544 519.482 91.3212 526.065 97.9058C532.647 104.49 533.314 114.498 527.556 120.261Z" fill="#FBBE2B"/>
<path d="M557.859 75.6065C559.565 80.32 555.345 86.1718 548.433 88.6768C541.522 91.1797 534.534 89.389 532.828 84.6754C531.12 79.9598 535.341 74.108 542.252 71.603C549.164 69.1001 556.152 70.8909 557.859 75.6065Z" fill="#FBBE2B"/>
<path d="M441.569 59.8559C442.75 63.1162 439.833 67.1608 435.053 68.8918C430.275 70.6229 425.446 69.3838 424.265 66.1255C423.086 62.8672 426.003 58.8205 430.781 57.0895C435.559 55.3585 440.39 56.5976 441.569 59.8559Z" fill="#FBBE2B"/>
<path d="M478.866 2.51742C475.998 4.46047 471.36 2.62442 468.51 -1.58484C465.66 -5.79204 465.675 -10.7814 468.543 -12.7265C471.411 -14.6695 476.049 -12.8335 478.899 -8.62634C481.749 -4.41708 481.735 0.572311 478.866 2.51742Z" fill="#FBBE2B"/>
<path d="M585.742 77.8209C584.257 74.6902 586.775 70.3842 591.368 68.2065C595.96 66.0268 600.886 66.7987 602.37 69.9315C603.856 73.0622 601.337 77.3682 596.744 79.5459C592.154 81.7256 587.228 80.9537 585.742 77.8209Z" fill="#FBBE2B"/>
<path d="M527.233 159.141C525.747 156.01 528.266 151.704 532.859 149.526C537.451 147.347 542.377 148.119 543.861 151.251C545.346 154.384 542.828 158.688 538.235 160.868C533.645 163.045 528.719 162.274 527.233 159.141Z" fill="#FBBE2B"/>
<path d="M428.541 139.424C425.263 140.548 421.271 137.557 419.625 132.749C417.981 127.939 419.304 123.129 422.582 122.007C425.86 120.885 429.851 123.874 431.497 128.684C433.144 133.492 431.821 138.302 428.541 139.424Z" fill="#FBBE2B"/>
<path d="M484.838 40.1929C484.838 44.2046 479.69 47.4546 473.34 47.4546C466.992 47.4546 461.844 44.2046 461.844 40.1929C461.844 36.1812 466.992 32.9291 473.34 32.9291C479.69 32.9291 484.838 36.1812 484.838 40.1929Z" fill="#FBBE2B"/>
<path d="M561.337 125.193C558.503 128.03 552.565 126.687 548.075 122.196C543.585 117.707 542.244 111.765 545.079 108.928C547.915 106.092 553.853 107.434 558.343 111.925C562.833 116.416 564.172 122.357 561.337 125.193" fill="#FBBE2B"/>
<path d="M565.299 33.1882C567.96 26.332 566.328 19.3028 561.655 17.4894C556.983 15.676 551.038 19.7639 548.377 26.6181C545.719 33.4743 547.351 40.5035 552.024 42.3169C556.696 44.1303 562.641 40.0445 565.299 33.1882" fill="#FBBE2B"/>
<path d="M480.593 127.608C483.251 120.754 481.62 113.724 476.947 111.909C472.274 110.096 466.329 114.183 463.671 121.04C461.01 127.896 462.642 134.923 467.315 136.738C471.988 138.552 477.932 134.464 480.593 127.608" fill="#FBBE2B"/>
<path d="M1079.3 986.118C1086.56 996.045 1084.65 1009.8 1075.03 1016.84C1065.42 1023.88 1051.73 1021.54 1044.47 1011.61C1037.21 1001.69 1039.12 987.934 1048.73 980.892C1058.35 973.85 1072.03 976.191 1079.3 986.118Z" fill="#047B57"/>
<path d="M1140.06 948.243C1140.06 959.389 1129.95 968.423 1117.48 968.423C1105.01 968.423 1094.9 959.389 1094.9 948.243C1094.9 937.097 1105.01 928.063 1117.48 928.063C1129.95 928.063 1140.06 937.097 1140.06 948.243Z" fill="#047B57"/>
<path d="M1133.87 1062C1125.76 1070.12 1111.66 1069.18 1102.38 1059.9C1093.11 1050.62 1092.17 1036.52 1100.29 1028.4C1108.4 1020.28 1122.5 1021.22 1131.77 1030.5C1141.05 1039.78 1141.99 1053.88 1133.87 1062Z" fill="#047B57"/>
<path d="M1176.58 999.077C1178.98 1005.72 1173.03 1013.96 1163.29 1017.49C1153.55 1021.02 1143.71 1018.5 1141.3 1011.86C1138.9 1005.21 1144.84 996.963 1154.58 993.437C1164.32 989.907 1174.17 992.433 1176.58 999.077Z" fill="#047B57"/>
<path d="M1012.71 976.885C1014.37 981.475 1010.26 987.176 1003.53 989.615C996.797 992.054 989.988 990.309 988.327 985.717C986.665 981.125 990.774 975.426 997.509 972.985C1004.24 970.545 1011.05 972.291 1012.71 976.885" fill="#047B57"/>
<path d="M1065.26 896.085C1061.22 898.823 1054.69 896.236 1050.67 890.305C1046.66 884.373 1046.68 877.344 1050.72 874.605C1054.76 871.867 1061.3 874.454 1065.31 880.384C1069.33 886.316 1069.31 893.346 1065.26 896.085" fill="#047B57"/>
<path d="M1136.25 889.165C1131.64 890.746 1126.01 886.535 1123.69 879.756C1121.37 872.978 1123.24 866.202 1127.86 864.619C1132.48 863.038 1138.1 867.252 1140.42 874.028C1142.74 880.806 1140.87 887.584 1136.25 889.165Z" fill="#047B57"/>
<path d="M1215.87 1002.2C1213.77 997.785 1217.32 991.719 1223.79 988.648C1230.26 985.577 1237.21 986.666 1239.3 991.078C1241.39 995.494 1237.84 1001.56 1231.37 1004.63C1224.9 1007.7 1217.96 1006.61 1215.87 1002.2Z" fill="#047B57"/>
<path d="M1073.68 949.175C1073.68 954.828 1066.43 959.409 1057.48 959.409C1048.53 959.409 1041.28 954.828 1041.28 949.175C1041.28 943.523 1048.53 938.939 1057.48 938.939C1066.43 938.939 1073.68 943.523 1073.68 949.175Z" fill="#047B57"/>
<path d="M1187.06 939.303C1190.81 929.642 1188.51 919.739 1181.93 917.183C1175.34 914.626 1166.96 920.385 1163.22 930.047C1159.47 939.707 1161.77 949.612 1168.35 952.168C1174.94 954.725 1183.31 948.965 1187.06 939.303" fill="#047B57"/>
</g>
<defs>
<clipPath id="clip0_808:2731">
<rect width="1440" height="1024" fill="white"/>
</clipPath>
</defs>
</svg>
