<svg width="580" height="896" viewBox="0 0 580 896" fill="none" xmlns="http://www.w3.org/2000/svg">
<g clip-path="url(#clip0_807:2646)">
<rect width="580" height="896" fill="white"/>
<rect width="580" height="896" fill="#E0F6F6"/>
<path d="M2.66152 259.889C22.2817 253.456 38.1818 238.714 50.4716 222.172C62.7612 205.63 72.0048 187.083 82.723 169.49C93.4409 151.895 106.031 134.856 123.16 123.355C142.716 110.224 166.525 105.357 188.302 96.3453C210.08 87.3336 231.758 71.5585 236.209 48.4847C240.305 27.2558 228.007 5.39105 210.475 -7.3425C192.944 -20.0769 171.063 -25.2321 149.598 -28.3718C95.8872 -36.2264 38.4213 -32.5317 -8.48123 -5.29554C-50.8133 19.2858 -81.682 62.645 -90.9775 110.579C-93.7138 124.69 -94.5679 139.149 -93.6385 153.486C-92.709 167.831 -89.9984 182.061 -85.611 195.754C-81.2252 209.442 -75.1592 222.601 -67.5182 234.789C-64.5411 239.537 -61.4866 244.993 -56.7979 248.287C-54.9972 249.553 -53.0144 250.552 -51.1376 251.699C-48.2757 253.447 -45.5964 255.445 -42.6116 256.994C-30.3338 263.367 -15.581 264.453 -2.22302 261.269C-0.576712 260.875 1.05337 260.417 2.66152 259.889Z" fill="#1C6467"/>
<path d="M279.191 813.978C309.203 795.754 347.353 785.432 379.452 799.675C394.019 806.137 406.928 817.418 422.772 819.152C451.223 822.262 477.89 793.439 505.268 801.773C519.96 806.246 530.112 820.557 544.886 824.752C559.688 828.955 575.083 822.084 589.288 816.173C603.313 810.336 618.054 805.232 633.245 805.451C648.437 805.668 664.287 812.103 672.318 824.984C679.454 836.428 679.385 851.303 674.793 863.981C667.205 884.927 648.557 900.381 628.065 909.172C607.573 917.962 585.134 920.963 563.008 923.757C455.805 937.294 345.797 947.869 240.659 922.954C228.442 920.058 215.872 916.451 206.443 908.167C199.858 902.382 195.254 893.826 195.014 884.982C194.935 882.043 195.13 878.908 197.053 876.531C199.101 874 202.27 872.283 204.864 870.382C212.905 864.492 220.681 858.253 228.41 851.964C236.178 845.643 243.903 839.266 251.818 833.127C259.712 827.005 267.8 821.114 276.26 815.79C277.232 815.178 278.208 814.574 279.191 813.978" fill="#1C6467"/>
<path d="M349.83 74.1533C357.84 100.622 377.277 122.789 400.879 137.108C424.48 151.428 452.004 158.351 479.514 160.397C514.231 162.982 550.659 157.56 579.612 138.176C608.566 118.792 628.383 83.6159 623.166 49.1009C618.648 19.2095 596.388 -5.84364 569.743 -19.9904C533.39 -39.291 487.054 -43.2793 446.626 -39.9379C424.894 -38.1413 403.11 -32.4889 384.813 -20.5926C363.509 -6.74154 348.026 16.0379 346.222 41.7869C345.542 51.4749 346.428 61.2805 348.857 70.6826C349.156 71.8464 349.481 73.0036 349.83 74.1533" fill="#047B57"/>
<path d="M-19.5201 887.727C-7.29559 906.46 12.8337 919.249 34.4223 924.996C56.0105 930.744 78.9696 929.852 100.814 925.178C128.382 919.28 155.466 906.775 173.576 885.128C191.685 863.48 199.115 831.648 187.241 806.031C176.955 783.843 153.977 769.456 130.063 764.535C97.4361 757.823 60.5196 765.277 29.8563 777.078C13.373 783.421 -2.27672 792.772 -13.8006 806.177C-27.2188 821.785 -34.0904 843.002 -29.6585 863.411C-27.9911 871.09 -25.0812 878.504 -21.0621 885.253C-20.565 886.088 -20.0512 886.913 -19.5201 887.727" fill="#FBBE2B"/>
<path d="M116.39 143.19C134.867 126.872 158.322 116.716 182.522 114.239C185.343 113.95 188.25 113.771 190.962 114.625C193.675 115.479 196.185 117.57 196.83 120.42C197.552 123.604 195.856 126.818 193.962 129.44C188.938 136.396 182.168 141.77 175.34 146.831C170.304 150.563 165.187 154.178 160.005 157.69C154.824 161.202 149.58 164.614 144.287 167.943C138.992 171.276 133.648 174.527 128.271 177.717C122.89 180.909 117.476 184.041 112.041 187.133C106.642 190.204 101.266 193.367 95.7758 196.261C92.7059 197.88 88.2451 198.796 85.0274 197.071C80.9735 194.898 84.0387 189.775 85.3119 186.732C87.4678 181.578 89.98 176.583 92.8156 171.792C95.6532 166.998 98.8145 162.409 102.269 158.07C105.725 153.731 109.474 149.64 113.485 145.845C114.439 144.944 115.407 144.058 116.39 143.19" fill="#FBBE2B"/>
<path d="M648.759 608.13C640.163 598.093 630.931 588.499 620.832 579.96C620.892 579.647 620.915 579.315 620.962 579.021C621.168 577.712 621.354 576.4 621.545 575.089C622.259 570.158 623.003 565.233 623.611 560.289C624.084 560.626 624.55 560.976 624.995 561.357C627.24 563.273 629.04 565.626 630.537 568.157C633.734 573.564 635.652 579.621 638.001 585.416C640.708 592.094 643.617 598.761 647.126 605.06C647.707 606.103 648.302 607.139 648.892 608.176C648.847 608.162 648.804 608.143 648.759 608.13V608.13ZM627.591 591.154C624.064 587.666 620.206 584.406 615.639 582.367C615.398 582.259 615.151 582.174 614.908 582.073C615.459 581.983 616.006 581.874 616.555 581.76C617.237 581.619 617.919 581.476 618.601 581.335C619.082 581.235 619.693 581.209 620.139 581.007C620.295 580.936 620.411 580.835 620.507 580.72C620.969 581.119 621.443 581.505 621.9 581.909C630.825 589.79 639.056 598.364 646.783 607.409C639.016 604.192 633.447 596.944 627.591 591.154V591.154ZM598.086 579.06C591.826 578.874 585.54 579.252 579.293 578.694C579.239 578.689 579.187 578.68 579.134 578.674C587.168 574.778 595.387 571.084 603.799 568.089C609.398 571.741 614.745 575.799 619.847 580.158C619.157 580.802 617.288 580.823 616.519 580.963C615.57 581.135 614.627 581.317 613.707 581.589C608.725 579.763 603.372 579.216 598.086 579.06V579.06ZM560.337 574.071C558.007 573.363 555.652 572.704 553.262 572.225C555.247 571.101 557.171 569.86 559.123 568.687C561.528 567.244 563.949 565.827 566.37 564.412C571.227 561.574 576.129 558.819 581.06 556.113C588.797 559.257 596.195 563.177 603.222 567.712C594.821 571.123 586.485 574.593 578.337 578.581C572.134 577.882 566.293 575.883 560.337 574.071ZM550.908 571.817C547.502 571.328 544.055 571.335 540.627 571.527C534.04 571.893 527.413 572.917 520.83 571.968C518.715 571.662 516.626 571.155 514.641 570.372C520.674 566.703 526.535 562.746 532.539 559.028C535.559 557.158 538.594 555.31 541.642 553.486C544.6 551.716 547.543 549.848 550.59 548.23C554.041 548.651 557.476 549.202 560.876 549.913C567.516 551.304 573.952 553.293 580.179 555.767C580.15 555.789 580.127 555.808 580.093 555.83C578.686 556.763 577.074 557.479 575.597 558.301C574.042 559.165 572.492 560.036 570.946 560.914C567.854 562.672 564.781 564.463 561.732 566.295C558.621 568.162 555.403 569.975 552.435 572.082C551.927 571.99 551.419 571.89 550.908 571.817ZM512.317 569.299C509.655 567.859 507.606 565.778 505.615 563.541C504.784 562.61 503.947 561.666 503.055 560.782C507.221 556.503 511.69 552.494 516.468 548.905C519.069 548.479 521.682 548.122 524.306 547.867C532.697 547.056 541.176 547.162 549.558 548.113C546.907 549.755 544.165 551.27 541.497 552.878C538.397 554.747 535.309 556.64 532.238 558.557C526.201 562.325 520.086 566.069 514.325 570.25C513.641 569.968 512.97 569.652 512.317 569.299V569.299ZM499.606 558.04C497.21 556.647 494.291 556.109 491.546 556.423C491.462 556.432 491.381 556.452 491.297 556.463C493.374 555.44 495.477 554.474 497.653 553.666C500.473 552.62 503.368 551.771 506.28 551.023C509.279 550.254 512.307 549.607 515.357 549.078C510.902 552.601 506.648 556.344 502.688 560.423C501.746 559.523 500.738 558.699 499.606 558.04V558.04ZM511.755 540.661C513.202 543.161 514.69 545.64 516.284 548.049C513.447 548.5 510.625 549.045 507.826 549.698C502.244 551.003 496.315 552.619 491.265 555.539C497.334 549.633 504.347 544.783 511.755 540.661ZM520.269 536.286C526.775 533.21 533.513 530.422 540.797 530.121C541.092 530.11 541.385 530.119 541.679 530.113C543.152 533.069 544.633 536.021 546.098 538.981C547.485 541.786 548.72 544.746 550.307 547.45C542.941 546.544 535.48 546.295 528.012 546.757C524.295 546.987 520.589 547.388 516.909 547.952C515.362 545.424 513.807 542.902 512.318 540.339C514.929 538.904 517.586 537.556 520.269 536.286V536.286ZM563.466 532.782C567.772 533.509 572.077 534.243 576.381 534.974C577.22 538.422 578.025 541.88 578.754 545.353C579.141 547.198 579.517 549.047 579.846 550.905C579.989 551.712 580.126 552.52 580.261 553.329C580.328 553.734 580.394 554.138 580.459 554.543C580.5 554.796 580.543 554.985 580.55 555.143C571.088 551.415 561.203 548.859 551.127 547.549C549.919 544.546 548.22 541.69 546.759 538.804C545.292 535.911 543.848 533.006 542.395 530.106C549.468 530.066 556.53 531.612 563.466 532.782V532.782ZM585.636 536.544C589.063 537.134 592.554 537.798 595.643 539.471C598.089 540.795 600.099 542.741 601.971 544.771C602.078 546.541 602.058 548.328 602.146 550.1C602.246 552.095 602.358 554.091 602.485 556.086C602.716 559.709 602.998 563.327 603.351 566.94C601.48 565.733 599.589 564.553 597.659 563.428C592.396 560.36 586.929 557.689 581.31 555.432C580.158 548.616 578.844 541.816 577.17 535.107C579.992 535.586 582.815 536.058 585.636 536.544V536.544ZM608.687 551.77C611.063 553.756 613.824 555.139 616.604 556.458C618.785 557.495 620.986 558.524 622.994 559.858C622.249 564.316 621.624 568.791 620.98 573.265C620.821 574.37 620.662 575.474 620.503 576.579C620.423 577.131 620.343 577.684 620.269 578.237C620.225 578.565 620.228 579.012 620.174 579.405C615.008 575.076 609.618 571.021 603.964 567.334C603.667 563.575 603.376 559.815 603.143 556.051C603.023 554.125 602.916 552.198 602.823 550.271C602.744 548.656 602.599 547.024 602.549 545.402C604.526 547.588 606.42 549.873 608.687 551.77V551.77ZM613.652 611.921C609.912 612.497 606.189 613.182 602.486 613.957C588.598 610.438 574.637 607.204 560.596 604.355C557.102 603.645 553.607 602.987 550.086 602.437C550.383 602.265 550.682 602.097 550.987 601.936C557.117 598.708 564.183 599.603 570.848 599.349C574.279 599.217 577.581 598.646 580.89 597.742C584.403 596.783 587.881 595.695 591.535 595.43C598.691 594.911 605.846 596.838 612.522 599.242C618.863 601.526 625.004 604.47 630.76 607.976C631.704 608.55 632.63 609.151 633.55 609.762C626.893 610.191 620.254 610.907 613.652 611.921V611.921ZM593.144 636.794C590.126 644.188 587.005 651.55 584.118 658.997C582.451 659.432 580.806 659.937 579.208 660.603C573.661 662.918 569.444 667.217 564.462 670.435C559.131 673.88 553.219 674.866 547.15 675.067C549.711 663.704 552.222 652.33 554.785 640.966C555.431 638.106 556.106 635.25 556.73 632.386C556.844 631.865 556.971 631.344 556.653 630.959C562.348 628.084 568.204 625.524 574.18 623.289C583.205 619.914 592.497 617.261 601.927 615.278C598.999 622.449 596.071 629.622 593.144 636.794V636.794ZM529.098 674.972C526.635 675.087 524.203 675.426 521.826 675.96C522.661 668.255 523.351 660.536 524.24 652.836C529.503 648.031 535.217 643.715 541.191 639.832C545.894 636.774 550.764 633.98 555.755 631.423C555.879 631.532 555.992 631.66 556.084 631.824C556.039 632.028 555.995 632.233 555.949 632.437C555.347 635.165 554.747 637.894 554.146 640.621C552.925 646.144 551.679 651.662 550.445 657.182C549.112 663.149 547.779 669.117 546.456 675.087C540.677 675.223 534.771 674.707 529.098 674.972V674.972ZM500.451 688.677C499.983 689.224 499.54 689.787 499.11 690.361C499.105 690.344 499.101 690.327 499.096 690.31C502.603 679.837 508.176 670.273 515.391 661.908C517.946 658.944 520.683 656.149 523.547 653.491C522.831 661.035 521.942 668.561 521.191 676.1C513.197 678.03 505.893 682.304 500.451 688.677V688.677ZM498.738 688.927C496.004 678.256 494.023 666.331 498.866 656.146C500.688 656.087 502.556 655.63 504.33 655.372C506.507 655.054 508.685 654.747 510.865 654.454C514.792 653.926 518.73 653.457 522.669 653.015C520.759 654.8 518.901 656.641 517.12 658.558C509.447 666.812 503.057 676.382 499.331 687.062C499.116 687.678 498.922 688.301 498.738 688.927ZM499.548 654.768C501.102 651.923 503.204 649.438 505.163 646.871C507.135 644.286 508.85 641.606 510.076 638.584C511.34 635.469 512.237 632.216 513.563 629.126C514.544 626.838 515.806 624.717 517.379 622.816C527.893 624.431 538.319 626.591 548.6 629.316C549.846 629.646 551.089 629.984 552.331 630.33C552.985 630.512 553.637 630.697 554.288 630.884C554.338 630.898 554.396 630.911 554.45 630.925C550.852 632.806 547.316 634.803 543.866 636.944C536.63 641.435 529.729 646.521 523.45 652.282C519.162 652.665 514.888 653.138 510.62 653.701C508.438 653.99 506.26 654.303 504.087 654.641C502.512 654.886 500.799 655.026 499.214 655.443C499.329 655.219 499.426 654.99 499.548 654.768V654.768ZM518.782 621.26C521.077 618.948 523.814 617.194 526.804 615.918C529.864 614.61 533.068 613.661 536.063 612.199C541.11 609.737 544.962 605.512 549.735 602.647C556.319 604.207 562.96 605.519 569.568 606.971C576.645 608.527 583.712 610.123 590.756 611.818C594.119 612.626 597.474 613.463 600.827 614.307C592.897 616.035 585.07 618.226 577.418 620.933C569.896 623.593 562.544 626.75 555.448 630.399C555.233 630.35 555.02 630.302 554.834 630.249C554.051 630.028 553.268 629.81 552.483 629.595C546.99 628.088 541.454 626.74 535.883 625.55C529.902 624.273 523.88 623.192 517.832 622.283C518.139 621.935 518.454 621.593 518.782 621.26V621.26ZM651.201 609.312C651.155 609.311 651.11 609.312 651.064 609.311C651.048 608.99 650.869 608.682 650.463 608.593C650.274 608.552 650.095 608.492 649.907 608.445C646.712 601.958 643.648 595.378 640.837 588.717C638.299 582.704 636.285 576.437 633.411 570.571C630.701 565.042 626.947 560.362 621.465 557.406C618.563 555.841 615.465 554.661 612.613 553.001C609.89 551.417 607.669 549.271 605.561 546.956C603.516 544.71 601.554 542.354 599.177 540.443C596.66 538.42 593.756 537.17 590.64 536.387C587.074 535.49 583.391 535.018 579.769 534.411C575.92 533.766 572.071 533.124 568.222 532.475C560.758 531.219 553.242 529.584 545.675 529.1C541.979 528.864 538.28 529.027 534.651 529.796C531.121 530.542 527.715 531.786 524.403 533.197C512.214 538.384 500.5 545.117 490.758 554.163C489.532 555.302 488.348 556.483 487.194 557.694C486.624 558.292 487.425 559.136 488.098 558.761C490.829 557.234 494.021 556.812 497.027 557.757C499.945 558.673 502.126 560.749 504.119 562.976C506.051 565.135 507.891 567.356 510.307 569.002C512.536 570.52 515.057 571.54 517.661 572.208C523.651 573.745 529.86 573.357 535.96 572.905C539.508 572.643 543.066 572.382 546.624 572.532C548.263 572.601 549.886 572.788 551.496 573.058C551.543 573.091 551.597 573.102 551.664 573.082C553.332 573.369 554.985 573.751 556.622 574.203C562.863 575.926 568.881 578.468 575.285 579.566C581.347 580.605 587.533 580.492 593.659 580.515C599.712 580.538 605.873 580.706 611.699 582.521C616.823 584.118 621.12 587.173 624.991 590.815C631.812 597.233 637.698 605.702 646.758 609.146C646.902 609.2 647.049 609.242 647.192 609.293C643.018 609.311 638.847 609.448 634.681 609.695C629.361 605.943 623.725 602.667 617.744 600.08C611.287 597.288 604.39 594.898 597.356 594.201C593.807 593.848 590.277 593.997 586.785 594.733C583.098 595.511 579.528 596.8 575.803 597.398C569.037 598.487 562.079 597.21 555.369 598.811C548.978 600.336 544.562 605.039 539.389 608.721C533.794 612.705 526.715 613.572 521.131 617.545C518.658 619.305 516.51 621.497 514.809 624.01C512.927 626.79 511.751 629.914 510.654 633.065C509.514 636.336 508.37 639.613 506.502 642.554C504.665 645.447 502.342 647.99 500.355 650.776C496.628 656.006 494.794 661.997 494.494 668.387C494.191 674.875 495.309 681.36 496.797 687.65C497.176 689.252 497.584 690.846 498.007 692.437C498.15 692.976 499.02 693.232 499.367 692.73C505.827 683.325 515.964 677.297 527.356 676.313C539.143 675.294 551.797 678.73 562.847 673.131C568.124 670.458 572.264 666.066 577.434 663.226C582.98 660.178 589.419 659.68 595.428 658.027C605.183 655.345 614.081 649.771 620.959 642.379C627.83 634.995 632.962 625.66 634.913 615.723C635.157 614.477 635.302 613.22 635.47 611.964C635.583 611.111 634.267 610.83 634.152 611.691C632.812 621.758 628.203 631.414 621.66 639.124C615.086 646.871 606.432 652.97 596.699 656.014C592.85 657.218 588.829 657.831 584.913 658.795C587.982 651.618 590.846 644.346 593.798 637.121C596.796 629.781 599.797 622.441 602.795 615.1C605.169 614.612 607.551 614.153 609.941 613.75C622.092 611.7 634.419 610.8 646.74 610.824C648.254 610.827 649.769 610.846 651.284 610.878C652.293 610.899 652.209 609.326 651.201 609.312Z" fill="#1C6467"/>
<path d="M-4.27174 382.803C7.77259 385.853 20.0638 388.213 32.4456 389.284C32.5692 389.56 32.7328 389.829 32.8569 390.081C33.4101 391.205 33.9799 392.322 34.5473 393.439C36.6783 397.64 38.7848 401.853 41.0053 406.006C40.4593 406.004 39.9121 405.988 39.3639 405.939C36.6024 405.685 33.944 404.853 31.4203 403.716C26.0313 401.289 21.2685 397.657 16.3192 394.465C10.615 390.788 4.76178 387.228 -1.35187 384.28C-2.3643 383.793 -3.38228 383.318 -4.3993 382.84C-4.35689 382.826 -4.31415 382.816 -4.27174 382.803V382.803ZM21.1811 384.334C25.7804 385.098 30.5107 385.507 35.1189 384.582C35.3617 384.534 35.5977 384.465 35.8384 384.41C35.4655 384.78 35.1053 385.165 34.7464 385.552C34.3004 386.035 33.8554 386.519 33.4095 387.001C33.0951 387.341 32.6405 387.696 32.4082 388.096C32.327 388.237 32.293 388.378 32.2812 388.519C31.7101 388.464 31.1378 388.425 30.567 388.364C19.4425 387.158 8.47375 385.038 -2.36494 382.279C5.33721 380.513 13.5456 383.066 21.1811 384.334V384.334ZM50.372 377.53C55.272 374.247 59.8855 370.514 64.9781 367.528C65.0215 367.502 65.0664 367.481 65.11 367.455C61.0682 374.864 56.7759 382.216 51.9533 389.135C45.678 389.378 39.3738 389.168 33.0932 388.592C33.2725 387.716 34.6941 386.678 35.2075 386.149C35.8412 385.495 36.4646 384.84 37.0226 384.125C41.8337 382.811 46.2342 380.304 50.372 377.53V377.53ZM82.0206 360.724C84.1922 359.996 86.356 359.217 88.4486 358.279C87.5369 360.233 86.7375 362.245 85.8769 364.221C84.8178 366.651 83.7332 369.071 82.6456 371.491C80.465 376.342 78.2036 381.153 75.8936 385.943C68.255 387.749 60.4538 388.768 52.6018 389.109C57.1884 381.877 61.6923 374.632 65.7725 367.091C70.907 364.237 76.4712 362.584 82.0206 360.724V360.724ZM90.4753 357.305C93.3511 355.819 95.9897 353.926 98.5137 351.903C103.363 348.015 107.887 343.595 113.451 340.727C115.237 339.805 117.115 339.054 119.062 338.572C116.431 344.709 114.088 350.975 111.507 357.133C110.207 360.232 108.885 363.32 107.539 366.399C106.234 369.385 104.993 372.44 103.537 375.358C100.663 376.922 97.7302 378.376 94.7357 379.686C88.8903 382.247 82.8756 384.232 76.7576 385.728C76.7685 385.696 76.7753 385.668 76.789 385.632C77.3616 384.141 78.2067 382.706 78.8933 381.262C79.6158 379.745 80.3309 378.222 81.0388 376.697C82.4542 373.647 83.8361 370.581 85.1782 367.497C86.5481 364.351 88.0293 361.189 89.1597 357.937C89.6001 357.73 90.0423 357.528 90.4753 357.305V357.305ZM121.427 338.13C124.25 337.785 126.951 338.271 129.693 338.909C130.836 339.175 131.991 339.445 133.155 339.642C132.287 345.228 131.039 350.772 129.327 356.16C127.565 357.913 125.756 359.619 123.883 361.251C117.892 366.472 111.333 371.03 104.392 374.883C105.531 372.163 106.809 369.492 107.981 366.789C109.342 363.647 110.68 360.495 111.993 357.332C114.573 351.117 117.225 344.877 119.371 338.494C120.048 338.337 120.733 338.214 121.427 338.13V338.13ZM137.289 339.872C139.883 339.637 142.414 338.456 144.347 336.711C144.406 336.657 144.458 336.598 144.516 336.542C143.48 338.47 142.393 340.367 141.162 342.183C139.57 344.535 137.813 346.775 135.987 348.946C134.106 351.182 132.135 353.34 130.086 355.418C131.586 350.258 132.812 345.037 133.631 339.718C134.843 339.897 136.064 339.982 137.289 339.872V339.872ZM137.42 359.951C134.952 358.812 132.465 357.71 129.933 356.72C131.863 354.82 133.731 352.854 135.52 350.817C139.092 346.753 142.758 342.26 145.043 337.24C143.599 345.126 140.859 352.711 137.42 359.951V359.951ZM133.27 367.991C129.956 373.929 126.305 379.772 120.884 383.99C120.666 384.161 120.435 384.314 120.213 384.479C117.478 383.002 114.737 381.532 112.006 380.046C109.418 378.638 106.863 377.025 104.177 375.804C110.316 372.474 116.171 368.583 121.645 364.139C124.37 361.926 126.992 359.587 129.507 357.137C132.067 358.244 134.629 359.341 137.163 360.508C135.942 363.045 134.638 365.542 133.27 367.991V367.991ZM102.061 394.341C98.3651 396.137 94.6657 397.925 90.9689 399.718C88.452 397.512 85.9556 395.28 83.5097 392.995C82.2098 391.781 80.9168 390.558 79.6561 389.303C79.1079 388.758 78.5629 388.208 78.0203 387.657C77.749 387.381 77.478 387.105 77.2083 386.828C77.0392 386.654 76.9035 386.532 76.8131 386.413C86.0919 384.115 95.0594 380.68 103.495 376.179C106.054 377.837 108.907 379.114 111.596 380.544C114.293 381.977 116.978 383.431 119.668 384.877C114.268 388.778 108.015 391.449 102.061 394.341V394.341ZM83.0215 403.569C80.0733 404.989 77.0361 406.387 73.7586 406.785C71.1646 407.099 68.5666 406.697 66.0277 406.153C64.984 404.843 64.028 403.451 62.998 402.131C61.8372 400.643 60.6663 399.162 59.4851 397.691C57.3392 395.017 55.1559 392.376 52.922 389.778C55.0125 389.687 57.1032 389.563 59.1936 389.376C64.8961 388.866 70.5381 387.938 76.0726 386.606C80.6598 391.243 85.3629 395.777 90.2917 400.046C87.8679 401.22 85.4477 402.401 83.0215 403.569ZM57.0751 404.42C54.1754 404.185 51.3073 404.629 48.4584 405.13C46.2237 405.524 43.9765 405.933 41.7117 406.002C39.8607 402.149 37.9077 398.349 35.9706 394.539C35.4921 393.599 35.014 392.658 34.5355 391.717C34.2964 391.246 34.0579 390.776 33.8136 390.307C33.6686 390.03 33.4236 389.686 33.2521 389.354C39.5652 389.87 45.9006 390.055 52.2386 389.808C54.5089 392.551 56.775 395.297 58.9995 398.078C60.1376 399.5 61.2665 400.931 62.3854 402.369C63.3231 403.574 64.3209 404.756 65.2417 405.981C62.539 405.374 59.8443 404.645 57.0751 404.42V404.42ZM20.581 360.657C23.1353 358.166 25.6163 355.599 28.0344 352.972C40.5931 348.092 53.0527 342.949 65.3652 337.466C68.4294 336.101 71.4665 334.696 74.4641 333.195C74.3299 333.49 74.1921 333.784 74.0454 334.075C71.1011 339.925 65.1977 343.1 60.2265 346.945C57.6681 348.925 55.4476 351.173 53.4021 353.683C51.2299 356.347 49.1546 359.091 46.4974 361.296C41.2939 365.613 34.7616 368.04 28.3372 369.835C22.235 371.542 15.9278 372.629 9.61002 373.071C8.57476 373.143 7.5376 373.186 6.50043 373.217C11.3706 369.241 16.0712 365.055 20.581 360.657V360.657ZM22.7851 330.213C21.0799 322.848 19.472 315.45 17.6389 308.117C18.6795 306.868 19.6668 305.578 20.5296 304.188C23.524 299.364 24.4203 293.734 26.4902 288.521C28.7055 282.94 32.7008 278.942 37.2441 275.465C41.4565 285.647 45.7124 295.811 49.9223 305.995C50.9821 308.558 52.0171 311.134 53.0954 313.69C53.2912 314.154 53.4767 314.626 53.9298 314.75C51.1262 320.089 48.0289 325.271 44.6622 330.269C39.5773 337.816 33.8962 344.953 27.7451 351.647C26.0926 344.503 24.4382 337.358 22.7851 330.213V330.213ZM51.1342 265.66C52.9604 264.222 54.6402 262.629 56.1723 260.915C59.7189 267.326 63.3854 273.668 66.889 280.104C65.4643 286.698 63.43 293.16 60.9614 299.431C59.0178 304.368 56.8025 309.192 54.3665 313.899C54.2119 313.883 54.0555 313.846 53.8957 313.771C53.8192 313.588 53.7428 313.405 53.6663 313.222C52.6446 310.785 51.6217 308.349 50.6015 305.912C48.5355 300.976 46.4919 296.03 44.438 291.089C42.2178 285.748 39.9957 280.408 37.7659 275.071C42.1221 271.802 46.9304 268.967 51.1342 265.66V265.66ZM65.6477 239.389C65.709 238.711 65.7428 238.032 65.7605 237.353C65.7728 237.364 65.7852 237.375 65.7976 237.385C68.8016 247.398 69.7276 257.838 68.7425 268.251C68.3932 271.94 67.815 275.598 67.0639 279.219C63.512 272.998 60.1051 266.696 56.583 260.458C61.6629 254.593 64.9385 247.292 65.6477 239.389V239.389ZM66.8248 238.258C74.7193 245.008 82.7193 253.139 84.5415 263.658C83.1764 264.701 81.9928 266.077 80.7732 267.248C79.2774 268.685 77.7744 270.115 76.2624 271.533C73.5384 274.091 70.7747 276.609 67.9952 279.106C68.4894 276.682 68.9134 274.242 69.2377 271.786C70.6334 261.209 70.3315 250.316 67.3838 240.023C67.2141 239.43 67.0243 238.842 66.8248 238.258V238.258ZM84.7676 265.097C85.1219 268.146 84.8609 271.216 84.7543 274.272C84.6471 277.349 84.7893 280.359 85.4917 283.365C86.2157 286.464 87.2956 289.467 87.959 292.582C88.4492 294.886 88.6357 297.216 88.4616 299.547C79.5251 304.053 70.3582 308.09 60.9958 311.612C59.8613 312.039 58.7244 312.458 57.5848 312.87C56.9852 313.087 56.3844 313.302 55.7833 313.514C55.7375 313.53 55.6852 313.552 55.6368 313.57C57.3727 310.148 58.9985 306.669 60.4792 303.126C63.5858 295.695 66.1129 287.988 67.7951 280.099C70.8753 277.457 73.8933 274.753 76.8596 271.981C78.3752 270.564 79.8744 269.13 81.3569 267.679C82.431 266.628 83.6679 265.581 84.6567 264.393C84.6908 264.628 84.7397 264.858 84.7676 265.097V265.097ZM88.2318 301.517C87.7292 304.559 86.584 307.412 84.9863 310.035C83.3508 312.72 81.4112 315.208 79.9088 317.977C77.3783 322.641 76.722 328.014 74.6189 332.841C68.7242 335.238 62.9208 337.86 57.0658 340.354C50.7954 343.025 44.5104 345.66 38.1886 348.207C35.1719 349.422 32.145 350.612 29.1156 351.794C34.2555 346.119 39.0654 340.142 43.4609 333.862C47.7811 327.689 51.7015 321.226 55.158 314.522C55.35 314.444 55.5383 314.363 55.7093 314.303C56.4303 314.045 57.1493 313.785 57.8679 313.521C62.8976 311.679 67.8747 309.691 72.7911 307.561C78.0705 305.274 83.274 302.814 88.404 300.206C88.3585 300.643 88.3037 301.08 88.2318 301.517V301.517ZM-6.78608 383.226C-6.75048 383.201 -6.71584 383.176 -6.68016 383.151C-6.49472 383.391 -6.18932 383.53 -5.82915 383.378C-5.66226 383.306 -5.4922 383.253 -5.32405 383.187C0.6515 386.45 6.57631 389.859 12.3509 393.467C17.5642 396.724 22.5138 400.464 27.9052 403.424C32.9874 406.213 38.4091 407.776 44.2172 407.059C47.2927 406.679 50.3085 405.896 53.3977 405.617C56.3454 405.352 59.2141 405.794 62.0877 406.429C64.8765 407.045 67.6607 407.792 70.522 407.968C73.5499 408.153 76.4557 407.529 79.2709 406.429C82.4914 405.17 85.5712 403.519 88.6781 402.006C91.9792 400.397 95.2786 398.788 98.5806 397.182C104.987 394.067 111.636 391.216 117.7 387.449C120.662 385.609 123.409 383.458 125.774 380.878C128.074 378.369 130.009 375.544 131.782 372.641C138.306 361.961 143.626 350.348 146.178 338.026C146.499 336.474 146.766 334.914 146.992 333.346C147.104 332.572 146.032 332.358 145.719 333.016C144.456 335.692 142.238 337.764 139.42 338.68C136.685 339.568 133.886 339.158 131.147 338.528C128.492 337.918 125.875 337.209 123.129 337.259C120.595 337.305 118.108 337.897 115.748 338.806C110.322 340.897 105.773 344.596 101.342 348.283C98.7651 350.428 96.1789 352.577 93.3694 354.409C92.0757 355.252 90.7305 355.996 89.3496 356.669C89.296 356.668 89.2474 356.69 89.2077 356.742C87.7729 357.433 86.2978 358.043 84.797 358.589C79.0776 360.674 73.0822 362.004 67.5755 364.661C62.3643 367.175 57.6842 370.648 52.9747 373.983C48.3225 377.278 43.5073 380.52 38.0552 382.307C33.2598 383.877 28.3054 383.868 23.3586 383.173C14.6413 381.948 5.52669 378.625 -3.29063 380.922C-3.42961 380.959 -3.56439 381.008 -3.7025 381.047C-0.512039 378.748 2.61095 376.358 5.66916 373.888C11.7865 373.875 17.8881 373.322 23.8792 372.047C30.3459 370.671 36.9325 368.742 42.704 365.432C45.6151 363.761 48.2413 361.714 50.5173 359.234C52.9208 356.616 54.958 353.666 57.4885 351.163C62.0838 346.62 68.111 343.798 72.3848 338.889C76.4557 334.211 77.2845 328.162 79.2488 322.484C81.3733 316.344 86.3297 311.799 88.4505 305.672C89.3901 302.959 89.8451 300.089 89.7837 297.217C89.7162 294.039 88.9194 290.982 88.0485 287.946C87.1439 284.794 86.2408 281.636 86.0736 278.341C85.9094 275.1 86.3089 271.864 86.3173 268.623C86.3322 262.542 84.484 256.908 81.2402 251.807C77.9472 246.629 73.566 242.229 69.007 238.183C67.8459 237.152 66.6659 236.144 65.4773 235.146C65.0748 234.808 64.268 235.086 64.2767 235.664C64.4346 246.466 59.9394 256.674 51.7411 263.67C43.2593 270.908 31.6919 275.179 26.2626 285.553C23.6711 290.507 22.8832 296.166 20.4642 301.19C17.8683 306.581 13.2034 310.491 9.49483 315.056C3.47441 322.468 -0.317245 331.646 -1.57299 341.122C-2.82762 350.588 -1.68826 360.611 2.21612 369.357C2.70537 370.454 3.27771 371.503 3.83236 372.567C4.20864 373.287 5.37035 372.784 4.99035 372.056C0.546847 363.543 -1.1673 353.559 -0.341344 344.02C0.488023 334.437 3.80731 324.987 9.61407 317.308C11.9111 314.27 14.6608 311.597 17.1384 308.708C18.6856 315.933 20.4428 323.119 22.1062 330.319C23.7962 337.632 25.485 344.945 27.1766 352.259C25.6212 353.936 24.0449 355.593 22.4314 357.213C14.2301 365.448 5.26966 372.892 -4.18842 379.616C-5.351 380.442 -6.52223 381.256 -7.70036 382.06C-8.48572 382.597 -7.56653 383.766 -6.78608 383.226" fill="#FBBE2B"/>
<path d="M273.248 6.48829C276.943 1.80855 280.874 -2.6788 285.023 -6.95142C289.297 -11.3526 294.047 -15.3018 298.12 -19.8986C300.002 -22.0221 301.702 -24.352 303.012 -26.8618C301.226 -18.3357 297.973 -10.1785 293.503 -2.65971C287.312 7.75195 278.961 16.7217 269.675 24.3706C264.945 28.2668 259.953 31.8231 254.818 35.1496C260.011 25.0248 266.217 15.395 273.248 6.48829V6.48829ZM318.352 -38.324C322.715 -38.1648 327.056 -37.5521 331.318 -36.6002C339.854 -34.6924 348.031 -31.4238 355.884 -27.584C359.654 -25.7408 363.321 -23.7202 367.019 -21.7468C350.594 -22.1722 333.412 -23.9706 318.717 -31.8434C314.872 -33.9038 311.062 -36.2611 306.736 -37.0389C310.438 -38.3456 314.458 -38.4667 318.352 -38.324V-38.324ZM336.406 -15.5588C346.042 -13.9321 355.33 -10.9703 363.944 -6.26405C368.334 -3.86614 372.408 -1.02714 376.118 2.32844C371.343 2.53656 366.604 2.95362 361.816 2.53573C357.118 2.12447 352.478 1.07562 348.024 -0.483187C339.199 -3.57344 331.16 -8.58237 323.957 -14.5481C321.193 -16.8374 318.57 -19.2851 316.003 -21.7932C321.956 -17.9153 329.429 -16.7362 336.406 -15.5588V-15.5588ZM315.22 30.0793C311.143 39.2091 305.028 47.3539 297.831 54.201C294.124 57.7258 290.084 60.8417 285.832 63.6542C290.825 55.0716 295.61 46.3581 300.725 37.8485C303.347 33.4863 306.112 29.2104 309.146 25.1293C312.055 21.2149 315.187 17.4149 317.576 13.1364C319.084 10.4334 320.289 7.46258 320.897 4.3914C320.736 13.2376 318.837 21.9777 315.22 30.0793V30.0793ZM344.32 10.1407C352.033 14.1795 358.993 19.3236 365.16 25.5124C367.964 28.3265 370.373 31.3969 372.789 34.507C370.255 32.6248 367.683 30.8695 364.836 29.392C360.976 27.3888 356.955 25.7255 352.978 23.9809C349.035 22.2513 345.112 20.4496 341.446 18.1661C337.638 15.7931 334.106 12.9714 330.915 9.80242C327.793 6.7014 325.044 3.24466 322.626 -0.44092C329.024 4.48175 337.24 6.43442 344.32 10.1407V10.1407ZM367.71 56.2325C370.151 59.7704 372.151 63.5265 374.112 67.3381C371.245 65.1417 368.212 63.1542 365.114 61.3168C361.456 59.1477 357.724 57.084 354.266 54.5932C347.489 49.712 341.824 43.4751 336.72 36.8726C334.111 33.4987 331.608 30.0321 329.178 26.5231C344.58 32.2758 358.296 42.583 367.71 56.2325V56.2325ZM343.91 58.2995C348.41 65.5488 352.974 72.9274 355.682 81.0887C356.999 85.0571 357.846 89.1638 358.089 93.3345C356.545 90.2343 354.896 87.1863 353.026 84.2727C350.832 80.8549 348.382 77.6137 346.167 74.2092C341.795 67.489 337.942 60.4047 334.665 53.075C332.9 49.1308 331.12 45.1649 329.738 41.0648C335.752 45.5513 339.982 51.9731 343.91 58.2995V58.2995ZM345.064 100.813C345.33 103.995 345.234 107.122 345.066 110.283C342.941 104.371 340.549 98.5805 338.335 92.6977C337.127 89.4856 336.091 86.2262 335.28 82.8872C334.517 79.7463 333.88 76.5748 333.043 73.4514C332.282 70.6083 331.322 67.8256 329.985 65.2163C338.581 75.0608 343.972 87.722 345.064 100.813V100.813ZM314.439 115.722C310.674 122.143 306.03 127.986 300.949 133.386C298.475 136.016 295.884 138.525 293.246 140.985C294.946 132.75 299.749 125.509 304.513 118.754C307.16 115 309.927 111.335 312.803 107.757C315.396 104.531 318.057 101.35 320.391 97.9214C321.413 96.4189 322.382 94.8303 323.233 93.1786C322.397 96.5226 321.457 99.8342 320.413 103.104C318.776 107.472 316.794 111.705 314.439 115.722ZM333.666 102.628C335.824 109.291 337.088 116.147 337.095 123.17C337.098 126.764 336.735 130.286 336.312 133.832C335.388 131.134 334.583 128.385 333.756 125.661C332.757 122.374 331.799 119.072 330.931 115.748C329.166 108.997 327.825 102.091 327.219 95.1304C326.94 91.9233 326.8 88.6896 326.814 85.4642C329.308 91.0958 331.767 96.7614 333.666 102.628ZM293.477 111.092C290.256 112.859 286.917 114.544 283.399 115.632C288.038 110.888 292.734 106.285 297.958 102.168C303.556 97.7572 309.523 93.8245 315.776 90.4333C318.612 88.8952 321.653 87.5827 324.41 85.8663C315.617 95.9704 305.188 104.67 293.477 111.092V111.092ZM313.864 80.0846C308.431 84.8498 302.446 88.998 296.098 92.4141C292.925 94.1213 289.644 95.5052 286.353 96.9231C288.186 94.3626 290.288 91.9399 292.39 89.634C294.841 86.9467 297.45 84.4037 300.199 82.0315C305.644 77.3343 311.623 73.2433 317.976 69.9143C321.029 68.314 324.184 66.8787 327.428 65.7146C323.246 70.8338 318.837 75.7233 313.864 80.0846V80.0846ZM298.135 71.9739C294.932 73.8958 291.63 75.6404 288.269 77.2597C296.371 65.5438 306.838 55.4912 318.776 47.8455C321.637 46.014 324.583 44.32 327.596 42.7587C320.607 55.0667 310.175 64.7519 298.135 71.9739V71.9739ZM309.133 -5.20854C308.532 0.951226 307.608 7.10435 306.001 13.0834C303.044 24.0837 297.734 34.4614 289.141 42.0174C284.476 46.1193 279.13 49.3339 273.81 52.4871C277.845 41.7422 282.009 31.0362 286.964 20.6859C289.516 15.3553 292.253 10.1059 295.294 5.04391C298.343 -0.0313267 301.777 -4.77738 305.252 -9.55329C306.972 -11.9164 308.737 -14.4801 309.952 -17.2229C309.718 -13.2157 309.523 -9.20505 309.133 -5.20854V-5.20854ZM253.773 37.0343C264.038 30.5213 273.784 23.0415 282.101 14.0908C290.355 5.20977 297.139 -5.16541 301.226 -16.674C302.854 -21.2534 304.04 -25.9896 304.672 -30.8069C304.966 -31.7223 305.203 -32.656 305.372 -33.6086C307.12 -30.656 308.774 -27.6462 310.337 -24.5891C310.339 -19.3912 307.513 -14.762 304.572 -10.6328C301.308 -6.0493 298.07 -1.49807 295.19 3.34832C289.2 13.4275 284.343 24.1078 279.805 34.9191C277.219 41.078 274.77 47.2942 272.285 53.4946C272.088 53.9863 272.587 54.478 273.06 54.1911C278.213 51.0677 283.363 47.8986 288.036 44.0597C292.434 40.4471 296.205 36.2408 299.253 31.4027C305.655 21.2373 308.64 9.2701 309.951 -2.59671C310.6 -8.47872 311.006 -14.4395 311.053 -20.3754C311.223 -21.052 311.344 -21.7402 311.42 -22.4358C315.031 -15.1078 318.113 -7.51439 320.633 0.26637C320.005 9.51722 313.679 17.0219 308.352 24.1617C302.492 32.0196 297.722 40.6062 292.932 49.1515C290.035 54.3179 287.177 59.501 284.35 64.7072C284.165 65.0488 284.59 65.3871 284.894 65.1972C293.438 59.8624 301.389 53.1447 307.565 45.1027C313.884 36.8742 318.534 27.2917 320.657 17.0708C321.528 12.8794 321.969 8.62421 321.901 4.36237C322.026 4.78358 322.158 5.20228 322.279 5.62432C325.621 17.2822 327.613 29.2916 328.289 41.3815C315.131 47.795 303.369 56.9729 293.863 68.193C291.123 71.4267 288.586 74.8278 286.234 78.36C285.986 78.7323 286.478 79.2961 286.876 79.1104C300.613 72.7268 313.615 64.0928 322.868 51.8031C324.957 49.0287 326.796 46.0529 328.358 42.9411C328.691 50.095 328.563 57.2713 327.987 64.4178C321.495 67.0006 315.224 69.9574 309.341 73.7905C303.189 77.797 297.535 82.5878 292.512 87.969C289.64 91.046 287.163 94.3668 284.624 97.7182C284.344 98.0888 284.655 98.6527 285.131 98.5009C288.553 97.4131 291.871 95.7937 295.066 94.1553C298.345 92.473 301.526 90.5974 304.589 88.5428C310.646 84.4791 316.305 79.69 321.238 74.2847C323.624 71.6704 325.862 68.9135 327.86 65.9832C327.755 67.1457 327.64 68.3065 327.511 69.4657C326.971 74.3311 326.225 79.1975 325.287 84.0298C322.467 85.9799 319.241 87.2543 316.218 88.8388C313.045 90.5029 309.955 92.3461 306.946 94.298C300.978 98.1676 295.338 102.552 290.094 107.377C287.067 110.162 284.091 113.072 281.465 116.252C281.16 116.622 281.513 117.152 281.965 117.025C289.035 115.044 295.601 111.191 301.691 107.126C307.616 103.169 313.175 98.6344 318.203 93.5625C320.564 91.182 322.774 88.6705 324.875 86.0595C324.781 86.5139 324.671 86.9658 324.574 87.421C323.328 90.8288 321.67 93.9688 319.627 97.006C317.313 100.448 314.663 103.64 312.077 106.873C306.534 113.801 301.037 121.055 296.796 128.89C294.512 133.11 292.737 137.622 291.904 142.373C291.805 142.94 292.451 143.187 292.831 142.841C303.717 132.918 313.78 121.264 319.58 107.502C320.943 104.267 322.006 100.986 322.72 97.5698C323.883 93.817 324.931 90.0361 325.821 86.2129C325.673 99.1883 328.936 112.022 332.591 124.375C333.733 128.231 335.066 132.043 336.101 135.929C336.219 136.374 336.882 136.309 336.965 135.878C338.326 128.815 338.442 121.23 337.379 114.124C336.352 107.266 334.148 100.664 331.539 94.2706C330.071 90.6746 328.451 87.1441 326.834 83.6152C326.836 83.5289 326.834 83.4427 326.836 83.3573C326.843 83.1185 326.707 82.9858 326.537 82.9452C327.193 79.821 327.765 76.6735 328.222 73.4962C328.607 70.8131 328.919 68.12 329.171 65.4211C331.98 70.6763 333.091 76.6263 334.507 82.3889C336.117 88.9425 338.658 95.1313 341.165 101.371C342.601 104.943 344.085 108.569 344.976 112.329C345.067 112.716 345.671 112.662 345.731 112.284C346.785 105.597 346.037 98.3699 344.527 91.8171C342.968 85.0529 340.278 78.549 336.599 72.6836C334.534 69.3911 332.082 66.3415 329.399 63.5464C329.378 63.5265 329.357 63.5174 329.336 63.5033C329.87 56.9546 330.023 50.3728 329.786 43.8068C330.822 46.6391 331.86 49.4715 333.092 52.2268C334.709 55.8427 336.461 59.3973 338.348 62.8764C340.242 66.3688 342.285 69.7808 344.45 73.1082C346.692 76.5516 349.145 79.8367 351.472 83.2197C354.197 87.1822 356.19 91.4772 358.242 95.8178C358.468 96.2962 359.127 95.9571 359.128 95.5251C359.15 86.8215 356.059 78.4645 352.107 70.852C350.047 66.8821 347.719 63.0638 345.365 59.268C343.276 55.8975 341.168 52.5294 338.771 49.3704C336.169 45.9393 333.162 42.8159 329.631 40.3559C329.384 36.0111 328.951 31.6746 328.363 27.3572C332.951 33.6729 337.479 40.0432 342.858 45.7105C345.734 48.7402 348.821 51.5991 352.192 54.0584C355.542 56.5019 359.158 58.496 362.771 60.5067C367.045 62.8855 371.366 65.2644 374.863 68.7584C375.095 68.9906 375.52 68.7112 375.402 68.4011C373.868 64.3921 371.656 60.6195 369.303 57.0525C366.934 53.4597 364.275 50.0644 361.369 46.8995C355.481 40.4852 348.611 34.9241 340.998 30.7468C336.994 28.5504 332.767 26.8058 328.422 25.4353C328.396 25.3963 328.369 25.3582 328.342 25.3192C328.261 25.2006 328.157 25.1401 328.049 25.1036C326.848 17.094 325.072 9.16479 322.724 1.41637C326.996 7.60682 332.388 13.0046 338.57 17.2383C345.871 22.2381 354.196 24.8756 362.132 28.5794C366.556 30.644 371.473 33.0974 374.672 36.9248C375.002 37.3186 375.615 36.9497 375.351 36.4804C373.244 32.7202 370.335 29.3115 367.451 26.1417C364.484 22.8823 361.24 19.9098 357.763 17.2159C354.422 14.6281 350.882 12.2957 347.185 10.2609C343.264 8.10265 339.137 6.45762 334.961 4.88472C330.435 3.18081 325.838 1.4222 321.933 -1.50056C321.856 -1.62327 321.77 -1.74187 321.693 -1.86542C319.631 -8.19931 317.189 -14.403 314.376 -20.4202C313.856 -21.5304 313.319 -22.6323 312.777 -23.731C325.253 -10.2838 341.515 1.22899 359.978 3.45775C365.744 4.15424 371.721 3.96769 377.489 3.36075C377.915 3.31597 378.209 2.71317 377.814 2.41135C370.426 -3.24346 362.497 -8.25237 353.851 -11.6859C349.506 -13.4122 345.008 -14.738 340.433 -15.6733C335.307 -16.7213 330.081 -17.3042 325.042 -18.761C322.616 -19.4625 320.27 -20.445 318.09 -21.7327C316.766 -22.5146 315.522 -23.4325 314.352 -24.4332C313.175 -25.439 311.881 -26.3569 310.924 -27.594C310.007 -28.783 309.468 -30.2008 308.751 -31.5101C307.972 -32.9354 307.092 -34.3184 306.256 -35.7114C306.198 -35.8075 306.138 -35.9012 306.079 -35.9966C310.2 -35.3996 313.851 -33.3118 317.492 -31.3724C321.23 -29.3816 325.112 -27.7283 329.139 -26.4348C337.333 -23.8031 345.905 -22.6017 354.446 -21.8463C359.314 -21.416 364.193 -21.1075 369.06 -20.6838C369.63 -20.6341 369.892 -21.3322 369.384 -21.644C361.723 -26.3477 353.479 -30.3857 345.096 -33.5829C336.957 -36.6873 328.45 -38.8787 319.742 -39.3787C314.837 -39.6606 309.7 -39.6092 305.163 -37.4808C304.032 -39.3124 302.878 -41.1282 301.676 -42.9134C300.048 -45.3328 298.417 -47.7465 296.365 -49.8227C295.848 -50.3459 295.1 -49.6013 295.43 -49.011C296.709 -46.7291 298.263 -44.6472 299.734 -42.4905C301.135 -40.4342 302.491 -38.3456 303.798 -36.2271C303.966 -35.9568 304.124 -35.6823 304.289 -35.4112C304.168 -34.0613 304.011 -32.7181 303.816 -31.3824C302.517 -27.453 300.096 -23.8877 297.383 -20.814C293.356 -16.2504 288.664 -12.3276 284.424 -7.97126C276.332 0.347618 269.074 9.48322 262.761 19.2523C259.192 24.7753 255.992 30.4972 253.054 36.3867C252.828 36.8378 253.361 37.2955 253.773 37.0343" fill="#1C6467"/>
<path d="M193.835 851.932C189.779 857.1 185.458 862.062 180.889 866.792C176.183 871.663 170.938 876.048 166.459 881.13C164.39 883.478 162.526 886.05 161.099 888.811C162.97 879.466 166.484 870.503 171.365 862.223C178.126 850.752 187.315 840.83 197.569 832.336C202.791 828.011 208.31 824.052 213.993 820.343C208.343 831.484 201.555 842.098 193.835 851.932ZM144.146 901.559C139.276 901.446 134.422 900.839 129.653 899.86C120.101 897.897 110.929 894.443 102.112 890.357C97.8795 888.396 93.758 886.24 89.6035 884.136C107.937 884.366 127.135 886.086 143.646 894.48C147.966 896.677 152.252 899.2 157.09 899.988C152.978 901.468 148.494 901.659 144.146 901.559ZM123.675 876.935C112.9 875.295 102.494 872.19 92.814 867.17C87.8812 864.611 83.2941 861.566 79.1058 857.953C84.432 857.657 89.7133 857.132 95.0641 857.521C100.311 857.903 105.504 858.983 110.496 860.623C120.389 863.875 129.429 869.234 137.552 875.651C140.67 878.115 143.631 880.752 146.532 883.457C139.834 879.303 131.477 878.122 123.675 876.935ZM146.665 826.749C151.083 816.712 157.791 807.722 165.724 800.135C169.809 796.229 174.273 792.766 178.979 789.631C173.528 799.085 168.314 808.676 162.728 818.05C159.864 822.854 156.84 827.567 153.513 832.073C150.323 836.392 146.881 840.591 144.278 845.301C142.632 848.277 141.331 851.542 140.695 854.907C140.75 845.235 142.744 835.656 146.665 826.749V826.749ZM114.478 848.958C105.812 844.654 97.9728 839.131 91.0039 832.455C87.8355 829.42 85.1015 826.098 82.3611 822.733C85.2158 824.755 88.1108 826.636 91.3094 828.21C95.6449 830.345 100.155 832.104 104.619 833.955C109.043 835.79 113.447 837.703 117.57 840.145C121.853 842.684 125.835 845.719 129.44 849.136C132.968 852.482 136.085 856.22 138.836 860.214C131.626 854.925 122.43 852.907 114.478 848.958V848.958ZM87.7193 798.915C84.946 795.083 82.6593 791.006 80.4175 786.867C83.6481 789.228 87.0598 791.356 90.5438 793.32C94.6562 795.639 98.8499 797.841 102.745 800.514C110.376 805.752 116.787 812.489 122.577 819.631C125.536 823.282 128.377 827.034 131.14 830.836C113.872 824.768 98.4191 813.699 87.7193 798.915V798.915ZM114.248 796.315C109.123 788.456 103.925 780.457 100.786 771.575C99.2597 767.256 98.2554 762.78 97.9252 758.224C99.6933 761.591 101.576 764.898 103.704 768.056C106.201 771.76 108.982 775.268 111.502 778.959C116.477 786.24 120.877 793.928 124.639 801.893C126.663 806.179 128.707 810.488 130.307 814.949C123.533 810.131 118.72 803.173 114.248 796.315ZM112.351 749.864C112.01 746.39 112.073 742.971 112.215 739.514C114.67 745.946 117.422 752.24 119.977 758.638C121.372 762.132 122.574 765.679 123.526 769.317C124.421 772.739 125.18 776.197 126.157 779.598C127.047 782.695 128.157 785.723 129.688 788.555C119.954 777.919 113.758 764.157 112.351 749.864V749.864ZM146.313 733.13C150.423 726.058 155.521 719.606 161.114 713.631C163.837 710.72 166.693 707.941 169.601 705.214C167.821 714.24 162.566 722.223 157.346 729.675C154.446 733.816 151.411 737.862 148.253 741.812C145.405 745.376 142.481 748.891 139.926 752.672C138.807 754.328 137.748 756.078 136.823 757.895C137.708 754.228 138.709 750.596 139.827 747.006C141.591 742.21 143.742 737.554 146.313 733.13V733.13ZM125.044 747.717C122.543 740.466 121.034 732.99 120.926 725.314C120.87 721.386 121.226 717.531 121.647 713.65C122.716 716.584 123.654 719.577 124.616 722.543C125.778 726.123 126.894 729.716 127.911 733.339C129.976 740.692 131.571 748.22 132.346 755.819C132.704 759.322 132.906 762.854 132.937 766.379C130.072 760.261 127.248 754.103 125.044 747.717V747.717ZM169.77 737.891C173.34 735.914 177.041 734.023 180.951 732.784C175.842 738.036 170.667 743.135 164.898 747.709C158.714 752.61 152.112 756.994 145.182 760.791C142.039 762.511 138.666 763.99 135.613 765.905C145.281 754.735 156.794 745.079 169.77 737.891V737.891ZM147.464 772.073C153.458 766.788 160.078 762.168 167.112 758.344C170.628 756.432 174.269 754.873 177.922 753.276C175.913 756.101 173.602 758.779 171.289 761.328C168.594 764.301 165.718 767.118 162.683 769.75C156.675 774.962 150.062 779.519 143.02 783.249C139.636 785.041 136.137 786.655 132.533 787.975C137.126 782.319 141.977 776.912 147.464 772.073V772.073ZM165.131 780.713C168.678 778.568 172.337 776.614 176.065 774.795C167.192 787.716 155.655 798.855 142.442 807.381C139.277 809.424 136.013 811.318 132.673 813.068C140.296 799.514 151.798 788.78 165.131 780.713V780.713ZM153.96 865.231C154.543 858.491 155.486 851.752 157.194 845.194C160.337 833.128 166.114 821.71 175.595 813.327C180.741 808.777 186.661 805.187 192.554 801.664C188.203 813.467 183.711 825.227 178.329 836.612C175.557 842.476 172.578 848.251 169.257 853.829C165.927 859.419 162.162 864.655 158.352 869.926C156.468 872.533 154.535 875.36 153.218 878.375C153.422 873.992 153.581 869.605 153.96 865.231V865.231ZM215.131 818.268C203.77 825.533 193.003 833.848 183.849 843.751C174.766 853.577 167.343 865.013 162.947 877.65C161.197 882.679 159.94 887.872 159.303 893.147C158.99 894.15 158.738 895.175 158.562 896.219C156.57 893.016 154.682 889.751 152.893 886.432C152.817 880.75 155.904 875.65 159.128 871.095C162.705 866.039 166.252 861.018 169.397 855.679C175.938 844.577 181.204 832.834 186.114 820.953C188.911 814.184 191.556 807.355 194.239 800.542C194.452 800.001 193.889 799.471 193.366 799.791C187.659 803.279 181.959 806.817 176.798 811.079C171.942 815.091 167.794 819.743 164.463 825.074C157.464 836.276 154.305 849.399 153.01 862.389C152.369 868.826 152.002 875.347 152.035 881.836C151.855 882.579 151.729 883.332 151.654 884.094C147.521 876.135 143.973 867.88 141.05 859.411C141.619 849.291 148.571 840.999 154.412 833.118C160.84 824.446 166.039 814.993 171.263 805.584C174.421 799.896 177.537 794.189 180.616 788.459C180.818 788.084 180.34 787.719 180.002 787.931C170.545 793.883 161.769 801.341 154.993 810.219C148.058 819.302 143.007 829.842 140.783 841.045C139.871 845.639 139.439 850.296 139.576 854.953C139.431 854.495 139.278 854.039 139.137 853.58C135.24 840.885 132.847 827.788 131.92 814.582C146.51 807.385 159.506 797.185 169.952 784.785C172.964 781.212 175.746 777.458 178.319 773.563C178.591 773.152 178.034 772.543 177.591 772.752C162.355 779.927 147.97 789.55 137.82 803.114C135.529 806.177 133.52 809.455 131.82 812.878C131.346 805.065 131.386 797.219 131.927 789.399C139.135 786.483 146.09 783.162 152.602 778.889C159.409 774.421 165.649 769.104 171.176 763.15C174.338 759.745 177.054 756.081 179.84 752.382C180.147 751.973 179.791 751.361 179.263 751.534C175.46 752.772 171.781 754.589 168.24 756.426C164.605 758.31 161.082 760.406 157.693 762.696C150.993 767.224 144.745 772.541 139.319 778.518C136.693 781.411 134.234 784.455 132.047 787.686C132.148 786.415 132.259 785.145 132.386 783.876C132.921 778.55 133.683 773.22 134.661 767.926C137.779 765.753 141.361 764.314 144.712 762.538C148.229 760.675 151.65 758.616 154.981 756.44C161.585 752.125 167.815 747.252 173.598 741.904C176.936 738.816 180.216 735.593 183.1 732.079C183.435 731.67 183.035 731.096 182.531 731.241C174.67 733.507 167.398 737.813 160.661 742.344C154.105 746.753 147.967 751.789 142.429 757.404C139.829 760.041 137.399 762.818 135.091 765.701C135.19 765.203 135.306 764.707 135.408 764.209C136.749 760.467 138.556 757.011 140.79 753.661C143.324 749.866 146.235 746.338 149.076 742.768C155.162 735.116 161.191 727.111 165.812 718.485C168.3 713.841 170.217 708.882 171.079 703.678C171.181 703.057 170.457 702.795 170.038 703.18C158.032 714.182 146.97 727.063 140.693 742.188C139.218 745.744 138.08 749.346 137.332 753.09C136.088 757.207 134.973 761.356 134.035 765.547C134.015 751.362 130.189 737.382 125.934 723.933C124.605 719.735 123.063 715.587 121.853 711.354C121.715 710.87 120.977 710.95 120.89 711.422C119.471 719.162 119.451 727.453 120.738 735.205C121.981 742.687 124.537 749.871 127.539 756.821C129.227 760.731 131.086 764.567 132.941 768.401C132.94 768.495 132.943 768.588 132.942 768.682C132.937 768.944 133.092 769.087 133.281 769.128C132.593 772.552 132 776.001 131.537 779.482C131.144 782.419 130.835 785.367 130.593 788.321C127.383 782.617 126.059 776.128 124.396 769.851C122.506 762.712 119.582 755.982 116.694 749.199C115.041 745.315 113.335 741.372 112.286 737.276C112.179 736.855 111.506 736.922 111.445 737.336C110.364 744.66 111.301 752.549 113.081 759.689C114.918 767.06 118.01 774.13 122.2 780.488C124.55 784.058 127.331 787.355 130.365 790.371C130.388 790.395 130.413 790.403 130.435 790.418C129.933 797.584 129.856 804.78 130.216 811.954C129.018 808.871 127.82 805.793 126.405 802.798C124.55 798.868 122.544 795.009 120.389 791.233C118.225 787.442 115.897 783.742 113.433 780.137C110.882 776.405 108.098 772.849 105.453 769.184C102.356 764.893 100.071 760.228 97.7185 755.512C97.4596 754.993 96.7297 755.373 96.7343 755.846C96.8358 765.359 100.403 774.449 104.921 782.713C107.278 787.021 109.928 791.161 112.609 795.277C114.99 798.931 117.389 802.583 120.108 806C123.062 809.713 126.462 813.085 130.436 815.722C130.775 820.467 131.319 825.202 132.037 829.912C126.828 823.075 121.685 816.176 115.601 810.06C112.349 806.79 108.863 803.708 105.066 801.069C101.293 798.447 97.2291 796.319 93.1698 794.172C88.3669 791.634 83.5109 789.095 79.5586 785.326C79.2961 785.076 78.8259 785.387 78.9622 785.724C80.7321 790.085 83.252 794.177 85.9293 798.041C88.6257 801.934 91.6405 805.608 94.9287 809.024C101.59 815.952 109.336 821.932 117.891 826.389C122.388 828.732 127.13 830.578 131.998 832.014C132.029 832.056 132.059 832.097 132.09 832.14C132.182 832.268 132.299 832.333 132.419 832.371C133.876 841.109 135.97 849.749 138.7 858.186C133.844 851.479 127.751 845.658 120.791 841.119C112.575 835.758 103.248 832.995 94.3379 829.059C89.3721 826.866 83.8502 824.255 80.2254 820.118C79.8531 819.692 79.1744 820.104 79.4754 820.614C81.88 824.692 85.1747 828.377 88.4382 831.8C91.7942 835.32 95.4574 838.522 99.3759 841.417C103.142 844.198 107.125 846.697 111.279 848.868C115.684 851.171 120.314 852.91 124.997 854.569C130.07 856.367 135.225 858.223 139.624 861.362C139.713 861.495 139.809 861.624 139.897 861.757C142.289 868.65 145.101 875.396 148.327 881.933C148.923 883.139 149.537 884.335 150.158 885.529C136.045 871.009 117.734 858.658 97.1002 856.487C90.6563 855.809 83.9902 856.098 77.5628 856.843C77.0871 856.899 76.7679 857.562 77.2125 857.886C85.5378 863.961 94.4577 869.322 104.154 872.952C109.027 874.776 114.065 876.161 119.183 877.117C124.918 878.19 130.757 878.752 136.401 880.272C139.118 881.003 141.75 882.044 144.201 883.42C145.69 884.256 147.092 885.242 148.411 886.319C149.739 887.401 151.197 888.386 152.281 889.724C153.322 891.01 153.943 892.554 154.762 893.974C155.652 895.52 156.654 897.019 157.607 898.53C157.673 898.634 157.74 898.737 157.807 898.839C153.202 898.246 149.097 896.017 145.006 893.949C140.807 891.826 136.451 890.074 131.939 888.718C122.758 885.958 113.176 884.769 103.635 884.065C98.196 883.664 92.7482 883.397 87.3095 883.004C86.6738 882.958 86.3921 883.724 86.9629 884.058C95.5791 889.089 104.836 893.385 114.236 896.759C123.362 900.036 132.887 902.309 142.611 902.731C148.088 902.969 153.82 902.839 158.852 900.448C160.139 902.434 161.454 904.403 162.819 906.336C164.672 908.957 166.526 911.572 168.845 913.812C169.43 914.376 170.253 913.552 169.876 912.911C168.417 910.436 166.653 908.183 164.981 905.847C163.387 903.619 161.845 901.355 160.356 899.059C160.166 898.766 159.985 898.468 159.797 898.174C159.913 896.696 160.068 895.226 160.267 893.763C161.661 889.45 164.311 885.519 167.295 882.12C171.724 877.075 176.904 872.72 181.571 867.897C190.484 858.689 198.451 848.599 205.356 837.833C209.26 831.745 212.75 825.445 215.944 818.965C216.188 818.469 215.588 817.976 215.131 818.268" fill="#1C6467"/>
<path d="M647.836 92.1951C637.475 98.2731 626.156 102.207 614.16 103.358C602.269 104.499 590.11 103.07 578.877 98.9756C567.714 94.906 558.278 87.8428 548.412 81.4301C538.556 75.0232 528.282 69.842 516.306 69.3386C502.891 68.7758 489.688 72.7685 476.27 71.8148C464.561 70.9833 453.414 65.6004 445.501 56.9529C438.552 49.3608 435.143 38.4115 426.24 32.6434C421.128 29.3317 414.982 28.9863 409.067 29.4937C402.73 30.0375 396.452 31.1657 390.125 31.8219C378.035 33.0749 365.384 32.2724 355.931 23.7802C348.03 16.6824 343.741 6.2992 341.149 -3.7674C340.467 -6.41711 339.925 -9.10238 339.456 -11.7976C339.407 -12.0794 338.958 -12.0629 339.003 -11.7736C340.628 -1.45077 343.348 9.14395 349.279 17.9097C352.116 22.1024 355.693 25.7853 359.996 28.4929C365.05 31.6748 370.903 33.2154 376.824 33.6782C383.071 34.1667 389.356 33.5675 395.548 32.7369C402.023 31.8674 408.623 30.4285 415.183 30.6814C421.535 30.9269 426.789 33.608 430.894 38.3776C434.457 42.515 437.028 47.383 440.05 51.9022C446.268 61.1994 455.415 68.1683 466.185 71.4048C479.014 75.2596 492.205 72.4223 505.189 71.1569C512 70.4924 518.915 70.3279 525.614 71.9247C531.422 73.3082 536.86 75.8712 542.002 78.8515C552.304 84.822 561.546 92.5497 572.392 97.5937C593.789 107.545 619.662 107.403 641.074 97.5615C643.694 96.3573 646.213 95.0068 648.653 93.4687C649.481 92.9464 648.674 91.7034 647.836 92.1951" fill="#FBBE2B"/>
<path d="M639.202 72.1287C626.872 73.9834 614.509 76.3463 601.984 75.1902C590.84 74.1622 580.533 70.4029 571.987 63.0714C568.154 59.7812 564.597 56.1483 560.406 53.2947C556.121 50.3788 551.351 48.6887 546.164 48.4118C534.695 47.8013 523.956 53.0078 512.907 55.1652C502.846 57.1297 491.709 57.286 482.37 52.5104C472.983 47.7106 468.08 38.2758 461.248 30.7289C457.862 26.9871 453.898 23.9164 449.251 21.9087C444.757 19.9666 439.914 19.0118 435.049 18.6584C424.406 17.884 413.983 20.0273 403.509 21.5502C392.345 23.1737 380.333 24.195 369.729 19.5059C360.557 15.4488 353.598 7.10765 350.708 -2.46028C349.984 -4.85809 349.559 -7.30911 349.414 -9.80921C349.399 -10.0779 348.989 -10.0554 349 -9.78842C349.368 -0.161441 353.679 8.97901 360.971 15.2883C369.196 22.4077 380.031 24.4612 390.63 24.1227C401.826 23.7642 412.759 21.0337 423.907 20.1771C434.377 19.372 445.715 20.1022 454.562 26.3824C463.036 32.3973 467.526 42.273 475.225 49.0855C482.869 55.8497 493.105 58.1045 503.084 57.7227C508.203 57.5273 513.294 56.6822 518.255 55.4247C524.07 53.9493 529.777 52.0247 535.666 50.852C541.738 49.6444 548.169 49.2942 554.05 51.5515C558.929 53.4245 562.956 56.8519 566.816 60.2844C570.742 63.775 574.612 67.3106 579.203 69.9205C583.918 72.6019 589.114 74.4092 594.41 75.527C606.267 78.0288 618.483 76.9567 630.359 75.1727C633.409 74.7144 636.445 74.2029 639.476 73.6374C640.332 73.4777 640.068 71.9981 639.202 72.1287" fill="#FBBE2B"/>
<path d="M427.57 726.063C429.327 721.887 433.941 718.338 438.722 719.496C442.729 720.467 445.065 724.43 445.558 728.227C446.609 736.337 439.778 742.078 433.184 745.917C428.326 740.232 424.677 732.936 427.57 726.063V726.063ZM634.509 746.62C595.628 747.277 561.026 767.662 522.93 772.586C503.12 775.146 482.777 772.76 464.182 765.535C455.307 762.088 446.428 757.762 439.086 751.696C437.502 750.389 435.834 748.838 434.248 747.112C434.294 747.085 434.34 747.061 434.385 747.035C440.914 743.131 447.802 736.928 446.974 728.697C446.332 722.307 440.85 716.243 433.864 718.47C425.208 721.232 423.901 731.214 426.882 738.487C428.103 741.465 429.814 744.184 431.844 746.674C431.377 746.931 430.915 747.177 430.459 747.415C413.515 756.241 394.292 759.224 375.446 761.236C356.901 763.215 338.15 764.323 320.024 768.936C303.69 773.093 288.133 779.948 273.812 788.68C244.529 806.534 220.402 831.857 201.001 859.635C198.645 863.008 196.356 866.427 194.126 869.884C193.564 870.756 195.034 871.478 195.591 870.604C215.03 840.131 239.708 812.023 270.486 792.169C285.626 782.402 302.209 774.8 319.753 770.289C339.188 765.292 359.376 764.548 379.254 762.381C397.638 760.377 416.657 757.106 432.877 747.89C436.396 751.871 440.719 755.231 445.142 758.054C461.903 768.752 482.049 774.537 501.943 775.431C543.277 777.288 579.595 754.858 619.569 748.886C624.535 748.144 629.538 747.699 634.559 747.565C635.18 747.548 635.128 746.609 634.509 746.62" fill="#1C6467"/>
<path d="M223.715 9.23937C210.135 26.7008 191.784 39.7513 170.267 45.4955C164.777 46.9612 159.178 47.8783 153.516 48.3373C146.878 48.8744 140.206 48.9171 133.581 49.6236C122.565 50.799 112.451 54.3571 103.153 60.3629C84.7383 72.2586 71.3305 90.1461 55.4795 104.964C38.2538 121.067 18.2049 134.903 -4.49796 142.007C-26.7105 148.957 -51.7597 148.974 -73.2245 139.421C-75.8185 138.267 -78.3365 136.963 -80.7844 135.527C-80.9569 135.426 -81.0906 135.699 -80.9231 135.802C-61.0274 148.074 -36.7684 150.47 -14.1456 145.732C9.03606 140.876 29.9767 128.481 47.8805 113.346C56.6949 105.895 64.7032 97.6455 72.6488 89.2973C80.2634 81.2969 87.9334 73.2529 96.6519 66.4238C105.193 59.7337 114.825 54.3052 125.518 51.9875C138.341 49.2083 151.655 50.8039 164.56 48.4721C185.954 44.6072 206.416 33.0768 220.314 16.335C221.971 14.3405 223.46 12.1979 224.897 10.0429C225.345 9.37179 224.212 8.59948 223.715 9.23937" fill="#047B57"/>
<path d="M207.788 76.3183C209.785 78.796 209.26 82.2293 206.616 83.9861C203.971 85.7429 200.209 85.1588 198.212 82.6817C196.215 80.204 196.74 76.7707 199.384 75.0139C202.029 73.2571 205.791 73.8412 207.788 76.3183Z" fill="#FBBE2B"/>
<path d="M225 64.5C225 67.5378 222.537 70 219.5 70C216.463 70 214 67.5378 214 64.5C214 61.4623 216.463 59 219.5 59C222.537 59 225 61.4623 225 64.5Z" fill="#FBBE2B"/>
<path d="M223.64 98.268C221.639 100.814 218.164 100.519 215.879 97.6096C213.592 94.7002 213.361 90.2775 215.361 87.732C217.361 85.1864 220.836 85.481 223.122 88.3904C225.408 91.2998 225.639 95.7216 223.64 98.268Z" fill="#FBBE2B"/>
<path d="M234.868 79.1243C235.463 81.0745 233.99 83.4957 231.578 84.5321C229.166 85.5677 226.728 84.8268 226.132 82.8766C225.536 80.9255 227.009 78.5043 229.421 77.4679C231.833 76.4323 234.272 77.1732 234.868 79.1243Z" fill="#FBBE2B"/>
<path d="M188.882 72.5928C189.412 74.0564 188.103 75.8719 185.958 76.649C183.814 77.426 181.647 76.8698 181.117 75.4072C180.588 73.9446 181.898 72.1281 184.041 71.351C186.185 70.574 188.353 71.1302 188.882 72.5928Z" fill="#FBBE2B"/>
<path d="M204.967 50.6769C203.596 51.4868 201.379 50.7215 200.017 48.9671C198.655 47.2134 198.662 45.1338 200.033 44.3231C201.404 43.5132 203.621 44.2785 204.983 46.0321C206.345 47.7866 206.338 49.8662 204.967 50.6769Z" fill="#FBBE2B"/>
<path d="M248.171 79.9275C247.576 78.7946 248.584 77.2363 250.424 76.4483C252.263 75.6595 254.235 75.9388 254.829 77.0725C255.424 78.2054 254.416 79.7637 252.576 80.5517C250.738 81.3405 248.766 81.0612 248.171 79.9275Z" fill="#FBBE2B"/>
<path d="M224.171 112.142C223.576 111.236 224.584 109.989 226.424 109.359C228.263 108.728 230.235 108.951 230.829 109.858C231.424 110.765 230.416 112.011 228.576 112.642C226.738 113.272 224.766 113.049 224.171 112.142Z" fill="#FBBE2B"/>
<path d="M183.621 104.907C182.387 105.347 180.885 104.177 180.266 102.296C179.647 100.413 180.145 98.5312 181.379 98.0923C182.612 97.6533 184.114 98.8227 184.734 100.705C185.353 102.586 184.855 104.469 183.621 104.907Z" fill="#FBBE2B"/>
<path d="M207 65.0004C207 66.6575 204.761 68 202 68C199.239 68 197 66.6575 197 65.0004C197 63.3434 199.239 62 202 62C204.761 62 207 63.3434 207 65.0004Z" fill="#FBBE2B"/>
<path d="M238.381 99.3817C237.203 100.561 234.732 100.003 232.865 98.1355C230.997 96.2687 230.439 93.7978 231.618 92.6183C232.798 91.4389 235.268 91.997 237.136 93.8645C239.004 95.7321 239.561 98.2022 238.381 99.3817" fill="#FBBE2B"/>
<path d="M239.475 62.5346C240.568 59.3317 239.898 56.048 237.978 55.2009C236.059 54.3538 233.617 56.2634 232.524 59.4653C231.432 62.6682 232.102 65.9519 234.022 66.799C235.941 67.6462 238.383 65.7375 239.475 62.5346" fill="#FBBE2B"/>
<path d="M205.411 100.906C206.639 97.9713 205.885 94.9615 203.726 94.1841C201.566 93.4077 198.819 95.158 197.59 98.0938C196.361 101.03 197.115 104.039 199.274 104.816C201.434 105.592 204.181 103.842 205.411 100.906" fill="#FBBE2B"/>
<path d="M413.182 822.215C416.177 826.72 415.39 832.962 411.423 836.157C407.457 839.351 401.813 838.289 398.819 833.785C395.823 829.28 396.61 823.039 400.576 819.844C404.543 816.649 410.186 817.711 413.182 822.215Z" fill="#047B57"/>
<path d="M441 805C441 809.971 436.523 814 430.999 814C425.477 814 421 809.971 421 805C421 800.029 425.477 796 430.999 796C436.523 796 441 800.029 441 805Z" fill="#047B57"/>
<path d="M438.526 856.402C434.89 860.22 428.572 859.778 424.415 855.415C420.259 851.05 419.837 844.417 423.475 840.598C427.111 836.779 433.429 837.222 437.585 841.586C441.741 845.95 442.162 852.584 438.526 856.402Z" fill="#047B57"/>
<path d="M456.765 827.452C457.824 830.62 455.206 834.556 450.917 836.239C446.629 837.923 442.294 836.718 441.235 833.549C440.176 830.379 442.794 826.443 447.083 824.761C451.371 823.077 455.706 824.282 456.765 827.452Z" fill="#047B57"/>
<path d="M383.853 818.859C384.515 820.565 382.879 822.684 380.198 823.59C377.518 824.497 374.808 823.848 374.147 822.142C373.485 820.435 375.121 818.317 377.802 817.41C380.482 816.503 383.191 817.152 383.853 818.859" fill="#047B57"/>
<path d="M406.966 781.539C405.596 782.695 403.38 781.602 402.017 779.096C400.655 776.589 400.662 773.619 402.033 772.461C403.405 771.305 405.621 772.398 406.983 774.904C408.346 777.41 408.338 780.381 406.966 781.539" fill="#047B57"/>
<path d="M439.794 778.855C437.82 779.545 435.417 777.707 434.426 774.75C433.435 771.792 434.232 768.836 436.206 768.145C438.18 767.455 440.583 769.294 441.574 772.25C442.565 775.208 441.768 778.165 439.794 778.855Z" fill="#047B57"/>
<path d="M474.269 829.498C473.333 827.912 474.918 825.732 477.807 824.627C480.697 823.523 483.798 823.915 484.731 825.501C485.667 827.089 484.082 829.269 481.193 830.373C478.303 831.477 475.202 831.085 474.269 829.498Z" fill="#047B57"/>
<path d="M410 805.501C410 807.986 407.09 810 403.5 810C399.909 810 397 807.986 397 805.501C397 803.015 399.909 801 403.5 801C407.09 801 410 803.015 410 805.501Z" fill="#047B57"/>
<path d="M462.148 801.418C463.923 797.414 462.834 793.311 459.715 792.251C456.595 791.192 452.627 793.578 450.852 797.582C449.076 801.585 450.167 805.689 453.286 806.749C456.405 807.808 460.372 805.422 462.148 801.418" fill="#047B57"/>
<path d="M62.8459 709.419C73.7508 719.064 91.4322 721.156 103.319 712.724C111.875 706.654 116.501 696.265 117.681 685.913C119.099 673.472 115.808 660.299 107.559 650.807C99.3101 641.313 85.907 636.048 73.5359 638.673C61.4626 641.235 50.7183 652.618 48.6303 664.597C46.0681 679.292 51.4182 699.314 62.8459 709.419Z" fill="#047B57"/>
</g>
<defs>
<clipPath id="clip0_807:2646">
<rect width="580" height="896" fill="white"/>
</clipPath>
</defs>
</svg>
