<svg width="414" height="896" viewBox="0 0 414 896" fill="none" xmlns="http://www.w3.org/2000/svg">
<g clip-path="url(#clip0_805:2562)">
<rect width="414" height="896" fill="white"/>
<rect width="595" height="896" transform="translate(-74)" fill="#E0F6F6"/>
<path d="M-71.3385 259.889C-51.7183 253.456 -35.8182 238.714 -23.5284 222.172C-11.2388 205.63 -1.99523 187.083 8.723 169.49C19.4409 151.895 32.031 134.856 49.1603 123.355C68.7155 110.224 92.5249 105.357 114.302 96.3453C136.08 87.3336 157.758 71.5585 162.209 48.4847C166.305 27.2558 154.007 5.39105 136.475 -7.3425C118.944 -20.0769 97.063 -25.2321 75.5984 -28.3718C21.8872 -36.2264 -35.5787 -32.5317 -82.4812 -5.29554C-124.813 19.2858 -155.682 62.645 -164.978 110.579C-167.714 124.69 -168.568 139.149 -167.638 153.486C-166.709 167.831 -163.998 182.061 -159.611 195.754C-155.225 209.442 -149.159 222.601 -141.518 234.789C-138.541 239.537 -135.487 244.993 -130.798 248.287C-128.997 249.553 -127.014 250.552 -125.138 251.699C-122.276 253.447 -119.596 255.445 -116.612 256.994C-104.334 263.367 -89.581 264.453 -76.223 261.269C-74.5767 260.875 -72.9466 260.417 -71.3385 259.889Z" fill="#1C6467"/>
<path d="M205.191 813.978C235.203 795.754 273.353 785.432 305.452 799.675C320.019 806.137 332.928 817.418 348.772 819.152C377.223 822.262 403.89 793.439 431.268 801.773C445.96 806.246 456.112 820.557 470.886 824.752C485.688 828.955 501.083 822.084 515.288 816.173C529.313 810.336 544.054 805.232 559.245 805.451C574.437 805.668 590.287 812.103 598.318 824.984C605.454 836.428 605.385 851.303 600.793 863.981C593.205 884.927 574.557 900.381 554.065 909.172C533.573 917.962 511.134 920.963 489.008 923.757C381.805 937.294 271.797 947.869 166.659 922.954C154.442 920.058 141.872 916.451 132.443 908.167C125.858 902.382 121.254 893.826 121.014 884.982C120.935 882.043 121.13 878.908 123.053 876.531C125.101 874 128.27 872.283 130.864 870.382C138.905 864.492 146.681 858.253 154.41 851.964C162.178 845.643 169.903 839.266 177.818 833.127C185.712 827.005 193.8 821.114 202.26 815.79C203.232 815.178 204.208 814.574 205.191 813.978" fill="#1C6467"/>
<path d="M275.83 74.1533C283.84 100.622 303.277 122.789 326.879 137.108C350.48 151.428 378.004 158.351 405.514 160.397C440.231 162.982 476.659 157.56 505.612 138.176C534.566 118.792 554.383 83.6159 549.166 49.1009C544.648 19.2095 522.388 -5.84364 495.743 -19.9904C459.39 -39.291 413.054 -43.2793 372.626 -39.9379C350.894 -38.1413 329.11 -32.4889 310.813 -20.5926C289.509 -6.74154 274.026 16.0379 272.222 41.7869C271.542 51.4749 272.428 61.2805 274.857 70.6826C275.156 71.8464 275.481 73.0036 275.83 74.1533" fill="#047B57"/>
<path d="M-93.5201 887.727C-81.2956 906.46 -61.1663 919.249 -39.5777 924.996C-17.9895 930.744 4.9696 929.852 26.8141 925.178C54.3822 919.28 81.466 906.775 99.5757 885.128C117.685 863.48 125.115 831.648 113.241 806.031C102.955 783.843 79.9771 769.456 56.0629 764.535C23.4361 757.823 -13.4804 765.277 -44.1437 777.078C-60.627 783.421 -76.2767 792.772 -87.8006 806.177C-101.219 821.785 -108.09 843.002 -103.658 863.411C-101.991 871.09 -99.0812 878.504 -95.0621 885.253C-94.565 886.088 -94.0512 886.913 -93.5201 887.727" fill="#FBBE2B"/>
<path d="M42.3904 143.19C60.867 126.872 84.3217 116.716 108.522 114.239C111.343 113.95 114.25 113.771 116.962 114.625C119.675 115.479 122.185 117.57 122.83 120.42C123.552 123.604 121.856 126.818 119.962 129.44C114.938 136.396 108.168 141.77 101.34 146.831C96.304 150.563 91.187 154.178 86.0053 157.69C80.8245 161.202 75.5799 164.614 70.2871 167.943C64.9919 171.276 59.6484 174.527 54.2714 177.717C48.8903 180.909 43.4758 184.041 38.0408 187.133C32.6417 190.204 27.2655 193.367 21.7758 196.261C18.7059 197.88 14.2451 198.796 11.0274 197.071C6.97351 194.898 10.0387 189.775 11.3119 186.732C13.4678 181.578 15.98 176.583 18.8156 171.792C21.6532 166.998 24.8145 162.409 28.2692 158.07C31.7247 153.731 35.4736 149.64 39.4849 145.845C40.4387 144.944 41.4072 144.058 42.3904 143.19" fill="#FBBE2B"/>
<path d="M494.759 568.13C486.163 558.093 476.931 548.499 466.832 539.96C466.892 539.647 466.915 539.315 466.962 539.021C467.168 537.712 467.354 536.4 467.545 535.089C468.259 530.158 469.003 525.233 469.611 520.289C470.084 520.626 470.55 520.976 470.995 521.357C473.24 523.273 475.04 525.626 476.537 528.157C479.734 533.564 481.652 539.621 484.001 545.416C486.708 552.094 489.617 558.761 493.126 565.06C493.707 566.103 494.302 567.139 494.892 568.176C494.847 568.162 494.804 568.143 494.759 568.13V568.13ZM473.591 551.154C470.064 547.666 466.206 544.406 461.639 542.367C461.398 542.259 461.151 542.174 460.908 542.073C461.459 541.983 462.006 541.874 462.555 541.76C463.237 541.619 463.919 541.476 464.601 541.335C465.082 541.235 465.693 541.209 466.139 541.007C466.295 540.936 466.411 540.835 466.507 540.72C466.969 541.119 467.443 541.505 467.9 541.909C476.825 549.79 485.056 558.364 492.783 567.409C485.016 564.192 479.447 556.944 473.591 551.154V551.154ZM444.086 539.06C437.826 538.874 431.54 539.252 425.293 538.694C425.239 538.689 425.187 538.68 425.134 538.674C433.168 534.778 441.387 531.084 449.799 528.089C455.398 531.741 460.745 535.799 465.847 540.158C465.157 540.802 463.288 540.823 462.519 540.963C461.57 541.135 460.627 541.317 459.707 541.589C454.725 539.763 449.372 539.216 444.086 539.06V539.06ZM406.337 534.071C404.007 533.363 401.652 532.704 399.262 532.225C401.247 531.101 403.171 529.86 405.123 528.687C407.528 527.244 409.949 525.827 412.37 524.412C417.227 521.574 422.129 518.819 427.06 516.113C434.797 519.257 442.195 523.177 449.222 527.712C440.821 531.123 432.485 534.593 424.337 538.581C418.134 537.882 412.293 535.883 406.337 534.071ZM396.908 531.817C393.502 531.328 390.055 531.335 386.627 531.527C380.04 531.893 373.413 532.917 366.83 531.968C364.715 531.662 362.626 531.155 360.641 530.372C366.674 526.703 372.535 522.746 378.539 519.028C381.559 517.158 384.594 515.31 387.642 513.486C390.6 511.716 393.543 509.848 396.59 508.23C400.041 508.651 403.476 509.202 406.876 509.913C413.516 511.304 419.952 513.293 426.179 515.767C426.15 515.789 426.127 515.808 426.093 515.83C424.686 516.763 423.074 517.479 421.597 518.301C420.042 519.165 418.492 520.036 416.946 520.914C413.854 522.672 410.781 524.463 407.732 526.295C404.621 528.162 401.403 529.975 398.435 532.082C397.927 531.99 397.419 531.89 396.908 531.817ZM358.317 529.299C355.655 527.859 353.606 525.778 351.615 523.541C350.784 522.61 349.947 521.666 349.055 520.782C353.221 516.503 357.69 512.494 362.468 508.905C365.069 508.479 367.682 508.122 370.306 507.867C378.697 507.056 387.176 507.162 395.558 508.113C392.907 509.755 390.165 511.27 387.497 512.878C384.397 514.747 381.309 516.64 378.238 518.557C372.201 522.325 366.086 526.069 360.325 530.25C359.641 529.968 358.97 529.652 358.317 529.299V529.299ZM345.606 518.04C343.21 516.647 340.291 516.109 337.546 516.423C337.462 516.432 337.381 516.452 337.297 516.463C339.374 515.44 341.477 514.474 343.653 513.666C346.473 512.62 349.368 511.771 352.28 511.023C355.279 510.254 358.307 509.607 361.357 509.078C356.902 512.601 352.648 516.344 348.688 520.423C347.746 519.523 346.738 518.699 345.606 518.04V518.04ZM357.755 500.661C359.202 503.161 360.69 505.64 362.284 508.049C359.447 508.5 356.625 509.045 353.826 509.698C348.244 511.003 342.315 512.619 337.265 515.539C343.334 509.633 350.347 504.783 357.755 500.661ZM366.269 496.286C372.775 493.21 379.513 490.422 386.797 490.121C387.092 490.11 387.385 490.119 387.679 490.113C389.152 493.069 390.633 496.021 392.098 498.981C393.485 501.786 394.72 504.746 396.307 507.45C388.941 506.544 381.48 506.295 374.012 506.757C370.295 506.987 366.589 507.388 362.909 507.952C361.362 505.424 359.807 502.902 358.318 500.339C360.929 498.904 363.586 497.556 366.269 496.286V496.286ZM409.466 492.782C413.772 493.509 418.077 494.243 422.381 494.974C423.22 498.422 424.025 501.88 424.754 505.353C425.141 507.198 425.517 509.047 425.846 510.905C425.989 511.712 426.126 512.52 426.261 513.329C426.328 513.734 426.394 514.138 426.459 514.543C426.5 514.796 426.543 514.985 426.55 515.143C417.088 511.415 407.203 508.859 397.127 507.549C395.919 504.546 394.22 501.69 392.759 498.804C391.292 495.911 389.848 493.006 388.395 490.106C395.468 490.066 402.53 491.612 409.466 492.782V492.782ZM431.636 496.544C435.063 497.134 438.554 497.798 441.643 499.471C444.089 500.795 446.099 502.741 447.971 504.771C448.078 506.541 448.058 508.328 448.146 510.1C448.246 512.095 448.358 514.091 448.485 516.086C448.716 519.709 448.998 523.327 449.351 526.94C447.48 525.733 445.589 524.553 443.659 523.428C438.396 520.36 432.929 517.689 427.31 515.432C426.158 508.616 424.844 501.816 423.17 495.107C425.992 495.586 428.815 496.058 431.636 496.544V496.544ZM454.687 511.77C457.063 513.756 459.824 515.139 462.604 516.458C464.785 517.495 466.986 518.524 468.994 519.858C468.249 524.316 467.624 528.791 466.98 533.265C466.821 534.37 466.662 535.474 466.503 536.579C466.423 537.131 466.343 537.684 466.269 538.237C466.225 538.565 466.228 539.012 466.174 539.405C461.008 535.076 455.618 531.021 449.964 527.334C449.667 523.575 449.376 519.815 449.143 516.051C449.023 514.125 448.916 512.198 448.823 510.271C448.744 508.656 448.599 507.024 448.549 505.402C450.526 507.588 452.42 509.873 454.687 511.77V511.77ZM459.652 571.921C455.912 572.497 452.189 573.182 448.486 573.957C434.598 570.438 420.637 567.204 406.596 564.355C403.102 563.645 399.607 562.987 396.086 562.437C396.383 562.265 396.682 562.097 396.987 561.936C403.117 558.708 410.183 559.603 416.848 559.349C420.279 559.217 423.581 558.646 426.89 557.742C430.403 556.783 433.881 555.695 437.535 555.43C444.691 554.911 451.846 556.838 458.522 559.242C464.863 561.526 471.004 564.47 476.76 567.976C477.704 568.55 478.63 569.151 479.55 569.762C472.893 570.191 466.254 570.907 459.652 571.921V571.921ZM439.144 596.794C436.126 604.188 433.005 611.55 430.118 618.997C428.451 619.432 426.806 619.937 425.208 620.603C419.661 622.918 415.444 627.217 410.462 630.435C405.131 633.88 399.219 634.866 393.15 635.067C395.711 623.704 398.222 612.33 400.785 600.966C401.431 598.106 402.106 595.25 402.73 592.386C402.844 591.865 402.971 591.344 402.653 590.959C408.348 588.084 414.204 585.524 420.18 583.289C429.205 579.914 438.497 577.261 447.927 575.278C444.999 582.449 442.071 589.622 439.144 596.794V596.794ZM375.098 634.972C372.635 635.087 370.203 635.426 367.826 635.96C368.661 628.255 369.351 620.536 370.24 612.836C375.503 608.031 381.217 603.715 387.191 599.832C391.894 596.774 396.764 593.98 401.755 591.423C401.879 591.532 401.992 591.66 402.084 591.824C402.039 592.028 401.995 592.233 401.949 592.437C401.347 595.165 400.747 597.894 400.146 600.621C398.925 606.144 397.679 611.662 396.445 617.182C395.112 623.149 393.779 629.117 392.456 635.087C386.677 635.223 380.771 634.707 375.098 634.972V634.972ZM346.451 648.677C345.983 649.224 345.54 649.787 345.11 650.361C345.105 650.344 345.101 650.327 345.096 650.31C348.603 639.837 354.176 630.273 361.391 621.908C363.946 618.944 366.683 616.149 369.547 613.491C368.831 621.035 367.942 628.561 367.191 636.1C359.197 638.03 351.893 642.304 346.451 648.677V648.677ZM344.738 648.927C342.004 638.256 340.023 626.331 344.866 616.146C346.688 616.087 348.556 615.63 350.33 615.372C352.507 615.054 354.685 614.747 356.865 614.454C360.792 613.926 364.73 613.457 368.669 613.015C366.759 614.8 364.901 616.641 363.12 618.558C355.447 626.812 349.057 636.382 345.331 647.062C345.116 647.678 344.922 648.301 344.738 648.927ZM345.548 614.768C347.102 611.923 349.204 609.438 351.163 606.871C353.135 604.286 354.85 601.606 356.076 598.584C357.34 595.469 358.237 592.216 359.563 589.126C360.544 586.838 361.806 584.717 363.379 582.816C373.893 584.431 384.319 586.591 394.6 589.316C395.846 589.646 397.089 589.984 398.331 590.33C398.985 590.512 399.637 590.697 400.288 590.884C400.338 590.898 400.396 590.911 400.45 590.925C396.852 592.806 393.316 594.803 389.866 596.944C382.63 601.435 375.729 606.521 369.45 612.282C365.162 612.665 360.888 613.138 356.62 613.701C354.438 613.99 352.26 614.303 350.087 614.641C348.512 614.886 346.799 615.026 345.214 615.443C345.329 615.219 345.426 614.99 345.548 614.768V614.768ZM364.782 581.26C367.077 578.948 369.814 577.194 372.804 575.918C375.864 574.61 379.068 573.661 382.063 572.199C387.11 569.737 390.962 565.512 395.735 562.647C402.319 564.207 408.96 565.519 415.568 566.971C422.645 568.527 429.712 570.123 436.756 571.818C440.119 572.626 443.474 573.463 446.827 574.307C438.897 576.035 431.07 578.226 423.418 580.933C415.896 583.593 408.544 586.75 401.448 590.399C401.233 590.35 401.02 590.302 400.834 590.249C400.051 590.028 399.268 589.81 398.483 589.595C392.99 588.088 387.454 586.74 381.883 585.55C375.902 584.273 369.88 583.192 363.832 582.283C364.139 581.935 364.454 581.593 364.782 581.26V581.26ZM497.201 569.312C497.155 569.311 497.11 569.312 497.064 569.311C497.048 568.99 496.869 568.682 496.463 568.593C496.274 568.552 496.095 568.492 495.907 568.445C492.712 561.958 489.648 555.378 486.837 548.717C484.299 542.704 482.285 536.437 479.411 530.571C476.701 525.042 472.947 520.362 467.465 517.406C464.563 515.841 461.465 514.661 458.613 513.001C455.89 511.417 453.669 509.271 451.561 506.956C449.516 504.71 447.554 502.354 445.177 500.443C442.66 498.42 439.756 497.17 436.64 496.387C433.074 495.49 429.391 495.018 425.769 494.411C421.92 493.766 418.071 493.124 414.222 492.475C406.758 491.219 399.242 489.584 391.675 489.1C387.979 488.864 384.28 489.027 380.651 489.796C377.121 490.542 373.715 491.786 370.403 493.197C358.214 498.384 346.5 505.117 336.758 514.163C335.532 515.302 334.348 516.483 333.194 517.694C332.624 518.292 333.425 519.136 334.098 518.761C336.829 517.234 340.021 516.812 343.027 517.757C345.945 518.673 348.126 520.749 350.119 522.976C352.051 525.135 353.891 527.356 356.307 529.002C358.536 530.52 361.057 531.54 363.661 532.208C369.651 533.745 375.86 533.357 381.96 532.905C385.508 532.643 389.066 532.382 392.624 532.532C394.263 532.601 395.886 532.788 397.496 533.058C397.543 533.091 397.597 533.102 397.664 533.082C399.332 533.369 400.985 533.751 402.622 534.203C408.863 535.926 414.881 538.468 421.285 539.566C427.347 540.605 433.533 540.492 439.659 540.515C445.712 540.538 451.873 540.706 457.699 542.521C462.823 544.118 467.12 547.173 470.991 550.815C477.812 557.233 483.698 565.702 492.758 569.146C492.902 569.2 493.049 569.242 493.192 569.293C489.018 569.311 484.847 569.448 480.681 569.695C475.361 565.943 469.725 562.667 463.744 560.08C457.287 557.288 450.39 554.898 443.356 554.201C439.807 553.848 436.277 553.997 432.785 554.733C429.098 555.511 425.528 556.8 421.803 557.398C415.037 558.487 408.079 557.21 401.369 558.811C394.978 560.336 390.562 565.039 385.389 568.721C379.794 572.705 372.715 573.572 367.131 577.545C364.658 579.305 362.51 581.497 360.809 584.01C358.927 586.79 357.751 589.914 356.654 593.065C355.514 596.336 354.37 599.613 352.502 602.554C350.665 605.447 348.342 607.99 346.355 610.776C342.628 616.006 340.794 621.997 340.494 628.387C340.191 634.875 341.309 641.36 342.797 647.65C343.176 649.252 343.584 650.846 344.007 652.437C344.15 652.976 345.02 653.232 345.367 652.73C351.827 643.325 361.964 637.297 373.356 636.313C385.143 635.294 397.797 638.73 408.847 633.131C414.124 630.458 418.264 626.066 423.434 623.226C428.98 620.178 435.419 619.68 441.428 618.027C451.183 615.345 460.081 609.771 466.959 602.379C473.83 594.995 478.962 585.66 480.913 575.723C481.157 574.477 481.302 573.22 481.47 571.964C481.583 571.111 480.267 570.83 480.152 571.691C478.812 581.758 474.203 591.414 467.66 599.124C461.086 606.871 452.432 612.97 442.699 616.014C438.85 617.218 434.829 617.831 430.913 618.795C433.982 611.618 436.846 604.346 439.798 597.121C442.796 589.781 445.797 582.441 448.795 575.1C451.169 574.612 453.551 574.153 455.941 573.75C468.092 571.7 480.419 570.8 492.74 570.824C494.254 570.827 495.769 570.846 497.284 570.878C498.293 570.899 498.209 569.326 497.201 569.312Z" fill="#1C6467"/>
<path d="M-30.2717 354.803C-18.2274 357.853 -5.9362 360.213 6.44563 361.284C6.56923 361.56 6.73278 361.829 6.85694 362.081C7.41009 363.205 7.97989 364.322 8.54725 365.439C10.6783 369.64 12.7848 373.853 15.0053 378.006C14.4593 378.004 13.9121 377.988 13.3639 377.939C10.6024 377.685 7.94397 376.853 5.42028 375.716C0.0312579 373.289 -4.73151 369.657 -9.68076 366.465C-15.385 362.788 -21.2382 359.228 -27.3519 356.28C-28.3643 355.793 -29.3823 355.318 -30.3993 354.84C-30.3569 354.826 -30.3142 354.816 -30.2717 354.803V354.803ZM-4.81888 356.334C-0.219588 357.098 4.51067 357.507 9.11894 356.582C9.36174 356.534 9.59774 356.465 9.83837 356.41C9.46549 356.78 9.10533 357.165 8.74639 357.552C8.30043 358.035 7.85541 358.519 7.40945 359.001C7.0951 359.341 6.6405 359.696 6.40821 360.096C6.32702 360.237 6.29301 360.378 6.2812 360.519C5.71013 360.464 5.1378 360.425 4.56705 360.364C-6.55745 359.158 -17.5262 357.038 -28.3649 354.279C-20.6628 352.513 -12.4544 355.066 -4.81888 356.334V356.334ZM24.372 349.53C29.272 346.247 33.8855 342.514 38.9781 339.528C39.0215 339.502 39.0664 339.481 39.11 339.455C35.0682 346.864 30.7759 354.216 25.9533 361.135C19.678 361.378 13.3738 361.168 7.0932 360.592C7.27254 359.716 8.69405 358.678 9.20752 358.149C9.84116 357.495 10.4646 356.84 11.0226 356.125C15.8337 354.811 20.2342 352.304 24.372 349.53V349.53ZM56.0206 332.724C58.1922 331.996 60.356 331.217 62.4486 330.279C61.5369 332.233 60.7375 334.245 59.8769 336.221C58.8178 338.651 57.7332 341.071 56.6456 343.491C54.465 348.342 52.2036 353.153 49.8936 357.943C42.255 359.749 34.4538 360.768 26.6018 361.109C31.1884 353.877 35.6923 346.632 39.7725 339.091C44.907 336.237 50.4712 334.584 56.0206 332.724V332.724ZM64.4753 329.305C67.3511 327.819 69.9897 325.926 72.5137 323.903C77.3635 320.015 81.8869 315.595 87.4506 312.727C89.2372 311.805 91.1152 311.054 93.0622 310.572C90.4311 316.709 88.0882 322.975 85.5066 329.133C84.2075 332.232 82.8851 335.32 81.5394 338.399C80.234 341.385 78.9931 344.44 77.5373 347.358C74.6627 348.922 71.7302 350.376 68.7357 351.686C62.8903 354.247 56.8756 356.232 50.7576 357.728C50.7685 357.696 50.7753 357.668 50.789 357.632C51.3616 356.141 52.2067 354.706 52.8933 353.262C53.6158 351.745 54.3309 350.222 55.0388 348.697C56.4542 345.647 57.8361 342.581 59.1782 339.497C60.5481 336.351 62.0293 333.189 63.1597 329.937C63.6001 329.73 64.0423 329.528 64.4753 329.305V329.305ZM95.4266 310.13C98.2498 309.785 100.951 310.271 103.693 310.909C104.836 311.175 105.991 311.445 107.155 311.642C106.287 317.228 105.039 322.772 103.327 328.16C101.565 329.913 99.7561 331.619 97.8827 333.251C91.8916 338.472 85.3332 343.03 78.3917 346.883C79.5314 344.163 80.8095 341.492 81.9811 338.789C83.3424 335.647 84.6801 332.495 85.9928 329.332C88.5729 323.117 91.2254 316.877 93.3713 310.494C94.0483 310.337 94.7333 310.214 95.4266 310.13V310.13ZM111.289 311.872C113.883 311.637 116.414 310.456 118.347 308.711C118.406 308.657 118.458 308.598 118.516 308.542C117.48 310.47 116.393 312.367 115.162 314.183C113.57 316.535 111.813 318.775 109.987 320.946C108.106 323.182 106.135 325.34 104.086 327.418C105.586 322.258 106.812 317.037 107.631 311.718C108.843 311.897 110.064 311.982 111.289 311.872V311.872ZM111.42 331.951C108.952 330.812 106.465 329.71 103.933 328.72C105.863 326.82 107.731 324.854 109.52 322.817C113.092 318.753 116.758 314.26 119.043 309.24C117.599 317.126 114.859 324.711 111.42 331.951V331.951ZM107.27 339.991C103.956 345.929 100.305 351.772 94.8842 355.99C94.6655 356.161 94.4351 356.314 94.2128 356.479C91.4775 355.002 88.7373 353.532 86.0058 352.046C83.4184 350.638 80.8634 349.025 78.1771 347.804C84.3162 344.474 90.1709 340.583 95.6446 336.139C98.3695 333.926 100.992 331.587 103.507 329.137C106.067 330.244 108.629 331.341 111.163 332.508C109.942 335.045 108.638 337.542 107.27 339.991V339.991ZM76.061 366.341C72.3651 368.137 68.6657 369.925 64.9689 371.718C62.452 369.512 59.9556 367.28 57.5097 364.995C56.2098 363.781 54.9168 362.558 53.6561 361.303C53.1079 360.758 52.5629 360.208 52.0203 359.657C51.749 359.381 51.478 359.105 51.2083 358.828C51.0392 358.654 50.9035 358.532 50.8131 358.413C60.0919 356.115 69.0594 352.68 77.4945 348.179C80.0535 349.837 82.907 351.114 85.5958 352.544C88.2926 353.977 90.978 355.431 93.6683 356.877C88.2678 360.778 82.0148 363.449 76.061 366.341V366.341ZM57.0215 375.569C54.0733 376.989 51.0361 378.387 47.7586 378.785C45.1646 379.099 42.5666 378.697 40.0277 378.153C38.984 376.843 38.028 375.451 36.998 374.131C35.8372 372.643 34.6663 371.162 33.4851 369.691C31.3392 367.017 29.1559 364.376 26.922 361.778C29.0125 361.687 31.1032 361.563 33.1936 361.376C38.8961 360.866 44.5381 359.938 50.0726 358.606C54.6598 363.243 59.3629 367.777 64.2917 372.046C61.8679 373.22 59.4477 374.401 57.0215 375.569ZM31.0751 376.42C28.1754 376.185 25.3073 376.629 22.4584 377.13C20.2237 377.524 17.9765 377.933 15.7117 378.002C13.8607 374.149 11.9077 370.349 9.97061 366.539C9.49213 365.599 9.01396 364.658 8.53549 363.717C8.2964 363.246 8.05793 362.776 7.81356 362.307C7.66863 362.03 7.42365 361.686 7.25208 361.354C13.5652 361.87 19.9006 362.055 26.2386 361.808C28.5089 364.551 30.775 367.297 32.9995 370.078C34.1376 371.5 35.2665 372.931 36.3854 374.369C37.3231 375.574 38.3209 376.756 39.2417 377.981C36.539 377.374 33.8443 376.645 31.0751 376.42V376.42ZM-5.41905 332.657C-2.86467 330.166 -0.383703 327.599 2.03439 324.972C14.5931 320.092 27.0527 314.949 39.3652 309.466C42.4294 308.101 45.4665 306.696 48.4641 305.195C48.3299 305.49 48.1921 305.784 48.0454 306.075C45.1011 311.925 39.1977 315.1 34.2265 318.945C31.6681 320.925 29.4476 323.173 27.4021 325.683C25.2299 328.347 23.1546 331.091 20.4974 333.296C15.2939 337.613 8.76156 340.04 2.33725 341.835C-3.76499 343.542 -10.0722 344.629 -16.39 345.071C-17.4252 345.143 -18.4624 345.186 -19.4996 345.217C-14.6294 341.241 -9.92883 337.055 -5.41905 332.657V332.657ZM-3.21493 302.213C-4.92013 294.848 -6.52804 287.45 -8.36111 280.117C-7.32054 278.868 -6.33324 277.578 -5.47042 276.188C-2.47603 271.364 -1.57975 265.734 0.490221 260.521C2.70551 254.94 6.70084 250.942 11.2441 247.465C15.4565 257.647 19.7124 267.811 23.9223 277.995C24.9821 280.558 26.0171 283.134 27.0954 285.69C27.2912 286.154 27.4767 286.626 27.9298 286.75C25.1262 292.089 22.0289 297.271 18.6622 302.269C13.5773 309.816 7.89624 316.953 1.74509 323.647C0.0926205 316.503 -1.56183 309.358 -3.21493 302.213V302.213ZM25.1342 237.66C26.9604 236.222 28.6402 234.629 30.1723 232.915C33.7189 239.326 37.3854 245.668 40.889 252.104C39.4643 258.698 37.43 265.16 34.9614 271.431C33.0178 276.368 30.8025 281.192 28.3665 285.899C28.2119 285.883 28.0555 285.846 27.8957 285.771C27.8192 285.588 27.7428 285.405 27.6663 285.222C26.6446 282.785 25.6217 280.349 24.6015 277.912C22.5355 272.976 20.4919 268.03 18.438 263.089C16.2178 257.748 13.9957 252.408 11.7659 247.071C16.1221 243.802 20.9304 240.967 25.1342 237.66V237.66ZM39.6477 211.389C39.709 210.711 39.7428 210.032 39.7605 209.353C39.7728 209.364 39.7852 209.375 39.7976 209.385C42.8016 219.398 43.7276 229.838 42.7425 240.251C42.3932 243.94 41.815 247.598 41.0639 251.219C37.512 244.998 34.1051 238.696 30.583 232.458C35.6629 226.593 38.9385 219.292 39.6477 211.389V211.389ZM40.8248 210.258C48.7193 217.008 56.7193 225.139 58.5415 235.658C57.1764 236.701 55.9928 238.077 54.7732 239.248C53.2774 240.685 51.7744 242.115 50.2624 243.533C47.5384 246.091 44.7747 248.609 41.9952 251.106C42.4894 248.682 42.9134 246.242 43.2377 243.786C44.6334 233.209 44.3315 222.316 41.3838 212.023C41.2141 211.43 41.0243 210.842 40.8248 210.258V210.258ZM58.7676 237.097C59.1219 240.146 58.8609 243.216 58.7543 246.272C58.6471 249.349 58.7893 252.359 59.4917 255.365C60.2157 258.464 61.2956 261.467 61.959 264.582C62.4492 266.886 62.6357 269.216 62.4616 271.547C53.5251 276.053 44.3582 280.09 34.9958 283.612C33.8613 284.039 32.7244 284.458 31.5848 284.87C30.9852 285.087 30.3844 285.302 29.7833 285.514C29.7375 285.53 29.6852 285.552 29.6368 285.57C31.3727 282.148 32.9985 278.669 34.4792 275.126C37.5858 267.695 40.1129 259.988 41.7951 252.099C44.8753 249.457 47.8933 246.753 50.8596 243.981C52.3752 242.564 53.8744 241.13 55.3569 239.679C56.431 238.628 57.6679 237.581 58.6567 236.393C58.6908 236.628 58.7397 236.858 58.7676 237.097V237.097ZM62.2318 273.517C61.7292 276.559 60.584 279.412 58.9863 282.035C57.3508 284.72 55.4112 287.208 53.9088 289.977C51.3783 294.641 50.722 300.014 48.6189 304.841C42.7242 307.238 36.9208 309.86 31.0658 312.354C24.7954 315.025 18.5104 317.66 12.1886 320.207C9.1719 321.422 6.14499 322.612 3.11556 323.794C8.25552 318.119 13.0654 312.142 17.4609 305.862C21.7811 299.689 25.7015 293.226 29.158 286.522C29.35 286.444 29.5383 286.363 29.7093 286.303C30.4303 286.045 31.1493 285.785 31.8679 285.521C36.8976 283.679 41.8747 281.691 46.7911 279.561C52.0705 277.274 57.274 274.814 62.404 272.206C62.3585 272.643 62.3037 273.08 62.2318 273.517V273.517ZM-32.7861 355.226C-32.7505 355.201 -32.7158 355.176 -32.6802 355.151C-32.4947 355.391 -32.1893 355.53 -31.8291 355.378C-31.6623 355.306 -31.4922 355.253 -31.324 355.187C-25.3485 358.45 -19.4237 361.859 -13.6491 365.467C-8.4358 368.724 -3.48624 372.464 1.90524 375.424C6.98736 378.213 12.4091 379.776 18.2172 379.059C21.2927 378.679 24.3085 377.896 27.3977 377.617C30.3454 377.352 33.2141 377.794 36.0877 378.429C38.8765 379.045 41.6607 379.792 44.522 379.968C47.5499 380.153 50.4557 379.529 53.2709 378.429C56.4914 377.17 59.5712 375.519 62.6781 374.006C65.9792 372.397 69.2786 370.788 72.5806 369.182C78.9872 366.067 85.6361 363.216 91.6996 359.449C94.6624 357.609 97.4086 355.458 99.7736 352.878C102.074 350.369 104.009 347.544 105.782 344.641C112.306 333.961 117.626 322.348 120.178 310.026C120.499 308.474 120.766 306.914 120.992 305.346C121.104 304.572 120.032 304.358 119.719 305.016C118.456 307.692 116.238 309.764 113.42 310.68C110.685 311.568 107.886 311.158 105.147 310.528C102.492 309.918 99.8751 309.209 97.1287 309.259C94.5952 309.305 92.1081 309.897 89.7485 310.806C84.322 312.897 79.7726 316.596 75.3416 320.283C72.7651 322.428 70.1789 324.577 67.3694 326.409C66.0757 327.252 64.7305 327.996 63.3496 328.669C63.296 328.668 63.2474 328.69 63.2077 328.742C61.7729 329.433 60.2978 330.043 58.797 330.589C53.0776 332.674 47.0822 334.004 41.5755 336.661C36.3643 339.175 31.6842 342.648 26.9747 345.983C22.3225 349.278 17.5073 352.52 12.0552 354.307C7.25985 355.877 2.30538 355.868 -2.64141 355.173C-11.3587 353.948 -20.4733 350.625 -29.2906 352.922C-29.4296 352.959 -29.5644 353.008 -29.7025 353.047C-26.512 350.748 -23.3891 348.358 -20.3308 345.888C-14.2135 345.875 -8.11185 345.322 -2.12077 344.047C4.34593 342.671 10.9325 340.742 16.704 337.432C19.6151 335.761 22.2413 333.714 24.5173 331.234C26.9208 328.616 28.958 325.666 31.4885 323.163C36.0838 318.62 42.111 315.798 46.3848 310.889C50.4557 306.211 51.2845 300.162 53.2488 294.484C55.3733 288.344 60.3297 283.799 62.4505 277.672C63.3901 274.959 63.8451 272.089 63.7837 269.217C63.7162 266.039 62.9194 262.982 62.0485 259.946C61.1439 256.794 60.2408 253.636 60.0736 250.341C59.9094 247.1 60.3089 243.864 60.3173 240.623C60.3322 234.542 58.484 228.908 55.2402 223.807C51.9472 218.629 47.566 214.229 43.007 210.183C41.8459 209.152 40.6659 208.144 39.4773 207.146C39.0748 206.808 38.268 207.086 38.2767 207.664C38.4346 218.466 33.9394 228.674 25.7411 235.67C17.2593 242.908 5.6919 247.179 0.262603 257.553C-2.32888 262.507 -3.11678 268.166 -5.53583 273.19C-8.13167 278.581 -12.7966 282.491 -16.5052 287.056C-22.5256 294.468 -26.3172 303.646 -27.573 313.122C-28.8276 322.588 -27.6883 332.611 -23.7839 341.357C-23.2946 342.454 -22.7223 343.503 -22.1676 344.567C-21.7914 345.287 -20.6297 344.784 -21.0096 344.056C-25.4532 335.543 -27.1673 325.559 -26.3413 316.02C-25.512 306.437 -22.1927 296.987 -16.3859 289.308C-14.0889 286.27 -11.3392 283.597 -8.86162 280.708C-7.31436 287.933 -5.55716 295.119 -3.89383 302.319C-2.20378 309.632 -0.514994 316.945 1.17656 324.259C-0.378788 325.936 -1.95507 327.593 -3.56861 329.213C-11.7699 337.448 -20.7303 344.892 -30.1884 351.616C-31.351 352.442 -32.5222 353.256 -33.7004 354.06C-34.4857 354.597 -33.5665 355.766 -32.7861 355.226" fill="#FBBE2B"/>
<path d="M199.248 6.48829C202.943 1.80855 206.874 -2.6788 211.023 -6.95142C215.297 -11.3526 220.047 -15.3018 224.12 -19.8986C226.002 -22.0221 227.702 -24.352 229.012 -26.8618C227.226 -18.3357 223.973 -10.1785 219.503 -2.65971C213.312 7.75195 204.961 16.7217 195.675 24.3706C190.945 28.2668 185.953 31.8231 180.818 35.1496C186.011 25.0248 192.217 15.395 199.248 6.48829V6.48829ZM244.352 -38.324C248.715 -38.1648 253.056 -37.5521 257.318 -36.6002C265.854 -34.6924 274.031 -31.4238 281.884 -27.584C285.654 -25.7408 289.321 -23.7202 293.019 -21.7468C276.594 -22.1722 259.412 -23.9706 244.717 -31.8434C240.872 -33.9038 237.062 -36.2611 232.736 -37.0389C236.438 -38.3456 240.458 -38.4667 244.352 -38.324V-38.324ZM262.406 -15.5588C272.042 -13.9321 281.33 -10.9703 289.944 -6.26405C294.334 -3.86614 298.408 -1.02714 302.118 2.32844C297.343 2.53656 292.604 2.95362 287.816 2.53573C283.118 2.12447 278.478 1.07562 274.024 -0.483187C265.199 -3.57344 257.16 -8.58237 249.957 -14.5481C247.193 -16.8374 244.57 -19.2851 242.003 -21.7932C247.956 -17.9153 255.429 -16.7362 262.406 -15.5588V-15.5588ZM241.22 30.0793C237.143 39.2091 231.028 47.3539 223.831 54.201C220.124 57.7258 216.084 60.8417 211.832 63.6542C216.825 55.0716 221.61 46.3581 226.725 37.8485C229.347 33.4863 232.112 29.2104 235.146 25.1293C238.055 21.2149 241.187 17.4149 243.576 13.1364C245.084 10.4334 246.289 7.46258 246.897 4.3914C246.736 13.2376 244.837 21.9777 241.22 30.0793V30.0793ZM270.32 10.1407C278.033 14.1795 284.993 19.3236 291.16 25.5124C293.964 28.3265 296.373 31.3969 298.789 34.507C296.255 32.6248 293.683 30.8695 290.836 29.392C286.976 27.3888 282.955 25.7255 278.978 23.9809C275.035 22.2513 271.112 20.4496 267.446 18.1661C263.638 15.7931 260.106 12.9714 256.915 9.80242C253.793 6.7014 251.044 3.24466 248.626 -0.44092C255.024 4.48175 263.24 6.43442 270.32 10.1407V10.1407ZM293.71 56.2325C296.151 59.7704 298.151 63.5265 300.112 67.3381C297.245 65.1417 294.212 63.1542 291.114 61.3168C287.456 59.1477 283.724 57.084 280.266 54.5932C273.489 49.712 267.824 43.4751 262.72 36.8726C260.111 33.4987 257.608 30.0321 255.178 26.5231C270.58 32.2758 284.296 42.583 293.71 56.2325V56.2325ZM269.91 58.2995C274.41 65.5488 278.974 72.9274 281.682 81.0887C282.999 85.0571 283.846 89.1638 284.089 93.3345C282.545 90.2343 280.896 87.1863 279.026 84.2727C276.832 80.8549 274.382 77.6137 272.167 74.2092C267.795 67.489 263.942 60.4047 260.665 53.075C258.9 49.1308 257.12 45.1649 255.738 41.0648C261.752 45.5513 265.982 51.9731 269.91 58.2995V58.2995ZM271.064 100.813C271.33 103.995 271.234 107.122 271.066 110.283C268.941 104.371 266.549 98.5805 264.335 92.6977C263.127 89.4856 262.091 86.2262 261.28 82.8872C260.517 79.7463 259.88 76.5748 259.043 73.4514C258.282 70.6083 257.322 67.8256 255.985 65.2163C264.581 75.0608 269.972 87.722 271.064 100.813V100.813ZM240.439 115.722C236.674 122.143 232.03 127.986 226.949 133.386C224.475 136.016 221.884 138.525 219.246 140.985C220.946 132.75 225.749 125.509 230.513 118.754C233.16 115 235.927 111.335 238.803 107.757C241.396 104.531 244.057 101.35 246.391 97.9214C247.413 96.4189 248.382 94.8303 249.233 93.1786C248.397 96.5226 247.457 99.8342 246.413 103.104C244.776 107.472 242.794 111.705 240.439 115.722ZM259.666 102.628C261.824 109.291 263.088 116.147 263.095 123.17C263.098 126.764 262.735 130.286 262.312 133.832C261.388 131.134 260.583 128.385 259.756 125.661C258.757 122.374 257.799 119.072 256.931 115.748C255.166 108.997 253.825 102.091 253.219 95.1304C252.94 91.9233 252.8 88.6896 252.814 85.4642C255.308 91.0958 257.767 96.7614 259.666 102.628ZM219.477 111.092C216.256 112.859 212.917 114.544 209.399 115.632C214.038 110.888 218.734 106.285 223.958 102.168C229.556 97.7572 235.523 93.8245 241.776 90.4333C244.612 88.8952 247.653 87.5827 250.41 85.8663C241.617 95.9704 231.188 104.67 219.477 111.092V111.092ZM239.864 80.0846C234.431 84.8498 228.446 88.998 222.098 92.4141C218.925 94.1213 215.644 95.5052 212.353 96.9231C214.186 94.3626 216.288 91.9399 218.39 89.634C220.841 86.9467 223.45 84.4037 226.199 82.0315C231.644 77.3343 237.623 73.2433 243.976 69.9143C247.029 68.314 250.184 66.8787 253.428 65.7146C249.246 70.8338 244.837 75.7233 239.864 80.0846V80.0846ZM224.135 71.9739C220.932 73.8958 217.63 75.6404 214.269 77.2597C222.371 65.5438 232.838 55.4912 244.776 47.8455C247.637 46.014 250.583 44.32 253.596 42.7587C246.607 55.0667 236.175 64.7519 224.135 71.9739V71.9739ZM235.133 -5.20854C234.532 0.951226 233.608 7.10435 232.001 13.0834C229.044 24.0837 223.734 34.4614 215.141 42.0174C210.476 46.1193 205.13 49.3339 199.81 52.4871C203.845 41.7422 208.009 31.0362 212.964 20.6859C215.516 15.3553 218.253 10.1059 221.294 5.04391C224.343 -0.0313267 227.777 -4.77738 231.252 -9.55329C232.972 -11.9164 234.737 -14.4801 235.952 -17.2229C235.718 -13.2157 235.523 -9.20505 235.133 -5.20854V-5.20854ZM179.773 37.0343C190.038 30.5213 199.784 23.0415 208.101 14.0908C216.355 5.20977 223.139 -5.16541 227.226 -16.674C228.854 -21.2534 230.04 -25.9896 230.672 -30.8069C230.966 -31.7223 231.203 -32.656 231.372 -33.6086C233.12 -30.656 234.774 -27.6462 236.337 -24.5891C236.339 -19.3912 233.513 -14.762 230.572 -10.6328C227.308 -6.0493 224.07 -1.49807 221.19 3.34832C215.2 13.4275 210.343 24.1078 205.805 34.9191C203.219 41.078 200.77 47.2942 198.285 53.4946C198.088 53.9863 198.587 54.478 199.06 54.1911C204.213 51.0677 209.363 47.8986 214.036 44.0597C218.434 40.4471 222.205 36.2408 225.253 31.4027C231.655 21.2373 234.64 9.2701 235.951 -2.59671C236.6 -8.47872 237.006 -14.4395 237.053 -20.3754C237.223 -21.052 237.344 -21.7402 237.42 -22.4358C241.031 -15.1078 244.113 -7.51439 246.633 0.26637C246.005 9.51722 239.679 17.0219 234.352 24.1617C228.492 32.0196 223.722 40.6062 218.932 49.1515C216.035 54.3179 213.177 59.501 210.35 64.7072C210.165 65.0488 210.59 65.3871 210.894 65.1972C219.438 59.8624 227.389 53.1447 233.565 45.1027C239.884 36.8742 244.534 27.2917 246.657 17.0708C247.528 12.8794 247.969 8.62421 247.901 4.36237C248.026 4.78358 248.158 5.20228 248.279 5.62432C251.621 17.2822 253.613 29.2916 254.289 41.3815C241.131 47.795 229.369 56.9729 219.863 68.193C217.123 71.4267 214.586 74.8278 212.234 78.36C211.986 78.7323 212.478 79.2961 212.876 79.1104C226.613 72.7268 239.615 64.0928 248.868 51.8031C250.957 49.0287 252.796 46.0529 254.358 42.9411C254.691 50.095 254.563 57.2713 253.987 64.4178C247.495 67.0006 241.224 69.9574 235.341 73.7905C229.189 77.797 223.535 82.5878 218.512 87.969C215.64 91.046 213.163 94.3668 210.624 97.7182C210.344 98.0888 210.655 98.6527 211.131 98.5009C214.553 97.4131 217.871 95.7937 221.066 94.1553C224.345 92.473 227.526 90.5974 230.589 88.5428C236.646 84.4791 242.305 79.69 247.238 74.2847C249.624 71.6704 251.862 68.9135 253.86 65.9832C253.755 67.1457 253.64 68.3065 253.511 69.4657C252.971 74.3311 252.225 79.1975 251.287 84.0298C248.467 85.9799 245.241 87.2543 242.218 88.8388C239.045 90.5029 235.955 92.3461 232.946 94.298C226.978 98.1676 221.338 102.552 216.094 107.377C213.067 110.162 210.091 113.072 207.465 116.252C207.16 116.622 207.513 117.152 207.965 117.025C215.035 115.044 221.601 111.191 227.691 107.126C233.616 103.169 239.175 98.6344 244.203 93.5625C246.564 91.182 248.774 88.6705 250.875 86.0595C250.781 86.5139 250.671 86.9658 250.574 87.421C249.328 90.8288 247.67 93.9688 245.627 97.006C243.313 100.448 240.663 103.64 238.077 106.873C232.534 113.801 227.037 121.055 222.796 128.89C220.512 133.11 218.737 137.622 217.904 142.373C217.805 142.94 218.451 143.187 218.831 142.841C229.717 132.918 239.78 121.264 245.58 107.502C246.943 104.267 248.006 100.986 248.72 97.5698C249.883 93.817 250.931 90.0361 251.821 86.2129C251.673 99.1883 254.936 112.022 258.591 124.375C259.733 128.231 261.066 132.043 262.101 135.929C262.219 136.374 262.882 136.309 262.965 135.878C264.326 128.815 264.442 121.23 263.379 114.124C262.352 107.266 260.148 100.664 257.539 94.2706C256.071 90.6746 254.451 87.1441 252.834 83.6152C252.836 83.5289 252.834 83.4427 252.836 83.3573C252.843 83.1185 252.707 82.9858 252.537 82.9452C253.193 79.821 253.765 76.6735 254.222 73.4962C254.607 70.8131 254.919 68.12 255.171 65.4211C257.98 70.6763 259.091 76.6263 260.507 82.3889C262.117 88.9425 264.658 95.1313 267.165 101.371C268.601 104.943 270.085 108.569 270.976 112.329C271.067 112.716 271.671 112.662 271.731 112.284C272.785 105.597 272.037 98.3699 270.527 91.8171C268.968 85.0529 266.278 78.549 262.599 72.6836C260.534 69.3911 258.082 66.3415 255.399 63.5464C255.378 63.5265 255.357 63.5174 255.336 63.5033C255.87 56.9546 256.023 50.3728 255.786 43.8068C256.822 46.6391 257.86 49.4715 259.092 52.2268C260.709 55.8427 262.461 59.3973 264.348 62.8764C266.242 66.3688 268.285 69.7808 270.45 73.1082C272.692 76.5516 275.145 79.8367 277.472 83.2197C280.197 87.1822 282.19 91.4772 284.242 95.8178C284.468 96.2962 285.127 95.9571 285.128 95.5251C285.15 86.8215 282.059 78.4645 278.107 70.852C276.047 66.8821 273.719 63.0638 271.365 59.268C269.276 55.8975 267.168 52.5294 264.771 49.3704C262.169 45.9393 259.162 42.8159 255.631 40.3559C255.384 36.0111 254.951 31.6746 254.363 27.3572C258.951 33.6729 263.479 40.0432 268.858 45.7105C271.734 48.7402 274.821 51.5991 278.192 54.0584C281.542 56.5019 285.158 58.496 288.771 60.5067C293.045 62.8855 297.366 65.2644 300.863 68.7584C301.095 68.9906 301.52 68.7112 301.402 68.4011C299.868 64.3921 297.656 60.6195 295.303 57.0525C292.934 53.4597 290.275 50.0644 287.369 46.8995C281.481 40.4852 274.611 34.9241 266.998 30.7468C262.994 28.5504 258.767 26.8058 254.422 25.4353C254.396 25.3963 254.369 25.3582 254.342 25.3192C254.261 25.2006 254.157 25.1401 254.049 25.1036C252.848 17.094 251.072 9.16479 248.724 1.41637C252.996 7.60682 258.388 13.0046 264.57 17.2383C271.871 22.2381 280.196 24.8756 288.132 28.5794C292.556 30.644 297.473 33.0974 300.672 36.9248C301.002 37.3186 301.615 36.9497 301.351 36.4804C299.244 32.7202 296.335 29.3115 293.451 26.1417C290.484 22.8823 287.24 19.9098 283.763 17.2159C280.422 14.6281 276.882 12.2957 273.185 10.2609C269.264 8.10265 265.137 6.45762 260.961 4.88472C256.435 3.18081 251.838 1.4222 247.933 -1.50056C247.856 -1.62327 247.77 -1.74187 247.693 -1.86542C245.631 -8.19931 243.189 -14.403 240.376 -20.4202C239.856 -21.5304 239.319 -22.6323 238.777 -23.731C251.253 -10.2838 267.515 1.22899 285.978 3.45775C291.744 4.15424 297.721 3.96769 303.489 3.36075C303.915 3.31597 304.209 2.71317 303.814 2.41135C296.426 -3.24346 288.497 -8.25237 279.851 -11.6859C275.506 -13.4122 271.008 -14.738 266.433 -15.6733C261.307 -16.7213 256.081 -17.3042 251.042 -18.761C248.616 -19.4625 246.27 -20.445 244.09 -21.7327C242.766 -22.5146 241.522 -23.4325 240.352 -24.4332C239.175 -25.439 237.881 -26.3569 236.924 -27.594C236.007 -28.783 235.468 -30.2008 234.751 -31.5101C233.972 -32.9354 233.092 -34.3184 232.256 -35.7114C232.198 -35.8075 232.138 -35.9012 232.079 -35.9966C236.2 -35.3996 239.851 -33.3118 243.492 -31.3724C247.23 -29.3816 251.112 -27.7283 255.139 -26.4348C263.333 -23.8031 271.905 -22.6017 280.446 -21.8463C285.314 -21.416 290.193 -21.1075 295.06 -20.6838C295.63 -20.6341 295.892 -21.3322 295.384 -21.644C287.723 -26.3477 279.479 -30.3857 271.096 -33.5829C262.957 -36.6873 254.45 -38.8787 245.742 -39.3787C240.837 -39.6606 235.7 -39.6092 231.163 -37.4808C230.032 -39.3124 228.878 -41.1282 227.676 -42.9134C226.048 -45.3328 224.417 -47.7465 222.365 -49.8227C221.848 -50.3459 221.1 -49.6013 221.43 -49.011C222.709 -46.7291 224.263 -44.6472 225.734 -42.4905C227.135 -40.4342 228.491 -38.3456 229.798 -36.2271C229.966 -35.9568 230.124 -35.6823 230.289 -35.4112C230.168 -34.0613 230.011 -32.7181 229.816 -31.3824C228.517 -27.453 226.096 -23.8877 223.383 -20.814C219.356 -16.2504 214.664 -12.3276 210.424 -7.97126C202.332 0.347618 195.074 9.48322 188.761 19.2523C185.192 24.7753 181.992 30.4972 179.054 36.3867C178.828 36.8378 179.361 37.2955 179.773 37.0343" fill="#1C6467"/>
<path d="M119.835 851.932C115.779 857.1 111.458 862.062 106.889 866.792C102.183 871.663 96.938 876.048 92.4589 881.13C90.3899 883.478 88.5258 886.05 87.0989 888.811C88.9703 879.466 92.4845 870.503 97.3652 862.223C104.126 850.752 113.315 840.83 123.569 832.336C128.791 828.011 134.31 824.052 139.993 820.343C134.343 831.484 127.555 842.098 119.835 851.932ZM70.1464 901.559C65.2757 901.446 60.4216 900.839 55.6534 899.86C46.1014 897.897 36.9291 894.443 28.1117 890.357C23.8795 888.396 19.758 886.24 15.6035 884.136C33.9372 884.366 53.1353 886.086 69.646 894.48C73.966 896.677 78.2522 899.2 83.0899 899.988C78.9775 901.468 74.4938 901.659 70.1464 901.559ZM49.6751 876.935C38.9002 875.295 28.494 872.19 18.814 867.17C13.8812 864.611 9.29411 861.566 5.10582 857.953C10.432 857.657 15.7133 857.132 21.0641 857.521C26.3107 857.903 31.5042 858.983 36.4956 860.623C46.3887 863.875 55.4293 869.234 63.5516 875.651C66.6697 878.115 69.6314 880.752 72.5318 883.457C65.8337 879.303 57.4772 878.122 49.6751 876.935ZM72.6654 826.749C77.0832 816.712 83.7905 807.722 91.7244 800.135C95.8093 796.229 100.273 792.766 104.979 789.631C99.5284 799.085 94.3138 808.676 88.7279 818.05C85.8641 822.854 82.8402 827.567 79.5126 832.073C76.3231 836.392 72.8812 840.591 70.2781 845.301C68.6317 848.277 67.331 851.542 66.6953 854.907C66.7502 845.235 68.7442 835.656 72.6654 826.749V826.749ZM40.478 848.958C31.8124 844.654 23.9728 839.131 17.0039 832.455C13.8355 829.42 11.1015 826.098 8.36115 822.733C11.2158 824.755 14.1108 826.636 17.3094 828.21C21.6449 830.345 26.1552 832.104 30.6188 833.955C35.0431 835.79 39.4472 837.703 43.5696 840.145C47.853 842.684 51.8346 845.719 55.4402 849.136C58.9681 852.482 62.0853 856.22 64.8358 860.214C57.6263 854.925 48.4302 852.907 40.478 848.958V848.958ZM13.7193 798.915C10.946 795.083 8.65933 791.006 6.41747 786.867C9.64809 789.228 13.0598 791.356 16.5438 793.32C20.6562 795.639 24.8499 797.841 28.7446 800.514C36.3757 805.752 42.7867 812.489 48.5765 819.631C51.5355 823.282 54.3774 827.034 57.1397 830.836C39.8716 824.768 24.4191 813.699 13.7193 798.915V798.915ZM40.2475 796.315C35.1226 788.456 29.9245 780.457 26.7863 771.575C25.2597 767.256 24.2554 762.78 23.9252 758.224C25.6933 761.591 27.5757 764.898 29.7041 768.056C32.2012 771.76 34.9818 775.268 37.5017 778.959C42.4766 786.24 46.8771 793.928 50.6391 801.893C52.6633 806.179 54.7067 810.488 56.3074 814.949C49.5333 810.131 44.7203 803.173 40.2475 796.315ZM38.3514 749.864C38.0102 746.39 38.0734 742.971 38.2151 739.514C40.6701 745.946 43.4224 752.24 45.9771 758.638C47.3719 762.132 48.5738 765.679 49.526 769.317C50.4215 772.739 51.1797 776.197 52.1566 779.598C53.0466 782.695 54.157 785.723 55.6881 788.555C45.9542 777.919 39.7582 764.157 38.3514 749.864V749.864ZM72.3132 733.13C76.4228 726.058 81.5212 719.606 87.1135 713.631C89.8374 710.72 92.693 707.941 95.6008 705.214C93.8208 714.24 88.566 722.223 83.346 729.675C80.4456 733.816 77.4107 737.862 74.2532 741.812C71.4049 745.376 68.4807 748.891 65.926 752.672C64.8074 754.328 63.7482 756.078 62.8226 757.895C63.708 754.228 64.7086 750.596 65.8273 747.006C67.5908 742.21 69.7421 737.554 72.3132 733.13V733.13ZM51.0443 747.717C48.5427 740.466 47.0344 732.99 46.9256 725.314C46.8698 721.386 47.2265 717.531 47.6472 713.65C48.7165 716.584 49.654 719.577 50.6163 722.543C51.7779 726.123 52.8938 729.716 53.9109 733.339C55.9762 740.692 57.5714 748.22 58.3462 755.819C58.7038 759.322 58.9059 762.854 58.937 766.379C56.0723 760.261 53.2478 754.103 51.0443 747.717V747.717ZM95.77 737.891C99.3399 735.914 103.041 734.023 106.951 732.784C101.842 738.036 96.6673 743.135 90.8975 747.709C84.7143 752.61 78.1122 756.994 71.1818 760.791C68.039 762.511 64.6656 763.99 61.6134 765.905C71.2815 754.735 82.7944 745.079 95.77 737.891V737.891ZM73.4639 772.073C79.4577 766.788 86.0781 762.168 93.1119 758.344C96.6279 756.432 100.269 754.873 103.922 753.276C101.913 756.101 99.6016 758.779 97.2893 761.328C94.5937 764.301 91.718 767.118 88.6831 769.75C82.6746 774.962 76.0625 779.519 69.0204 783.249C65.6361 785.041 62.1366 786.655 58.5328 787.975C63.1262 782.319 67.9768 776.912 73.4639 772.073V772.073ZM91.1308 780.713C94.6779 778.568 98.3366 776.614 102.065 774.795C93.1915 787.716 81.6548 798.855 68.4423 807.381C65.2766 809.424 62.0131 811.318 58.6727 813.068C66.2956 799.514 77.7985 788.78 91.1308 780.713V780.713ZM79.9599 865.231C80.5434 858.491 81.4865 851.752 83.1941 845.194C86.337 833.128 92.1141 821.71 101.595 813.327C106.741 808.777 112.661 805.187 118.554 801.664C114.203 813.467 109.711 825.227 104.329 836.612C101.557 842.476 98.578 848.251 95.2569 853.829C91.9275 859.419 88.1617 864.655 84.3521 869.926C82.4679 872.533 80.5352 875.36 79.2181 878.375C79.422 873.992 79.5812 869.605 79.9599 865.231V865.231ZM141.131 818.268C129.77 825.533 119.003 833.848 109.849 843.751C100.766 853.577 93.3434 865.013 88.9465 877.65C87.1968 882.679 85.94 887.872 85.3034 893.147C84.9897 894.15 84.7381 895.175 84.5625 896.219C82.5703 893.016 80.6815 889.751 78.8934 886.432C78.8165 880.75 81.9045 875.65 85.1278 871.095C88.7051 866.039 92.2522 861.018 95.3968 855.679C101.938 844.577 107.204 832.834 112.114 820.953C114.911 814.184 117.556 807.355 120.239 800.542C120.452 800.001 119.889 799.471 119.366 799.791C113.659 803.279 107.959 806.817 102.798 811.079C97.9423 815.091 93.7943 819.743 90.463 825.074C83.464 836.276 80.3047 849.399 79.0104 862.389C78.3693 868.826 78.0025 875.347 78.0354 881.836C77.8552 882.579 77.729 883.332 77.654 884.094C73.5206 876.135 69.9726 867.88 67.0502 859.411C67.6191 849.291 74.5706 840.999 80.4117 833.118C86.84 824.446 92.039 814.993 97.2627 805.584C100.421 799.896 103.537 794.189 106.616 788.459C106.818 788.084 106.34 787.719 106.002 787.931C96.5447 793.883 87.7693 801.341 80.9925 810.219C74.0584 819.302 69.0067 829.842 66.7831 841.045C65.8712 845.639 65.4395 850.296 65.5757 854.953C65.4312 854.495 65.2776 854.039 65.1367 853.58C61.2402 840.885 58.8474 827.788 57.9199 814.582C72.5099 807.385 85.5055 797.185 95.952 784.785C98.964 781.212 101.746 777.458 104.319 773.563C104.591 773.152 104.034 772.543 103.591 772.752C88.3547 779.927 73.9697 789.55 63.8205 803.114C61.5292 806.177 59.5197 809.455 57.8202 812.878C57.3464 805.065 57.3858 797.219 57.9272 789.399C65.1349 786.483 72.09 783.162 78.6016 778.889C85.4086 774.421 91.6494 769.104 97.1758 763.15C100.338 759.745 103.054 756.081 105.84 752.382C106.147 751.973 105.791 751.361 105.263 751.534C101.46 752.772 97.7813 754.589 94.2397 756.426C90.6048 758.31 87.0815 760.406 83.6926 762.696C76.9927 767.224 70.7445 772.541 65.3187 778.518C62.6927 781.411 60.234 784.455 58.0471 787.686C58.1477 786.415 58.2593 785.145 58.3864 783.876C58.9206 778.55 59.6825 773.22 60.6612 767.926C63.7793 765.753 67.3612 764.314 70.7116 762.538C74.2294 760.675 77.6503 758.616 80.9806 756.44C87.5846 752.125 93.8153 747.252 99.5979 741.904C102.936 738.816 106.216 735.593 109.1 732.079C109.435 731.67 109.035 731.096 108.531 731.241C100.67 733.507 93.3982 737.813 86.6608 742.344C80.1053 746.753 73.9669 751.789 68.4286 757.404C65.8291 760.041 63.3988 762.818 61.0911 765.701C61.1899 765.203 61.306 764.707 61.4076 764.209C62.7494 760.467 64.5559 757.011 66.7904 753.661C69.3241 749.866 72.2355 746.338 75.0755 742.768C81.1617 735.116 87.1913 727.111 91.8122 718.485C94.3001 713.841 96.2173 708.882 97.0789 703.678C97.1813 703.057 96.4569 702.795 96.038 703.18C84.032 714.182 72.9699 727.063 66.6935 742.188C65.2181 745.744 64.0802 749.346 63.332 753.09C62.0881 757.207 60.9731 761.356 60.0346 765.547C60.0145 751.362 56.1894 737.382 51.9343 723.933C50.6053 719.735 49.0632 715.587 47.853 711.354C47.7149 710.87 46.9768 710.95 46.8899 711.422C45.4712 719.162 45.4511 727.453 46.738 735.205C47.9811 742.687 50.5367 749.871 53.5386 756.821C55.2271 760.731 57.0857 764.567 58.9407 768.401C58.9398 768.495 58.9425 768.588 58.9416 768.682C58.937 768.944 59.0916 769.087 59.281 769.128C58.5931 772.552 58.0004 776.001 57.5367 779.482C57.1443 782.419 56.8351 785.367 56.5927 788.321C53.3832 782.617 52.0587 776.128 50.3958 769.851C48.5061 762.712 45.5819 755.982 42.6943 749.199C41.0415 745.315 39.3347 741.372 38.2865 737.276C38.1785 736.855 37.5063 736.922 37.445 737.336C36.3638 744.66 37.3014 752.549 39.0813 759.689C40.918 767.06 44.0096 774.13 48.1997 780.488C50.5504 784.058 53.331 787.355 56.365 790.371C56.3878 790.395 56.4125 790.403 56.4354 790.418C55.9332 797.584 55.8564 804.78 56.2159 811.954C55.0177 808.871 53.8204 805.793 52.4054 802.798C50.5495 798.868 48.5436 795.009 46.3887 791.233C44.2245 787.442 41.8967 783.742 39.4326 780.137C36.8815 776.405 34.0982 772.849 31.453 769.184C28.3559 764.893 26.071 760.228 23.7185 755.512C23.4596 754.993 22.7297 755.373 22.7343 755.846C22.8358 765.359 26.4031 774.449 30.9206 782.713C33.2777 787.021 35.9285 791.161 38.6094 795.277C40.9903 798.931 43.3894 802.583 46.1078 806C49.0622 809.713 52.4621 813.085 56.4363 815.722C56.7747 820.467 57.319 825.202 58.037 829.912C52.8279 823.075 47.6847 816.176 41.6013 810.06C38.3487 806.79 34.8629 803.708 31.0661 801.069C27.293 798.447 23.2291 796.319 19.1698 794.172C14.3669 791.634 9.51089 789.095 5.55859 785.326C5.29608 785.076 4.82594 785.387 4.96222 785.724C6.73211 790.085 9.25203 794.177 11.9293 798.041C14.6257 801.934 17.6405 805.608 20.9287 809.024C27.5903 815.952 35.3357 821.932 43.8907 826.389C48.3881 828.732 53.1298 830.578 57.9977 832.014C58.0288 832.056 58.059 832.097 58.0901 832.14C58.1824 832.268 58.2986 832.333 58.4193 832.371C59.8755 841.109 61.9701 849.749 64.7004 858.186C59.8444 851.479 53.7508 845.658 46.7911 841.119C38.5746 835.758 29.2477 832.995 20.3379 829.059C15.3721 826.866 9.85023 824.255 6.22538 820.118C5.85311 819.692 5.17442 820.104 5.47535 820.614C7.88003 824.692 11.1747 828.377 14.4382 831.8C17.7942 835.32 21.4574 838.522 25.3759 841.417C29.1416 844.198 33.125 846.697 37.2785 848.868C41.6845 851.171 46.3136 852.91 50.9968 854.569C56.0705 856.367 61.2246 858.223 65.6242 861.362C65.7129 861.495 65.809 861.624 65.8968 861.757C68.2887 868.65 71.1013 875.396 74.3273 881.933C74.9228 883.139 75.5374 884.335 76.1585 885.529C62.0451 871.009 43.7343 858.658 23.1002 856.487C16.6563 855.809 9.99017 856.098 3.56277 856.843C3.08714 856.899 2.76792 857.562 3.21245 857.886C11.5378 863.961 20.4577 869.322 30.1541 872.952C35.0266 874.776 40.0646 876.161 45.1831 877.117C50.9181 878.19 56.7574 878.752 62.4009 880.272C65.1184 881.003 67.7499 882.044 70.2012 883.42C71.6903 884.256 73.0916 885.242 74.4115 886.319C75.7387 887.401 77.1966 888.386 78.2814 889.724C79.3223 891.01 79.9434 892.554 80.762 893.974C81.652 895.52 82.6545 897.019 83.6067 898.53C83.6725 898.634 83.7402 898.737 83.807 898.839C79.2016 898.246 75.0966 896.017 71.0061 893.949C66.8069 891.826 62.4512 890.074 57.9391 888.718C48.7577 885.958 39.1755 884.769 29.6346 884.065C24.196 883.664 18.7482 883.397 13.3095 883.004C12.6738 882.958 12.3921 883.724 12.9629 884.058C21.5791 889.089 30.8356 893.385 40.2357 896.759C49.3623 900.036 58.8867 902.309 68.6106 902.731C74.0877 902.969 79.8199 902.839 84.8515 900.448C86.1394 902.434 87.4538 904.403 88.8194 906.336C90.6716 908.957 92.5256 911.572 94.8453 913.812C95.4297 914.376 96.2529 913.552 95.8761 912.911C94.4172 910.436 92.6528 908.183 90.9808 905.847C89.3874 903.619 87.8453 901.355 86.3562 899.059C86.1659 898.766 85.9848 898.468 85.7973 898.174C85.9126 896.696 86.0681 895.226 86.2665 893.763C87.6605 889.45 90.3112 885.519 93.2949 882.12C97.7237 877.075 102.904 872.72 107.571 867.897C116.484 858.689 124.451 848.599 131.356 837.833C135.26 831.745 138.75 825.445 141.944 818.965C142.188 818.469 141.588 817.976 141.131 818.268" fill="#1C6467"/>
<path d="M573.836 92.1951C563.475 98.2731 552.156 102.207 540.16 103.358C528.269 104.499 516.11 103.07 504.877 98.9756C493.714 94.906 484.278 87.8428 474.412 81.4301C464.556 75.0232 454.282 69.842 442.306 69.3386C428.891 68.7758 415.688 72.7685 402.27 71.8148C390.561 70.9833 379.414 65.6004 371.501 56.9529C364.552 49.3608 361.143 38.4115 352.24 32.6434C347.128 29.3317 340.982 28.9863 335.067 29.4937C328.73 30.0375 322.452 31.1657 316.125 31.8219C304.035 33.0749 291.384 32.2724 281.931 23.7802C274.03 16.6824 269.741 6.2992 267.149 -3.7674C266.467 -6.41711 265.925 -9.10238 265.456 -11.7976C265.407 -12.0794 264.958 -12.0629 265.003 -11.7736C266.628 -1.45077 269.348 9.14395 275.279 17.9097C278.116 22.1024 281.693 25.7853 285.996 28.4929C291.05 31.6748 296.903 33.2154 302.824 33.6782C309.071 34.1667 315.356 33.5675 321.548 32.7369C328.023 31.8674 334.623 30.4285 341.183 30.6814C347.535 30.9269 352.789 33.608 356.894 38.3776C360.457 42.515 363.028 47.383 366.05 51.9022C372.268 61.1994 381.415 68.1683 392.185 71.4048C405.014 75.2596 418.205 72.4223 431.189 71.1569C438 70.4924 444.915 70.3279 451.614 71.9247C457.422 73.3082 462.86 75.8712 468.002 78.8515C478.304 84.822 487.546 92.5497 498.392 97.5937C519.789 107.545 545.662 107.403 567.074 97.5615C569.694 96.3573 572.213 95.0068 574.653 93.4687C575.481 92.9464 574.674 91.7034 573.836 92.1951" fill="#FBBE2B"/>
<path d="M565.202 72.1287C552.872 73.9834 540.509 76.3463 527.984 75.1902C516.84 74.1622 506.533 70.4029 497.987 63.0714C494.154 59.7812 490.597 56.1483 486.406 53.2947C482.121 50.3788 477.351 48.6887 472.164 48.4118C460.695 47.8013 449.956 53.0078 438.907 55.1652C428.846 57.1297 417.709 57.286 408.37 52.5104C398.983 47.7106 394.08 38.2758 387.248 30.7289C383.862 26.9871 379.898 23.9164 375.251 21.9087C370.757 19.9666 365.914 19.0118 361.049 18.6584C350.406 17.884 339.983 20.0273 329.509 21.5502C318.345 23.1737 306.333 24.195 295.729 19.5059C286.557 15.4488 279.598 7.10765 276.708 -2.46028C275.984 -4.85809 275.559 -7.30911 275.414 -9.80921C275.399 -10.0779 274.989 -10.0554 275 -9.78842C275.368 -0.161441 279.679 8.97901 286.971 15.2883C295.196 22.4077 306.031 24.4612 316.63 24.1227C327.826 23.7642 338.759 21.0337 349.907 20.1771C360.377 19.372 371.715 20.1022 380.562 26.3824C389.036 32.3973 393.526 42.273 401.225 49.0855C408.869 55.8497 419.105 58.1045 429.084 57.7227C434.203 57.5273 439.294 56.6822 444.255 55.4247C450.07 53.9493 455.777 52.0247 461.666 50.852C467.738 49.6444 474.169 49.2942 480.05 51.5515C484.929 53.4245 488.956 56.8519 492.816 60.2844C496.742 63.775 500.612 67.3106 505.203 69.9205C509.918 72.6019 515.114 74.4092 520.41 75.527C532.267 78.0288 544.483 76.9567 556.359 75.1727C559.409 74.7144 562.445 74.2029 565.476 73.6374C566.332 73.4777 566.068 71.9981 565.202 72.1287" fill="#FBBE2B"/>
<path d="M353.57 726.063C355.327 721.887 359.941 718.338 364.722 719.496C368.729 720.467 371.065 724.43 371.558 728.227C372.609 736.337 365.778 742.078 359.184 745.917C354.326 740.232 350.677 732.936 353.57 726.063V726.063ZM560.509 746.62C521.628 747.277 487.026 767.662 448.93 772.586C429.12 775.146 408.777 772.76 390.182 765.535C381.307 762.088 372.428 757.762 365.086 751.696C363.502 750.389 361.834 748.838 360.248 747.112C360.294 747.085 360.34 747.061 360.385 747.035C366.914 743.131 373.802 736.928 372.974 728.697C372.332 722.307 366.85 716.243 359.864 718.47C351.208 721.232 349.901 731.214 352.882 738.487C354.103 741.465 355.814 744.184 357.844 746.674C357.377 746.931 356.915 747.177 356.459 747.415C339.515 756.241 320.292 759.224 301.446 761.236C282.901 763.215 264.15 764.323 246.024 768.936C229.69 773.093 214.133 779.948 199.812 788.68C170.529 806.534 146.402 831.857 127.001 859.635C124.645 863.008 122.356 866.427 120.126 869.884C119.564 870.756 121.034 871.478 121.591 870.604C141.03 840.131 165.708 812.023 196.486 792.169C211.626 782.402 228.209 774.8 245.753 770.289C265.188 765.292 285.376 764.548 305.254 762.381C323.638 760.377 342.657 757.106 358.877 747.89C362.396 751.871 366.719 755.231 371.142 758.054C387.903 768.752 408.049 774.537 427.943 775.431C469.277 777.288 505.595 754.858 545.569 748.886C550.535 748.144 555.538 747.699 560.559 747.565C561.18 747.548 561.128 746.609 560.509 746.62" fill="#1C6467"/>
<path d="M149.715 9.23937C136.135 26.7008 117.784 39.7513 96.2666 45.4955C90.7774 46.9612 85.1776 47.8783 79.5159 48.3373C72.8778 48.8744 66.2059 48.9171 59.581 49.6236C48.5646 50.799 38.4511 54.3571 29.153 60.3629C10.7383 72.2586 -2.66946 90.1461 -18.5205 104.964C-35.7462 121.067 -55.7951 134.903 -78.498 142.007C-100.71 148.957 -125.76 148.974 -147.224 139.421C-149.818 138.267 -152.337 136.963 -154.784 135.527C-154.957 135.426 -155.091 135.699 -154.923 135.802C-135.027 148.074 -110.768 150.47 -88.1456 145.732C-64.9639 140.876 -44.0233 128.481 -26.1195 113.346C-17.3051 105.895 -9.29681 97.6455 -1.35117 89.2973C6.26343 81.2969 13.9334 73.2529 22.6519 66.4238C31.1932 59.7337 40.8247 54.3052 51.5184 51.9875C64.3415 49.2083 77.6547 50.8039 90.5603 48.4721C111.954 44.6072 132.416 33.0768 146.314 16.335C147.971 14.3405 149.46 12.1979 150.897 10.0429C151.345 9.37179 150.212 8.59948 149.715 9.23937" fill="#047B57"/>
<path d="M133.788 76.3183C135.785 78.796 135.26 82.2293 132.616 83.9861C129.971 85.7429 126.209 85.1588 124.212 82.6817C122.215 80.204 122.74 76.7707 125.384 75.0139C128.029 73.2571 131.791 73.8412 133.788 76.3183Z" fill="#FBBE2B"/>
<path d="M151 64.5C151 67.5378 148.537 70 145.5 70C142.463 70 140 67.5378 140 64.5C140 61.4623 142.463 59 145.5 59C148.537 59 151 61.4623 151 64.5Z" fill="#FBBE2B"/>
<path d="M149.64 98.268C147.639 100.814 144.164 100.519 141.879 97.6096C139.592 94.7002 139.361 90.2775 141.361 87.732C143.361 85.1864 146.836 85.481 149.122 88.3904C151.408 91.2998 151.639 95.7216 149.64 98.268Z" fill="#FBBE2B"/>
<path d="M160.868 79.1243C161.463 81.0745 159.99 83.4957 157.578 84.5321C155.166 85.5677 152.728 84.8268 152.132 82.8766C151.536 80.9255 153.009 78.5043 155.421 77.4679C157.833 76.4323 160.272 77.1732 160.868 79.1243Z" fill="#FBBE2B"/>
<path d="M114.882 72.5928C115.412 74.0564 114.103 75.8719 111.958 76.649C109.814 77.426 107.647 76.8698 107.117 75.4072C106.588 73.9446 107.898 72.1281 110.041 71.351C112.185 70.574 114.353 71.1302 114.882 72.5928Z" fill="#FBBE2B"/>
<path d="M130.967 50.6769C129.596 51.4868 127.379 50.7215 126.017 48.9671C124.655 47.2134 124.662 45.1338 126.033 44.3231C127.404 43.5132 129.621 44.2785 130.983 46.0321C132.345 47.7866 132.338 49.8662 130.967 50.6769Z" fill="#FBBE2B"/>
<path d="M174.171 79.9275C173.576 78.7946 174.584 77.2363 176.424 76.4483C178.263 75.6595 180.235 75.9388 180.829 77.0725C181.424 78.2054 180.416 79.7637 178.576 80.5517C176.738 81.3405 174.766 81.0612 174.171 79.9275Z" fill="#FBBE2B"/>
<path d="M150.171 112.142C149.576 111.236 150.584 109.989 152.424 109.359C154.263 108.728 156.235 108.951 156.829 109.858C157.424 110.765 156.416 112.011 154.576 112.642C152.738 113.272 150.766 113.049 150.171 112.142Z" fill="#FBBE2B"/>
<path d="M109.621 104.907C108.387 105.347 106.885 104.177 106.266 102.296C105.647 100.413 106.145 98.5312 107.379 98.0923C108.612 97.6533 110.114 98.8227 110.734 100.705C111.353 102.586 110.855 104.469 109.621 104.907Z" fill="#FBBE2B"/>
<path d="M133 65.0004C133 66.6575 130.761 68 128 68C125.239 68 123 66.6575 123 65.0004C123 63.3434 125.239 62 128 62C130.761 62 133 63.3434 133 65.0004Z" fill="#FBBE2B"/>
<path d="M164.381 99.3817C163.203 100.561 160.732 100.003 158.865 98.1355C156.997 96.2687 156.439 93.7978 157.618 92.6183C158.798 91.4389 161.268 91.997 163.136 93.8645C165.004 95.7321 165.561 98.2022 164.381 99.3817" fill="#FBBE2B"/>
<path d="M165.475 62.5346C166.568 59.3317 165.898 56.048 163.978 55.2009C162.059 54.3538 159.617 56.2634 158.524 59.4653C157.432 62.6682 158.102 65.9519 160.022 66.799C161.941 67.6462 164.383 65.7375 165.475 62.5346" fill="#FBBE2B"/>
<path d="M131.411 100.906C132.639 97.9713 131.885 94.9615 129.726 94.1841C127.566 93.4077 124.819 95.158 123.59 98.0938C122.361 101.03 123.115 104.039 125.274 104.816C127.434 105.592 130.181 103.842 131.411 100.906" fill="#FBBE2B"/>
<path d="M339.182 822.215C342.177 826.72 341.39 832.962 337.423 836.157C333.457 839.351 327.813 838.289 324.819 833.785C321.823 829.28 322.61 823.039 326.576 819.844C330.543 816.649 336.186 817.711 339.182 822.215Z" fill="#047B57"/>
<path d="M367 805C367 809.971 362.523 814 356.999 814C351.477 814 347 809.971 347 805C347 800.029 351.477 796 356.999 796C362.523 796 367 800.029 367 805Z" fill="#047B57"/>
<path d="M364.526 856.402C360.89 860.22 354.572 859.778 350.415 855.415C346.259 851.05 345.837 844.417 349.475 840.598C353.111 836.779 359.429 837.222 363.585 841.586C367.741 845.95 368.162 852.584 364.526 856.402Z" fill="#047B57"/>
<path d="M382.765 827.452C383.824 830.62 381.206 834.556 376.917 836.239C372.629 837.923 368.294 836.718 367.235 833.549C366.176 830.379 368.794 826.443 373.083 824.761C377.371 823.077 381.706 824.282 382.765 827.452Z" fill="#047B57"/>
<path d="M309.853 818.859C310.515 820.565 308.879 822.684 306.198 823.59C303.518 824.497 300.808 823.848 300.147 822.142C299.485 820.435 301.121 818.317 303.802 817.41C306.482 816.503 309.191 817.152 309.853 818.859" fill="#047B57"/>
<path d="M332.966 781.539C331.596 782.695 329.38 781.602 328.017 779.096C326.655 776.589 326.662 773.619 328.033 772.461C329.405 771.305 331.621 772.398 332.983 774.904C334.346 777.41 334.338 780.381 332.966 781.539" fill="#047B57"/>
<path d="M365.794 778.855C363.82 779.545 361.417 777.707 360.426 774.75C359.435 771.792 360.232 768.836 362.206 768.145C364.18 767.455 366.583 769.294 367.574 772.25C368.565 775.208 367.768 778.165 365.794 778.855Z" fill="#047B57"/>
<path d="M400.269 829.498C399.333 827.912 400.918 825.732 403.807 824.627C406.697 823.523 409.798 823.915 410.731 825.501C411.667 827.089 410.082 829.269 407.193 830.373C404.303 831.477 401.202 831.085 400.269 829.498Z" fill="#047B57"/>
<path d="M336 805.501C336 807.986 333.09 810 329.5 810C325.909 810 323 807.986 323 805.501C323 803.015 325.909 801 329.5 801C333.09 801 336 803.015 336 805.501Z" fill="#047B57"/>
<path d="M388.148 801.418C389.923 797.414 388.834 793.311 385.715 792.251C382.595 791.192 378.627 793.578 376.852 797.582C375.076 801.585 376.167 805.689 379.286 806.749C382.405 807.808 386.372 805.422 388.148 801.418" fill="#047B57"/>
<path d="M-11.1541 709.419C-0.249185 719.064 17.4322 721.156 29.3189 712.724C37.8754 706.654 42.5006 696.265 43.6806 685.913C45.0986 673.472 41.8075 660.299 33.5592 650.807C25.3101 641.313 11.907 636.048 -0.464057 638.673C-12.5374 641.235 -23.2817 652.618 -25.3697 664.597C-27.9319 679.292 -22.5818 699.314 -11.1541 709.419Z" fill="#047B57"/>
</g>
<defs>
<clipPath id="clip0_805:2562">
<rect width="414" height="896" fill="white"/>
</clipPath>
</defs>
</svg>
