<svg width="768" height="1024" viewBox="0 0 768 1024" fill="none" xmlns="http://www.w3.org/2000/svg">
<g clip-path="url(#clip0_805:2564)">
<rect width="768" height="1024" fill="white"/>
<rect width="1064" height="1098" transform="translate(-148 -37)" fill="#E0F6F6"/>
<path d="M-18.0111 376.513C8.37378 367.4 29.7561 346.516 46.2832 323.081C62.81 299.646 75.2406 273.371 89.6543 248.446C104.068 223.521 120.999 199.382 144.034 183.088C170.331 164.486 202.35 157.591 231.636 144.824C260.922 132.058 290.074 109.709 296.06 77.0212C301.569 46.9466 285.03 15.9712 261.454 -2.06811C237.878 -20.1086 208.453 -27.412 179.587 -31.8599C107.357 -42.9873 30.0782 -37.753 -32.9957 0.831779C-89.9232 35.6557 -131.435 97.0818 -143.935 164.989C-147.615 184.979 -148.764 205.463 -147.514 225.775C-146.264 246.097 -142.619 266.256 -136.719 285.655C-130.821 305.046 -122.663 323.688 -112.388 340.954C-108.384 347.68 -104.276 355.41 -97.9713 360.077C-95.5496 361.87 -92.8832 363.286 -90.3593 364.91C-86.5106 367.387 -82.9077 370.218 -78.8937 372.412C-62.3826 381.44 -42.5433 382.979 -24.5797 378.468C-22.3658 377.91 -20.1737 377.261 -18.0111 376.513Z" fill="#1C6467"/>
<path d="M320.161 902.6C356.631 879.324 402.991 866.141 441.998 884.331C459.7 892.585 475.387 906.994 494.64 909.208C529.214 913.18 561.62 876.367 594.889 887.012C612.743 892.724 625.08 911.003 643.033 916.361C661.021 921.728 679.729 912.952 696.991 905.403C714.033 897.949 731.948 891.429 750.407 891.708C768.868 891.986 788.13 900.205 797.889 916.656C806.561 931.272 806.476 950.271 800.896 966.463C791.675 993.215 769.015 1012.95 744.112 1024.18C719.21 1035.41 691.943 1039.24 665.056 1042.81C534.782 1060.1 401.1 1073.6 273.337 1041.78C258.49 1038.09 243.216 1033.48 231.757 1022.9C223.756 1015.51 218.16 1004.58 217.869 993.286C217.773 989.532 218.009 985.528 220.346 982.492C222.835 979.259 226.686 977.067 229.838 974.638C239.61 967.116 249.059 959.147 258.452 951.115C267.892 943.042 277.279 934.898 286.897 927.057C296.49 919.237 306.318 911.714 316.599 904.914C317.78 904.133 318.966 903.361 320.161 902.6" fill="#1C6467"/>
<path d="M524.908 135.767C535.702 173.101 561.891 204.368 593.694 224.566C625.495 244.763 662.582 254.529 699.65 257.416C746.429 261.061 795.515 253.414 834.528 226.072C873.54 198.73 900.243 149.114 893.213 100.43C887.126 58.2676 857.132 22.9296 821.229 2.97536C772.246 -24.2484 709.81 -29.8741 655.336 -25.1609C626.053 -22.6268 596.7 -14.6539 572.046 2.12597C543.341 21.6632 522.478 53.794 520.046 90.1134C519.13 103.778 520.324 117.609 523.597 130.871C524.001 132.513 524.438 134.145 524.908 135.767" fill="#047B57"/>
<path d="M-73.5034 1007.68C-58.6723 1031.49 -34.2509 1047.74 -8.05899 1055.05C18.1325 1062.35 45.9871 1061.22 72.4894 1055.28C105.936 1047.78 138.795 1031.89 160.766 1004.38C182.737 976.863 191.752 936.407 177.344 903.849C164.866 875.651 136.988 857.365 107.975 851.112C68.3912 842.58 23.603 852.055 -13.5985 867.053C-33.5965 875.114 -52.5832 886.998 -66.5643 904.035C-82.8437 923.871 -91.1805 950.836 -85.8036 976.775C-83.7807 986.534 -80.2502 995.957 -75.3742 1004.53C-74.7711 1005.6 -74.1477 1006.64 -73.5034 1007.68" fill="#FBBE2B"/>
<path d="M135.384 212.084C160.546 189.481 192.488 175.414 225.445 171.983C229.287 171.583 233.246 171.335 236.939 172.517C240.633 173.7 244.052 176.596 244.931 180.544C245.913 184.954 243.604 189.406 241.025 193.038C234.183 202.672 224.963 210.117 215.665 217.126C208.806 222.296 201.837 227.303 194.781 232.168C187.725 237.033 180.583 241.759 173.375 246.37C166.164 250.986 158.887 255.489 151.564 259.908C144.236 264.329 136.862 268.667 129.461 272.95C122.108 277.204 114.786 281.584 107.31 285.594C103.129 287.836 97.0547 289.105 92.6726 286.716C87.1519 283.706 91.3262 276.609 93.06 272.395C95.9961 265.255 99.4173 258.336 103.279 251.7C107.143 245.06 111.448 238.704 116.153 232.694C120.859 226.684 125.965 221.018 131.427 215.762C132.726 214.513 134.045 213.286 135.384 212.084" fill="#FBBE2B"/>
<path d="M-2.18685 808.441C10.9199 820.738 32.1713 823.405 46.4582 812.654C56.7423 804.915 62.3013 791.669 63.7195 778.469C65.4239 762.606 61.4683 745.81 51.5546 733.707C41.6399 721.602 25.5306 714.888 10.6616 718.236C-3.84949 721.502 -16.7632 736.016 -19.2727 751.29C-22.3522 770.026 -15.9219 795.556 -2.18685 808.441Z" fill="#047B57"/>
<path d="M861.472 529.889C850.133 515.986 837.956 502.697 824.635 490.868C824.715 490.435 824.745 489.976 824.806 489.568C825.078 487.755 825.324 485.938 825.575 484.121C826.517 477.292 827.499 470.47 828.301 463.621C828.924 464.089 829.539 464.574 830.127 465.1C833.087 467.755 835.461 471.014 837.436 474.52C841.653 482.009 844.183 490.4 847.282 498.427C850.852 507.676 854.689 516.911 859.318 525.636C860.084 527.082 860.868 528.516 861.647 529.952C861.587 529.934 861.531 529.908 861.472 529.889V529.889ZM833.55 506.375C828.898 501.544 823.809 497.027 817.785 494.203C817.468 494.053 817.142 493.935 816.821 493.795C817.548 493.671 818.269 493.519 818.994 493.363C819.893 493.167 820.793 492.969 821.692 492.773C822.326 492.635 823.132 492.599 823.721 492.32C823.927 492.221 824.079 492.081 824.206 491.922C824.816 492.475 825.441 493.009 826.044 493.569C837.816 504.486 848.673 516.362 858.865 528.89C848.621 524.434 841.275 514.394 833.55 506.375V506.375ZM794.633 489.622C786.376 489.365 778.083 489.888 769.844 489.115C769.774 489.108 769.705 489.096 769.634 489.088C780.232 483.691 791.073 478.574 802.168 474.426C809.553 479.484 816.607 485.105 823.336 491.143C822.425 492.036 819.96 492.064 818.946 492.258C817.694 492.497 816.451 492.748 815.238 493.126C808.666 490.596 801.605 489.838 794.633 489.622V489.622ZM744.841 482.712C741.768 481.731 738.661 480.818 735.509 480.155C738.127 478.598 740.665 476.879 743.24 475.255C746.412 473.256 749.604 471.293 752.799 469.332C759.204 465.401 765.671 461.585 772.176 457.837C782.38 462.191 792.138 467.622 801.407 473.904C790.326 478.628 779.331 483.435 768.583 488.958C760.401 487.991 752.696 485.222 744.841 482.712ZM732.404 479.589C727.911 478.912 723.365 478.922 718.843 479.187C710.154 479.694 701.414 481.114 692.73 479.798C689.941 479.375 687.185 478.672 684.567 477.588C692.524 472.506 700.255 467.025 708.174 461.875C712.158 459.284 716.161 456.725 720.182 454.199C724.083 451.746 727.965 449.158 731.984 446.917C736.536 447.5 741.066 448.263 745.552 449.249C754.31 451.176 762.799 453.931 771.012 457.358C770.975 457.388 770.945 457.415 770.9 457.445C769.043 458.738 766.918 459.73 764.969 460.868C762.918 462.064 760.874 463.271 758.834 464.487C754.756 466.922 750.703 469.402 746.68 471.94C742.577 474.527 738.333 477.039 734.418 479.956C733.748 479.829 733.078 479.691 732.404 479.589ZM681.502 476.102C677.99 474.107 675.288 471.225 672.661 468.127C671.566 466.837 670.46 465.529 669.285 464.304C674.78 458.377 680.675 452.825 686.977 447.853C690.407 447.262 693.854 446.768 697.314 446.415C708.383 445.291 719.567 445.438 730.623 446.755C727.126 449.03 723.509 451.128 719.99 453.356C715.901 455.945 711.828 458.567 707.777 461.223C699.814 466.442 691.749 471.628 684.149 477.418C683.248 477.028 682.363 476.591 681.502 476.102V476.102ZM664.735 460.507C661.575 458.576 657.724 457.831 654.104 458.266C653.993 458.278 653.886 458.307 653.775 458.322C656.515 456.904 659.289 455.567 662.159 454.447C665.879 452.999 669.697 451.822 673.538 450.787C677.494 449.721 681.488 448.825 685.511 448.092C679.635 452.972 674.024 458.157 668.8 463.807C667.558 462.56 666.229 461.419 664.735 460.507V460.507ZM680.76 436.433C682.669 439.897 684.631 443.329 686.734 446.667C682.992 447.291 679.269 448.046 675.578 448.952C668.214 450.759 660.394 452.998 653.733 457.041C661.739 448.86 670.989 442.142 680.76 436.433ZM691.99 430.374C700.571 426.113 709.46 422.251 719.067 421.834C719.456 421.818 719.843 421.831 720.23 421.822C722.174 425.917 724.127 430.007 726.059 434.106C727.889 437.991 729.518 442.092 731.611 445.838C721.896 444.582 712.054 444.237 702.204 444.877C697.301 445.195 692.413 445.751 687.559 446.533C685.517 443.031 683.466 439.538 681.503 435.987C684.946 433.999 688.451 432.132 691.99 430.374V430.374ZM748.968 425.52C754.648 426.526 760.326 427.544 766.004 428.556C767.11 433.332 768.172 438.122 769.134 442.932C769.643 445.489 770.14 448.05 770.574 450.622C770.762 451.74 770.943 452.86 771.12 453.98C771.209 454.541 771.296 455.102 771.382 455.663C771.437 456.013 771.493 456.275 771.502 456.493C759.022 451.329 745.983 447.789 732.693 445.975C731.099 441.814 728.859 437.858 726.931 433.861C724.996 429.854 723.091 425.83 721.175 421.813C730.504 421.758 739.819 423.899 748.968 425.52V425.52ZM778.21 430.73C782.73 431.548 787.336 432.467 791.411 434.785C794.636 436.62 797.288 439.314 799.758 442.126C799.898 444.578 799.872 447.053 799.988 449.508C800.119 452.272 800.267 455.036 800.435 457.799C800.739 462.818 801.112 467.83 801.577 472.834C799.11 471.162 796.615 469.527 794.07 467.97C787.128 463.719 779.917 460.02 772.505 456.894C770.986 447.453 769.252 438.033 767.044 428.74C770.766 429.404 774.49 430.057 778.21 430.73V430.73ZM808.616 451.821C811.749 454.572 815.391 456.487 819.059 458.315C821.935 459.751 824.839 461.177 827.488 463.024C826.505 469.199 825.68 475.398 824.831 481.595C824.62 483.126 824.411 484.655 824.201 486.186C824.096 486.951 823.99 487.716 823.892 488.483C823.835 488.937 823.839 489.556 823.767 490.1C816.953 484.104 809.844 478.486 802.387 473.379C801.994 468.173 801.611 462.965 801.302 457.752C801.144 455.083 801.004 452.415 800.881 449.745C800.777 447.507 800.586 445.247 800.52 443C803.127 446.028 805.625 449.193 808.616 451.821V451.821ZM815.164 535.141C810.231 535.938 805.32 536.886 800.436 537.96C782.118 533.086 763.703 528.606 745.182 524.66C740.573 523.677 735.963 522.766 731.32 522.004C731.711 521.766 732.105 521.532 732.507 521.309C740.593 516.837 749.914 518.078 758.706 517.725C763.23 517.543 767.585 516.752 771.951 515.5C776.584 514.171 781.172 512.664 785.992 512.297C795.431 511.579 804.869 514.248 813.674 517.578C822.038 520.742 830.138 524.82 837.731 529.675C838.976 530.471 840.197 531.303 841.41 532.15C832.63 532.745 823.872 533.735 815.164 535.141V535.141ZM788.114 569.593C784.133 579.836 780.017 590.034 776.208 600.348C774.01 600.951 771.839 601.65 769.732 602.573C762.415 605.779 756.852 611.735 750.282 616.192C743.25 620.963 735.452 622.33 727.447 622.608C730.824 606.868 734.137 591.113 737.518 575.373C738.37 571.411 739.26 567.455 740.084 563.487C740.234 562.765 740.401 562.045 739.981 561.511C747.493 557.529 755.217 553.983 763.1 550.887C775.004 546.212 787.26 542.537 799.7 539.79C795.836 549.723 791.975 559.659 788.114 569.593V569.593ZM703.636 622.476C700.387 622.635 697.18 623.105 694.044 623.846C695.145 613.173 696.056 602.48 697.228 591.814C704.171 585.159 711.707 579.181 719.586 573.802C725.79 569.565 732.213 565.696 738.797 562.154C738.961 562.305 739.11 562.481 739.231 562.709C739.172 562.992 739.113 563.276 739.053 563.559C738.259 567.337 737.468 571.117 736.674 574.894C735.064 582.544 733.421 590.188 731.793 597.835C730.034 606.1 728.277 614.366 726.531 622.635C718.909 622.825 711.118 622.109 703.636 622.476V622.476ZM665.849 641.46C665.232 642.218 664.648 642.997 664.08 643.793C664.075 643.77 664.069 643.746 664.063 643.723C668.688 629.215 676.039 615.967 685.555 604.381C688.927 600.275 692.536 596.403 696.314 592.722C695.37 603.172 694.197 613.596 693.206 624.04C682.661 626.712 673.028 632.633 665.849 641.46V641.46ZM663.59 641.807C659.985 627.026 657.371 610.507 663.759 596.4C666.162 596.318 668.626 595.685 670.966 595.327C673.837 594.887 676.711 594.462 679.586 594.056C684.766 593.325 689.961 592.674 695.156 592.063C692.636 594.535 690.185 597.085 687.836 599.74C677.716 611.174 669.287 624.43 664.372 639.223C664.088 640.076 663.832 640.94 663.59 641.807ZM664.658 594.491C666.708 590.55 669.481 587.108 672.065 583.552C674.666 579.972 676.928 576.259 678.545 572.072C680.213 567.758 681.396 563.253 683.144 558.972C684.439 555.803 686.103 552.865 688.179 550.231C702.046 552.469 715.798 555.461 729.36 559.235C731.003 559.693 732.643 560.161 734.28 560.64C735.143 560.892 736.003 561.148 736.862 561.407C736.928 561.426 737.005 561.445 737.076 561.464C732.33 564.069 727.666 566.836 723.115 569.801C713.571 576.023 704.468 583.067 696.186 591.048C690.529 591.577 684.893 592.232 679.262 593.013C676.385 593.412 673.512 593.846 670.645 594.314C668.568 594.654 666.309 594.848 664.218 595.425C664.37 595.115 664.498 594.798 664.658 594.491V594.491ZM690.028 548.077C693.056 544.873 696.667 542.444 700.61 540.677C704.646 538.866 708.872 537.55 712.823 535.525C719.479 532.115 724.56 526.263 730.857 522.294C739.542 524.455 748.3 526.272 757.016 528.284C766.351 530.439 775.673 532.65 784.964 534.997C789.4 536.116 793.825 537.277 798.248 538.445C787.788 540.839 777.464 543.874 767.371 547.624C757.449 551.309 747.752 555.68 738.392 560.736C738.109 560.667 737.827 560.602 737.583 560.528C736.55 560.222 735.517 559.919 734.482 559.621C727.236 557.535 719.933 555.666 712.585 554.019C704.696 552.25 696.753 550.752 688.775 549.494C689.18 549.012 689.596 548.537 690.028 548.077V548.077ZM864.693 531.526C864.632 531.525 864.572 531.526 864.511 531.525C864.491 531.081 864.255 530.654 863.719 530.531C863.47 530.473 863.234 530.39 862.986 530.326C858.771 521.34 854.73 512.225 851.022 502.999C847.674 494.67 845.018 485.989 841.227 477.864C837.653 470.205 832.701 463.722 825.471 459.628C821.642 457.461 817.556 455.826 813.794 453.527C810.202 451.331 807.273 448.359 804.492 445.153C801.794 442.042 799.207 438.779 796.071 436.131C792.752 433.329 788.921 431.598 784.811 430.513C780.107 429.271 775.25 428.616 770.471 427.776C765.395 426.883 760.318 425.993 755.242 425.095C745.396 423.354 735.482 421.09 725.502 420.419C720.626 420.092 715.747 420.319 710.96 421.383C706.304 422.417 701.811 424.14 697.442 426.094C681.366 433.279 665.915 442.606 653.065 455.136C651.448 456.713 649.886 458.35 648.363 460.027C647.612 460.856 648.668 462.024 649.555 461.504C653.158 459.39 657.368 458.805 661.333 460.114C665.182 461.383 668.058 464.258 670.687 467.344C673.236 470.334 675.664 473.411 678.85 475.69C681.79 477.793 685.116 479.206 688.55 480.131C696.451 482.26 704.641 481.723 712.687 481.096C717.367 480.733 722.06 480.372 726.753 480.58C728.915 480.676 731.056 480.934 733.179 481.309C733.241 481.355 733.313 481.37 733.401 481.342C735.601 481.739 737.782 482.268 739.941 482.894C748.172 485.281 756.11 488.802 764.558 490.323C772.554 491.762 780.712 491.606 788.793 491.637C796.777 491.67 804.904 491.902 812.588 494.417C819.347 496.628 825.015 500.86 830.121 505.905C839.119 514.795 846.882 526.525 858.833 531.296C859.022 531.372 859.215 531.429 859.405 531.5C853.899 531.525 848.397 531.715 842.903 532.058C835.885 526.86 828.451 522.322 820.562 518.738C812.045 514.871 802.947 511.561 793.669 510.595C788.989 510.107 784.332 510.312 779.726 511.332C774.863 512.409 770.154 514.195 765.24 515.024C756.316 516.531 747.138 514.762 738.288 516.981C729.858 519.094 724.034 525.607 717.21 530.708C709.829 536.226 700.492 537.427 693.127 542.93C689.865 545.369 687.032 548.405 684.788 551.886C682.305 555.737 680.755 560.063 679.308 564.428C677.804 568.959 676.295 573.498 673.832 577.572C671.409 581.579 668.344 585.102 665.723 588.961C660.807 596.206 658.387 604.504 657.992 613.355C657.593 622.342 659.067 631.324 661.03 640.038C661.529 642.257 662.068 644.465 662.626 646.668C662.815 647.415 663.962 647.77 664.42 647.074C672.94 634.047 686.312 625.697 701.338 624.334C716.885 622.923 733.577 627.681 748.152 619.926C755.112 616.223 760.573 610.14 767.392 606.206C774.708 601.985 783.2 601.294 791.126 599.005C803.994 595.29 815.731 587.568 824.803 577.33C833.866 567.101 840.635 554.171 843.208 540.407C843.531 538.681 843.721 536.94 843.943 535.199C844.092 534.018 842.356 533.629 842.205 534.822C840.438 548.766 834.357 562.141 825.727 572.821C817.056 583.552 805.641 592 792.803 596.216C787.726 597.885 782.422 598.733 777.257 600.069C781.306 590.127 785.082 580.055 788.977 570.047C792.931 559.88 796.889 549.713 800.844 539.544C803.976 538.868 807.117 538.232 810.27 537.674C826.298 534.835 842.557 533.587 858.808 533.621C860.806 533.625 862.804 533.651 864.802 533.696C866.133 533.725 866.022 531.546 864.693 531.526Z" fill="#1C6467"/>
<path d="M-39.7269 466.094C-22.818 470.556 -5.56248 474.008 11.8202 475.574C11.9938 475.977 12.2234 476.371 12.3977 476.74C13.1742 478.384 13.9742 480.018 14.7707 481.651C17.7624 487.795 20.7197 493.957 23.8371 500.031C23.0706 500.029 22.3023 500.006 21.5328 499.933C17.6559 499.563 13.9237 498.346 10.3808 496.683C2.81517 493.132 -3.87123 487.821 -10.8194 483.152C-18.8275 477.773 -27.0448 472.567 -35.6277 468.256C-37.049 467.543 -38.4782 466.848 -39.906 466.149C-39.8464 466.128 -39.7864 466.114 -39.7269 466.094V466.094ZM-3.99389 468.334C2.46301 469.451 9.10377 470.049 15.5733 468.697C15.9141 468.626 16.2454 468.526 16.5833 468.445C16.0598 468.986 15.5542 469.549 15.0502 470.116C14.4242 470.823 13.7994 471.529 13.1733 472.235C12.732 472.733 12.0938 473.252 11.7677 473.837C11.6537 474.043 11.606 474.248 11.5894 474.455C10.7877 474.374 9.98418 474.318 9.18292 474.228C-6.43465 472.464 -21.8336 469.363 -37.0499 465.328C-26.237 462.746 -14.7132 466.48 -3.99389 468.334V468.334ZM36.9869 458.383C43.866 453.581 50.3428 448.122 57.4922 443.753C57.5531 443.716 57.6162 443.684 57.6774 443.647C52.0032 454.483 45.9772 465.237 39.2068 475.356C30.397 475.711 21.5467 475.405 12.7294 474.563C12.9811 473.281 14.9768 471.762 15.6976 470.989C16.5872 470.033 17.4624 469.075 18.2459 468.029C25.0001 466.106 31.1778 462.44 36.9869 458.383V458.383ZM81.418 433.802C84.4667 432.738 87.5045 431.598 90.4422 430.226C89.1622 433.084 88.0401 436.027 86.8319 438.916C85.345 442.471 83.8223 446.01 82.2954 449.549C79.2341 456.645 76.0594 463.682 72.8164 470.687C62.0926 473.329 51.1406 474.82 40.1173 475.318C46.5563 464.74 52.8793 454.144 58.6075 443.115C65.8157 438.939 73.6272 436.522 81.418 433.802V433.802ZM93.2874 428.802C97.3247 426.629 101.029 423.86 104.573 420.9C111.381 415.214 117.731 408.749 125.542 404.554C128.05 403.205 130.687 402.107 133.42 401.403C129.727 410.378 126.437 419.542 122.813 428.55C120.989 433.083 119.133 437.599 117.244 442.102C115.411 446.469 113.669 450.937 111.625 455.205C107.589 457.493 103.473 459.619 99.2686 461.537C91.0623 465.281 82.6184 468.185 74.0294 470.373C74.0446 470.326 74.0542 470.285 74.0733 470.233C74.8773 468.052 76.0638 465.953 77.0276 463.842C78.0419 461.622 79.0459 459.395 80.0397 457.165C82.0267 452.703 83.9667 448.22 85.8509 443.709C87.774 439.107 89.8535 434.482 91.4405 429.726C92.0587 429.423 92.6796 429.128 93.2874 428.802V428.802ZM136.74 400.755C140.703 400.251 144.495 400.962 148.345 401.896C149.949 402.285 151.571 402.68 153.205 402.967C151.986 411.137 150.235 419.246 147.831 427.126C145.358 429.691 142.818 432.185 140.188 434.573C131.777 442.209 122.57 448.876 112.825 454.511C114.424 450.533 116.219 446.626 117.864 442.672C119.775 438.077 121.653 433.467 123.496 428.841C127.118 419.75 130.842 410.624 133.854 401.288C134.805 401.059 135.766 400.878 136.74 400.755V400.755ZM159.009 403.304C162.651 402.96 166.204 401.232 168.917 398.68C169.001 398.602 169.073 398.514 169.154 398.434C167.7 401.253 166.174 404.028 164.446 406.684C162.211 410.123 159.744 413.4 157.18 416.576C154.54 419.846 151.773 423.002 148.896 426.042C151.002 418.494 152.724 410.858 153.874 403.078C155.574 403.34 157.288 403.465 159.009 403.304V403.304ZM159.193 432.671C155.728 431.005 152.236 429.394 148.681 427.945C151.391 425.167 154.014 422.292 156.526 419.312C161.54 413.368 166.687 406.796 169.894 399.454C167.868 410.988 164.021 422.082 159.193 432.671V432.671ZM153.367 444.431C148.714 453.115 143.588 461.662 135.978 467.832C135.671 468.082 135.348 468.305 135.036 468.547C131.196 466.386 127.349 464.235 123.514 462.062C119.881 460.004 116.294 457.644 112.523 455.858C121.142 450.988 129.361 445.296 137.046 438.797C140.871 435.561 144.553 432.14 148.084 428.556C151.678 430.174 155.275 431.78 158.832 433.487C157.118 437.197 155.287 440.849 153.367 444.431V444.431ZM109.552 482.971C104.364 485.598 99.1703 488.212 93.9804 490.835C90.447 487.608 86.9423 484.344 83.5085 481.002C81.6837 479.227 79.8684 477.438 78.0985 475.602C77.3289 474.804 76.5637 474.001 75.802 473.194C75.4211 472.79 75.0407 472.387 74.662 471.982C74.4246 471.728 74.2342 471.549 74.1073 471.375C87.1336 468.014 99.723 462.99 111.565 456.406C115.158 458.832 119.164 460.7 122.938 462.791C126.724 464.887 130.494 467.014 134.271 469.129C126.69 474.834 117.911 478.741 109.552 482.971V482.971ZM82.8232 496.468C78.6842 498.544 74.4203 500.589 69.819 501.171C66.1774 501.631 62.53 501.042 58.9658 500.246C57.5006 498.332 56.1584 496.295 54.7123 494.364C53.0827 492.187 51.4389 490.022 49.7806 487.87C46.7681 483.96 43.7029 480.097 40.5668 476.296C43.5016 476.163 46.4367 475.982 49.3715 475.709C57.377 474.963 65.2978 473.606 73.0677 471.657C79.5076 478.439 86.1102 485.071 93.0296 491.314C89.627 493.032 86.2293 494.759 82.8232 496.468ZM46.3972 497.712C42.3264 497.369 38.2999 498.017 34.3004 498.751C31.1631 499.327 28.0083 499.925 24.8288 500.026C22.2301 494.391 19.4884 488.833 16.7689 483.26C16.0972 481.885 15.4259 480.508 14.7542 479.132C14.4185 478.444 14.0837 477.756 13.7407 477.071C13.5372 476.666 13.1933 476.162 12.9524 475.676C21.8154 476.432 30.7096 476.702 39.6073 476.341C42.7947 480.352 45.9759 484.369 49.0989 488.436C50.6967 490.516 52.2815 492.609 53.8523 494.712C55.1688 496.475 56.5696 498.203 57.8623 499.995C54.068 499.107 50.2849 498.042 46.3972 497.712V497.712ZM-4.83645 433.704C-1.25039 430.061 2.23261 426.306 5.62735 422.465C23.2584 415.326 40.7503 407.804 58.0357 399.784C62.3375 397.789 66.6012 395.734 70.8095 393.537C70.6212 393.97 70.4277 394.4 70.2217 394.825C66.0882 403.382 57.8005 408.025 50.8215 413.649C47.2298 416.545 44.1124 419.833 41.2408 423.503C38.1912 427.4 35.2778 431.414 31.5474 434.639C24.2423 440.953 15.0715 444.502 6.05252 447.128C-2.51434 449.624 -11.3689 451.214 -20.2384 451.86C-21.6918 451.967 -23.1479 452.03 -24.6039 452.074C-17.7667 446.259 -11.1677 440.137 -4.83645 433.704V433.704ZM-1.74212 389.177C-4.13602 378.405 -6.39335 367.585 -8.96679 356.858C-7.50594 355.032 -6.11988 353.145 -4.90858 351.112C-0.70478 344.056 0.553499 335.822 3.4595 328.197C6.56953 320.035 12.1785 314.187 18.5567 309.102C24.4705 323.995 30.4452 338.86 36.3556 353.755C37.8434 357.504 39.2964 361.272 40.8103 365.01C41.0851 365.688 41.3455 366.379 41.9816 366.56C38.0456 374.369 33.6974 381.948 28.9709 389.259C21.8323 400.297 13.8567 410.735 5.2212 420.526C2.90132 410.076 0.578652 399.627 -1.74212 389.177V389.177ZM38.0569 294.76C40.6207 292.658 42.979 290.327 45.1298 287.82C50.1088 297.197 55.2563 306.474 60.1748 315.887C58.1748 325.531 55.3188 334.983 51.8532 344.155C49.1246 351.376 46.0146 358.431 42.5947 365.316C42.3776 365.292 42.1581 365.239 41.9338 365.128C41.8264 364.86 41.7191 364.593 41.6117 364.325C40.1773 360.761 38.7413 357.198 37.309 353.633C34.4087 346.414 31.5396 339.18 28.6561 331.953C25.5392 324.142 22.4197 316.331 19.2893 308.526C25.4049 303.745 32.1552 299.598 38.0569 294.76V294.76ZM58.4323 256.336C58.5183 255.345 58.5657 254.353 58.5906 253.36C58.6079 253.375 58.6253 253.391 58.6426 253.406C62.86 268.05 64.16 283.321 62.777 298.55C62.2866 303.946 61.4749 309.296 60.4205 314.592C55.434 305.494 50.6511 296.275 45.7064 287.153C52.838 278.574 57.4366 267.896 58.4323 256.336V256.336ZM60.0848 254.682C71.1678 264.555 82.3989 276.447 84.9571 291.833C83.0405 293.358 81.3789 295.371 79.6667 297.084C77.5668 299.185 75.4568 301.276 73.3342 303.351C69.5099 307.092 65.63 310.775 61.7279 314.427C62.4217 310.881 63.017 307.313 63.4722 303.72C65.4317 288.25 65.0078 272.318 60.8696 257.264C60.6313 256.396 60.3648 255.537 60.0848 254.682V254.682ZM85.2745 293.938C85.7718 298.397 85.4054 302.887 85.2558 307.357C85.1053 311.857 85.3049 316.26 86.291 320.657C87.3075 325.189 88.8235 329.582 89.7549 334.137C90.4431 337.507 90.7049 340.915 90.4604 344.324C77.9146 350.915 65.0452 356.819 51.9015 361.971C50.3088 362.595 48.7128 363.208 47.1128 363.811C46.2711 364.128 45.4277 364.442 44.5838 364.753C44.5194 364.776 44.446 364.808 44.3781 364.834C46.8151 359.829 49.0975 354.741 51.1762 349.559C55.5375 338.69 59.0853 327.418 61.447 315.879C65.7713 312.016 70.0082 308.061 74.1725 304.005C76.3003 301.934 78.405 299.837 80.4863 297.714C81.9941 296.176 83.7306 294.646 85.1188 292.907C85.1667 293.252 85.2353 293.588 85.2745 293.938V293.938ZM90.1379 347.205C89.4322 351.655 87.8245 355.828 85.5815 359.664C83.2854 363.591 80.5624 367.229 78.4533 371.28C74.9008 378.102 73.9794 385.961 71.0269 393.02C62.7513 396.526 54.604 400.36 46.3842 404.008C37.5813 407.915 28.7579 411.769 19.8828 415.494C15.6476 417.271 11.3982 419.012 7.14518 420.741C14.3611 412.44 21.1136 403.698 27.2844 394.513C33.3496 385.485 38.8533 376.032 43.7059 366.227C43.9755 366.113 44.2398 365.995 44.4798 365.906C45.492 365.53 46.5015 365.149 47.5103 364.763C54.5714 362.069 61.5588 359.161 68.4608 356.046C75.8724 352.701 83.1776 349.103 90.3796 345.288C90.3158 345.927 90.2387 346.566 90.1379 347.205V347.205ZM-43.2567 466.714C-43.2068 466.677 -43.1581 466.64 -43.108 466.604C-42.8477 466.954 -42.419 467.159 -41.9133 466.936C-41.679 466.83 -41.4403 466.753 -41.2042 466.656C-32.8152 471.429 -24.4974 476.416 -16.3906 481.692C-9.07163 486.456 -2.123 491.927 5.44603 496.255C12.5808 500.335 20.1923 502.621 28.3461 501.571C32.6639 501.016 36.8978 499.87 41.2347 499.462C45.3729 499.075 49.4002 499.722 53.4345 500.651C57.3496 501.551 61.2583 502.644 65.2752 502.901C69.5261 503.172 73.6055 502.259 77.5577 500.651C82.0789 498.809 86.4027 496.394 90.7644 494.182C95.3987 491.828 100.031 489.474 104.666 487.126C113.661 482.569 122.995 478.401 131.507 472.891C135.667 470.199 139.522 467.054 142.842 463.28C146.071 459.61 148.788 455.477 151.277 451.232C160.436 435.612 167.905 418.625 171.488 400.603C171.939 398.335 172.313 396.052 172.63 393.758C172.788 392.627 171.282 392.314 170.844 393.277C169.07 397.19 165.957 400.22 162 401.56C158.161 402.86 154.231 402.259 150.386 401.338C146.659 400.446 142.985 399.408 139.129 399.482C135.572 399.55 132.081 400.415 128.768 401.745C121.15 404.803 114.763 410.213 108.542 415.606C104.925 418.743 101.295 421.886 97.3504 424.565C95.5343 425.799 93.6457 426.887 91.707 427.871C91.6318 427.869 91.5636 427.902 91.5079 427.978C89.4936 428.989 87.4228 429.88 85.3158 430.679C77.2863 433.729 68.8695 435.674 61.1387 439.56C53.8228 443.237 47.2524 448.317 40.6408 453.195C34.1095 458.014 27.3496 462.756 19.6954 465.369C12.9633 467.666 6.00778 467.653 -0.936957 466.636C-13.175 464.844 -25.971 459.984 -38.3495 463.344C-38.5446 463.398 -38.7338 463.469 -38.9277 463.526C-34.4487 460.164 -30.0643 456.668 -25.7709 453.055C-17.1828 453.037 -8.61685 452.228 -0.206033 450.364C8.87249 448.351 18.1193 445.529 26.2218 440.687C30.3087 438.244 33.9956 435.25 37.1908 431.623C40.5651 427.793 43.4251 423.479 46.9777 419.818C53.4289 413.174 61.8905 409.046 67.8904 401.865C73.6055 395.025 74.769 386.177 77.5267 377.872C80.5093 368.891 87.4675 362.244 90.4449 353.283C91.7639 349.315 92.4027 345.117 92.3165 340.916C92.2218 336.268 91.1031 331.797 89.8806 327.356C88.6105 322.747 87.3427 318.127 87.1079 313.309C86.8775 308.568 87.4383 303.835 87.4501 299.095C87.471 290.2 84.8763 281.961 80.3224 274.5C75.6993 266.925 69.5486 260.491 63.1483 254.572C61.5183 253.065 59.8617 251.591 58.1931 250.131C57.6279 249.637 56.4953 250.044 56.5075 250.888C56.7292 266.688 50.4185 281.617 38.909 291.85C27.0014 302.436 10.7621 308.683 3.13995 323.857C-0.498201 331.102 -1.60433 339.379 -5.0004 346.727C-8.64467 354.612 -15.1937 360.33 -20.4001 367.007C-28.8521 377.849 -34.1752 391.272 -35.9381 405.132C-37.6995 418.977 -36.1 433.636 -30.6186 446.429C-29.9318 448.033 -29.1283 449.568 -28.3496 451.123C-27.8214 452.177 -26.1905 451.441 -26.7239 450.376C-32.9621 437.925 -35.3686 423.322 -34.209 409.371C-33.0447 395.354 -28.3848 381.532 -20.2327 370.301C-17.008 365.858 -13.1477 361.949 -9.66944 357.723C-7.49725 368.29 -5.03034 378.801 -2.69521 389.331C-0.322568 400.027 2.04829 410.724 4.42305 421.421C2.23951 423.874 0.0265907 426.298 -2.23864 428.667C-13.7524 440.711 -26.3318 451.599 -39.6099 461.434C-41.242 462.642 -42.8863 463.832 -44.5403 465.009C-45.6428 465.794 -44.3524 467.503 -43.2567 466.714" fill="#FBBE2B"/>
<path d="M346.027 52.2868C351.045 45.6926 356.383 39.3695 362.017 33.349C367.82 27.1473 374.272 21.5825 379.802 15.1052C382.358 12.113 384.666 8.82993 386.446 5.29333C384.021 17.3075 379.603 28.8018 373.533 39.3964C365.125 54.0674 353.785 66.7066 341.175 77.4847C334.751 82.9748 327.973 87.9858 321 92.6732C328.051 78.4065 336.479 64.8372 346.027 52.2868V52.2868ZM407.276 -10.858C413.202 -10.6337 419.097 -9.77026 424.884 -8.42899C436.475 -5.74061 447.58 -1.13494 458.244 4.2757C463.363 6.87295 468.344 9.72021 473.364 12.5009C451.06 11.9015 427.728 9.36737 407.773 -1.72614C402.55 -4.62949 397.377 -7.95114 391.502 -9.04705C396.53 -10.8884 401.988 -11.059 407.276 -10.858V-10.858ZM431.794 21.2203C444.879 23.5126 457.492 27.686 469.188 34.3175C475.151 37.6964 480.683 41.6968 485.721 46.4252C479.237 46.7184 472.801 47.3061 466.299 46.7172C459.919 46.1377 453.618 44.6598 447.57 42.4633C435.586 38.1089 424.669 31.0508 414.888 22.6445C411.134 19.4187 407.572 15.9697 404.087 12.4355C412.17 17.8998 422.319 19.5612 431.794 21.2203V21.2203ZM403.023 85.5287C397.487 98.3935 389.183 109.87 379.409 119.518C374.376 124.485 368.89 128.876 363.116 132.839C369.896 120.745 376.394 108.467 383.339 96.4762C386.9 90.3295 390.655 84.3043 394.775 78.5537C398.726 73.0379 402.979 67.6833 406.222 61.6546C408.271 57.8458 409.907 53.6596 410.733 49.3321C410.514 61.7972 407.935 74.1128 403.023 85.5287V85.5287ZM442.54 57.4334C453.015 63.1244 462.466 70.3729 470.84 79.0935C474.648 83.0589 477.919 87.3853 481.2 91.7678C477.759 89.1156 474.267 86.6422 470.4 84.5602C465.158 81.7375 459.699 79.3937 454.297 76.9355C448.943 74.4983 443.615 71.9595 438.638 68.7419C433.467 65.3981 428.67 61.4221 424.337 56.9567C420.097 52.5871 416.364 47.7162 413.081 42.5229C421.769 49.4594 432.926 52.2109 442.54 57.4334V57.4334ZM474.303 122.381C477.617 127.366 480.334 132.659 482.997 138.03C479.103 134.935 474.985 132.134 470.778 129.545C465.81 126.489 460.743 123.581 456.047 120.071C446.843 113.193 439.151 104.405 432.219 95.1011C428.677 90.347 425.278 85.4622 421.978 80.5177C442.893 88.6237 461.52 103.148 474.303 122.381V122.381ZM441.984 125.294C448.094 135.509 454.293 145.906 457.969 157.406C459.758 162.998 460.908 168.784 461.238 174.661C459.141 170.293 456.902 165.998 454.363 161.892C451.383 157.076 448.056 152.509 445.048 147.712C439.111 138.242 433.88 128.26 429.429 117.932C427.032 112.374 424.615 106.786 422.738 101.008C430.905 107.33 436.649 116.379 441.984 125.294V125.294ZM443.551 185.2C443.911 189.683 443.781 194.09 443.553 198.543C440.668 190.212 437.419 182.053 434.413 173.764C432.772 169.238 431.365 164.645 430.265 159.94C429.228 155.514 428.362 151.045 427.226 146.644C426.193 142.638 424.89 138.717 423.073 135.04C434.747 148.912 442.067 166.753 443.551 185.2V185.2ZM401.963 206.207C396.85 215.254 390.544 223.488 383.644 231.097C380.284 234.803 376.766 238.339 373.184 241.805C375.493 230.201 382.014 219.998 388.484 210.479C392.078 205.19 395.835 200.025 399.741 194.984C403.263 190.437 406.877 185.956 410.045 181.125C411.433 179.007 412.749 176.769 413.904 174.442C412.769 179.153 411.493 183.82 410.075 188.428C407.853 194.582 405.161 200.547 401.963 206.207ZM428.073 187.757C431.003 197.145 432.719 206.806 432.729 216.702C432.733 221.767 432.24 226.729 431.666 231.726C430.41 227.924 429.317 224.051 428.194 220.213C426.838 215.58 425.538 210.928 424.358 206.244C421.961 196.731 420.141 187 419.318 177.192C418.938 172.673 418.748 168.116 418.767 163.571C422.155 171.507 425.493 179.49 428.073 187.757ZM373.497 199.683C369.123 202.172 364.589 204.548 359.812 206.081C366.111 199.395 372.489 192.91 379.582 187.109C387.184 180.893 395.287 175.352 403.779 170.573C407.63 168.406 411.759 166.556 415.504 164.138C403.562 178.375 389.4 190.634 373.497 199.683V199.683ZM401.182 155.991C393.804 162.705 385.677 168.551 377.056 173.364C372.748 175.77 368.292 177.72 363.824 179.718C366.312 176.11 369.167 172.696 372.021 169.447C375.349 165.66 378.892 162.077 382.626 158.734C390.02 152.115 398.138 146.351 406.766 141.66C410.912 139.405 415.196 137.383 419.602 135.742C413.922 142.956 407.935 149.845 401.182 155.991V155.991ZM379.822 144.562C375.474 147.27 370.989 149.729 366.425 152.01C377.427 135.501 391.64 121.336 407.853 110.563C411.737 107.982 415.739 105.595 419.83 103.395C410.339 120.738 396.173 134.386 379.822 144.562V144.562ZM394.758 35.8048C393.941 44.4845 392.687 53.1549 390.504 61.5798C386.489 77.0804 379.278 91.7035 367.609 102.351C361.275 108.13 354.015 112.66 346.79 117.103C352.269 101.963 357.923 86.8771 364.653 72.2925C368.119 64.7812 371.835 57.3843 375.964 50.2515C380.105 43.1 384.769 36.4124 389.488 29.6827C391.823 26.3529 394.219 22.7403 395.87 18.8754C395.552 24.5221 395.288 30.1734 394.758 35.8048V35.8048ZM319.581 95.3289C333.52 86.1515 346.754 75.6118 358.049 62.9994C369.257 50.4852 378.47 35.8656 384.021 19.6489C386.231 13.1961 387.842 6.52243 388.7 -0.265698C389.098 -1.55556 389.421 -2.87113 389.65 -4.21357C392.024 -0.0530629 394.27 4.18809 396.392 8.4958C396.395 15.8202 392.558 22.3431 388.564 28.1615C384.131 34.6201 379.734 41.0332 375.823 47.8623C367.689 62.0647 361.093 77.1143 354.931 92.3484C351.42 101.027 348.093 109.786 344.72 118.523C344.451 119.216 345.129 119.909 345.771 119.504C352.769 115.103 359.762 110.638 366.109 105.228C372.081 100.138 377.202 94.2108 381.34 87.3935C390.034 73.0695 394.088 56.2066 395.868 39.4851C396.75 31.1969 397.301 22.7976 397.365 14.4333C397.595 13.48 397.76 12.5102 397.863 11.53C402.766 21.8559 406.952 32.5557 410.374 43.5195C409.521 56.5548 400.931 67.1296 393.697 77.1902C385.739 88.2627 379.262 100.362 372.757 112.403C368.823 119.683 364.942 126.987 361.103 134.323C360.852 134.804 361.428 135.281 361.842 135.013C373.445 127.496 384.241 118.03 392.628 106.698C401.209 95.1034 407.523 81.6008 410.407 67.1985C411.589 61.2925 412.188 55.2965 412.096 49.2912C412.266 49.8847 412.445 50.4747 412.609 51.0694C417.148 67.4964 419.852 84.4188 420.771 101.455C402.903 110.492 386.93 123.424 374.021 139.234C370.3 143.791 366.855 148.584 363.661 153.561C363.325 154.085 363.993 154.88 364.534 154.618C383.188 145.623 400.844 133.457 413.409 116.14C416.246 112.23 418.743 108.037 420.864 103.652C421.317 113.733 421.143 123.845 420.361 133.915C411.545 137.554 403.029 141.721 395.04 147.122C386.685 152.767 379.008 159.518 372.187 167.101C368.287 171.437 364.923 176.116 361.475 180.838C361.094 181.361 361.517 182.155 362.163 181.941C366.811 180.408 371.316 178.126 375.655 175.818C380.107 173.447 384.427 170.804 388.587 167.909C396.811 162.183 404.497 155.435 411.195 147.818C414.436 144.134 417.475 140.25 420.188 136.121C420.046 137.759 419.889 139.394 419.714 141.028C418.981 147.884 417.968 154.741 416.693 161.55C412.865 164.298 408.484 166.094 404.379 168.326C400.069 170.671 395.873 173.269 391.787 176.019C383.683 181.472 376.025 187.65 368.903 194.448C364.792 198.373 360.752 202.473 357.186 206.954C356.771 207.476 357.25 208.222 357.864 208.043C367.465 205.252 376.382 199.823 384.652 194.094C392.698 188.519 400.246 182.129 407.075 174.982C410.28 171.628 413.282 168.089 416.135 164.41C416.007 165.05 415.858 165.687 415.726 166.328C414.034 171.13 411.782 175.555 409.008 179.835C405.866 184.684 402.266 189.183 398.755 193.738C391.229 203.501 383.763 213.722 378.005 224.762C374.903 230.708 372.492 237.066 371.361 243.761C371.226 244.56 372.103 244.908 372.62 244.42C387.403 230.438 401.068 214.016 408.945 194.625C410.796 190.066 412.238 185.443 413.208 180.629C414.787 175.341 416.21 170.013 417.419 164.626C417.218 182.91 421.649 200.994 426.613 218.4C428.163 223.834 429.974 229.205 431.379 234.681C431.539 235.308 432.439 235.216 432.552 234.609C434.401 224.656 434.558 213.968 433.114 203.955C431.72 194.292 428.726 184.989 425.184 175.98C423.19 170.913 420.991 165.938 418.795 160.966C418.797 160.844 418.795 160.723 418.798 160.602C418.807 160.266 418.622 160.079 418.392 160.022C419.282 155.619 420.059 151.184 420.679 146.707C421.202 142.926 421.626 139.132 421.968 135.329C425.784 142.734 427.292 151.118 429.214 159.238C431.401 168.472 434.851 177.193 438.256 185.986C440.206 191.018 442.221 196.128 443.432 201.426C443.555 201.971 444.375 201.895 444.456 201.363C445.888 191.94 444.872 181.757 442.821 172.523C440.704 162.992 437.052 153.827 432.055 145.562C429.251 140.923 425.922 136.625 422.278 132.687C422.25 132.659 422.221 132.646 422.193 132.626C422.918 123.399 423.126 114.124 422.803 104.872C424.211 108.863 425.62 112.854 427.293 116.737C429.489 121.832 431.869 126.841 434.431 131.743C437.003 136.664 439.777 141.472 442.717 146.16C445.761 151.013 449.093 155.642 452.252 160.408C455.953 165.992 458.659 172.044 461.446 178.16C461.753 178.835 462.647 178.357 462.649 177.748C462.678 165.484 458.481 153.708 453.115 142.981C450.317 137.387 447.156 132.007 443.959 126.658C441.122 121.909 438.261 117.163 435.005 112.712C431.471 107.877 427.387 103.476 422.594 100.009C422.258 93.8872 421.67 87.7767 420.872 81.6931C427.101 90.5924 433.25 99.5688 440.555 107.555C444.46 111.824 448.652 115.852 453.23 119.317C457.78 122.761 462.689 125.571 467.597 128.404C473.4 131.756 479.268 135.108 484.017 140.031C484.332 140.358 484.909 139.965 484.748 139.528C482.665 133.879 479.662 128.563 476.466 123.536C473.249 118.474 469.638 113.69 465.692 109.23C457.696 100.192 448.367 92.3554 438.029 86.4693C432.592 83.3743 426.852 80.9161 420.952 78.9848C420.916 78.9299 420.88 78.8762 420.843 78.8213C420.733 78.6542 420.591 78.5689 420.444 78.5175C418.814 67.2312 416.402 56.0582 413.213 45.14C419.015 53.8629 426.337 61.4689 434.732 67.4345C444.646 74.4797 455.951 78.1962 466.729 83.4152C472.737 86.3244 479.413 89.7815 483.758 95.1746C484.205 95.7296 485.038 95.2097 484.679 94.5484C481.818 89.25 477.868 84.4469 473.951 79.9803C469.923 75.3875 465.516 71.1989 460.795 67.403C456.258 63.7565 451.451 60.4699 446.43 57.6028C441.107 54.5615 435.501 52.2436 429.831 50.0272C423.684 47.6262 417.443 45.1482 412.139 41.0297C412.034 40.8568 411.919 40.6897 411.814 40.5156C409.014 31.5906 405.698 22.849 401.877 14.3703C401.171 12.8058 400.442 11.2531 399.706 9.705C416.648 28.6533 438.731 44.8759 463.804 48.0165C471.634 48.9979 479.75 48.735 487.582 47.8798C488.161 47.8167 488.561 46.9673 488.024 46.542C477.991 38.5738 467.224 31.5158 455.484 26.6777C449.582 24.2451 443.474 22.377 437.262 21.0591C430.301 19.5823 423.205 18.761 416.362 16.7082C413.067 15.7197 409.882 14.3352 406.921 12.5207C405.122 11.419 403.434 10.1256 401.845 8.71544C400.246 7.29823 398.489 6.00485 397.19 4.26167C395.944 2.58625 395.212 0.588369 394.239 -1.25646C393.181 -3.26486 391.985 -5.21366 390.85 -7.17649C390.772 -7.31202 390.691 -7.44404 390.611 -7.5784C396.206 -6.73718 401.165 -3.79527 406.109 -1.06249C411.185 1.74272 416.456 4.07239 421.925 5.89502C433.053 9.60337 444.693 11.2963 456.292 12.3607C462.902 12.967 469.527 13.4017 476.137 13.9987C476.911 14.0688 477.266 13.0851 476.577 12.6458C466.173 6.01773 454.978 0.327827 443.594 -4.17734C432.542 -8.55165 420.989 -11.6396 409.164 -12.3441C402.504 -12.7414 395.527 -12.6689 389.366 -9.66974C387.83 -12.2506 386.263 -14.8093 384.632 -17.3248C382.42 -20.734 380.205 -24.1351 377.419 -27.0607C376.717 -27.7979 375.702 -26.7487 376.149 -25.9169C377.886 -22.7015 379.997 -19.7679 381.994 -16.729C383.897 -13.8315 385.738 -10.8884 387.513 -7.90323C387.74 -7.52235 387.955 -7.13558 388.18 -6.75353C388.015 -4.85146 387.803 -2.95874 387.538 -1.07653C385.774 4.46029 382.486 9.4842 378.802 13.8153C373.332 20.2459 366.961 25.7734 361.204 31.9119C350.215 43.634 340.359 56.5069 331.786 70.2724C326.939 78.0548 322.594 86.1176 318.604 94.4164C318.297 95.052 319.021 95.6969 319.581 95.3289" fill="#1C6467"/>
<path d="M215.249 952.747C210.314 959.409 205.055 965.805 199.496 971.902C193.769 978.182 187.387 983.834 181.937 990.385C179.419 993.412 177.151 996.727 175.414 1000.29C177.691 988.24 181.968 976.686 187.907 966.012C196.133 951.225 207.316 938.434 219.793 927.486C226.147 921.91 232.863 916.806 239.778 912.025C232.903 926.386 224.643 940.069 215.249 952.747ZM154.785 1016.72C148.858 1016.57 142.952 1015.79 137.149 1014.53C125.526 1012 114.365 1007.55 103.635 1002.28C98.485 999.752 93.4697 996.972 88.4144 994.261C110.724 994.556 134.085 996.773 154.177 1007.59C159.433 1010.43 164.649 1013.68 170.536 1014.69C165.532 1016.6 160.076 1016.85 154.785 1016.72ZM129.875 984.977C116.763 982.863 104.1 978.861 92.3211 972.389C86.3185 969.091 80.7367 965.165 75.6401 960.508C82.1213 960.126 88.5479 959.45 95.0591 959.951C101.443 960.443 107.763 961.835 113.837 963.95C125.876 968.142 136.877 975.05 146.76 983.322C150.555 986.498 154.159 989.898 157.688 993.384C149.537 988.029 139.369 986.507 129.875 984.977ZM157.851 920.283C163.227 907.344 171.388 895.756 181.043 885.975C186.014 880.939 191.445 876.476 197.172 872.435C190.539 884.621 184.194 896.986 177.396 909.069C173.912 915.262 170.232 921.338 166.183 927.146C162.302 932.714 158.113 938.127 154.946 944.198C152.942 948.035 151.359 952.243 150.586 956.581C150.653 944.114 153.079 931.765 157.851 920.283V920.283ZM118.683 948.912C108.138 943.365 98.5986 936.245 90.1184 927.639C86.2629 923.726 82.936 919.444 79.6014 915.106C83.0752 917.712 86.5979 920.137 90.4902 922.166C95.7659 924.919 101.254 927.187 106.686 929.572C112.07 931.937 117.429 934.404 122.445 937.552C127.658 940.825 132.503 944.737 136.89 949.142C141.183 953.454 144.976 958.274 148.323 963.422C139.55 956.604 128.36 954.004 118.683 948.912V948.912ZM86.1215 884.403C82.7468 879.463 79.9642 874.206 77.2362 868.872C81.1674 871.915 85.319 874.659 89.5585 877.19C94.5627 880.179 99.666 883.018 104.405 886.464C113.691 893.215 121.492 901.9 128.538 911.108C132.139 915.814 135.597 920.651 138.958 925.551C117.945 917.73 99.1417 903.461 86.1215 884.403V884.403ZM118.403 881.051C112.166 870.92 105.841 860.608 102.022 849.158C100.165 843.591 98.9425 837.822 98.5407 831.948C100.692 836.289 102.983 840.552 105.573 844.622C108.611 849.398 111.995 853.919 115.061 858.677C121.115 868.063 126.47 877.973 131.048 888.241C133.511 893.766 135.997 899.321 137.945 905.072C129.702 898.861 123.845 889.891 118.403 881.051ZM116.095 821.171C115.68 816.693 115.757 812.285 115.93 807.829C118.917 816.121 122.266 824.234 125.375 832.481C127.072 836.985 128.535 841.558 129.693 846.248C130.783 850.66 131.706 855.117 132.894 859.502C133.977 863.494 135.328 867.396 137.192 871.047C125.347 857.337 117.807 839.596 116.095 821.171V821.171ZM157.422 799.6C162.423 790.484 168.627 782.166 175.432 774.463C178.747 770.711 182.221 767.129 185.76 763.614C183.594 775.248 177.2 785.539 170.847 795.146C167.318 800.483 163.625 805.699 159.783 810.792C156.317 815.386 152.759 819.917 149.65 824.791C148.289 826.926 147 829.182 145.873 831.524C146.951 826.797 148.168 822.116 149.53 817.488C151.676 811.305 154.293 805.303 157.422 799.6V799.6ZM131.541 818.404C128.497 809.057 126.661 799.419 126.529 789.524C126.461 784.461 126.895 779.492 127.407 774.488C128.708 778.271 129.849 782.129 131.02 785.953C132.434 790.566 133.791 795.199 135.029 799.869C137.542 809.348 139.483 819.052 140.426 828.848C140.861 833.363 141.107 837.916 141.145 842.461C137.659 834.574 134.222 826.636 131.541 818.404V818.404ZM185.966 805.738C190.31 803.188 194.813 800.751 199.571 799.154C193.355 805.924 187.058 812.496 180.037 818.393C172.513 824.712 164.479 830.363 156.045 835.257C152.221 837.475 148.116 839.381 144.402 841.85C156.167 827.45 170.176 815.003 185.966 805.738V805.738ZM158.822 849.801C166.116 842.988 174.172 837.032 182.731 832.103C187.01 829.639 191.441 827.628 195.885 825.569C193.441 829.211 190.628 832.663 187.814 835.95C184.534 839.782 181.035 843.414 177.342 846.806C170.03 853.524 161.984 859.4 153.415 864.208C149.297 866.518 145.039 868.598 140.653 870.299C146.243 863.009 152.145 856.038 158.822 849.801V849.801ZM180.32 860.939C184.637 858.173 189.089 855.654 193.626 853.309C182.828 869.967 168.789 884.325 152.712 895.316C148.86 897.95 144.888 900.392 140.824 902.647C150.099 885.175 164.097 871.337 180.32 860.939V860.939ZM166.727 969.89C167.437 961.201 168.585 952.514 170.663 944.06C174.487 928.506 181.517 913.787 193.053 902.981C199.315 897.116 206.52 892.487 213.69 887.946C208.397 903.162 202.929 918.321 196.38 932.998C193.008 940.556 189.383 948.001 185.341 955.191C181.29 962.397 176.708 969.147 172.072 975.942C169.779 979.302 167.427 982.947 165.824 986.833C166.073 981.183 166.266 975.528 166.727 969.89V969.89ZM241.164 909.351C227.339 918.716 214.237 929.434 203.097 942.2C192.045 954.866 183.013 969.608 177.663 985.899C175.533 992.382 174.004 999.076 173.229 1005.88C172.848 1007.17 172.541 1008.49 172.328 1009.84C169.904 1005.71 167.605 1001.5 165.429 997.22C165.336 989.896 169.093 983.321 173.016 977.449C177.369 970.932 181.685 964.459 185.512 957.577C193.471 943.264 199.88 928.127 205.854 912.811C209.258 904.086 212.476 895.282 215.741 886.5C216.001 885.802 215.315 885.119 214.678 885.531C207.734 890.028 200.798 894.588 194.518 900.083C188.609 905.255 183.562 911.251 179.508 918.124C170.991 932.565 167.147 949.481 165.572 966.226C164.791 974.524 164.345 982.93 164.385 991.295C164.166 992.253 164.012 993.224 163.921 994.206C158.891 983.946 154.574 973.305 151.018 962.388C151.71 949.342 160.169 938.653 167.277 928.493C175.099 917.314 181.426 905.128 187.782 893C191.625 885.667 195.418 878.31 199.164 870.924C199.41 870.44 198.828 869.97 198.416 870.244C186.908 877.916 176.23 887.529 167.984 898.975C159.546 910.684 153.399 924.27 150.693 938.711C149.583 944.633 149.058 950.638 149.224 956.641C149.048 956.049 148.861 955.462 148.689 954.871C143.948 938.505 141.036 921.623 139.907 904.599C157.661 895.321 173.475 882.172 186.187 866.188C189.852 861.581 193.237 856.742 196.369 851.722C196.7 851.192 196.022 850.407 195.483 850.676C176.942 859.925 159.438 872.33 147.088 889.816C144.299 893.764 141.854 897.989 139.786 902.402C139.21 892.33 139.257 882.216 139.916 872.135C148.687 868.377 157.151 864.096 165.074 858.587C173.357 852.828 180.952 845.973 187.676 838.298C191.524 833.909 194.83 829.185 198.219 824.417C198.593 823.89 198.16 823.1 197.518 823.324C192.89 824.92 188.413 827.262 184.104 829.63C179.68 832.059 175.393 834.76 171.269 837.713C163.116 843.55 155.513 850.404 148.911 858.109C145.715 861.838 142.723 865.763 140.062 869.927C140.185 868.289 140.32 866.652 140.475 865.015C141.125 858.15 142.052 851.28 143.243 844.455C147.038 841.654 151.396 839.798 155.473 837.51C159.754 835.108 163.917 832.453 167.969 829.648C176.005 824.085 183.587 817.804 190.624 810.91C194.686 806.929 198.676 802.775 202.186 798.245C202.594 797.718 202.107 796.977 201.495 797.164C191.928 800.086 183.08 805.637 174.881 811.478C166.904 817.161 159.434 823.653 152.695 830.891C149.532 834.29 146.575 837.87 143.766 841.587C143.887 840.945 144.028 840.305 144.151 839.663C145.784 834.839 147.983 830.384 150.702 826.066C153.785 821.174 157.327 816.627 160.783 812.024C168.19 802.16 175.527 791.84 181.15 780.721C184.177 774.734 186.51 768.342 187.558 761.633C187.683 760.833 186.802 760.495 186.292 760.992C171.682 775.173 158.221 791.779 150.584 811.277C148.788 815.86 147.404 820.503 146.493 825.33C144.98 830.637 143.623 835.985 142.481 841.389C142.456 823.103 137.802 805.081 132.624 787.744C131.007 782.332 129.13 776.986 127.658 771.528C127.489 770.904 126.591 771.007 126.485 771.616C124.759 781.594 124.735 792.282 126.301 802.275C127.813 811.919 130.923 821.181 134.576 830.14C136.631 835.18 138.892 840.124 141.15 845.066C141.149 845.188 141.152 845.308 141.151 845.43C141.145 845.768 141.333 845.951 141.564 846.005C140.727 850.419 140.005 854.864 139.441 859.351C138.964 863.138 138.587 866.938 138.292 870.746C134.387 863.392 132.775 855.028 130.752 846.936C128.452 837.733 124.894 829.058 121.38 820.314C119.369 815.308 117.292 810.224 116.016 804.944C115.885 804.401 115.067 804.487 114.992 805.021C113.677 814.463 114.818 824.632 116.984 833.836C119.219 843.339 122.981 852.453 128.079 860.649C130.94 865.25 134.323 869.5 138.015 873.389C138.043 873.419 138.073 873.43 138.101 873.449C137.49 882.687 137.396 891.963 137.834 901.21C136.376 897.237 134.919 893.268 133.197 889.408C130.939 884.342 128.498 879.367 125.876 874.5C123.242 869.612 120.409 864.843 117.411 860.196C114.307 855.385 110.92 850.801 107.701 846.077C103.932 840.545 101.152 834.532 98.2891 828.451C97.9741 827.783 97.086 828.273 97.0915 828.883C97.2151 841.146 101.556 852.863 107.053 863.516C109.921 869.07 113.147 874.407 116.409 879.713C119.306 884.423 122.226 889.131 125.534 893.536C129.129 898.322 133.266 902.669 138.102 906.069C138.514 912.185 139.176 918.288 140.05 924.36C133.711 915.546 127.453 906.654 120.05 898.769C116.092 894.555 111.85 890.581 107.23 887.179C102.639 883.799 97.6937 881.055 92.754 878.289C86.9095 875.016 81.0005 871.744 76.1911 866.885C75.8716 866.563 75.2995 866.964 75.4654 867.398C77.6191 873.019 80.6855 878.295 83.9433 883.276C87.2245 888.295 90.8931 893.03 94.8944 897.434C103.001 906.364 112.426 914.073 122.836 919.819C128.309 922.839 134.079 925.219 140.002 927.07C140.04 927.125 140.077 927.177 140.115 927.232C140.227 927.398 140.368 927.481 140.515 927.53C142.287 938.794 144.836 949.932 148.158 960.808C142.249 952.162 134.834 944.658 126.365 938.807C116.367 931.896 105.017 928.335 94.1754 923.261C88.1328 920.434 81.4134 917.068 77.0025 911.735C76.5495 911.186 75.7236 911.716 76.0898 912.374C79.0159 917.632 83.0251 922.381 86.9964 926.794C91.0801 931.332 95.5377 935.46 100.306 939.191C104.888 942.776 109.736 945.998 114.79 948.797C120.151 951.765 125.784 954.006 131.483 956.145C137.657 958.463 143.929 960.856 149.283 964.902C149.391 965.074 149.507 965.24 149.614 965.411C152.525 974.297 155.947 982.993 159.873 991.42C160.598 992.975 161.346 994.516 162.101 996.055C144.927 977.338 122.646 961.417 97.5367 958.618C89.6954 957.744 81.5837 958.116 73.7624 959.077C73.1837 959.149 72.7952 960.003 73.3362 960.422C83.4669 968.252 94.3212 975.164 106.12 979.843C112.05 982.194 118.18 983.979 124.409 985.212C131.387 986.595 138.493 987.319 145.36 989.279C148.667 990.222 151.869 991.564 154.852 993.337C156.664 994.415 158.369 995.686 159.975 997.074C161.59 998.469 163.365 999.739 164.685 1001.46C165.951 1003.12 166.707 1005.11 167.703 1006.94C168.786 1008.93 170.006 1010.87 171.165 1012.82C171.245 1012.95 171.327 1013.08 171.408 1013.21C165.804 1012.45 160.809 1009.58 155.832 1006.91C150.722 1004.17 145.421 1001.91 139.931 1000.17C128.758 996.609 117.098 995.076 105.488 994.168C98.8701 993.652 92.2409 993.307 85.6229 992.8C84.8493 992.742 84.5065 993.729 85.201 994.159C95.6858 1000.64 106.95 1006.18 118.388 1010.53C129.494 1014.76 141.084 1017.69 152.917 1018.23C159.581 1018.54 166.557 1018.37 172.679 1015.29C174.247 1017.85 175.846 1020.39 177.508 1022.88C179.762 1026.26 182.018 1029.63 184.84 1032.51C185.552 1033.24 186.553 1032.18 186.095 1031.35C184.32 1028.16 182.173 1025.26 180.138 1022.25C178.199 1019.38 176.322 1016.46 174.51 1013.5C174.279 1013.12 174.059 1012.73 173.83 1012.36C173.971 1010.45 174.16 1008.56 174.401 1006.67C176.098 1001.11 179.323 996.042 182.954 991.661C188.343 985.158 194.646 979.544 200.326 973.326C211.171 961.457 220.867 948.449 229.269 934.572C234.02 926.723 238.266 918.602 242.152 910.249C242.45 909.609 241.72 908.973 241.164 909.351" fill="#1C6467"/>
<path d="M914.437 206.609C900.533 215.201 885.344 220.762 869.246 222.389C853.287 224.002 836.97 221.982 821.897 216.194C806.916 210.441 794.252 200.456 781.013 191.391C767.787 182.334 753.999 175.01 737.928 174.298C719.925 173.503 702.206 179.147 684.201 177.799C668.487 176.623 653.528 169.014 642.908 156.789C633.583 146.057 629.009 130.578 617.061 122.424C610.201 117.743 601.952 117.255 594.015 117.972C585.511 118.741 577.086 120.335 568.595 121.263C552.37 123.034 535.393 121.9 522.708 109.895C512.105 99.8613 506.349 85.1833 502.871 70.9527C501.956 67.207 501.228 63.411 500.599 59.601C500.533 59.2026 499.93 59.226 499.991 59.6349C502.172 74.2276 505.822 89.2047 513.78 101.596C517.588 107.523 522.389 112.73 528.163 116.557C534.946 121.055 542.799 123.233 550.746 123.887C559.13 124.578 567.563 123.731 575.873 122.557C584.562 121.327 593.42 119.293 602.223 119.651C610.746 119.998 617.797 123.788 623.307 130.531C628.087 136.379 631.539 143.261 635.594 149.649C643.938 162.792 656.214 172.644 670.666 177.219C687.883 182.668 705.584 178.657 723.009 176.869C732.149 175.929 741.428 175.697 750.419 177.954C758.213 179.91 765.511 183.533 772.411 187.746C786.236 196.186 798.639 207.11 813.194 214.241C841.908 228.308 876.629 228.108 905.364 214.195C908.88 212.493 912.26 210.584 915.534 208.409C916.645 207.671 915.562 205.914 914.437 206.609" fill="#FBBE2B"/>
<path d="M903.55 178.37C887.02 180.975 870.445 184.295 853.653 182.671C838.713 181.226 824.893 175.945 813.437 165.646C808.297 161.024 803.529 155.921 797.91 151.912C792.165 147.816 785.77 145.442 778.816 145.053C763.44 144.195 749.043 151.509 734.228 154.54C720.741 157.3 705.809 157.519 693.289 150.811C680.704 144.068 674.13 130.814 664.971 120.213C660.431 114.956 655.117 110.643 648.887 107.822C642.861 105.094 636.369 103.753 629.846 103.256C615.577 102.169 601.603 105.18 587.561 107.319C572.593 109.599 556.489 111.034 542.272 104.447C529.976 98.7478 520.646 87.0303 516.772 73.5896C515.801 70.2212 515.231 66.7781 515.038 63.266C515.016 62.8887 514.468 62.9202 514.482 63.2953C514.975 76.8189 520.755 89.6592 530.531 98.5223C541.559 108.523 556.085 111.408 570.294 110.932C585.304 110.429 599.963 106.593 614.908 105.39C628.946 104.259 644.147 105.285 656.007 114.107C667.368 122.556 673.387 136.429 683.709 145.999C693.958 155.502 707.68 158.669 721.06 158.133C727.922 157.858 734.748 156.671 741.399 154.905C749.195 152.832 756.846 150.128 764.742 148.481C772.882 146.785 781.504 146.293 789.389 149.464C795.93 152.095 801.328 156.909 806.504 161.731C811.767 166.635 816.955 171.602 823.11 175.268C829.432 179.035 836.399 181.573 843.499 183.144C859.395 186.658 875.773 185.152 891.695 182.646C895.784 182.002 899.855 181.284 903.918 180.489C905.065 180.265 904.711 178.186 903.55 178.37" fill="#FBBE2B"/>
<path d="M498.997 790.037C501.125 784.635 506.713 780.042 512.503 781.541C517.356 782.797 520.185 787.923 520.781 792.836C522.055 803.329 513.782 810.757 505.797 815.723C499.913 808.368 495.495 798.929 498.997 790.037V790.037ZM749.603 816.633C702.518 817.483 660.615 843.857 614.48 850.227C590.489 853.54 565.854 850.453 543.335 841.106C532.587 836.645 521.836 831.049 512.944 823.201C511.026 821.509 509.006 819.503 507.085 817.27C507.14 817.235 507.197 817.204 507.251 817.17C515.157 812.119 523.499 804.093 522.497 793.445C521.719 785.178 515.081 777.331 506.62 780.214C496.138 783.786 494.555 796.701 498.165 806.111C499.643 809.963 501.715 813.481 504.174 816.703C503.609 817.035 503.049 817.354 502.497 817.662C481.977 829.081 458.698 832.94 435.875 835.543C413.417 838.104 390.71 839.538 368.759 845.506C348.978 850.883 330.139 859.752 312.795 871.049C277.333 894.15 248.115 926.912 224.621 962.85C221.768 967.215 218.996 971.639 216.295 976.111C215.615 977.238 217.394 978.173 218.069 977.042C241.611 937.616 271.495 901.251 308.767 875.564C327.102 862.927 347.185 853.092 368.43 847.256C391.966 840.791 416.414 839.829 440.487 837.025C462.75 834.432 485.782 830.2 505.425 818.276C509.686 823.427 514.921 827.774 520.277 831.426C540.576 845.267 564.972 852.752 589.065 853.908C639.12 856.311 683.101 827.291 731.51 819.565C737.525 818.606 743.583 818.03 749.663 817.855C750.416 817.834 750.352 816.619 749.603 816.633" fill="#1C6467"/>
<path d="M279.408 22.5595C261.094 47.3636 236.347 65.9018 207.328 74.0616C199.926 76.1436 192.374 77.4464 184.738 78.0983C175.786 78.8612 166.789 78.922 157.854 79.9256C142.998 81.5951 129.358 86.6495 116.819 95.1808C91.9851 112.079 73.9035 137.488 52.5269 158.537C29.2964 181.411 2.2585 201.066 -28.3585 211.157C-58.3142 221.03 -92.0955 221.053 -121.043 207.484C-124.541 205.844 -127.937 203.992 -131.238 201.952C-131.471 201.808 -131.651 202.196 -131.425 202.343C-104.594 219.775 -71.8783 223.178 -41.3692 216.448C-10.1065 209.551 18.1339 191.944 42.2788 170.444C54.166 159.86 64.9659 148.141 75.6814 136.282C85.9504 124.918 96.2941 113.491 108.052 103.79C119.571 94.287 132.56 86.5759 146.981 83.2834C164.274 79.3356 182.228 81.6022 199.633 78.2899C228.484 72.7998 256.079 56.4207 274.822 32.6388C277.056 29.8056 279.065 26.762 281.003 23.7009C281.607 22.7476 280.079 21.6505 279.408 22.5595" fill="#047B57"/>
<path d="M259.221 115.356C262.009 119.355 261.277 124.897 257.585 127.732C253.893 130.568 248.641 129.625 245.853 125.627C243.065 121.628 243.797 116.086 247.489 113.25C251.181 110.415 256.433 111.358 259.221 115.356Z" fill="#FBBE2B"/>
<path d="M282.547 100.1C282.547 104.59 278.666 108.229 273.879 108.229C269.092 108.229 265.21 104.59 265.21 100.1C265.21 95.6097 269.092 91.9703 273.879 91.9703C278.666 91.9703 282.547 95.6097 282.547 100.1Z" fill="#FBBE2B"/>
<path d="M280.173 145.923C277.056 149.194 271.643 148.815 268.084 145.078C264.522 141.34 264.162 135.658 267.278 132.388C270.394 129.118 275.805 129.496 279.366 133.234C282.926 136.971 283.287 142.652 280.173 145.923Z" fill="#FBBE2B"/>
<path d="M296.564 120.576C297.487 123.251 295.204 126.573 291.466 127.995C287.727 129.416 283.947 128.399 283.025 125.724C282.101 123.047 284.384 119.725 288.122 118.303C291.861 116.883 295.641 117.899 296.564 120.576Z" fill="#FBBE2B"/>
<path d="M233.66 111.636C234.299 113.486 232.721 115.782 230.135 116.765C227.551 117.747 224.939 117.044 224.3 115.194C223.662 113.345 225.24 111.048 227.825 110.065C230.409 109.083 233.022 109.786 233.66 111.636Z" fill="#FBBE2B"/>
<path d="M253.835 79.0889C252.284 80.1918 249.775 79.1496 248.234 76.7603C246.692 74.3722 246.7 71.5402 248.251 70.4361C249.803 69.3331 252.312 70.3753 253.853 72.7634C255.395 75.1527 255.387 77.9848 253.835 79.0889Z" fill="#FBBE2B"/>
<path d="M311.647 121.833C310.844 120.056 312.206 117.612 314.69 116.375C317.174 115.138 319.839 115.576 320.642 117.355C321.445 119.132 320.083 121.576 317.599 122.812C315.115 124.049 312.451 123.611 311.647 121.833Z" fill="#FBBE2B"/>
<path d="M279.998 167.992C279.194 166.215 280.557 163.771 283.041 162.535C285.525 161.298 288.19 161.736 288.992 163.514C289.796 165.292 288.433 167.735 285.949 168.973C283.466 170.209 280.801 169.77 279.998 167.992Z" fill="#FBBE2B"/>
<path d="M226.613 156.801C224.84 157.439 222.68 155.741 221.79 153.012C220.901 150.281 221.616 147.551 223.389 146.914C225.162 146.278 227.322 147.974 228.212 150.704C229.102 153.434 228.387 156.164 226.613 156.801Z" fill="#FBBE2B"/>
<path d="M257.066 100.474C257.066 102.751 254.281 104.596 250.846 104.596C247.412 104.596 244.627 102.751 244.627 100.474C244.627 98.1972 247.412 96.3512 250.846 96.3512C254.281 96.3512 257.066 98.1972 257.066 100.474Z" fill="#FBBE2B"/>
<path d="M298.445 148.723C296.913 150.333 293.701 149.571 291.272 147.022C288.843 144.474 288.118 141.1 289.651 139.49C291.185 137.881 294.397 138.642 296.826 141.192C299.255 143.741 299.979 147.113 298.445 148.723" fill="#FBBE2B"/>
<path d="M300.589 96.4985C302.028 92.6067 301.146 88.6168 298.618 87.5874C296.09 86.5581 292.875 88.8785 291.436 92.7691C289.997 96.6609 290.88 100.651 293.408 101.68C295.935 102.709 299.151 100.39 300.589 96.4985" fill="#FBBE2B"/>
<path d="M254.769 150.093C256.207 146.203 255.324 142.213 252.797 141.182C250.269 140.153 247.054 142.473 245.615 146.365C244.176 150.257 245.059 154.245 247.587 155.276C250.114 156.305 253.33 153.985 254.769 150.093" fill="#FBBE2B"/>
<path d="M482.623 925.405C486.552 931.04 485.519 938.847 480.317 942.844C475.115 946.84 467.713 945.512 463.785 939.877C459.856 934.242 460.888 926.435 466.09 922.438C471.293 918.441 478.694 919.77 482.623 925.405Z" fill="#047B57"/>
<path d="M515.492 903.906C515.492 910.233 510.024 915.361 503.277 915.361C496.532 915.361 491.063 910.233 491.063 903.906C491.063 897.579 496.532 892.452 503.277 892.452C510.024 892.452 515.492 897.579 515.492 903.906Z" fill="#047B57"/>
<path d="M512.146 968.477C507.756 973.085 500.13 972.551 495.112 967.286C490.094 962.019 489.586 954.013 493.977 949.405C498.366 944.796 505.993 945.331 511.009 950.597C516.027 955.864 516.536 963.869 512.146 968.477Z" fill="#047B57"/>
<path d="M535.244 932.761C536.545 936.53 533.328 941.211 528.059 943.214C522.79 945.217 517.464 943.784 516.163 940.014C514.862 936.242 518.078 931.56 523.348 929.559C528.617 927.556 533.943 928.989 535.244 932.761Z" fill="#047B57"/>
<path d="M446.605 920.163C447.504 922.769 445.281 926.005 441.639 927.39C437.997 928.774 434.314 927.783 433.416 925.177C432.516 922.57 434.739 919.335 438.382 917.95C442.024 916.565 445.706 917.556 446.605 920.163" fill="#047B57"/>
<path d="M475.032 874.3C472.846 875.854 469.312 874.385 467.14 871.019C464.967 867.652 464.978 863.662 467.165 862.107C469.352 860.553 472.886 862.022 475.059 865.388C477.232 868.755 477.219 872.745 475.032 874.3" fill="#047B57"/>
<path d="M513.433 870.372C510.935 871.269 507.893 868.879 506.638 865.031C505.383 861.184 506.392 857.338 508.891 856.439C511.39 855.542 514.433 857.934 515.687 861.78C516.942 865.627 515.932 869.475 513.433 870.372Z" fill="#047B57"/>
<path d="M556.498 934.531C555.365 932.027 557.285 928.584 560.785 926.84C564.285 925.097 568.04 925.715 569.171 928.22C570.304 930.727 568.384 934.17 564.885 935.912C561.384 937.655 557.629 937.037 556.498 934.531Z" fill="#047B57"/>
<path d="M479.585 904.435C479.585 907.644 475.661 910.244 470.822 910.244C465.981 910.244 462.059 907.644 462.059 904.435C462.059 901.227 465.981 898.625 470.822 898.625C475.661 898.625 479.585 901.227 479.585 904.435Z" fill="#047B57"/>
<path d="M540.916 898.831C542.943 893.347 541.7 887.726 538.138 886.275C534.575 884.824 530.044 888.093 528.017 893.578C525.989 899.061 527.235 904.683 530.796 906.134C534.358 907.585 538.888 904.316 540.916 898.831" fill="#047B57"/>
</g>
<defs>
<clipPath id="clip0_805:2564">
<rect width="768" height="1024" fill="white"/>
</clipPath>
</defs>
</svg>
