<svg width="1440" height="736" viewBox="0 0 1440 736" fill="none" xmlns="http://www.w3.org/2000/svg">
<path d="M60 719.005L0 730.557V230.908H720H1440V667.018L1380 646.801C1378.67 646.351 1377.3 645.891 1375.91 645.421C1314.66 624.752 1197.33 585.156 1080 604.923C1020 615.753 960 641.747 900 667.74C840 693.733 780 719.727 720 730.557C640.615 743.932 561.231 730.131 481.846 716.331C441.231 709.27 400.615 702.209 360 698.788C240 688.679 120 708.896 60 719.005Z" fill="#E0F6F6"/>
<path d="M0 -2H1440V230.842H720H0V-2Z" fill="#E0F6F6"/>
<path d="M60 719.005L0 730.557V230.908H720H1440V667.018L1380 646.801C1378.67 646.351 1377.3 645.891 1375.91 645.421C1314.66 624.752 1197.33 585.156 1080 604.923C1020 615.753 960 641.747 900 667.74C840 693.733 780 719.727 720 730.557C640.615 743.932 561.231 730.131 481.846 716.331C441.231 709.27 400.615 702.209 360 698.788C240 688.679 120 708.896 60 719.005Z"/>
<path d="M0 -2H1440V230.842H720H0V-2Z"/>
</svg>
