<svg width="24" height="24" viewBox="0 0 24 24" fill="none" xmlns="http://www.w3.org/2000/svg">
<path d="M3 6C3 4.34315 4.34315 3 6 3H15C16.6569 3 18 4.34315 18 6V23.25C18 23.5266 17.8478 23.7807 17.6039 23.9113C17.36 24.0418 17.0641 24.0275 16.834 23.874L10.5 19.6514L4.16603 23.874C3.93588 24.0275 3.63997 24.0418 3.39611 23.9113C3.15224 23.7807 3 23.5266 3 23.25V6ZM6 4.5C5.17157 4.5 4.5 5.17157 4.5 6V21.8486L10.084 18.126C10.3359 17.958 10.6641 17.958 10.916 18.126L16.5 21.8486V6C16.5 5.17157 15.8284 4.5 15 4.5H6Z" fill="#31AFB4"/>
<path d="M6.40137 1.5H18C18.1036 1.5 18.2047 1.51049 18.3023 1.53047C18.9858 1.67034 19.5 2.27513 19.5 3V20.6514L19.834 20.874C20.0641 21.0275 20.36 21.0418 20.6039 20.9113C20.8478 20.7807 21 20.5266 21 20.25V3C21 1.34315 19.6569 0 18 0H9.00002C7.8896 0 6.92008 0.603298 6.40137 1.5Z" fill="#31AFB4"/>
</svg>
