<svg width="346" height="232" viewBox="0 0 346 232" fill="none" xmlns="http://www.w3.org/2000/svg">
<path d="M2.39482 152.33L173.099 231.481C173.834 231.821 174.669 232 175.519 232C176.369 232 177.203 231.821 177.938 231.481L342.773 155.697C343.506 155.36 344.115 154.876 344.539 154.292C344.962 153.708 345.185 153.046 345.185 152.372C345.185 151.698 344.962 151.036 344.539 150.453C344.115 149.869 343.506 149.385 342.773 149.048L169.547 69.3839C168.81 69.0407 167.971 68.8599 167.117 68.8599C166.263 68.8599 165.424 69.0407 164.687 69.3839L2.37336 145.707C1.6488 146.046 1.0485 146.531 0.632135 147.113C0.215773 147.695 -0.00215384 148.353 1.60469e-05 149.023C0.00218593 149.693 0.224377 150.35 0.644504 150.93C1.06463 151.51 1.66806 151.993 2.39482 152.33V152.33Z" fill="#007F68"/>
<path opacity="0.32" d="M147.454 136.973C141.016 133.461 162.004 144.955 156.328 140.622L117.249 157.517L142.518 168.806L189.323 148.646C186.737 147.014 150.115 138.426 147.454 136.973Z" fill="url(#paint0_linear_809:2928)"/>
<path style="mix-blend-mode:multiply" opacity="0.63" d="M175.202 192.153C168.764 188.641 189.752 200.135 184.076 195.802L144.997 212.697L170.277 223.978L217.082 203.818C214.496 202.186 177.885 193.606 175.202 192.153Z" fill="url(#paint1_linear_809:2928)"/>
<path opacity="0.32" d="M289.788 157.646C278.436 160.859 259.926 163.568 248.134 165.55C248.041 165.645 247.919 165.718 247.78 165.764C246.249 166.354 244.571 166.661 242.871 166.661C241.171 166.661 239.492 166.354 237.962 165.764L226.019 170.892L251.289 182.181L298.093 162.021C297.042 161.431 297.417 159.645 289.788 157.646Z" fill="url(#paint2_linear_809:2928)"/>
<path style="mix-blend-mode:multiply" opacity="0.63" d="M108.698 155.466C102.259 151.954 95.5747 148.629 89.8985 144.305L40.6691 168.011L93.8579 191.572L152.197 165.08C149.633 163.456 111.38 156.919 108.698 155.466Z" fill="url(#paint3_linear_809:2928)"/>
<path d="M178.196 153.218V126.555L208.154 113.232V139.673L178.196 153.218Z" fill="#C96336"/>
<path d="M178.196 126.556L149.042 113.241C149.042 113.241 148.237 140.109 149.042 140.537C149.847 140.964 178.185 153.219 178.185 153.219L178.196 126.556Z" fill="#C96336"/>
<path d="M149.042 113.232L178.196 99.0464L208.154 113.232L178.196 126.564L149.042 113.232Z" fill="#C96336"/>
<path d="M160.148 107.832L190.493 121.095V134.999L199.216 131.495V117.206L168.882 103.584L160.148 107.832Z" fill="#FDEDCB"/>
<path d="M298.082 161.798V116.224H285.625V162.192C289.927 163.191 294.466 163.303 298.082 161.798Z" fill="#A83F1E"/>
<path d="M293.115 116.352V163.029C294.849 162.939 296.54 162.564 298.083 161.926V116.352H293.115Z" fill="#7F2B14"/>
<path d="M309.188 120.488C316.935 120.189 326.861 117.976 323.953 111.088C322.236 107.02 316.957 103.439 313.588 100.217C310.218 96.9956 310.959 94.8335 307.15 91.6716C310.369 91.7827 315.015 91.2956 315.809 88.766C316.495 86.5441 301.527 72.9477 295.046 67.4015C294.333 66.7921 293.358 66.42 292.315 66.3597C291.272 66.2995 290.239 66.5556 289.424 67.0767C281.709 71.9649 262.008 85.0229 264.744 88.7404C266.408 91.005 269.755 91.7912 272.76 91.9963C265.667 97.6537 257.598 104.73 256.772 112.267C256.064 118.805 264.455 119.676 272.277 119.343C266.912 124.573 252.201 139.485 255.549 144.015C257.319 146.399 263.06 147.194 266.375 147.724C273.678 148.904 281.114 149.477 288.565 149.433C295.969 149.364 303.587 148.775 310.637 146.784C314.371 145.724 318.459 144.271 321.367 142.066C324.811 139.503 322.891 136.742 320.648 134.153C316.817 129.658 313.008 125.069 309.188 120.488Z" fill="#52AF45"/>
<path d="M307.181 91.6973C307.181 91.6973 297.75 91.2102 291.183 91.347L324.446 113.13C324.446 113.13 325.337 110.566 319.457 105.439C313.577 100.312 307.181 91.6973 307.181 91.6973Z" fill="#0D5B23"/>
<path d="M309.188 120.488H289.874L321.485 142.109C321.485 142.109 324.972 140.075 322.869 137.135C320.766 134.195 309.188 120.488 309.188 120.488Z" fill="#0D5B23"/>
<path d="M258.972 178.318V149.629H251.128V178.574C253.686 179.3 256.497 179.208 258.972 178.318V178.318Z" fill="#A83F1E"/>
<path d="M255.838 149.697V179.086C256.928 179.03 257.991 178.794 258.961 178.394V149.697H255.838Z" fill="#7F2B14"/>
<path d="M266 152.304C270.882 152.116 277.127 150.723 275.292 146.39C274.219 143.827 270.893 141.579 268.757 139.554C266.622 137.528 267.105 136.135 264.734 134.178C266.751 134.247 269.691 133.939 270.184 132.35C270.624 130.948 261.193 122.385 257.115 118.916C256.667 118.532 256.052 118.297 255.395 118.259C254.739 118.221 254.088 118.382 253.574 118.71C248.714 121.787 236.31 129.991 238.037 132.384C239.11 133.811 241.192 134.307 243.08 134.435C238.617 137.998 233.531 142.451 233.016 147.194C232.565 151.313 237.855 151.86 242.78 151.646C239.379 154.936 230.14 164.328 232.243 167.182C233.316 168.686 236.943 169.182 239.057 169.515C243.647 170.258 248.322 170.618 253.006 170.592C257.724 170.633 262.418 170.055 266.901 168.883C269.388 168.266 271.694 167.257 273.682 165.918C275.828 164.294 274.637 162.568 273.232 160.935C270.764 158.081 268.371 155.193 266 152.304Z" fill="#67C65C"/>
<path d="M264.701 134.178C264.701 134.178 258.768 133.87 254.626 133.956L275.571 147.672C275.571 147.672 276.129 146.082 272.427 142.809C269.57 140.099 266.987 137.213 264.701 134.178Z" fill="#0D5B23"/>
<path d="M266 152.304H253.778L273.683 165.918C274.285 165.573 274.708 165.064 274.87 164.487C275.032 163.911 274.923 163.306 274.562 162.79C273.232 160.935 266 152.304 266 152.304Z" fill="#0D5B23"/>
<path d="M194.462 213.15V194.674L173.721 185.436V203.767L194.462 213.15Z" fill="#C96336"/>
<path d="M194.462 194.674L214.667 185.436C214.667 185.436 215.225 204.066 214.667 204.356C214.109 204.647 194.462 213.15 194.462 213.15V194.674Z" fill="#E27144"/>
<path d="M214.678 185.436L194.462 175.6L173.7 185.436L194.462 194.674L214.678 185.436Z" fill="#9B4726"/>
<path d="M173.7 185.436L166.189 175.07L187.467 165.105L194.463 175.6L173.7 185.436Z" fill="#E27144"/>
<path d="M214.678 185.436L220.15 176.113L197.799 185.812L194.462 194.674L214.678 185.436Z" fill="#C96336"/>
<path d="M153.699 122.727C153.699 122.727 149.407 118.736 146.371 119.736C143.334 120.736 139.932 129.991 139.932 129.991L146.188 131.811C146.188 131.811 146.896 125.145 148.688 125.145C150.48 125.145 153.699 127.709 153.699 127.709L151.553 130.555L158.163 129.119V122.71L156.371 125.128L153.699 122.727Z" fill="#FDEDCB"/>
<path d="M156.704 131.914C156.704 131.914 159.504 134.58 158.785 136.443C158.066 138.306 154.289 138.417 154.289 138.417L153.764 135.375L150.545 139.366L155.201 144.408V141.716C155.201 141.716 160.899 140.81 161.639 138.631C162.38 136.452 161.811 130.418 161.811 130.418L156.704 131.914Z" fill="#FDEDCB"/>
<path d="M142.24 134.298C142.24 134.298 135.651 139.143 136.145 138.844H139.45C139.45 138.844 137.304 144.98 141.134 146.382C143.592 147.236 149.429 144.553 149.418 144.262C149.407 143.972 148.699 139.135 148.699 139.135C148.699 139.135 144.826 142.596 143.334 142.211C141.843 141.827 142.744 138.793 142.744 138.793L146.199 138.349L142.24 134.298Z" fill="#FDEDCB"/>
<path d="M143.484 24.3306C143.484 24.3306 139.707 37.6792 138.988 39.2259C138.27 40.7727 132.304 48.5836 132.304 48.5836C132.304 48.5836 126.713 51.0106 128.012 51.549C128.441 51.7007 128.905 51.7791 129.374 51.7791C129.844 51.7791 130.308 51.7007 130.737 51.549C130.737 51.549 129.106 56.5739 129.922 57.7447C130.737 58.9155 133.731 59.5052 136.027 58.7275C138.323 57.9498 138.302 52.3779 138.677 51.5576C139.053 50.7372 150.845 34.577 152.025 24.3477C153.206 14.1183 143.484 24.3306 143.484 24.3306Z" fill="#FFC6B2"/>
<path d="M142.379 17.7844C142.379 17.7844 138.72 21.0917 138.667 32.3123C138.667 32.3123 149.236 36.0383 151.414 34.1753L154.043 23.6127" fill="#31AFB4"/>
<path d="M168.356 63.7523C168.356 63.7523 170.652 78.7503 171.951 82.5531C173.249 86.356 174.408 110.481 174.408 110.481C174.408 110.481 178.453 112.78 181.919 110.481C181.919 110.481 183.743 90.9622 182.788 85.7493C181.833 80.5363 182.788 59.9922 182.788 59.9922" fill="#FFC6B2"/>
<path d="M155.062 59.4194C155.062 59.4194 154.6 70.4777 155.062 74.1267C155.523 77.7758 157.508 100.918 157.508 100.918C158.443 101.558 159.634 101.91 160.867 101.91C162.099 101.91 163.291 101.558 164.225 100.918C164.225 100.918 166.436 89.4494 166.21 87.2446C165.985 85.0397 165.481 57.4624 165.481 57.4624" fill="#FFC6B2"/>
<path d="M149.278 5.9314C149.278 5.99122 171.629 8.74297 170.374 14.5541C169.118 20.3653 159.483 18.357 159.483 18.357L148.302 7.81147" fill="#F18F22"/>
<path d="M168.356 119.121C168.029 119.694 167.925 120.332 168.059 120.952C168.193 121.572 168.559 122.146 169.108 122.599C171.039 124.24 173.571 123.454 175.707 122.599C177.842 121.744 183.894 117.471 183.057 116.352C182.22 115.232 181.908 110.515 181.908 110.515" fill="white"/>
<path d="M174.279 108.609C174.279 108.609 173.303 113.053 171.919 114.497C170.535 115.942 167.262 119.471 168.324 120.386C169.387 121.3 170.181 118.557 171.919 119.343C173.657 120.129 173.11 122.095 174.376 121.702C175.642 121.308 181.554 117.565 182.209 115.19C182.863 112.814 181.383 108.626 181.383 108.626" fill="#31AFB4"/>
<path d="M147.132 107.362C147.132 107.362 146.896 110.011 149.911 110.515C152.927 111.019 156.671 109.558 158.356 108.943C160.041 108.327 166.2 104.2 166.2 104.2L165.47 98.4312" fill="white"/>
<path d="M157.261 98.021C157.261 98.021 155.459 101.593 152.197 102.935C148.935 104.277 146.403 106.874 147.132 107.353C147.862 107.832 149.429 106.105 150.265 106.584C151.102 107.062 151.102 109.148 152.133 108.643C153.163 108.139 155.352 109.498 158.345 107.832C161.339 106.165 160.395 105.524 162.927 104.755C165.459 103.986 165.459 98.4141 165.459 98.4141C165.459 98.4141 159.064 99.5507 157.261 98.021Z" fill="#31AFB4"/>
<path d="M154.493 39.3284C152.987 42.9178 152.117 46.657 151.907 50.4379C151.435 57.1378 154.858 96.3375 154.858 96.3375C159.88 97.8257 165.354 98.0553 170.545 96.9955V105.952C170.545 105.952 179.204 108.191 188.668 103.388C188.668 103.388 187.595 43.9004 172.262 32.2781" fill="#F15A24"/>
<path d="M167.948 35.9698C169.557 34.8721 170.998 33.6272 172.24 32.2609C170.565 28.8724 168.611 25.5751 166.393 22.3905C163.056 18.0578 159.708 13.1098 153.098 11.8364C150.426 12.772 147.878 13.9171 145.49 15.2548C144.242 15.9031 143.176 16.7497 142.357 17.7416C142.229 22.0145 142.679 24.715 145.855 27.9026C149.031 31.0901 151.188 36.3629 153.334 39.1745C158.088 40.0889 163.367 38.4395 167.948 35.9698Z" fill="#31AFB4"/>
<path d="M148.559 10.2468L151.413 13.0755C151.413 13.0755 149.868 15.7076 146.875 16.0238L145.008 14.3146" fill="#FFB39C"/>
<path d="M142.229 12.2808C136.746 15.9213 134.074 11.8535 134.074 11.8535C126.563 4.36739 138.537 0.308125 138.537 0.308125C138.537 0.308125 147.862 -2.39235 149.407 8.19591" fill="#F18F22"/>
<path d="M132.808 8.46084C132.808 8.46084 141.327 18.0834 146.049 14.9727C150.77 11.8621 147.712 8.64884 147.712 8.64884C147.712 8.64884 143.42 2.12839 138.226 3.16243C133.033 4.19647 132.808 8.46084 132.808 8.46084Z" fill="#FFC6B2"/>
<path d="M132.808 8.46076C132.808 8.46076 138.645 10.4348 142.089 8.27275C145.533 6.11066 148.527 10.2468 148.527 10.2468C149.245 9.16375 149.559 7.93971 149.431 6.71921C149.304 5.49871 148.741 4.33272 147.808 3.35891C145.995 1.22245 139.299 -0.375613 135.909 1.64974C132.518 3.6751 130.361 6.91397 132.808 8.46076Z" fill="#F18F22"/>
<path d="M166.714 53.2581C166.639 52.7197 165.566 52.7111 165.641 53.2581C167.644 68.2759 169.222 83.3222 170.373 98.3971C170.373 98.944 171.446 98.944 171.446 98.3971C170.295 83.3222 168.717 68.2759 166.714 53.2581Z" fill="#842E13"/>
<path d="M167.852 93.9103V152.261C167.852 153.949 167.298 155.608 166.244 157.073C165.19 158.538 163.672 159.757 161.843 160.61L125.286 177.702C123.277 178.639 120.987 179.127 118.659 179.115C116.331 179.103 114.05 178.591 112.056 177.634L71.8826 158.97V90.4321" fill="#31AFB4"/>
<path opacity="0.17" d="M123.902 92.2695V178.164C124.373 178.003 124.831 177.82 125.275 177.617L161.832 160.525C163.662 159.672 165.179 158.452 166.233 156.988C167.287 155.523 167.841 153.864 167.841 152.176V93.8591L123.902 92.2695Z" fill="white"/>
<path opacity="0.36" d="M71.8826 93.2271V99.0126L116.68 118.232C118.424 119.102 120.439 119.563 122.496 119.563C124.553 119.563 126.569 119.102 128.312 118.232C134.696 115.241 167.852 99.0126 167.852 99.0126V93.8851" fill="black"/>
<path d="M67.8694 91.4493L118.301 113.908C119.782 114.565 121.454 114.899 123.149 114.878C124.844 114.857 126.503 114.481 127.958 113.788L171.951 92.7825C172.935 92.3121 173.746 91.6447 174.305 90.8466C174.864 90.0486 175.151 89.1479 175.137 88.2341C175.123 87.3203 174.808 86.4255 174.225 85.6387C173.641 84.8518 172.809 84.2005 171.811 83.7495L127.657 63.8549C125.823 63.0273 123.746 62.6002 121.638 62.6167C119.53 62.6332 117.464 63.0927 115.65 63.9489L67.7943 86.5355C67.2566 86.7897 66.8124 87.1522 66.5064 87.5865C66.2003 88.0208 66.0432 88.5117 66.0508 89.0097C66.0584 89.5077 66.2305 89.9953 66.5497 90.4235C66.869 90.8518 67.3241 91.2056 67.8694 91.4493V91.4493Z" fill="#31AFB4"/>
<path d="M66.0452 88.7488L66.0559 83.8179L68.953 86.8345L66.0452 88.7488Z" fill="#31AFB4"/>
<path d="M175.031 83.2622V88.4324L172.445 86.7404L175.031 83.2622Z" fill="#31AFB4"/>
<g opacity="0.08">
<path opacity="0.08" d="M67.8703 91.4493L118.301 113.908C119.783 114.565 121.455 114.899 123.15 114.878C124.845 114.857 126.504 114.481 127.959 113.788L171.952 92.7825C172.935 92.3121 173.747 91.6447 174.306 90.8466C174.865 90.0486 175.152 89.1479 175.138 88.2341C175.124 87.3203 174.809 86.4255 174.226 85.6387C173.642 84.8518 172.81 84.2005 171.812 83.7495L127.658 63.8549C125.823 63.0273 123.747 62.6002 121.639 62.6167C119.53 62.6332 117.465 63.0927 115.651 63.9489L67.7952 86.5355C67.2575 86.7897 66.8133 87.1522 66.5072 87.5865C66.2012 88.0208 66.044 88.5117 66.0517 89.0097C66.0593 89.5077 66.2313 89.9953 66.5506 90.4235C66.8698 90.8518 67.325 91.2056 67.8703 91.4493V91.4493Z" fill="black"/>
<path opacity="0.08" d="M66.0452 88.7488L66.0559 83.8179L68.953 86.8345L66.0452 88.7488Z" fill="black"/>
<path opacity="0.08" d="M175.03 83.2622V88.4324L172.444 86.7404L175.03 83.2622Z" fill="black"/>
</g>
<path d="M67.8694 86.3478L118.301 108.806C119.782 109.463 121.454 109.798 123.149 109.777C124.844 109.756 126.503 109.38 127.958 108.687L171.951 87.6809C172.935 87.2105 173.746 86.5431 174.305 85.7451C174.864 84.9471 175.151 84.0463 175.137 83.1325C175.123 82.2188 174.808 81.3239 174.225 80.5371C173.641 79.7503 172.809 79.0989 171.811 78.648L127.657 58.7533C125.823 57.9257 123.746 57.4986 121.638 57.5151C119.53 57.5316 117.464 57.9912 115.65 58.8473L67.7943 81.4339C67.2566 81.6882 66.8124 82.0507 66.5064 82.485C66.2003 82.9193 66.0432 83.4101 66.0508 83.9081C66.0584 84.4061 66.2305 84.8937 66.5497 85.322C66.869 85.7502 67.3241 86.104 67.8694 86.3478V86.3478Z" fill="#31AFB4"/>
<path opacity="0.37" d="M77.151 85.2881L118.633 103.773C119.851 104.317 121.228 104.595 122.625 104.578C124.021 104.562 125.387 104.251 126.584 103.679L162.777 86.3905C163.597 86.0096 164.275 85.4622 164.742 84.8043C165.21 84.1465 165.45 83.4016 165.438 82.6457C165.426 81.8898 165.162 81.1499 164.674 80.5017C164.186 79.8534 163.49 79.3199 162.659 78.9556L126.402 62.5733C124.892 61.8925 123.183 61.5411 121.448 61.5546C119.713 61.5681 118.013 61.946 116.519 62.6502L77.151 81.263C76.7103 81.4688 76.3448 81.7628 76.0909 82.1158C75.837 82.4689 75.7034 82.8687 75.7034 83.2755C75.7034 83.6824 75.837 84.0822 76.0909 84.4352C76.3448 84.7883 76.7103 85.0823 77.151 85.2881V85.2881Z" fill="black"/>
<path d="M67.7943 81.4337L54.5428 37.6108C54.1749 36.3981 54.323 35.1224 54.9639 33.9841C55.6047 32.8457 56.7021 31.909 58.0837 31.321L98.7291 14.0329C99.3342 13.7764 100.005 13.6333 100.69 13.6145C101.375 13.5956 102.056 13.7014 102.682 13.9239C103.308 14.1464 103.862 14.4797 104.302 14.8984C104.742 15.3171 105.056 15.8102 105.221 16.3402L118.097 57.9754L67.7943 81.4337Z" fill="#31AFB4"/>
<path opacity="0.08" d="M67.7943 81.4337L54.5428 37.6108C54.1749 36.3981 54.323 35.1224 54.9639 33.9841C55.6047 32.8457 56.7021 31.909 58.0837 31.321L98.7291 14.0329C99.3342 13.7764 100.005 13.6333 100.69 13.6145C101.375 13.5956 102.056 13.7014 102.682 13.9239C103.308 14.1464 103.862 14.4797 104.302 14.8984C104.742 15.3171 105.056 15.8102 105.221 16.3402L118.097 57.9754L67.7943 81.4337Z" fill="black"/>
<path opacity="0.37" d="M121.97 61.607C120.057 61.5344 118.159 61.9087 116.509 62.6838L77.151 81.2624C76.7085 81.4715 76.343 81.7698 76.0912 82.1272C75.8395 82.4846 75.7104 82.8885 75.7169 83.2983C75.7234 83.7081 75.8654 84.1092 76.1284 84.4614C76.3915 84.8136 76.7664 85.1044 77.2154 85.3046L118.698 103.789C119.717 104.24 120.85 104.506 122.013 104.567L121.97 61.607Z" fill="black"/>
<path d="M78.5966 167.576C83.3235 166.009 85.1265 160.856 82.6237 156.067C80.1209 151.279 74.26 148.667 69.5331 150.234C64.8062 151.801 63.0032 156.954 65.506 161.742C68.0088 166.531 73.8696 169.143 78.5966 167.576Z" fill="#AF4E28"/>
<path d="M64.908 151.68L70.4125 149.979L70.7022 152.552" fill="#AF4E28"/>
<path d="M73.9751 169.019L78.5997 167.567L75.0803 167.148L73.9751 169.019Z" fill="#915200"/>
<path d="M74.2205 169.015C78.9474 167.447 80.7504 162.295 78.2476 157.506C75.7448 152.718 69.8839 150.106 65.157 151.673C60.4301 153.24 58.6271 158.393 61.1299 163.181C63.6327 167.97 69.4935 170.582 74.2205 169.015Z" fill="#C96336"/>
<path d="M72.8574 166.41C76.3096 165.265 77.6275 161.505 75.8011 158.01C73.9746 154.515 69.6955 152.61 66.2433 153.755C62.7911 154.899 61.4732 158.66 63.2996 162.155C65.126 165.649 69.4052 167.554 72.8574 166.41Z" fill="white"/>
<path d="M120.071 26.5695C120.071 26.5695 118.73 29.7144 122.528 30.9279C123.044 31.0902 122.657 32.5772 122.625 32.8507C122.094 36.5662 121.157 40.2377 119.825 43.8235C118.633 47.2418 117.024 50.7627 117.292 54.3007C117.496 57.061 117.85 59.8127 118.247 62.5559C119.009 67.897 119.943 73.2211 120.962 78.528C121.198 79.7814 121.445 81.032 121.702 82.2797C121.702 82.2797 123.677 86.4671 135.533 85.698C147.39 84.9289 148.409 78.5708 148.409 78.5708C148.012 75.5797 147.572 72.5887 147.1 69.6062C146.242 64.1625 145.319 58.7103 144.031 53.3179C143.441 50.8482 143.667 50.7541 142.347 48.404C141.88 47.4863 141.32 46.6003 140.673 45.7548C139.6 44.114 134.804 36.0981 134.235 34.3291C133.752 32.6968 133.291 31.0646 132.883 29.4238C132.883 29.4238 135.78 27.8428 133.216 25.0825" fill="#67C65C"/>
<path d="M127.016 27.989C130.643 27.5816 133.411 26.2852 133.2 25.0934C132.989 23.9017 129.878 23.2659 126.252 23.6734C122.626 24.0808 119.857 25.3772 120.068 26.569C120.279 27.7607 123.39 28.3965 127.016 27.989Z" fill="#67412E"/>
<path d="M120.683 54.9073L122.968 67.8457C123.322 69.871 128.108 69.3327 127.754 67.3073L125.436 54.3689C125.103 52.3436 120.318 52.8734 120.683 54.9073Z" fill="#FEFEFE"/>
<path d="M126.166 70.3499C123.086 70.6918 123.644 73.8452 126.724 73.4948C129.803 73.1444 129.245 69.9996 126.166 70.3499Z" fill="#FEFEFE"/>
<path d="M153.538 25.6379C153.538 25.6379 149.761 38.9694 149.053 40.5333C148.345 42.0972 142.368 49.8909 142.368 49.8909C142.368 49.8909 136.778 52.318 138.076 52.8563C138.505 53.008 138.969 53.0864 139.439 53.0864C139.908 53.0864 140.372 53.008 140.802 52.8563C140.802 52.8563 139.171 57.8813 139.986 59.0521C140.802 60.2228 143.795 60.8125 146.091 60.0348C148.388 59.2572 148.366 53.6853 148.742 52.8649C149.117 52.0445 160.845 35.8673 162.036 25.6379C163.227 15.4086 153.538 25.6379 153.538 25.6379Z" fill="#FFC6B2"/>
<path d="M151.489 19.6561C151.489 19.6561 149.847 11.6828 156.092 11.8367C162.337 11.9905 164.386 16.9129 165.405 19.6561C166.425 22.3993 161.918 33.2183 161.918 33.2183L149.321 28.9967L151.489 19.6561Z" fill="#31AFB4"/>
<path opacity="0.37" d="M156.285 39.3883L159.365 32.3294L161.908 33.184L164.869 24.6382V37.4569C164.869 37.4569 160.148 40.5163 156.285 39.3883Z" fill="black"/>
<path d="M150.909 32.8421C149.773 29.706 148.855 26.5221 148.162 23.305C148.044 22.7666 147.014 22.9973 147.089 23.5357C147.782 26.7528 148.699 29.9368 149.836 33.0728C149.875 33.1862 149.968 33.2827 150.096 33.3412C150.224 33.3997 150.375 33.4154 150.518 33.3848C150.66 33.3542 150.781 33.2798 150.855 33.178C150.928 33.0763 150.948 32.9554 150.909 32.8421Z" fill="#328896"/>
<defs>
<linearGradient id="paint0_linear_809:2928" x1="139.353" y1="160.824" x2="150.835" y2="149.126" gradientUnits="userSpaceOnUse">
<stop stop-opacity="0.03"/>
<stop offset="0.97" stop-color="#7F4A00"/>
</linearGradient>
<linearGradient id="paint1_linear_809:2928" x1="170.324" y1="220.62" x2="174.177" y2="213.271" gradientUnits="userSpaceOnUse">
<stop stop-color="white" stop-opacity="0"/>
<stop offset="0.99" stop-color="#FFA86A"/>
</linearGradient>
<linearGradient id="paint2_linear_809:2928" x1="19258.5" y1="5449.85" x2="19494.2" y2="4888.31" gradientUnits="userSpaceOnUse">
<stop stop-opacity="0.03"/>
<stop offset="0.97" stop-color="#7F4A00"/>
</linearGradient>
<linearGradient id="paint3_linear_809:2928" x1="79.8536" y1="186.689" x2="85.2567" y2="175.726" gradientUnits="userSpaceOnUse">
<stop stop-color="white" stop-opacity="0"/>
<stop offset="0.99" stop-color="#FFA86A"/>
</linearGradient>
</defs>
</svg>
