<svg width="197" height="150" viewBox="0 0 197 150" fill="none" xmlns="http://www.w3.org/2000/svg">
<path d="M38.6879 127.218C-37.3029 72.3601 15.9416 25.2318 52.0627 8.5249C60.3424 21.3764 89.7306 41.7368 141.046 20.3666C192.362 -1.00356 187.904 57.7278 179.26 89.7647C164.066 125.106 114.679 182.075 38.6879 127.218Z" fill="#E0F6F6"/>
<g clip-path="url(#clip0_599:2226)">
<path opacity="0.1" d="M112.714 126.761C132.74 126.761 148.974 123.193 148.974 118.791C148.974 114.39 132.74 110.822 112.714 110.822C92.6881 110.822 76.454 114.39 76.454 118.791C76.454 123.193 92.6881 126.761 112.714 126.761Z" fill="#31AFB4"/>
<g opacity="0.1">
<path opacity="0.1" d="M124.067 94.6044C124.067 94.6044 128.025 85.2262 135.418 81.7481C138.521 80.2875 141.086 77.9464 142.658 74.9903C143.4 73.5896 144.007 72.1221 144.473 70.6072" stroke="#535461" stroke-width="2.07681" stroke-miterlimit="10"/>
<path opacity="0.1" d="M149.123 68.3882C148.36 69.3207 144.365 70.6774 144.365 70.6774C144.365 70.6774 144.844 66.6362 145.614 65.7053C145.996 65.2563 146.536 64.9707 147.122 64.9074C147.708 64.8441 148.296 65.0078 148.764 65.365C148.993 65.5352 149.184 65.7502 149.327 65.9968C149.47 66.2434 149.56 66.5165 149.594 66.7995C149.628 67.0824 149.603 67.3692 149.522 67.6423C149.441 67.9155 149.305 68.1693 149.123 68.3882V68.3882Z" fill="#31AFB4"/>
<path opacity="0.1" d="M147.754 75.7641C146.581 76.1426 142.465 75.2009 142.465 75.2009C142.465 75.2009 145.152 72.0586 146.326 71.6801C146.882 71.4935 147.49 71.5305 148.019 71.7834C148.549 72.0363 148.96 72.4852 149.164 73.0353C149.256 73.3069 149.292 73.5941 149.27 73.8798C149.248 74.1656 149.169 74.4441 149.038 74.6987C148.906 74.9533 148.725 75.1788 148.504 75.3618C148.284 75.5448 148.029 75.6817 147.754 75.7641V75.7641Z" fill="#31AFB4"/>
<path opacity="0.1" d="M140.334 84.483C139.122 84.2403 136.061 81.4307 136.061 81.4307C136.061 81.4307 140.029 80.022 141.25 80.2647C141.533 80.3146 141.803 80.4206 142.045 80.5764C142.286 80.7322 142.494 80.9347 142.656 81.1719C142.818 81.4092 142.932 81.6765 142.989 81.9581C143.047 82.2397 143.047 82.53 142.991 82.8118C142.733 83.9839 141.546 84.7241 140.334 84.483Z" fill="#31AFB4"/>
<path opacity="0.1" d="M133.175 89.8628C131.937 89.8216 128.429 87.5476 128.429 87.5476C128.429 87.5476 132.091 85.5148 133.332 85.5636C133.621 85.5676 133.905 85.6284 134.17 85.7426C134.435 85.8568 134.674 86.0222 134.875 86.2292C135.076 86.4362 135.234 86.6808 135.34 86.9489C135.446 87.217 135.498 87.5035 135.493 87.7918C135.449 88.9746 134.411 89.9055 133.175 89.8628Z" fill="#31AFB4"/>
<path opacity="0.1" d="M138.632 72.5652C138.785 73.7449 141.471 76.8919 141.471 76.8919C141.471 76.8919 143.235 73.1955 143.078 72.0082C142.921 70.8208 141.796 69.9952 140.569 70.1462C140.282 70.1754 140.004 70.2615 139.75 70.3994C139.497 70.5373 139.274 70.7243 139.093 70.9495C138.913 71.1747 138.779 71.4336 138.7 71.711C138.621 71.9884 138.598 72.2788 138.632 72.5652Z" fill="#31AFB4"/>
<path opacity="0.1" d="M130.342 78.9599C130.86 80.0404 134.397 82.2732 134.397 82.2732C134.397 82.2732 134.932 78.2365 134.413 77.156C134.149 76.6309 133.692 76.2281 133.138 76.0316C132.584 75.8351 131.976 75.8601 131.44 76.1014C131.176 76.2121 130.937 76.375 130.738 76.5804C130.539 76.7858 130.383 77.0293 130.281 77.2964C130.178 77.5635 130.131 77.8485 130.142 78.1344C130.152 78.4203 130.22 78.7011 130.342 78.9599Z" fill="#31AFB4"/>
<path opacity="0.1" d="M123.171 86.2382C123.491 87.3874 126.586 90.1635 126.586 90.1635C126.586 90.1635 127.821 86.2718 127.502 85.1272C127.333 84.565 126.952 84.091 126.439 83.8059C125.926 83.5209 125.322 83.4474 124.755 83.601C124.476 83.6667 124.213 83.7877 123.981 83.9568C123.75 84.1259 123.554 84.3396 123.407 84.5854C123.259 84.8312 123.162 85.1041 123.122 85.388C123.081 85.6718 123.098 85.9609 123.171 86.2382V86.2382Z" fill="#31AFB4"/>
<path opacity="0.25" d="M149.123 68.3882C148.36 69.3207 144.365 70.6774 144.365 70.6774C144.365 70.6774 144.844 66.6362 145.614 65.7053C145.996 65.2563 146.536 64.9707 147.122 64.9074C147.708 64.8441 148.296 65.0078 148.764 65.365C148.993 65.5352 149.184 65.7502 149.327 65.9968C149.47 66.2434 149.56 66.5165 149.594 66.7995C149.628 67.0824 149.603 67.3692 149.522 67.6423C149.441 67.9155 149.305 68.1693 149.123 68.3882V68.3882Z" fill="black"/>
<path opacity="0.25" d="M147.754 75.7641C146.581 76.1426 142.465 75.2009 142.465 75.2009C142.465 75.2009 145.152 72.0586 146.326 71.6801C146.882 71.4935 147.49 71.5305 148.019 71.7834C148.549 72.0363 148.96 72.4852 149.164 73.0353C149.256 73.3069 149.292 73.5941 149.27 73.8798C149.248 74.1656 149.169 74.4441 149.038 74.6987C148.906 74.9533 148.725 75.1788 148.504 75.3618C148.284 75.5448 148.029 75.6817 147.754 75.7641V75.7641Z" fill="black"/>
<path opacity="0.25" d="M140.334 84.483C139.122 84.2403 136.061 81.4307 136.061 81.4307C136.061 81.4307 140.029 80.022 141.25 80.2647C141.533 80.3146 141.803 80.4206 142.045 80.5764C142.286 80.7322 142.494 80.9347 142.656 81.1719C142.818 81.4092 142.932 81.6765 142.989 81.9581C143.047 82.2397 143.047 82.53 142.991 82.8118C142.733 83.9839 141.546 84.7241 140.334 84.483Z" fill="black"/>
<path opacity="0.25" d="M133.175 89.8628C131.937 89.8216 128.429 87.5476 128.429 87.5476C128.429 87.5476 132.091 85.5148 133.332 85.5636C133.621 85.5676 133.905 85.6284 134.17 85.7426C134.435 85.8568 134.674 86.0222 134.875 86.2292C135.076 86.4362 135.234 86.6808 135.34 86.9489C135.446 87.217 135.498 87.5035 135.493 87.7918C135.449 88.9746 134.411 89.9055 133.175 89.8628Z" fill="black"/>
<path opacity="0.25" d="M138.632 72.5652C138.785 73.7449 141.471 76.8919 141.471 76.8919C141.471 76.8919 143.235 73.1955 143.078 72.0082C142.921 70.8208 141.796 69.9952 140.569 70.1462C140.282 70.1754 140.004 70.2615 139.75 70.3994C139.497 70.5373 139.274 70.7243 139.093 70.9495C138.913 71.1747 138.779 71.4336 138.7 71.711C138.621 71.9884 138.598 72.2788 138.632 72.5652Z" fill="black"/>
<path opacity="0.25" d="M130.342 78.9599C130.86 80.0404 134.397 82.2732 134.397 82.2732C134.397 82.2732 134.932 78.2365 134.413 77.156C134.149 76.6309 133.692 76.2281 133.138 76.0316C132.584 75.8351 131.976 75.8601 131.44 76.1014C131.176 76.2121 130.937 76.375 130.738 76.5804C130.539 76.7858 130.383 77.0293 130.281 77.2964C130.178 77.5635 130.131 77.8485 130.142 78.1344C130.152 78.4203 130.22 78.7011 130.342 78.9599Z" fill="black"/>
<path opacity="0.25" d="M123.171 86.2382C123.491 87.3874 126.586 90.1635 126.586 90.1635C126.586 90.1635 127.821 86.2718 127.502 85.1272C127.333 84.565 126.952 84.091 126.439 83.8059C125.926 83.5209 125.322 83.4474 124.755 83.601C124.476 83.6667 124.213 83.7877 123.981 83.9568C123.75 84.1259 123.554 84.3396 123.407 84.5854C123.259 84.8312 123.162 85.1041 123.122 85.388C123.081 85.6718 123.098 85.9609 123.171 86.2382V86.2382Z" fill="black"/>
</g>
<g opacity="0.1">
<path opacity="0.1" d="M127.035 80.4068C127.035 80.4068 127.534 70.2961 133.308 64.657C135.731 62.2914 137.344 59.2605 137.802 55.9747C138.019 54.4138 138.086 52.8357 138.004 51.262" stroke="#535461" stroke-width="2.07681" stroke-miterlimit="10"/>
<path opacity="0.1" d="M141.617 47.6876C141.213 48.8109 137.918 51.3657 137.918 51.3657C137.918 51.3657 136.978 47.3977 137.382 46.2744C137.593 45.7245 138.01 45.2782 138.544 45.03C139.078 44.7819 139.688 44.7515 140.244 44.9451C140.517 45.0313 140.769 45.1713 140.987 45.3569C141.205 45.5426 141.383 45.77 141.511 46.0258C141.639 46.2816 141.714 46.5604 141.733 46.8459C141.751 47.1314 141.712 47.4176 141.617 47.6876V47.6876Z" fill="#31AFB4"/>
<path opacity="0.1" d="M142.876 55.0818C141.901 55.8129 137.687 56.2356 137.687 56.2356C137.687 56.2356 139.14 52.4202 140.116 51.6831C140.588 51.3312 141.178 51.1739 141.763 51.2434C142.348 51.313 142.884 51.6041 143.261 52.057C143.442 52.2778 143.576 52.5331 143.654 52.8074C143.733 53.0816 143.755 53.3691 143.719 53.6521C143.683 53.9352 143.59 54.208 143.445 54.4538C143.3 54.6996 143.107 54.9133 142.876 55.0818V55.0818Z" fill="#31AFB4"/>
<path opacity="0.1" d="M138.884 65.6704C137.663 65.823 133.802 64.1442 133.802 64.1442C133.802 64.1442 137.062 61.5497 138.289 61.3971C139.516 61.2445 140.644 62.0671 140.809 63.2453C140.844 63.5312 140.821 63.8213 140.743 64.0986C140.665 64.3759 140.533 64.6349 140.354 64.8606C140.175 65.0862 139.953 65.274 139.7 65.413C139.448 65.5521 139.171 65.6395 138.884 65.6704V65.6704Z" fill="#31AFB4"/>
<path opacity="0.1" d="M133.987 73.0309C132.804 73.3865 128.709 72.3594 128.709 72.3594C128.709 72.3594 131.467 69.2735 132.648 68.9179C133.208 68.7426 133.814 68.792 134.338 69.0558C134.862 69.3196 135.263 69.7769 135.456 70.3311C135.542 70.6048 135.572 70.893 135.544 71.1785C135.516 71.464 135.431 71.741 135.294 71.9929C135.157 72.2449 134.971 72.4666 134.746 72.6449C134.521 72.8233 134.263 72.9545 133.987 73.0309V73.0309Z" fill="#31AFB4"/>
<path opacity="0.1" d="M133.167 54.972C133.724 56.0403 137.338 58.1494 137.338 58.1494C137.338 58.1494 137.729 54.099 137.172 53.0353C136.889 52.5198 136.419 52.1329 135.858 51.9548C135.298 51.7766 134.691 51.8209 134.162 52.0784C133.903 52.1982 133.67 52.3694 133.478 52.5815C133.287 52.7936 133.14 53.0424 133.047 53.3127C132.954 53.5831 132.917 53.8695 132.937 54.1547C132.958 54.4398 133.036 54.7178 133.167 54.972V54.972Z" fill="#31AFB4"/>
<path opacity="0.1" d="M127.552 63.6481C128.415 64.5012 132.521 65.4795 132.521 65.4795C132.521 65.4795 131.633 61.5024 130.771 60.6477C130.348 60.2368 129.785 60.0029 129.195 59.9942C128.606 59.9854 128.036 60.2023 127.601 60.6004C127.391 60.7932 127.222 61.0268 127.105 61.287C126.988 61.5472 126.925 61.8285 126.921 62.1138C126.916 62.399 126.97 62.6822 127.079 62.946C127.187 63.2098 127.348 63.4487 127.552 63.6481V63.6481Z" fill="#31AFB4"/>
<path opacity="0.1" d="M123.304 72.8004C124.003 73.7817 127.882 75.4131 127.882 75.4131C127.882 75.4131 127.705 71.349 127.006 70.3661C126.658 69.8913 126.14 69.5682 125.561 69.4637C124.981 69.3592 124.383 69.4812 123.891 69.8045C123.65 69.9574 123.442 70.1579 123.281 70.3937C123.12 70.6296 123.008 70.8958 122.953 71.1761C122.898 71.4564 122.901 71.745 122.961 72.0243C123.021 72.3036 123.138 72.5676 123.304 72.8004Z" fill="#31AFB4"/>
</g>
<path d="M121.846 23.6645L127.287 24.7145C127.287 24.7145 117.796 23.8186 114.956 23.9682C112.115 24.1178 105.712 27.6935 105.712 27.6935C105.712 27.6935 102.694 28.6535 99.1096 32.0217C98.2405 32.8395 97.4249 33.7122 96.6677 34.6345C93.8123 38.0958 90.9447 43.1687 89.1713 50.5064C88.9881 51.2563 88.8182 52.0295 88.6615 52.8262C88.3441 54.4393 88.077 56.1501 87.8725 57.9693C87.7769 58.8097 87.695 59.6745 87.6268 60.5638C87.5627 61.4103 87.5118 62.2792 87.4742 63.1704C87.4365 64.018 87.4131 64.8828 87.404 65.7649C87.3887 66.9512 87.3979 68.1721 87.4315 69.4277C87.4538 70.266 87.4884 71.1202 87.5352 71.9901C87.5352 72.0252 87.5352 72.0603 87.5352 72.0954C87.8542 78.0184 88.5944 83.0394 89.6184 87.2928C89.7253 87.7338 89.8336 88.1673 89.9465 88.5915C90.4577 90.5529 91.0846 92.4823 91.8237 94.3695C91.9519 94.6992 92.0847 95.0227 92.2175 95.3387C92.5298 96.0773 92.8508 96.7829 93.1805 97.4554C93.4521 98.0079 93.7289 98.538 94.0107 99.0457C94.0656 99.1494 94.1236 99.2517 94.1816 99.3509C94.319 99.5951 94.4579 99.8332 94.5983 100.065C99.5018 108.247 105.51 110.249 107.909 110.734C108.242 110.8 108.505 110.838 108.685 110.861H108.7C108.877 110.881 108.973 110.886 108.973 110.886C109.538 113.04 108.459 113.907 107.158 114.222C106.947 114.273 106.733 114.31 106.517 114.335V114.335C105.666 114.417 104.808 114.383 103.966 114.232C103.966 114.232 98.1267 114.49 91.9962 114.637C91.5383 114.649 91.0713 114.658 90.6074 114.669L90.0931 114.678C86.9217 114.742 83.8358 114.763 81.571 114.696C80.5027 114.664 79.6206 114.611 79.0102 114.533C74.3752 113.933 75.7213 110.945 77.1421 108.627C78.3631 106.634 77.7526 103.09 75.7564 97.2341C75.4329 96.2859 75.0727 95.2761 74.6759 94.2047C72.4798 88.2527 72.608 79.3583 73.1238 71.8283C73.1909 70.8332 73.2657 69.8641 73.3436 68.9286C73.4382 67.7809 73.5359 66.6836 73.6289 65.655C74.0456 61.0689 75.3947 56.1273 76.8339 52.1516C77.0374 51.5778 77.2454 51.0258 77.4581 50.4958C78.0496 48.9508 78.7356 47.4437 79.5123 45.9829C79.6786 45.6777 79.8358 45.4152 79.9808 45.1893L80.112 44.9802C80.3638 44.5743 80.6279 44.1103 80.898 43.6067C81.2933 42.8635 81.7038 42.0287 82.1082 41.1649C83.1399 38.9611 84.1426 36.5528 84.8019 34.9076C85.2857 33.7157 85.5848 32.9313 85.5848 32.9313C85.527 32.61 85.4161 32.3005 85.2567 32.0156C82.7431 27.4219 68.173 24.7832 68.173 24.7832L60.8719 25.3097L46.3521 26.3536L62.2057 23.959L64.6613 23.5882C64.6613 23.5882 63.947 23.5119 62.8925 23.3409C60.8001 23.0021 57.3587 22.2894 55.4708 21.0517C53.9645 20.0613 45.9781 19.637 38.8144 19.4569V17.6347L40.1513 18.587L55.5425 18.8174L48.0644 9.24542L57.9294 19.3333C59.48 19.6385 62.4636 20.3482 65.8975 21.183C68.2599 21.7599 70.8376 22.3963 73.3054 23.0144C79.3581 24.5283 84.7515 25.914 84.7515 25.914C84.4938 22.1131 83.423 18.4118 81.6116 15.0604C79.8001 11.709 77.2902 8.78552 74.2516 6.48766L65.8166 0.0961447H67.999C74.2486 3.81995 83.642 11.263 83.642 11.263C83.642 11.263 83.4894 7.14238 82.1601 0.0961447H85.0384C85.072 0.457842 85.1163 0.816488 85.1682 1.17513C86.2945 8.85778 86.8561 17.914 86.8561 17.914C87.8282 24.4901 90.4441 18.8861 90.4441 18.8861C90.2167 11.408 93.2278 4.43499 95.633 0.0961447H98.8181C97.3469 3.09503 97.8367 5.28506 97.8367 5.28506C102.72 1.64366 106.597 0.416636 109.251 0.0961447C110.231 -0.0326993 111.225 -0.0326993 112.205 0.0961447C112.582 0.1402 112.953 0.225673 113.31 0.351012C103.447 0.808857 96.422 8.27174 96.422 8.27174C95.6406 8.46708 93.6658 14.5732 92.8264 22.3261C92.7028 23.4661 92.6036 24.6397 92.5364 25.8362C92.3121 29.8378 92.8142 31.4662 93.4613 32.0217C93.9374 32.4292 94.4914 32.2583 94.8943 32.0217C95.0968 31.9008 95.2839 31.7558 95.4514 31.5898C96.9867 29.0182 102.818 26.0957 108.128 23.8553C109.249 23.3822 110.348 22.9396 111.378 22.5382C113.142 21.8409 114.718 20.7399 115.98 19.3236C117.241 17.9072 118.153 16.2149 118.643 14.3824C120.375 8.0306 123.624 8.27784 123.624 8.27784C119.809 11.1928 120.038 20.0124 120.038 20.0124L132.664 17.3432C126.661 18.9517 116.824 22.6969 116.824 22.6969L121.845 23.6645H121.846Z" fill="#DEA3A2"/>
<path d="M135.955 16.6443L132.664 17.3387C134.002 16.9861 135.151 16.7267 135.955 16.6443Z" fill="#DEA3A2"/>
<path opacity="0.1" d="M98.1223 106.817C98.1223 106.817 95.3447 105.172 91.5385 105.994C87.7323 106.817 81.9024 106.38 81.3713 106.29L98.1223 106.817Z" fill="black"/>
<path opacity="0.1" d="M85.939 62.0671C85.939 62.0671 85.0141 76.6755 86.6593 79.5553L85.939 62.0671Z" fill="black"/>
<path opacity="0.1" d="M82.522 79.5583C82.522 79.5583 83.7094 93.2418 84.5305 95.9156C85.3515 98.5895 82.522 79.5583 82.522 79.5583Z" fill="black"/>
<path opacity="0.1" d="M81.3634 45.9158C80.524 46.221 76.9223 53.5282 77.6427 55.6831C78.363 57.8381 81.3634 45.9158 81.3634 45.9158Z" fill="black"/>
<path opacity="0.1" d="M90.4916 38.334C90.1009 38.5125 88.4268 42.7186 88.761 43.9624C89.0952 45.2062 90.4916 38.334 90.4916 38.334Z" fill="black"/>
<path opacity="0.1" d="M74.9033 62.8652C75.3184 67.1079 75.5443 69.8855 75.2803 73.2797C75.0564 75.9177 75.0942 78.5714 75.3932 81.2019L74.9033 62.8652Z" fill="black"/>
<path opacity="0.1" d="M119.989 13.4758C119.482 14.0542 119.311 14.8494 119.287 15.6247C119.262 16.3999 119.362 17.1645 119.311 17.9322C119.258 18.7395 118.875 19.6873 118.072 19.7956L119.989 13.4758Z" fill="black"/>
<path opacity="0.1" d="M84.6801 28.9161C84.256 28.5668 83.8043 28.2524 83.3295 27.976C82.8951 27.7107 82.427 27.5054 81.9376 27.3656C81.1928 27.1687 80.4115 27.1962 79.6484 27.1168C78.8853 27.0374 78.0795 26.8238 77.556 26.2576L84.6801 28.9161Z" fill="black"/>
<path opacity="0.1" d="M54.2944 19.4753C55.2101 19.4998 56.1471 19.5318 56.956 19.9484C57.3696 20.1606 57.7282 20.4658 58.1326 20.6902C58.6575 20.9817 59.2477 21.1355 59.848 21.1373L54.2944 19.4753Z" fill="black"/>
<path opacity="0.1" d="M66.9018 23.2266C66.7065 23.074 66.4104 23.1915 66.2486 23.3792C66.0868 23.5669 65.9968 23.808 65.8289 23.9896C65.4977 24.3483 64.956 24.3895 64.4676 24.4063L66.9018 23.2266Z" fill="black"/>
<path opacity="0.1" d="M72.1013 3.91162L72.9757 4.36947C73.8685 4.83647 74.7674 5.30805 75.5519 5.93988L72.1013 3.91162Z" fill="black"/>
<path opacity="0.1" d="M82.0854 12.4549C82.6607 12.3191 83.1537 12.9311 83.2575 13.5141C83.3612 14.0971 83.2407 14.7075 83.4101 15.2737C83.5551 15.7758 83.9091 16.1894 84.2708 16.5649L82.0854 12.4549Z" fill="black"/>
<path opacity="0.1" d="M91.807 13.5232C92.3289 15.0829 91.2209 16.7861 91.546 18.3992C91.6437 18.8907 91.8726 19.3485 91.9886 19.8354C92.2938 21.1188 91.7704 22.4863 90.931 23.4981L91.807 13.5232Z" fill="black"/>
<path d="M111.748 93.2372C112.083 92.9398 112.448 92.6793 112.839 92.4604C112.891 92.435 112.94 92.4095 112.985 92.3841L111.931 93.1472C111.931 93.1472 111.874 93.222 111.792 93.3593L111.758 93.4173L111.723 93.4784L111.646 93.631C111.619 93.5772 111.594 93.5172 111.57 93.4598C111.562 93.4423 111.555 93.425 111.548 93.4082C111.613 93.3486 111.681 93.2906 111.748 93.2372Z" fill="url(#paint0_linear_599:2226)"/>
<path d="M146.059 118.641C146.059 118.641 148.348 119.691 147.416 120.803C146.483 121.914 139.632 122.654 138.344 122.468C137.056 122.281 123.594 117.901 123.594 117.901C123.594 117.901 122.606 116.606 123.718 116.482C124.829 116.358 129.517 116.975 129.517 116.975L135.936 117.346L146.059 118.641Z" fill="#535184"/>
<path d="M123.703 95.4379L126.712 102.055L130.738 98.1209L127.775 93.3547L123.703 95.4379Z" fill="#FFB9B9"/>
<path opacity="0.05" d="M130.738 98.1209L127.694 101.095L126.712 102.055L126.124 100.766L124.442 97.0648L123.703 95.4379L124.761 94.8961L127.775 93.3547L128.903 95.1693L129.684 96.4254L130.738 98.1209Z" fill="black"/>
<path d="M119.893 72.2327C118.831 73.0748 117.841 74.0033 116.932 75.0088C116.874 75.0729 116.819 75.1355 116.766 75.198C116.25 75.7872 115.782 76.417 115.368 77.0813C115.057 77.5801 114.792 78.1063 114.577 78.6532C113.959 80.2618 114.212 81.1821 114.212 81.1821C112.457 79.6877 110.78 78.1046 109.187 76.4388C106.614 73.7024 104.495 70.7127 106.992 70.2579C110.075 69.6978 112.639 67.7871 114.058 66.5127C114.482 66.1391 114.884 65.7411 115.262 65.3208C115.262 65.3208 126.557 66.8653 119.893 72.2327Z" fill="#FFB9B9"/>
<path d="M108.938 105.991L115.694 104.231C115.694 104.231 121.799 101.918 122.174 101.87C122.55 101.823 134.95 98.635 134.95 98.635L129.071 111.684L115.139 116.451L106.855 115.664L108.938 105.991Z" fill="#FFB9B9"/>
<path opacity="0.1" d="M108.938 105.991L115.694 104.231C115.694 104.231 121.799 101.918 122.174 101.87C122.55 101.823 134.95 98.635 134.95 98.635L129.071 111.684L115.139 116.451L106.855 115.664L108.938 105.991Z" fill="black"/>
<path d="M110.046 73.0905C109.863 72.074 109.515 69.8108 109.893 69.1469C109.893 69.1469 109.338 69.0858 107.299 69.4521C105.26 69.8184 101.994 69.6383 101.994 69.6383C101.994 69.6383 97.1196 68.7119 95.0211 74.0199C95.0211 74.0199 93.7865 80.068 92.4908 81.672C91.1951 83.276 91.0715 85.5606 91.0715 85.5606C91.0715 85.5606 90.3923 88.2757 89.7132 88.8922C89.034 89.5088 89.4079 90.4352 89.4079 90.4352C89.4079 90.4352 88.6052 91.2379 88.6678 91.7324C88.7303 92.2269 88.2359 93.3364 88.2359 93.3364C88.2359 93.3364 87.7444 94.5146 87.9856 95.067C88.2267 95.6195 87.0592 97.5974 87.0592 97.5974L107.981 101.979L113.536 84.5137L113.66 77.2324C113.66 77.2324 110.608 76.9486 110.182 73.9924C110.138 73.6902 110.1 73.3896 110.046 73.0905Z" fill="#787C9C"/>
<path opacity="0.1" d="M92.738 90.8091L91.9963 92.1674C91.9963 92.1674 96.4405 93.4631 98.0445 93.0312C99.6485 92.5993 104.837 89.0815 104.837 89.0815L92.738 90.8091Z" fill="black"/>
<path d="M96.1382 98.0247C96.1382 98.0247 91.8802 97.1609 91.2011 97.1609C90.5219 97.1609 87.1888 96.8557 87.1888 96.8557C87.1888 96.8557 86.1404 99.0778 86.2014 100.187C86.2624 101.297 85.4551 103.214 85.4551 103.214C85.4551 103.214 82.1846 112.903 91.9962 115.063C101.808 117.222 107.61 117.469 107.61 117.469C107.61 117.469 110.815 108.398 111.436 107.163C112.057 105.929 111.868 105.065 108.969 105.312C106.069 105.559 96.1382 98.0247 96.1382 98.0247Z" fill="#4C4C78"/>
<path d="M129.904 96.4101L129.685 96.4268C129.433 96.4452 128.984 96.4787 128.444 96.526C127.609 96.6024 126.556 96.7092 125.662 96.8389C125.19 96.9091 124.767 96.9839 124.441 97.0648C124.042 97.1625 123.795 97.2693 123.795 97.3822C123.795 97.663 121.353 92.6923 118.941 87.714C118.863 87.5507 118.788 87.389 118.706 87.2272C118.623 87.0654 118.553 86.9098 118.474 86.7526C118.341 86.4748 118.208 86.1986 118.075 85.9269C117.483 84.706 116.911 83.5141 116.396 82.4488L116.116 81.8689L114.574 78.6533L114.255 77.9879C114.255 77.9879 114.646 77.5193 115.151 76.9364C115.656 76.3534 116.277 75.659 116.74 75.1965H116.758C117.144 75.2851 123.127 76.6662 124.111 78.7723C124.401 79.4598 124.649 80.1647 124.851 80.883C124.926 81.1287 125.004 81.3881 125.08 81.6567C125.385 82.7449 125.723 83.9856 126.033 85.1959C126.094 85.4324 126.153 85.669 126.213 85.8994C126.872 88.5153 127.397 90.806 127.397 90.806L128.992 94.3787L129.904 96.4101Z" fill="#787C9C"/>
<path d="M134.255 96.1322C134.255 96.1322 132.882 100.833 132.271 102.65C132.201 102.893 132.108 103.128 131.994 103.352C131.827 103.519 130.675 104.334 129.491 104.5C129.308 104.527 129.123 104.535 128.938 104.525C128.665 104.512 128.398 104.444 128.152 104.325C126.67 103.583 125.652 101.64 125.652 101.64L126.13 100.766L126.872 99.4089L128.45 96.526L128.615 96.2208C128.737 95.8763 128.835 95.524 128.909 95.1662C128.964 94.907 128.996 94.6435 129.005 94.3787C129.035 94.0681 128.963 93.7562 128.799 93.4905C128.244 92.7503 128.198 79.836 131.531 81.6872C134.864 83.5384 134.255 96.1322 134.255 96.1322Z" fill="#FFB9B9"/>
<path d="M134.77 98.7785L134.95 98.6259C134.95 98.6259 138.281 98.5343 138.976 99.5523C139.67 100.57 142.541 103.163 140.735 106.078C139.658 107.823 138.163 109.27 136.384 110.29C136.384 110.29 126.849 115.659 125.091 116.169C123.333 116.679 117.037 117.326 117.037 117.326C117.037 117.326 115.053 118.76 114.26 118.806C113.466 118.852 111.159 120.566 111.159 120.566C111.159 120.566 108.613 121.399 110.512 117.971C112.41 114.544 112.648 113.851 112.648 113.851C112.648 113.851 114.454 114.87 115.472 113.851C116.49 112.831 122.692 108.946 122.692 108.946C122.692 108.946 126.661 105.759 127.452 105.35C128.242 104.941 133.237 102.11 133.237 102.11C133.222 101.475 133.352 100.844 133.617 100.267C133.883 99.6891 134.277 99.1801 134.77 98.7785Z" fill="#FFB9B9"/>
<path opacity="0.05" d="M140.735 106.083C139.658 107.827 138.163 109.275 136.384 110.295C136.384 110.295 135.852 110.6 135.011 111.058C132.326 112.549 126.521 115.733 125.121 116.161L125.089 116.171C123.331 116.679 117.036 117.327 117.036 117.327C117.036 117.327 115.052 118.762 114.258 118.808C113.465 118.854 111.157 120.567 111.157 120.567C111.157 120.567 108.612 121.401 110.51 117.973C112.409 114.545 112.647 113.852 112.647 113.852C112.647 113.852 114.452 114.872 115.47 113.852C116.488 112.833 122.69 108.947 122.69 108.947C122.69 108.947 122.979 108.715 123.418 108.366C124.604 107.427 126.884 105.64 127.458 105.336C127.681 105.217 128.244 104.905 128.938 104.518C129.077 104.441 129.222 104.358 129.37 104.277C130.352 103.728 131.484 103.088 132.27 102.644L133.242 102.096C133.242 102.064 133.242 102.032 133.242 102C133.242 101.382 133.38 100.771 133.646 100.213C133.911 99.6541 134.298 99.1616 134.777 98.771L134.957 98.6183C134.957 98.6183 138.289 98.5268 138.983 99.5447C139.678 100.563 142.541 103.168 140.735 106.083Z" fill="black"/>
<path d="M106.974 119.023L108.958 121.517C108.958 121.517 110.789 121.398 112.186 116.658C113.582 111.917 111.775 111.441 111.775 111.441C111.775 111.441 109.152 112.947 108.358 114.127C107.564 115.307 106.974 119.023 106.974 119.023Z" fill="#535184"/>
<path d="M106.856 118.78L108.805 121.149C108.805 121.149 110.472 121.033 111.813 116.529C113.155 112.026 111.427 111.577 111.427 111.577C111.427 111.577 108.93 113.01 108.173 114.13C107.416 115.25 106.856 118.78 106.856 118.78Z" fill="#535184"/>
<path opacity="0.15" d="M106.856 118.78L108.805 121.149C108.805 121.149 110.472 121.033 111.813 116.529C113.155 112.026 111.427 111.577 111.427 111.577C111.427 111.577 108.93 113.01 108.173 114.13C107.416 115.25 106.856 118.78 106.856 118.78Z" fill="black"/>
<path d="M112.041 120.078L111.942 119.925C112.279 119.688 113.076 116.325 113.5 114.249L113.681 114.286C113.529 115.067 112.799 118.521 112.279 119.704L113.181 119.11C113.324 118.835 114.826 115.884 114.003 114.437L113.938 114.319L114.965 114.167L114.997 114.22C115.072 114.344 116.812 117.257 115.722 118.315L115.594 118.182C116.509 117.298 115.099 114.767 114.869 114.367L114.226 114.461C114.989 116.093 113.402 119.087 113.334 119.217L113.321 119.237L112.041 120.081V120.078Z" fill="#535184"/>
<path opacity="0.1" d="M105.143 75.3965C105.327 75.6742 105.512 78.0336 106.211 78.081C106.91 78.1283 105.143 75.3965 105.143 75.3965Z" fill="black"/>
<path opacity="0.1" d="M101.069 70.7217C101.069 70.7217 103.053 70.9521 103.198 72.7576C103.343 74.563 101.069 70.7217 101.069 70.7217Z" fill="black"/>
<path opacity="0.1" d="M92.2741 104.093C92.2741 104.093 88.3869 105.991 88.48 106.638C88.5731 107.285 92.2741 104.093 92.2741 104.093Z" fill="black"/>
<path opacity="0.1" d="M87.5995 103.861C87.5995 103.861 89.5438 101.779 90.9326 101.964L87.5995 103.861Z" fill="black"/>
<path opacity="0.1" d="M125.135 88.2573C125.135 88.2573 124.58 92.1444 125.413 92.4222C126.246 92.6999 125.135 88.2573 125.135 88.2573Z" fill="black"/>
<path d="M92.4298 107.656C92.4298 107.656 90.8869 114.322 92.3062 114.939C93.6972 115.741 95.1789 116.374 96.7198 116.825C101.372 118.199 106.383 116.038 108.392 111.623C108.604 111.187 108.758 110.725 108.85 110.249C109.219 107.903 109.898 104.262 109.898 104.262C109.898 104.262 111.256 97.7209 111.133 96.0544C111.073 95.0257 111.356 94.0063 111.936 93.1547L120.635 86.8593L118.228 80.2556C118.228 80.2556 111.995 71.4314 106.379 79.5765C100.763 87.7216 96.1964 97.2264 96.1964 97.2264C96.1964 97.2264 92.5519 102.719 92.4298 107.656Z" fill="#FFB9B9"/>
<path opacity="0.1" d="M120.633 86.6748L118.94 87.8957L118.075 86.1085C116.561 82.9723 115.175 80.0925 114.579 78.8349C113.961 80.4435 114.214 81.3637 114.214 81.3637C112.459 79.8694 110.782 78.2862 109.188 76.6205C111.394 75.3537 113.521 76.0375 115.156 77.118C115.229 77.1653 115.299 77.2126 115.369 77.2706C116.46 78.0529 117.424 78.9991 118.226 80.0757L120.633 86.6748Z" fill="black"/>
<path d="M92.4298 107.656C92.4298 107.656 90.8869 114.322 92.3062 114.939C93.6972 115.741 95.1789 116.374 96.7198 116.825C101.372 118.199 106.383 116.038 108.392 111.623C108.604 111.187 108.758 110.725 108.85 110.249C109.219 107.903 109.898 104.262 109.898 104.262C109.898 104.262 111.256 97.7209 111.133 96.0544C111.073 95.0257 111.356 94.0063 111.936 93.1547L120.635 86.8593L118.228 80.2556C118.228 80.2556 111.995 71.4314 106.379 79.5765C100.763 87.7216 96.1964 97.2264 96.1964 97.2264C96.1964 97.2264 92.5519 102.719 92.4298 107.656Z" fill="#FFB9B9"/>
<path opacity="0.1" d="M125.123 116.165C125.198 115.052 125.198 112.595 125.198 112.595C125.198 112.595 125.137 110.805 123.656 108.706C123.58 108.601 123.504 108.488 123.412 108.372C124.598 107.434 126.878 105.646 127.452 105.343C127.674 105.224 128.238 104.911 128.932 104.525C128.659 104.513 128.392 104.445 128.146 104.325C126.664 103.583 125.646 101.64 125.646 101.64L126.124 100.766L124.445 97.0649C124.047 97.1625 123.8 97.2694 123.8 97.3823C123.8 97.6967 120.735 91.4303 118.08 85.927C118.69 85.4356 119.093 85.1304 119.093 85.1304L121.007 86.8595L124.766 94.8977L125.451 96.3628C125.451 96.3628 125.527 96.5353 125.666 96.839C125.906 97.367 126.331 98.2904 126.87 99.409C127.125 99.934 127.403 100.505 127.699 101.088C128.215 102.123 128.787 103.224 129.369 104.276C129.41 104.348 129.448 104.429 129.489 104.493C130.78 106.811 132.116 108.854 133.042 109.376C133.042 109.376 133.939 110.15 135.017 111.055C132.328 112.552 126.522 115.736 125.123 116.165Z" fill="black"/>
<path d="M118.725 85.1318L120.638 86.8594L125.082 96.3628C125.082 96.3628 130.271 108.027 132.673 109.385C132.673 109.385 137.054 113.149 138.042 113.767C139.029 114.385 141.618 116.297 141.618 116.297C141.618 116.297 149.332 118.518 145.876 119.629C142.419 120.74 137.73 119.876 137.73 119.876C137.73 119.876 132.542 118.765 131.064 117.901C131.064 117.901 130.2 117.962 129.584 117.962C128.967 117.962 124.584 117.222 124.7 116.606C124.816 115.989 124.824 112.593 124.824 112.593C124.824 112.593 124.763 110.805 123.281 108.706C121.799 106.608 117.974 102.35 117.974 102.35C117.974 102.35 111.432 94.5665 111.618 92.4757C111.804 90.3848 118.725 85.1318 118.725 85.1318Z" fill="#FFB9B9"/>
<path d="M118.725 85.1318L120.638 86.8594L125.082 96.3628C125.082 96.3628 130.271 108.027 132.673 109.385C132.673 109.385 137.054 113.149 138.042 113.767C139.029 114.385 141.618 116.297 141.618 116.297C141.618 116.297 149.332 118.518 145.876 119.629C142.419 120.74 137.73 119.876 137.73 119.876C137.73 119.876 132.542 118.765 131.064 117.901C131.064 117.901 130.2 117.962 129.584 117.962C128.967 117.962 124.584 117.222 124.7 116.606C124.816 115.989 124.824 112.593 124.824 112.593C124.824 112.593 124.763 110.805 123.281 108.706C121.799 106.608 117.974 102.35 117.974 102.35C117.974 102.35 111.432 94.5665 111.618 92.4757C111.804 90.3848 118.725 85.1318 118.725 85.1318Z" fill="#FFB9B9"/>
<path opacity="0.1" d="M137.256 120.224L137.088 120.145C137.6 119.206 138.304 118.387 139.156 117.74C140.007 117.093 140.985 116.634 142.027 116.392L142.068 116.572C141.053 116.807 140.1 117.254 139.271 117.883C138.441 118.512 137.755 119.31 137.256 120.224Z" fill="black"/>
<path opacity="0.1" d="M133.921 119.115L133.756 119.032C134.872 116.799 140.072 115.284 140.293 115.217L140.345 115.395C140.291 115.414 135.002 116.949 133.921 119.115Z" fill="black"/>
<path opacity="0.1" d="M136.641 119.598L136.467 119.536C136.651 119.014 138.298 114.42 139.194 114.292L139.221 114.475C138.628 114.561 137.353 117.585 136.641 119.598Z" fill="black"/>
<path d="M137.07 120.224L136.902 120.145C137.414 119.206 138.118 118.387 138.969 117.74C139.821 117.093 140.799 116.634 141.84 116.392L141.882 116.572C140.867 116.807 139.915 117.254 139.085 117.884C138.256 118.513 137.569 119.311 137.07 120.224V120.224Z" fill="#535184"/>
<path d="M133.736 119.115L133.57 119.032C134.687 116.799 139.887 115.284 140.108 115.217L140.158 115.395C140.105 115.414 134.817 116.949 133.736 119.115Z" fill="#535184"/>
<path d="M136.456 119.598L136.276 119.543C136.461 119.021 138.107 114.428 139.003 114.3L139.029 114.483C138.443 114.561 137.169 117.585 136.456 119.598Z" fill="#535184"/>
<path opacity="0.1" d="M133.253 118.78C133.14 118.04 134.984 112.981 135.4 111.852C132.53 113.178 124.986 114.707 124.908 114.722L124.873 114.541C124.952 114.525 132.852 112.923 135.525 111.587L135.736 111.482L135.654 111.702C135.003 113.446 133.338 118.112 133.436 118.753L133.253 118.78Z" fill="black"/>
<path d="M133.071 118.78C132.958 118.04 134.802 112.981 135.218 111.852C132.346 113.178 124.804 114.707 124.726 114.722L124.689 114.541C124.769 114.525 132.67 112.923 135.343 111.587L135.554 111.482L135.472 111.702C134.822 113.446 133.156 118.112 133.254 118.753L133.071 118.78Z" fill="#535184"/>
<path opacity="0.1" d="M126.22 85.9025C123.2 86.5236 119.212 86.6427 119.212 86.6427L118.705 87.2272L118.287 87.7079C118.287 87.7079 114.492 92.3779 113.149 92.7061C111.806 93.0342 107.827 97.5668 107.827 97.5668C107.827 97.5668 104.587 99.7416 101.722 101.408C98.8579 103.075 96.8174 99.0014 96.8174 99.0014L95.798 89.6522L102.09 88.4481L102.461 91.1799C102.461 91.1799 106.582 89.466 107.182 89.3272C107.781 89.1883 114.864 83.0791 115.423 82.9402C115.768 82.8126 116.098 82.6478 116.407 82.4488C117.108 82.0291 117.877 81.5056 117.877 81.5056C117.877 81.5056 121.759 81.1302 125.094 81.6582C125.399 82.7464 125.736 83.9872 126.046 85.1974C126.101 85.4355 126.161 85.672 126.22 85.9025Z" fill="black"/>
<path opacity="0.1" d="M126.04 85.2051C123.044 85.7942 119.212 85.9086 119.212 85.9086L118.474 86.7587L118.287 86.9739C118.287 86.9739 114.492 91.6485 113.149 91.972C111.806 92.2956 107.827 96.8328 107.827 96.8328C107.827 96.8328 104.587 99.0076 101.722 100.674C98.8579 102.341 96.8174 98.2674 96.8174 98.2674L95.798 88.9182L102.09 87.708L102.461 90.4382C102.461 90.4382 106.582 88.7259 107.182 88.587C107.781 88.4481 114.864 82.339 115.423 82.2001C115.669 82.1155 115.904 82.0045 116.126 81.8689L116.294 81.7728C117.503 81.0625 118.873 80.6737 120.274 80.6434C121.809 80.6023 123.344 80.6835 124.865 80.8861C125.237 82.1329 125.654 83.6911 126.04 85.2051Z" fill="black"/>
<path opacity="0.1" d="M133.121 117.677L134.742 118.533L133.955 119.667L132.59 119.02L133.121 117.677Z" fill="black"/>
<path d="M133.121 117.492L134.742 118.348L133.955 119.482L132.59 118.834L133.121 117.492Z" fill="#535184"/>
<path opacity="0.1" d="M136.385 118.881L138.121 119.389L137.473 120.571L135.831 119.899L136.385 118.881Z" fill="black"/>
<path d="M136.385 118.695L138.121 119.205L137.473 120.384L135.831 119.713L136.385 118.695Z" fill="#535184"/>
<path opacity="0.1" d="M101.87 91.8574C101.87 91.8574 98.7235 93.7712 98.9707 95.1295L101.87 91.8574Z" fill="black"/>
<path opacity="0.1" d="M129.726 85.0643L125.698 89.1533L128.533 91.9466L132.561 87.8575L129.726 85.0643Z" fill="black"/>
<path d="M129.989 85.3238L125.961 89.4128L128.797 92.2061L132.825 88.117L129.989 85.3238Z" fill="#504F60"/>
<path opacity="0.1" d="M132.132 87.4366L128.104 91.5256L128.797 92.2079L132.825 88.1188L132.132 87.4366Z" fill="black"/>
<path d="M132.947 87.1355L127.751 92.4106L130.982 95.5937L136.178 90.3185L132.947 87.1355Z" fill="#504F60"/>
<path opacity="0.1" d="M135.553 89.7028L130.356 94.978L130.982 95.5949L136.179 90.3197L135.553 89.7028Z" fill="black"/>
<path d="M136.369 89.4005L129.937 95.9292L133.102 99.0469L139.534 92.5182L136.369 89.4005Z" fill="#504F60"/>
<path opacity="0.1" d="M134.516 104.293C134.272 104.462 133.801 104.248 133.601 104.12C132.648 102.841 132.59 98.7191 132.59 98.7191L132.677 98.6306L132.413 98.3711L138.845 91.8423L139.109 92.1017L139.174 92.0361C140.398 92.4254 141.668 92.6482 142.951 92.6985C143.663 92.7183 143.901 92.5947 144.183 92.7916C144.447 93.2366 144.598 93.7397 144.623 94.2567C144.623 95.1037 142.083 95.3021 140.612 95.4043C139.365 95.4883 139.972 97.6554 140.188 98.3193C140.238 98.4699 140.257 98.6294 140.244 98.7878C140.111 100.175 138.552 100.265 137.225 99.9171C135.815 99.5493 135.182 101.407 135.182 101.407C135.182 101.407 136.206 103.117 134.516 104.293Z" fill="black"/>
<path d="M134.78 104.552C134.42 104.802 133.865 104.467 133.604 104.12C132.651 102.841 132.593 98.7192 132.593 98.7192L139.176 92.0347C140.399 92.424 141.67 92.6468 142.953 92.697C143.664 92.7169 143.902 92.5932 144.185 92.7901C144.696 93.1427 144.883 93.9698 144.888 94.5147C144.888 95.3632 142.349 95.5616 140.877 95.6623C139.63 95.7478 140.238 97.9134 140.453 98.5773C140.505 98.7277 140.525 98.8873 140.511 99.0458C140.38 100.435 138.82 100.523 137.494 100.175C136.084 99.8089 135.45 101.665 135.45 101.665C135.45 101.665 136.47 103.379 134.78 104.552Z" fill="#504F60"/>
<path opacity="0.1" d="M134.78 104.552C134.42 104.802 133.865 104.467 133.604 104.12C132.651 102.841 132.593 98.7192 132.593 98.7192L139.176 92.0347C140.399 92.424 141.67 92.6468 142.953 92.697C143.664 92.7169 143.902 92.5932 144.185 92.7901C144.696 93.1427 144.883 93.9698 144.888 94.5147C144.888 95.3632 142.349 95.5616 140.877 95.6623C139.63 95.7478 140.238 97.9134 140.453 98.5773C140.505 98.7277 140.525 98.8873 140.511 99.0458C140.38 100.435 138.82 100.523 137.494 100.175C136.084 99.8089 135.45 101.665 135.45 101.665C135.45 101.665 136.47 103.379 134.78 104.552Z" fill="black"/>
<path d="M134.365 104.143C134.011 104.4 133.727 104.296 133.5 103.983C132.662 102.818 132.593 98.7192 132.593 98.7192L139.176 92.0347C140.331 92.3439 141.525 92.4903 142.721 92.4696C143.394 92.4513 143.812 92.552 144.072 92.723C144.529 93.0282 144.485 93.5776 144.461 94.0965C144.423 94.9023 142.001 95.2213 140.601 95.3937C139.432 95.5357 139.865 97.5059 140.043 98.1545C140.088 98.3115 140.1 98.4764 140.078 98.6383C139.873 99.9493 138.399 100.113 137.163 99.8593C135.846 99.583 135.148 101.385 135.148 101.385C135.148 101.385 136.027 102.942 134.365 104.143Z" fill="#504F60"/>
<path d="M130.46 80.4908C130.222 80.7298 129.9 80.8652 129.563 80.8675C129.226 80.8698 128.901 80.7388 128.661 80.503L128.627 80.4695C128.387 80.2327 128.251 79.9104 128.248 79.5734C128.246 79.2364 128.377 78.9121 128.613 78.6716V78.6716C128.64 78.6442 128.668 78.6187 128.699 78.5953C128.941 78.3904 129.25 78.2832 129.567 78.2948C129.884 78.3064 130.185 78.4359 130.411 78.6579L130.446 78.6915C130.671 78.9147 130.805 79.2139 130.821 79.5306C130.838 79.8472 130.736 80.1586 130.535 80.4038C130.512 80.4349 130.487 80.464 130.46 80.4908Z" fill="#504F60"/>
<path opacity="0.1" d="M130.46 80.4907C130.222 80.7297 129.9 80.8651 129.563 80.8674C129.226 80.8697 128.901 80.7387 128.661 80.5029L128.627 80.4693C128.387 80.2326 128.251 79.9103 128.248 79.5733C128.246 79.2362 128.377 78.9119 128.613 78.6715V78.6715C128.64 78.644 128.668 78.6185 128.699 78.5952L130.53 80.4037C130.509 80.4346 130.486 80.4637 130.46 80.4907V80.4907Z" fill="black"/>
<path opacity="0.1" d="M129.99 85.3238L125.962 89.4128L126.489 89.9323L130.517 85.8432L129.99 85.3238Z" fill="black"/>
<path d="M128.281 78.4463L131.977 82.0877C132.244 82.3505 132.395 82.7084 132.398 83.0828C132.401 83.4572 132.255 83.8174 131.992 84.0841L125.447 90.7281L119.739 85.1052L126.284 78.4612C126.547 78.1945 126.905 78.0431 127.279 78.0403C127.654 78.0375 128.014 78.1835 128.281 78.4463V78.4463Z" fill="#504F60"/>
<path opacity="0.1" d="M119.893 72.2328C118.831 73.0749 117.841 74.0034 116.932 75.0089C115.621 74.0737 114.638 72.7494 114.123 71.2241C113.607 69.6988 113.585 68.0499 114.06 66.5113C114.484 66.1376 114.886 65.7396 115.264 65.3193C115.264 65.3193 126.557 66.8653 119.893 72.2328Z" fill="black"/>
<path d="M129.025 68.4066C129.025 68.4646 129.025 68.5195 129.025 68.5775C129.014 69.0248 128.963 69.4702 128.872 69.9083C128.842 70.0609 128.811 70.1968 128.772 70.3402C128.773 70.3473 128.773 70.3545 128.772 70.3616C128.503 71.3926 128.021 72.3561 127.358 73.1904C126.695 74.0246 125.865 74.7112 124.922 75.2062C123.978 75.7012 122.941 75.9937 121.878 76.065C120.815 76.1362 119.749 75.9847 118.747 75.6201C117.746 75.2554 116.832 74.6857 116.064 73.9475C115.295 73.2092 114.689 72.3186 114.285 71.3327C113.881 70.3468 113.687 69.2873 113.715 68.2221C113.744 67.1569 113.995 66.1094 114.452 65.1467C114.55 64.9392 114.656 64.7377 114.772 64.5363C114.933 64.2618 115.111 63.9982 115.307 63.7473C115.556 63.4198 115.832 63.1135 116.132 62.8316V62.8316C117.219 61.8066 118.583 61.1226 120.055 60.8638C121.526 60.6051 123.041 60.7831 124.413 61.3757C125.785 61.9683 126.953 62.9497 127.773 64.1986C128.593 65.4476 129.029 66.9094 129.028 68.4035L129.025 68.4066Z" fill="#FFB9B9"/>
<path d="M119.212 86.2733L118.449 87.1417L118.287 87.3416C118.287 87.3416 117.901 87.8178 117.332 88.4756C116.111 89.8812 114.064 92.12 113.149 92.3413C111.807 92.6649 107.827 97.2006 107.827 97.2006C107.827 97.2006 104.587 99.3769 101.722 101.042C98.8578 102.707 96.8112 98.6352 96.8112 98.6352L95.7917 89.286L102.09 88.0788L102.461 90.8091C102.461 90.8091 106.582 89.0967 107.181 88.9578C107.687 88.8403 112.782 84.4969 114.714 83.041C114.93 82.8574 115.167 82.6996 115.42 82.5709C115.718 82.4622 116.005 82.3226 116.274 82.1543L116.296 82.1405C117.496 81.4327 118.858 81.0444 120.251 81.0127C123.107 80.9578 127.707 81.1836 129.256 83.0791C131.571 85.9025 119.212 86.2733 119.212 86.2733Z" fill="#FFB9B9"/>
<path opacity="0.1" d="M99.3921 73.9207C98.9713 73.979 98.547 74.0075 98.1223 74.0062C97.0235 74.0062 94.7434 74.7693 94.0948 80.6877C93.2386 88.587 91.9963 92.5306 91.9963 92.5306C91.9963 92.5306 96.6252 90.9266 99.2791 91.3585C101.933 91.7904 106.006 90.0003 106.006 90.0003C106.006 90.0003 105.82 83.5828 105.396 82.2871C104.978 81.0601 103.616 73.2889 99.3921 73.9207Z" fill="black"/>
<path d="M99.3921 73.5497C98.9714 73.6087 98.5471 73.6373 98.1223 73.6352C97.0235 73.6352 94.7434 74.3983 94.0948 80.3182C93.231 88.2176 91.9963 92.1673 91.9963 92.1673C91.9963 92.1673 96.6252 90.5618 99.2791 90.9937C101.933 91.4256 106.006 89.6308 106.006 89.6308C106.006 89.6308 105.82 83.2118 105.396 81.9161C104.978 80.6891 103.616 72.9194 99.3921 73.5497Z" fill="#787C9C"/>
<path opacity="0.1" d="M103.105 83.311C103.105 83.311 100.93 84.7456 101.855 85.0233C102.78 85.3011 103.476 84.8845 103.105 83.311Z" fill="black"/>
<path opacity="0.1" d="M102.875 85.8567C102.875 85.8567 96.9502 87.7079 99.0379 88.4954C101.126 89.2828 102.875 85.8567 102.875 85.8567Z" fill="black"/>
<path opacity="0.1" d="M125.186 72.4922L127.811 72.245C128.461 72.1839 129.192 72.0771 129.57 71.546C129.949 71.0149 129.811 70.2869 130.043 69.6841C130.204 69.2705 130.524 68.9424 130.791 68.5883C132.374 66.4929 131.885 63.1369 129.772 61.5803C129.26 61.2033 128.679 60.9271 128.174 60.5425C126.919 59.5856 126.249 58.0655 125.256 56.8385C124.262 55.6115 122.564 54.6286 121.149 55.3276C120.129 55.8328 119.644 57.0277 118.725 57.6992C117.439 58.6409 115.673 58.3509 114.083 58.1876C112.439 58.0187 110.782 58.0345 109.143 58.2349C108.891 58.2419 108.648 58.3255 108.445 58.4745C108.235 58.6622 108.175 58.966 108.16 59.2483C108.088 60.6127 108.784 61.9435 108.645 63.3018C108.503 64.6982 107.487 65.8779 106.292 66.6135C105.263 67.2468 103.89 67.9168 103.949 69.124C103.969 69.5468 104.181 69.9344 104.369 70.3144C105.202 72.0357 105.638 73.922 105.646 75.8344C105.653 77.7468 105.231 79.6363 104.41 81.3638C104.173 81.8506 103.841 82.3725 103.31 82.4733C104.016 82.6618 104.765 82.6051 105.435 82.3123C106.105 82.0196 106.656 81.5081 106.997 80.8616C107.574 79.6957 107.465 78.1268 108.493 77.3286C109.205 76.7761 110.211 76.8219 111.032 76.448C112.155 75.9383 112.767 74.7372 113.297 73.6231L114.748 70.5616C115.189 69.6337 115.748 68.512 116.722 68.042C117.762 67.5383 119.05 68.0206 120.157 68.0984C121.964 68.2236 123.858 68.3396 123.304 70.7417C124.49 70.1359 125.031 71.6116 125.186 72.4922Z" fill="black"/>
<path d="M130.791 68.4035C130.522 68.756 130.202 69.0841 130.043 69.4992C129.966 69.7194 129.915 69.9478 129.89 70.1799C129.837 70.5996 129.805 71.0223 129.565 71.3611C129.187 71.8938 128.456 71.9991 127.806 72.0601L125.181 72.3058C125.028 71.4268 124.485 69.951 123.299 70.5569C123.853 68.1547 121.959 68.0387 120.152 67.912C119.047 67.8373 117.757 67.3535 116.715 67.8571C115.744 68.3272 115.189 69.4473 114.743 70.3752C114.259 71.3927 113.775 72.4132 113.29 73.4367C112.773 74.5523 112.163 75.7519 111.032 76.2616C110.211 76.637 109.2 76.5897 108.492 77.1437C107.465 77.9419 107.577 79.5093 106.997 80.6768C106.656 81.323 106.105 81.8343 105.436 82.1268C104.766 82.4193 104.017 82.4757 103.311 82.2868C103.842 82.1861 104.175 81.6642 104.41 81.1773C105.231 79.4502 105.654 77.5606 105.647 75.6482C105.64 73.7357 105.204 71.8492 104.37 70.128C104.182 69.7495 103.969 69.3649 103.949 68.9376C103.892 67.7304 105.263 67.062 106.293 66.4271C107.49 65.693 108.503 64.5133 108.646 63.1169C108.785 61.7586 108.089 60.4278 108.161 59.0634C108.176 58.7811 108.237 58.4774 108.446 58.2897C108.649 58.1398 108.892 58.0561 109.144 58.0501C110.784 57.8499 112.441 57.8336 114.084 58.0012C115.673 58.1645 117.442 58.4591 118.727 57.5129C119.642 56.8429 120.131 55.6464 121.15 55.1428C122.565 54.4438 124.265 55.4251 125.257 56.6521C126.249 57.8791 126.919 59.3992 128.175 60.3576C128.68 60.7422 129.262 61.0184 129.773 61.3954C130.676 62.0841 131.31 63.0665 131.566 64.173V64.173C131.92 65.6167 131.697 67.2131 130.791 68.4035Z" fill="#FFEDBA"/>
<g opacity="0.1">
<path opacity="0.1" d="M108.831 61.8825C108.949 60.7287 108.465 59.5933 108.361 58.4441C108.229 58.6463 108.159 58.883 108.16 59.1248C108.097 60.3121 108.618 61.4735 108.66 62.6517C108.747 62.4027 108.804 62.1446 108.831 61.8825Z" fill="black"/>
<path opacity="0.1" d="M105.588 76.9303C106.125 74.2106 105.762 71.3901 104.554 68.8952C104.415 68.6389 104.299 68.3714 104.206 68.0955C104.025 68.3617 103.935 68.6791 103.949 69.0005C103.969 69.4247 104.181 69.8108 104.369 70.1909C105.385 72.2833 105.807 74.6146 105.588 76.9303V76.9303Z" fill="black"/>
<path opacity="0.1" d="M130.976 67.169C130.709 67.523 130.388 67.8496 130.229 68.2647C129.997 68.8676 130.129 69.6001 129.755 70.1266C129.381 70.6532 128.645 70.7646 127.997 70.8256L125.37 71.0729C125.218 70.1923 124.674 68.7165 123.49 69.3224C124.042 66.9202 122.15 66.8042 120.342 66.6791C119.237 66.6012 117.949 66.119 116.906 66.6226C115.934 67.0927 115.38 68.2144 114.934 69.1423C114.451 70.1597 113.967 71.1802 113.481 72.2037C112.953 73.3178 112.34 74.5174 111.217 75.0286C110.397 75.4025 109.385 75.3568 108.677 75.9092C107.652 76.7074 107.761 78.2763 107.182 79.4422C106.679 80.4602 105.57 81.121 104.444 81.1653C104.431 81.1897 104.422 81.2156 104.41 81.24C104.173 81.7269 103.841 82.2488 103.31 82.3496C104.016 82.5381 104.765 82.4814 105.435 82.1886C106.105 81.8959 106.656 81.3844 106.997 80.7379C107.574 79.572 107.465 78.0031 108.493 77.2049C109.205 76.6524 110.211 76.6982 111.032 76.3243C112.163 75.8146 112.773 74.6135 113.297 73.4994L114.748 70.438C115.189 69.5101 115.748 68.3884 116.722 67.9183C117.762 67.4147 119.05 67.8969 120.157 67.9748C121.964 68.1014 123.858 68.2159 123.304 70.6181C124.49 70.0076 125.031 71.488 125.186 72.3686L127.811 72.1213C128.461 72.0603 129.192 71.955 129.57 71.4223C129.949 70.8897 129.811 70.1633 130.043 69.5604C130.204 69.1469 130.524 68.8187 130.791 68.4647C131.392 67.6463 131.719 66.6584 131.724 65.6428C131.573 66.1942 131.319 66.712 130.976 67.169V67.169Z" fill="black"/>
</g>
<path opacity="0.1" d="M130.791 68.4037C130.522 68.7562 130.202 69.0843 130.043 69.4995C129.966 69.7196 129.915 69.948 129.891 70.1801C129.703 70.0154 129.505 69.8625 129.299 69.7223C128.416 69.1194 127.414 68.7318 126.419 68.3487L122.007 66.6349L118.878 65.4231C118.489 65.2605 118.088 65.1268 117.678 65.0232L117.55 64.9942C116.842 64.8584 116.112 64.8803 115.414 65.0583C115.235 65.1026 115.055 65.1575 114.875 65.185C114.875 65.1148 114.875 65.0461 114.863 64.9759C114.863 64.863 114.852 64.7501 114.85 64.6356C115.371 64.7073 115.902 64.7211 116.39 64.4982C116.783 64.3197 117.1 64.0114 117.425 63.7352C118.219 63.0406 119.131 62.4947 120.119 62.1235C121.63 61.5726 123.272 61.5039 124.88 61.5482C125.691 61.5501 126.499 61.6433 127.289 61.8259C128.258 62.0823 129.15 62.5631 130.036 63.0469C130.597 63.3521 131.185 63.6817 131.562 64.1838C131.92 65.6169 131.698 67.2133 130.791 68.4037Z" fill="black"/>
<path d="M132.461 66.3295C132.125 66.4821 132.815 66.621 132.544 66.8637C132.158 67.2086 132.715 67.6023 132.239 67.79C132.126 67.8343 132.416 68.7729 132.3 68.7774C132.549 69.5283 130.449 69.5405 130.449 70.3814C130.449 70.4394 130.449 70.4944 130.449 70.5524C130.117 70.1632 129.733 69.8217 129.308 69.5375C128.427 68.9362 127.423 68.547 126.429 68.1639L122.013 66.4547C120.97 66.0477 119.926 65.6432 118.882 65.2414C118.493 65.0792 118.092 64.9455 117.683 64.8415L117.556 64.814C116.848 64.6777 116.119 64.6991 115.42 64.8766C115.243 64.9209 115.062 64.9758 114.881 65.0048C114.881 64.9346 114.881 64.8659 114.87 64.7957C114.87 64.6828 114.859 64.5699 114.856 64.4539C115.377 64.5271 115.908 64.5393 116.398 64.318C116.79 64.138 117.106 63.8312 117.433 63.555C118.226 62.8597 119.138 62.3141 120.126 61.9449C121.637 61.3924 123.279 61.3237 124.888 61.368C125.698 61.3699 126.505 61.4631 127.295 61.6458C128.265 61.9021 129.158 62.3829 130.042 62.8667C130.693 63.2207 131.379 63.6069 131.742 64.2539C131.86 64.4848 131.956 64.7265 132.029 64.9758C132.164 65.4169 132.308 65.8717 132.461 66.3295Z" fill="#FF849D"/>
<path opacity="0.1" d="M131.458 68.7012C130.085 65.2826 123.345 65.3635 123.276 65.365V65.1803C123.559 65.1803 130.207 65.0964 131.634 68.6325L131.458 68.7012Z" fill="black"/>
<path opacity="0.1" d="M131.962 67.1124C131.069 64.7301 125.987 64.518 125.936 64.518V64.3318C126.152 64.3394 131.192 64.5485 132.129 67.0468L131.962 67.1124Z" fill="black"/>
<path d="M77.0616 118.916C77.0616 118.916 70.9905 118.55 71.7063 122.805C71.7063 122.805 71.5644 123.556 72.245 123.897C72.245 123.897 72.2557 123.582 72.8677 123.688C73.0854 123.725 73.3067 123.736 73.527 123.72C73.8253 123.701 74.109 123.584 74.3343 123.388V123.388C74.3343 123.388 76.0406 122.683 76.7045 119.893C76.7045 119.893 77.1959 119.282 77.176 119.13L76.1459 119.566C76.1459 119.566 76.4954 120.305 76.2207 120.92C76.2207 120.92 76.1871 119.594 75.9902 119.624C75.9505 119.624 75.4576 119.881 75.4576 119.881C75.4576 119.881 76.068 121.169 75.6102 122.104C75.6102 122.104 75.7827 120.517 75.2744 119.968L74.5526 120.389C74.5526 120.389 75.2561 121.718 74.78 122.803C74.78 122.803 74.9021 121.14 74.4015 120.491L73.7483 121.001C73.7483 121.001 74.4091 122.312 74.0062 123.211C74.0062 123.211 73.9528 121.274 73.6064 121.128C73.6064 121.128 73.0341 121.631 72.9471 121.839C72.9471 121.839 73.4049 122.791 73.1195 123.293C73.1195 123.293 72.9471 122.002 72.8051 121.996C72.8051 121.996 72.2359 122.851 72.1764 123.437C72.1764 123.437 72.2008 122.565 72.6678 121.91C72.3383 121.975 72.0348 122.134 71.7948 122.368C71.7948 122.368 71.8833 121.758 72.8082 121.711C72.8082 121.711 73.2782 121.062 73.4049 121.022C73.4049 121.022 72.4892 120.946 71.9276 121.193C71.9276 121.193 72.419 120.622 73.5728 120.888L74.2183 120.361C74.2183 120.361 73.0081 120.195 72.4953 120.378C72.4953 120.378 73.0859 119.875 74.3923 120.242L75.0944 119.821C75.0944 119.821 74.0627 119.6 73.4476 119.679C73.4476 119.679 74.0963 119.33 75.3004 119.708L75.8025 119.484C75.8025 119.484 75.0471 119.331 74.8258 119.311C74.6045 119.292 74.5923 119.227 74.5923 119.227C75.0709 119.146 75.5627 119.199 76.0131 119.38C76.0131 119.38 77.0799 118.983 77.0616 118.916Z" fill="#31AFB4"/>
<path opacity="0.1" d="M72.8797 124.995C75.2523 124.995 77.1758 124.67 77.1758 124.268C77.1758 123.867 75.2523 123.542 72.8797 123.542C70.507 123.542 68.5836 123.867 68.5836 124.268C68.5836 124.67 70.507 124.995 72.8797 124.995Z" fill="#31AFB4"/>
<path d="M68.5041 109.787C68.5041 109.787 64.3713 109.538 64.8582 112.433C64.8332 112.58 64.8554 112.731 64.9214 112.865C64.9874 112.999 65.094 113.108 65.226 113.178C65.226 113.178 65.2336 112.963 65.6502 113.036C65.7984 113.061 65.9491 113.069 66.0989 113.057C66.3019 113.044 66.4949 112.965 66.6483 112.831V112.831C66.6483 112.831 67.8097 112.351 68.2615 110.452C68.2615 110.452 68.5957 110.039 68.582 109.932L67.8845 110.237C67.8845 110.237 68.1226 110.741 67.9364 111.153C67.9364 111.153 67.9135 110.249 67.7838 110.271C67.7563 110.271 67.4206 110.445 67.4206 110.445C67.4206 110.445 67.8311 111.322 67.5213 111.959C67.5213 111.959 67.6388 110.88 67.2939 110.509L66.8025 110.796C66.8025 110.796 67.2817 111.701 66.9551 112.439C66.9551 112.439 67.039 111.307 66.6972 110.866L66.2531 111.212C66.2531 111.212 66.7033 112.104 66.4286 112.717C66.4286 112.717 66.3919 111.398 66.1569 111.298C66.1569 111.298 65.7677 111.641 65.7082 111.783C65.7082 111.783 66.0135 112.43 65.8242 112.772C65.8242 112.772 65.7082 111.893 65.6106 111.89C65.6106 111.89 65.2229 112.471 65.1832 112.87C65.2025 112.501 65.3177 112.144 65.5175 111.833C65.2939 111.875 65.0875 111.981 64.9238 112.139C64.9238 112.139 64.9833 111.727 65.6136 111.69C65.6136 111.69 65.9341 111.249 66.0196 111.221C66.0196 111.221 65.3938 111.17 65.0138 111.337C65.0138 111.337 65.3481 110.95 66.134 111.125L66.5736 110.768C66.5736 110.768 65.7494 110.655 65.3999 110.779C65.3999 110.779 65.8028 110.435 66.6911 110.686L67.1703 110.4C66.8021 110.32 66.4251 110.287 66.0486 110.304C66.0486 110.304 66.4896 110.066 67.3092 110.324L67.651 110.171C67.651 110.171 67.1367 110.071 66.9871 110.054C66.8376 110.037 66.8345 109.997 66.8345 109.997C67.1602 109.943 67.4946 109.98 67.8006 110.104C67.8006 110.104 68.5148 109.833 68.5041 109.787Z" fill="#31AFB4"/>
<path opacity="0.1" d="M65.6579 113.924C67.2728 113.924 68.582 113.703 68.582 113.43C68.582 113.156 67.2728 112.935 65.6579 112.935C64.0429 112.935 62.7338 113.156 62.7338 113.43C62.7338 113.703 64.0429 113.924 65.6579 113.924Z" fill="#31AFB4"/>
<path opacity="0.1" d="M163.767 119.385C168.511 119.385 172.357 118.856 172.357 118.205C172.357 117.553 168.511 117.025 163.767 117.025C159.022 117.025 155.176 117.553 155.176 118.205C155.176 118.856 159.022 119.385 163.767 119.385Z" fill="#31AFB4"/>
<path d="M164.324 106.113C164.324 106.113 165.476 107.618 163.793 109.891C162.109 112.163 160.724 114.083 161.284 115.499C161.284 115.499 163.823 111.278 165.888 111.226C167.953 111.174 166.596 108.644 164.324 106.113Z" fill="#31AFB4"/>
<path opacity="0.1" d="M164.323 106.113C164.424 106.258 164.503 106.417 164.558 106.585C166.574 108.953 167.649 111.163 165.711 111.22C163.907 111.27 161.743 114.498 161.222 115.313C161.239 115.376 161.26 115.438 161.283 115.499C161.283 115.499 163.823 111.278 165.888 111.226C167.953 111.174 166.596 108.644 164.323 106.113Z" fill="black"/>
<path d="M166.463 108.024C166.463 108.554 166.404 108.984 166.331 108.984C166.257 108.984 166.198 108.554 166.198 108.024C166.198 107.494 166.273 107.743 166.35 107.743C166.428 107.743 166.463 107.494 166.463 108.024Z" fill="#FFD037"/>
<path d="M167.199 108.656C166.741 108.911 166.328 109.063 166.292 108.999C166.257 108.935 166.605 108.677 167.071 108.424C167.536 108.17 167.353 108.354 167.388 108.424C167.423 108.494 167.663 108.402 167.199 108.656Z" fill="#FFD037"/>
<path d="M158.253 106.113C158.253 106.113 157.101 107.618 158.784 109.891C160.467 112.163 161.853 114.083 161.291 115.499C161.291 115.499 158.753 111.278 156.688 111.226C154.624 111.174 155.971 108.644 158.253 106.113Z" fill="#31AFB4"/>
<path opacity="0.1" d="M158.253 106.113C158.15 106.254 158.068 106.408 158.008 106.571C155.994 108.94 154.919 111.15 156.858 111.206C158.662 111.256 160.826 114.484 161.346 115.299C161.329 115.362 161.308 115.425 161.284 115.485C161.284 115.485 158.746 111.264 156.681 111.212C154.616 111.16 155.971 108.644 158.253 106.113Z" fill="black"/>
<path d="M156.104 108.024C156.104 108.554 156.163 108.984 156.238 108.984C156.313 108.984 156.371 108.554 156.371 108.024C156.371 107.494 156.296 107.743 156.218 107.743C156.14 107.743 156.104 107.494 156.104 108.024Z" fill="#FFD037"/>
<path d="M155.37 108.656C155.828 108.911 156.241 109.063 156.276 108.999C156.311 108.935 155.962 108.677 155.498 108.424C155.034 108.17 155.216 108.354 155.181 108.424C155.145 108.494 154.906 108.402 155.37 108.656Z" fill="#FFD037"/>
<path d="M156.472 115.295C156.472 115.295 159.689 115.195 160.659 114.504C161.63 113.813 165.61 112.989 165.848 114.097C166.086 115.205 170.685 119.606 167.052 119.635C163.42 119.664 158.611 119.069 157.642 118.475C156.673 117.881 156.472 115.295 156.472 115.295Z" fill="#A8A8A8"/>
<path opacity="0.2" d="M167.118 119.249C163.484 119.279 158.675 118.684 157.708 118.094C156.971 117.645 156.676 116.033 156.578 115.29H156.472C156.472 115.29 156.675 117.884 157.644 118.475C158.613 119.066 163.42 119.659 167.054 119.63C168.102 119.621 168.464 119.249 168.444 118.696C168.299 119.035 167.898 119.238 167.118 119.249Z" fill="black"/>
</g>
<defs>
<linearGradient id="paint0_linear_599:2226" x1="116.044" y1="122.454" x2="116.044" y2="54.4822" gradientUnits="userSpaceOnUse">
<stop stop-color="#808080" stop-opacity="0.25"/>
<stop offset="0.54" stop-color="#808080" stop-opacity="0.12"/>
<stop offset="1" stop-color="#808080" stop-opacity="0.1"/>
</linearGradient>
<clipPath id="clip0_599:2226">
<rect width="157.384" height="126.761" fill="white" transform="translate(38.8129)"/>
</clipPath>
</defs>
</svg>
