<svg width="112" height="80" viewBox="0 0 112 80" fill="none" xmlns="http://www.w3.org/2000/svg">
<path d="M60.7674 38.239L60.7588 38.7389L60.7674 38.239ZM3 80L0.185849 74.9588L5.95875 75.0423L3 80ZM111.5 0C111.5 0.331927 111.498 0.669102 111.495 1.01109L110.495 1.00002C110.498 0.662073 110.5 0.328608 110.5 0L111.5 0ZM111.445 3.04912C111.419 3.71391 111.383 4.39253 111.334 5.08229L110.336 5.01056C110.385 4.33296 110.421 3.66549 110.446 3.01062L111.445 3.04912ZM111.149 7.11695C111.074 7.78613 110.985 8.46307 110.879 9.14553L109.891 8.99178C109.995 8.32475 110.082 7.66234 110.155 7.00666L111.149 7.11695ZM110.517 11.1573C110.38 11.8197 110.226 12.4852 110.051 13.1518L109.084 12.8979C109.254 12.2495 109.404 11.6014 109.537 10.9556L110.517 11.1573ZM109.473 15.1202C109.263 15.7656 109.031 16.4104 108.776 17.0526L107.847 16.6838C108.094 16.0617 108.318 15.4367 108.522 14.8103L109.473 15.1202ZM107.955 18.9383C107.663 19.5506 107.348 20.159 107.008 20.7617L106.137 20.27C106.466 19.688 106.77 19.1003 107.052 18.5084L107.955 18.9383ZM105.933 22.5146C105.559 23.0788 105.16 23.6363 104.734 24.1857L103.944 23.5735C104.354 23.0436 104.739 22.5059 105.1 21.9616L105.933 22.5146ZM103.417 25.7651C102.966 26.2672 102.49 26.7609 101.989 27.2449L101.294 26.5254C101.779 26.058 102.238 25.5815 102.673 25.097L103.417 25.7651ZM100.461 28.6201C99.9466 29.0525 99.4083 29.4756 98.8454 29.8883L98.2541 29.0819C98.7993 28.6821 99.3204 28.2726 99.8183 27.8544L100.461 28.6201ZM97.1517 31.0501C96.5866 31.4127 95.9998 31.7656 95.3903 32.1082L94.9003 31.2365C95.4931 30.9033 96.0632 30.5604 96.6117 30.2085L97.1517 31.0501ZM93.5744 33.0646C92.9776 33.3587 92.3614 33.6437 91.7251 33.919L91.328 33.0012C91.9494 32.7324 92.5506 32.4543 93.1322 32.1676L93.5744 33.0646ZM89.8353 34.6848C89.2104 34.9217 88.5678 35.1498 87.907 35.3688L87.5925 34.4195C88.2401 34.205 88.8694 33.9815 89.4808 33.7497L89.8353 34.6848ZM85.9428 35.9766C85.3077 36.1597 84.6572 36.3348 83.9908 36.5017L83.7479 35.5316C84.4031 35.3676 85.0423 35.1955 85.6657 35.0157L85.9428 35.9766ZM82.0058 36.9635C81.3491 37.1051 80.6779 37.239 79.992 37.3651L79.8112 36.3816C80.4873 36.2573 81.1485 36.1254 81.7951 35.9859L82.0058 36.9635ZM78.0051 37.7015C77.3426 37.8043 76.6672 37.9001 75.9787 37.9887L75.8511 36.9969C76.5312 36.9094 77.198 36.8148 77.8517 36.7133L78.0051 37.7015ZM73.9669 38.2228C73.3037 38.292 72.6289 38.3549 71.9422 38.4111L71.8606 37.4144C72.54 37.3588 73.2074 37.2967 73.8631 37.2282L73.9669 38.2228ZM69.9118 38.5559C69.2482 38.5964 68.5742 38.6309 67.8895 38.6594L67.8479 37.6603C68.5263 37.632 69.1939 37.5978 69.8509 37.5577L69.9118 38.5559ZM65.8527 38.7255C65.188 38.7411 64.5137 38.7512 63.8297 38.7557L63.8231 37.7557C64.5016 37.7513 65.1703 37.7412 65.8292 37.7258L65.8527 38.7255ZM61.7966 38.7527C61.453 38.7495 61.1071 38.7449 60.7588 38.7389L60.776 37.7391C61.1217 37.745 61.465 37.7495 61.8059 37.7527L61.7966 38.7527ZM60.7588 38.7389C60.4181 38.7331 60.0793 38.7287 59.7424 38.7258L59.751 37.7258C60.0908 37.7288 60.4324 37.7332 60.776 37.7391L60.7588 38.7389ZM57.7439 38.7256C57.0738 38.7313 56.4115 38.7429 55.7571 38.7603L55.7305 37.7606C56.3911 37.7431 57.0593 37.7314 57.7354 37.7256L57.7439 38.7256ZM53.756 38.8322C53.0872 38.8627 52.4268 38.8993 51.7747 38.942L51.7094 37.9441C52.3682 37.901 53.0352 37.864 53.7105 37.8333L53.756 38.8322ZM49.7789 39.0934C49.1109 39.1512 48.452 39.2155 47.8021 39.2861L47.6941 38.2919C48.3514 38.2205 49.0175 38.1555 49.6927 38.0971L49.7789 39.0934ZM45.8207 39.5244C45.1538 39.6125 44.4969 39.7075 43.8498 39.8091L43.6946 38.8212C44.3499 38.7183 45.0149 38.6222 45.6897 38.533L45.8207 39.5244ZM41.8932 40.1418C41.2287 40.2637 40.575 40.3927 39.9321 40.5288L39.7251 39.5504C40.377 39.4125 41.0395 39.2817 41.7128 39.1582L41.8932 40.1418ZM38.0083 40.9641C37.3498 41.123 36.703 41.2895 36.068 41.4632L35.8041 40.4987C36.449 40.3222 37.1055 40.1533 37.7737 39.992L38.0083 40.9641ZM34.1617 42.0171C33.5223 42.2139 32.8954 42.4184 32.2809 42.6302L31.9551 41.6848C32.5802 41.4694 33.2176 41.2614 33.8674 41.0613L34.1617 42.0171ZM30.4048 43.3137C29.779 43.5544 29.1667 43.803 28.5679 44.059L28.1748 43.1394C28.7851 42.8786 29.4087 42.6254 30.0458 42.3804L30.4048 43.3137ZM26.7686 44.869C26.1592 45.1578 25.5646 45.4545 24.9846 45.7588L24.52 44.8733C25.1122 44.5626 25.7189 44.2598 26.3405 43.9653L26.7686 44.869ZM23.2472 46.7174C22.6685 47.0529 22.1056 47.3962 21.558 47.7468L21.0188 46.9046C21.5789 46.5461 22.1543 46.1951 22.7455 45.8523L23.2472 46.7174ZM19.9198 48.8487C19.3723 49.2355 18.8416 49.6299 18.3272 50.0311L17.7122 49.2426C18.239 48.8316 18.7825 48.4279 19.3428 48.032L19.9198 48.8487ZM16.7942 51.2878C16.2878 51.7241 15.799 52.1673 15.3273 52.6167L14.6375 51.8927C15.1213 51.4318 15.6225 50.9774 16.1415 50.5302L16.7942 51.2878ZM13.9304 54.0167C13.4714 54.5007 13.0307 54.9906 12.6076 55.4857L11.8474 54.8361C12.2816 54.328 12.7339 53.8252 13.2047 53.3286L13.9304 54.0167ZM11.3632 57.0212C10.9572 57.5497 10.57 58.0829 10.2007 58.6198L9.37679 58.0531C9.75586 57.5019 10.1534 56.9546 10.5701 56.4121L11.3632 57.0212ZM9.1236 60.2774C8.77527 60.8456 8.44591 61.4167 8.13477 61.9896L7.256 61.5124C7.57537 60.9243 7.91347 60.338 8.27105 59.7547L9.1236 60.2774ZM7.23663 63.7517C6.94929 64.3537 6.68107 64.9564 6.43112 65.5586L5.50753 65.1752C5.76401 64.5573 6.03926 63.9388 6.33415 63.321L7.23663 63.7517ZM5.71986 67.4051C5.49575 68.0347 5.29085 68.6621 5.10418 69.2859L4.14615 68.9992C4.33765 68.3593 4.54785 67.7156 4.77776 67.0697L5.71986 67.4051ZM4.58537 71.1957C4.42629 71.8465 4.28651 72.4914 4.16487 73.1287L3.1826 72.9412C3.3074 72.2874 3.45079 71.6258 3.61397 70.9582L4.58537 71.1957ZM3.84446 75.0788C3.75272 75.7446 3.68054 76.3992 3.62647 77.0406L2.63 76.9566C2.68554 76.2978 2.75966 75.6256 2.85382 74.9423L3.84446 75.0788Z" fill="black"/>
</svg>
