<svg width="112" height="80" viewBox="0 0 112 80" fill="none" xmlns="http://www.w3.org/2000/svg">
<path d="M51.2326 38.239L51.2412 38.7389L51.2326 38.239ZM109 80L111.814 74.9588L106.041 75.0423L109 80ZM0.5 0C0.5 0.331927 0.501655 0.669102 0.505443 1.01109L1.50538 1.00002C1.50164 0.662073 1.5 0.328608 1.5 0L0.5 0ZM0.554898 3.04912C0.58051 3.71391 0.616601 4.39253 0.666209 5.08229L1.66363 5.01056C1.6149 4.33296 1.57939 3.66549 1.55416 3.01062L0.554898 3.04912ZM0.851315 7.11695C0.925574 7.78613 1.01451 8.46307 1.12071 9.14553L2.10882 8.99178C2.00502 8.32475 1.91797 7.66234 1.84521 7.00666L0.851315 7.11695ZM1.4833 11.1573C1.61969 11.8197 1.77424 12.4852 1.94923 13.1518L2.91647 12.8979C2.74625 12.2495 2.59573 11.6014 2.46275 10.9556L1.4833 11.1573ZM2.52697 15.1202C2.73731 15.7656 2.96889 16.4104 3.22378 17.0526L4.15326 16.6838C3.90641 16.0617 3.68189 15.4367 3.47776 14.8103L2.52697 15.1202ZM4.04519 18.9383C4.33678 19.5506 4.65186 20.159 4.99227 20.7617L5.863 20.27C5.53435 19.688 5.22994 19.1003 4.94804 18.5084L4.04519 18.9383ZM6.06672 22.5146C6.44115 23.0788 6.84028 23.6363 7.26571 24.1857L8.0564 23.5735C7.64609 23.0436 7.26111 22.5059 6.89991 21.9616L6.06672 22.5146ZM8.58332 25.7651C9.03415 26.2672 9.50963 26.7609 10.0111 27.2449L10.7056 26.5254C10.2213 26.058 9.76239 25.5815 9.32742 25.097L8.58332 25.7651ZM11.5386 28.6201C12.0534 29.0525 12.5917 29.4756 13.1546 29.8883L13.7459 29.0819C13.2007 28.6821 12.6796 28.2726 12.1817 27.8544L11.5386 28.6201ZM14.8483 31.0501C15.4134 31.4127 16.0002 31.7656 16.6097 32.1082L17.0997 31.2365C16.5069 30.9033 15.9368 30.5604 15.3883 30.2085L14.8483 31.0501ZM18.4256 33.0646C19.0224 33.3587 19.6386 33.6437 20.2749 33.919L20.672 33.0012C20.0506 32.7324 19.4494 32.4543 18.8678 32.1676L18.4256 33.0646ZM22.1647 34.6848C22.7896 34.9217 23.4322 35.1498 24.093 35.3688L24.4075 34.4195C23.7599 34.205 23.1306 33.9815 22.5192 33.7497L22.1647 34.6848ZM26.0572 35.9766C26.6923 36.1597 27.3428 36.3348 28.0092 36.5017L28.2521 35.5316C27.5969 35.3676 26.9577 35.1955 26.3343 35.0157L26.0572 35.9766ZM29.9942 36.9635C30.6509 37.1051 31.3221 37.239 32.008 37.3651L32.1888 36.3816C31.5127 36.2573 30.8515 36.1254 30.2049 35.9859L29.9942 36.9635ZM33.9949 37.7015C34.6574 37.8043 35.3328 37.9001 36.0213 37.9887L36.1489 36.9969C35.4688 36.9094 34.802 36.8148 34.1483 36.7133L33.9949 37.7015ZM38.0331 38.2228C38.6963 38.292 39.3711 38.3549 40.0578 38.4111L40.1394 37.4144C39.46 37.3588 38.7926 37.2967 38.1369 37.2282L38.0331 38.2228ZM42.0882 38.5559C42.7518 38.5964 43.4258 38.6309 44.1105 38.6594L44.1521 37.6603C43.4737 37.632 42.8061 37.5978 42.1491 37.5577L42.0882 38.5559ZM46.1473 38.7255C46.812 38.7411 47.4863 38.7512 48.1703 38.7557L48.1769 37.7557C47.4984 37.7513 46.8297 37.7412 46.1708 37.7258L46.1473 38.7255ZM50.2034 38.7527C50.547 38.7495 50.8929 38.7449 51.2412 38.7389L51.224 37.7391C50.8783 37.745 50.535 37.7495 50.1941 37.7527L50.2034 38.7527ZM51.2412 38.7389C51.5819 38.7331 51.9207 38.7287 52.2576 38.7258L52.249 37.7258C51.9092 37.7288 51.5676 37.7332 51.224 37.7391L51.2412 38.7389ZM54.2561 38.7256C54.9262 38.7313 55.5885 38.7429 56.2429 38.7603L56.2695 37.7606C55.6089 37.7431 54.9407 37.7314 54.2646 37.7256L54.2561 38.7256ZM58.244 38.8322C58.9128 38.8627 59.5732 38.8993 60.2253 38.942L60.2906 37.9441C59.6318 37.901 58.9648 37.864 58.2895 37.8333L58.244 38.8322ZM62.2211 39.0934C62.8891 39.1512 63.548 39.2155 64.1979 39.2861L64.3059 38.2919C63.6486 38.2205 62.9825 38.1555 62.3073 38.0971L62.2211 39.0934ZM66.1793 39.5244C66.8462 39.6125 67.5031 39.7075 68.1502 39.8091L68.3054 38.8212C67.6501 38.7183 66.9851 38.6222 66.3103 38.533L66.1793 39.5244ZM70.1068 40.1418C70.7713 40.2637 71.425 40.3927 72.0679 40.5288L72.2749 39.5504C71.623 39.4125 70.9605 39.2817 70.2872 39.1582L70.1068 40.1418ZM73.9917 40.9641C74.6502 41.123 75.297 41.2895 75.932 41.4632L76.1959 40.4987C75.551 40.3222 74.8945 40.1533 74.2263 39.992L73.9917 40.9641ZM77.8383 42.0171C78.4777 42.2139 79.1046 42.4184 79.7191 42.6302L80.0449 41.6848C79.4198 41.4694 78.7824 41.2614 78.1326 41.0613L77.8383 42.0171ZM81.5952 43.3137C82.221 43.5544 82.8333 43.803 83.4321 44.059L83.8252 43.1394C83.2149 42.8786 82.5913 42.6254 81.9542 42.3804L81.5952 43.3137ZM85.2314 44.869C85.8408 45.1578 86.4354 45.4545 87.0154 45.7588L87.48 44.8733C86.8878 44.5626 86.2811 44.2598 85.6595 43.9653L85.2314 44.869ZM88.7528 46.7174C89.3315 47.0529 89.8944 47.3962 90.442 47.7468L90.9812 46.9046C90.4211 46.5461 89.8457 46.1951 89.2545 45.8523L88.7528 46.7174ZM92.0802 48.8487C92.6277 49.2355 93.1584 49.6299 93.6728 50.0311L94.2878 49.2426C93.761 48.8316 93.2175 48.4279 92.6572 48.032L92.0802 48.8487ZM95.2058 51.2878C95.7122 51.7241 96.201 52.1673 96.6727 52.6167L97.3625 51.8927C96.8787 51.4318 96.3775 50.9774 95.8585 50.5302L95.2058 51.2878ZM98.0696 54.0167C98.5286 54.5007 98.9693 54.9906 99.3924 55.4857L100.153 54.8361C99.7184 54.328 99.2661 53.8252 98.7953 53.3286L98.0696 54.0167ZM100.637 57.0212C101.043 57.5497 101.43 58.0829 101.799 58.6198L102.623 58.0531C102.244 57.5019 101.847 56.9546 101.43 56.4121L100.637 57.0212ZM102.876 60.2774C103.225 60.8456 103.554 61.4167 103.865 61.9896L104.744 61.5124C104.425 60.9243 104.087 60.338 103.729 59.7547L102.876 60.2774ZM104.763 63.7517C105.051 64.3537 105.319 64.9564 105.569 65.5586L106.492 65.1752C106.236 64.5573 105.961 63.9388 105.666 63.321L104.763 63.7517ZM106.28 67.4051C106.504 68.0347 106.709 68.6621 106.896 69.2859L107.854 68.9992C107.662 68.3593 107.452 67.7156 107.222 67.0697L106.28 67.4051ZM107.415 71.1957C107.574 71.8465 107.713 72.4914 107.835 73.1287L108.817 72.9412C108.693 72.2874 108.549 71.6258 108.386 70.9582L107.415 71.1957ZM108.156 75.0788C108.247 75.7446 108.319 76.3992 108.374 77.0406L109.37 76.9566C109.314 76.2978 109.24 75.6256 109.146 74.9423L108.156 75.0788Z" fill="black"/>
</svg>
