<svg width="346" height="232" viewBox="0 0 346 232" fill="none" xmlns="http://www.w3.org/2000/svg">
<path d="M256.204 45.331C256.204 45.331 248.749 45.9506 247.155 45.331C245.561 44.7115 240.631 42.9177 240.277 44.3509C239.923 45.7841 242.766 46.5053 242.766 46.5053C242.766 46.5053 237.705 47.7629 236.298 48.1789C234.891 48.595 235.683 49.8988 236.82 49.7046C236.82 49.7046 233.884 51.0176 234.891 51.6834C235.212 51.8756 235.569 52.0016 235.94 52.054C236.312 52.1065 236.69 52.0842 237.053 51.9885C237.053 51.9885 235.72 53.0703 237.239 53.7361C238.651 53.6163 240.04 53.3052 241.368 52.8114C241.368 52.8114 239.662 54.2539 240.212 54.6607C240.762 55.0676 240.603 55.4467 245.692 52.8114C245.692 52.8114 256.316 50.4628 258.683 50.0375" fill="#FFB9B9"/>
<path d="M269.69 24.6465C269.69 24.6465 266.214 35.206 263.288 37.9891C261.238 39.9402 252.356 42.9453 247.221 44.5726C247.423 47.8399 248.604 50.9727 250.613 53.5695C258.153 51.8404 270.389 47.4853 273.39 43.9531C277.789 38.7843 279.793 31.23 279.793 31.23L269.69 24.6465Z" fill="#31AFB4"/>
<path opacity="0.39" d="M269.69 24.6465C269.69 24.6465 266.214 35.206 263.288 37.9891C261.238 39.9402 252.356 42.9453 247.221 44.5726C247.423 47.8399 248.604 50.9727 250.613 53.5695C258.153 51.8404 270.389 47.4853 273.39 43.9531C277.789 38.7843 279.793 31.23 279.793 31.23L269.69 24.6465Z" fill="#075B5D"/>
<path d="M167.483 229.289L6.71161 135.021C1.59519 132.174 -2.7943 127.486 2.19164 124.425L163.55 32.1637C165.973 30.675 169.645 29.7041 172.105 31.1188L340.854 128.29C345.97 131.24 346.893 139.478 341.786 142.428L188.675 229.132C185.461 230.984 181.816 231.972 178.1 231.999C174.384 232.027 170.724 231.093 167.483 229.289Z" fill="#007F68"/>
<path style="mix-blend-mode:multiply" opacity="0.63" d="M148.714 211.093C109.022 185.083 86.087 182.522 49.1724 155.614C72.5644 143.52 112.303 119.988 126.739 111.028L225.116 168.032L150.559 211.102L148.714 211.093Z" fill="url(#paint0_linear_809:3226)"/>
<path d="M105.387 147.357L106.375 142.179C106.573 141.419 106.719 140.647 106.813 139.867C106.782 139.199 106.698 138.534 106.562 137.879C106.577 137.286 106.505 136.694 106.347 136.122C106.114 135.753 105.341 135.429 104.996 135.198L102.983 133.811C102.405 133.368 101.96 132.776 101.697 132.1L99.2177 127.477L97.1768 123.686C96.7574 122.909 97.4657 121.467 97.6614 120.653C97.7098 120.096 97.845 119.551 98.0621 119.035L99.2271 117.546C100.094 116.446 100.839 115.808 100.616 114.245C100.56 113.894 100.345 113.7 100.616 113.441C100.616 113.441 100.522 112.905 100.569 112.729C100.681 112.257 99.6371 111.804 99.7303 111.36C99.8235 110.917 99.8422 110.861 99.3762 110.593C98.9102 110.325 99.0407 110.417 98.6958 110.593C98.444 110.749 98.2124 110.936 98.0062 111.148C97.8851 111.259 98.2299 111.656 98.3044 111.795C97.6334 112.082 97.6614 112.156 97.3725 111.434C97.2327 111.832 96.5617 111.157 96.1889 111.092C95.9932 111.092 95.8627 111.277 95.7416 111.194L95.1265 110.732C94.7071 110.417 93.8777 110.029 93.5888 109.576C93.2998 109.123 93.4676 108.651 93.1507 108.244C92.3586 107.32 91.874 106.534 90.7649 106.219C89.9075 105.988 88.4817 105.923 87.8013 105.295L86.012 103.547C85.6206 103.168 85.08 103.547 84.6047 103.714C83.5516 104.037 82.4706 103.27 81.4641 102.872L79.0223 101.892C78.6923 101.814 78.3775 101.683 78.0904 101.504L76.5061 99.904C76.0121 99.4139 76.3104 99.1181 76.5061 98.4338C76.6365 97.99 75.7978 97.1023 75.5741 96.751C75.3403 96.38 75.0582 96.0411 74.7354 95.7431L73.0206 94.1712C72.8901 94.051 73.0206 93.6904 73.0858 93.524C73.151 93.3575 72.8062 93.0801 72.713 92.9599L72.3589 92.5068C72.3962 93.5733 72.449 94.6366 72.5173 95.6969C72.741 95.891 73.0112 96.1869 72.974 96.4551C72.9367 96.7232 72.7596 96.8619 72.5919 96.8342C74.4783 120.802 85.4712 143.165 103.346 159.396C103.458 158.221 103.598 157.047 103.812 155.901L105.387 147.357Z" fill="#31AFB4"/>
<path d="M262.523 98.942C262.579 99.2009 262.579 99.7372 262.123 99.4968C262.001 99.432 261.862 98.8218 261.796 98.6738C261.946 98.6738 262.076 98.5166 262.234 98.4889C261.987 98.2611 261.673 98.1176 261.338 98.0794C261.002 98.0411 260.664 98.1101 260.371 98.2762C259.933 98.6276 258.87 99.1454 258.684 99.7187C258.628 99.8944 258.283 100.643 258.376 100.801L259.168 102.049C259.541 102.65 260.007 103.177 260.436 103.732C260.865 104.286 261.284 104.656 261.321 105.581C261.321 106.126 261.647 107.43 261.247 107.772C260.126 108.819 258.95 109.807 257.724 110.731C257.314 110.315 257.882 109.686 257.593 109.381L256.475 108.077C256.217 107.724 255.884 107.432 255.499 107.221C255.114 107.01 254.687 106.885 254.248 106.857L254.341 106.163C253.409 106.163 253.577 106.33 253.493 107.338C253.388 107.94 253.2 108.525 252.934 109.076C252.88 109.329 252.88 109.591 252.934 109.844C252.934 110.334 252.934 110.25 253.428 110.232C253.661 110.232 253.949 111.711 254.033 111.98C254.173 112.433 255.058 112.849 255.403 113.108C255.817 113.417 256.162 113.808 256.419 114.254C256.624 114.781 256.419 115.539 256.531 116.103C256.71 116.647 256.924 117.178 257.174 117.694C256.442 117.489 255.777 117.096 255.245 116.557C254.639 116.085 254.602 115.817 254.313 115.031C254.185 114.274 253.939 113.541 253.586 112.858L251.89 111.064C251.638 110.787 251.992 109.317 252.039 108.9C252.047 108.105 251.994 107.311 251.881 106.524C251.725 105.086 251.39 103.673 250.883 102.317L249.951 103.417C249.569 103.88 249.607 103.87 249.019 103.741C248.432 103.611 248.46 103.658 248.553 103.001C248.553 102.715 248.833 101.975 248.712 101.716C248.463 100.824 247.985 100.011 247.323 99.3581C246.737 98.7169 246.312 97.9469 246.084 97.1112C245.748 97.3423 245.273 97.8601 244.872 97.9064L242.766 98.193C242.673 98.193 242.235 98.193 242.16 98.2762C242.086 98.3595 242.253 98.8865 242.16 99.0159L241.126 100.07L238.19 103.066C237.758 103.365 237.284 103.598 236.783 103.759C236.261 104.009 236.457 104.397 236.466 105.017C236.545 105.631 236.545 106.252 236.466 106.866C236.336 107.338 235.953 108.087 236.084 108.568C236.179 109.188 236.451 109.768 236.867 110.241C237.248 110.74 237.547 111.295 237.752 111.887C238.237 112.997 236.336 113.967 236.196 112.47C236.13 111.828 236.111 111.182 236.14 110.537C236.14 109.89 235.935 109.797 235.497 109.335C235.441 109.788 235.497 110.26 235.152 110.5L233.959 111.277C232.859 109.206 231.918 107.07 230.958 104.906C230.632 104.316 230.364 103.697 230.157 103.057C230.099 102.575 230.083 102.089 230.11 101.605C230.067 100.224 230.023 98.8464 229.98 97.4718L229.104 98.6738C228.815 99.0807 228.777 99.0252 228.283 99.0067C227.79 98.9882 227.109 97.9526 226.727 97.5458C227.119 97.4625 227.939 97.5458 228.004 96.9725C227.775 97.0251 227.54 97.0468 227.305 97.0372C226.698 96.7992 226.122 96.4887 225.59 96.1126C225.236 95.9091 225.012 95.003 224.826 94.6239C224.64 94.2448 221.685 94.855 221.191 94.9198C220.081 94.9188 218.979 94.7345 217.929 94.3742C217.464 94.2725 216.923 94.3187 216.681 93.8472C216.252 92.9965 216.354 92.7561 215.506 93.0612C214.899 93.2455 214.25 93.2455 213.642 93.0612C213.177 92.9873 212.878 92.4232 212.459 92.2198C212.167 92.1262 211.902 91.9624 211.689 91.743C211.477 91.5236 211.321 91.2554 211.238 90.9623C210.986 90.426 210.884 89.7325 210.306 89.6493C209.328 89.5106 209.374 89.5476 208.647 90.3428C208.414 90.6202 209.234 91.6003 209.411 91.8869C210.027 92.904 210.548 93.9859 211.108 95.0307C211.191 94.5499 211.266 94.1061 211.341 93.6068C211.647 94.3174 211.766 95.094 211.685 95.8629C212.54 95.9345 213.401 95.8274 214.211 95.5485C214.873 94.9675 215.459 94.3057 215.954 93.579C216 94.18 215.851 95.1602 216.354 95.493C216.646 95.7266 216.958 95.9339 217.286 96.1126C217.566 96.2328 217.902 96.1126 218.069 96.4362C218.237 96.7598 218.386 97.2684 218.628 97.3054C219.057 97.3793 218.88 97.6752 218.852 98.1191C218.824 98.5629 217.92 99.3118 217.631 99.6355C217.631 99.4968 217.501 99.3673 217.482 99.2286C217.24 99.6582 217.112 100.142 217.109 100.634C217.109 101.152 216.914 101.096 216.476 101.309L215.124 101.947C214.854 102.067 214.863 102.816 214.612 102.946C214.36 103.075 214.071 102.77 213.848 102.862L212.86 103.288C212.412 103.491 212.468 104.092 212.058 104.212L209.821 105.008C209.598 105.082 209.561 105.202 209.421 105.415C209.281 105.627 209.011 105.664 208.703 105.72C208.06 105.84 207.417 106.053 206.783 106.219C206.308 106.339 206.215 106.875 205.702 106.875C204.901 106.875 204.836 107.051 204.677 106.228L204.211 103.732C203.91 102.553 203.385 101.442 202.664 100.458C202.263 99.7927 202.207 99.6725 201.518 99.4136C201.117 99.2656 201.126 98.0636 201.052 97.6475C200.871 97.024 200.601 96.4293 200.25 95.8814C200.083 95.5485 199.691 95.3821 199.477 95.0122L198.144 92.6359C197.92 92.2475 197.753 91.5633 197.212 91.7112C197.277 91.2304 197.343 90.7404 197.408 90.2503L196.83 91.9979C196.228 91.3514 195.737 90.611 195.376 89.8065C194.901 90.3982 195.74 91.3876 196.01 91.9332L197.641 95.2434C197.967 95.8999 197.846 96.6396 198.331 97.1574C198.536 97.3793 199.057 97.7399 199.104 98.0821C199.188 98.6461 199.281 99.2009 199.365 99.7557C199.412 100.079 199.365 100.68 199.626 100.939C199.991 101.21 200.326 101.521 200.623 101.864C201.018 102.701 201.33 103.574 201.555 104.471C201.658 104.749 202.487 104.703 202.636 104.934L203.568 105.988C204.071 106.57 205.097 107.208 204.304 107.967C204.836 108.124 205.413 109.215 205.842 109.113L210.213 107.948C210.483 107.883 211.257 107.55 211.48 107.948C211.62 108.188 211.108 109.575 211.042 109.871C210.634 111.026 210.076 112.123 209.383 113.135C208.986 114.03 208.472 114.869 207.855 115.632C206.094 117.481 204.034 119.164 202.72 121.411C202.422 121.901 200.539 124.453 200.856 124.906C201.078 125.166 201.236 125.473 201.319 125.803C201.401 126.134 201.405 126.478 201.331 126.811C201.271 127.103 201.286 127.406 201.375 127.69C201.465 127.975 201.626 128.232 201.844 128.438C202.636 129.502 202.366 131.147 202.431 132.488C202.412 133.006 202.259 133.511 201.987 133.953C201.714 134.395 201.331 134.76 200.875 135.012C200.427 135.225 199.523 135.438 199.188 135.826L197.874 137.352C197.482 137.796 197.016 138.008 197.259 138.591C197.427 138.979 198.023 139.876 197.976 140.292C198.007 140.987 197.928 141.683 197.743 142.354C197.52 142.715 196.411 142.983 196.038 143.159C195.423 143.455 195.553 143.732 195.479 144.49C195.519 145.113 195.456 145.737 195.292 146.339C194.608 147.439 193.854 148.495 193.037 149.502C192.56 149.956 192.06 150.385 191.537 150.787C191.257 151.027 190.716 151.712 190.353 151.786L186.448 152.599L184.649 152.978C184.361 153.034 183.773 152.285 183.568 152.054C182.86 151.425 182.888 151.434 182.991 150.417C182.991 150.029 182.59 149.335 182.45 148.993L181.518 146.737C181.341 146.293 180.782 145.942 180.446 145.618C180.111 145.295 180.223 144.361 180.176 144.046L179.775 141.467C179.521 140.377 179.094 139.334 178.508 138.378L177.511 136.362C177.362 136.067 177.567 135.512 177.613 135.207C177.663 133.784 177.979 132.382 178.545 131.073C179.244 129.853 178.815 128.873 178.545 127.606L177.613 123.491C177.511 123.075 176.961 122.567 176.681 122.262L175.274 120.412C175.022 120.079 175.199 119.645 175.274 119.219C175.367 118.369 175.47 117.509 175.572 116.658C175.675 115.808 175.693 115.882 175.274 115.299C174.855 114.716 174.808 114.569 174.044 114.615C173.606 114.615 172.711 114.92 172.394 114.532L171.043 112.886C170.847 112.645 168.098 113.08 167.753 113.256L165.805 114.245C165.293 114.504 165.069 114.374 164.51 114.245C164.036 114.032 163.504 113.987 163 114.115L160.866 114.864C160.531 114.985 160.148 114.532 159.869 114.328L157.819 112.867C157.044 112.425 156.401 111.787 155.955 111.018L153.345 106.515L152.506 105.072C152.376 104.85 152.842 104.009 152.926 103.778C153.075 103.38 153.522 102.65 153.429 102.206C153.271 101.485 153.103 100.773 152.944 100.052C152.725 99.4561 152.587 98.8341 152.534 98.2023C152.671 97.8441 152.859 97.5076 153.094 97.2036L155.61 92.6914C156.166 91.8183 156.966 91.1244 157.912 90.6941C158.434 90.3612 158.667 90.3613 158.769 89.7233L159.133 87.3377C159.272 86.413 161.155 86.2281 161.528 85.3127C161.789 84.6747 161.901 83.787 162.544 83.6113C162.711 83.5651 163.177 84.4343 163.699 84.3233C163.932 84.2771 164.463 84.0459 164.687 84.1569C164.911 84.2678 165.284 84.573 165.395 84.5082C165.895 84.174 166.411 83.8654 166.942 83.5836C167.967 83.1002 169.056 82.7639 170.176 82.585C170.501 82.4978 170.838 82.4635 171.173 82.4833C171.421 82.6119 171.689 82.6994 171.966 82.7422C172.236 82.7422 172.487 82.4278 172.748 82.3723C172.993 82.3482 173.24 82.3482 173.485 82.3723C174.093 82.5116 174.731 82.4398 175.293 82.1689C175.787 81.873 176.225 82.2613 176.774 82.4833C176.392 83.3154 176.318 83.3524 176.774 84.1476C176.979 84.5082 176.197 85.0723 175.945 85.3404C176.355 85.7103 176.877 86.3853 177.39 86.5147L180.064 87.2174C180.754 87.3931 180.558 88.1421 181.239 88.4472C181.919 88.7524 182.394 88.6044 182.944 88.9928C183.727 89.5383 184.128 89.6678 184.631 88.6969C184.743 88.4657 184.37 88.1144 184.491 87.9017C184.612 87.689 184.799 87.1805 184.976 87.125C185.66 86.8404 186.42 86.7884 187.138 86.977C187.333 87.0325 187.138 87.4209 187.408 87.4764L188.62 87.726C188.946 87.7907 188.955 87.9479 189.123 88.2715C189.207 88.438 189.524 88.0681 189.663 88.1144L191.593 88.6784C191.828 88.7915 192.089 88.8401 192.35 88.8189C192.611 88.7978 192.861 88.7078 193.074 88.5582C193.82 88.1976 193.885 88.0866 194.621 88.438C194.845 88.5691 195.095 88.6523 195.353 88.6821C195.612 88.7119 195.873 88.6877 196.122 88.6111C196.37 88.5344 196.6 88.407 196.796 88.2371C196.991 88.0671 197.149 87.8584 197.259 87.6243C197.482 86.9955 198.517 85.1647 198.312 84.3233L196.774 84.0921C196.703 84.1546 196.657 84.2406 196.645 84.3342C196.633 84.4278 196.656 84.5225 196.709 84.6007C196.532 84.6562 194.733 85.1555 195.171 84.2863C195.302 84.0274 195.973 84.1661 196.103 84.1846C196.256 84.1838 196.407 84.1457 196.541 84.0737C193.435 83.6298 190.328 83.2291 187.222 82.8716V82.9271C187.034 82.9084 186.85 82.8681 186.672 82.8069C184.578 82.5665 182.484 82.3446 180.39 82.1411C180.402 82.1947 180.417 82.2473 180.437 82.2983C180.651 82.7237 179.775 82.8624 179.682 82.5202C179.589 82.1781 179.207 82.1226 178.825 81.9932C174.842 81.6295 170.853 81.3213 166.858 81.0686C166.681 81.2812 166.532 81.5124 166.626 81.7066C166.43 81.7528 165.973 81.7713 165.861 81.9562C165.749 82.1411 165.544 82.622 165.367 82.6312C164.8 82.6704 164.23 82.6704 163.662 82.6312C163.159 82.6312 162.86 83.223 162.46 83.3524C162.059 83.4819 161.453 82.6774 161.901 82.3631C161.462 82.5665 161.257 81.836 160.698 82.1504C160.139 82.4648 159.934 82.0209 159.533 82.3261C159.621 82.0099 159.665 81.6832 159.664 81.3552C159.664 81.1703 159.664 80.9946 159.664 80.8096C159.664 80.6247 159.664 80.7449 159.664 80.7357C159.599 80.7357 159.505 80.8189 159.459 80.7357L156.663 80.634C138.22 79.992 119.756 80.9201 101.473 83.4079L101.212 83.4819C101.538 83.4819 102.097 83.3802 102.013 83.8517C102.013 84.0459 101.314 84.0552 101.128 84.0921C101.221 84.1476 101.305 84.2401 101.408 84.2956C101.258 84.3418 101.184 84.4435 100.997 84.4435C101.156 84.8319 101.389 84.4435 101.65 84.6377L101.1 84.9336C100.96 85.0075 100.755 84.7764 100.643 84.8411C100.531 84.9058 100.196 85.4791 100.047 85.7103C99.8977 85.9414 99.5436 85.8027 99.3292 86.0616C99.1706 86.3242 98.9654 86.556 98.7235 86.7459C98.0192 87.0931 97.4804 87.7007 97.223 88.438C97.05 89.0013 97.0966 89.6085 97.3535 90.1393C97.7076 90.8949 98.0005 91.6771 98.2295 92.4787C98.36 92.9133 98.4719 94.0414 98.155 94.328C97.8381 94.6146 97.7077 94.8828 97.4281 94.4944C97.3349 94.3742 96.8223 93.9119 96.813 93.8749C96.7139 93.5559 96.586 93.2464 96.4309 92.9503C96.2818 92.6081 96.1047 92.414 96.2072 92.0256L96.0208 92.1828C95.8717 91.665 96.347 90.9253 95.8251 90.5739C95.3032 90.2226 95.1168 89.6493 94.5763 89.8157C94.2874 89.9082 93.9798 90.1208 93.7096 89.9452C93.4579 89.7312 93.179 89.5509 92.8801 89.4089C92.4048 89.2794 91.6127 89.9082 91.4729 89.1037C91.3797 89.7972 89.8327 89.2979 89.3667 89.6585C89.6835 89.6585 90.8764 89.8342 89.9911 90.2595C90.0843 90.3058 90.5689 90.4722 90.5875 90.5647C90.5994 90.6091 90.5991 90.6558 90.5867 90.7C90.5743 90.7443 90.5503 90.7844 90.5171 90.8164C90.4839 90.8484 90.4427 90.8711 90.3978 90.8821C90.3528 90.8931 90.3057 90.8921 90.2614 90.8791C90.3918 90.5554 89.9072 90.4352 89.6742 90.2965C89.7208 90.5277 89.6276 90.6017 89.6183 90.7681C89.404 90.3243 89.2082 90.7681 88.9193 90.5647C88.6304 90.3612 88.3881 90.0284 87.9874 90.1763C87.7451 90.2595 87.4003 90.0376 87.1673 89.9452C86.7293 89.7787 86.0303 90.278 85.6109 90.4537C84.9213 90.7311 83.2624 91.9516 83.2531 92.941C83.2531 93.2462 83.6538 93.5513 83.6725 93.8657C83.6351 94.1207 83.563 94.3696 83.4581 94.6054C83.2516 95.1398 83.1199 95.6998 83.0667 96.2698C82.9927 97.555 83.3392 98.8296 84.0546 99.9036C84.5205 100.597 84.6976 101.087 85.4618 101.309C85.6202 101.365 85.8719 101.753 86.0023 101.697L86.9343 101.346C87.205 101.238 87.4912 101.172 87.7824 101.152C88.006 101.152 88.1831 101.429 88.3043 101.374C88.4451 101.329 88.5797 101.267 88.705 101.189C88.7796 101.124 88.5932 100.939 88.705 100.838C88.9538 100.674 89.1356 100.428 89.2176 100.144C89.3946 99.543 89.348 98.8403 89.9818 98.5814C90.4374 98.4194 90.9149 98.3259 91.3983 98.304C91.7618 98.304 92.7963 98.1375 92.4701 98.9142C92.3396 99.2194 91.9202 100.135 91.6966 100.153C91.8084 100.218 91.7432 100.329 92.0041 100.32C91.9016 100.403 91.827 100.514 91.7338 100.588L91.7804 100.653L91.9296 100.551C91.7906 100.913 91.6876 101.288 91.622 101.67C91.5402 101.585 91.4805 101.482 91.448 101.369C91.4156 101.256 91.4113 101.137 91.4356 101.022C91.3358 101.154 91.2514 101.297 91.184 101.448C91.6686 101.448 91.1094 102.372 91.2772 102.733C91.4449 103.094 90.9044 103.658 90.6901 103.815C91.3855 103.934 92.0906 103.99 92.7963 103.981C93.0852 103.981 93.2995 103.759 93.5977 103.815C93.9569 103.818 94.314 103.868 94.6602 103.963C94.9686 104.051 95.2336 104.249 95.4053 104.518C95.577 104.787 95.6435 105.109 95.5921 105.424C95.5176 105.895 95.443 106.348 95.3685 106.848C95.3685 107.125 95.0982 107.366 95.0609 107.624C94.9025 108.91 96.4682 111.009 97.6424 110.528C98.3693 110.232 98.7421 109.936 99.5063 110.167C100.148 110.399 100.699 110.826 101.081 111.388C101.081 110.463 102.181 109.243 102.619 108.503C102.75 108.272 103.607 108.142 103.831 108.059L105.694 107.393C106.263 107.19 107.288 107.68 107.847 107.809L112.246 108.826C113.041 108.875 113.806 109.144 114.455 109.603L117.884 112.867C118.611 113.551 120.186 113.57 121.1 113.792C122.013 114.014 122.637 115.419 123.178 116.131L124.827 118.276C124.958 118.452 125.256 119.025 125.461 119.09L128.993 120.357L132.525 121.624C133.53 122.168 134.469 122.826 135.321 123.584C135.48 123.584 136.57 123.584 136.607 123.732C136.728 124.259 136.85 124.777 136.971 125.294C137.232 126.423 137.26 126.404 136.635 127.301L134.333 130.593C133.91 131.028 133.62 131.573 133.495 132.165C133.373 133.783 133.262 135.401 133.14 137.019C133.066 138.092 131.938 139.192 131.388 140.043C131.146 140.403 130.941 141.023 130.456 141.05C129.972 141.078 129.059 140.93 128.704 141.171L125.48 143.371C125.265 143.519 125.275 145.119 125.238 145.396C125.2 145.674 125.238 146.321 125.042 146.589L122.367 150.001L119.963 153.173C119.776 153.404 117.167 152.303 116.803 152.183C116.57 153.062 118.043 153.108 118.192 153.912C118.36 154.38 118.46 154.869 118.49 155.364C118.425 155.697 117.931 156.178 117.754 156.446C117.213 157.232 116.486 157.213 115.62 157.444C114.935 157.64 114.208 157.64 113.523 157.444C113.691 157.981 113.821 158.203 113.625 158.711C113.504 159.026 113.625 159.543 113.467 159.636C112.619 160.228 112.116 159.969 111.23 159.534C111.178 160.02 111.178 160.509 111.23 160.995C111.305 161.309 111.817 161.836 111.687 162.132L110.876 163.871C110.615 164.444 110.513 164.389 109.944 164.527C109.871 164.551 109.802 164.585 109.739 164.629C121.493 173.595 135.183 179.734 149.734 182.561C164.284 185.388 179.297 184.828 193.591 180.923C207.886 177.018 221.072 169.876 232.113 160.058C243.154 150.24 251.749 138.014 257.221 124.342C256.494 123.658 255.823 122.955 255.161 122.243C254.788 121.884 254.473 121.469 254.229 121.013C254.008 120.319 253.694 119.656 253.297 119.044C253.129 118.868 252.868 118.961 252.803 118.692L252.486 117.527C252.309 116.871 251.47 117.01 251.442 116.298C251.415 115.586 250.669 115.512 250.315 115.207C250.156 115.068 249.262 113.949 249.439 113.681C249.616 113.413 250.688 113.94 250.921 113.968C251.675 114.051 251.554 114.337 251.955 114.892C252.342 115.299 252.759 115.676 253.204 116.02C253.642 116.436 254.136 116.594 254.527 117.074C254.723 117.333 254.928 117.305 255.236 117.361C255.739 117.453 255.394 117.527 255.683 117.749C255.972 117.971 256.14 117.749 256.14 118.212C256.14 118.452 256.661 118.415 256.736 118.803C256.811 119.192 256.475 119.173 256.531 119.525C256.587 119.876 257.025 119.821 257.211 119.894C257.398 119.968 257.388 120.569 257.426 120.745C257.491 121.078 257.882 121.06 257.472 121.466C257.569 121.336 257.713 121.247 257.874 121.217C258.035 121.188 258.201 121.221 258.339 121.309L258.451 121.004C258.451 120.939 258.376 120.893 258.33 120.893C258.258 120.911 258.183 120.911 258.112 120.893C258.04 120.876 257.974 120.841 257.92 120.791C258.106 120.56 258.208 120.172 258.46 120.56C258.46 120.477 258.46 120.403 258.46 120.32C258.504 120.314 258.549 120.318 258.591 120.332C258.634 120.347 258.672 120.371 258.702 120.403C261.217 113.187 262.841 105.695 263.539 98.0913L262.728 98.3872C262.365 98.5351 262.44 98.5351 262.523 98.942ZM187.809 83.7593C187.98 83.9044 188.182 84.0096 188.4 84.0672C188.618 84.1248 188.845 84.1333 189.067 84.0921C189.356 84.0921 189.999 84.1661 189.999 84.4897C189.196 84.5384 188.39 84.4412 187.622 84.2031C187.655 84.0417 187.718 83.8879 187.809 83.75V83.7593ZM100.792 102.03C100.437 101.919 100.105 101.743 99.8139 101.513C100.177 100.976 100.951 101.411 101.398 101.559C101.475 101.658 101.543 101.763 101.603 101.873C101.23 101.753 100.988 102.086 100.792 102.03V102.03ZM102.293 99.9406C101.622 99.8851 100.96 100.042 100.298 99.9406C100.382 99.8481 100.83 99.5153 100.83 99.4043C100.83 99.0437 100.308 99.1824 100.168 99.1177C99.6368 98.868 99.6182 98.304 99.1335 98.2392C98.6489 98.1745 98.2016 97.8232 97.6704 97.8047C97.3721 97.8047 97.3442 97.5827 97.0739 97.666C96.9557 97.6949 96.8315 97.6884 96.717 97.6472C96.6026 97.6061 96.503 97.5322 96.4309 97.4348C96.5093 97.4511 96.5903 97.4514 96.6688 97.4355C96.7474 97.4196 96.8218 97.3879 96.8875 97.3423C96.0022 96.4177 95.0236 98.4427 94.0917 97.9803C94.539 97.703 94.6881 97.1667 95.2473 97.0557C95.8749 96.851 96.5353 96.7632 97.1951 96.7968C98.4027 96.9958 99.5441 97.4811 100.522 98.2115L100.587 98.0821C100.754 98.2974 100.968 98.4713 101.214 98.5901C101.46 98.7088 101.731 98.7692 102.004 98.7663C102.116 98.7663 102.256 99.1362 102.498 99.1731C102.813 99.2614 103.099 99.4304 103.327 99.6632C102.992 99.7372 102.647 99.8481 102.293 99.9406V99.9406ZM107.754 101.365C107.232 101.365 106.906 101.512 106.449 101.531C106.356 101.531 106.291 101.281 106.03 101.457C105.769 101.633 105.881 102.123 105.722 102.178C105.359 102.308 105.415 101.697 105.284 101.623C105.154 101.549 104.79 101.623 104.585 101.623C103.914 101.522 103.654 101.808 103.15 101.42C102.964 100.856 104.558 101.494 104.94 101.217C104.548 100.634 104.613 100.431 104.008 100.135C104.613 99.8574 104.79 100.052 105.424 100.061C105.62 100.039 105.811 99.989 105.993 99.9129C106.198 99.8019 106.543 100.024 106.757 100.089C106.971 100.153 107.055 99.9683 107.223 100.283C107.391 100.597 107.465 100.708 107.894 100.791C108.071 100.791 108.472 101.069 108.36 101.254C108.071 101.707 108.146 101.392 107.754 101.392V101.365ZM109.441 101.697C109.152 100.985 110.186 101.309 110.569 101.337L110.708 101.485C110.513 101.79 109.646 102.197 109.441 101.697ZM210.52 134.06L210.073 133.626C210.187 134.609 210.073 135.605 209.738 136.538C209.222 138.246 208.706 139.956 208.191 141.67C208.051 142.142 207.902 142.595 207.762 143.075C207.762 143.14 206.634 143.464 206.485 143.538C206.336 143.612 205.218 143.251 205.18 143.02C205.106 142.397 204.99 141.779 204.836 141.171C204.586 140.585 204.546 139.932 204.724 139.321C204.91 138.767 205.562 138.193 205.656 137.611C205.602 136.956 205.457 136.312 205.227 135.697C205.162 135.401 205.432 134.273 205.684 134.236C206.288 134.118 206.87 133.906 207.408 133.607C207.967 133.33 208.163 132.867 208.582 132.386C209.001 131.906 209.346 131.785 209.383 130.935C209.43 129.871 210.148 130.935 210.371 131.286C210.586 132.331 210.912 133.098 210.52 134.023V134.06ZM262.999 100.246C262.691 100.246 262.617 100.643 262.57 100.939C262.523 101.235 262.123 101.263 261.918 101.365C261.713 101.466 261.992 101.596 261.759 101.577C261.59 101.58 261.425 101.531 261.284 101.439C260.837 101.189 260.93 101.078 260.939 100.514C261.489 100.163 261.871 99.4413 262.663 99.8851V99.6817C262.999 99.7279 263.064 99.9591 262.999 100.246Z" fill="#31AFB4"/>
<path d="M109.441 101.699C109.646 102.199 110.512 101.8 110.708 101.485L110.568 101.337C110.158 101.309 109.152 100.985 109.441 101.699Z" fill="#075B5D"/>
<path d="M107.867 100.8C107.438 100.708 107.41 100.708 107.196 100.292C106.981 99.8757 107.009 100.19 106.73 100.098C106.45 100.005 106.17 99.811 105.965 99.922C105.784 99.9981 105.593 100.048 105.397 100.07C104.763 100.07 104.586 99.8665 103.98 100.144C104.614 100.44 104.54 100.643 104.912 101.226C104.53 101.503 102.937 100.865 103.123 101.429C103.664 101.808 103.887 101.531 104.558 101.633C104.754 101.633 105.08 101.55 105.257 101.633C105.434 101.716 105.332 102.317 105.695 102.188C105.854 102.132 105.854 101.568 106.003 101.466C106.152 101.365 106.329 101.54 106.422 101.54C106.888 101.54 107.205 101.374 107.727 101.374C108.249 101.374 108.034 101.716 108.305 101.263C108.444 101.069 108.044 100.837 107.867 100.8Z" fill="#075B5D"/>
<path d="M210.362 131.296C210.138 130.991 209.43 129.881 209.374 130.944C209.374 131.795 209.104 131.795 208.573 132.396C208.041 132.997 207.957 133.321 207.398 133.617C206.861 133.915 206.279 134.128 205.674 134.245C205.423 134.245 205.152 135.41 205.218 135.706C205.448 136.322 205.592 136.966 205.646 137.62C205.581 138.203 204.929 138.776 204.714 139.331C204.537 139.942 204.576 140.595 204.826 141.18C204.981 141.789 205.096 142.406 205.171 143.029C205.171 143.261 206.261 143.649 206.476 143.547C206.69 143.446 207.734 143.15 207.752 143.085C207.892 142.613 208.032 142.16 208.181 141.679C208.697 139.972 209.213 138.261 209.728 136.548C210.063 135.615 210.178 134.619 210.064 133.635L210.511 134.07C210.893 133.145 210.576 132.378 210.381 131.388L210.362 131.296Z" fill="#075B5D"/>
<path d="M262.653 99.885C261.87 99.4505 261.479 100.162 260.929 100.514C260.929 101.068 260.836 101.179 261.274 101.438C261.414 101.531 261.58 101.579 261.749 101.577C261.991 101.577 261.749 101.429 261.907 101.364C262.066 101.3 262.522 101.263 262.559 100.939C262.597 100.615 262.671 100.227 262.988 100.246C263.053 99.9498 262.988 99.7279 262.69 99.6816L262.653 99.885Z" fill="#075B5D"/>
<path d="M242.496 93.7915C228.871 90.7864 215.404 87.0231 201.611 84.8316C200.512 84.656 199.421 84.4988 198.322 84.3323C198.517 85.1738 197.492 86.9953 197.268 87.6333C197.159 87.8674 197.001 88.0762 196.805 88.2461C196.609 88.416 196.38 88.5434 196.131 88.6201C195.883 88.6967 195.621 88.7209 195.363 88.6911C195.104 88.6613 194.855 88.5782 194.631 88.447C193.895 88.0956 193.83 88.2066 193.084 88.5672C192.87 88.7168 192.62 88.8068 192.36 88.828C192.099 88.8491 191.837 88.8006 191.602 88.6874L189.673 88.1234C189.533 88.1234 189.216 88.447 189.132 88.2806C188.965 87.957 188.955 87.7998 188.629 87.735L187.418 87.4854C187.166 87.4392 187.343 87.0415 187.147 86.9861C186.43 86.7974 185.67 86.8494 184.985 87.134C184.808 87.1802 184.603 87.735 184.501 87.9107C184.398 88.0864 184.762 88.4748 184.64 88.7059C184.137 89.686 183.709 89.5473 182.954 89.0018C182.404 88.6135 181.835 88.7152 181.248 88.4563C180.661 88.1974 180.764 87.4114 180.074 87.2265L177.399 86.5237C176.877 86.385 176.374 85.7101 175.955 85.3494C176.216 85.072 176.989 84.5173 176.784 84.1566C176.355 83.3615 176.43 83.3245 176.784 82.4923C176.272 82.2796 175.806 81.882 175.302 82.1779C174.741 82.4488 174.103 82.5206 173.494 82.3813C173.25 82.3572 173.003 82.3572 172.758 82.3813C172.497 82.4276 172.245 82.7327 171.975 82.7512C171.699 82.7084 171.431 82.6209 171.183 82.4923C170.847 82.4725 170.511 82.5069 170.186 82.594C169.066 82.7729 167.977 83.1092 166.952 83.5926C166.421 83.8744 165.904 84.183 165.405 84.5173C165.293 84.582 164.818 84.2306 164.697 84.1659C164.576 84.1012 163.942 84.2861 163.709 84.3323C163.187 84.4433 162.721 83.5741 162.553 83.6204C161.91 83.8053 161.798 84.6929 161.537 85.3217C161.174 86.2463 159.291 86.4128 159.142 87.3467L158.779 89.7323C158.686 90.3703 158.443 90.3795 157.921 90.7032C156.975 91.1334 156.175 91.8273 155.619 92.7004L153.103 97.2127C152.869 97.5167 152.68 97.8531 152.544 98.2113C152.597 98.8432 152.735 99.4651 152.954 100.061C153.122 100.782 153.28 101.494 153.439 102.215C153.532 102.659 153.085 103.389 152.935 103.787C152.852 104.018 152.386 104.86 152.516 105.081L153.355 106.524L155.964 111.027C156.41 111.796 157.053 112.434 157.828 112.876L159.878 114.337C160.149 114.531 160.531 114.994 160.876 114.873L163.01 114.124C163.513 113.996 164.046 114.042 164.52 114.254C165.079 114.402 165.302 114.531 165.815 114.254L167.763 113.265C168.108 113.089 170.857 112.664 171.053 112.895L172.404 114.541C172.721 114.929 173.606 114.642 174.053 114.624C174.818 114.578 174.79 114.624 175.284 115.308C175.778 115.992 175.675 115.937 175.582 116.667C175.489 117.398 175.377 118.378 175.284 119.229C175.228 119.654 175.051 120.088 175.284 120.421L176.691 122.271C176.933 122.594 177.492 123.084 177.623 123.5L178.555 127.615C178.853 128.882 179.282 129.853 178.555 131.083C177.989 132.391 177.673 133.793 177.623 135.216C177.623 135.521 177.371 136.076 177.52 136.371L178.518 138.387C179.103 139.343 179.531 140.386 179.785 141.476L180.186 144.055C180.232 144.37 180.186 145.405 180.456 145.627C180.726 145.849 181.388 146.302 181.528 146.746L182.46 149.002C182.599 149.344 183.038 150.038 183 150.426C182.898 151.434 182.87 151.425 183.578 152.063C183.783 152.257 184.37 152.987 184.659 152.987L186.458 152.608L190.363 151.795C190.726 151.721 191.295 151.036 191.546 150.796C192.069 150.394 192.57 149.965 193.047 149.511C193.864 148.504 194.617 147.448 195.302 146.348C195.466 145.746 195.529 145.122 195.488 144.499C195.563 143.741 195.423 143.464 196.048 143.168C196.42 142.992 197.52 142.724 197.753 142.363C197.938 141.692 198.017 140.996 197.986 140.301C197.986 139.876 197.436 138.979 197.268 138.6C197.026 138.017 197.492 137.814 197.884 137.361L199.198 135.835C199.533 135.447 200.437 135.234 200.884 135.022C201.341 134.769 201.724 134.404 201.996 133.962C202.269 133.52 202.422 133.015 202.441 132.497C202.376 131.166 202.646 129.511 201.854 128.447C201.636 128.241 201.475 127.984 201.385 127.699C201.295 127.415 201.28 127.112 201.341 126.82C201.415 126.488 201.411 126.143 201.328 125.812C201.246 125.482 201.087 125.175 200.866 124.915C200.558 124.462 202.441 121.91 202.73 121.42C204.053 119.173 206.103 117.472 207.865 115.641C208.482 114.878 208.996 114.039 209.393 113.144C210.086 112.132 210.644 111.035 211.052 109.88C211.117 109.584 211.63 108.197 211.49 107.957C211.266 107.569 210.484 107.892 210.223 107.957L205.852 109.122C205.423 109.233 204.845 108.142 204.314 107.976C205.106 107.217 204.081 106.579 203.578 105.997L202.646 104.943C202.45 104.712 201.658 104.758 201.565 104.48C201.339 103.583 201.027 102.71 200.633 101.873C200.335 101.53 200.001 101.22 199.636 100.948C199.384 100.708 199.421 100.088 199.375 99.7647C199.281 99.2007 199.198 98.6459 199.114 98.0911C199.058 97.7675 198.545 97.4068 198.34 97.1664C197.856 96.6486 197.977 95.9089 197.651 95.2524L196.02 91.9422C195.749 91.4059 194.92 90.4073 195.386 89.8155C195.746 90.6201 196.237 91.3604 196.84 92.0069L197.418 90.2593C197.352 90.7494 197.278 91.2394 197.222 91.7203C197.744 91.5816 197.911 92.2658 198.154 92.6449L199.486 95.0213C199.692 95.3911 200.092 95.5576 200.26 95.8904C200.61 96.4384 200.88 97.033 201.061 97.6565C201.136 98.0726 201.136 99.2746 201.527 99.4226C202.217 99.6815 202.282 99.8017 202.674 100.467C203.395 101.451 203.92 102.562 204.221 103.741L204.687 106.237C204.845 107.06 204.91 106.884 205.712 106.884C206.224 106.884 206.327 106.348 206.793 106.228C207.427 106.062 208.06 105.849 208.713 105.729C209.02 105.673 209.253 105.729 209.43 105.424C209.607 105.118 209.607 105.091 209.831 105.017L212.068 104.221C212.487 104.074 212.422 103.473 212.869 103.297L213.857 102.872C214.081 102.779 214.416 103.047 214.621 102.955C214.826 102.862 214.873 102.086 215.134 101.956L216.485 101.318C216.923 101.105 217.119 101.161 217.119 100.643C217.121 100.151 217.249 99.6672 217.492 99.2376C217.492 99.3763 217.613 99.5058 217.641 99.6445C217.92 99.3116 218.843 98.5627 218.862 98.1281C218.88 97.6935 219.067 97.3884 218.638 97.3144C218.396 97.3144 218.2 96.6671 218.079 96.4452C217.958 96.2233 217.585 96.251 217.296 96.1216C216.968 95.9429 216.656 95.7356 216.364 95.5021C215.87 95.1692 216.019 94.1891 215.963 93.5881C215.468 94.3148 214.883 94.9765 214.221 95.5576C213.41 95.8365 212.55 95.9436 211.695 95.8719C211.776 95.103 211.657 94.3264 211.35 93.6158C211.276 94.0966 211.201 94.5404 211.117 95.0398C210.558 93.9857 210.036 92.9131 209.421 91.8959C209.244 91.6093 208.433 90.6292 208.657 90.3518C209.337 89.5566 209.328 89.5196 210.316 89.6583C210.884 89.7415 210.987 90.435 211.248 90.9713C211.331 91.2645 211.486 91.5326 211.699 91.752C211.912 91.9714 212.176 92.1352 212.469 92.2288C212.897 92.423 213.186 92.9963 213.652 93.0703C214.26 93.2545 214.909 93.2545 215.516 93.0703C216.364 92.7651 216.262 93.0055 216.69 93.8562C216.933 94.3278 217.473 94.2815 217.939 94.3832C218.988 94.7435 220.091 94.9279 221.201 94.9288C221.695 94.8641 224.64 94.2168 224.836 94.6329C225.031 95.049 225.246 95.9182 225.6 96.1216C226.131 96.4977 226.707 96.8082 227.315 97.0462C227.549 97.0559 227.785 97.0341 228.014 96.9815C227.948 97.5178 227.082 97.4623 226.737 97.5548C227.119 97.9616 227.753 98.9972 228.293 99.0157C228.834 99.0342 228.815 99.0897 229.113 98.6829L229.989 97.4808C230.033 98.8555 230.076 100.233 230.12 101.614C230.093 102.098 230.108 102.584 230.166 103.066C230.374 103.706 230.642 104.325 230.968 104.915C231.9 107.069 232.832 109.205 233.969 111.286L235.162 110.509C235.534 110.269 235.451 109.797 235.506 109.344C235.944 109.806 236.177 109.899 236.149 110.546C236.121 111.191 236.139 111.837 236.205 112.479C236.345 113.977 238.237 113.006 237.762 111.896C237.557 111.304 237.258 110.749 236.876 110.25C236.46 109.778 236.189 109.197 236.094 108.577C235.963 108.096 236.345 107.347 236.476 106.875C236.555 106.261 236.555 105.64 236.476 105.026C236.476 104.406 236.271 104.027 236.793 103.768C237.294 103.608 237.768 103.374 238.2 103.075L241.135 100.079L242.17 99.025C242.3 98.8955 242.095 98.424 242.17 98.2853C242.244 98.1466 242.682 98.2113 242.776 98.202L244.882 97.9154C245.283 97.8599 245.758 97.3514 246.093 97.1202C246.322 97.9559 246.746 98.7259 247.333 99.3671C247.994 100.02 248.473 100.833 248.722 101.725C248.833 101.984 248.6 102.724 248.563 103.01C248.47 103.667 248.423 103.611 249.029 103.75C249.635 103.889 249.57 103.889 249.961 103.426L250.893 102.326C251.413 103.683 251.761 105.1 251.927 106.542C252.041 107.329 252.094 108.124 252.086 108.919C252.086 109.335 251.685 110.768 251.937 111.082L253.633 112.876C253.986 113.559 254.231 114.292 254.36 115.049C254.621 115.835 254.658 116.103 255.292 116.575C255.824 117.115 256.489 117.507 257.221 117.712C256.971 117.197 256.757 116.665 256.578 116.122C256.447 115.558 256.671 114.809 256.466 114.272C256.209 113.826 255.864 113.436 255.45 113.126C255.105 112.858 254.211 112.451 254.08 111.998C253.996 111.73 253.707 110.241 253.474 110.25C253.018 110.25 253.018 110.352 252.981 109.862C252.926 109.609 252.926 109.347 252.981 109.094C253.247 108.543 253.435 107.958 253.54 107.356C253.614 106.348 253.447 106.219 254.388 106.182L254.295 106.875C254.733 106.904 255.161 107.028 255.546 107.239C255.931 107.45 256.264 107.742 256.522 108.096L257.706 109.372C258.004 109.677 257.435 110.296 257.836 110.722C259.062 109.798 260.238 108.81 261.359 107.763C261.769 107.384 261.461 106.108 261.433 105.571C261.433 104.647 261.089 104.453 260.548 103.722C260.007 102.992 259.616 102.64 259.281 102.039L258.488 100.791C258.395 100.643 258.749 99.8664 258.796 99.7092C258.973 99.1359 260.035 98.6089 260.483 98.2668C260.776 98.1006 261.115 98.0317 261.45 98.0699C261.785 98.1082 262.099 98.2517 262.347 98.4794C262.198 98.4794 262.067 98.6274 261.909 98.6644C261.965 98.8216 262.104 99.4226 262.235 99.4873C262.701 99.7277 262.691 99.1914 262.636 98.9325C262.561 98.5349 262.477 98.5257 262.822 98.4055L263.633 98.1096C263.633 97.9709 264.033 88.7984 264.043 88.6597C256.792 87.7628 249.337 95.3079 242.496 93.7915Z" fill="#075B5D"/>
<path d="M159.618 80.7637C159.618 80.7637 159.618 80.7637 159.618 80.8376C159.618 80.9116 159.618 81.2076 159.618 81.3833C159.619 81.7113 159.575 82.038 159.487 82.3543C159.888 82.0583 160.214 82.4375 160.652 82.1785C161.09 81.9196 161.416 82.6039 161.854 82.3912C161.407 82.7057 162.05 83.5009 162.413 83.3807C162.777 83.2605 163.112 82.6409 163.616 82.6594C164.183 82.6986 164.753 82.6986 165.321 82.6594C165.498 82.6594 165.713 82.1415 165.815 81.9843C165.918 81.8271 166.383 81.7902 166.579 81.7347C166.486 81.5405 166.635 81.3093 166.812 81.0966C164.457 80.9671 162.059 80.8561 159.618 80.7637Z" fill="#075B5D"/>
<path d="M102.517 99.137C102.265 99.137 102.135 98.7209 102.023 98.7301C101.749 98.733 101.479 98.6727 101.233 98.5539C100.987 98.4351 100.772 98.2612 100.606 98.0458L100.541 98.1753C99.5592 97.4468 98.4145 96.9645 97.2045 96.7697C96.5447 96.7361 95.8843 96.8239 95.2567 97.0286C94.6975 97.1673 94.5484 97.7037 94.1011 97.9534C95.033 98.4157 95.965 96.4275 96.8969 97.3153C96.8312 97.3608 96.7568 97.3925 96.6783 97.4084C96.5997 97.4243 96.5187 97.4241 96.4403 97.4078C96.5124 97.5051 96.612 97.5791 96.7264 97.6202C96.8409 97.6614 96.9651 97.6679 97.0833 97.6389C97.3629 97.5557 97.3909 97.7684 97.6798 97.7777C98.1644 97.7777 98.6117 98.1383 99.1429 98.2123C99.6742 98.2863 99.6369 98.8411 100.177 99.0908C100.317 99.1555 100.839 99.0168 100.839 99.3775C100.839 99.4977 100.392 99.8306 100.308 99.9138C100.96 100.034 101.631 99.8676 102.302 99.9138C102.656 99.8214 103.001 99.7104 103.355 99.6087C103.122 99.3812 102.833 99.2185 102.517 99.137Z" fill="#075B5D"/>
<path d="M99.8132 101.513C100.105 101.744 100.436 101.92 100.792 102.032C100.987 102.088 101.229 101.763 101.593 101.884C101.533 101.774 101.464 101.668 101.388 101.569C100.941 101.393 100.167 100.976 99.8132 101.513Z" fill="#075B5D"/>
<path d="M257.491 121.494C257.891 121.097 257.491 121.115 257.444 120.773C257.444 120.597 257.388 119.996 257.23 119.922C257.071 119.848 256.587 119.774 256.549 119.552C256.512 119.33 256.81 119.099 256.754 118.831C256.698 118.563 256.158 118.48 256.158 118.239C256.158 117.796 255.99 117.999 255.701 117.777C255.412 117.555 255.757 117.481 255.254 117.389C254.946 117.333 254.732 117.389 254.546 117.102C254.192 116.621 253.614 116.464 253.222 116.048C252.778 115.704 252.36 115.327 251.974 114.92C251.573 114.356 251.694 114.069 250.939 113.995C250.706 113.995 249.578 113.542 249.457 113.709C249.336 113.875 250.175 115.096 250.333 115.234C250.678 115.539 251.433 115.687 251.461 116.325C251.489 116.963 252.328 116.899 252.505 117.555L252.822 118.72C252.896 118.988 253.148 118.896 253.315 119.072C253.713 119.684 254.026 120.346 254.247 121.041C254.492 121.497 254.806 121.912 255.179 122.271C255.832 122.983 256.503 123.686 257.239 124.37C257.63 123.38 258.013 122.373 258.376 121.365C258.24 121.268 258.072 121.227 257.907 121.252C257.742 121.276 257.592 121.363 257.491 121.494V121.494Z" fill="#075B5D"/>
<path d="M189.979 84.4825C189.979 84.1582 189.355 84.047 189.048 84.084C188.826 84.1253 188.598 84.1168 188.381 84.059C188.163 84.0013 187.961 83.8959 187.79 83.7505C187.694 83.8845 187.624 84.0354 187.585 84.1952C188.358 84.4361 189.17 84.5334 189.979 84.4825Z" fill="#075B5D"/>
<path d="M258.478 120.588C258.227 120.199 258.115 120.588 257.938 120.82C257.993 120.869 258.058 120.904 258.13 120.922C258.201 120.94 258.276 120.94 258.348 120.922C258.348 120.922 258.431 120.968 258.469 121.033L258.683 120.431C258.652 120.399 258.614 120.375 258.572 120.36C258.53 120.346 258.485 120.341 258.441 120.348C258.441 120.431 258.459 120.514 258.478 120.588Z" fill="#075B5D"/>
<path d="M170.389 79.4976C170.072 78.9047 169.867 79.2011 169.402 79.4976L169.923 79.9146L170.389 79.4976Z" fill="#075B5D"/>
<path d="M136.607 123.769C136.607 123.649 135.489 123.63 135.33 123.621C134.464 122.833 133.507 122.15 132.479 121.587L128.947 120.32L125.414 119.053C125.209 118.979 124.911 118.415 124.781 118.24L123.131 116.094C122.591 115.392 121.91 113.968 121.053 113.755C120.196 113.542 118.555 113.515 117.838 112.83L114.408 109.566C113.76 109.108 112.994 108.839 112.199 108.79L107.801 107.773C107.241 107.643 106.216 107.153 105.648 107.356L103.784 108.022C103.56 108.105 102.703 108.244 102.572 108.466C102.134 109.206 100.997 110.436 101.035 111.351C100.653 110.789 100.101 110.362 99.4596 110.13C98.6954 109.899 98.3226 110.195 97.5957 110.491C96.4214 110.972 94.8464 108.873 95.0142 107.588C95.0142 107.329 95.2751 107.088 95.3217 106.811C95.3963 106.339 95.4708 105.886 95.5454 105.387C95.5967 105.073 95.5303 104.75 95.3586 104.481C95.1869 104.212 94.9218 104.015 94.6134 103.926C94.2672 103.831 93.9101 103.782 93.551 103.778C93.2621 103.732 93.0478 103.991 92.7495 103.944C92.0438 103.953 91.3388 103.897 90.6433 103.778C90.8577 103.584 91.3796 103.011 91.2304 102.696C91.0813 102.382 91.6219 101.429 91.1372 101.411C91.2047 101.26 91.2891 101.118 91.3889 100.986C91.3646 101.1 91.3688 101.219 91.4013 101.332C91.4338 101.445 91.4935 101.548 91.5753 101.633C91.6409 101.251 91.7439 100.876 91.8828 100.514L91.7337 100.616L91.6871 100.551C91.7896 100.486 91.8642 100.366 91.9574 100.283C91.6964 100.283 91.7617 100.181 91.6498 100.116C91.8735 100.116 92.2929 99.1918 92.4233 98.8774C92.7495 98.1007 91.7151 98.3134 91.3516 98.2672C90.8681 98.2891 90.3907 98.3826 89.935 98.5446C89.292 98.7942 89.3479 99.4692 89.1708 100.107C89.0889 100.392 88.9071 100.638 88.6583 100.801C88.5464 100.902 88.7328 101.087 88.6583 101.152C88.5329 101.23 88.3983 101.292 88.2575 101.337C88.1457 101.392 87.9593 101.097 87.7356 101.115C87.4445 101.135 87.1583 101.201 86.8875 101.309L85.9556 101.661C85.8158 101.707 85.5735 101.318 85.4151 101.272C84.6509 101.05 84.4831 100.56 84.0078 99.8668C83.2925 98.7928 82.9459 97.5182 83.0199 96.2329C83.0731 95.663 83.2048 95.103 83.4114 94.5686C83.5162 94.3328 83.5883 94.0839 83.6257 93.8289C83.6257 93.5237 83.197 93.2186 83.2063 92.9042C83.2063 91.9148 84.8652 90.7036 85.5642 90.4169C85.9836 90.2412 86.6825 89.7419 87.1205 89.9084C87.3535 90.0008 87.6984 90.2227 87.9407 90.1395C88.3694 89.9916 88.5371 90.2505 88.8726 90.5279C89.2081 90.8053 89.3572 90.2782 89.5716 90.7313C89.5716 90.5556 89.6741 90.4816 89.6275 90.2597C89.8605 90.4077 90.3358 90.5186 90.2146 90.8422C90.259 90.8552 90.3061 90.8563 90.351 90.8453C90.3959 90.8343 90.4371 90.8116 90.4703 90.7796C90.5035 90.7476 90.5275 90.7075 90.5399 90.6632C90.5523 90.619 90.5526 90.5723 90.5408 90.5279C90.5408 90.4446 90.0375 90.2782 89.9444 90.2227C90.8763 89.7974 89.6461 89.6495 89.3199 89.6217C89.7766 89.2611 91.333 89.7604 91.4262 89.0669C91.566 89.8621 92.3581 89.2426 92.8334 89.3721C93.1323 89.5141 93.4112 89.6944 93.6628 89.9084C93.9331 90.084 94.2407 89.9084 94.5296 89.7789C95.0701 89.6032 95.3217 90.2227 95.7784 90.5371C96.235 90.8515 95.7784 91.6282 95.9741 92.146L96.1605 91.9888C96.058 92.3864 96.2257 92.5898 96.3841 92.9135C96.5393 93.2096 96.6672 93.5191 96.7662 93.8381C96.7662 93.8381 97.2881 94.3374 97.3813 94.4576C97.6609 94.8552 97.8659 94.5316 98.1083 94.2912C98.3506 94.0508 98.3133 92.858 98.1828 92.4419C97.9538 91.6403 97.6608 90.858 97.3068 90.1025C97.0498 89.5717 97.0033 88.9645 97.1763 88.4012C97.4337 87.6639 97.9724 87.0562 98.6767 86.7091C98.9187 86.5192 99.1239 86.2874 99.2825 86.0248C99.4875 85.7659 99.879 85.8399 100 85.6735C100.121 85.507 100.373 84.9338 100.597 84.8043C100.82 84.6748 100.904 84.9707 101.053 84.8968L101.603 84.6009C101.342 84.4437 101.109 84.7951 100.951 84.4067C101.137 84.4067 101.212 84.3142 101.361 84.2588C101.258 84.2033 101.184 84.1108 101.081 84.0553C101.258 84.0553 101.929 84.0553 101.967 83.8149C102.05 83.3341 101.491 83.4451 101.165 83.4451L101.426 83.3711C91.6024 84.7384 81.8753 86.718 72.3025 89.2981V89.3721C72.3025 90.4169 72.3025 91.4525 72.3584 92.4974L72.7126 92.9504C72.8057 93.0706 73.1226 93.348 73.0853 93.5145C73.0481 93.6809 72.8896 94.0415 73.0201 94.1617L74.7349 95.7336C75.0578 96.0317 75.3398 96.3705 75.5736 96.7415C75.8066 97.0929 76.6454 97.9805 76.5056 98.4243C76.3006 99.1086 76.0117 99.4045 76.5056 99.8945L78.0899 101.494C78.377 101.673 78.6919 101.805 79.0219 101.883L81.4636 102.863C82.4701 103.27 83.5512 104.028 84.6043 103.704C85.0702 103.556 85.6201 103.159 86.0115 103.538L87.7915 105.276C88.4719 105.932 89.8978 105.997 90.7552 106.201C91.8642 106.515 92.3488 107.319 93.1409 108.226C93.4578 108.586 93.3273 109.15 93.579 109.557C93.8306 109.964 94.6973 110.399 95.1167 110.713L95.7318 111.175C95.8529 111.258 95.9834 111.037 96.1791 111.074C96.5519 111.147 97.2229 111.813 97.3627 111.416C97.6702 112.146 97.6423 112.063 98.2946 111.776C98.2201 111.638 97.8753 111.24 97.9964 111.129C98.2026 110.917 98.4342 110.73 98.6861 110.574C99.0309 110.389 99.0309 110.362 99.3664 110.574C99.7019 110.787 99.8696 110.768 99.7205 111.342C99.5714 111.915 100.652 112.266 100.559 112.71C100.559 112.886 100.643 113.394 100.606 113.422C100.345 113.681 100.559 113.875 100.606 114.227C100.83 115.78 100.084 116.418 99.2173 117.528L98.043 119.035C97.8259 119.55 97.6907 120.096 97.6423 120.653C97.4466 121.467 96.7103 122.9 97.1577 123.686L99.1986 127.477L101.678 132.1C101.941 132.776 102.386 133.368 102.964 133.811L104.977 135.198C105.322 135.438 106.095 135.762 106.328 136.122C106.486 136.694 106.558 137.286 106.542 137.879C106.678 138.534 106.763 139.199 106.794 139.867C106.7 140.646 106.554 141.419 106.356 142.179L105.368 147.357L103.737 155.882C103.523 157.019 103.383 158.194 103.271 159.377C105.322 161.226 107.45 163.002 109.655 164.703C109.718 164.659 109.787 164.625 109.86 164.601C110.457 164.463 110.55 164.518 110.792 163.945L111.603 162.207C111.743 161.901 111.221 161.374 111.146 161.069C111.094 160.584 111.094 160.094 111.146 159.608C112.078 160.052 112.535 160.302 113.383 159.71C113.569 159.581 113.383 159.063 113.541 158.785C113.737 158.277 113.607 158.055 113.439 157.519C114.124 157.715 114.851 157.715 115.536 157.519C116.402 157.287 117.129 157.306 117.67 156.52C117.856 156.252 118.341 155.771 118.406 155.438C118.376 154.943 118.276 154.454 118.108 153.986C117.959 153.228 116.486 153.136 116.719 152.257C117.12 152.378 119.683 153.478 119.879 153.247L122.33 150.121L125.004 146.709C125.219 146.441 125.163 145.859 125.2 145.517C125.237 145.175 125.2 143.667 125.442 143.492L128.667 141.291C129.021 141.051 130 141.199 130.419 141.171C130.838 141.143 131.062 140.533 131.351 140.163C131.91 139.312 133.029 138.212 133.103 137.139C133.215 135.521 133.336 133.903 133.457 132.285C133.582 131.693 133.873 131.148 134.296 130.713L136.598 127.421C137.222 126.497 137.194 126.543 136.933 125.415C136.85 124.814 136.728 124.296 136.607 123.769Z" fill="#075B5D"/>
<path d="M72.963 96.4277C72.963 96.1593 72.7306 95.8633 72.5076 95.6689C72.5076 96.0483 72.554 96.4369 72.5819 96.8163C72.7492 96.8348 72.8793 96.7145 72.963 96.4277Z" fill="#075B5D"/>
<path d="M174.714 78.7017C174.714 78.8312 174.509 79.0715 174.481 79.2102C174.453 79.3489 174.696 79.3951 174.686 79.4691C174.621 79.8666 174.286 79.9036 174.612 80.2179C174.938 80.5323 175.134 80.4861 175.171 80.0793C175.171 79.8481 175.543 80.0793 175.59 79.6447C175.637 79.2102 175.702 78.7757 175.758 78.3319C175.87 77.4074 174.826 77.9714 174.602 78.1378L174.342 78.0361C174.174 78.5168 174.649 78.3781 174.714 78.7017Z" fill="#075B5D"/>
<g style="mix-blend-mode:multiply" opacity="0.6">
<path d="M193.521 158.35C154.966 150.953 128.005 118.202 118.145 81.8544L118.061 81.54C102.477 82.7146 87.0384 85.3367 71.948 89.3718C71.9588 108.157 77.5812 126.518 88.1049 142.134C98.6285 157.751 113.581 169.922 131.074 177.111C148.566 184.299 167.814 186.182 186.385 182.522C204.956 178.863 222.017 169.823 235.412 156.547C221.774 160.334 207.439 160.951 193.521 158.35Z" fill="#6DC3DA"/>
</g>
<path d="M168.116 126.756C221.022 126.756 263.911 108.897 263.911 86.8663C263.911 64.8361 221.022 46.9771 168.116 46.9771C115.21 46.9771 72.3206 64.8361 72.3206 86.8663C72.3206 108.897 115.21 126.756 168.116 126.756Z" fill="#84CE41"/>
<path style="mix-blend-mode:multiply" opacity="0.68" d="M148.712 73.8196C152.095 71.8409 152.701 71.3323 155.935 69.1132L153.139 64.1016L141.555 69.5292C143.53 71.2214 146.662 72.22 148.712 73.8196Z" fill="url(#paint1_linear_809:3226)"/>
<path d="M154.313 38.6733H152.757C151.861 38.6733 151.135 39.3937 151.135 40.2822V68.6134C151.135 69.502 151.861 70.2223 152.757 70.2223H154.313C155.209 70.2223 155.935 69.502 155.935 68.6134V40.2822C155.935 39.3937 155.209 38.6733 154.313 38.6733Z" fill="#BC532A"/>
<path d="M165.377 45.1279C164.277 40.366 159.366 19.3858 150.652 25.5716C146.188 28.7339 144.93 33.6716 143.15 38.5167C141.52 42.4996 140.575 46.7252 140.354 51.0179C140.214 59.7466 149.161 60.8099 156.01 60.7822C159.962 60.7822 165.591 58.4521 166.514 54.1987C167.073 51.6374 166.122 48.6508 165.582 46.0988L165.377 45.1279Z" fill="#2C9135"/>
<path d="M165.796 46.0521L165.591 45.1275C164.613 40.9203 160.661 24.027 153.737 24.4431C155.796 33.3475 158.825 42.7511 157.204 51.8681C156.687 55.0499 155.433 58.0694 153.541 60.6893C154.473 60.6893 155.405 60.7448 156.244 60.7448C160.195 60.7448 165.824 58.4146 166.747 54.1613C167.297 51.5907 166.346 48.5672 165.796 46.0521Z" fill="#156819"/>
<path style="mix-blend-mode:multiply" opacity="0.68" d="M93.7926 86.6629C97.1756 84.6841 97.7814 84.1756 101.015 81.9564L98.2194 76.9448L86.6353 82.3725C88.611 84.0553 91.7517 85.0632 93.7926 86.6629Z" fill="url(#paint2_linear_809:3226)"/>
<path d="M99.4038 51.5078H97.8474C96.9518 51.5078 96.2258 52.2281 96.2258 53.1167V81.4479C96.2258 82.3364 96.9518 83.0568 97.8474 83.0568H99.4038C100.299 83.0568 101.025 82.3364 101.025 81.4479V53.1167C101.025 52.2281 100.299 51.5078 99.4038 51.5078Z" fill="#BC532A"/>
<path d="M110.466 57.9342C109.357 53.1723 104.445 32.192 95.7409 38.3594C91.2768 41.5217 90.0187 46.4593 88.2386 51.3045C86.6096 55.2874 85.6645 59.513 85.4428 63.8057C85.303 72.5344 94.2497 73.5977 101.1 73.57C105.051 73.57 110.68 71.2399 111.603 66.9865C112.162 64.4252 111.211 61.4386 110.671 58.8866L110.466 57.9342Z" fill="#2C9135"/>
<path d="M110.886 58.8588L110.681 57.9341C109.702 53.727 105.75 36.8337 98.8261 37.2497C100.886 46.1541 103.915 55.5578 102.293 64.6748C101.776 67.8566 100.522 70.8761 98.6304 73.4959C99.5623 73.4959 100.494 73.5514 101.333 73.5514C105.285 73.5514 110.913 71.2213 111.836 66.9679C112.377 64.4066 111.435 61.4015 110.886 58.8588Z" fill="#156819"/>
<path style="mix-blend-mode:multiply" opacity="0.68" d="M119.945 116.575C124.26 114.051 125.024 113.404 129.152 110.574L125.564 104.167L110.793 111.092C113.328 113.247 117.335 114.532 119.945 116.575Z" fill="url(#paint3_linear_809:3226)"/>
<path d="M127.521 71.7573H124.651C123.755 71.7573 123.029 72.4777 123.029 73.3662V110.371C123.029 111.259 123.755 111.979 124.651 111.979H127.521C128.417 111.979 129.143 111.259 129.143 110.371V73.3662C129.143 72.4777 128.417 71.7573 127.521 71.7573Z" fill="#BC532A"/>
<path d="M141.193 79.9868C139.786 73.9211 133.523 47.1711 122.414 55.0214C116.729 59.0528 115.117 65.3404 112.843 71.4986C110.979 76.5934 109.395 81.9656 109.311 87.4302C109.134 98.526 120.541 99.9222 129.274 99.876C134.306 99.876 141.491 96.9079 142.666 91.4802C143.374 88.207 142.162 84.3512 141.463 81.1519C141.37 80.7697 141.28 80.3814 141.193 79.9868Z" fill="#2C9135"/>
<path d="M141.723 81.1612C141.636 80.7666 141.546 80.3721 141.453 79.9776C140.204 74.6054 135.162 53.0796 126.337 53.6067C128.956 64.9613 132.86 76.954 130.764 88.5676C130.107 92.6225 128.512 96.4711 126.104 99.8113C127.278 99.8668 128.434 99.8853 129.552 99.8853C134.585 99.8853 141.77 96.9171 142.944 91.4895C143.634 88.2255 142.422 84.3697 141.723 81.1612Z" fill="#156819"/>
<path style="mix-blend-mode:multiply" opacity="0.68" d="M223.26 85.8582C227.818 83.1952 228.628 82.5109 232.981 79.5243L229.197 72.7744L213.605 80.1253C216.271 82.3445 220.502 83.6945 223.26 85.8582Z" fill="url(#paint4_linear_809:3226)"/>
<path d="M231.36 38.5439H228.145C227.249 38.5439 226.523 39.2643 226.523 40.1528V79.3949C226.523 80.2834 227.249 81.0037 228.145 81.0037H231.36C232.255 81.0037 232.981 80.2834 232.981 79.3949V40.1528C232.981 39.2643 232.255 38.5439 231.36 38.5439Z" fill="#BC532A"/>
<path d="M245.692 47.2269C244.201 40.8191 237.593 12.5803 225.869 20.8837C219.867 25.137 218.171 31.7853 215.767 38.2763C213.772 43.6577 212.123 49.3258 212.039 55.0956C211.853 66.8479 223.893 68.2811 233.11 68.2349C238.423 68.2349 246.009 65.1003 247.248 59.3767C247.994 55.9278 246.726 51.8501 245.981 48.4659C245.881 48.0591 245.785 47.646 245.692 47.2269Z" fill="#2C9135"/>
<path d="M246.223 48.4746C246.13 48.0555 246.037 47.6394 245.943 47.2264C244.629 41.5583 239.299 18.8304 229.979 19.3852C232.775 31.4056 236.829 44.0271 234.639 56.2971C233.943 60.5796 232.255 64.6435 229.709 68.1696C230.948 68.2343 232.169 68.2528 233.343 68.2436C238.655 68.2436 246.242 65.109 247.481 59.3855C248.273 55.9273 246.996 51.8588 246.223 48.4746Z" fill="#156819"/>
<path style="mix-blend-mode:multiply" opacity="0.68" d="M190.223 73.218C193.606 71.2393 194.211 70.7307 197.445 68.5116L194.649 63.5L183.065 68.9277C185.032 70.6105 188.172 71.6092 190.223 73.218Z" fill="url(#paint5_linear_809:3226)"/>
<path d="M195.824 38.0635H194.268C193.372 38.0635 192.646 38.7838 192.646 39.6724V68.0036C192.646 68.8921 193.372 69.6124 194.268 69.6124H195.824C196.72 69.6124 197.446 68.8921 197.446 68.0036V39.6724C197.446 38.7838 196.72 38.0635 195.824 38.0635Z" fill="#BC532A"/>
<path d="M206.885 44.5177C205.776 39.7558 200.865 18.7755 192.16 24.9429C187.696 28.1052 186.438 33.0428 184.658 37.888C183.029 41.8709 182.084 46.0965 181.862 50.3892C181.722 59.1179 190.669 60.1812 197.519 60.1535C201.471 60.1535 207.099 57.8234 208.022 53.57C208.581 51.0087 207.631 48.0221 207.09 45.4701L206.885 44.5177Z" fill="#2C9135"/>
<path d="M207.305 45.442L207.1 44.5174C206.122 40.3102 202.17 23.4169 195.246 23.833C197.305 32.7373 200.334 42.141 198.713 51.258C198.196 54.4398 196.942 57.4593 195.05 60.0792C195.982 60.0792 196.914 60.1346 197.753 60.1346C201.704 60.1346 207.333 57.8045 208.256 53.5512C208.806 50.9806 207.855 47.957 207.305 45.442Z" fill="#156819"/>
<path style="mix-blend-mode:multiply" opacity="0.68" d="M198.583 116.566C201.966 114.587 202.571 114.078 205.805 111.859L203.009 106.848L191.425 112.275C193.401 113.958 196.542 114.957 198.583 116.566Z" fill="url(#paint6_linear_809:3226)"/>
<path d="M204.192 81.4106H202.636C201.74 81.4106 201.014 82.131 201.014 83.0195V111.351C201.014 112.239 201.74 112.96 202.636 112.96H204.192C205.088 112.96 205.814 112.239 205.814 111.351V83.0195C205.814 82.131 205.088 81.4106 204.192 81.4106Z" fill="#BC532A"/>
<path d="M215.254 87.8649C214.145 83.1029 209.234 62.1227 200.529 68.2901C196.065 71.4524 194.807 76.39 193.027 81.2351C191.398 85.2181 190.453 89.4436 190.231 93.7364C190.092 102.465 199.038 103.528 205.888 103.501C209.84 103.501 215.469 101.171 216.391 96.9172C216.95 94.3559 216 91.3693 215.459 88.8173L215.254 87.8649Z" fill="#2C9135"/>
<path d="M215.664 88.7894L215.459 87.8648C214.481 83.6576 210.529 66.7643 203.605 67.1804C205.665 76.0848 208.693 85.4884 207.072 94.6055C206.555 97.7872 205.301 100.807 203.409 103.427C204.341 103.427 205.273 103.482 206.112 103.482C210.063 103.482 215.692 101.152 216.615 96.8986C217.165 94.3281 216.224 91.3045 215.664 88.7894Z" fill="#156819"/>
<path d="M249.895 59.3027C249.895 59.3027 242.44 59.9222 240.846 59.3027C239.253 58.6832 234.323 56.8894 233.968 58.3226C233.614 59.7558 236.457 60.477 236.457 60.477C236.457 60.477 231.396 61.7345 229.989 62.1506C228.582 62.5667 229.374 63.8705 230.511 63.6763C230.511 63.6763 227.575 64.9893 228.582 65.655C228.903 65.8472 229.26 65.9733 229.632 66.0257C230.003 66.0781 230.381 66.0559 230.744 65.9602C230.744 65.9602 229.411 67.042 230.93 67.7078C232.343 67.588 233.732 67.2769 235.059 66.7831C235.059 66.7831 233.353 68.2256 233.903 68.6324C234.453 69.0392 234.295 69.4184 239.383 66.7831C239.383 66.7831 250.007 64.4345 252.374 64.0092" fill="#FFB9B9"/>
<path opacity="0.41" d="M287.229 132.46C293.389 134.985 309.279 142.881 318.916 148.179C315.606 150.156 312.158 151.895 308.599 153.385C305.048 155.013 301.945 157.306 298.608 159.303C293.306 162.474 287.313 164.62 282.541 168.549C275.794 162.881 264.573 154.412 258.478 149.622C258.264 149.622 256.177 147.588 256.335 146.339C262.998 143.168 285.878 133.505 287.229 132.46Z" fill="url(#paint7_linear_809:3226)"/>
<path d="M294.899 141.486L296.372 140.561V124.111L289.093 123.853C289.093 123.853 288.953 130.871 287.229 132.47C285.505 134.07 281.255 132.923 280.836 133.062C280.417 133.201 277.556 132.378 276.269 133.691C274.983 135.004 280.631 138.795 283.632 139.488C285.687 139.9 287.796 139.978 289.876 139.719C289.876 139.719 290.528 135.512 291.572 135.928C292.616 136.345 292.69 140.792 292.69 140.792L294.899 141.486Z" fill="#31AFB4"/>
<path d="M302.046 77.8599C301.944 66.9861 301.114 56.9444 292.335 49.3623L291.785 51.3503C291.785 51.2763 291.785 51.2023 291.785 51.1284C291.701 50.2037 290.108 49.7784 289.921 50.8787C289.926 50.9619 289.926 51.0452 289.921 51.1284V51.1839C289.921 51.5445 289.838 51.9143 289.819 52.2749C289.728 52.1762 289.617 52.0982 289.493 52.0463C289.369 51.9943 289.235 51.9697 289.1 51.9741C288.965 51.9785 288.833 52.0118 288.713 52.0717C288.592 52.1316 288.486 52.2167 288.402 52.3212C286.688 52.8667 285.998 55.3263 285.989 56.8612C285.989 57.1064 286.087 57.3416 286.262 57.515C286.436 57.6884 286.673 57.7858 286.921 57.7858C287.168 57.7858 287.405 57.6884 287.58 57.515C287.754 57.3416 287.852 57.1064 287.852 56.8612C287.793 56.1622 287.959 55.4627 288.328 54.864L288.496 54.3924V54.4479V54.5588C288.427 55.0179 288.449 55.4859 288.561 55.9365C288.597 56.0528 288.656 56.1609 288.734 56.2545C288.813 56.3481 288.909 56.4254 289.017 56.4821C289.101 56.8335 289.194 57.1848 289.288 57.5362L286.771 58.2482L283.174 81.2164C283.174 81.2164 283.659 131.258 285.187 131.693C295.709 134.726 300.042 129.696 300.042 129.696C300.76 112.488 302.205 95.1046 302.046 77.8599Z" fill="#FC9C54"/>
<path d="M274.955 154.181L276.427 153.256V136.807L269.149 136.548C269.149 136.548 269.009 143.566 267.285 145.166C265.561 146.765 261.311 145.619 260.891 145.757C260.472 145.896 257.611 145.073 256.325 146.386C255.039 147.699 260.686 151.49 263.687 152.184C265.742 152.595 267.851 152.673 269.931 152.415C269.931 152.415 270.584 148.208 271.628 148.624C272.671 149.04 272.746 153.487 272.746 153.487L274.955 154.181Z" fill="#31AFB4"/>
<path d="M277.565 56.7971C277.565 56.7971 270.855 81.3743 268.124 103.372C267.472 108.651 261.964 140.145 261.964 140.145C261.964 140.145 271.041 143.437 279.112 140.857C279.112 140.857 288.711 100.672 289.121 99.8857C289.531 99.0998 296.008 73.0709 296.754 54.3931" fill="#FC9C54"/>
<path d="M276.782 24.0921L272.746 24.7763C271.935 25.3311 265.859 32.1735 265.375 39.0714C265.807 40.8989 266.377 42.6916 267.08 44.4343C267.9 46.8107 268.785 49.1778 269.801 51.4801C270.873 54.0053 272.135 56.4471 273.576 58.7848C274.2 59.7742 274.508 60.2735 275.235 61.2167C275.821 61.3691 276.43 61.4191 277.033 61.3646C289.391 59.8297 294.209 50.1486 294.107 49.1408C294.004 48.1329 288.515 35.8166 285.169 28.5119C284.46 26.9589 283.253 25.6828 281.735 24.8832C280.217 24.0835 278.475 23.8053 276.782 24.0921V24.0921Z" fill="#31AFB4"/>
<path d="M261.274 16.2141C261.274 16.2141 264.787 29.1592 269.82 28.327C274.852 27.4948 277.564 20.0051 276.726 17.3699C275.887 14.7347 265.477 9.25149 261.274 16.2141Z" fill="#FFB9B9"/>
<path d="M279.663 1.02203C278.457 0.220033 277.003 -0.127607 275.562 0.041987C274.121 0.211581 272.789 0.887211 271.806 1.94667C269.942 4.00864 269.737 6.74559 270.352 9.29762C267.249 8.70585 263.67 9.59351 260.492 12.9962C260.492 12.9962 257.64 16.8242 259.756 18.8215C261.872 20.8187 264.761 19.1544 267.445 18.1927C270.129 17.2311 269.43 20.4951 270.949 22.816C272.468 25.1368 273.745 24.8779 274.9 24.4988C276.056 24.1197 280.017 20.4859 277.5 14.7623C277.351 14.4085 277.176 14.0655 276.978 13.7359C277.624 13.4356 278.247 13.0895 278.842 12.7003C280.294 11.9172 281.471 10.7142 282.216 9.25139C282.774 7.79332 282.826 6.19232 282.363 4.70178C281.901 3.21124 280.95 1.91634 279.663 1.02203V1.02203Z" fill="#FC9C54"/>
<path d="M293.94 72.4785C293.344 84.2308 289.849 95.493 286.885 106.811C283.922 118.128 281.396 129.4 279.234 140.819L280.241 140.542C282.434 129.008 285.025 117.558 288.013 106.191C290.949 95.0954 294.285 83.9996 294.872 72.4785C294.9 71.8867 293.968 71.8867 293.94 72.4785Z" fill="#653200"/>
<path d="M265.375 39.0713C265.375 39.0713 261.899 49.6123 258.972 52.3862C256.922 54.3372 248.041 57.3423 242.906 58.9697C243.108 62.237 244.289 65.3698 246.298 67.9665C253.837 66.2374 266.074 61.8823 269.075 58.3502C273.474 53.1814 275.477 45.627 275.477 45.627L265.375 39.0713Z" fill="#31AFB4"/>
<defs>
<linearGradient id="paint0_linear_809:3226" x1="110.989" y1="200.765" x2="124.263" y2="180.696" gradientUnits="userSpaceOnUse">
<stop stop-color="white" stop-opacity="0"/>
<stop offset="0.99" stop-color="#FFA86A"/>
</linearGradient>
<linearGradient id="paint1_linear_809:3226" x1="155.674" y1="62.7793" x2="142.761" y2="75.1509" gradientUnits="userSpaceOnUse">
<stop stop-color="#00A99D"/>
<stop offset="1" stop-color="white"/>
</linearGradient>
<linearGradient id="paint2_linear_809:3226" x1="1854.23" y1="1263.71" x2="1725.97" y2="1444.26" gradientUnits="userSpaceOnUse">
<stop stop-color="#00A99D"/>
<stop offset="1" stop-color="white"/>
</linearGradient>
<linearGradient id="paint3_linear_809:3226" x1="2920.16" y1="1980.25" x2="2711.26" y2="2274.04" gradientUnits="userSpaceOnUse">
<stop stop-color="#00A99D"/>
<stop offset="1" stop-color="white"/>
</linearGradient>
<linearGradient id="paint4_linear_809:3226" x1="5336.63" y1="1605.14" x2="5104.19" y2="1932.32" gradientUnits="userSpaceOnUse">
<stop stop-color="#00A99D"/>
<stop offset="1" stop-color="white"/>
</linearGradient>
<linearGradient id="paint5_linear_809:3226" x1="3438.42" y1="1108.97" x2="3310.12" y2="1289.43" gradientUnits="userSpaceOnUse">
<stop stop-color="#00A99D"/>
<stop offset="1" stop-color="white"/>
</linearGradient>
<linearGradient id="paint6_linear_809:3226" x1="3575.91" y1="1607.9" x2="3447.65" y2="1788.45" gradientUnits="userSpaceOnUse">
<stop stop-color="#00A99D"/>
<stop offset="1" stop-color="white"/>
</linearGradient>
<linearGradient id="paint7_linear_809:3226" x1="299.96" y1="160.819" x2="280.025" y2="139.451" gradientUnits="userSpaceOnUse">
<stop stop-color="#FF734D" stop-opacity="0"/>
<stop offset="1" stop-color="#42210B"/>
</linearGradient>
</defs>
</svg>
