<svg width="484" height="483" viewBox="0 0 484 483" fill="none" xmlns="http://www.w3.org/2000/svg">
<path d="M483.395 449.704C483.395 466.702 376.522 480.481 244.687 480.481C112.852 480.481 5.97839 466.702 5.97839 449.704C5.97839 432.704 112.852 418.925 244.687 418.925C376.522 418.925 483.395 432.704 483.395 449.704Z" fill="#E0F6F6"/>
<path d="M397.136 451.413C397.136 462.273 329.074 471.077 245.114 471.077C161.155 471.077 93.092 462.273 93.092 451.413C93.092 440.555 161.155 431.749 245.114 431.749C329.074 431.749 397.136 440.555 397.136 451.413Z" fill="#B9EBED"/>
<path d="M75.8849 161.629L81.5547 156.166C79.604 152.533 77.281 148.778 74.4831 144.933C66.8834 134.476 57.4967 125.624 47.813 119.646L43.0779 122.538L44.8674 117.926C43.1722 116.984 41.4717 116.134 39.7573 115.385L32.5067 122.782L34.8394 113.494C29.2137 111.666 23.8345 111.024 18.8845 111.825C13.9676 112.627 9.66303 114.887 6.17382 118.741C3.15968 122.071 1.35375 125.894 0.529079 129.97C0.117652 132.013 -0.048718 134.1 0.0122047 136.262C0.0752909 138.441 0.368973 140.669 0.873321 142.923C2.88923 151.969 8.32273 161.697 16.0746 170.811L24.9782 167.788L20.6479 175.846C22.5544 177.793 24.5631 179.714 26.6641 181.556L30.5468 177.767L29.5647 184.025C30.405 184.717 31.2564 185.398 32.1219 186.066C47.6836 198.082 61.9525 202.411 72.3707 203.69C82.7834 204.974 89.3323 203.231 89.3323 203.231C89.3323 203.231 95.2765 185.41 83.8264 160.712L75.8849 161.629" fill="#FBBE2B"/>
<path d="M18.5131 135.715L19.3871 134.779L84.6258 195.889L83.7523 196.825L18.5131 135.715" fill="white"/>
<path d="M40.3797 156.172C36.9737 150.905 34.009 137.691 33.8845 137.132L35.1335 136.853C35.1642 136.988 38.1734 150.402 41.4531 155.475L40.3797 156.172Z" fill="white"/>
<path d="M35.4177 166.059L34.9341 164.873C40.0401 162.788 49.8951 164.15 50.3125 164.21L50.134 165.476C50.0349 165.464 40.2039 164.106 35.4177 166.059Z" fill="white"/>
<path d="M65.9886 180.113C63.0718 173.342 64.7689 162.786 64.8422 162.339L66.1042 162.549C66.0869 162.654 64.3965 173.182 67.1633 179.606L65.9886 180.113Z" fill="white"/>
<path d="M119.406 227.817C119.406 227.817 105.548 189.269 107.28 151.896C109.012 114.524 98.0411 86.4615 80.1412 88.6433C62.2414 90.8252 46.6504 158.454 114.786 231.863L119.406 227.817" fill="#40BB6D"/>
<path d="M113.421 226.412L114.814 225.536C114.562 225.135 89.6579 184.958 88.6933 140.639L87.049 140.674C88.0215 185.46 113.166 226.007 113.421 226.412Z" fill="white"/>
<path d="M116.283 232.404C116.283 232.404 91.4364 219.437 65.9511 217.167C40.4657 214.898 22.4606 204.86 25.5895 192.905C28.7184 180.951 75.9859 176.6 119.451 229.639L116.283 232.404Z" fill="#209058"/>
<path d="M114.994 229.273L116.048 228.009C115.798 227.799 90.5824 206.94 60.2531 202.137L59.9961 203.764C89.8662 208.494 114.745 229.066 114.994 229.273Z" fill="white"/>
<path d="M407.116 161.629L401.445 156.166C403.397 152.533 405.719 148.778 408.517 144.933C416.117 134.476 425.503 125.624 435.187 119.646L439.922 122.538L438.132 117.926C439.827 116.984 441.528 116.134 443.243 115.385L450.493 122.782L448.161 113.494C453.786 111.666 459.166 111.024 464.115 111.825C469.033 112.627 473.336 114.887 476.825 118.741C479.839 122.071 481.645 125.894 482.47 129.97C482.882 132.013 483.048 134.1 482.988 136.262C482.924 138.441 482.63 140.669 482.126 142.923C480.11 151.969 474.676 161.697 466.926 170.811L458.022 167.788L462.352 175.846C460.445 177.793 458.436 179.714 456.336 181.556L452.454 177.767L453.435 184.025C452.595 184.717 451.743 185.398 450.878 186.066C435.317 198.082 421.047 202.411 410.63 203.69C400.216 204.974 393.669 203.231 393.669 203.231C393.669 203.231 387.723 185.41 399.173 160.712L407.116 161.629" fill="#FBBE2B"/>
<path d="M464.486 135.715L463.612 134.779L398.374 195.889L399.247 196.825L464.486 135.715Z" fill="white"/>
<path d="M442.62 156.172C446.025 150.905 448.991 137.691 449.115 137.132L447.867 136.853C447.835 136.988 444.826 150.402 441.546 155.475L442.62 156.172Z" fill="white"/>
<path d="M447.582 166.059L448.065 164.873C442.959 162.788 433.104 164.15 432.687 164.21L432.865 165.476C432.965 165.464 442.796 164.106 447.582 166.059Z" fill="white"/>
<path d="M417.01 180.113C419.928 173.342 418.23 162.786 418.157 162.339L416.895 162.549C416.912 162.654 418.603 173.182 415.835 179.606L417.01 180.113" fill="white"/>
<path d="M363.593 227.817C363.593 227.817 377.452 189.269 375.72 151.896C373.986 114.524 384.958 86.4615 402.858 88.6433C420.758 90.8252 436.348 158.454 368.213 231.863L363.593 227.817" fill="#40BB6D"/>
<path d="M369.578 226.412L368.186 225.536C368.437 225.135 393.342 184.958 394.306 140.639L395.951 140.674C394.977 185.46 369.834 226.007 369.578 226.412Z" fill="white"/>
<path d="M366.717 232.404C366.717 232.404 391.562 219.437 417.048 217.167C442.534 214.898 460.539 204.86 457.411 192.905C454.281 180.951 407.014 176.6 363.549 229.639L366.717 232.404Z" fill="#209058"/>
<path d="M368.005 229.273L366.951 228.009C367.202 227.799 392.417 206.94 422.746 202.137L423.004 203.764C393.133 208.494 368.254 229.066 368.005 229.273" fill="white"/>
<path d="M259.536 454.815L274.4 392.082H208.6L224.654 455.241H224.859C225.859 456.846 233.21 458.093 242.142 458.093C251.073 458.093 258.424 456.846 259.425 455.241H259.436L259.441 455.222C259.509 455.106 259.551 454.987 259.551 454.868L259.536 454.815" fill="#FF9A5C"/>
<path d="M208.6 392.082L224.654 455.241H224.859C225.859 456.846 233.21 458.093 242.142 458.093C243.483 458.093 244.783 458.062 246.038 458.009L233.362 392.082H208.6" fill="#E87C3C"/>
<path d="M274.4 392.276C274.4 395.789 259.67 398.638 241.5 398.638C223.33 398.638 208.6 395.789 208.6 392.276C208.6 388.761 223.33 385.913 241.5 385.913C259.67 385.913 274.4 388.761 274.4 392.276Z" fill="#753519"/>
<path d="M388.936 167.234C388.936 248.746 322.927 314.824 241.5 314.824C160.073 314.824 94.0629 248.746 94.0629 167.234C94.0629 85.7218 160.073 19.6422 241.5 19.6422C322.927 19.6422 388.936 85.7218 388.936 167.234Z" fill="#1C6467"/>
<path d="M271.159 270.567C198.371 270.567 139.365 211.5 139.365 138.636C139.365 89.5303 166.168 46.6951 205.924 23.9796C141.685 39.9136 94.0629 98.0023 94.0629 167.234C94.0629 248.746 160.073 314.824 241.5 314.824C308.753 314.824 365.484 269.746 383.198 208.128C359.952 245.606 318.47 270.567 271.159 270.567" fill="#185759"/>
<path d="M272.128 59.3337C266.26 57.5098 262.011 56.9387 258.569 54.9963C255.129 53.0538 251.689 51.6187 249.059 51.7281C246.428 51.8387 240.964 50.4023 237.726 51.7281C234.488 53.0538 231.061 59.7292 226.097 60.9501C221.132 62.1698 208.667 59.5366 205.186 57.308C201.705 55.0795 200.717 50.6223 201.717 48.3949C202.718 46.1663 203.122 42.1902 202.919 40.7345C202.718 39.2788 207.979 36.421 209.799 34.5071C211.62 32.5943 213.343 26.36 209.033 23.2411C188.388 27.8864 169.378 36.8622 153.013 49.1746C153.014 49.1871 153.142 50.6326 154.351 52.648C155.566 54.6748 153.618 55.89 153.681 56.4975C153.745 57.1051 154.828 57.0356 153.882 58.1846C152.935 59.3337 153.899 59.1308 153.012 59.9413C152.126 60.7518 151.316 61.5623 150.709 61.9669C150.102 62.3727 150.304 63.5879 149.09 65.006C147.876 66.424 145.65 67.6392 145.65 69.8678C145.65 72.0964 142.209 75.1343 141.804 76.3506C141.4 77.5657 137.96 82.2246 137.758 85.2637C137.554 88.3028 137.554 91.5436 137.758 93.3675C137.96 95.1902 138.061 97.2159 137.606 99.4445C137.15 101.673 136.746 103.699 136.543 107.75C136.34 111.801 137.96 113.625 141.804 114.84C145.65 116.056 152.924 119.499 154.75 122.133C156.577 124.767 157.589 128.008 159.006 128.412C160.422 128.818 161.636 133.072 166.292 136.313C170.946 139.554 179.648 139.966 183.492 144.115C187.338 148.265 194.42 158.379 196.242 163.958C198.062 169.535 201.098 171.591 204.336 174.311C207.574 177.032 211.621 180.071 214.656 180.272C217.692 180.475 218.93 179.201 218.817 178.117C218.704 177.032 214.859 173.79 214.252 172.98C213.645 172.17 212.431 166.7 210.609 162.851C208.788 159.002 208.585 158.845 209.192 156.998C209.799 155.153 211.014 151.107 212.835 150.092C214.656 149.076 216.074 149.817 217.287 148.028C218.502 146.24 218.93 145.232 218.817 144.115C218.704 142.999 216.882 142.306 215.061 142.146C213.24 141.986 212.634 140.365 210.205 139.96C207.776 139.554 204.336 138.542 203.526 137.124C202.718 135.706 200.896 135.301 199.682 135.503C198.468 135.706 194.825 136.313 192.397 133.883C189.968 131.451 189.766 126.793 189.361 124.361C188.956 121.931 188.552 121.12 189.159 119.296C189.766 117.474 189.766 116.044 192.599 114.733C195.432 113.422 200.086 112.398 202.919 114.733C205.752 117.069 211.419 115.245 212.634 113.827C213.846 112.409 217.287 108.155 220.121 107.953C222.954 107.75 227.608 107.953 229.43 106.332C231.251 104.711 238.131 101.295 239.345 98.5462C240.559 95.7978 245.214 87.8263 245.214 85.2284C245.214 82.6305 253.714 77.5657 256.142 78.3762C258.569 79.1867 261.808 75.3372 263.022 75.3372C264.236 75.3372 267.879 75.9448 269.903 73.5144C271.926 71.083 273.545 69.4506 275.164 67.1274C276.782 64.8031 277.997 61.1564 272.128 59.3337" fill="#31AFB4"/>
<path d="M259.51 250.302C259.51 250.302 252.687 246.026 246.889 243.582C241.091 241.138 236.82 232.49 235.294 230.705C233.769 228.92 232.548 213.343 235.294 210.593C238.04 207.844 240.805 203.262 243.084 199.598C245.363 195.931 246.279 193.489 245.363 191.961C244.448 190.434 244.448 181.761 245.363 180.294C246.279 178.827 250.856 176.077 252.991 176.383C253.822 176.503 255.347 176.29 257.061 176.078C259.75 175.746 262.909 175.413 264.585 176.36C267.332 177.91 277.707 183.401 282.284 183.71C286.86 184.019 291.438 187.99 295.099 185.852C298.76 183.714 304.134 186.158 307.245 190.739C310.355 195.32 314.017 199.982 319.204 202.997C324.392 206.011 323.94 208.76 326.912 209.371C329.883 209.982 336.522 211.796 340.118 214.258C343.715 216.722 342.534 219.757 339.566 223.422C336.596 227.087 332.903 232.892 330.478 236.556C328.053 240.222 328.936 245.719 330.478 247.247C332.019 248.774 330.799 255.189 328.663 257.022C326.527 258.853 321.951 261.908 320.12 265.268C318.288 268.628 318.465 271.12 314.258 272.624C310.051 274.126 300.591 278.402 294.794 279.777C288.997 281.152 284.115 281.475 280.149 284.827C276.181 288.177 275.622 297.275 271.889 298.835C268.157 300.395 256.958 307.411 252.687 306.957C248.414 306.504 248.421 305.649 250.859 302.563C253.296 299.478 259.467 294.045 262.943 289.094C266.419 284.139 261.84 279.357 264.892 277.352C267.942 275.348 268.477 269.392 269.43 267.636C270.384 265.88 270.128 256.124 259.51 250.302" fill="#31AFB4"/>
<path d="M347.174 113.743C347.785 114.988 351.039 116.413 353.48 117.635C355.922 118.857 358.215 116.977 359.203 113.743C360.193 110.508 364.466 109.897 366.702 111.119C368.94 112.341 371.381 112.952 373.008 112.544C374.615 112.143 377.731 110.944 377.81 110.913C368.497 88.3468 353.761 68.5941 335.218 53.2928C335.215 53.2973 333.543 55.7516 330.901 58.1842C328.257 60.6179 327.601 62.451 326.912 63.877C326.222 65.3019 324.188 71.4108 325.001 74.0577C325.816 76.7047 325.476 78.5377 328.494 80.7777C331.511 83.0176 334.196 83.778 332.853 87.8783C331.512 91.9775 332.528 96.3571 331.105 98.5458C329.68 100.733 329.516 105.01 332.853 107.861C336.189 110.711 340.461 110.101 341.478 110.304C342.496 110.508 346.565 112.497 347.174 113.743" fill="#31AFB4"/>
<path d="M246.889 148.028C246.889 148.028 246.889 150.828 244.854 152.66C242.821 154.493 240.787 157.751 242.821 158.158C244.854 158.566 249.126 159.167 250.144 159.782C251.161 160.398 256.45 163.249 257.874 162.231C259.298 161.213 260.315 158.77 261.739 158.566C263.163 158.362 263.569 154.752 264.789 153.604C266.01 152.457 270.283 148.384 270.689 145.126C271.096 141.867 271.502 136.98 270.689 135.759C269.875 134.537 264.18 133.722 263.569 132.093C262.959 130.464 259.331 129.242 256.569 130.871C253.805 132.501 252.584 136.166 252.178 138.813C251.771 141.461 246.686 143.397 246.889 148.028" fill="#31AFB4"/>
<path d="M273.811 152.425C273.811 152.425 271.41 154.602 269.729 156.998C268.049 159.395 272.61 158.194 273.811 158.433C275.011 158.674 275.251 160.41 277.653 159.782C280.053 159.155 277.893 159.875 280.053 159.155C282.214 158.433 282.934 158.674 285.095 158.433C287.256 158.194 286.831 156.622 288.004 155.245C289.177 153.867 289.231 152.665 288.004 151.464C286.776 150.262 286.055 153.867 283.655 151.464C281.253 149.061 281.334 146.996 279.133 148.028C276.932 149.061 277.503 149.423 276.498 150.324C275.491 151.223 273.811 152.425 273.811 152.425Z" fill="#31AFB4"/>
<path d="M241.5 314.824C241.463 314.824 241.426 314.824 241.389 314.824C241.424 314.824 241.465 314.824 241.5 314.824C241.537 314.824 241.572 314.824 241.61 314.824C241.574 314.824 241.536 314.824 241.5 314.824ZM241.643 314.824H241.645C241.662 314.824 241.68 314.824 241.695 314.824C241.68 314.824 241.66 314.824 241.643 314.824ZM241.356 314.824C241.331 314.824 241.305 314.824 241.28 314.824C241.305 314.824 241.331 314.824 241.356 314.824ZM241.239 314.824C241.215 314.824 241.19 314.824 241.165 314.824C241.19 314.824 241.215 314.824 241.239 314.824ZM241.76 314.824C241.765 314.824 241.758 314.824 241.763 314.824C241.775 314.824 241.782 314.824 241.795 314.824C241.783 314.824 241.773 314.824 241.76 314.824ZM241.81 314.824C241.82 314.824 241.825 314.824 241.833 314.824H241.834C241.831 314.824 241.815 314.824 241.81 314.824ZM241.87 314.824H241.872C241.88 314.824 241.883 314.824 241.891 314.824C241.883 314.824 241.879 314.824 241.87 314.824ZM241.13 314.824C241.101 314.824 241.073 314.824 241.044 314.823C241.075 314.824 241.1 314.824 241.13 314.824ZM241.929 314.823C241.937 314.823 241.941 314.823 241.949 314.823C241.955 314.823 241.949 314.823 241.955 314.823C241.947 314.823 241.937 314.823 241.929 314.823ZM241.018 314.823C240.981 314.823 240.945 314.823 240.909 314.823C240.948 314.823 240.978 314.823 241.018 314.823ZM241.981 314.823C241.987 314.823 241.98 314.823 241.985 314.823C241.989 314.823 241.987 314.823 241.99 314.823H241.981V314.823ZM242.018 314.823C242.042 314.823 242.064 314.823 242.088 314.823C242.064 314.823 242.042 314.823 242.018 314.823ZM240.884 314.823C240.855 314.823 240.828 314.823 240.799 314.823C240.829 314.823 240.853 314.823 240.884 314.823ZM242.118 314.823C242.143 314.823 242.162 314.823 242.187 314.823C242.167 314.823 242.138 314.823 242.118 314.823ZM242.239 314.822H242.243C242.259 314.822 242.267 314.822 242.284 314.822C242.272 314.822 242.251 314.822 242.239 314.822ZM240.761 314.822C240.737 314.822 240.71 314.822 240.687 314.822C240.71 314.822 240.736 314.822 240.761 314.822ZM240.648 314.822C240.624 314.822 240.598 314.822 240.574 314.822C240.599 314.822 240.623 314.822 240.648 314.822ZM242.351 314.822C242.356 314.822 242.351 314.822 242.357 314.822C242.365 314.822 242.374 314.822 242.382 314.822C242.374 314.822 242.359 314.822 242.351 314.822ZM242.421 314.822H242.424H242.425H242.421V314.822ZM240.536 314.821C240.5 314.821 240.463 314.821 240.427 314.821C240.462 314.821 240.501 314.821 240.536 314.821ZM242.463 314.821H242.468C242.472 314.821 242.474 314.821 242.479 314.821C242.474 314.821 242.468 314.821 242.463 314.821ZM242.524 314.821C242.532 314.821 242.54 314.821 242.548 314.821C242.559 314.821 242.562 314.821 242.572 314.821C242.556 314.821 242.54 314.821 242.524 314.821ZM240.425 314.821C240.388 314.82 240.354 314.82 240.318 314.82C240.352 314.82 240.39 314.82 240.425 314.821ZM242.575 314.821H242.577H242.578C242.573 314.821 242.579 314.821 242.575 314.821ZM242.619 314.82C242.639 314.82 242.654 314.82 242.675 314.82C242.654 314.82 242.639 314.82 242.619 314.82ZM240.285 314.82C240.261 314.82 240.231 314.819 240.206 314.819C240.231 314.819 240.26 314.82 240.285 314.82ZM242.717 314.82C242.737 314.82 242.753 314.819 242.774 314.819C242.753 314.819 242.737 314.82 242.717 314.82ZM240.168 314.819C240.145 314.819 240.119 314.817 240.096 314.817C240.119 314.817 240.143 314.819 240.168 314.819ZM242.831 314.819C242.836 314.819 242.831 314.819 242.835 314.819C242.843 314.819 242.862 314.819 242.87 314.819C242.854 314.819 242.847 314.819 242.831 314.819ZM240.057 314.817C240.028 314.817 239.994 314.816 239.966 314.816C239.995 314.816 240.026 314.817 240.057 314.817ZM242.944 314.817H242.949C242.953 314.817 242.964 314.817 242.969 314.817C242.961 314.817 242.951 314.817 242.944 314.817V314.817ZM243.015 314.816C243.019 314.816 243.021 314.816 243.024 314.816C243.03 314.816 243.029 314.816 243.033 314.816C243.026 314.816 243.023 314.816 243.015 314.816ZM239.949 314.816C239.908 314.816 239.878 314.815 239.838 314.815C239.878 314.815 239.909 314.816 239.949 314.816ZM243.052 314.816C243.056 314.816 243.053 314.816 243.059 314.816H243.067C243.057 314.816 243.06 314.816 243.052 314.816ZM243.114 314.815C243.127 314.815 243.142 314.815 243.153 314.815C243.159 314.815 243.156 314.815 243.162 314.815C243.145 314.815 243.131 314.815 243.114 314.815ZM239.809 314.815C239.78 314.814 239.756 314.814 239.728 314.814C239.753 314.814 239.784 314.814 239.809 314.815ZM243.213 314.814C243.23 314.814 243.244 314.814 243.26 314.814C243.244 314.814 243.23 314.814 243.213 314.814ZM239.687 314.813C239.666 314.813 239.64 314.813 239.621 314.813C239.64 314.813 239.667 314.813 239.687 314.813ZM243.312 314.813H243.314C243.326 314.813 243.347 314.813 243.359 314.813C243.343 314.813 243.328 314.813 243.312 314.813V314.813ZM239.574 314.812C239.55 314.812 239.527 314.812 239.502 314.811C239.527 314.812 239.549 314.812 239.574 314.812ZM243.425 314.812C243.43 314.812 243.427 314.812 243.433 314.812C243.441 314.812 243.448 314.812 243.457 314.812C243.445 314.812 243.438 314.812 243.425 314.812ZM239.466 314.811C239.429 314.811 239.397 314.809 239.361 314.809C239.395 314.809 239.432 314.811 239.466 314.811ZM243.533 314.811H243.544C243.547 314.811 243.552 314.811 243.555 314.811C243.547 314.811 243.541 314.811 243.533 314.811ZM243.602 314.809C243.606 314.809 243.61 314.809 243.614 314.809C243.623 314.809 243.628 314.809 243.638 314.809C243.626 314.809 243.614 314.809 243.602 314.809ZM239.337 314.808C239.309 314.808 239.278 314.808 239.249 314.807C239.279 314.808 239.308 314.808 239.337 314.808ZM243.703 314.808C243.72 314.808 243.733 314.807 243.75 314.807C243.733 314.807 243.72 314.808 243.703 314.808ZM239.208 314.807C239.185 314.806 239.164 314.806 239.14 314.806C239.165 314.806 239.183 314.806 239.208 314.807ZM243.8 314.807C243.816 314.806 243.829 314.806 243.847 314.806C243.829 314.806 243.816 314.806 243.8 314.807ZM239.095 314.805C239.074 314.805 239.049 314.805 239.029 314.804C239.049 314.805 239.074 314.805 239.095 314.805ZM243.906 314.805H243.91C243.923 314.805 243.932 314.805 243.944 314.805C243.932 314.805 243.918 314.805 243.906 314.805ZM238.985 314.804C238.96 314.803 238.939 314.803 238.915 314.803C238.939 314.803 238.96 314.803 238.985 314.804ZM244.015 314.804C244.02 314.804 244.02 314.804 244.024 314.803C244.032 314.803 244.033 314.803 244.041 314.803C244.033 314.803 244.023 314.803 244.015 314.804ZM238.874 314.801C238.842 314.8 238.803 314.8 238.77 314.799C238.805 314.8 238.84 314.8 238.874 314.801ZM244.126 314.801C244.13 314.801 244.132 314.801 244.137 314.801H244.139C244.135 314.801 244.129 314.801 244.126 314.801ZM244.192 314.8C244.195 314.8 244.203 314.8 244.208 314.8C244.212 314.8 244.225 314.799 244.229 314.799C244.217 314.8 244.203 314.8 244.192 314.8ZM238.729 314.799C238.709 314.798 238.684 314.798 238.664 314.798C238.688 314.798 238.704 314.798 238.729 314.799ZM244.291 314.798C244.307 314.798 244.318 314.798 244.334 314.798C244.318 314.798 244.307 314.798 244.291 314.798ZM238.612 314.797C238.596 314.796 238.57 314.796 238.554 314.796C238.573 314.796 238.592 314.796 238.612 314.797ZM244.387 314.797H244.39C244.406 314.796 244.415 314.796 244.431 314.796C244.419 314.796 244.4 314.797 244.387 314.797ZM238.504 314.795C238.479 314.793 238.465 314.793 238.441 314.793C238.466 314.793 238.479 314.793 238.504 314.795ZM244.497 314.795C244.501 314.795 244.501 314.795 244.506 314.795C244.514 314.795 244.521 314.793 244.529 314.793C244.517 314.793 244.508 314.795 244.497 314.795V314.795ZM238.395 314.792C238.367 314.791 238.337 314.791 238.309 314.79C238.338 314.791 238.366 314.791 238.395 314.792ZM244.605 314.792C244.61 314.792 244.612 314.792 244.616 314.792H244.625C244.617 314.792 244.613 314.792 244.605 314.792ZM244.682 314.79H244.685H244.689H244.682ZM238.246 314.789C238.227 314.789 238.206 314.788 238.186 314.788C238.206 314.788 238.227 314.789 238.246 314.789ZM244.78 314.789C244.785 314.789 244.792 314.788 244.796 314.788C244.801 314.788 244.809 314.788 244.813 314.788C244.801 314.788 244.793 314.788 244.78 314.789ZM238.128 314.787C238.107 314.785 238.098 314.785 238.078 314.785C238.093 314.785 238.113 314.787 238.128 314.787ZM244.878 314.787C244.891 314.785 244.906 314.785 244.917 314.785C244.906 314.785 244.891 314.785 244.878 314.787ZM238.021 314.784C238.005 314.783 237.988 314.783 237.971 314.783C237.985 314.783 238.006 314.783 238.021 314.784ZM244.978 314.784C244.984 314.784 244.982 314.784 244.986 314.784C244.994 314.783 245.006 314.783 245.014 314.783C245.001 314.783 244.991 314.783 244.978 314.784ZM237.91 314.781C237.894 314.781 237.886 314.781 237.87 314.781C237.885 314.781 237.896 314.781 237.91 314.781ZM245.09 314.781C245.095 314.781 245.098 314.781 245.103 314.781C245.106 314.781 245.106 314.781 245.111 314.781C245.103 314.781 245.098 314.781 245.09 314.781V314.781ZM237.642 314.775C237.629 314.774 237.613 314.774 237.602 314.774C237.611 314.774 237.631 314.774 237.642 314.775ZM245.367 314.774C245.37 314.774 245.377 314.774 245.38 314.774C245.386 314.774 245.393 314.774 245.398 314.774C245.386 314.774 245.378 314.774 245.367 314.774ZM237.536 314.772C237.52 314.772 237.513 314.772 237.497 314.771C237.507 314.771 237.525 314.772 237.536 314.772ZM245.465 314.772C245.477 314.772 245.487 314.772 245.5 314.771C245.487 314.772 245.477 314.772 245.465 314.772ZM237.429 314.769C237.416 314.768 237.406 314.768 237.394 314.768C237.405 314.768 237.418 314.768 237.429 314.769ZM245.572 314.769C245.576 314.768 245.583 314.768 245.588 314.768C245.592 314.768 245.592 314.768 245.596 314.768C245.588 314.768 245.58 314.768 245.572 314.769ZM237.146 314.762C237.138 314.76 237.133 314.76 237.125 314.76C237.129 314.76 237.142 314.762 237.146 314.762ZM245.854 314.762C245.86 314.762 245.87 314.76 245.875 314.76C245.871 314.76 245.859 314.762 245.854 314.762ZM237.051 314.758C237.039 314.758 237.031 314.758 237.019 314.757C237.033 314.758 237.036 314.758 237.051 314.758ZM245.951 314.758H245.959C245.969 314.758 245.97 314.758 245.981 314.757C245.973 314.758 245.959 314.758 245.951 314.758ZM236.947 314.756C236.936 314.755 236.925 314.755 236.914 314.755C236.929 314.755 236.932 314.755 236.947 314.756ZM246.052 314.756C246.058 314.755 246.061 314.755 246.066 314.755C246.071 314.755 246.076 314.755 246.081 314.755C246.073 314.755 246.06 314.755 246.052 314.756ZM236.842 314.752C236.834 314.751 236.825 314.751 236.817 314.751C236.823 314.751 236.838 314.752 236.842 314.752ZM246.157 314.752C246.163 314.752 246.171 314.751 246.175 314.751H246.178C246.173 314.751 246.162 314.752 246.157 314.752ZM236.559 314.743C236.554 314.743 236.547 314.742 236.543 314.742C236.548 314.742 236.553 314.743 236.559 314.743ZM246.443 314.743C246.447 314.743 246.451 314.742 246.455 314.742C246.452 314.742 246.446 314.743 246.443 314.743ZM236.462 314.74C236.454 314.74 236.448 314.739 236.44 314.739C236.45 314.74 236.452 314.74 236.462 314.74ZM246.539 314.74C246.549 314.74 246.549 314.74 246.559 314.739C246.551 314.739 246.546 314.74 246.539 314.74ZM236.356 314.736L236.348 314.735C236.353 314.736 236.351 314.736 236.356 314.736ZM246.644 314.736C246.649 314.736 246.646 314.736 246.65 314.736H246.644ZM235.97 314.723H235.965H235.97ZM247.03 314.723H247.034H247.03Z" fill="#E1EBE8"/>
<path d="M241.61 314.824C241.623 314.824 241.633 314.824 241.645 314.824H241.643C241.632 314.824 241.623 314.824 241.61 314.824ZM241.72 314.824C241.732 314.824 241.75 314.824 241.763 314.824C241.758 314.824 241.765 314.824 241.761 314.824C241.748 314.824 241.732 314.824 241.72 314.824ZM241.833 314.824C241.846 314.824 241.86 314.824 241.872 314.824H241.87C241.858 314.824 241.847 314.824 241.835 314.824H241.833ZM241.95 314.823C241.958 314.823 241.977 314.823 241.985 314.823C241.98 314.823 241.987 314.823 241.981 314.823C241.97 314.823 241.968 314.823 241.955 314.823C241.95 314.823 241.955 314.823 241.95 314.823V314.823ZM242.216 314.823C242.224 314.823 242.235 314.822 242.243 314.822H242.239C242.231 314.822 242.224 314.823 242.216 314.823ZM242.322 314.822C242.334 314.822 242.345 314.822 242.357 314.822C242.352 314.822 242.356 314.822 242.352 314.822C242.339 314.822 242.333 314.822 242.322 314.822V314.822ZM242.424 314.822C242.441 314.821 242.452 314.821 242.468 314.821H242.463C242.452 314.821 242.438 314.821 242.426 314.822H242.424ZM242.549 314.821C242.561 314.821 242.566 314.821 242.577 314.821H242.575H242.572C242.562 314.821 242.559 314.821 242.549 314.821ZM242.815 314.819C242.824 314.819 242.828 314.819 242.835 314.819C242.831 314.819 242.837 314.819 242.831 314.819C242.827 314.819 242.82 314.819 242.815 314.819ZM242.92 314.817C242.932 314.817 242.937 314.817 242.949 314.817H242.944C242.936 314.817 242.928 314.817 242.92 314.817ZM243.024 314.816C243.037 314.816 243.046 314.816 243.059 314.816C243.053 314.816 243.056 314.816 243.052 314.816C243.047 314.816 243.038 314.816 243.034 314.816C243.029 314.816 243.03 314.816 243.024 314.816V314.816ZM243.153 314.815C243.158 314.815 243.159 314.815 243.163 314.815H243.162C243.157 314.815 243.159 314.815 243.153 314.815ZM243.311 314.813C243.316 314.813 243.309 314.813 243.314 314.813H243.313H243.311V314.813ZM243.406 314.812C243.414 314.812 243.425 314.812 243.433 314.812C243.428 314.812 243.43 314.812 243.425 314.812C243.422 314.812 243.411 314.812 243.406 314.812V314.812ZM243.504 314.811C243.516 314.811 243.531 314.811 243.544 314.811H243.534C243.526 314.811 243.512 314.811 243.504 314.811V314.811ZM243.614 314.809C243.627 314.809 243.639 314.809 243.651 314.809C243.647 314.809 243.643 314.809 243.638 314.809C243.628 314.809 243.623 314.809 243.614 314.809ZM243.9 314.805C243.905 314.805 243.906 314.805 243.91 314.805H243.906C243.901 314.805 243.905 314.805 243.9 314.805ZM243.996 314.804C244.004 314.804 244.016 314.804 244.024 314.803C244.02 314.804 244.02 314.804 244.015 314.804C244.007 314.804 244.004 314.804 243.996 314.804ZM244.095 314.801C244.111 314.801 244.121 314.801 244.137 314.801C244.132 314.801 244.13 314.801 244.126 314.801C244.113 314.801 244.107 314.801 244.095 314.801ZM244.208 314.8C244.22 314.799 244.225 314.799 244.236 314.799C244.233 314.799 244.234 314.799 244.229 314.799C244.225 314.799 244.212 314.8 244.208 314.8ZM244.386 314.797H244.39H244.388C244.384 314.797 244.391 314.797 244.386 314.797ZM244.487 314.795C244.495 314.795 244.498 314.795 244.506 314.795C244.501 314.795 244.501 314.795 244.497 314.795H244.487ZM244.582 314.792C244.595 314.792 244.604 314.792 244.616 314.792C244.612 314.792 244.61 314.792 244.605 314.792C244.601 314.792 244.586 314.792 244.582 314.792V314.792ZM244.685 314.79C244.696 314.79 244.71 314.79 244.722 314.79C244.711 314.79 244.702 314.79 244.689 314.79H244.685ZM244.796 314.788C244.804 314.788 244.811 314.788 244.819 314.788H244.813C244.809 314.788 244.801 314.788 244.796 314.788V314.788ZM244.974 314.784C244.979 314.784 244.983 314.784 244.987 314.784C244.982 314.784 244.984 314.784 244.979 314.784H244.974ZM245.075 314.782C245.083 314.782 245.095 314.781 245.103 314.781C245.098 314.781 245.095 314.781 245.09 314.781C245.086 314.782 245.08 314.782 245.075 314.782V314.782ZM245.171 314.78C245.184 314.779 245.196 314.779 245.209 314.779C245.196 314.779 245.184 314.779 245.171 314.78ZM245.269 314.777C245.281 314.776 245.293 314.776 245.305 314.776C245.293 314.776 245.281 314.776 245.269 314.777ZM245.381 314.774C245.389 314.774 245.394 314.774 245.402 314.774H245.398C245.393 314.774 245.386 314.774 245.381 314.774ZM245.56 314.77C245.57 314.77 245.58 314.768 245.588 314.768C245.583 314.768 245.576 314.768 245.572 314.77C245.567 314.77 245.565 314.77 245.56 314.77ZM245.661 314.766C245.672 314.766 245.68 314.766 245.693 314.766C245.685 314.766 245.669 314.766 245.661 314.766ZM245.756 314.764C245.769 314.764 245.778 314.764 245.79 314.763C245.778 314.764 245.769 314.764 245.756 314.764ZM245.854 314.762C245.867 314.76 245.875 314.76 245.887 314.76C245.884 314.76 245.879 314.76 245.875 314.76C245.87 314.76 245.86 314.762 245.854 314.762ZM245.959 314.758C245.967 314.758 245.976 314.758 245.984 314.757H245.981C245.97 314.758 245.969 314.758 245.959 314.758V314.758ZM246.049 314.756C246.054 314.755 246.063 314.755 246.066 314.755C246.062 314.755 246.058 314.755 246.052 314.756H246.049ZM246.146 314.752C246.154 314.752 246.167 314.751 246.175 314.751C246.171 314.751 246.163 314.752 246.157 314.752C246.154 314.752 246.15 314.752 246.146 314.752V314.752ZM246.245 314.749C246.253 314.749 246.265 314.749 246.273 314.748C246.265 314.749 246.253 314.749 246.245 314.749ZM246.343 314.747C246.351 314.746 246.361 314.746 246.369 314.746C246.361 314.746 246.351 314.746 246.343 314.747ZM246.442 314.743C246.45 314.742 246.457 314.742 246.465 314.742C246.46 314.742 246.46 314.742 246.456 314.742C246.451 314.742 246.448 314.743 246.443 314.743H246.442V314.743ZM246.539 314.74C246.547 314.74 246.553 314.739 246.561 314.739H246.559C246.549 314.74 246.549 314.74 246.539 314.74ZM246.638 314.736C246.641 314.736 246.651 314.735 246.656 314.735C246.651 314.735 246.655 314.735 246.65 314.736C246.646 314.736 246.649 314.736 246.645 314.736C246.64 314.736 246.641 314.736 246.638 314.736V314.736ZM246.736 314.733C246.74 314.733 246.747 314.733 246.75 314.732C246.743 314.733 246.744 314.733 246.736 314.733ZM246.834 314.73C246.838 314.73 246.843 314.73 246.846 314.728C246.843 314.73 246.838 314.73 246.834 314.73ZM246.929 314.726C246.934 314.726 246.941 314.726 246.945 314.725C246.937 314.726 246.937 314.726 246.929 314.726ZM247.028 314.723C247.032 314.723 247.035 314.723 247.039 314.722C247.035 314.723 247.037 314.722 247.034 314.723H247.031H247.028ZM247.125 314.719C247.129 314.718 247.132 314.718 247.135 314.718C247.132 314.718 247.129 314.718 247.125 314.719ZM247.221 314.715C247.224 314.715 247.231 314.715 247.234 314.715C247.231 314.715 247.224 314.715 247.221 314.715ZM247.316 314.711C247.321 314.711 247.327 314.711 247.331 314.711C247.327 314.711 247.321 314.711 247.316 314.711ZM247.417 314.708L247.423 314.707L247.417 314.708ZM247.511 314.703H247.521C247.518 314.703 247.516 314.703 247.511 314.703ZM247.61 314.7H247.615H247.61ZM247.706 314.695C247.71 314.695 247.708 314.695 247.713 314.695H247.706ZM268.494 270.541C262.241 270.417 256.106 269.858 250.097 268.892C253.681 263.24 258.203 257.875 263.45 253.001C270.175 258.746 270.247 266.13 269.43 267.636C269.107 268.228 268.833 269.302 268.494 270.541V270.541ZM229.357 263.793C208.845 256.93 190.576 245.154 175.95 229.863C197.654 234.849 217.246 247.821 229.357 263.793ZM327.607 257.885C328 257.573 328.356 257.285 328.663 257.022C330.799 255.189 332.019 248.774 330.477 247.247C328.936 245.719 328.053 240.222 330.477 236.556C332.131 234.058 334.373 230.566 336.574 227.435C360.136 225.643 375.966 215.163 381.31 211.082C368.082 231.195 349.504 247.476 327.607 257.885Z" fill="#175E4B"/>
<path d="M241.5 314.824C241.466 314.824 241.425 314.824 241.389 314.824C241.378 314.824 241.369 314.824 241.356 314.824C241.331 314.824 241.305 314.824 241.28 314.824C241.268 314.824 241.252 314.824 241.239 314.824C241.215 314.824 241.19 314.824 241.165 314.824C241.153 314.824 241.142 314.824 241.13 314.824C241.1 314.824 241.075 314.824 241.044 314.823C241.033 314.823 241.031 314.823 241.018 314.823C240.978 314.823 240.949 314.823 240.909 314.823C240.901 314.823 240.892 314.823 240.884 314.823C240.853 314.823 240.829 314.823 240.8 314.823C240.787 314.823 240.773 314.823 240.761 314.822C240.736 314.822 240.711 314.822 240.687 314.822C240.674 314.822 240.661 314.822 240.648 314.822C240.623 314.822 240.599 314.822 240.574 314.822C240.562 314.821 240.549 314.821 240.537 314.821C240.501 314.821 240.463 314.821 240.427 314.821H240.425C240.391 314.82 240.352 314.82 240.318 314.82C240.305 314.82 240.297 314.82 240.285 314.82C240.26 314.82 240.231 314.819 240.206 314.819C240.195 314.819 240.181 314.819 240.169 314.819C240.144 314.819 240.12 314.817 240.096 314.817C240.079 314.817 240.073 314.817 240.057 314.817C240.026 314.817 239.996 314.816 239.966 314.816C239.963 314.816 239.952 314.816 239.949 314.816C239.909 314.816 239.878 314.815 239.839 314.815C239.831 314.815 239.817 314.815 239.809 314.815C239.784 314.814 239.753 314.814 239.728 314.814C239.717 314.814 239.7 314.814 239.687 314.813C239.668 314.813 239.64 314.813 239.621 314.813C239.604 314.813 239.59 314.812 239.574 314.812C239.549 314.812 239.528 314.812 239.503 314.811C239.491 314.811 239.479 314.811 239.466 314.811C239.432 314.811 239.396 314.809 239.361 314.809C239.353 314.809 239.345 314.808 239.337 314.808C239.308 314.808 239.279 314.808 239.25 314.807C239.237 314.807 239.221 314.807 239.209 314.807C239.184 314.806 239.166 314.806 239.14 314.806C239.125 314.806 239.111 314.805 239.095 314.805C239.074 314.805 239.049 314.805 239.029 314.804C239.013 314.804 239.002 314.804 238.986 314.804C238.961 314.803 238.939 314.803 238.915 314.803C238.902 314.801 238.887 314.801 238.874 314.801C238.84 314.8 238.806 314.8 238.77 314.799C238.754 314.799 238.745 314.799 238.729 314.799C238.704 314.798 238.688 314.798 238.664 314.798C238.644 314.797 238.633 314.797 238.612 314.797C238.593 314.796 238.573 314.796 238.554 314.796C238.538 314.795 238.52 314.795 238.504 314.795C238.479 314.793 238.466 314.793 238.441 314.793C238.43 314.793 238.407 314.792 238.396 314.792C238.366 314.791 238.339 314.791 238.309 314.79C238.285 314.79 238.272 314.79 238.247 314.789C238.227 314.789 238.207 314.788 238.186 314.788C238.17 314.788 238.144 314.787 238.128 314.787C238.113 314.787 238.093 314.785 238.078 314.785C238.062 314.785 238.037 314.784 238.021 314.784C238.006 314.783 237.986 314.783 237.971 314.783C237.952 314.782 237.931 314.782 237.911 314.781C237.896 314.781 237.886 314.781 237.871 314.781C237.793 314.779 237.718 314.776 237.642 314.775C237.632 314.774 237.611 314.774 237.602 314.774C237.582 314.773 237.555 314.773 237.536 314.772C237.526 314.772 237.508 314.771 237.497 314.771C237.477 314.771 237.448 314.77 237.429 314.77C237.419 314.768 237.405 314.768 237.395 314.768C237.314 314.766 237.227 314.764 237.147 314.762C237.142 314.762 237.129 314.76 237.125 314.76C237.101 314.759 237.076 314.759 237.051 314.758C237.036 314.758 237.034 314.758 237.019 314.757C236.995 314.757 236.972 314.756 236.947 314.756C236.932 314.755 236.929 314.755 236.914 314.755C236.89 314.754 236.866 314.752 236.843 314.752C236.838 314.752 236.823 314.751 236.817 314.751C236.733 314.749 236.643 314.746 236.559 314.743C236.553 314.743 236.549 314.742 236.543 314.742C236.516 314.741 236.489 314.741 236.462 314.74C236.452 314.74 236.451 314.74 236.441 314.739C236.412 314.738 236.385 314.738 236.356 314.736C236.352 314.736 236.353 314.736 236.348 314.735C236.22 314.732 236.099 314.727 235.97 314.723H235.966C235.934 314.72 235.903 314.719 235.871 314.718C171.789 312.311 118.179 268.957 100.369 210.038C104.139 213.148 123.378 227.699 153.365 227.697C153.992 227.697 154.629 227.691 155.267 227.678C155.812 227.667 156.356 227.662 156.902 227.662C163.34 227.662 169.732 228.434 175.951 229.863C190.577 245.154 208.845 256.93 229.358 263.793C235.76 272.238 240.073 281.521 241.5 290.905C242.646 283.375 245.646 275.91 250.097 268.892C256.107 269.858 262.241 270.417 268.494 270.541C267.828 272.967 266.911 276.025 264.892 277.352C261.84 279.358 266.419 284.14 262.944 289.094C259.467 294.046 253.296 299.478 250.859 302.563C248.421 305.649 248.414 306.504 252.687 306.958C252.82 306.971 252.96 306.978 253.107 306.978C257.651 306.978 268.273 300.346 271.89 298.836C275.622 297.275 276.181 288.177 280.149 284.827C284.115 281.476 288.997 281.152 294.794 279.777C300.591 278.402 310.051 274.126 314.259 272.624C318.465 271.12 318.289 268.628 320.12 265.268C321.688 262.391 325.269 259.738 327.607 257.885C349.504 247.476 368.082 231.195 381.31 211.082C381.863 210.661 382.305 210.306 382.631 210.038C364.875 268.779 311.538 312.048 247.713 314.695C247.708 314.695 247.711 314.695 247.706 314.695C247.674 314.698 247.647 314.699 247.615 314.7H247.61C247.582 314.701 247.55 314.702 247.522 314.703H247.511C247.479 314.706 247.456 314.706 247.424 314.707L247.417 314.708C247.388 314.709 247.36 314.71 247.331 314.711C247.327 314.711 247.321 314.711 247.317 314.711C247.288 314.713 247.263 314.714 247.235 314.715C247.231 314.715 247.224 314.715 247.221 314.715C247.193 314.716 247.164 314.717 247.136 314.718C247.132 314.718 247.129 314.718 247.125 314.719C247.097 314.719 247.067 314.72 247.039 314.722C247.035 314.723 247.032 314.723 247.029 314.723C247 314.724 246.973 314.724 246.945 314.725C246.941 314.726 246.934 314.726 246.929 314.726C246.906 314.727 246.871 314.728 246.846 314.728C246.843 314.73 246.838 314.73 246.834 314.73C246.805 314.731 246.779 314.732 246.751 314.732C246.747 314.733 246.74 314.733 246.736 314.733C246.712 314.734 246.68 314.735 246.656 314.735C246.652 314.735 246.641 314.736 246.638 314.736C246.614 314.738 246.586 314.738 246.562 314.739C246.554 314.739 246.547 314.74 246.539 314.74C246.514 314.741 246.489 314.741 246.465 314.742C246.457 314.742 246.45 314.742 246.442 314.743C246.418 314.743 246.393 314.744 246.369 314.746C246.361 314.746 246.351 314.746 246.343 314.747C246.318 314.747 246.297 314.748 246.274 314.748C246.266 314.749 246.253 314.749 246.245 314.749C246.221 314.75 246.202 314.75 246.178 314.751H246.176C246.168 314.751 246.154 314.752 246.146 314.752C246.122 314.754 246.105 314.754 246.081 314.755C246.077 314.755 246.071 314.755 246.066 314.755C246.063 314.755 246.054 314.755 246.049 314.756C246.025 314.756 246.008 314.757 245.984 314.757C245.976 314.758 245.967 314.758 245.959 314.758H245.951C245.927 314.759 245.911 314.759 245.888 314.76C245.875 314.76 245.867 314.76 245.854 314.762C245.831 314.762 245.815 314.763 245.791 314.763C245.778 314.764 245.769 314.764 245.757 314.764C245.736 314.765 245.713 314.765 245.693 314.766C245.68 314.766 245.672 314.766 245.661 314.766C245.636 314.767 245.621 314.767 245.596 314.768C245.593 314.768 245.593 314.768 245.588 314.768C245.58 314.768 245.57 314.77 245.561 314.77C245.541 314.77 245.52 314.771 245.5 314.771C245.488 314.772 245.478 314.772 245.465 314.772C245.446 314.773 245.422 314.773 245.402 314.774C245.394 314.774 245.389 314.774 245.381 314.774C245.377 314.774 245.371 314.774 245.367 314.774C245.347 314.775 245.326 314.775 245.306 314.776C245.293 314.776 245.282 314.776 245.269 314.777C245.25 314.777 245.228 314.777 245.209 314.779C245.196 314.779 245.184 314.779 245.171 314.78C245.152 314.78 245.13 314.781 245.111 314.781C245.106 314.781 245.106 314.781 245.103 314.781C245.095 314.781 245.084 314.782 245.076 314.782C245.055 314.782 245.035 314.783 245.014 314.783C245.006 314.783 244.995 314.783 244.987 314.784C244.983 314.784 244.979 314.784 244.974 314.784C244.955 314.784 244.938 314.785 244.917 314.785C244.906 314.785 244.891 314.785 244.879 314.787C244.859 314.787 244.84 314.787 244.819 314.788C244.811 314.788 244.805 314.788 244.797 314.788C244.792 314.788 244.785 314.789 244.781 314.789C244.761 314.789 244.743 314.789 244.723 314.79C244.71 314.79 244.696 314.79 244.685 314.79H244.683C244.663 314.791 244.646 314.791 244.626 314.792H244.617C244.604 314.792 244.595 314.792 244.583 314.792C244.562 314.793 244.549 314.793 244.529 314.793C244.521 314.793 244.514 314.795 244.506 314.795C244.498 314.795 244.495 314.795 244.487 314.795C244.466 314.795 244.452 314.796 244.431 314.796C244.415 314.796 244.406 314.796 244.39 314.797H244.387C244.371 314.797 244.351 314.797 244.334 314.798C244.318 314.798 244.307 314.798 244.291 314.798C244.274 314.799 244.253 314.799 244.236 314.799C244.225 314.799 244.22 314.799 244.208 314.8C244.203 314.8 244.195 314.8 244.192 314.8C244.175 314.8 244.155 314.8 244.14 314.801H244.137C244.121 314.801 244.111 314.801 244.095 314.801C244.079 314.803 244.058 314.803 244.042 314.803C244.034 314.803 244.032 314.803 244.025 314.803C244.017 314.804 244.004 314.804 243.996 314.804C243.98 314.804 243.961 314.804 243.945 314.805C243.932 314.805 243.923 314.805 243.911 314.805C243.906 314.805 243.905 314.805 243.9 314.805C243.884 314.805 243.863 314.806 243.847 314.806C243.83 314.806 243.816 314.806 243.8 314.807C243.784 314.807 243.766 314.807 243.75 314.807C243.733 314.807 243.72 314.808 243.703 314.808C243.687 314.808 243.668 314.808 243.651 314.809C243.64 314.809 243.627 314.809 243.615 314.809C243.61 314.809 243.607 314.809 243.602 314.809C243.586 314.809 243.572 314.811 243.555 314.811C243.552 314.811 243.547 314.811 243.544 314.811C243.531 314.811 243.517 314.811 243.504 314.811C243.488 314.812 243.473 314.812 243.457 314.812C243.448 314.812 243.441 314.812 243.434 314.812C243.426 314.812 243.414 314.812 243.406 314.812C243.39 314.813 243.375 314.813 243.36 314.813C243.347 314.813 243.326 314.813 243.314 314.813C243.309 314.813 243.316 314.813 243.312 314.813C243.296 314.814 243.278 314.814 243.26 314.814C243.244 314.814 243.231 314.814 243.214 314.814C243.198 314.815 243.18 314.815 243.164 314.815C243.159 314.815 243.158 314.815 243.153 314.815C243.142 314.815 243.127 314.815 243.115 314.815C243.099 314.816 243.083 314.816 243.067 314.816H243.059C243.046 314.816 243.037 314.816 243.025 314.816C243.021 314.816 243.019 314.816 243.016 314.816C243.003 314.816 242.98 314.817 242.969 314.817C242.964 314.817 242.953 314.817 242.95 314.817C242.937 314.817 242.932 314.817 242.92 314.817C242.904 314.817 242.887 314.817 242.87 314.819C242.862 314.819 242.844 314.819 242.836 314.819C242.828 314.819 242.824 314.819 242.815 314.819C242.804 314.819 242.787 314.819 242.774 314.819C242.754 314.819 242.738 314.82 242.717 314.82C242.705 314.82 242.688 314.82 242.675 314.82C242.655 314.82 242.64 314.82 242.619 314.82C242.607 314.82 242.59 314.821 242.578 314.821H242.577C242.566 314.821 242.561 314.821 242.549 314.821C242.541 314.821 242.533 314.821 242.525 314.821C242.509 314.821 242.495 314.821 242.479 314.821C242.475 314.821 242.472 314.821 242.468 314.821C242.452 314.821 242.442 314.821 242.425 314.822H242.421C242.405 314.822 242.4 314.822 242.382 314.822C242.374 314.822 242.365 314.822 242.357 314.822C242.345 314.822 242.335 314.822 242.322 314.822C242.31 314.822 242.296 314.822 242.285 314.822C242.267 314.822 242.259 314.822 242.244 314.822C242.236 314.822 242.224 314.823 242.216 314.823C242.205 314.823 242.199 314.823 242.188 314.823C242.163 314.823 242.143 314.823 242.118 314.823C242.106 314.823 242.101 314.823 242.089 314.823C242.065 314.823 242.042 314.823 242.018 314.823C242.01 314.823 241.999 314.823 241.991 314.823C241.987 314.823 241.99 314.823 241.985 314.823C241.977 314.823 241.958 314.823 241.95 314.823C241.942 314.823 241.937 314.823 241.929 314.823C241.917 314.824 241.904 314.824 241.892 314.824C241.884 314.824 241.88 314.824 241.872 314.824C241.86 314.824 241.846 314.824 241.834 314.824C241.826 314.824 241.82 314.824 241.811 314.824C241.803 314.824 241.803 314.824 241.795 314.824C241.782 314.824 241.776 314.824 241.763 314.824C241.75 314.824 241.732 314.824 241.72 314.824C241.712 314.824 241.705 314.824 241.696 314.824C241.68 314.824 241.663 314.824 241.646 314.824C241.633 314.824 241.623 314.824 241.61 314.824C241.573 314.824 241.538 314.824 241.5 314.824" fill="#165948"/>
<path d="M253.107 306.978C252.96 306.978 252.82 306.971 252.687 306.958C248.414 306.504 248.421 305.649 250.859 302.563C253.296 299.478 259.467 294.045 262.944 289.094C266.419 284.139 261.84 279.357 264.892 277.352C266.911 276.025 267.828 272.967 268.494 270.541C268.833 269.302 269.108 268.228 269.43 267.636C270.247 266.13 270.176 258.746 263.45 253.001C279.568 238.027 302.516 227.662 326.098 227.662C326.641 227.662 327.19 227.667 327.733 227.678C328.372 227.691 329.005 227.697 329.635 227.697C332.017 227.697 334.33 227.606 336.575 227.435C334.373 230.566 332.131 234.058 330.478 236.556C328.053 240.222 328.936 245.719 330.478 247.247C332.02 248.774 330.799 255.189 328.664 257.022C328.356 257.285 328 257.573 327.607 257.885C325.269 259.738 321.688 262.391 320.12 265.268C318.289 268.628 318.465 271.12 314.259 272.624C310.051 274.126 300.591 278.402 294.794 279.777C288.997 281.152 284.115 281.475 280.149 284.827C276.181 288.177 275.622 297.275 271.89 298.835C268.273 300.346 257.651 306.978 253.107 306.978" fill="#0E8364"/>
<path d="M327.733 241.292C286.352 240.447 246.465 271.871 241.5 304.519C236.535 271.871 196.648 240.447 155.267 241.292C120.557 242.001 99.6755 223.063 99.6755 223.063C111.901 315.463 166.23 328.506 203.985 325.832C222.088 324.549 237.47 338.908 237.47 357.075V394.385H245.53V357.075C245.53 338.908 260.912 324.549 279.015 325.832C316.77 328.506 371.099 315.463 383.324 223.063C383.324 223.063 362.443 242.001 327.733 241.292" fill="#40BB6D"/>
<path d="M278.872 325.821C310.417 328.091 353.601 319.408 374.103 262.56C364.807 267.982 348.832 274.808 327.733 274.377C286.352 273.531 246.465 304.956 241.5 337.604C236.535 304.956 196.648 273.531 155.267 274.377C134.168 274.808 118.193 267.982 108.897 262.56C129.399 319.408 172.583 328.091 204.128 325.821C222.187 324.522 237.47 339.072 237.47 357.197V370.78V394.385C239.87 395.679 242.746 395.738 245.197 394.547L245.53 394.385V370.78V357.197C245.53 339.072 260.813 324.522 278.872 325.821" fill="#209058"/>
<path d="M433.416 42.3487C433.416 63.6677 416.152 80.9502 394.856 80.9502C373.559 80.9502 356.296 63.6677 356.296 42.3487C356.296 21.0308 373.559 3.74827 394.856 3.74827C416.152 3.74827 433.416 21.0308 433.416 42.3487Z" fill="#FBBE2B"/>
<path d="M389.955 52.2783L389.919 52.2841L389.847 52.2943L389.788 52.3023L389.697 52.3114L389.604 52.3217L389.496 52.3319L389.387 52.341L389.253 52.3513L389.119 52.3615L388.979 52.3718L388.813 52.3821L388.663 52.3912L388.476 52.4026L388.318 52.4106L388.104 52.4197L387.938 52.4265L387.715 52.4357L387.532 52.4413L387.291 52.447L387.109 52.4516L386.826 52.4562L386.667 52.4584C386.548 52.4596 386.427 52.4607 386.307 52.4607H386.208C385.893 52.4607 385.57 52.4561 385.244 52.447L385.151 52.4447C385.022 52.4402 384.892 52.4357 384.764 52.4311L384.587 52.422C384.484 52.4174 384.378 52.4129 384.274 52.4072L384.086 52.3946L383.786 52.3741L383.593 52.3581L383.304 52.3319L383.103 52.3114L382.83 52.2818L382.629 52.2556L382.366 52.2202L382.169 52.1894L381.917 52.1472L381.723 52.1119L381.485 52.0629L381.301 52.0218L381.073 51.966L380.899 51.9193L380.688 51.8566L380.524 51.803L380.329 51.7323L380.178 51.673L380.001 51.5932L379.866 51.5283L379.707 51.4371L379.59 51.3675L379.447 51.2627L379.354 51.192L379.223 51.0632L379.159 50.9982L379.011 50.7862C378.945 50.6688 378.9 50.5342 378.873 50.3849L378.855 50.1102C378.74 47.6582 382.43 42.2663 383.286 40.6408L387.306 42.4829L384.597 31.8075L373.502 35.0813L377.229 37.1093L373.012 44.5371C371.227 47.5499 371.184 51.1703 372.898 54.2242C374.612 57.2781 377.723 59.1248 381.221 59.1669L381.485 59.1704L389.923 59.2695L390.006 52.2692V52.2681L390 52.2704L389.955 52.2783" fill="#1C6467"/>
<path d="M389.279 31.5236L389.293 31.4792L389.305 31.445L389.329 31.3766L389.351 31.3207L389.386 31.233L389.418 31.1532L389.461 31.0517L389.508 30.94L389.552 30.8374L389.615 30.6926L389.666 30.5775L389.738 30.4168L389.797 30.288L389.88 30.1078L389.943 29.9745L390.044 29.759L390.102 29.6371L390.219 29.3954L390.28 29.2723L390.414 29.0021L390.469 28.8915C390.521 28.7878 390.576 28.6818 390.631 28.5746L390.672 28.4948C390.882 28.0879 391.111 27.6604 391.354 27.2329L391.38 27.1862C391.452 27.062 391.523 26.9366 391.596 26.8112L391.661 26.7029C391.723 26.5991 391.784 26.4954 391.846 26.3917L391.931 26.2537L392.103 25.9767L392.199 25.8274L392.366 25.5698L392.47 25.4147L392.632 25.1754L392.744 25.0169L392.905 24.7946L393.02 24.6396L393.179 24.4321L393.296 24.2828L393.456 24.089L393.575 23.9488L393.734 23.7721L393.854 23.6421L394.011 23.4825L394.132 23.3652L394.289 23.2227L394.409 23.12L394.567 22.9981L394.684 22.9115L394.842 22.8111L394.956 22.7416L395.117 22.6641L395.222 22.6162L395.4 22.5604L395.484 22.5341L395.74 22.5022C395.874 22.4999 396.015 22.5239 396.158 22.5683L396.409 22.6812C398.627 23.7277 401.655 29.5208 402.688 31.0392L399.178 33.7305L409.867 36.3398L412.18 24.993L408.644 27.3389L404.067 20.1289C402.246 17.1377 399.071 15.4016 395.573 15.4859C392.076 15.5691 388.986 17.4546 387.31 20.5278L387.182 20.7604L383.139 28.1745L389.279 31.5293V31.5236" fill="#1C6467"/>
<path d="M389.293 31.5376L389.279 31.5294L389.293 31.5376Z" fill="#1C6467"/>
<path d="M418.761 45.2065L414.521 37.5974L408.413 41.0081H408.412L408.416 41.0115L408.529 41.1529L408.545 41.1746C408.597 41.2464 408.663 41.3398 408.741 41.4493L408.768 41.4892C408.847 41.602 408.936 41.732 409.031 41.8779L409.074 41.9429C409.174 42.091 409.279 42.2541 409.392 42.4308L409.439 42.5049C409.555 42.6873 409.676 42.8799 409.801 43.084L409.847 43.1592C409.975 43.3712 410.108 43.5912 410.243 43.8203L410.277 43.8796C410.416 44.1179 410.556 44.3641 410.697 44.6171L410.704 44.6297C410.845 44.8828 410.984 45.1427 411.121 45.4048L411.156 45.471C411.287 45.7229 411.415 45.9782 411.538 46.2336L411.587 46.3362C411.706 46.5847 411.82 46.8343 411.927 47.0817L411.978 47.198C412.082 47.443 412.179 47.6847 412.269 47.9229L412.313 48.0438C412.398 48.2797 412.476 48.5111 412.543 48.738L412.574 48.8475C412.638 49.0732 412.691 49.292 412.731 49.5018L412.746 49.5941C412.783 49.805 412.807 50.0067 412.815 50.196V50.2632C412.819 50.4548 412.808 50.636 412.777 50.8001L412.767 50.8343C412.732 51.0042 412.677 51.1604 412.598 51.2937C412.529 51.41 412.434 51.5149 412.319 51.6129L412.085 51.7679C410.013 53.0845 403.512 52.5625 401.679 52.6286L401.275 48.2205L393.371 55.8831L401.728 63.8911L401.632 59.646L410.165 59.6118C413.664 59.6631 416.824 57.8996 418.617 54.8925C420.411 51.8854 420.464 48.2649 418.761 45.2065" fill="#1C6467"/>
<path d="M408.398 41.0171L408.412 41.0078L408.398 41.0171Z" fill="#1C6467"/>
<path d="M120.377 38.4181C120.377 59.6345 103.114 76.835 81.8186 76.835C60.5218 76.835 43.2582 59.6345 43.2582 38.4181C43.2582 17.2006 60.5218 0.000122566 81.8186 0.000122566C103.114 0.000122566 120.377 17.2006 120.377 38.4181Z" fill="#FBBE2B"/>
<path d="M75.8448 59.9545H88.7945V45.8969H102.837V32.9324H88.7945V18.8748H75.8448V32.9324H61.801V45.8969H75.8448V59.9545ZM92.2187 63.3823H72.4194V49.3247H58.3768V29.5047H72.4194V15.4471H92.2187V29.5047H106.263V49.3247H92.2187V63.3823" fill="#1C6467"/>
<path d="M96.6444 274.399C96.6444 295.564 79.4244 312.72 58.1802 312.72C36.9374 312.72 19.7167 295.564 19.7167 274.399C19.7167 253.235 36.9374 236.078 58.1802 236.078C79.4244 236.078 96.6444 253.235 96.6444 274.399Z" fill="#FBBE2B"/>
<path d="M64.1871 293.772H49.2007V295.817H64.1871V293.772" fill="#1C6467"/>
<path d="M64.1871 290.24H49.2007V292.285H64.1871V290.24" fill="#1C6467"/>
<path d="M49.3317 297.304C49.7081 298.653 50.9309 299.648 52.3974 299.648H60.99C62.4571 299.648 63.6803 298.653 64.0562 297.304H49.3317Z" fill="#1C6467"/>
<path d="M55.8963 248.578C50.8574 248.811 46.3736 251.353 43.44 255.133C44.7745 257.595 47.4078 260.654 52.5348 263.899C61.6808 269.688 58.4625 279.907 58.4625 279.907C58.4625 279.907 57.8059 275.464 48.2609 274.248C45.097 273.846 42.787 272.949 41.1331 271.725C41.884 273.563 42.9431 275.241 44.2584 276.687C46.4385 279.083 47.7828 282.12 47.7828 285.359V285.441C47.7828 286.636 48.0759 287.759 48.5853 288.753H64.803C65.3122 287.759 65.6045 286.636 65.6045 285.441V285.428C65.6045 282.316 66.6863 279.247 68.8379 276.999C71.725 273.983 73.5026 269.896 73.5026 265.387C73.5026 255.828 65.5422 248.131 55.8963 248.578" fill="#1C6467"/>
<path d="M36.9259 250.42C37.397 253.124 38.2546 255.676 39.5347 257.952C40.7651 260.252 42.4355 262.242 44.4082 263.858C45.3868 264.71 46.4393 265.325 47.5922 266.07C48.7674 266.787 49.9017 267.578 50.9964 268.432C52.0952 269.277 53.1546 270.193 54.1048 271.237C54.5897 271.746 55.0309 272.307 55.433 272.897C55.8022 273.49 56.2243 274.143 56.2297 274.872C55.8974 274.27 55.3329 273.881 54.8144 273.473C54.2868 273.068 53.724 272.708 53.1702 272.34L51.4759 271.277L49.7549 270.248L46.2978 268.197C45.155 267.488 43.8918 266.653 42.8336 265.695C40.6557 263.795 38.9569 261.349 37.9498 258.682C36.9366 256.029 36.5255 253.155 36.9259 250.42Z" fill="#1C6467"/>
<path d="M456.959 274.303C456.959 295.519 439.694 312.72 418.398 312.72C397.103 312.72 379.839 295.519 379.839 274.303C379.839 253.086 397.103 235.886 418.398 235.886C439.694 235.886 456.959 253.086 456.959 274.303" fill="#FBBE2B"/>
<path d="M397.39 264.798C398.311 280.699 414.209 294.365 418.399 297.701C422.588 294.365 438.485 280.699 439.407 264.798L428.352 256.894H408.445L397.39 264.798ZM418.399 301.974L417.395 301.244C417.161 301.074 411.591 297.001 405.894 290.412C398.26 281.584 394.126 272.443 393.938 263.982L393.918 263.078L407.351 253.474H429.447L442.878 263.078L442.859 263.982C442.671 272.443 438.536 281.584 430.902 290.412C425.205 297.001 419.635 301.074 419.402 301.244L418.399 301.974" fill="#1C6467"/>
<path d="M418.398 292.501C413.124 287.866 403.31 277.904 401.593 266.695L409.721 260.884H427.074L435.204 266.695C433.485 277.904 423.672 287.866 418.398 292.501" fill="#1C6467"/>
<path d="M362.917 464.974C362.917 464.974 365.613 467.645 367.329 471.592C369.044 475.54 370.824 481.05 372.206 482.406C373.589 483.761 376.186 482.671 376.63 480.425C377.073 478.181 378.88 461.157 378.301 456.569C377.723 451.981 377.354 450.566 376.739 450.314C376.125 450.064 367.099 449.944 364.769 450.075C362.439 450.205 357.558 458.67 362.917 464.974" fill="#2A2954"/>
<path d="M291.984 362.032C291.984 362.032 300.094 387.606 299.384 388.688C297.623 391.372 283.514 406.477 283.514 406.477L290.449 410.696C290.449 410.696 311.162 394.317 310.245 385.899L300.335 359.707L291.984 362.032Z" fill="#FFB9B9"/>
<path d="M328.888 411.846C328.888 411.846 293.226 387.601 282.319 390.892C271.412 394.183 271.266 400.976 273.105 405.249C274.944 409.524 309.032 459.339 309.032 459.339L320.311 457.621L306.39 432.311C305.956 429.78 308.546 427.804 310.87 428.895L314.358 430.532L333.551 424.415L328.888 411.846" fill="#2862B5"/>
<path d="M348.986 307.487C347.147 302.492 343.13 298.946 338.411 297.49C338.416 296.088 338.188 294.663 337.676 293.269C335.363 286.992 328.405 283.781 322.135 286.095C319.734 286.982 317.786 288.554 316.421 290.506C315.049 290.448 313.656 290.578 312.27 290.871C308.367 283.679 299.696 280.24 291.798 283.157C283.127 286.358 278.689 295.991 281.888 304.671C284.8 312.577 293.042 316.946 301.041 315.247C304.801 322.175 312.365 327.41 320.021 325.048C324.289 330.555 332.392 331.116 339.272 328.576C347.772 325.438 352.122 315.996 348.986 307.487" fill="#753519"/>
<path d="M363.106 399.505C363.106 399.505 366.904 421.052 353.82 428.234C340.737 435.416 311.287 446.052 311.287 446.052L363.88 449.374L361.472 465.566C361.472 465.566 285.028 464.145 277.009 453.583C268.99 443.021 319.707 407.117 319.707 407.117L363.106 399.505Z" fill="#2862B5"/>
<path d="M312.309 321.037C312.309 321.037 298.858 321.654 295.02 333.182C289.926 348.48 295.225 366.72 311.588 383.479C315.274 387.252 319.802 401.841 319.708 407.118C319.708 407.118 357.989 406.55 363.106 399.505C363.106 399.505 350.623 330.822 312.309 321.037" fill="#4E3096"/>
<path d="M297.836 328.547C297.836 328.547 287.846 337.454 288.707 366.312C288.707 366.312 297.645 365.061 298.49 360.836L297.836 328.547Z" fill="#4E3096"/>
<path d="M340.857 356.142L326.227 358.114C326.227 358.114 333.825 372.129 334.388 374.1C334.952 376.072 300.907 408.462 300.907 408.462C300.907 408.462 297.642 411.208 297.108 411.72V411.723C296.446 412.233 296.066 412.917 295.551 413.601C294.751 414.67 293.95 416.674 293.684 418.01C293.417 419.345 294.15 419.879 294.751 419.879C295.352 419.879 296.152 418.811 296.152 418.811C296.152 418.811 295.885 420.013 296.152 420.748C296.419 421.482 298.389 420.279 298.888 419.078C298.888 419.078 298.898 421.686 299.46 421.752C300.022 421.816 301.023 421.082 301.223 419.345C301.223 419.345 303.95 418.147 306.056 415.875L306.784 413.839C312.608 409.468 340.272 388.562 344.798 382.267C349.863 375.226 340.857 356.142 340.857 356.142" fill="#FFB9B9"/>
<path d="M288.072 311.147C288.072 311.147 285.784 305.354 287.142 299.83C288.499 294.303 296.26 292.47 301.993 297.255C306.125 300.702 307.855 303.804 308.51 305.283C308.884 304.534 309.661 303.796 311.335 304.074C314.178 304.547 313.31 311.26 309.601 311.887C309.569 314.13 308.364 316.533 308.364 316.533C310.304 320.726 309.966 322.242 309.966 322.242C308.621 327.369 306.717 332.702 303.554 332.208C300.392 331.715 302.247 328.114 302.457 326.449C302.665 324.786 301.33 324.588 301.33 324.588C293.633 326.98 288.072 311.147 288.072 311.147" fill="#FFB9B9"/>
<path d="M287.836 294.779C287.836 294.779 299.546 304.778 303.891 302.335C303.891 302.335 296.429 284.078 287.836 294.779Z" fill="#753519"/>
<path d="M312.309 321.037C312.309 321.037 335.39 326.202 344.253 353.241C344.253 353.241 335.811 362.537 322.306 359.156C322.306 359.156 316.115 335.42 312.309 321.037" fill="#4E3096"/>
<path d="M289.335 293.285C289.335 293.285 287.038 308.519 282.156 309.526C282.156 309.526 275.838 290.841 289.335 293.285Z" fill="#753519"/>
<path d="M150.859 226.126C140.155 237.844 123.241 226.842 131.049 213.019C131.246 212.67 131.423 212.294 131.682 211.964C141.336 199.625 138.718 213.245 149.025 202.531C159.33 191.818 183.822 204.327 172.934 218.237C162.044 232.146 153.781 222.926 153.781 222.926L150.859 226.126" fill="#0E1A34"/>
<path d="M176.802 346.113L176.497 339.942L224.904 339.012L225.11 343.199L176.802 346.113" fill="#FBBE2B"/>
<path d="M221.009 342.873L220.844 339.528L229.357 334.11L230.014 347.425L221.009 342.873" fill="#FBBE2B"/>
<path d="M229.932 347.428C229.307 347.459 228.654 344.505 228.473 340.828C228.29 337.151 228.649 334.146 229.275 334.115C229.901 334.084 230.554 337.039 230.736 340.715C230.917 344.393 230.558 347.398 229.932 347.428Z" fill="#EC643B"/>
<path d="M162.929 326.015C158.125 318.473 159.569 308.367 166.146 303.49C172.724 298.611 181.984 300.778 186.789 308.321L184.801 309.795C180.633 303.257 172.784 301.239 167.303 305.303C161.821 309.369 160.752 317.999 164.918 324.54L162.929 326.015" fill="#EC643B"/>
<path d="M189.187 359.086L189.275 359.013C189.362 358.918 189.417 358.798 189.448 358.659L211.974 321.913L190.085 302.067L155.779 328.131C155.644 328.176 155.531 328.244 155.444 328.338L155.38 328.434L155.309 328.489L155.332 328.509C154.415 330.447 160.706 338.356 169.753 346.558C178.799 354.759 187.28 360.247 189.117 359.143L189.14 359.163L189.187 359.086" fill="#FBBE2B"/>
<path d="M211.905 322.01C210.972 323.041 205.312 319.43 199.262 313.944C193.211 308.458 189.063 303.174 189.996 302.144C190.928 301.113 196.589 304.725 202.639 310.21C208.689 315.696 212.838 320.979 211.905 322.01Z" fill="#EC643B"/>
<path d="M189.275 359.013C189.361 358.918 189.417 358.798 189.448 358.659L204.601 333.94C190.399 343.888 170.73 343.092 157.339 330.951C156.607 330.287 155.917 329.593 155.248 328.888C155.122 331.327 161.206 338.81 169.752 346.558C178.798 354.759 187.28 360.247 189.117 359.143L189.139 359.163L189.187 359.086L189.275 359.013" fill="#FBBE2B"/>
<path d="M183.518 315.709L189.191 311.195C189.799 310.712 189.825 309.888 189.249 309.366C188.674 308.845 187.705 308.813 187.097 309.297L181.783 313.525C181.109 314.06 181.077 315.074 181.715 315.652C182.221 316.11 182.984 316.134 183.518 315.709" fill="white"/>
<path d="M176.133 318.022L161.409 329.737C160.865 330.17 160.657 330.942 160.996 331.548C161.428 332.321 162.422 332.494 163.085 331.968L177.867 320.206C178.541 319.669 178.573 318.657 177.935 318.08C177.43 317.621 176.668 317.597 176.133 318.022Z" fill="white"/>
<path d="M149.71 451.825C149.71 451.825 151.029 454.097 153.373 455.934C155.715 457.769 159.093 459.92 159.76 461.083C160.427 462.245 159.246 463.798 157.667 463.706C156.088 463.612 144.382 461.865 141.414 460.679C138.445 459.494 137.563 459.002 137.501 458.546C137.438 458.091 138.928 452.018 139.42 450.478C139.912 448.938 146.423 447.136 149.71 451.825" fill="#2A2954"/>
<path d="M97.5323 436.609C97.5323 436.609 98.2952 439.124 100.156 441.45C102.014 443.774 104.81 446.644 105.191 447.929C105.574 449.214 104.07 450.453 102.553 450.001C101.037 449.548 90.0462 445.157 87.4282 443.322C84.8102 441.485 84.0644 440.804 84.1088 440.344C84.1532 439.887 86.9944 434.32 87.8256 432.934C88.6581 431.55 95.4096 431.291 97.5323 436.609" fill="#2A2954"/>
<path d="M114.612 326.069C114.612 326.069 110.611 344.241 116.023 352.921C121.434 361.601 143.266 394.028 144.525 399.317C145.783 404.608 137.829 450.312 137.829 450.312L151.01 450.997C151.01 450.997 167.731 399.137 166.923 393.497C164.095 373.754 153.16 343.287 156.222 325.156L114.612 326.069" fill="#2862B5"/>
<path d="M135.141 240.297C135.141 240.297 142.553 241.029 144.345 242.518C158.227 254.064 160.535 290.421 157.975 329.517L112.488 326.101C112.488 326.101 117.859 255.634 135.141 240.297Z" fill="#4E3096"/>
<path d="M117.707 355.55C117.707 355.55 121.638 374.7 111.994 392.257C102.35 409.81 86.6616 433.4 86.6616 433.4L97.9134 435.715C97.9134 435.715 129.684 400.319 136.255 384.266L117.707 355.55Z" fill="#2862B5"/>
<path d="M157.403 223.259C157.364 223.893 156.097 231.785 152.471 235.76C148.844 239.733 145.785 237.545 144.75 238.014C143.714 238.485 143.215 241.471 143.311 243.583C143.407 245.696 140.126 247.96 136.855 245.781C133.585 243.601 134.785 232.752 134.785 232.752C134.785 232.752 132.879 229.24 133.953 224.323C133.953 224.323 132.155 220.383 133.189 218.009C134.222 215.633 135.938 216.19 136.859 217.841C136.859 217.841 140.534 210.267 146.498 211.266C152.464 212.266 157.882 215.194 157.403 223.259" fill="#FFB9B9"/>
<path d="M161.067 305.887C161.067 305.887 130.513 303.852 119.01 298.968C107.509 294.084 108.284 288.586 109.386 284.578C110.487 280.569 114.309 271.874 114.309 271.874L125.742 278.375L125.723 280.777L124.342 285.114C124.342 285.114 128.044 286.953 133.587 289.311C139.129 291.672 161.476 299.22 161.476 299.22C161.476 299.22 167.107 302.954 161.067 305.887" fill="#FFB9B9"/>
<path d="M162.39 304.965C165.13 307.362 168.466 308.429 168.466 308.429C168.912 310.433 170.173 311.171 170.822 311.025C171.471 310.88 171.163 307.829 171.163 307.829C171.893 309.173 174.344 310.337 174.565 309.445C174.787 308.554 174.328 307.182 174.328 307.182C174.328 307.182 175.394 308.332 176.096 308.258C176.798 308.185 177.59 307.47 177.115 305.942C176.639 304.412 175.457 302.168 174.39 301.018C173.325 299.867 172.647 298.676 170.57 298.419C168.493 298.165 167.823 298.551 165.459 298.562C163.095 298.574 159.611 299.176 159.611 299.176L162.39 304.965" fill="#FFB9B9"/>
<path d="M162.689 300.024L162.557 298.764C162.557 298.764 168.073 296.436 169.247 296.715C170.421 296.994 171.654 298.476 172.342 299.009C173.028 299.541 162.689 300.024 162.689 300.024Z" fill="#FFB9B9"/>
<path d="M134.217 239.735C131.558 239.629 117.17 242.79 110.708 273.367L128.432 278.166C128.432 278.166 130.953 258.633 134.679 240.147C134.724 239.932 134.458 239.746 134.217 239.735Z" fill="#4E3096"/>
<path d="M152.178 211.46C150.393 216.218 145.093 218.625 140.34 216.839C135.587 215.051 133.182 209.745 134.967 204.988C136.752 200.23 142.053 197.821 146.806 199.609C151.559 201.396 153.964 206.701 152.178 211.46Z" fill="#0E1A34"/>
<path d="M167.761 216.723C165.975 221.481 160.676 223.89 155.922 222.102C151.169 220.315 148.764 215.009 150.55 210.251C152.334 205.493 157.635 203.086 162.388 204.872C167.14 206.659 169.546 211.966 167.761 216.723Z" fill="#0E1A34"/>
<path d="M241.529 349.281C243.457 351.912 242.929 353.427 241.614 354.392C240.298 355.358 238.696 355.408 236.768 352.775C234.84 350.143 234.631 344.86 234.631 344.86C234.631 344.86 239.601 346.648 241.529 349.281" fill="#31AFB4"/>
<path d="M238.315 365.986C238.647 368.453 237.74 369.275 236.509 369.44C235.275 369.607 234.184 369.055 233.853 366.588C233.521 364.122 235.306 360.507 235.306 360.507C235.306 360.507 237.983 363.52 238.315 365.986Z" fill="#31AFB4"/>
<path d="M243.424 386.444C243.757 388.911 242.849 389.733 241.617 389.898C240.385 390.064 239.294 389.514 238.963 387.046C238.63 384.579 240.416 380.965 240.416 380.965C240.416 380.965 243.093 383.977 243.424 386.444" fill="#31AFB4"/>
<path d="M251.267 372.835C251.781 376.659 250.377 377.931 248.466 378.188C246.556 378.447 244.865 377.592 244.35 373.768C243.836 369.944 246.603 364.342 246.603 364.342C246.603 364.342 250.752 369.011 251.267 372.835" fill="#31AFB4"/>
<path d="M221.544 418.754L221.577 418.75C222.534 418.633 223.182 417.718 222.971 416.776L220.422 405.39C220.222 404.504 219.343 403.945 218.456 404.145C217.569 404.343 217.012 405.224 217.211 406.111L219.76 417.492C219.942 418.309 220.714 418.856 221.544 418.754Z" fill="white"/>
<path d="M223.195 424.491L223.164 424.495C222.206 424.612 221.559 425.529 221.77 426.47L226.998 449.817C227.197 450.704 228.076 451.263 228.962 451.064C229.849 450.864 230.406 449.983 230.208 449.097L224.981 425.753C224.798 424.936 224.026 424.39 223.195 424.491" fill="white"/>
</svg>
