<svg width="530" height="531" viewBox="0 0 530 531" fill="none" xmlns="http://www.w3.org/2000/svg">
<path d="M452.384 268.915C555.872 328.663 555.872 425.536 452.383 485.287C348.893 545.035 181.104 545.035 77.6158 485.287C-25.8723 425.537 -25.8719 328.665 77.6168 268.915C181.106 209.166 348.895 209.166 452.384 268.915Z" fill="#BEE9E9"/>
<path d="M344.813 413.2C363.84 424.185 363.84 441.998 344.813 452.984C325.784 463.969 294.933 463.969 275.905 452.984C256.878 441.998 256.878 424.187 275.905 413.2C294.934 402.215 325.785 402.215 344.813 413.2Z" fill="#91DEE1"/>
<path d="M471.578 396.543C490.606 407.528 490.606 425.339 471.578 436.326C452.548 447.312 421.698 447.312 402.67 436.326C383.642 425.341 383.642 407.528 402.67 396.543C421.699 385.556 452.549 385.556 471.578 396.543Z" fill="#91DEE1"/>
<path d="M205.055 455.381C224.083 466.367 224.083 484.178 205.055 495.163C186.027 506.15 155.176 506.15 136.148 495.165C117.12 484.178 117.12 466.367 136.148 455.381C155.177 444.395 186.027 444.395 205.055 455.381Z" fill="#91DEE1"/>
<path d="M90.7198 382.763C90.7198 382.763 89.4416 353.017 76.9767 336.467C64.5118 319.918 49.2198 317.53 41.6331 322.188C36.105 325.583 36.8502 335.659 46.421 342.246C55.9926 348.831 74.4427 365.575 77.3258 376.515L90.7198 382.763Z" fill="#064E3B"/>
<path d="M82.5357 378.429C82.1162 378.403 81.7928 378.043 81.8131 377.622C83.0941 350.634 59.4109 333.805 52.9979 330.776C52.6129 330.593 52.4482 330.133 52.6294 329.749C52.8121 329.362 53.2715 329.203 53.6561 329.379C60.2655 332.502 84.6755 349.852 83.3544 377.695C83.3337 378.121 82.9722 378.451 82.5477 378.43L82.5357 378.429Z" fill="white"/>
<path d="M84.796 373.372C83.0638 373.123 81.3872 372.815 80.2473 371.559C78.7957 369.96 78.9185 367.528 78.2506 365.473C77.1558 362.107 73.834 359.825 70.369 359.102C66.9035 358.377 63.3019 358.972 59.8645 359.815C56.0043 360.763 52.2279 359.864 48.4391 358.964C45.4102 358.246 42.3735 357.526 39.2801 357.751C36.7949 357.931 34.27 358.522 32.2319 359.957C30.1942 361.391 28.7177 363.784 28.8584 366.272C28.9757 368.348 30.1804 370.24 31.7259 371.631C33.2719 373.019 35.1468 373.98 36.9986 374.923C39.0344 375.962 41.0703 376.999 43.1057 378.038C44.1154 378.552 45.142 379.08 45.9447 379.879C47.4552 381.384 48.5017 384.295 48.079 386.385C47.6075 388.714 45.6962 390.535 45.1282 392.843C44.3826 395.874 46.234 399.111 48.8913 400.748C51.5491 402.386 54.8222 402.694 57.9385 402.514C61.0549 402.334 64.1391 401.711 67.2608 401.656C69.3635 401.618 71.5533 401.867 73.3408 402.977C75.5207 404.33 76.7883 406.763 77.6121 409.194C78.142 410.756 78.55 412.402 79.5229 413.735C80.5308 415.115 82.0662 416.032 83.6715 416.62C86.7482 417.746 90.3249 417.78 93.3954 416.602C95.9698 415.615 97.2292 412.706 98.1905 410.188C99.1557 407.661 99.6142 404.645 99.5457 401.963C99.3681 394.958 97.7904 387.398 94.7551 381.073C93.3061 378.054 91.2017 375.042 88.02 373.996C87.0039 373.662 85.889 373.529 84.796 373.372Z" fill="#047B57"/>
<path d="M91.542 405.713C91.2573 405.713 90.9918 405.535 90.8935 405.253C83.6336 384.426 49.2519 366.298 36.6812 364.22C36.3063 364.158 36.0529 363.806 36.1144 363.43C36.1766 363.055 36.5386 362.8 36.9042 362.864C49.7155 364.98 84.7684 383.501 92.1906 404.798C92.317 405.157 92.128 405.55 91.7692 405.674L91.542 405.713Z" fill="white"/>
<path d="M60.6476 394.309C60.442 394.309 60.2378 394.217 60.102 394.04C59.8716 393.74 59.9278 393.308 60.2285 393.077C60.5414 392.836 68.0108 387.195 79.3244 386.942H79.3391C79.7126 386.942 80.019 387.24 80.0268 387.615C80.0352 387.994 79.7343 388.309 79.3543 388.318C68.4874 388.56 61.1388 394.11 61.0662 394.166C60.9415 394.262 60.7938 394.309 60.6476 394.309Z" fill="white"/>
<path d="M91.9036 421.834C90.5278 421.039 89.4123 419.022 89.4123 417.328L89.4115 171.932C89.4115 170.239 90.6005 168.179 92.0678 167.332L380.765 0.663696C382.232 -0.182953 384.537 -0.225372 385.913 0.569458C387.289 1.36313 388.405 3.38028 388.405 5.07477L388.406 250.47C388.406 252.165 387.217 254.224 385.75 255.071L97.0508 421.739C95.5839 422.586 93.2794 422.629 91.9036 421.834Z" fill="#33535F"/>
<path d="M96.5459 421.969L96.4356 422.006L96.1779 422.103L95.982 422.164C95.8716 422.201 95.7493 422.239 95.614 422.251L95.3684 422.3C95.246 422.325 95.0984 422.349 94.9636 422.361C93.8717 422.484 92.7304 422.312 91.909 421.834C90.5226 421.037 89.4186 419.024 89.4186 417.331L89.4062 203.392L94.3988 206.275V420.202C94.3988 421.404 95.0004 422.103 95.8716 422.103C95.994 422.103 96.1043 422.092 96.2268 422.054L96.2884 422.042L96.5459 421.969Z" fill="#26B6A6"/>
<path d="M94.2827 422.4C93.4128 422.4 92.5605 422.213 91.9092 421.834C90.5228 421.037 89.4188 419.024 89.4188 417.331L89.4092 250.908L94.399 253.812V420.202C94.399 420.208 94.399 420.212 94.3995 420.218C94.4009 420.55 94.4482 420.842 94.5346 421.093C94.5356 421.096 94.537 421.099 94.5379 421.102C94.7638 421.745 95.2486 422.103 95.8719 422.103C95.9675 422.103 96.0558 422.096 96.1487 422.075C96.232 422.062 96.3176 422.042 96.4045 422.017L96.1781 422.103L95.9822 422.164C95.8719 422.201 95.7495 422.239 95.6142 422.25L95.3686 422.3C95.2462 422.325 95.0986 422.348 94.9639 422.361C94.738 422.387 94.5095 422.4 94.2827 422.4Z" fill="#A4E0CF"/>
<path d="M94.3988 206.275L89.4062 203.392V250.907L94.3988 253.812V206.275Z" fill="#26B6A6"/>
<path d="M94.3988 253.812L89.409 250.908L89.4062 250.907V203.392L94.3988 206.275V253.812Z" fill="#19B19D"/>
<path d="M95.1719 172.195C94.6936 173.017 94.3988 173.961 94.3988 174.808V206.275L89.4063 203.392V171.937C89.4063 171.826 89.4062 171.728 89.4186 171.618C89.4425 171.397 89.4798 171.176 89.5291 170.956C89.6633 170.404 89.8971 169.827 90.1914 169.312L95.1719 172.195Z" fill="#17282F"/>
<path d="M388.399 5.06999V19.2652L176.78 141.438C175.32 142.285 174.131 141.597 174.131 139.904V134.531C174.131 132.838 172.94 132.151 171.468 132.998L107.023 170.207C105.551 171.053 104.361 173.114 104.361 174.807V180.182C104.361 181.874 103.171 183.936 101.711 184.781L94.399 189.001V174.807C94.399 173.114 95.5894 171.053 97.0495 170.207L385.75 3.53683C387.209 2.69019 388.399 3.37787 388.399 5.06999Z" fill="#273E47"/>
<path d="M388.412 250.465C388.412 252.159 387.222 254.219 385.75 255.065L97.0495 421.735C95.5894 422.583 94.399 421.895 94.399 420.202V189.001L101.711 184.781C103.171 183.936 105.551 171.053 107.023 170.207L170.39 133.62C171.126 133.197 172.359 135.362 173.589 137.529C174.821 139.696 176.05 141.861 176.78 141.438L388.399 19.2652V36.5385L388.412 250.465Z" fill="#26B6A6"/>
<path d="M95.3917 422.02C95.0011 421.883 94.7017 421.567 94.538 421.102C94.5371 421.099 94.5356 421.096 94.5347 421.093C94.4483 420.842 94.4009 420.55 94.3995 420.218C94.3991 420.212 94.399 420.208 94.399 420.202C94.399 421.169 94.7873 421.807 95.3917 422.02ZM95.8678 420.92C95.5913 420.92 95.5766 420.322 95.5766 420.202V205.595L387.222 37.218L387.235 250.465C387.235 251.737 386.266 253.41 385.161 254.046L358.885 269.215L363.717 252.56L343.066 258C340.975 254.998 337.994 250.73 335.109 246.656L367.679 227.851C369.088 227.038 370.229 225.142 370.229 223.618C370.229 222.56 369.681 221.958 368.877 221.958C368.52 221.958 368.113 222.077 367.679 222.327L332.323 242.741C331.298 241.309 330.335 239.975 329.485 238.814L367.679 216.763C369.088 215.949 370.229 214.054 370.229 212.529C370.229 211.472 369.682 210.871 368.877 210.871C368.52 210.871 368.113 210.988 367.679 211.239L326.558 234.98C325.278 233.477 324.041 232.426 322.626 231.685L367.679 205.674C369.088 204.862 370.229 202.966 370.229 201.44C370.229 200.384 369.682 199.782 368.877 199.782C368.52 199.782 368.113 199.901 367.679 200.15L315.826 230.088C315.346 230.053 314.846 230.023 314.322 229.999L311.369 229.689C311.332 229.645 311.312 229.623 311.312 229.623L311.347 225.479C313.148 225.782 314.979 226.056 316.486 226.056C317.435 226.056 318.256 225.948 318.857 225.669C320.103 225.093 322.331 223.39 323.266 217.632C325.459 214.534 326.792 210.729 326.892 206.59L326.92 205.382C326.905 202.376 326.29 199.522 325.195 196.937L367.679 172.409C369.088 171.596 370.229 169.7 370.229 168.174C370.229 167.118 369.682 166.516 368.877 166.516C368.52 166.516 368.113 166.635 367.679 166.885L322.847 192.768C321.875 191.422 320.754 190.201 319.509 189.132L367.679 161.32C369.088 160.507 370.229 158.612 370.229 157.087C370.229 156.03 369.681 155.427 368.877 155.427C368.52 155.427 368.113 155.546 367.679 155.796L315.014 186.202C312.999 185.245 310.81 184.62 308.509 184.394L367.679 150.232C369.088 149.419 370.229 147.523 370.229 145.998C370.229 144.942 369.682 144.34 368.877 144.34C368.52 144.34 368.113 144.458 367.679 144.708L291.756 188.542C291.299 187.734 290.461 187.243 289.551 187.243C289.291 187.243 289.024 187.283 288.76 187.368L289.414 189.894L288.884 190.2C288.515 190.004 288.122 189.911 287.734 189.911C286.808 189.911 285.911 190.445 285.438 191.387L286.127 191.792L205.366 238.419C203.959 239.232 202.817 241.128 202.817 242.652C202.817 243.709 203.364 244.31 204.169 244.31C204.525 244.31 204.933 244.191 205.366 243.942L288.3 196.061C287.309 198.125 286.632 200.381 286.336 202.76L205.366 249.508C203.959 250.321 202.817 252.216 202.817 253.741C202.817 254.798 203.364 255.399 204.169 255.399C204.525 255.399 204.933 255.28 205.366 255.031L286.29 208.31C286.481 210.013 286.884 211.65 287.471 213.193L205.366 260.596C203.959 261.409 202.817 263.304 202.817 264.829C202.817 265.886 203.364 266.487 204.169 266.487C204.525 266.487 204.933 266.369 205.366 266.12L289.704 217.427C290.58 218.686 291.599 219.834 292.734 220.842L205.366 271.685C203.959 272.497 202.817 274.393 202.817 275.918C202.817 276.974 203.364 277.576 204.169 277.576C204.525 277.576 204.933 277.457 205.366 277.207L289.219 228.41C289.18 228.74 289.16 229.079 289.16 229.428V232.342C288.785 232.436 288.447 232.53 288.16 232.623C288.65 233.824 288.97 235.115 289.16 236.447V240.194L289.371 240.249C289.335 242.095 289.122 243.943 288.818 245.68L238.071 274.979C239.556 270.268 238.769 267.508 236.675 265.395C234.888 263.596 233.56 262.794 232.573 262.794C231.087 262.794 230.374 264.614 230.033 267.586C229.616 271.235 228.54 273.629 228.54 273.629C228.223 272.102 228.089 271.403 227.698 270.645C227.132 269.547 226.278 269.231 225.64 269.231C225.403 269.231 225.196 269.274 225.043 269.338C224.606 269.52 225.147 270.568 225.078 272.483C224.99 274.937 224.197 276.292 224.771 278.898C224.985 279.874 224.806 280.892 224.332 281.77C224.041 282.308 223.672 282.903 223.241 283.541L205.366 293.861C204.655 294.272 204.012 294.959 203.549 295.735C203.41 295.61 203.27 295.484 203.13 295.356C203.21 294.714 203.224 294.23 203.224 293.966C203.224 293.821 203.22 293.743 203.22 293.743C203.22 293.743 194.878 286.072 188.469 280.398V218.076L107.155 265.022L106.919 397.443L188.469 350.633V302.471L194.983 307.065C195.5 306.769 195.984 306.462 196.437 306.145C201.055 309.438 205.091 312.301 206.019 312.916C206.372 313.15 206.735 313.364 207.094 313.554C207.607 313.829 208.148 314.014 208.696 314.116L205.366 316.039C203.959 316.851 202.817 318.746 202.817 320.272C202.817 321.328 203.364 321.93 204.169 321.93C204.525 321.93 204.933 321.811 205.366 321.562L291.431 271.873L291.485 272.04C287.76 279.686 284.678 283.478 283.416 289.69C283.637 290.124 283.947 290.557 284.335 290.983C283.052 296.103 282.587 303.278 282.588 310.999C282.588 311.746 282.592 312.499 282.601 313.255L96.4588 420.717C96.1419 420.9 95.9404 420.92 95.8678 420.92ZM266.198 291.951C265.841 291.951 265.434 292.069 265 292.32L205.366 327.127C203.959 327.94 202.817 329.835 202.817 331.36C202.817 332.417 203.364 333.019 204.169 333.019C204.525 333.019 204.933 332.9 205.366 332.651L265 297.844C266.407 297.03 267.55 295.134 267.55 293.609C267.55 292.553 267.002 291.951 266.198 291.951ZM368.877 133.251C368.52 133.251 368.113 133.37 367.679 133.619L205.366 227.33C203.959 228.144 202.817 230.039 202.817 231.564C202.817 232.621 203.364 233.223 204.169 233.223C204.525 233.223 204.933 233.104 205.366 232.854L367.679 139.143C369.088 138.331 370.229 136.435 370.229 134.909C370.229 133.853 369.682 133.251 368.877 133.251ZM306.115 153.037C305.625 153.037 305.07 153.198 304.48 153.539L206.388 210.172C204.417 211.31 202.818 214.078 202.818 216.355L202.817 216.764C202.817 218.375 203.614 219.303 204.776 219.303C205.257 219.303 205.801 219.144 206.375 218.808L304.49 161.538C306.456 160.39 308.05 157.673 308.05 155.469C308.05 153.924 307.263 153.037 306.115 153.037ZM216.064 309.862C218.263 307.091 220.72 303.649 223.095 300.238L288.398 262.535L289.921 267.222L216.064 309.862ZM208.782 300.464C208.182 299.92 207.487 299.292 206.722 298.602L214.623 294.04C212.609 296.287 210.572 298.502 208.782 300.464ZM229.452 291.045C229.872 290.445 230.272 289.881 230.648 289.359C232.148 287.279 233.612 284.619 234.756 282.416L287.242 252.114C286.609 254.136 286.083 255.406 286.083 255.406L286.887 257.884L229.452 291.045ZM326.387 280.463C326.005 275.048 325.38 268.515 324.395 263.676C325.335 261.844 326.077 260.247 326.654 258.839L330.646 262.954L326.387 280.463Z" fill="#DDF3ED"/>
<path d="M95.8677 422.097C95.6979 422.097 95.5383 422.072 95.3916 422.02C95.5383 422.072 95.6974 422.097 95.8677 422.097C95.9587 422.097 96.0535 422.091 96.1505 422.075C96.1501 422.075 96.1491 422.075 96.1486 422.075C96.0521 422.091 95.9582 422.097 95.8677 422.097ZM96.4044 422.017L96.4063 422.017C96.6124 421.958 96.8276 421.865 97.0493 421.735L282.62 314.604L97.0493 421.735C96.8271 421.865 96.6109 421.958 96.4044 422.017Z" fill="#1D9B8F"/>
<path d="M96.1487 422.075C96.1492 422.075 96.1501 422.075 96.1506 422.075C96.2338 422.061 96.3194 422.042 96.4063 422.016L96.4044 422.017C96.3175 422.042 96.2319 422.062 96.1487 422.075Z" fill="#60C9B9"/>
<path d="M95.8678 422.097C95.6975 422.097 95.5384 422.072 95.3917 422.02C94.7873 421.807 94.399 421.169 94.399 420.202V189.002V206.275L95.5766 205.595V420.202C95.5766 420.322 95.5913 420.92 95.8678 420.92C95.9404 420.92 96.1419 420.9 96.4588 420.717L282.601 313.255C282.606 313.705 282.612 314.152 282.62 314.604L97.0495 421.735C96.8277 421.865 96.6125 421.958 96.4064 422.017C96.3195 422.042 96.2339 422.061 96.1506 422.075C96.0536 422.091 95.9588 422.097 95.8678 422.097ZM358.412 270.848L358.885 269.216L385.161 254.046C386.266 253.411 387.235 251.737 387.235 250.466L387.222 37.2181L388.399 36.5387L388.412 250.466C388.412 252.159 387.222 254.22 385.75 255.065L358.412 270.848Z" fill="#78D1C5"/>
<path d="M178.994 140.16L388.399 19.2654L179.113 140.094C179.072 140.117 179.033 140.14 178.994 140.16Z" fill="#78D1C5"/>
<path d="M94.3995 206.275V253.812L388.399 84.0946V36.5385L94.3995 206.275Z" fill="#26B6A6"/>
<path d="M388.399 19.2654V36.5387L94.399 206.275V189.002L99.8599 185.839C101.32 184.993 101.811 183.705 102.51 181.239L104.361 174.808C104.945 172.575 105.551 171.054 107.023 170.207L170.39 133.62C171.862 132.773 173.011 132.68 174.131 134.531L176.402 138.655C177.236 140.094 177.653 140.94 179.113 140.094L388.399 19.2654Z" fill="#EDEDEB"/>
<path d="M375.947 13.9721C377.792 12.9064 379.289 13.7707 379.289 15.9021C379.289 18.0334 377.792 20.6252 375.947 21.6909C374.099 22.7565 372.604 21.8922 372.604 19.7608C372.604 17.6295 374.099 15.0378 375.947 13.9721Z" fill="#26B6A6"/>
<path d="M363.912 20.9101C365.759 19.8444 367.255 20.7075 367.255 22.8389C367.255 24.9714 365.759 27.5632 363.912 28.6288C362.067 29.6945 360.57 28.8302 360.57 26.6989C360.57 24.5675 362.067 21.9758 363.912 20.9101Z" fill="#26B6A6"/>
<path d="M351.879 27.8472C353.725 26.7827 355.222 27.647 355.222 29.7783C355.222 31.9097 353.725 34.5014 351.879 35.5671C350.034 36.6327 348.537 35.7685 348.537 33.6371C348.537 31.5058 350.034 28.914 351.879 27.8472Z" fill="#26B6A6"/>
<path d="M103.783 195.942H103.562L101.3 194.203L101.293 194.194L101.233 194.103L101.214 194.072L101.185 193.88L101.214 193.655L101.233 193.603L101.293 193.442L101.3 193.425L103.562 189.073C103.658 188.89 103.789 188.784 103.901 188.784C103.951 188.784 103.997 188.805 104.035 188.85C104.157 188.994 104.143 189.329 104.003 189.597L102.414 192.654L106.583 190.247C106.625 190.224 106.665 190.212 106.702 190.212C106.829 190.212 106.919 190.349 106.919 190.57C106.919 190.855 106.769 191.173 106.583 191.28L102.414 193.687L104.003 194.909C104.143 195.016 104.157 195.334 104.035 195.62C103.968 195.775 103.876 195.888 103.783 195.942Z" fill="#899EA2"/>
<path d="M112.867 190.697L112.615 190.667C112.492 190.522 112.507 190.187 112.647 189.92L114.236 186.862L110.067 189.269C110.025 189.294 109.985 189.304 109.949 189.304C109.821 189.304 109.731 189.168 109.731 188.946C109.731 188.661 109.881 188.343 110.067 188.236L114.236 185.829L112.647 184.607C112.507 184.5 112.492 184.182 112.615 183.896C112.709 183.674 112.858 183.539 112.985 183.539C113.022 183.539 113.057 183.551 113.088 183.574L115.35 185.314L115.357 185.323L115.417 185.414L115.436 185.445L115.465 185.636L115.436 185.861L115.417 185.914L115.357 186.074L115.35 186.091L113.088 190.443C113.024 190.565 112.946 190.653 112.867 190.697Z" fill="#899EA2"/>
<path d="M120.806 186.369C120.463 186.369 120.142 186.243 119.867 185.978C118.835 184.984 118.835 182.397 119.867 180.211C120.623 178.609 121.725 177.67 122.669 177.67C122.719 177.67 122.769 177.674 122.817 177.678L123.389 176.282C123.449 176.135 123.541 176.057 123.617 176.057C123.68 176.057 123.733 176.113 123.745 176.229L123.993 178.666C124.011 178.838 123.923 179.055 123.804 179.133L122.103 180.242C122.074 180.262 122.046 180.27 122.021 180.27C121.9 180.27 121.846 180.057 121.937 179.83L122.368 178.777C121.68 178.818 120.889 179.506 120.341 180.667C119.571 182.299 119.571 184.233 120.341 184.973C120.547 185.172 120.786 185.265 121.041 185.265C121.745 185.265 122.572 184.555 123.137 183.359C123.234 183.156 123.374 183.036 123.493 183.036C123.537 183.036 123.578 183.052 123.612 183.086C123.744 183.212 123.744 183.538 123.612 183.816C123.096 184.909 122.418 185.697 121.74 186.09C121.423 186.272 121.106 186.369 120.806 186.369Z" fill="#899EA2"/>
<path d="M165.904 146.543C165.844 146.543 165.789 146.522 165.741 146.475C165.56 146.303 165.56 145.854 165.741 145.474L167.261 142.256L165.741 140.793C165.56 140.62 165.56 140.171 165.741 139.791C165.872 139.512 166.063 139.347 166.227 139.347C166.287 139.347 166.343 139.369 166.391 139.415L167.911 140.878L169.431 137.661C169.562 137.382 169.754 137.217 169.917 137.217C169.977 137.217 170.033 137.239 170.081 137.285C170.261 137.457 170.261 137.906 170.081 138.287L168.562 141.504L170.081 142.968C170.261 143.14 170.261 143.589 170.081 143.969C169.992 144.158 169.874 144.296 169.756 144.365C169.701 144.396 169.646 144.413 169.595 144.413C169.535 144.413 169.479 144.39 169.431 144.345L167.911 142.881L166.391 146.099C166.301 146.29 166.183 146.426 166.066 146.495C166.01 146.526 165.956 146.543 165.904 146.543Z" fill="#899EA2"/>
<path d="M129.278 180.184V174.81C129.278 173.115 130.468 171.056 131.935 170.209L370.798 32.3725C372.266 31.5258 373.455 32.2124 373.455 33.9069V39.28C373.454 40.9744 372.265 43.034 370.798 43.8818L131.935 181.718C130.468 182.565 129.278 181.879 129.278 180.184Z" fill="white"/>
<path d="M366.313 39.9051L367.39 40.6823C367.567 40.8118 367.651 41.0414 367.618 41.3146L367.398 43.1504L368.562 41.6702C368.729 41.4571 368.943 41.3511 369.161 41.3758L370.557 41.5489L370.607 41.2663L370.339 39.3493C370.313 39.155 370.359 38.9289 370.463 38.7299L371.591 36.6151L370.301 37.1108C370.025 37.2144 369.752 37.1049 369.629 36.8411L369.049 35.6071L369.042 35.6271L368.346 37.9151C368.279 38.1306 368.153 38.3225 367.996 38.4414L366.437 39.6449L366.313 39.9051ZM367.184 44.1831L366.988 44.1454C366.799 44.0665 366.611 43.8439 366.657 43.4565L366.923 41.231L366.928 41.2133L365.851 40.435C365.702 40.3278 365.617 40.1488 365.614 39.9322C365.608 39.6142 365.767 39.2763 366.008 39.0903L367.569 37.8879L367.676 37.7102L368.373 35.4234C368.487 35.0477 368.764 34.7804 369.062 34.7592C369.275 34.7416 369.47 34.8593 369.567 35.063V35.0642L370.196 36.4007L371.609 35.859C371.825 35.7766 372.047 35.8284 372.19 35.9909C372.387 36.2135 372.395 36.595 372.21 36.94L371.082 39.0585L371.033 39.2539L371.299 41.1697C371.346 41.5077 371.181 41.8469 370.998 42.0341C370.841 42.1919 370.655 42.2672 370.471 42.2437L369.076 42.0706L367.718 43.8852C367.547 44.1042 367.352 44.1831 367.184 44.1831Z" fill="#DADBD8"/>
<path d="M376.587 31.7166C376.267 31.7166 375.959 31.5517 375.789 31.2573C375.535 30.8169 375.685 30.254 376.125 30.0008L383.601 25.684C383.746 25.6004 383.905 25.5604 384.06 25.5604C384.378 25.5604 384.686 25.7264 384.857 26.0208C385.11 26.46 384.96 27.024 384.52 27.2772L377.045 31.5929C376.901 31.6777 376.743 31.7166 376.587 31.7166Z" fill="#899EA2"/>
<path d="M376.587 36.0344C376.267 36.0344 375.959 35.8696 375.789 35.574C375.535 35.1336 375.685 34.5707 376.125 34.3176L383.601 30.0019C383.746 29.9171 383.905 29.8771 384.06 29.8771C384.378 29.8771 384.686 30.0431 384.857 30.3375C385.11 30.7779 384.96 31.3407 384.52 31.5951L377.045 35.9108C376.901 35.9944 376.743 36.0344 376.587 36.0344Z" fill="#899EA2"/>
<path d="M376.587 40.3513C376.267 40.3513 375.959 40.1864 375.789 39.8909C375.535 39.4517 375.685 38.8888 376.125 38.6345L383.601 34.3188C383.746 34.234 383.905 34.194 384.06 34.194C384.378 34.194 384.686 34.36 384.857 34.6556C385.11 35.096 384.96 35.6576 384.52 35.912L377.045 40.2276C376.901 40.3112 376.743 40.3513 376.587 40.3513Z" fill="#899EA2"/>
<path d="M94.3993 189.002V206.275L89.4062 203.392V186.131L94.3993 189.002Z" fill="#DADBD8"/>
<path d="M296.416 121.909C296.286 121.983 296.173 121.993 296.076 121.937C295.979 121.881 295.93 121.778 295.93 121.628C295.93 121.478 295.938 121.371 295.954 121.305L301.98 99.6747C302.109 99.1884 302.369 98.833 302.757 98.6086L304.41 97.6547C304.798 97.4303 305.057 97.4864 305.187 97.823L311.188 112.51L311.237 112.791C311.237 112.94 311.188 113.099 311.091 113.268C310.994 113.436 310.881 113.557 310.751 113.632L309.512 114.348C309.334 114.451 309.196 114.483 309.099 114.446C309.002 114.39 308.937 114.315 308.904 114.221L307.568 111.009L299.599 115.61L298.263 120.366C298.23 120.496 298.157 120.651 298.044 120.828C297.947 120.978 297.817 121.1 297.655 121.193L296.416 121.909ZM306.864 109.003L303.583 100.937L300.303 112.791L306.864 109.003ZM319.763 108.71C318.014 109.72 316.686 109.785 315.779 108.906V110.084C315.779 110.271 315.722 110.463 315.608 110.659C315.511 110.828 315.382 110.959 315.22 111.052L314.102 111.698C313.94 111.791 313.802 111.814 313.689 111.768C313.592 111.693 313.543 111.562 313.543 111.375V92.7461C313.543 92.5591 313.592 92.3814 313.689 92.2131C313.802 92.0167 313.94 91.8717 314.102 91.7782L315.293 91.0908C315.455 90.9973 315.584 90.988 315.681 91.0628C315.779 91.1189 315.827 91.2405 315.827 91.4275V97.8802C316.783 95.9631 318.095 94.523 319.763 93.5597C321.448 92.5871 322.719 92.4983 323.578 93.2932C324.436 94.0694 324.898 95.402 324.963 97.2911C324.979 97.4875 324.987 97.7634 324.987 98.1187C324.987 98.4741 324.979 98.7593 324.963 98.9744C324.898 100.957 324.436 102.832 323.578 104.6C322.719 106.367 321.448 107.737 319.763 108.71ZM319.253 106.732C320.403 106.068 321.237 105.175 321.756 104.052C322.29 102.921 322.582 101.668 322.63 100.293C322.646 100.097 322.655 99.8208 322.655 99.4654C322.655 95.9304 321.521 94.8175 319.253 96.1268C318.168 96.7534 317.334 97.6465 316.75 98.8061C316.167 99.9657 315.86 101.107 315.827 102.229L315.803 103.337L315.827 104.389C315.876 105.539 316.175 106.386 316.726 106.928C317.293 107.442 318.135 107.377 319.253 106.732ZM333.144 100.984C331.362 102.013 329.977 102.233 328.989 101.644C328.017 101.045 327.499 99.8012 327.434 97.9121L327.41 96.7198L327.434 95.4994C327.499 93.5542 328.026 91.7166 329.014 89.9865C330.002 88.2377 331.378 86.8536 333.144 85.8343C334.91 84.8149 336.286 84.6092 337.274 85.2171C338.263 85.8062 338.789 87.036 338.854 88.9064C338.87 89.1027 338.878 89.5002 338.878 90.0987C338.878 90.6972 338.87 91.104 338.854 91.3191C338.789 93.283 338.263 95.13 337.274 96.8601C336.303 98.5808 334.926 99.9555 333.144 100.984ZM333.144 98.8239C334.165 98.2348 334.966 97.3978 335.549 96.313C336.149 95.2188 336.473 93.9563 336.521 92.5255C336.537 92.3291 336.546 91.9691 336.546 91.4454C336.546 90.9217 336.537 90.571 336.521 90.3933C336.473 89.0186 336.149 88.1302 335.549 87.728C334.966 87.3165 334.165 87.4054 333.144 87.9946C332.124 88.5837 331.314 89.4254 330.714 90.5195C330.115 91.6137 329.799 92.8715 329.767 94.293L329.743 95.3731L329.767 96.4252C329.799 97.8093 330.115 98.7024 330.714 99.1045C331.314 99.5066 332.124 99.4131 333.144 98.8239ZM346.634 93.1958C345.095 94.0842 343.905 94.2011 343.062 93.5465C342.22 92.8731 341.799 91.5826 341.799 89.6748V81.7632C341.799 81.5761 341.848 81.3985 341.945 81.2301C342.058 81.0337 342.196 80.8888 342.358 80.7953L343.573 80.0939C343.735 80.0004 343.864 79.991 343.961 80.0658C344.075 80.1126 344.131 80.2295 344.131 80.4165V88.1879C344.131 90.9747 345.184 91.7603 347.29 90.5445C348.311 89.9554 349.12 89.1231 349.72 88.0476C350.319 86.9534 350.619 85.7517 350.619 84.4425V76.6711C350.619 76.4841 350.667 76.3064 350.764 76.1381C350.878 75.9417 351.016 75.7967 351.178 75.7032L352.392 75.0018C352.554 74.9083 352.684 74.899 352.781 74.9738C352.878 75.0299 352.927 75.1515 352.927 75.3385V88.6368C352.927 88.8238 352.878 89.0108 352.781 89.1979C352.684 89.3662 352.554 89.4971 352.392 89.5907L351.25 90.25C351.088 90.3435 350.951 90.3669 350.837 90.3201C350.74 90.2453 350.692 90.1144 350.692 89.9273V88.6929C350.238 89.6655 349.687 90.5258 349.039 91.274C348.392 92.0034 347.59 92.644 346.634 93.1958ZM361.469 84.3504C358.909 85.828 357.63 84.9209 357.63 81.6291V74.2224L355.735 75.3166C355.573 75.4101 355.435 75.4335 355.322 75.3867C355.224 75.3119 355.176 75.181 355.176 74.9939V74.0401C355.176 73.853 355.224 73.6753 355.322 73.507C355.435 73.3106 355.573 73.1657 355.735 73.0721L357.63 71.978V67.2927C357.63 67.1057 357.678 66.928 357.776 66.7597C357.889 66.5633 358.027 66.4183 358.189 66.3248L359.331 65.6655C359.493 65.572 359.622 65.5626 359.719 65.6375C359.833 65.6842 359.889 65.8011 359.889 65.9882V70.6734L362.902 68.934C363.064 68.8405 363.194 68.8311 363.291 68.9059C363.404 68.9527 363.461 69.0696 363.461 69.2566V70.2105C363.461 70.3975 363.404 70.5892 363.291 70.7856C363.194 70.954 363.064 71.0849 362.902 71.1784L359.889 72.9178V80.1281C359.889 81.0633 360.027 81.6945 360.302 82.0218C360.578 82.3304 361.031 82.3024 361.663 81.9377L363.145 81.082C363.307 80.9885 363.437 80.9791 363.534 81.0539C363.647 81.1007 363.704 81.2176 363.704 81.4046V82.4146C363.704 82.6016 363.647 82.7934 363.534 82.9897C363.437 83.1581 363.307 83.289 363.145 83.3825L361.469 84.3504ZM301.956 151.991C300.417 152.879 299.226 152.996 298.384 152.342C297.542 151.668 297.121 150.378 297.121 148.47V140.558C297.121 140.371 297.169 140.194 297.266 140.025C297.38 139.829 297.517 139.684 297.679 139.59L298.894 138.889C299.056 138.795 299.186 138.786 299.283 138.861C299.396 138.908 299.453 139.025 299.453 139.212V146.983C299.453 149.77 300.506 150.555 302.612 149.34C303.632 148.75 304.442 147.918 305.041 146.843C305.641 145.749 305.94 144.547 305.94 143.238V135.466C305.94 135.279 305.989 135.101 306.086 134.933C306.199 134.737 306.337 134.592 306.499 134.498L307.714 133.797C307.876 133.703 308.005 133.694 308.103 133.769C308.2 133.825 308.248 133.947 308.248 134.134V147.432C308.248 147.619 308.2 147.806 308.103 147.993C308.005 148.161 307.876 148.292 307.714 148.386L306.572 149.045C306.41 149.139 306.272 149.162 306.159 149.115C306.062 149.04 306.013 148.909 306.013 148.722V147.488C305.56 148.461 305.009 149.321 304.361 150.069C303.713 150.799 302.911 151.439 301.956 151.991ZM316.231 143.749C315.098 144.403 314.142 144.749 313.364 144.787C312.603 144.796 312.028 144.642 311.639 144.324C311.267 143.997 311.081 143.655 311.081 143.3C311.081 143.113 311.137 142.94 311.251 142.781C311.38 142.594 311.51 142.463 311.639 142.388L312.733 141.757C312.895 141.663 313.04 141.673 313.17 141.785C313.559 142.084 313.98 142.252 314.433 142.29C314.887 142.327 315.494 142.126 316.256 141.687C317.098 141.2 317.778 140.621 318.297 139.947C318.831 139.246 319.098 138.558 319.098 137.885C319.098 137.436 318.985 137.137 318.758 136.987C318.548 136.81 318.175 136.772 317.641 136.875C317.122 136.95 316.345 137.156 315.308 137.492C313.899 137.951 312.895 138.016 312.295 137.689C311.712 137.352 311.421 136.651 311.421 135.585C311.421 134.874 311.599 134.098 311.955 133.256C312.328 132.386 312.862 131.554 313.559 130.759C314.272 129.936 315.122 129.239 316.11 128.669C317.147 128.07 318.029 127.757 318.758 127.729C319.487 127.701 320.03 127.855 320.386 128.192C320.759 128.501 320.945 128.833 320.945 129.188C320.945 129.356 320.888 129.529 320.775 129.707C320.678 129.875 320.556 130.002 320.41 130.086L319.39 130.675C319.196 130.787 319.034 130.787 318.904 130.675C318.645 130.469 318.418 130.329 318.224 130.254C318.046 130.151 317.778 130.128 317.422 130.184C317.082 130.231 316.644 130.408 316.11 130.717C315.332 131.166 314.733 131.708 314.312 132.344C313.891 132.961 313.68 133.579 313.68 134.196C313.68 134.589 313.769 134.874 313.948 135.052C314.126 135.211 314.466 135.257 314.968 135.192C315.486 135.117 316.231 134.921 317.203 134.603C318.742 134.088 319.827 134.004 320.459 134.35C321.107 134.668 321.431 135.369 321.431 136.454C321.431 137.259 321.228 138.105 320.824 138.993C320.419 139.882 319.819 140.742 319.026 141.574C318.248 142.397 317.317 143.122 316.231 143.749Z" fill="#33535F"/>
<path d="M106.919 397.443L107.155 265.022L188.469 218.076V280.398C185.695 277.943 183.284 275.861 182.067 274.938C179.312 272.847 176.532 272.417 174.71 272.417C173.437 272.417 172.633 272.627 172.633 272.627L160.201 273.174L147.327 274.942C147.325 274.941 147.325 274.941 147.325 274.939C147.271 274.939 147.217 274.939 147.163 274.939C141.959 274.939 137.214 275.92 133.432 283.204C129.767 290.263 126.949 305.215 125.527 310.096C125.527 310.096 125.776 310.243 126.229 310.486C125.639 313.652 125.117 317.041 124.667 320.657C123.943 326.475 123.865 337.84 123.466 347.533C123.312 351.257 123.352 355.981 123.67 358.903C124.772 369.044 127.741 373.387 131.86 374.289C133.087 374.559 134.097 374.687 134.915 374.687C138.481 374.687 138.383 372.238 136.453 368.259C134.702 364.649 134.998 360.163 134.998 360.163C136.165 361.377 137.108 362.312 137.893 362.772C138.418 363.08 138.901 363.198 139.324 363.198C140.158 363.198 140.759 362.738 140.997 362.368C141.277 361.936 140.192 361.299 139.14 359.496C137.798 357.194 137.19 355.431 135.192 353.39C134.447 352.63 133.967 351.622 133.897 350.538C133.495 344.42 135.041 331.972 136.374 324.813C137.024 321.324 137.881 317.819 138.819 314.491C139.225 314.519 139.631 314.533 140.036 314.533C140.121 314.533 140.205 314.533 140.29 314.531L141.797 309.302L141.856 310.118L141.711 341.892C144.864 345.464 153.225 347.193 162.159 347.193C171.804 347.193 182.119 345.18 187.284 341.296C187.284 341.296 186.642 317.756 186.042 300.76L188.469 302.471V350.633L106.919 397.443Z" fill="#BFE9E0"/>
<path d="M204.776 219.303C203.614 219.303 202.817 218.375 202.817 216.764L202.818 216.355C202.818 214.079 204.417 211.31 206.388 210.173L304.48 153.539C305.07 153.199 305.625 153.037 306.115 153.037C307.263 153.037 308.05 153.924 308.05 155.469C308.05 157.673 306.456 160.39 304.49 161.538L206.375 218.809C205.801 219.144 205.257 219.303 204.776 219.303Z" fill="#B2E5DC"/>
<path d="M204.169 233.223C203.364 233.223 202.817 232.621 202.817 231.564C202.817 230.039 203.959 228.144 205.366 227.33L367.679 133.62C368.113 133.37 368.52 133.251 368.877 133.251C369.682 133.251 370.229 133.853 370.229 134.909C370.229 136.435 369.088 138.331 367.679 139.143L205.366 232.854C204.933 233.104 204.526 233.223 204.169 233.223Z" fill="#BFE9E0"/>
<path d="M204.169 244.311C203.364 244.311 202.817 243.709 202.817 242.653C202.817 241.128 203.959 239.232 205.366 238.419L286.127 191.792L289.553 193.811C289.093 194.531 288.675 195.281 288.3 196.061L205.366 243.942C204.933 244.192 204.526 244.311 204.169 244.311ZM290.34 192.661C290.339 192.637 290.339 192.612 290.337 192.586C290.366 192.574 290.395 192.562 290.423 192.549C290.395 192.586 290.367 192.625 290.34 192.661ZM289.661 190.848C289.47 190.618 289.248 190.412 288.982 190.256C288.95 190.237 288.917 190.218 288.884 190.2L289.414 189.894L289.661 190.848ZM292.014 190.655C292.079 190.412 292.113 190.159 292.112 189.904C292.112 189.67 292.083 189.435 292.021 189.201C291.96 188.964 291.869 188.743 291.756 188.542L367.679 144.708C368.113 144.458 368.52 144.34 368.877 144.34C369.682 144.34 370.229 144.942 370.229 145.998C370.229 147.523 369.088 149.419 367.679 150.232L308.509 184.394C307.872 184.331 307.227 184.299 306.574 184.299C306.538 184.299 306.501 184.3 306.466 184.3C300.813 184.33 295.696 186.758 292.014 190.655Z" fill="#BFE9E0"/>
<path d="M204.169 255.399C203.364 255.399 202.817 254.798 202.817 253.741C202.817 252.217 203.959 250.321 205.366 249.508L286.336 202.76C286.225 203.656 286.168 204.571 286.168 205.499C286.168 205.533 286.168 205.567 286.169 205.601C286.165 205.749 286.164 205.895 286.164 206.041C286.164 206.808 286.207 207.565 286.29 208.31L205.366 255.031C204.933 255.28 204.526 255.399 204.169 255.399ZM319.509 189.132C318.147 187.963 316.638 186.975 315.014 186.203L367.679 155.796C368.113 155.547 368.52 155.428 368.877 155.428C369.681 155.428 370.229 156.031 370.229 157.087C370.229 158.612 369.088 160.507 367.679 161.32L319.509 189.132Z" fill="#BFE9E0"/>
<path d="M204.169 266.487C203.364 266.487 202.817 265.887 202.817 264.829C202.817 263.304 203.959 261.41 205.366 260.596L287.471 213.193C288.047 214.706 288.8 216.126 289.704 217.427L205.366 266.12C204.933 266.369 204.526 266.487 204.169 266.487ZM325.195 196.937C324.564 195.45 323.774 194.053 322.847 192.768L367.679 166.885C368.113 166.635 368.52 166.516 368.877 166.516C369.682 166.516 370.229 167.118 370.229 168.174C370.229 169.7 369.088 171.596 367.679 172.409L325.195 196.937Z" fill="#BFE9E0"/>
<path d="M204.169 277.576C203.364 277.576 202.817 276.974 202.817 275.918C202.817 274.393 203.959 272.497 205.366 271.685L292.734 220.842C293.41 221.441 294.128 221.993 294.883 222.488C291.828 222.964 289.603 225.177 289.219 228.41L205.366 277.207C204.933 277.457 204.526 277.576 204.169 277.576Z" fill="#BFE9E0"/>
<path d="M206.721 298.602C205.76 297.733 204.688 296.764 203.549 295.735C204.012 294.959 204.655 294.272 205.366 293.861L223.241 283.541C221.272 286.453 217.981 290.292 214.623 294.04L206.721 298.602ZM234.756 282.416C235.122 281.713 235.456 281.056 235.748 280.48C236.807 278.39 237.569 276.573 238.071 274.979L288.818 245.68C288.387 248.152 287.777 250.402 287.241 252.114L234.756 282.416ZM322.625 231.685C320.81 230.736 318.699 230.301 315.826 230.088L367.679 200.15C368.112 199.901 368.52 199.782 368.877 199.782C369.682 199.782 370.228 200.384 370.228 201.44C370.228 202.966 369.087 204.862 367.679 205.674L322.625 231.685Z" fill="#BFE9E0"/>
<path d="M223.095 300.238C225.396 296.931 227.619 293.654 229.452 291.045L286.887 257.884L288.398 262.535L223.095 300.238ZM329.485 238.814C328.198 237.058 327.171 235.702 326.591 235.017C326.58 235.004 326.57 234.993 326.558 234.98L367.679 211.239C368.113 210.989 368.52 210.871 368.877 210.871C369.682 210.871 370.229 211.473 370.229 212.529C370.229 214.054 369.088 215.95 367.679 216.763L329.485 238.814Z" fill="#BFE9E0"/>
<path d="M204.169 321.93C203.364 321.93 202.817 321.328 202.817 320.272C202.817 318.746 203.959 316.851 205.366 316.039L208.696 314.116C209.038 314.18 209.384 314.21 209.728 314.21C211.367 314.21 212.986 313.503 214.122 312.206C214.738 311.502 215.389 310.713 216.064 309.862L289.921 267.222L291.431 271.873L205.366 321.562C204.933 321.811 204.526 321.93 204.169 321.93ZM335.109 246.656C334.157 245.312 333.217 243.989 332.323 242.741L367.679 222.327C368.113 222.077 368.52 221.958 368.877 221.958C369.681 221.958 370.229 222.56 370.229 223.618C370.229 225.142 369.088 227.038 367.679 227.851L335.109 246.656Z" fill="#BFE9E0"/>
<path d="M204.169 333.019C203.364 333.019 202.817 332.417 202.817 331.36C202.817 329.835 203.959 327.94 205.366 327.127L265 292.32C265.434 292.069 265.841 291.951 266.198 291.951C267.002 291.951 267.55 292.553 267.55 293.609C267.55 295.134 266.407 297.03 265 297.844L205.366 332.651C204.933 332.9 204.526 333.019 204.169 333.019Z" fill="#BFE9E0"/>
<path d="M422.264 263.48C430.892 235.474 439.29 217.03 430.735 211.321C422.767 212.796 419.198 216.737 417.505 227.241C415.729 238.259 412.036 253.606 409.881 262.469C408.16 269.545 404.803 278.441 401.927 283.857C401.418 284.815 400.567 285.54 399.575 285.927C396.916 286.968 395.639 288.327 393.471 289.877C391.771 291.089 390.521 291.225 390.599 291.733C390.698 292.389 391.464 293.57 393.265 293.376C394.169 293.278 395.414 292.812 396.975 292.183C396.975 292.183 395.404 296.397 392.327 298.971C388.156 302.459 388.779 305.948 395.495 306.355C397.899 306.501 403.474 304.307 408.637 295.511C410.125 292.976 411.852 288.827 413.239 285.369C416.851 276.364 420.538 269.085 422.264 263.48Z" fill="#F6879F"/>
<path d="M432.259 210.989C432.259 210.989 425.619 210.642 421.597 215.078C417.575 219.515 412.875 246.037 412.875 246.037C412.875 246.037 417.282 252.094 428.898 249.614L432.259 210.989Z" fill="#26B6A6"/>
<path d="M420.295 249.931C415.029 248.997 412.875 246.037 412.875 246.037C412.875 246.037 417.575 219.515 421.597 215.078C425.076 211.241 430.515 210.981 431.919 210.981C432.138 210.981 432.259 210.989 432.259 210.989C423.701 212.538 421.599 217.691 421.151 227.319C420.902 232.699 420.59 241.277 420.295 249.931Z" fill="#06AB91"/>
<path d="M463.327 415.01H454.411V399.113H463.327V415.01Z" fill="#F6879F"/>
<path d="M432.413 398.264L423.502 398.583L423.056 381.76L432.413 381.441V398.264Z" fill="#F6879F"/>
<path d="M464.581 261.477C464.581 270.345 463.277 341.708 463.277 341.708C463.484 344.26 465.781 348.964 465.283 358.765C464.608 372.078 463.707 407.062 463.707 407.062C463.707 407.062 459.379 409.696 453.78 407.265C453.78 407.265 445.347 358.811 443.749 345.618C442.355 334.103 439.99 295.338 439.99 295.338L435.157 340.413C435.157 340.413 436.8 347.279 436.261 355.171C435.845 361.273 432.977 393.054 432.977 393.054C432.977 393.054 428.781 396.02 422.683 393.874C422.683 393.874 417.613 346.011 417.509 340.412C417.391 334.03 420.473 261.381 420.473 261.381L464.581 261.477Z" fill="#273E47"/>
<path d="M454.411 410.426V409.098C453.557 409.485 451.575 417.361 448.037 420.722C445.226 423.394 441.388 426.48 440.413 429.458C439.398 432.556 445.756 434.266 448.383 433.781C451.436 433.218 456.727 430.98 458.055 428.904C459.383 426.829 460.005 423.768 461.085 422.246C462.163 420.724 464.653 419.027 465.237 417.266C465.556 416.299 465.176 414.181 464.726 412.391C464.313 410.75 463.865 408.944 463.327 409.098C463.325 409.298 463.327 410.11 463.327 410.11C462.679 410.858 460.888 411.6 458.869 411.68C457.564 411.732 454.4 411.462 454.411 410.426Z" fill="#17282F"/>
<path d="M423.407 395.721C422.946 395.737 422.569 396.417 421.547 397.568C420.313 398.96 418.294 400.46 416.302 401.499C412.964 403.239 406.473 405.917 403.535 407.296C401.701 408.157 401.787 410.466 403.682 411.779C405.581 413.093 410.16 414.039 415.659 412.758C418.655 412.061 422.555 409.179 425.023 409.334C427.492 409.49 432.111 409.453 433.933 408.145C435.755 406.837 435.026 404.043 434.51 401.642C433.95 399.022 433.247 394.938 432.413 395.117V396.02C431.342 397.709 425.81 398.398 423.454 397.154L423.407 395.721Z" fill="#17282F"/>
<path d="M439.989 295.338C439.989 295.338 432.864 293.247 427.573 287.923C427.573 287.923 429.97 292.594 437.094 296.943L435.57 337.196L439.989 295.338Z" fill="#17282F"/>
<path d="M459.943 213.108C459.943 213.108 466.921 213.746 466.425 227.038L464.883 248.212L464.925 279.985C458.369 287.414 429.303 286.87 419.352 279.391C419.352 279.391 420.48 241.788 421.151 227.319C421.629 217.033 423.996 211.854 434.105 210.721L446.539 211.268L459.943 213.108Z" fill="#26B6A6"/>
<path d="M439.008 231.836L434.8 231.172L438.53 231.242L440.131 220.079L439.008 231.836Z" fill="#06AB91"/>
<path d="M449.428 183.154C449.428 190.789 443.485 196.978 436.155 196.978C428.824 196.978 423.212 190.782 422.881 183.154C422.297 169.653 428.824 169.328 436.155 169.328C443.485 169.328 449.428 175.519 449.428 183.154Z" fill="#17282F"/>
<path d="M456.994 190.011C456.994 190.011 454.958 199.973 454.142 201.61C453.326 203.246 451.639 203.711 451.639 203.711L451.781 196.704L456.994 190.011Z" fill="#17282F"/>
<path d="M454.439 175.739C454.439 175.739 455.899 175.374 457.45 177.796C458.778 179.873 459.081 184.539 456.994 190.011L453.159 190.469L454.439 175.739Z" fill="#17282F"/>
<path d="M452.009 190.472C452.779 190.95 453.875 189.412 454.824 188.379C455.772 187.346 458.868 185.933 460.411 189.322C461.986 192.776 459.049 197.34 456.611 198.137C452.411 199.51 451.781 196.704 451.781 196.704L451.461 212.483C445.884 221.108 433.254 220.796 437.794 212.066L437.807 207.264C437.807 207.264 434 207.864 432.145 207.567C429.056 207.068 427.113 204.53 426.176 201.048C424.671 195.454 424.098 190.939 425.376 179.938C426.776 167.881 440.24 167.755 447.51 172.522C454.782 177.289 452.009 190.472 452.009 190.472Z" fill="#F6879F"/>
<path d="M451.532 208.946C451.532 208.946 449.57 213.187 446.07 215.788C442.854 218.179 439.464 218.597 439.464 218.597C439.464 218.597 442.734 220.763 444.126 223.831C445.517 226.898 455.328 218.454 455.24 212.463C455.24 212.463 453.699 206.444 451.59 206.058L451.532 208.946Z" fill="#17282F"/>
<path d="M439.464 218.597C439.464 218.597 436.439 217.093 437.794 212.066L437.807 207.264L436.481 207.441C435.45 208.371 433.825 210.558 433.294 212.963C432.99 214.337 432.243 221.305 433.573 222.69C434.783 223.95 436.752 218.971 439.464 218.597Z" fill="#17282F"/>
<path d="M446.848 177.326C447.198 177.284 447.567 177.248 447.887 177.394C449.028 177.913 449.273 181.461 449.474 182.486C450.149 185.94 450.71 191.793 452.008 191.819C452.397 191.828 453.867 189.286 454.824 188.379C456.15 187.122 454.439 175.739 454.439 175.739C454.439 175.739 455.713 172.909 453.159 169.982C450.773 167.245 447.019 166.641 443.591 166.452C439.552 166.229 435.451 166.535 431.472 165.651C430.207 165.371 428.964 164.97 427.675 164.837C427.556 164.824 427.423 164.818 427.328 164.895C427.199 165.001 427.218 165.201 427.252 165.366C427.499 166.558 427.924 167.713 428.511 168.78C426.143 168.591 423.796 168.13 421.533 167.408C421.402 167.365 421.263 167.324 421.134 167.364C420.867 167.449 420.821 167.802 420.837 168.081C420.998 170.94 422.352 175.242 424.672 176.922C426.484 178.235 429.328 179.037 431.562 179.095C437.806 179.256 441.683 177.937 446.848 177.326Z" fill="#17282F"/>
<path d="M454.432 176.339L459.081 173.739C458.422 172.352 456.846 171.809 455.561 172.528C454.278 173.246 453.773 174.952 454.432 176.339Z" fill="#17282F"/>
<path d="M437.806 207.264C437.806 207.264 444.702 205.817 447.112 204.481C448.725 203.589 450.054 202.04 450.445 201.048C450.445 201.048 449.994 203.179 448.551 205.098C446.788 207.445 437.807 209.174 437.807 209.174L437.806 207.264Z" fill="#F47089"/>
<path d="M439.464 188.677C439.464 189.503 440.083 190.171 440.845 190.168C441.608 190.166 442.228 189.495 442.228 188.668C442.228 187.843 441.608 187.175 440.845 187.178C440.083 187.18 439.464 187.851 439.464 188.677Z" fill="#17282F"/>
<path d="M441.683 182.718L444.639 184.417C445.075 183.533 444.767 182.436 443.951 181.967C443.133 181.497 442.118 181.834 441.683 182.718Z" fill="#17282F"/>
<path d="M438.431 198.619L435.277 199.851C435.589 200.793 436.549 201.28 437.42 200.941C438.29 200.599 438.744 199.559 438.431 198.619Z" fill="#F47089"/>
<path d="M426.788 183.985L429.484 181.822C428.935 181.019 427.884 180.852 427.14 181.448C426.396 182.045 426.239 183.181 426.788 183.985Z" fill="#17282F"/>
<path d="M427.971 188.267C427.971 189.093 428.591 189.76 429.354 189.758C430.118 189.756 430.735 189.085 430.735 188.26C430.735 187.433 430.118 186.765 429.354 186.768C428.591 186.77 427.971 187.441 427.971 188.267Z" fill="#17282F"/>
<path d="M435.366 187.111L435.206 195.839L430.253 194.703L435.366 187.111Z" fill="#F47089"/>
<path d="M473.509 195.884C475.498 193.245 479.526 199.104 481.39 203.141C483.253 207.179 483.279 209.466 481.757 211.07C480.233 212.672 477.343 211.7 474.452 207.875C471.562 204.049 472.373 197.833 473.509 195.884Z" fill="#26B6A6"/>
<path d="M481.314 211.138C481.023 211.138 480.593 211.07 480.038 210.797C480.903 209.421 481.768 207.992 482.62 206.501C482.773 207.14 482.847 207.716 482.847 208.24C482.847 209.408 482.474 210.315 481.757 211.07C481.757 211.07 481.605 211.138 481.314 211.138ZM473.136 197.113C473.184 196.782 473.243 196.511 473.298 196.306C473.367 196.149 473.437 196.008 473.509 195.884C473.788 195.515 474.106 195.312 474.454 195.247C474.031 195.863 473.591 196.485 473.136 197.113Z" fill="#0B7465"/>
<path d="M487.516 196.67C480.494 213.2 470.62 222.444 466.204 233.052C460.413 232.658 455.906 218.691 460.216 212.717C460.216 212.717 477.153 194.383 478.687 187.177C480.047 180.781 481.877 170.23 481.716 164.83C481.688 163.927 481.288 163.094 480.673 162.433C478.897 160.52 478.894 158.985 477.754 156.872C476.864 155.226 475.89 154.61 476.167 154.239C476.525 153.764 477.651 153.143 479.052 154.027C479.756 154.473 480.215 154.994 481.237 156.123C481.237 156.123 481.693 153.21 480.238 149.93C478.267 145.483 478.747 143.214 484.749 144.798C488.51 145.791 490.872 148.923 491.435 157.964C491.599 160.567 491.809 165.961 491.501 169.253C490.85 176.211 490.431 183.464 489.576 189.224C489.195 191.782 488.528 194.291 487.516 196.67Z" fill="#F6879F"/>
<path d="M458.504 212.91L473.448 195.84C473.448 195.84 471.673 200.003 475.558 206.058C479.445 212.113 481.757 211.07 481.757 211.07C481.757 211.07 472.94 223.94 470.575 228.249C468.209 232.558 465.757 236.19 465.757 236.19C465.757 236.19 465.167 237.712 462.971 237.712C460.774 237.712 454.965 227.985 458.504 212.91Z" fill="#26B6A6"/>
<path d="M462.972 237.712C461.265 237.712 457.383 231.849 457.388 222.173C457.389 219.386 457.713 216.282 458.504 212.91L473.448 195.84C473.448 195.84 473.044 196.785 473.043 198.43C473.042 200.238 473.525 202.888 475.558 206.058C478.449 210.56 480.469 211.138 481.314 211.138C481.605 211.138 481.757 211.07 481.757 211.07C481.757 211.07 472.941 223.94 470.575 228.249C468.209 232.558 465.758 236.19 465.758 236.19C465.758 236.19 465.168 237.712 462.972 237.712Z" fill="#06AB91"/>
<path d="M337.335 251.287L344.369 260.654L336.814 269.312L327.078 257.926L337.335 251.287Z" fill="#F47089"/>
<path d="M314.321 229.999C320.456 230.286 323.38 231.234 326.591 235.017C329.726 238.71 345.866 262.03 345.866 262.03C345.866 262.03 343.027 269.99 336.813 269.312L325.517 257.667L314.321 229.999Z" fill="#33535F"/>
<path d="M284.22 424.44C284.02 425.919 283.596 427.644 283.517 431.828C283.431 436.311 282.608 437.903 282.498 441.582C282.375 445.787 283.1 447.361 284.806 449.724C286.514 452.087 290.991 454.233 292.884 450.237C294.8 446.194 294.533 443.625 293.928 439.5C293.302 435.237 293.223 432.88 292.861 429.629C292.542 426.762 292.158 424.584 292.158 424.584L284.22 424.44Z" fill="#17282F"/>
<path d="M296.949 389.182L282.178 388.914C282.397 398.774 283.965 415.189 284.22 424.44C284.268 426.181 284.176 437.973 284.834 441.555C285.822 446.939 292.211 446.212 292.55 442.99C292.889 439.769 292.138 426.003 292.158 424.584C292.103 418.651 294.883 403.166 296.342 392.514C296.413 391.991 296.881 389.692 296.949 389.182Z" fill="#F8A39A"/>
<path d="M318.657 416.768C318.657 416.768 317.894 416.812 317.773 417.433C317.63 418.174 317.598 419.343 317.29 420.559C316.862 422.247 316.507 425.031 316.764 426.407C317.02 427.784 320.163 429.834 322.312 430.196C324.461 430.556 327.494 432.68 329.18 434.265C331.244 436.207 335.696 438.041 338.728 438.02C342.316 437.994 344.817 436.824 345.999 434.904C347.235 432.897 344.923 432.749 340.822 430.089C339.89 429.484 338.831 428.801 337.638 428.023C331.141 423.779 328.763 421.505 326.926 417.26L318.657 416.768Z" fill="#17282F"/>
<path d="M326.976 414.459C326.867 411.405 328.432 388.914 328.432 388.914L315.726 390.345C318.73 408.273 318.974 414.382 318.631 416.992C318.608 417.06 318.549 417.308 318.551 417.742C318.564 421.226 322.495 423.104 325.562 425.427C326.773 426.344 329.885 429.171 333.534 430.413C335.895 431.216 340.259 431.521 340.819 430.087C337.088 427.237 332.009 423.515 329.042 420.261C327.625 418.707 327.086 417.512 326.976 414.459Z" fill="#F8A39A"/>
<path d="M285.605 287.218C278.673 302.356 285.854 355.682 285.854 355.682C285.646 358.14 282.836 362.973 281.791 373.785C280.554 386.561 284.073 420.76 284.073 420.76C284.073 420.76 287.448 423.284 292.344 420.936C292.344 420.936 301.286 370.685 302.889 357.983C304.286 346.899 306.971 322.524 306.971 322.524L314.598 357.924C314.598 357.924 312.641 364.133 312.182 368.865C311.459 376.336 318.734 413.833 318.734 413.833C318.734 413.833 322.138 415.63 326.975 413.672C326.975 413.672 330.199 365.228 330.873 356.228C332.007 341.112 327.993 293.95 325.221 285.003L285.605 287.218Z" fill="#26B6A6"/>
<path d="M288.2 421.936C285.646 421.936 284.073 420.76 284.073 420.76C284.073 420.76 281.527 396.016 281.527 380.761C281.527 378.081 281.606 375.694 281.791 373.785C282.836 362.973 285.646 358.14 285.854 355.682C285.854 355.682 282.959 334.177 282.62 314.604C282.611 314.151 282.605 313.705 282.601 313.255C282.591 312.499 282.588 311.746 282.588 310.999C282.587 303.278 283.052 296.103 284.335 290.983C287.482 294.439 295.829 297.487 305.16 297.488C311.19 297.488 317.631 296.215 323.347 292.957L322.1 298.079L327.278 296.575C329.224 311.437 331.068 335.481 331.071 349.579C331.071 352.172 331.008 354.427 330.873 356.228C330.199 365.228 326.975 413.672 326.975 413.672C325.269 414.363 323.742 414.586 322.478 414.586C320.161 414.586 318.734 413.833 318.734 413.833C318.734 413.833 312.131 379.804 312.131 370.121C312.131 369.639 312.148 369.219 312.182 368.865C312.641 364.133 314.598 357.924 314.598 357.924L306.971 322.524L313.692 353.515L309.274 320.737L311.8 309.912C318.529 308.067 323.059 302.433 323.059 302.433C318.742 306.491 309.221 308.464 309.221 308.464L306.971 322.524C306.971 322.524 304.286 346.899 302.889 357.983C301.286 370.685 292.344 420.936 292.344 420.936C290.789 421.682 289.389 421.936 288.2 421.936Z" fill="#0B7465"/>
<path d="M313.693 353.515L306.971 322.524L309.221 308.464C309.221 308.464 318.742 306.492 323.059 302.433C323.059 302.433 318.529 308.067 311.8 309.912L309.274 320.737L313.693 353.515Z" fill="#0B584B"/>
<path d="M289.16 240.194L298.589 242.649V222.719C293.382 221.363 289.16 224.366 289.16 229.428V240.194Z" fill="#26B6A6"/>
<path d="M289.37 240.249L289.16 240.194V236.447C289.335 237.689 289.396 238.968 289.37 240.249ZM289.16 232.342V229.428C289.16 225.645 291.517 223.012 294.883 222.488C296.032 223.244 297.267 223.873 298.569 224.356L298.589 230.722L297.591 230.811C297.591 230.811 292.188 231.577 289.16 232.342Z" fill="#0B584B"/>
<path d="M307.811 225.552L304.426 225.475C294.116 225.238 285.94 216.34 286.169 205.601C286.11 193.897 295.229 184.36 306.466 184.3C317.704 184.238 326.861 193.678 326.92 205.382L326.892 206.59C326.635 217.307 318.101 225.789 307.811 225.552Z" fill="#26B6A6"/>
<path d="M298.569 224.356C294.974 223.024 291.896 220.578 289.704 217.427C288.799 216.126 288.047 214.706 287.471 213.193C286.884 211.65 286.481 210.014 286.29 208.31C286.206 207.565 286.164 206.808 286.164 206.041C286.164 205.895 286.165 205.748 286.169 205.601C286.168 205.567 286.168 205.533 286.168 205.499C286.166 201.181 287.412 197.163 289.553 193.811L290.031 194.092C290.245 193.666 290.341 193.207 290.341 192.753C290.341 192.723 290.341 192.692 290.34 192.661C290.367 192.625 290.395 192.586 290.423 192.549C291.217 192.191 291.794 191.478 292.014 190.655C295.696 186.758 300.813 184.33 306.466 184.3C306.501 184.3 306.538 184.298 306.574 184.298C317.763 184.298 326.861 193.714 326.92 205.382L326.892 206.59C326.791 210.729 325.459 214.534 323.266 217.632C323.501 216.18 323.656 214.471 323.69 212.456C323.894 200.651 321.36 196.611 319.333 194.749C319.727 198.944 317.537 204.111 312.069 206.971C307.791 209.207 303.263 210.162 300.889 210.538C300.522 209.979 299.914 209.599 299.225 209.566L299.217 210.755C299.212 210.755 299.21 210.755 299.21 210.755C298.406 209.067 296.842 208.2 295.314 208.2C294.281 208.2 293.265 208.597 292.509 209.404C290.638 211.403 291.469 215.106 293.896 217.292C295.159 218.431 296.197 218.754 296.969 218.754C297.992 218.754 298.549 218.184 298.549 218.184L298.569 224.356Z" fill="#0B584B"/>
<path d="M292.021 189.201C291.641 187.736 290.181 186.915 288.759 187.368L289.661 190.848C289.469 190.618 289.248 190.412 288.982 190.256C287.714 189.508 286.126 190.015 285.438 191.387L290.031 194.092C290.271 193.614 290.363 193.093 290.337 192.586C291.631 192.055 292.383 190.594 292.021 189.201Z" fill="#26B6A6"/>
<path d="M290.031 194.092L285.438 191.387C285.911 190.445 286.808 189.911 287.734 189.911C288.156 189.911 288.585 190.021 288.982 190.256C289.248 190.412 289.469 190.618 289.661 190.848L288.759 187.368C289.024 187.284 289.29 187.243 289.551 187.243C290.687 187.243 291.711 188.009 292.021 189.201C292.082 189.435 292.112 189.67 292.112 189.904C292.113 190.159 292.079 190.412 292.014 190.655C291.794 191.478 291.217 192.191 290.423 192.549C290.395 192.562 290.365 192.574 290.337 192.586C290.34 192.641 290.341 192.698 290.341 192.753C290.341 193.207 290.245 193.666 290.031 194.092Z" fill="#0B584B"/>
<path d="M297.591 230.811C297.591 230.811 290.772 231.778 288.16 232.623C291.811 241.577 286.083 255.406 286.083 255.406L291.486 272.04C287.76 279.686 284.678 283.478 283.416 289.69C286.851 296.404 311.121 302.812 326.92 290.575C326.92 290.575 326.409 273.579 324.396 263.676C329.572 253.582 328.728 250.621 327.671 247.101C325.214 238.916 320.246 235.766 314.322 229.999L310.749 229.623L297.591 230.811Z" fill="#273E47"/>
<path d="M292.112 278.709C295.041 275.7 301.257 274.843 301.257 274.843L295.555 271.589L289.16 256.166C293.597 247.636 293.002 239.193 293.002 239.193L289.337 238.313C289.781 246.471 286.083 255.406 286.083 255.406L291.486 272.04C287.76 279.686 284.678 283.478 283.416 289.69C285.766 294.286 297.882 298.735 310.359 297.162C293.639 296.044 289.29 281.608 292.112 278.709Z" fill="#17282F"/>
<path d="M309 297.309C309.228 297.288 309.456 297.26 309.683 297.235C309.495 297.24 309.274 297.261 309 297.309Z" fill="#E2E2E0"/>
<path d="M319.333 194.749C321.359 196.611 323.894 200.651 323.69 212.456C323.518 222.46 320.417 224.948 318.857 225.669C317.298 226.389 314.281 225.973 311.347 225.479L311.312 229.623C311.312 229.623 315.18 233.913 314.938 236.667C314.698 239.423 309.436 240.565 305.632 237.896C301.828 235.227 298.589 230.771 298.589 230.771L298.549 218.184C298.549 218.184 296.834 219.939 293.896 217.292C291.469 215.106 290.638 211.403 292.509 209.404C294.381 207.403 297.862 207.926 299.21 210.755C299.21 210.755 305.898 210.196 312.069 206.971C317.537 204.11 319.727 198.943 319.333 194.749Z" fill="#F8A39A"/>
<path d="M311.345 210.163C311.385 210.884 310.875 211.497 310.209 211.535C309.543 211.571 308.972 211.017 308.934 210.295C308.895 209.574 309.404 208.961 310.069 208.924C310.737 208.888 311.307 209.442 311.345 210.163Z" fill="#17282F"/>
<path d="M311.796 218.547L314.939 219.572C314.683 220.509 313.772 221.039 312.905 220.755C312.036 220.472 311.54 219.483 311.796 218.547Z" fill="#F57C6B"/>
<path d="M322.664 205.648L319.812 204.675C320.025 203.849 320.839 203.397 321.627 203.667C322.413 203.936 322.877 204.823 322.664 205.648Z" fill="#17282F"/>
<path d="M299.225 209.566L299.193 213.798C300.324 213.852 301.247 212.948 301.256 211.78C301.266 210.61 300.356 209.62 299.225 209.566Z" fill="#26B6A6"/>
<path d="M299.289 213.801C299.257 213.801 299.225 213.801 299.193 213.798L299.225 209.566C300.352 209.619 301.259 210.604 301.256 211.766C301.256 211.77 301.256 211.775 301.256 211.78C301.247 212.915 300.376 213.801 299.289 213.801Z" fill="#0B584B"/>
<path d="M321.678 209.75C321.716 210.469 321.207 211.083 320.541 211.12C319.875 211.157 319.304 210.602 319.266 209.882C319.227 209.161 319.736 208.547 320.402 208.511C321.068 208.474 321.64 209.029 321.678 209.75Z" fill="#17282F"/>
<path d="M314.97 208.034L314.938 216.232L318.758 214.977L314.97 208.034Z" fill="#F57C6B"/>
<path d="M311.347 225.479C308.257 225.075 301.892 223.208 300.889 220.596C300.889 220.596 301.228 222.239 303.134 223.924C305.041 225.608 311.33 227.499 311.33 227.499L311.347 225.479Z" fill="#F57C6B"/>
<path d="M273.67 272.699C273.67 272.699 281.227 283.433 282.528 284.838C283.828 286.241 284.711 285.774 286.116 285.15C287.519 284.525 290.188 283.726 291.369 283.433C293.678 282.861 294.176 284.993 291.888 286.515C290.234 287.614 288.339 288.095 289.131 288.998C289.924 289.9 292.37 291.481 294.645 292.378C300.221 294.577 299.79 295.682 298.764 297.488C297.869 299.061 295.263 302.453 285.287 298.447C281.171 296.795 275.375 292.097 272.641 289.068C268.698 284.698 262.545 276.867 262.545 276.867L273.67 272.699Z" fill="#F8A39A"/>
<path d="M289.614 232.238C286.878 232.421 281.735 233.08 275.283 243.795C269.623 253.192 260.853 265.944 259.222 270.504C258.564 272.342 261.136 276.175 264.437 280.095C268.954 279.897 273.064 276.776 275.195 274.281C274.206 271.992 273.112 270.497 273.112 270.497L286.351 255.401C286.351 255.401 291.378 250.795 292.432 244.766C293.56 238.309 293.208 233.193 289.614 232.238Z" fill="#33535F"/>
<path d="M363.717 252.56L331.084 261.156L322.1 298.079L353.127 289.068L363.717 252.56Z" fill="#26B6A6"/>
<path d="M322.1 298.079L331.084 261.156L363.717 252.56L353.127 289.068L322.1 298.079ZM348.972 278.709C349.266 279.512 351.16 282.363 354.745 282.363C354.854 282.363 354.963 282.36 355.074 282.355L355.31 281.538L348.972 278.709ZM352.932 256.645C352.162 256.645 351.09 256.802 349.878 257.115L345.071 258.362C342.559 259.013 340.403 260.099 340.254 260.786L339.986 262.03L353.887 258.426C353.887 258.426 354.007 257.869 354.156 257.181C354.233 256.825 353.757 256.645 352.932 256.645Z" fill="#0CAD96"/>
<path d="M354.745 282.363C351.16 282.363 349.266 279.512 348.972 278.709L355.31 281.538L355.074 282.354C354.963 282.36 354.853 282.363 354.745 282.363Z" fill="#05A58D"/>
<path d="M339.986 262.03L340.254 260.785C340.403 260.099 342.559 259.013 345.07 258.362L349.878 257.115C351.09 256.802 352.162 256.645 352.932 256.645C353.757 256.645 354.233 256.825 354.156 257.181C354.007 257.869 353.887 258.426 353.887 258.426L339.986 262.03Z" fill="#05A58D"/>
<path d="M356.393 253.747C356.488 253.317 355.712 253.204 354.66 253.495L352.755 254.022C352.755 254.022 353.324 251.33 349.099 252.271C344.874 253.211 343.951 256.267 343.951 256.267C343.951 256.267 343.039 256.526 341.917 256.845C340.795 257.164 339.778 257.77 339.646 258.197L339.404 258.972L356.215 254.546C356.215 254.546 356.298 254.177 356.393 253.747Z" fill="#273E47"/>
<path d="M354.077 255.074C352.537 255.447 351.898 255.65 351.668 256.71C351.404 257.921 351.297 258.81 351.297 258.81L343.858 260.776C343.858 260.776 344.217 259.243 344.331 258.646C344.447 258.049 344.193 257.689 343.01 258.002L342.908 257.527L354.566 254.56L354.077 255.074Z" fill="#273E47"/>
<path d="M354.334 258.543C354.334 258.543 354.454 257.985 354.604 257.297C354.752 256.611 352.837 256.582 350.326 257.233L345.518 258.48C343.006 259.131 340.85 260.215 340.702 260.903L340.433 262.149L354.334 258.543Z" fill="#273E47"/>
<path d="M360.278 264.415C360.278 264.415 359.058 268.589 358.779 269.584C358.499 270.579 354.844 272.368 352.445 273.027C350.045 273.685 347.422 274.467 348.557 277.821C349.604 280.914 353.551 281.62 355.561 281.532C357.57 281.445 360.322 279.524 361.405 276.428C362.789 272.478 362.043 268.259 362.592 265.952C363.142 263.647 361.48 263.039 360.278 264.415Z" fill="#F8A39A"/>
<path d="M236.675 265.395C232.199 260.887 230.6 262.639 230.033 267.586C229.616 271.235 228.54 273.629 228.54 273.629C228.223 272.101 228.089 271.403 227.698 270.645C226.921 269.139 225.605 269.102 225.043 269.338C224.606 269.52 225.146 270.568 225.078 272.483C224.99 274.937 224.197 276.292 224.771 278.898C224.985 279.874 224.806 280.892 224.332 281.77C221.916 286.239 214.212 294.512 208.782 300.464C203.984 296.127 193.247 286.427 188.108 281.796C181.057 275.443 178.757 272.578 171.938 273.045C171.938 273.045 174.579 273.849 177.74 276.522C180.899 279.195 180.147 294.494 180.147 294.494C180.147 294.494 203.606 311.316 206.019 312.916C206.372 313.15 206.734 313.364 207.094 313.554C209.449 314.808 212.365 314.213 214.122 312.206C219.132 306.48 226.426 295.217 230.648 289.359C232.627 286.613 234.541 282.862 235.748 280.48C239.938 272.211 239.478 268.222 236.675 265.395Z" fill="#9B3E49"/>
<path d="M172.633 272.627C172.633 272.627 177.384 271.384 182.067 274.938C186.093 277.994 203.22 293.743 203.22 293.743C203.22 293.743 203.686 302.085 194.983 307.065L173.93 292.219L172.633 272.627Z" fill="#26B6A6"/>
<path d="M194.983 307.065L188.469 302.471L186.042 300.76C185.883 296.275 185.727 292.247 185.587 289.225C185.109 278.939 182.743 273.761 172.633 272.627C172.633 272.627 173.437 272.417 174.71 272.417C176.532 272.417 179.312 272.847 182.067 274.938C186.093 277.994 203.22 293.743 203.22 293.743C203.22 293.743 203.224 293.821 203.224 293.966C203.224 294.23 203.21 294.714 203.13 295.356C202.823 297.811 201.553 302.575 196.437 306.145C195.984 306.462 195.5 306.769 194.983 307.065Z" fill="#06AB91"/>
<path d="M143.412 476.917H152.327V461.02H143.412V476.917Z" fill="#9B3E49"/>
<path d="M174.325 460.171L183.235 460.491L183.682 443.667L174.325 443.347V460.171Z" fill="#9B3E49"/>
<path d="M142.157 323.383C142.157 332.25 143.463 403.615 143.463 403.615C143.254 406.167 140.958 410.871 141.455 420.671C142.131 433.984 143.031 468.968 143.031 468.968C143.031 468.968 147.359 471.602 152.959 469.172C152.959 469.172 161.391 420.717 162.989 407.524C164.383 396.01 166.749 357.245 166.749 357.245L171.581 402.32C171.581 402.32 169.938 409.187 170.477 417.077C170.894 423.18 173.761 454.96 173.761 454.96C173.761 454.96 177.958 457.925 184.055 455.781C184.055 455.781 189.127 407.918 189.23 402.32C189.348 395.935 186.265 323.288 186.265 323.288L142.157 323.383Z" fill="#273E47"/>
<path d="M152.327 472.333V471.004C153.181 471.392 155.164 479.268 158.701 482.629C161.513 485.301 165.35 488.386 166.326 491.365C167.34 494.463 160.983 496.173 158.355 495.689C155.303 495.125 150.011 492.886 148.683 490.812C147.355 488.735 146.733 485.674 145.653 484.153C144.573 482.631 142.086 480.933 141.502 479.173C141.182 478.205 141.562 476.087 142.013 474.298C142.425 472.656 142.874 470.85 143.412 471.004C143.415 471.204 143.412 472.017 143.412 472.017C144.06 472.764 145.85 473.505 147.87 473.587C149.174 473.639 152.339 473.369 152.327 472.333Z" fill="#17282F"/>
<path d="M183.331 457.626C183.794 457.644 184.171 458.323 185.191 459.475C186.426 460.866 188.444 462.367 190.436 463.405C193.775 465.146 200.265 467.823 203.203 469.202C205.039 470.063 204.952 472.371 203.056 473.685C201.159 475 196.578 475.946 191.079 474.665C188.083 473.967 184.183 471.086 181.714 471.241C179.246 471.396 174.628 471.36 172.806 470.052C170.983 468.743 171.712 465.95 172.228 463.549C172.79 460.929 173.493 456.843 174.325 457.023V457.925C175.397 459.616 180.929 460.304 183.283 459.06L183.331 457.626Z" fill="#17282F"/>
<path d="M166.749 357.245C166.749 357.245 173.875 355.153 179.165 349.83C179.165 349.83 176.768 354.502 169.644 358.85L171.168 399.103L166.749 357.245Z" fill="#17282F"/>
<path d="M146.795 275.015C146.795 275.015 139.819 275.653 140.314 288.945L141.856 310.118L141.711 341.892C148.267 349.321 177.334 348.777 187.284 341.296C187.284 341.296 186.259 303.695 185.587 289.225C185.109 278.94 182.743 273.761 172.633 272.627L160.201 273.174L146.795 275.015Z" fill="#26B6A6"/>
<path d="M167.731 293.744L166.607 281.986L168.209 293.149L171.938 293.078L167.731 293.744Z" fill="#06AB91"/>
<path d="M124.667 320.657C128.285 291.576 136.604 277.119 146.747 275.42L146.028 294.026C146.028 294.026 139.216 309.56 136.374 324.813C135.041 331.972 133.495 344.42 133.897 350.539C133.967 351.622 134.447 352.63 135.192 353.391C137.19 355.431 137.798 357.194 139.14 359.496C140.192 361.299 141.278 361.936 140.997 362.368C140.638 362.925 139.455 363.687 137.893 362.772C137.108 362.312 136.165 361.377 134.998 360.163C134.998 360.163 134.702 364.649 136.453 368.259C138.826 373.151 138.431 375.731 131.86 374.29C127.741 373.388 124.772 369.044 123.67 358.903C123.352 355.981 123.312 351.257 123.466 347.534C123.865 337.84 123.943 326.476 124.667 320.657Z" fill="#9B3E49"/>
<path d="M147.325 274.939C142.058 274.919 137.253 275.844 133.431 283.205C129.767 290.263 126.949 305.215 125.527 310.096C125.527 310.096 133.217 314.641 140.289 314.531L145.274 297.24C145.274 297.24 148.638 289.168 147.325 274.939Z" fill="#26B6A6"/>
<path d="M140.036 314.533C139.631 314.533 139.225 314.519 138.819 314.491C133.477 314.123 128.108 311.491 126.228 310.486C125.776 310.243 125.527 310.096 125.527 310.096C126.949 305.215 129.767 290.263 133.431 283.205C137.214 275.92 141.959 274.939 147.163 274.939C147.217 274.939 147.271 274.939 147.325 274.939C147.54 277.259 147.629 279.416 147.629 281.401C147.63 291.586 145.274 297.24 145.274 297.24L141.797 309.302L140.289 314.531C140.205 314.533 140.121 314.533 140.036 314.533Z" fill="#06AB91"/>
<path d="M158.188 245.001C158.188 252.636 164.131 258.826 171.461 258.826C178.793 258.826 184.734 252.636 184.734 245.001C184.734 237.365 178.793 231.175 171.461 231.175C164.131 231.175 158.188 237.365 158.188 245.001Z" fill="#17282F"/>
<path d="M149.744 251.917C149.744 251.917 151.78 261.879 152.596 263.516C153.413 265.153 155.099 265.618 155.099 265.618L154.957 258.611L149.744 251.917Z" fill="#17282F"/>
<path d="M152.299 237.646C152.299 237.646 150.839 237.279 149.288 239.703C147.959 241.78 147.657 246.445 149.744 251.917L153.579 252.375L152.299 237.646Z" fill="#17282F"/>
<path d="M154.729 252.379C153.961 252.857 152.863 251.318 151.915 250.285C150.966 249.251 147.871 247.84 146.327 251.229C144.754 254.682 147.689 259.246 150.127 260.042C154.327 261.417 154.957 258.611 154.957 258.611L155.279 274.39C160.854 283.015 173.484 282.703 168.944 273.973L168.932 269.17C168.932 269.17 172.737 269.771 174.594 269.473C177.684 268.975 179.626 266.438 180.563 262.954C182.068 257.361 182.64 252.845 181.363 241.845C179.963 229.788 166.499 229.662 159.228 234.429C151.957 239.195 154.729 252.379 154.729 252.379Z" fill="#9B3E49"/>
<path d="M155.207 270.852C155.207 270.852 157.168 275.094 160.667 277.695C163.884 280.085 167.275 280.503 167.275 280.503C167.275 280.503 164.003 282.67 162.613 285.737C161.223 288.805 151.411 280.36 151.499 274.368C151.499 274.368 153.039 268.351 155.148 267.965L155.207 270.852Z" fill="#17282F"/>
<path d="M167.275 280.503C167.275 280.503 170.3 279 168.944 273.973L168.932 269.17L170.257 269.347C171.289 270.276 172.913 272.464 173.445 274.87C173.748 276.244 174.495 283.213 173.165 284.596C171.956 285.856 169.986 280.878 167.275 280.503Z" fill="#17282F"/>
<path d="M154.73 253.726C154.342 253.734 152.872 251.192 151.916 250.285C150.589 249.028 152.299 237.646 152.299 237.646C152.299 237.646 151.025 234.816 153.579 231.887C155.396 229.806 158.433 229.574 163.618 228.726C165.637 228.395 167.795 228.175 169.764 227.618C171.873 227.021 173.946 225.622 175.909 224.626C176.559 224.297 177.286 223.958 177.989 224.147C178.665 224.329 179.136 224.974 179.31 225.651C179.485 226.328 179.418 227.042 179.35 227.738C180.551 226.412 182.898 226.606 184.125 227.909C185.351 229.211 185.52 231.274 184.87 232.94C184.219 234.606 182.874 235.918 181.392 236.919C174.875 241.317 167.185 240.096 159.891 239.233C159.541 239.191 159.172 239.156 158.851 239.301C157.71 239.819 157.465 243.367 157.265 244.392C156.589 247.847 156.029 253.7 154.73 253.726Z" fill="#17282F"/>
<path d="M152.306 238.246L147.657 235.646C148.317 234.259 149.893 233.716 151.177 234.434C152.46 235.152 152.967 236.858 152.306 238.246Z" fill="#17282F"/>
<path d="M168.932 269.169C168.932 269.169 162.036 267.723 159.626 266.389C158.013 265.495 156.684 263.947 156.293 262.954C156.293 262.954 156.746 265.086 158.187 267.005C159.95 269.352 168.932 271.081 168.932 271.081V269.169Z" fill="#802933"/>
<path d="M166.437 250.174C166.437 250.999 165.819 251.667 165.056 251.664C164.293 251.663 163.674 250.991 163.674 250.165C163.674 249.34 164.293 248.672 165.056 248.675C165.819 248.677 166.437 249.348 166.437 250.174Z" fill="#17282F"/>
<path d="M164.065 244.193L161.108 245.891C160.673 245.006 160.982 243.909 161.797 243.44C162.614 242.97 163.629 243.308 164.065 244.193Z" fill="#17282F"/>
<path d="M168.308 260.525L171.461 261.758C171.149 262.699 170.191 263.186 169.319 262.846C168.448 262.506 167.996 261.466 168.308 260.525Z" fill="#802933"/>
<path d="M180.241 245.841L177.134 244.328C177.493 243.423 178.478 243.027 179.337 243.445C180.194 243.863 180.599 244.936 180.241 245.841Z" fill="#17282F"/>
<path d="M178.192 250.174C178.192 250.999 177.574 251.668 176.81 251.664C176.047 251.663 175.428 250.992 175.428 250.165C175.428 249.34 176.047 248.672 176.81 248.675C177.574 248.677 178.192 249.348 178.192 250.174Z" fill="#17282F"/>
<path d="M170.364 249.104L170.524 257.832L175.478 256.696L170.364 249.104Z" fill="#802933"/>
<path d="M160.224 250.017C160.224 247.728 162.052 245.866 164.298 245.866H164.928C167.174 245.866 169.003 247.728 169.003 250.017C169.003 252.306 167.174 254.168 164.928 254.168H164.298C162.052 254.168 160.224 252.306 160.224 250.017ZM164.298 246.566C162.431 246.566 160.911 248.114 160.911 250.017C160.911 251.921 162.431 253.468 164.298 253.468H164.928C166.796 253.468 168.315 251.921 168.315 250.017C168.315 248.114 166.796 246.566 164.928 246.566H164.298Z" fill="#17282F"/>
<path d="M172.647 250.017C172.647 247.728 174.475 245.866 176.721 245.866H177.351C179.597 245.866 181.424 247.728 181.424 250.017C181.424 252.306 179.597 254.168 177.351 254.168H176.721C174.475 254.168 172.647 252.306 172.647 250.017ZM176.721 246.566C174.854 246.566 173.333 248.114 173.333 250.017C173.333 251.921 174.854 253.468 176.721 253.468H177.351C179.218 253.468 180.738 251.921 180.738 250.017C180.738 248.114 179.218 246.566 177.351 246.566H176.721Z" fill="#17282F"/>
<path d="M168.952 249.197C169.329 248.567 170.173 248.129 171.104 248.08C171.905 248.039 172.613 248.308 172.981 248.803L173.529 248.379C173.016 247.69 172.121 247.326 171.069 247.382C169.9 247.442 168.865 247.999 168.365 248.833L168.952 249.197Z" fill="#17282F"/>
<path d="M153.579 249.864H160.602V249.164H153.579V249.864Z" fill="#17282F"/>
</svg>
