<svg width="528" height="477" viewBox="0 0 528 477" fill="none" xmlns="http://www.w3.org/2000/svg">
<path d="M38.1729 282.428C62.9308 286.753 80.3092 260.092 57.9718 243.135C42.4337 231.34 9.97739 237.376 13.2902 261.319C14.8512 272.589 27.7378 280.606 38.1729 282.428Z" fill="#99DDDF"/>
<path d="M69.9323 95.3024C68.6244 68.9044 80.3685 36.4321 110.716 35.3874C165.73 33.4957 195.875 98.653 245.366 110.72C279.333 119.002 300.353 95.0205 325.399 77.34C352.45 58.2448 381.29 32.2735 417.532 40.4208C440.938 45.6833 454.196 69.5287 456.211 91.4949C458.37 115.029 447.047 133.945 448.986 156.533C451.043 180.488 476.376 190.815 488.896 210.575C504.361 234.987 509.592 263.163 502.091 291.152C494.856 318.147 474.445 344.847 448.115 355.36C412.442 369.608 385.855 348.146 352.698 338.538C305.351 324.82 282.841 350.04 249.829 378.422C229.406 395.98 203.572 411.522 175.194 407.235C135.402 401.224 123.037 347.259 122.711 313.891C122.504 292.62 132.061 267.965 116.381 251.634C101.381 236.012 86.7298 238.156 66.3332 236.902C50.1117 235.905 31.0355 229.787 25.5824 212.944C23.047 205.111 23.2779 194.841 28.2512 187.993C40.6126 170.98 69.6445 170.596 73.8989 149.401C77.4861 131.526 70.8123 113.084 69.9323 95.3024Z" fill="#99DDDF"/>
<path d="M224.492 39.4354C232.089 8.58172 162.211 -16.6331 160.106 13.6718C158.985 29.8393 182.765 49.6167 197.167 52.2952C210.427 54.7596 221.14 53.0491 224.492 39.4354Z" fill="#99DDDF"/>
<path d="M171.886 355.789C166.447 343.23 164.113 329.721 156.704 318.17C153.872 313.753 151.019 309.793 146.695 306.462C141.377 302.367 135.493 303.03 129.64 300.569C118.9 296.056 112.892 283.756 102.649 277.675C92.5033 271.653 80.2741 269.698 68.6327 272.102C57.8889 274.319 50.5115 275.59 40.1579 271.109C32.2451 267.683 15.727 262.054 21.3252 277.103C24.6227 285.971 35.5943 290.257 40.9559 298.443C46.701 307.215 48.1366 320.065 55.905 327.495C59.651 331.077 64.0706 330.82 68.5522 330.563C72.8807 330.315 77.2659 330.067 81.1552 333.279C89.3579 340.061 91.8551 349.353 102.05 354.926C113.059 360.944 126.074 362.809 138.379 363.514C147.122 364.012 163.97 364.916 173.92 361.059C173.302 359.297 172.646 357.54 171.886 355.789Z" fill="#209058"/>
<path d="M79.4659 303.56C105.958 331.672 137.524 350.932 172.53 357.373C172.319 356.844 172.115 356.316 171.886 355.789C166.447 343.23 164.112 329.721 156.704 318.17C153.872 313.753 151.019 309.793 146.695 306.462C141.377 302.367 135.493 303.03 129.64 300.569C118.9 296.056 112.892 283.756 102.649 277.675C92.5032 271.653 80.274 269.698 68.6326 272.102C64.2205 273.012 60.3766 273.755 56.6595 274.014C63.919 284.68 71.3088 294.903 79.4659 303.56Z" fill="#22744A"/>
<path d="M445.341 127.325C436.79 125.596 453.978 111.187 456.436 108.79C462.756 102.632 474.785 92.0727 473.319 81.9681C472.359 75.3601 467.365 76.3192 462.374 77.2783C459.817 77.7705 457.259 78.2626 455.248 77.734C456.403 70.7182 466.171 63.91 470.497 58.6778C473.814 54.6639 477.105 50.3341 478.195 45.0402C480.483 33.9375 473.229 31.8556 464.86 36.811C463.636 35.035 464.038 32.4573 464.256 30.242C464.83 24.4547 469.495 4.58917 459.657 2.99948C454.464 2.15996 450.097 12.9102 448.467 16.4231C446.641 20.3489 444.255 30.7744 440.659 33.1974C438.456 34.6826 437.477 33.1999 436.274 31.7159C435.347 30.5743 434.289 29.4314 432.433 29.6467C427.822 30.1791 426.714 39.687 426.115 43.2856C425.048 49.6871 425.823 56.2838 426.514 62.6476C426.904 66.2537 428.452 71.0467 426.312 74.3091C423.929 72.4551 421.506 69.4331 418.872 67.7855C412.448 63.7628 411.132 70.7836 409.832 76.2777C407.635 85.5566 409.133 95.6309 409.171 105.11C409.185 108.541 410.594 117.259 408.199 119.562C402.6 115.325 393.736 106.581 390.856 118.76C388.967 126.745 389.68 136.235 391.3 144.18C392.362 149.392 396.887 167.576 401.562 180.376C402.363 179.814 403.153 179.253 403.927 178.69C410.7 173.775 418.062 170.105 425.019 165.403C434.615 158.915 445.284 150.266 451.2 140.236C452.689 137.712 456.846 129.63 455.132 126.837C453.692 124.497 451.288 125.432 449.049 126.368C447.659 126.947 446.334 127.527 445.341 127.325Z" fill="#209058"/>
<path d="M455.132 126.837C453.692 124.497 451.288 125.432 449.049 126.368C447.659 126.947 446.334 127.527 445.341 127.325C444.971 127.251 444.665 127.144 444.388 127.023C429.984 138.643 416.526 151.463 405.906 166.571C403.801 169.566 401.807 172.602 399.931 175.683C400.469 177.301 401.014 178.877 401.562 180.376C402.363 179.814 403.153 179.253 403.927 178.69C410.7 173.775 418.062 170.105 425.019 165.403C434.615 158.915 445.284 150.266 451.2 140.236C452.689 137.712 456.846 129.63 455.132 126.837Z" fill="#22744A"/>
<path d="M152.399 228.311C156.307 214.247 161.25 199.682 163.571 185.39C165.461 173.754 160.854 161.299 155.083 151.446C150.333 143.343 140.336 137.863 135.845 129.644C130.1 119.124 133.342 104.705 129.857 93.2369C126.055 80.7422 118.575 72.4614 108.605 64.5519C99.8337 57.5928 93.3478 55.0893 87.967 44.9294C83.096 35.7386 77.875 24.5554 67.4704 20.369C43.306 10.6484 61.1903 60.6828 62.1231 69.9176C63.1914 80.4892 58.9336 87.0657 54.2209 95.9242C47.2949 108.94 47.2113 121.435 57.3446 133.354C66.1921 143.758 75.1379 146.676 72.9436 161.901C71.358 172.908 69.6558 185.075 72.9928 196.121C76.8656 208.943 84.1306 220.952 95.5517 227.577C100.505 230.45 106.033 233.109 111.356 235.399C115.733 237.285 132.918 240.134 146.758 242.185C148.983 237.879 150.924 233.62 152.399 228.311Z" fill="#2AB05B"/>
<path d="M111.356 235.399C115.733 237.285 132.918 240.134 146.758 242.185C148.486 238.842 150.039 235.52 151.338 231.72C142.256 214.723 129.539 199.026 111.46 184.758C99.3202 175.179 86.6656 167.007 73.0896 160.725C73.0469 161.11 73.0011 161.498 72.9436 161.901C71.3581 172.908 69.6558 185.075 72.9928 196.121C76.8656 208.943 84.1306 220.952 95.5517 227.577C100.505 230.45 106.033 233.109 111.356 235.399Z" fill="#209058"/>
<path d="M487.251 185.527C494.39 160.82 497.651 133.173 495.758 107.464C494.988 96.9928 495.411 86.5697 496.838 76.2034C493.382 79.6735 489.445 82.9096 487.382 85.1273C480.282 92.7586 472.639 100.045 465.67 107.941C446.682 129.445 427.717 152.436 416.845 179.33C409.71 196.98 405.672 215.022 406.591 233.807C407.024 242.612 408.577 251.092 410.948 259.562C411.723 262.332 412.664 266.205 413.859 270.144C450.646 253.816 476.103 224.11 487.251 185.527Z" fill="#2AB05B"/>
<path d="M420.26 171.601C419.056 174.146 417.902 176.714 416.845 179.33C409.71 196.98 405.672 215.022 406.591 233.807C407.024 242.612 408.577 251.092 410.948 259.562C411.723 262.332 412.664 266.205 413.859 270.144C425.063 265.172 435.206 258.953 444.225 251.626C443.214 222.373 434.591 195.057 420.26 171.601Z" fill="#209058"/>
<path d="M482.981 198.093C459.718 203.452 439.5 214.147 420.582 228.2C415.657 231.859 411.168 235.627 407.037 239.493C407.745 246.288 409.09 252.929 410.948 259.562C411.723 262.332 412.664 266.205 413.859 270.144C446.543 255.637 470.273 230.564 482.981 198.093Z" fill="#209058"/>
<path d="M102.822 195.186C82.2363 178.938 60.1912 166.698 34.6231 160.966C27.1734 159.296 12.6875 159.611 0 157.468C25.5199 184.893 37.4724 228.357 58.6386 258.167C85.6019 296.141 121.636 322.407 164.885 329.636C160.199 276.93 148.782 231.454 102.822 195.186Z" fill="#40BB6D"/>
<path d="M420.582 239.615C440.205 225.038 461.215 214.056 485.586 208.913C492.687 207.416 506.493 207.699 518.587 205.775C494.262 230.38 482.871 269.375 462.696 296.119C436.995 330.186 402.65 353.75 361.427 360.235C365.893 312.951 376.777 272.151 420.582 239.615Z" fill="#40BB6D"/>
<path d="M361.427 360.235C385.446 356.457 407.126 346.871 426.126 332.795C437.763 310.204 444.336 284.578 444.336 257.416C444.336 246.671 443.296 236.168 441.334 225.996C434.202 230.058 427.307 234.619 420.582 239.615C376.777 272.151 365.893 312.951 361.427 360.235Z" fill="#2AB05B"/>
<path d="M190.483 335.105C180.29 330.224 169.664 321.661 162.558 315.646C137.22 294.198 116.936 267.505 97.3201 241.693C94.8984 238.505 92.478 235.318 90.045 232.14C79.6711 218.579 70.913 208.631 61.6461 199.885C60.6849 198.979 59.6834 198.021 58.646 197.03C50.5073 189.259 40.3781 179.586 30.8192 175.429L31.2857 174.353C41.0369 178.595 51.2503 188.346 59.4557 196.182C60.4922 197.171 61.4927 198.127 62.4514 199.032C71.766 207.822 80.5635 217.813 90.9764 231.426C93.4094 234.606 95.8324 237.793 98.254 240.983C117.833 266.745 138.077 293.386 163.317 314.749C170.372 320.724 180.919 329.224 190.99 334.046L190.483 335.105Z" fill="#2AB05B"/>
<path d="M144.252 231.207C142.888 219.859 140.422 210.5 136.494 201.757C129.654 186.529 121.899 174.63 112.086 164.307C103.517 155.293 96.4227 146.708 96.4089 132.903C96.4051 129.848 96.4781 126.77 96.5486 123.795C96.7751 114.306 96.9866 105.342 94.9878 96.1583C91.49 80.0978 83.2659 66.9762 74.5597 53.083L75.015 52.7029L75.5112 52.392L75.015 52.7029L75.554 52.46C84.3169 66.4425 92.5926 79.6472 96.1345 95.9079C98.1634 105.23 97.9381 114.681 97.7229 123.823C97.6512 126.792 97.5782 129.862 97.5807 132.903C97.5958 146.275 104.544 154.67 112.935 163.499C122.843 173.92 130.668 185.924 137.565 201.276C141.543 210.13 144.038 219.597 145.418 231.067L144.252 231.207Z" fill="#209058"/>
<path d="M395.604 217.033L394.455 216.794C395.482 211.847 396.03 206.912 396.562 202.14C397.302 195.476 398.068 188.585 400.159 181.829C401.274 178.223 402.301 174.955 403.562 171.459C405.016 167.431 406.382 163.25 407.705 159.206C409.737 152.984 411.842 146.55 414.382 140.266C416.689 134.564 419.564 128.758 422.344 123.142C425.288 117.193 428.333 111.043 430.703 105.012C432.872 99.4975 434.528 93.724 436.13 88.1406C438.245 80.7724 440.431 73.1537 443.824 65.9957C447.748 57.7225 449.512 49.7765 451.38 41.3636C452.158 37.8569 452.964 34.232 453.94 30.5718L455.074 30.8751C454.104 34.5101 453.301 38.1237 452.526 41.6178C450.643 50.0962 448.864 58.1051 444.884 66.4991C441.532 73.569 439.359 81.1424 437.258 88.4641C435.648 94.074 433.984 99.8751 431.794 105.442C429.405 111.519 426.349 117.692 423.395 123.661C420.623 129.257 417.759 135.045 415.471 140.706C412.944 146.953 410.847 153.368 408.82 159.571C407.496 163.623 406.126 167.813 404.665 171.858C403.413 175.33 402.39 178.584 401.279 182.177C399.222 188.825 398.496 195.356 397.727 202.27C397.193 207.069 396.642 212.032 395.604 217.033Z" fill="#22744A"/>
<path d="M396.476 285.518L395.727 284.616C399.295 281.662 401.385 277.338 403.407 273.156C404.844 270.183 406.33 267.108 408.348 264.491C409.387 263.142 410.397 261.945 411.375 260.788C413.575 258.185 415.653 255.726 417.501 252.122C421.505 244.313 423.878 236.108 425.848 228.402C426.505 225.831 427.142 223.219 427.783 220.594C430.259 210.441 432.819 199.943 436.83 190.784L438.478 187.005C443.994 174.326 449.699 161.215 458.225 150.349C467.161 138.958 472.136 129.933 477.709 118.194L478.769 118.697C473.161 130.511 468.152 139.596 459.147 151.074C450.714 161.82 445.042 174.861 439.555 187.473L437.906 191.254C433.935 200.32 431.386 210.767 428.922 220.872C428.281 223.501 427.644 226.118 426.985 228.695C424.999 236.464 422.601 244.745 418.545 252.657C416.637 256.38 414.516 258.89 412.271 261.547C411.302 262.692 410.301 263.878 409.277 265.207C407.334 267.728 405.874 270.748 404.463 273.667C402.388 277.961 400.241 282.403 396.476 285.518Z" fill="#209058"/>
<path d="M343.215 384.133L342.602 383.131C344.819 381.775 345.842 380.123 347.028 378.213C347.582 377.315 348.157 376.389 348.893 375.432C355.066 367.423 361.028 359.241 366.794 351.327C375.479 339.405 384.462 327.079 394.259 315.22C399.578 308.781 406.067 303.579 412.343 298.547C418.54 293.576 424.951 288.437 430.067 282.191L432.824 278.827C444.586 264.458 455.695 250.885 468.43 237.724L469.273 238.54C456.572 251.666 445.478 265.22 433.732 279.57L430.975 282.937C425.78 289.275 419.322 294.453 413.078 299.46C406.847 304.456 400.407 309.62 395.164 315.966C385.389 327.799 376.418 340.111 367.742 352.018C361.971 359.938 356.005 368.127 349.823 376.15C349.122 377.057 348.565 377.958 348.025 378.829C346.813 380.784 345.67 382.63 343.215 384.133Z" fill="#2AB05B"/>
<path d="M204.042 373.104C202.358 371.495 200.753 369.937 199.205 368.435C186.582 356.186 177.463 347.336 158.752 343.741C156.531 343.314 154.168 342.96 151.882 342.616C146.835 341.86 141.616 341.077 136.976 339.419C130.817 337.219 126.237 332.818 121.806 328.559C117.66 324.573 113.744 320.81 108.607 318.634C104.798 317.023 101.397 316.11 98.1093 315.226C91.0897 313.338 85.0292 311.71 78.2589 304.073C76.9473 302.594 75.5578 300.759 74.0866 298.818C67.9055 290.657 60.2153 280.5 49.7846 284.825L49.3362 283.741C60.6018 279.068 68.5972 289.628 75.0233 298.11C76.4804 300.033 77.8548 301.849 79.1361 303.294C85.6724 310.668 91.5768 312.256 98.4126 314.092C101.739 314.986 105.179 315.91 109.063 317.554C114.4 319.814 118.58 323.829 122.621 327.714C126.96 331.886 131.448 336.2 137.37 338.315C141.903 339.934 147.065 340.708 152.056 341.456C154.354 341.802 156.729 342.158 158.973 342.589C178.028 346.251 187.253 355.203 200.022 367.593C201.569 369.094 203.171 370.649 204.853 372.255L204.042 373.104Z" fill="#22744A"/>
<path d="M429.751 229.452C429.751 320.495 355.947 394.296 264.906 394.296C173.866 394.296 100.061 320.495 100.061 229.452C100.061 138.411 173.866 64.6088 264.906 64.6088C355.947 64.6088 429.751 138.411 429.751 229.452Z" fill="#3873BA"/>
<path d="M257.649 88.8003C256.348 91.5341 252.499 90.5951 251.419 92.7789C249.658 96.3686 251.606 99.7255 252.252 103.139C253.695 110.85 255.889 113.923 248.063 118.511C240.636 122.864 238.487 119.814 238.841 130.233C238.957 133.847 242.289 134.012 240.166 137.942C239.496 139.173 234.276 139.737 232.856 141.743C228.667 147.705 235.121 155.508 233.501 162.032C231.577 169.753 226.004 168.52 220.922 172.498C211.136 180.149 214.07 198.994 202.558 204.567C198.006 206.772 186.93 204.261 183.749 200.672C178.88 195.18 182.4 188.774 184.818 183.376C188.01 176.23 188.736 174.752 185.005 167.817C183.643 165.293 181.52 164.519 180.523 161.175C179.467 157.62 181.485 153.571 179.901 150.052C178.634 147.259 174.996 147.047 173.905 144.771C172.298 141.45 173.517 137.825 172.004 134.691C171.288 133.214 168.906 128.861 166.923 128.485C161.197 127.417 164.624 131.735 162.629 134.691C157.711 141.974 152.7 140.228 146.934 138.481C142.918 137.265 138.536 136.048 133.563 137.884C130.618 138.974 127.721 140.841 124.822 142.519C150.284 101.567 193.207 72.6075 243.169 66.0247C249.459 73.0883 263.224 77.0909 257.649 88.8003Z" fill="#49C2B8"/>
<path d="M298.629 268.782C294.615 258.242 289.352 258.914 283.45 259.587C279.152 260.078 274.515 260.568 269.774 256.725C266.565 254.126 266.99 249.14 262.336 247.637C259.592 246.75 256.363 247.657 253.035 248.564C250.287 249.313 247.474 250.061 244.816 249.801C229.938 248.343 223.355 255.527 219.192 270.701C217.066 278.454 216.039 282.003 222.421 287.381C224.935 289.501 228.978 290.083 231.168 292.486C233.78 295.347 233.172 299.377 235.235 302.131C238.536 306.549 245.125 307.212 249.106 312.133C250.879 314.321 250.753 317.943 252.935 320.261C255.269 322.741 259.125 322.398 261.921 325.152C269.187 332.317 270.406 342.547 270.043 351.655C269.551 363.997 277.557 367.98 289.726 366.882C292.452 357.281 296.624 361.94 303.586 358.487C309.398 355.604 312.58 347.262 313.79 341.403C315.297 334.118 314.363 333.161 319.772 326.695C324.023 321.605 327.859 316.592 328.313 309.802C329.015 299.239 324.839 300.743 318.92 296.175C314.823 293.018 311.687 288.234 307.811 285.03C304.53 282.317 303.773 283.142 301.644 279.052C300.133 276.15 299.863 272.024 298.629 268.782Z" fill="#49C2B8"/>
<path d="M429.75 229.455C429.75 253.439 424.622 276.225 415.424 296.782C413.182 296.761 411.176 296.724 409.732 296.782C402.74 297.053 395.64 294.365 391.744 288.287C389.668 285.06 391.286 281.201 387.474 278.161C384.939 276.155 381.09 277.246 378.133 276.283C367.902 272.928 372.795 269.349 371.292 261.757C370.014 255.338 361.401 251.726 355.064 253.884C349.267 255.867 347.977 263.869 341.394 263.517C333.731 263.106 332.723 254.166 331.151 248.956C328.429 239.944 329.32 238.759 320.684 241.904C319.745 242.245 313.537 245.143 313.233 245.519C311.05 248.218 313.338 252.301 311.52 254.953C307.483 260.842 300.642 252.395 298.883 247.196C297.791 244.005 298.871 240.226 297.851 236.977C296.969 234.148 293.72 233.033 292.886 230.158C289.73 219.329 297.992 221.523 302.743 216.302C310.827 207.418 299.575 207.641 293.543 211.15C290.294 213.051 289.601 215.574 285.869 216.489C284.164 216.906 282.319 216.513 280.439 216.12C278.83 215.783 277.195 215.447 275.602 215.621C272.2 215.985 270.955 218.332 267.082 218.201C262.026 218.037 263.317 216.007 259.632 214.576C255.032 212.788 251.859 213.482 248.525 214.176C245.976 214.707 243.333 215.238 239.885 214.658C238.171 207.7 245.869 202.678 251.043 200.473C254.481 199.005 257.86 199.217 260.887 197.48C264.115 195.627 264.526 192.458 268.796 191.062C275.697 188.796 282.937 188.362 289.297 184.889C294.294 182.155 298.871 174.023 288.592 172.78C289.881 164.426 283.19 166.231 277.512 168.036C275.023 168.826 272.73 169.618 271.39 169.554C258.118 168.908 268.597 159.368 274.734 155.637C278.149 153.547 281.892 151.8 285.214 150.063C289.496 147.81 290.667 146.32 294.2 143.68C305.887 134.962 301.195 147.025 311.367 147.424C309.935 160.037 318.186 156.058 324.344 150.72C325.882 149.382 326.762 145.757 328.757 144.911C329.94 144.413 330.88 144.958 331.622 145.504C332.205 145.934 332.666 146.361 333.028 146.285C336.407 145.546 340.349 144.9 343.846 144.618C343.307 140.511 340.01 133.307 342.427 129.517C343.447 127.898 348.235 128.485 349.937 126.818C353.117 123.709 352.565 122.993 353.35 119.12C354.759 112.279 352.248 110.707 357.598 105.663C359.511 103.855 363.008 101.438 366.434 99.5844C404.981 129.752 429.75 176.71 429.75 229.455Z" fill="#49C2B8"/>
<path d="M203.837 330.108C204.415 339.042 201.237 338.906 196.575 338.77C194.141 338.698 191.302 338.626 188.385 339.847C188.55 343.402 188.208 347.299 187.235 350.653C178.059 355.182 179.092 362.74 180.042 370.8C168.906 364.102 158.627 356.122 149.404 347.051C149.251 345.443 149.088 343.823 148.876 342.217C148.7 340.867 151.223 340.48 150.519 338.156C150.284 337.395 147.609 336.128 147.024 334.741C145.462 331.021 144.066 330.518 143.795 326.012C143.397 319.159 149.029 313.503 149.839 307.238C150.261 303.905 147.878 301.326 148.09 297.839C148.279 294.823 150.073 292.582 150.519 289.449C145.133 287.489 140.909 286.364 137.154 282.597C132.977 286.481 123.378 280.743 119.002 279.898C112.371 278.643 106.811 277.833 105.238 268.939C105.074 268.845 104.91 268.763 104.756 268.692V268.681C101.695 256.102 100.064 242.973 100.064 229.455C100.064 211.948 102.785 195.086 107.844 179.257C114.942 180.149 112.748 179.058 116.433 174.798C118.991 171.842 133.164 153.701 135.417 167.863C141.154 167.594 152.408 168.509 149.814 177.403C148.219 182.836 137.951 182.319 134.185 188.527C129.915 195.568 133.493 198.031 138.691 203.03C146.377 210.422 146.306 210.551 149.603 201.516C150.977 197.75 147.024 197.127 152.362 195.344C155.941 194.147 158.321 195.896 160.693 198.079C163.965 201.106 162.629 204.285 166.923 207.078C169.739 208.921 173.154 208.064 176.276 208.967C181.449 210.469 193.77 217.826 188.912 225.066C186.712 228.337 182.352 227.256 178.305 226.173C174.906 225.266 171.726 224.357 170.232 226.029C170.009 226.098 169.785 226.157 169.574 226.216C170.056 233.28 179.502 233.621 178.703 240.484C177.073 240.567 175.193 240.46 173.24 240.355C167.994 240.069 162.226 239.783 159.379 243.16C156.094 247.056 159.132 260.279 156.457 262.649C152.163 266.451 143.268 261.381 139.324 259.61C136.462 258.32 134.596 255.879 131.006 255.972C130.348 255.985 123.157 259.797 123.061 260.009C120.749 265.77 129.504 272.588 134.608 273.713C137.025 274.244 139.166 273.61 141.36 272.976C144.314 272.123 147.366 271.27 151.318 273.256C157.688 276.46 156.703 281.893 165.174 283.324C166.921 283.616 169.432 283.521 172.113 283.425C176.962 283.251 182.369 283.079 184.818 285.202C188.678 288.545 186.049 292.487 188.877 296.36C191.095 299.387 195.565 299.483 198.533 300.363C205.798 302.498 212.638 304.292 212.849 313.928C200.294 316.004 203.193 320.004 203.837 330.108Z" fill="#49C2B8"/>
<path d="M264.906 394.296C264.867 394.296 264.823 394.296 264.784 394.296C264.823 394.296 264.867 394.296 264.906 394.296C298.062 394.296 328.938 384.503 354.79 367.659C328.938 384.503 298.062 394.296 264.906 394.296ZM264.749 394.296C264.72 394.296 264.692 394.296 264.662 394.296C264.696 394.296 264.716 394.296 264.749 394.296ZM264.622 394.296C264.588 394.296 264.554 394.296 264.52 394.295C264.554 394.296 264.589 394.296 264.622 394.296ZM264.502 394.295C264.459 394.295 264.424 394.295 264.381 394.295C264.42 394.295 264.464 394.295 264.502 394.295ZM264.35 394.295C264.32 394.295 264.29 394.295 264.259 394.295C264.292 394.295 264.316 394.295 264.35 394.295ZM264.22 394.295C264.19 394.295 264.157 394.295 264.127 394.293C264.161 394.295 264.186 394.295 264.22 394.295ZM264.098 394.293C264.06 394.293 264.015 394.293 263.977 394.293C264.021 394.293 264.054 394.293 264.098 394.293ZM263.953 394.293C263.919 394.293 263.893 394.292 263.859 394.292C263.893 394.292 263.919 394.293 263.953 394.293ZM263.814 394.292C263.784 394.292 263.763 394.292 263.733 394.292C263.756 394.292 263.791 394.292 263.814 394.292ZM263.693 394.291C263.655 394.291 263.619 394.291 263.58 394.291C263.619 394.291 263.654 394.291 263.693 394.291ZM263.563 394.291C263.529 394.29 263.489 394.29 263.455 394.29C263.489 394.29 263.529 394.29 263.563 394.291ZM263.414 394.29C263.387 394.288 263.358 394.288 263.332 394.288C263.359 394.288 263.386 394.288 263.414 394.29ZM263.29 394.288C263.256 394.287 263.231 394.287 263.197 394.287C263.23 394.287 263.257 394.287 263.29 394.288ZM263.169 394.287C263.13 394.286 263.091 394.286 263.052 394.286C263.091 394.286 263.13 394.286 263.169 394.287ZM263.009 394.285C262.984 394.285 262.958 394.285 262.933 394.285C262.96 394.285 262.982 394.285 263.009 394.285ZM262.885 394.283C262.86 394.283 262.833 394.283 262.808 394.282C262.836 394.283 262.857 394.283 262.885 394.283ZM262.764 394.282C262.725 394.282 262.689 394.281 262.649 394.281C262.689 394.281 262.725 394.282 262.764 394.282ZM262.612 394.28C262.583 394.28 262.559 394.28 262.53 394.278C262.558 394.28 262.584 394.28 262.612 394.28ZM262.485 394.278C262.454 394.278 262.433 394.277 262.403 394.277C262.425 394.277 262.462 394.278 262.485 394.278ZM262.363 394.277C262.329 394.276 262.295 394.276 262.261 394.274C262.293 394.276 262.33 394.276 262.363 394.277ZM262.222 394.274C262.191 394.273 262.156 394.273 262.127 394.273C262.16 394.273 262.188 394.273 262.222 394.274ZM262.083 394.272C262.057 394.272 262.03 394.271 262.005 394.271C262.026 394.271 262.06 394.272 262.083 394.272ZM261.958 394.269C261.93 394.269 261.903 394.269 261.873 394.268C261.901 394.268 261.931 394.269 261.958 394.269ZM261.839 394.268C261.801 394.267 261.763 394.267 261.726 394.266C261.765 394.267 261.8 394.267 261.839 394.268ZM261.68 394.264C261.655 394.264 261.629 394.263 261.604 394.263C261.631 394.263 261.653 394.264 261.68 394.264ZM261.556 394.262C261.531 394.262 261.507 394.262 261.48 394.261C261.508 394.262 261.529 394.262 261.556 394.262ZM261.435 394.259C261.397 394.259 261.362 394.258 261.323 394.258C261.357 394.258 261.402 394.259 261.435 394.259ZM261.279 394.257C261.254 394.256 261.231 394.256 261.205 394.254C261.232 394.256 261.251 394.256 261.279 394.257ZM261.15 394.254C261.129 394.253 261.104 394.253 261.082 394.252C261.105 394.253 261.129 394.253 261.15 394.254ZM261.033 394.251C261.003 394.251 260.972 394.249 260.941 394.249C260.969 394.249 261.006 394.251 261.033 394.251ZM260.882 394.248C260.857 394.247 260.828 394.247 260.803 394.246C260.831 394.247 260.855 394.247 260.882 394.248ZM260.746 394.244C260.726 394.244 260.709 394.243 260.688 394.243C260.71 394.243 260.725 394.244 260.746 394.244ZM260.626 394.242C260.608 394.241 260.585 394.241 260.569 394.239C260.585 394.241 260.608 394.241 260.626 394.242ZM260.475 394.237C260.453 394.237 260.425 394.235 260.404 394.235C260.425 394.235 260.453 394.237 260.475 394.237ZM260.341 394.234C260.321 394.233 260.307 394.233 260.286 394.232C260.302 394.233 260.325 394.233 260.341 394.234ZM260.224 394.23C260.206 394.23 260.185 394.229 260.169 394.229C260.185 394.229 260.208 394.23 260.224 394.23ZM260.104 394.227C260.07 394.227 260.038 394.225 260.004 394.224C260.037 394.225 260.072 394.227 260.104 394.227ZM259.938 394.222C259.921 394.222 259.903 394.222 259.885 394.22C259.903 394.222 259.922 394.222 259.938 394.222ZM259.819 394.219C259.802 394.218 259.786 394.218 259.768 394.217C259.786 394.218 259.802 394.218 259.819 394.219ZM259.702 394.215C259.689 394.214 259.67 394.214 259.658 394.214C259.674 394.214 259.685 394.214 259.702 394.215ZM259.531 394.209C259.513 394.209 259.502 394.209 259.484 394.208C259.495 394.209 259.519 394.209 259.531 394.209ZM259.416 394.207C259.398 394.205 259.386 394.205 259.369 394.204C259.379 394.205 259.405 394.205 259.416 394.207ZM259.298 394.201C259.281 394.201 259.274 394.201 259.256 394.2C259.267 394.201 259.286 394.201 259.298 394.201ZM259.099 394.195C259.094 394.195 259.089 394.195 259.085 394.195C259.09 394.195 259.093 394.195 259.099 394.195ZM259.008 394.193C258.996 394.191 258.982 394.191 258.969 394.19C258.986 394.191 258.992 394.191 259.008 394.193ZM258.894 394.188C258.881 394.188 258.872 394.188 258.858 394.186C258.87 394.188 258.882 394.188 258.894 394.188ZM258.598 394.178C258.585 394.176 258.583 394.176 258.57 394.176C258.582 394.176 258.587 394.176 258.598 394.178ZM258.49 394.173C258.476 394.173 258.468 394.173 258.456 394.171C258.467 394.173 258.478 394.173 258.49 394.173ZM258.378 394.169C258.373 394.169 258.361 394.168 258.356 394.168C258.368 394.169 258.366 394.169 258.378 394.169ZM258.184 394.161C258.18 394.161 258.172 394.161 258.169 394.16C258.174 394.161 258.179 394.161 258.184 394.161ZM258.083 394.157C258.074 394.156 258.067 394.156 258.058 394.156C258.069 394.156 258.072 394.156 258.083 394.157ZM257.971 394.152C257.966 394.152 257.963 394.152 257.958 394.152C257.965 394.152 257.965 394.152 257.971 394.152ZM257.673 394.14C257.668 394.14 257.663 394.14 257.659 394.139C257.664 394.14 257.666 394.14 257.673 394.14ZM257.567 394.135C257.562 394.135 257.558 394.135 257.554 394.135H257.567ZM257.158 394.117H257.154C257.16 394.117 257.153 394.117 257.158 394.117Z" fill="#48C3DF"/>
<path d="M429.751 229.452C429.751 229.408 429.751 229.365 429.751 229.32C429.751 229.364 429.751 229.409 429.751 229.452ZM429.751 229.299C429.751 229.26 429.751 229.228 429.751 229.189C429.751 229.227 429.751 229.261 429.751 229.299ZM429.751 229.15C429.751 229.116 429.751 229.09 429.751 229.057C429.751 229.09 429.751 229.117 429.751 229.15ZM429.751 229.013C429.751 228.98 429.751 228.96 429.751 228.926C429.751 228.956 429.751 228.984 429.751 229.013ZM429.751 228.871C429.751 228.848 429.75 228.818 429.75 228.795C429.75 228.819 429.751 228.847 429.751 228.871ZM429.75 228.739C429.75 228.716 429.75 228.686 429.75 228.663C429.75 228.691 429.75 228.711 429.75 228.739ZM429.75 228.606C429.75 228.584 429.75 228.555 429.749 228.532C429.75 228.556 429.75 228.583 429.75 228.606ZM429.749 228.474C429.749 228.452 429.749 228.424 429.749 228.401C429.749 228.426 429.749 228.449 429.749 228.474ZM429.747 228.338C429.747 228.316 429.747 228.293 429.747 228.27C429.747 228.292 429.747 228.317 429.747 228.338ZM429.747 228.207C429.747 228.185 429.746 228.161 429.746 228.139C429.746 228.161 429.747 228.186 429.747 228.207ZM429.746 228.075C429.746 228.054 429.746 228.03 429.746 228.009C429.746 228.032 429.746 228.051 429.746 228.075ZM429.745 227.943C429.745 227.92 429.745 227.9 429.745 227.878C429.745 227.899 429.745 227.922 429.745 227.943ZM429.744 227.81C429.744 227.793 429.744 227.764 429.744 227.748C429.744 227.769 429.744 227.788 429.744 227.81ZM429.742 227.679C429.742 227.662 429.742 227.633 429.741 227.617C429.742 227.639 429.742 227.657 429.742 227.679ZM429.741 227.547C429.741 227.53 429.74 227.503 429.74 227.486C429.74 227.505 429.741 227.528 429.741 227.547ZM429.74 227.417C429.739 227.394 429.739 227.378 429.739 227.355C429.739 227.374 429.739 227.398 429.74 227.417ZM429.737 227.282C429.737 227.261 429.737 227.248 429.737 227.226C429.737 227.245 429.737 227.263 429.737 227.282ZM429.736 227.151C429.736 227.13 429.736 227.119 429.735 227.096C429.735 227.112 429.736 227.135 429.736 227.151ZM429.734 227.019C429.734 227.003 429.734 226.983 429.734 226.966C429.734 226.985 429.734 227 429.734 227.019ZM429.732 226.89C429.732 226.872 429.731 226.853 429.731 226.837C429.731 226.856 429.732 226.871 429.732 226.89ZM429.73 226.756C429.73 226.74 429.73 226.723 429.73 226.707C429.73 226.722 429.73 226.741 429.73 226.756ZM429.729 226.625C429.727 226.609 429.727 226.595 429.727 226.579C429.727 226.594 429.727 226.61 429.729 226.625ZM429.726 226.494C429.726 226.478 429.725 226.464 429.725 226.448C429.725 226.463 429.726 226.478 429.726 226.494ZM429.724 226.366C429.724 226.348 429.722 226.335 429.722 226.317C429.722 226.333 429.724 226.35 429.724 226.366ZM429.721 226.233C429.721 226.221 429.72 226.202 429.72 226.191C429.721 226.205 429.721 226.219 429.721 226.233ZM429.718 226.102C429.718 226.09 429.717 226.075 429.717 226.064C429.717 226.074 429.718 226.09 429.718 226.102ZM429.716 225.97C429.716 225.958 429.715 225.949 429.715 225.938C429.715 225.949 429.716 225.959 429.716 225.97ZM429.713 225.839C429.712 225.829 429.712 225.825 429.712 225.813C429.712 225.822 429.712 225.831 429.713 225.839ZM429.71 225.706C429.71 225.7 429.71 225.704 429.71 225.698C429.71 225.7 429.71 225.704 429.71 225.706ZM429.707 225.577V225.573V225.577Z" fill="#1A7D59"/>
<path d="M264.906 394.296C264.867 394.296 264.823 394.296 264.784 394.296C264.772 394.296 264.763 394.296 264.749 394.296C264.716 394.296 264.696 394.296 264.662 394.296C264.649 394.296 264.634 394.296 264.622 394.296C264.589 394.296 264.554 394.296 264.52 394.295C264.516 394.295 264.507 394.295 264.502 394.295C264.464 394.295 264.42 394.295 264.381 394.295C264.373 394.295 264.359 394.295 264.35 394.295C264.316 394.295 264.292 394.295 264.259 394.295C264.242 394.295 264.237 394.295 264.22 394.295C264.186 394.295 264.161 394.295 264.127 394.293C264.118 394.293 264.107 394.293 264.098 394.293C264.054 394.293 264.021 394.293 263.977 394.293C263.969 394.293 263.962 394.293 263.953 394.293C263.919 394.293 263.893 394.292 263.859 394.292C263.846 394.292 263.826 394.292 263.814 394.292C263.791 394.292 263.756 394.292 263.733 394.292C263.721 394.292 263.706 394.291 263.693 394.291C263.654 394.291 263.619 394.291 263.58 394.291C263.576 394.291 263.567 394.291 263.563 394.291C263.529 394.29 263.489 394.29 263.455 394.29C263.439 394.29 263.43 394.29 263.413 394.29C263.386 394.288 263.359 394.288 263.332 394.288C263.319 394.288 263.303 394.288 263.29 394.288C263.257 394.287 263.23 394.287 263.197 394.287C263.188 394.287 263.177 394.287 263.169 394.287C263.13 394.286 263.091 394.286 263.052 394.286C263.04 394.286 263.022 394.285 263.009 394.285C262.982 394.285 262.96 394.285 262.933 394.285C262.915 394.283 262.902 394.283 262.885 394.283C262.857 394.283 262.836 394.283 262.808 394.282C262.795 394.282 262.777 394.282 262.764 394.282C262.725 394.282 262.688 394.281 262.649 394.281C262.637 394.281 262.626 394.281 262.612 394.28C262.584 394.28 262.558 394.28 262.53 394.278C262.517 394.278 262.497 394.278 262.485 394.278C262.462 394.278 262.425 394.277 262.403 394.277C262.39 394.277 262.375 394.277 262.362 394.277C262.33 394.276 262.293 394.276 262.261 394.274C262.248 394.274 262.234 394.274 262.222 394.274C262.188 394.273 262.16 394.273 262.127 394.273C262.11 394.272 262.099 394.272 262.083 394.272C262.06 394.272 262.026 394.271 262.005 394.271C261.992 394.271 261.971 394.271 261.958 394.269C261.931 394.269 261.901 394.268 261.873 394.268C261.86 394.268 261.851 394.268 261.839 394.268C261.8 394.267 261.765 394.267 261.726 394.266C261.713 394.266 261.694 394.264 261.68 394.264C261.653 394.264 261.631 394.263 261.604 394.263C261.586 394.263 261.573 394.263 261.556 394.262C261.529 394.262 261.508 394.262 261.48 394.261C261.468 394.261 261.447 394.261 261.435 394.259C261.402 394.259 261.357 394.258 261.323 394.258C261.306 394.257 261.296 394.257 261.279 394.257C261.251 394.256 261.232 394.256 261.205 394.254C261.188 394.254 261.168 394.254 261.15 394.254C261.129 394.253 261.105 394.253 261.082 394.252C261.066 394.252 261.05 394.252 261.033 394.251C261.006 394.251 260.969 394.249 260.941 394.249C260.921 394.248 260.904 394.248 260.882 394.248C260.855 394.247 260.831 394.247 260.803 394.246C260.787 394.246 260.764 394.244 260.746 394.244C260.725 394.244 260.71 394.243 260.688 394.243C260.667 394.242 260.646 394.242 260.626 394.242C260.608 394.241 260.585 394.241 260.569 394.239C260.535 394.239 260.508 394.238 260.475 394.237C260.453 394.237 260.425 394.235 260.404 394.235C260.383 394.234 260.362 394.234 260.341 394.234C260.325 394.233 260.302 394.233 260.286 394.232C260.264 394.232 260.245 394.23 260.224 394.23C260.208 394.23 260.185 394.229 260.169 394.229C260.147 394.228 260.126 394.228 260.104 394.227C260.072 394.227 260.036 394.225 260.004 394.224C259.982 394.224 259.96 394.223 259.938 394.222C259.922 394.222 259.903 394.222 259.885 394.22C259.865 394.22 259.84 394.219 259.819 394.219C259.802 394.218 259.786 394.218 259.768 394.217C259.743 394.217 259.727 394.215 259.702 394.215C259.685 394.214 259.674 394.214 259.658 394.214C259.616 394.213 259.573 394.212 259.531 394.209C259.519 394.209 259.495 394.209 259.484 394.208C259.463 394.208 259.437 394.207 259.416 394.207C259.405 394.205 259.379 394.205 259.369 394.204C259.348 394.204 259.319 394.203 259.298 394.201C259.286 394.201 259.267 394.201 259.256 394.2C259.206 394.199 259.149 394.196 259.099 394.195C259.092 394.195 259.09 394.195 259.085 394.195C259.06 394.194 259.033 394.193 259.008 394.193C258.992 394.191 258.986 394.191 258.969 394.19C258.943 394.19 258.919 394.189 258.894 394.188C258.882 394.188 258.87 394.188 258.858 394.186C258.774 394.184 258.682 394.18 258.598 394.178C258.587 394.176 258.581 394.176 258.57 394.176C258.545 394.175 258.515 394.174 258.49 394.173C258.478 394.173 258.467 394.173 258.456 394.171C258.43 394.171 258.403 394.17 258.378 394.169C258.366 394.169 258.367 394.169 258.356 394.168C258.297 394.166 258.243 394.164 258.184 394.161C258.179 394.161 258.174 394.161 258.169 394.16C258.138 394.159 258.112 394.159 258.083 394.157C258.072 394.156 258.069 394.156 258.058 394.156C258.029 394.155 258 394.154 257.971 394.152C257.965 394.152 257.965 394.152 257.958 394.152C257.865 394.149 257.765 394.144 257.673 394.14C257.666 394.14 257.664 394.14 257.659 394.139C257.625 394.137 257.6 394.137 257.567 394.135H257.554C257.422 394.128 257.289 394.123 257.158 394.117C257.153 394.117 257.16 394.117 257.154 394.117C229.036 392.816 202.756 384.466 180.042 370.799C179.092 362.74 178.058 355.18 187.235 350.653C188.208 347.299 188.549 343.402 188.384 339.847C190.617 338.913 192.804 338.736 194.799 338.736C195.41 338.736 196.003 338.752 196.575 338.77C197.146 338.786 197.695 338.803 198.217 338.803C199.963 338.803 201.413 338.616 202.412 337.622C211.467 339.163 220.774 339.966 230.268 339.966C243.331 339.966 256.047 338.444 268.233 335.573C269.935 340.771 270.252 346.4 270.043 351.655C269.602 362.707 275.976 367.056 286.052 367.056C287.229 367.056 288.453 366.997 289.726 366.882C292.452 357.281 296.623 361.941 303.586 358.487C309.398 355.605 312.579 347.262 313.79 341.403C315.297 334.118 314.363 333.161 319.771 326.696C324.023 321.605 327.858 316.592 328.313 309.802C328.366 309 328.391 308.266 328.39 307.595C345.443 294.944 359.969 279.076 371.071 260.891C371.159 261.173 371.234 261.463 371.292 261.757C372.795 269.349 367.902 272.928 378.133 276.283C381.09 277.246 384.939 276.155 387.474 278.161C391.286 281.201 389.668 285.06 391.744 288.287C395.463 294.089 402.098 296.801 408.775 296.801C409.094 296.801 409.414 296.795 409.732 296.782C410.311 296.759 410.981 296.751 411.721 296.751C412.822 296.751 414.079 296.77 415.419 296.782C402.884 324.763 382.77 348.613 357.695 365.72C356.731 366.379 355.769 367.021 354.79 367.659C328.938 384.503 298.062 394.296 264.906 394.296ZM419.49 286.832C426.12 268.964 429.75 249.632 429.75 229.455C429.75 209.528 426.213 190.422 419.735 172.739C425.794 189.273 429.279 207.043 429.707 225.573V225.577C429.708 225.617 429.708 225.657 429.71 225.698C429.71 225.704 429.71 225.7 429.71 225.707C429.711 225.744 429.711 225.776 429.712 225.814C429.712 225.825 429.712 225.829 429.713 225.839C429.713 225.871 429.715 225.907 429.715 225.938C429.715 225.949 429.716 225.958 429.716 225.97C429.716 226.002 429.717 226.031 429.717 226.064C429.717 226.075 429.718 226.09 429.718 226.102C429.718 226.131 429.72 226.162 429.72 226.191C429.72 226.202 429.721 226.221 429.721 226.233C429.721 226.262 429.722 226.288 429.722 226.317C429.722 226.335 429.723 226.348 429.723 226.366C429.723 226.392 429.725 226.42 429.725 226.448C429.725 226.464 429.726 226.478 429.726 226.494C429.726 226.521 429.727 226.551 429.727 226.579C429.727 226.595 429.727 226.609 429.728 226.625C429.728 226.653 429.728 226.679 429.73 226.707C429.73 226.724 429.73 226.74 429.73 226.756C429.731 226.784 429.731 226.809 429.731 226.837C429.731 226.853 429.732 226.872 429.732 226.89C429.732 226.914 429.733 226.943 429.733 226.966C429.733 226.983 429.733 227.003 429.733 227.019C429.735 227.046 429.735 227.07 429.735 227.096C429.736 227.119 429.736 227.13 429.736 227.151C429.736 227.179 429.736 227.199 429.737 227.226C429.737 227.248 429.737 227.261 429.737 227.282C429.739 227.308 429.739 227.331 429.739 227.355C429.739 227.378 429.739 227.394 429.74 227.417C429.74 227.441 429.74 227.461 429.74 227.486C429.74 227.503 429.741 227.53 429.741 227.547C429.741 227.571 429.741 227.593 429.741 227.617C429.742 227.634 429.742 227.662 429.742 227.679C429.742 227.7 429.742 227.725 429.744 227.748C429.744 227.764 429.744 227.793 429.744 227.81C429.744 227.831 429.744 227.856 429.745 227.878C429.745 227.9 429.745 227.921 429.745 227.943C429.745 227.965 429.745 227.987 429.746 228.009C429.746 228.03 429.746 228.054 429.746 228.075C429.746 228.097 429.746 228.118 429.746 228.14C429.746 228.161 429.747 228.185 429.747 228.208C429.747 228.229 429.747 228.249 429.747 228.27C429.747 228.293 429.747 228.316 429.747 228.338C429.749 228.36 429.749 228.38 429.749 228.401C429.749 228.424 429.749 228.452 429.749 228.474C429.749 228.493 429.749 228.513 429.749 228.532C429.75 228.555 429.75 228.584 429.75 228.606C429.75 228.625 429.75 228.644 429.75 228.663C429.75 228.686 429.75 228.716 429.75 228.739C429.75 228.758 429.75 228.776 429.75 228.795C429.75 228.818 429.751 228.848 429.751 228.871C429.751 228.89 429.751 228.907 429.751 228.926C429.751 228.96 429.751 228.98 429.751 229.013C429.751 229.027 429.751 229.043 429.751 229.057C429.751 229.09 429.751 229.116 429.751 229.15C429.751 229.16 429.751 229.178 429.751 229.189C429.751 229.228 429.751 229.26 429.751 229.299C429.751 229.306 429.751 229.313 429.751 229.32C429.751 229.365 429.751 229.408 429.751 229.452C429.751 249.63 426.125 268.966 419.49 286.832ZM419.723 172.71C419.713 172.681 419.702 172.649 419.691 172.62C419.702 172.649 419.713 172.681 419.723 172.71ZM419.672 172.569C419.664 172.547 419.658 172.53 419.649 172.508C419.657 172.527 419.665 172.551 419.672 172.569ZM384.804 116.329C384.8 116.325 384.795 116.32 384.792 116.316C384.797 116.321 384.799 116.323 384.804 116.329ZM384.726 116.247C384.477 115.982 384.225 115.719 383.973 115.456C384.225 115.718 384.477 115.984 384.726 116.247Z" fill="#2865B9"/>
<path d="M286.052 367.056C275.976 367.056 269.602 362.707 270.043 351.655C270.252 346.4 269.935 340.771 268.233 335.573C290.336 330.363 310.718 320.705 328.39 307.595C328.391 308.266 328.366 309 328.313 309.802C327.859 316.592 324.023 321.605 319.772 326.695C314.363 333.161 315.297 334.118 313.79 341.403C312.58 347.262 309.398 355.604 303.586 358.487C296.624 361.941 292.452 357.281 289.726 366.882C288.453 366.997 287.229 367.056 286.052 367.056Z" fill="#1FA6BD"/>
<path d="M408.776 296.801C402.098 296.801 395.463 294.088 391.745 288.287C389.668 285.06 391.286 281.201 387.474 278.161C384.939 276.155 381.09 277.246 378.133 276.283C367.902 272.928 372.795 269.349 371.293 261.757C371.235 261.462 371.159 261.173 371.071 260.891C386.325 235.904 395.113 206.541 395.113 175.122C395.113 154.078 391.162 133.958 383.974 115.456C384.225 115.719 384.477 115.982 384.726 116.247C384.749 116.27 384.769 116.292 384.792 116.316C384.796 116.32 384.801 116.325 384.804 116.328C399.934 132.359 411.886 151.421 419.649 172.508C419.658 172.53 419.664 172.547 419.672 172.569C419.679 172.588 419.684 172.601 419.691 172.62C419.702 172.649 419.713 172.681 419.723 172.71C419.727 172.719 419.731 172.73 419.735 172.739C426.213 190.422 429.75 209.527 429.75 229.455C429.75 249.632 426.12 268.964 419.491 286.832C418.24 290.203 416.881 293.519 415.419 296.782C414.08 296.769 412.822 296.75 411.721 296.75C410.981 296.75 410.311 296.759 409.732 296.782C409.414 296.795 409.094 296.801 408.776 296.801Z" fill="#1FA6BD"/>
<path d="M160.441 356.971C138.679 339.118 121.566 315.802 111.201 289.119C121.502 299.877 133.25 309.243 146.127 316.902C144.767 319.799 143.606 322.771 143.795 326.012C144.066 330.518 145.462 331.021 147.024 334.741C147.609 336.128 150.283 337.395 150.519 338.156C151.222 340.48 148.7 340.867 148.876 342.217C149.088 343.823 149.251 345.443 149.404 347.051C152.933 350.521 156.615 353.831 160.441 356.971Z" fill="#2865B9"/>
<path d="M180.042 370.799C173.163 366.661 166.618 362.038 160.441 356.971C156.615 353.831 152.933 350.521 149.404 347.051C149.251 345.443 149.088 343.823 148.876 342.217C148.7 340.867 151.222 340.48 150.519 338.156C150.283 337.395 147.609 336.128 147.024 334.741C145.462 331.021 144.066 330.518 143.795 326.012C143.606 322.771 144.767 319.799 146.127 316.902C163.151 327.028 182.15 334.173 202.412 337.622C201.413 338.616 199.963 338.803 198.217 338.803C197.695 338.803 197.146 338.786 196.575 338.77C196.003 338.752 195.41 338.736 194.799 338.736C192.804 338.736 190.617 338.913 188.385 339.847C188.549 343.402 188.208 347.299 187.235 350.653C178.058 355.18 179.092 362.74 180.042 370.799Z" fill="#1FA6BD"/>
<path d="M461.316 169.974C454.87 134.899 429.891 150.659 429.891 150.659C394.841 117.622 388.796 160.329 388.796 160.329C372.68 154.285 368.249 169.998 368.249 169.998C346.005 164.612 339.14 176.236 337.29 186.919H485.953C481.808 161.369 461.316 169.974 461.316 169.974Z" fill="white"/>
<path d="M135.414 195.143C131.362 173.098 115.66 183.002 115.66 183.002C93.6296 162.237 89.8297 189.08 89.8297 189.08C79.7 185.282 76.9145 195.157 76.9145 195.157C62.9332 191.773 58.6188 199.079 57.4551 205.794H150.899C148.293 189.734 135.414 195.143 135.414 195.143Z" fill="white"/>
<path d="M190.097 100.946C184.941 72.8793 164.952 85.4899 164.952 85.4899C136.904 59.0541 132.067 93.2269 132.067 93.2269C119.17 88.3911 115.625 100.964 115.625 100.964C97.826 96.6555 92.3319 105.957 90.8517 114.506H209.812C206.495 94.0601 190.097 100.946 190.097 100.946Z" fill="white"/>
<path d="M174.778 208.654C172.09 208.268 169.294 208.63 166.923 207.078C162.629 204.285 163.965 201.106 160.693 198.079C158.854 196.386 157.01 194.955 154.606 194.955C153.91 194.955 153.166 195.076 152.362 195.344C147.157 197.083 150.785 197.718 149.697 201.238C147.462 195.553 143.39 194.268 140.164 194.268C137.501 194.268 135.414 195.144 135.414 195.144C134.988 192.833 134.436 190.87 133.786 189.213C133.911 188.989 134.044 188.761 134.185 188.527C137.951 182.319 148.219 182.836 149.814 177.403C152.174 169.312 143.076 167.824 137.094 167.824C136.656 167.824 136.234 167.832 135.835 167.846C139.619 158.805 145.133 149.353 152.223 140.262C152.319 140.14 152.413 140.02 152.509 139.898C153.065 139.974 153.615 140.018 154.16 140.018C157.09 140.018 159.875 138.772 162.629 134.691C164.412 132.049 161.863 128.318 165.391 128.318C165.81 128.318 166.315 128.371 166.923 128.485C168.906 128.861 171.288 133.213 172.004 134.691C173.517 137.825 172.298 141.45 173.905 144.77C174.996 147.047 178.634 147.259 179.901 150.052C181.485 153.571 179.467 157.62 180.523 161.175C181.52 164.519 183.643 165.293 185.005 167.817C188.736 174.752 188.01 176.23 184.818 183.376C182.4 188.773 178.88 195.18 183.749 200.672C184.031 200.989 184.373 201.298 184.768 201.595C181.439 204.271 178.091 206.633 174.778 208.654Z" fill="#6498C9"/>
<path d="M184.768 201.595C184.373 201.298 184.031 200.989 183.749 200.672C178.88 195.18 182.4 188.773 184.818 183.376C188.01 176.23 188.736 174.752 185.005 167.817C183.643 165.293 181.52 164.519 180.523 161.175C179.467 157.62 181.485 153.571 179.901 150.052C178.634 147.259 174.996 147.047 173.905 144.771C172.298 141.45 173.517 137.825 172.004 134.691C171.288 133.213 168.905 128.861 166.923 128.485C166.315 128.371 165.81 128.318 165.391 128.318C161.863 128.318 164.412 132.049 162.629 134.691C159.875 138.772 157.09 140.018 154.16 140.018C153.615 140.018 153.065 139.974 152.509 139.898C160.871 129.25 170.238 120.602 179.451 114.506H209.812C209.059 109.861 207.63 106.627 205.872 104.401C206.282 104.384 206.687 104.375 207.09 104.375C211.84 104.375 216.037 105.617 219.398 108.238C233.887 119.539 227.303 152.199 204.692 181.187C198.458 189.181 191.655 196.061 184.768 201.595Z" fill="#7AD2C6"/>
<path d="M145.618 208.444C144.682 208.444 143.478 207.538 141.592 205.794H147.966C147.186 207.583 146.53 208.444 145.618 208.444Z" fill="#6498C9"/>
<path d="M149.827 217.076C145.076 217.076 140.88 215.833 137.519 213.213C135.075 211.307 133.231 208.795 131.962 205.794H141.592C143.478 207.538 144.682 208.444 145.618 208.444C146.53 208.444 147.186 207.583 147.966 205.794H150.899C150.612 204.027 150.202 202.521 149.697 201.238C150.784 197.717 147.157 197.083 152.361 195.344C153.166 195.075 153.91 194.955 154.606 194.955C157.01 194.955 158.854 196.386 160.693 198.079C163.965 201.106 162.628 204.285 166.923 207.078C169.294 208.63 172.09 208.268 174.778 208.654C165.853 214.098 157.178 217.076 149.827 217.076ZM133.786 189.213C132.935 187.041 131.918 185.391 130.807 184.152C131.779 179.004 133.468 173.504 135.835 167.846C136.234 167.832 136.656 167.824 137.094 167.824C143.076 167.824 152.174 169.312 149.814 177.403C148.219 182.836 137.951 182.319 134.185 188.527C134.044 188.761 133.911 188.989 133.786 189.213Z" fill="#7AD2C6"/>
<path d="M150.899 205.794H131.962C129.543 200.074 129.213 192.582 130.807 184.152C131.918 185.391 132.935 187.041 133.786 189.213C134.435 190.87 134.988 192.833 135.413 195.143C135.413 195.143 137.5 194.267 140.164 194.267C143.39 194.267 147.461 195.553 149.697 201.238C150.202 202.521 150.612 204.027 150.899 205.794Z" fill="white"/>
<path d="M209.812 114.506H179.451C188.823 108.303 198.039 104.741 205.873 104.401C207.63 106.627 209.06 109.861 209.812 114.506Z" fill="white"/>
<path d="M528 409.485C528 414.212 508.57 418.044 484.6 418.044C460.632 418.044 441.201 414.212 441.201 409.485C441.201 404.758 460.632 400.925 484.6 400.925C508.57 400.925 528 404.758 528 409.485Z" fill="#99DDDF"/>
<path d="M454.851 368.117L464.664 345.909L451.954 335.661L441.492 364.326C441.492 364.326 438.948 369.801 448.922 376.842L468.612 395.994L474.733 393.065C474.733 393.065 461.435 374.573 454.851 368.117Z" fill="#273A62"/>
<path d="M468.613 395.994L470.234 397.996L455.439 406.461L455.01 408.287L481.002 404.634L477.286 395.994L474.733 393.065L468.613 395.994Z" fill="#FFB9B9"/>
<path d="M469.19 396.709L470.234 397.996L477.286 395.994L475.596 394.054L469.19 396.709Z" fill="white"/>
<path d="M455.439 406.461L455.01 408.287L481.002 404.634L477.286 395.994L470.234 397.996L455.439 406.461Z" fill="#2A2954"/>
<path d="M481.002 404.634L480.085 402.502L455.439 406.461L455.01 408.287L481.002 404.634Z" fill="#34BBB6"/>
<path d="M451.649 337.487L459.199 358.278L464.664 345.909L452.324 335.958L451.649 337.487Z" fill="#2A2954"/>
<path d="M390.651 267.602C390.651 267.602 390.01 266.033 390.651 262.047C390.651 262.047 389.582 253.504 391.862 256.352V254.571C391.862 254.571 390.01 251.44 391.114 249.731L391.862 250.513C391.862 250.513 391.362 249.232 391.862 248.093C391.862 248.093 393.072 250.087 393.215 250.798L393.713 254.074L393.927 257.848C393.927 257.848 394.427 264.753 394.925 265.821C394.925 265.821 407.954 273.225 411.727 274.151L412.441 280.417L390.651 267.602Z" fill="#F47064"/>
<path d="M412.441 280.417L411.727 274.151C407.954 273.225 394.925 265.821 394.925 265.821L392.972 268.965L412.441 280.417Z" fill="white"/>
<path d="M394.705 269.985L412.894 280.696L412.528 274.481C409.507 273.742 399.766 268.524 396.312 266.6L394.705 269.985Z" fill="#F68B1E"/>
<path d="M425.187 286.023C425.187 286.023 429.408 286.143 432.624 288.229L436.17 284.244L431.439 279.375L425.561 281.097L425.187 286.023Z" fill="#F47064"/>
<path d="M434.174 282.19L432.991 280.701L428.004 285.934L429.03 287.595L433.789 284.803L434.174 282.19Z" fill="white"/>
<path d="M432.655 275.894C432.655 275.894 430.493 260.944 418.219 265.451C418.219 265.451 406.462 268.711 415.204 286.604L417.363 285.54C417.363 285.54 420.272 290.25 422.757 288.891L431.985 279.951L432.655 275.894Z" fill="#FFB9B9"/>
<path d="M428.673 273.003L422.336 267.835L412.718 270.789C411.662 273.508 411.497 277.518 413.784 283.385L428.673 273.003Z" fill="#F47064"/>
<path d="M432.655 275.894C432.655 275.894 430.492 260.944 418.219 265.451C418.219 265.451 410.202 267.674 412.332 278.527C412.34 278.533 413.674 279.396 417.823 277.669C417.823 277.669 420.288 278.175 421.913 281.323L423.394 280.428C423.394 280.428 421.511 275.858 423.42 274.386L425.891 274.916C425.891 274.916 427.516 278.773 430.369 278.898L432.241 278.408L432.655 275.894Z" fill="#273A62"/>
<path d="M421.913 281.323L423.394 280.428C423.394 280.428 421.511 275.858 423.42 274.386L425.891 274.916C425.891 274.916 427.516 278.773 430.369 278.898L432.241 278.408L432.655 275.894C432.655 275.894 431.594 268.604 426.773 265.743C422.812 273.907 415.183 276.11 412.059 276.679C412.118 277.265 412.204 277.881 412.332 278.527C412.34 278.533 413.674 279.396 417.823 277.669C417.823 277.669 420.288 278.175 421.913 281.323Z" fill="#2A2954"/>
<path d="M426.113 275.387C426.804 277.076 426.506 278.797 425.45 279.227C424.393 279.662 422.976 278.642 422.286 276.954C421.594 275.265 421.891 273.544 422.948 273.113C424.005 272.68 425.422 273.697 426.113 275.387Z" fill="#FFB9B9"/>
<path d="M423.862 294.525L476.871 376.479L506.205 398.97L512.658 395.059L488.409 370.809L468.26 323.676L441.375 286.325L434.174 282.19L423.862 294.525Z" fill="#273A62"/>
<path d="M434.174 282.19L423.862 294.525L451.65 337.487C463.783 333.307 468.26 323.676 468.26 323.676L441.375 286.325L434.174 282.19Z" fill="#FBBE2B"/>
<path d="M433.005 296.698C432.305 293.094 430.13 291.035 427.778 289.842L423.862 294.525L426.139 298.048C430.31 297.998 433.005 296.698 433.005 296.698Z" fill="#F68B1E"/>
<path d="M386.816 264.906C386.816 264.906 407.747 273.153 409.439 277.804C409.439 277.804 423.182 283.723 430.795 283.723C430.795 283.723 439.039 284.569 436.291 294.296C436.291 294.296 434.177 300.64 421.491 293.24L404.154 283.935C404.154 283.935 387.239 271.674 383.222 266.599C383.222 266.599 380.257 263.899 381.966 256.424C381.966 256.424 381.966 248.948 383.247 249.874C383.247 249.874 382.678 246.356 384.174 246.356C384.174 246.356 385.81 249.517 386.096 250.657L386.237 253.434C386.237 253.434 387.164 255.924 387.164 257.492C387.164 257.492 387.323 262.569 386.816 264.906Z" fill="#FFB9B9"/>
<path d="M436.291 294.296C439.039 284.569 430.795 283.723 430.795 283.723C423.182 283.723 409.439 277.804 409.439 277.804C407.747 273.153 386.816 264.906 386.816 264.906L384.488 268.013C389.952 273.639 404.154 283.935 404.154 283.935L421.491 293.24C434.177 300.64 436.291 294.296 436.291 294.296Z" fill="white"/>
<path d="M385.867 269.361C392.017 275.134 404.154 283.935 404.154 283.935L421.491 293.24C434.177 300.64 436.291 294.296 436.291 294.296C439.039 284.569 430.795 283.723 430.795 283.723C423.182 283.723 409.439 277.804 409.439 277.804C408.002 273.852 392.677 267.305 388.105 265.429L385.867 269.361Z" fill="#FBBE2B"/>
<path d="M506.205 398.971L507.952 400.666L493.364 408.5L493.104 410.197L518.225 408.5L519.507 401.909L512.658 395.059L506.205 398.971Z" fill="#FFB9B9"/>
<path d="M506.891 399.635L507.952 400.666L516.569 398.97L513.379 395.78L506.891 399.635Z" fill="white"/>
<path d="M516.569 398.971L507.952 400.666L493.364 408.5L493.104 410.197L518.225 408.5L519.507 401.909L516.569 398.971Z" fill="#2A2954"/>
<path d="M518.225 408.5L518.638 406.378V406.375L493.364 408.5L493.104 410.197L518.225 408.5Z" fill="#34BBB6"/>
<path d="M295.288 451.131C295.288 455.859 265.001 459.69 227.636 459.69C190.276 459.69 159.988 455.859 159.988 451.131C159.988 446.404 190.276 442.572 227.636 442.572C265.001 442.572 295.288 446.404 295.288 451.131Z" fill="#99DDDF"/>
<path d="M191.759 407.76H256.861V411.211H191.759V407.76Z" fill="#F68B1E"/>
<path d="M255.754 407.76H250.588L252.195 411.211H256.861V410.132L255.754 407.76Z" fill="#2A2954"/>
<path d="M196.038 344.804H228.088V348.256H196.038V344.804Z" fill="#2A2954"/>
<path d="M217.227 319.512L215.596 325.823L183.092 451.131H178.235L212.474 319.148L212.684 318.339C213.013 317.083 214.293 316.332 215.548 316.648C216.193 316.824 216.711 317.245 217.015 317.787C217.073 317.904 217.132 318.035 217.18 318.162C217.32 318.583 217.344 319.043 217.227 319.512Z" fill="#FBBE2B"/>
<path d="M214.781 318.162C214.733 318.034 214.676 317.904 214.618 317.787L214.127 316.738C213.441 316.999 212.886 317.574 212.684 318.339L212.474 319.148L211.618 322.446L213.198 325.823L214.737 329.131L215.596 325.823L216.579 322.017L214.781 318.162Z" fill="#F68B1E"/>
<path d="M223.435 355.029H244.232V357.336H223.435V355.029Z" fill="#2A2954"/>
<path d="M230.268 370.063H251.066V372.37H230.268V370.063Z" fill="#2A2954"/>
<path d="M237.102 385.096H257.899V387.403H237.102V385.096Z" fill="#2A2954"/>
<path d="M243.937 400.131H264.734V402.438H243.937V400.131Z" fill="#2A2954"/>
<path d="M250.769 415.164H271.568V417.473H250.769V415.164Z" fill="#2A2954"/>
<path d="M257.604 430.198H278.402V432.506H257.604V430.198Z" fill="#2A2954"/>
<path d="M247.679 234.745C247.872 233.47 246.725 229.993 244.906 230.677C244.375 230.877 244.282 231.367 244.291 231.887C244.308 232.949 244.885 234.482 245.705 235.193C246.491 235.873 247.508 235.882 247.679 234.745Z" fill="#F47064"/>
<path d="M259.362 234.745C259.171 233.47 260.317 229.993 262.137 230.677C262.667 230.877 262.762 231.367 262.753 231.887C262.734 232.949 262.157 234.482 261.338 235.193C260.553 235.873 259.534 235.882 259.362 234.745Z" fill="#F47064"/>
<path d="M262.753 227.38C262.753 222.299 258.634 218.18 253.553 218.18C248.472 218.18 244.354 222.299 244.354 227.38C244.354 229.141 244.858 230.783 245.718 232.182H245.712C245.712 232.182 247.97 235.854 248.527 241.326H257.811C257.811 241.326 259.674 235.364 261.396 232.182H261.39C262.248 230.783 262.753 229.141 262.753 227.38Z" fill="#FFB9B9"/>
<path d="M295.288 245.931C295.288 245.931 296.047 242.379 296.421 241.338C296.421 241.338 297.759 239.134 299.979 237.887L300.911 241.213C300.911 241.213 297.899 246.239 295.288 245.931Z" fill="#FFB9B9"/>
<path d="M300.567 250.401H299.392V228.677L319.753 216.473V210.823H299.979V209.648H320.927V217.139L300.567 229.341V250.401Z" fill="#FBBE2B"/>
<path d="M299.979 250.404C299.007 250.404 298.221 249.616 298.221 248.644V234.91C298.221 233.938 299.007 233.15 299.979 233.15C300.951 233.15 301.739 233.938 301.739 234.91V248.644C301.739 249.616 300.951 250.404 299.979 250.404Z" fill="#F68B1E"/>
<path d="M224.778 265.153C224.778 265.153 227.199 271.366 235.792 272.703C235.792 272.703 234.999 260.634 224.778 265.153Z" fill="#273A62"/>
<path d="M267.225 290.234C267.225 290.234 263.508 365.856 262.138 379.246H254.517L246.5 289C246.5 289 257.838 280.457 267.225 290.234Z" fill="#273A62"/>
<path d="M247.721 302.919L248.965 317.075C256.811 310.508 261.117 301.956 261.117 301.956L247.721 302.919Z" fill="#2A2954"/>
<path d="M238.281 242.127L246.885 239.194C246.885 239.194 256.244 237.62 260.575 239.194L272.31 244.866C272.31 244.866 272.895 254.644 274.851 261.098L267.225 290.234L241.018 288.672L236.716 258.359L238.281 242.127Z" fill="#FBBE2B"/>
<path d="M242.599 254.67L236.848 256.989L236.716 258.359L239.207 275.905C244.053 266.461 242.599 254.67 242.599 254.67Z" fill="#F68B1E"/>
<path d="M267.225 290.234C267.225 290.234 269.635 307.265 233.053 313.001L239.625 349.178H231.907L215.985 306.014L240.845 293.788L241.018 288.672L267.225 290.234Z" fill="#273A62"/>
<path d="M231.907 349.178L218.71 352.935V355.029H240.073L239.625 349.178H231.907Z" fill="#2A2954"/>
<path d="M240.073 355.029L239.912 352.935H218.71V355.029H240.073Z" fill="white"/>
<path d="M254.517 379.246L241.223 383.004V385.096H262.589L262.139 379.246H254.517Z" fill="#2A2954"/>
<path d="M262.589 385.096L262.428 383.004H241.223V385.096H262.589Z" fill="white"/>
<path d="M238.28 242.127C238.28 242.127 243.227 247.13 240.073 259.461L231.543 278.426L214.719 303.279H199.634C199.634 303.279 204.635 297.393 212.57 297.993C212.57 297.993 232.147 246.553 238.28 242.127Z" fill="#FFB9B9"/>
<path d="M224.778 265.153C224.778 265.153 232.955 264.364 235.792 272.703C235.792 272.703 249.648 250.638 238.281 242.127C238.281 242.127 232.304 243.839 224.778 265.153Z" fill="#FBBE2B"/>
<path d="M281.158 249.826L287.995 250.954L295.288 245.931C295.288 245.931 297.767 240.054 301.739 237.38C301.739 237.38 305.142 239.286 303.155 246.083L298.19 249.139L290.027 258.915C290.027 258.915 279.631 259.296 279.707 259.525C279.784 259.754 281.158 249.826 281.158 249.826Z" fill="#FFB9B9"/>
<path d="M272.31 244.866L283.065 249.559C283.065 249.559 286.182 257.045 282.466 260.955L274.851 261.098C274.851 261.098 267.225 252.687 272.31 244.866Z" fill="#FBBE2B"/>
<path d="M271.522 273.821C262.283 282.905 246.386 284.962 240.556 285.415L241.018 288.672L267.225 290.234L271.522 273.821Z" fill="#F68B1E"/>
<path d="M284.131 257.491C279.945 257.456 275.899 256.043 275.899 256.043C275.465 257.636 274.851 261.098 274.851 261.098L282.466 260.955C283.404 259.97 283.903 258.755 284.131 257.491Z" fill="#F68B1E"/>
<path d="M315.672 212.412C315.672 213.738 314.596 214.814 313.271 214.814H286.689C285.363 214.814 284.289 213.738 284.289 212.412V208.059C284.289 206.732 285.363 205.657 285.805 205.395H312.386C314.596 205.657 315.672 206.732 315.672 208.059V212.412Z" fill="#D7F1EE"/>
<path d="M313.271 211.535H286.689C285.363 211.535 284.289 210.459 284.289 209.132V212.412C284.289 213.738 285.363 214.814 286.689 214.814H313.271C314.596 214.814 315.672 213.738 315.672 212.412V209.132C315.672 210.459 314.596 211.535 313.271 211.535Z" fill="#8FC9BE"/>
<path d="M261.39 232.182C262.248 230.783 262.753 229.141 262.753 227.381C262.753 222.299 258.634 218.18 253.553 218.18C248.472 218.18 244.354 222.299 244.354 227.381C244.354 229.141 244.858 230.783 245.718 232.182H245.712C245.712 232.182 245.98 232.622 246.35 233.408C247.568 234.44 249.082 236.58 249.082 236.58H257.84C258.694 235.835 260.735 233.513 260.738 233.509C260.957 233.034 261.177 232.585 261.396 232.182H261.39Z" fill="#273A62"/>
<path d="M260.745 221.652C260.402 222.791 260.298 224.221 259.936 224.948C259.308 226.2 258.358 227.423 257.21 228.207C254.94 229.761 252.199 230.238 249.505 229.957C247.979 229.798 245.806 229.017 244.383 227.778C244.453 229.387 244.924 230.891 245.718 232.182H245.712C245.712 232.182 245.98 232.622 246.35 233.408C247.568 234.44 249.082 236.58 249.082 236.58H257.84C258.694 235.835 260.735 233.513 260.738 233.509C260.957 233.034 261.177 232.585 261.396 232.182H261.39C262.248 230.783 262.753 229.141 262.753 227.381C262.753 225.212 261.999 223.224 260.745 221.652Z" fill="#2A2954"/>
<path d="M279.17 451.131H273.994L215.596 325.823L212.474 319.148L209.083 311.861H197.232C195.942 311.861 194.886 310.819 194.886 309.515C194.886 308.223 195.942 307.167 197.232 307.167H210.574C211.489 307.167 212.321 307.696 212.697 308.528L217.015 317.787C217.073 317.904 217.132 318.035 217.18 318.162L279.17 451.131Z" fill="#FBBE2B"/>
<path d="M195.549 303.279L190.679 308.149V311.863H214.258L210.258 303.279H195.549Z" fill="#273A62"/>
<path d="M214.258 311.863L212.527 308.149H190.679V311.863H214.258Z" fill="#2A2954"/>
<path d="M214.253 311.863H209.085L210.811 315.578H215.985L214.253 311.863Z" fill="#F68B1E"/>
<path d="M174.906 448.824H186.824V451.131H174.906V448.824Z" fill="#273A62"/>
<path d="M270.05 448.824H281.966V451.131H270.05V448.824Z" fill="#273A62"/>
<path d="M278.093 448.824L275.458 443.167H270.283L272.919 448.824H278.093Z" fill="#34BBB6"/>
<path d="M183.691 448.824L185.157 443.167H180.301L178.834 448.824H183.691Z" fill="#34BBB6"/>
<path d="M144.377 406.729C144.377 411.455 128.753 415.288 109.479 415.288C90.2062 415.288 74.5824 411.455 74.5824 406.729C74.5824 402.001 90.2062 398.169 109.479 398.169C128.753 398.169 144.377 402.001 144.377 406.729Z" fill="#99DDDF"/>
<path d="M161.444 297.932H150.331V290.677H161.444V297.932Z" fill="#2A2954"/>
<path d="M151.726 312.942C151.726 312.942 152.058 309.323 152.309 308.247C152.309 308.247 153.376 305.899 155.434 304.399L156.753 307.593C156.753 307.593 154.355 312.939 151.726 312.942Z" fill="#FFB9B9"/>
<path d="M155.91 313.998C155.151 314.001 154.531 313.388 154.529 312.626L154.495 301.896C154.492 301.134 155.105 300.518 155.866 300.516C156.625 300.514 157.244 301.126 157.246 301.887L157.28 312.616C157.283 313.378 156.67 313.994 155.91 313.998Z" fill="#F68B1E"/>
<path d="M157.246 301.887C157.244 301.126 156.625 300.514 155.866 300.516C155.105 300.518 154.492 301.134 154.495 301.896L154.5 303.47H157.25L157.246 301.887Z" fill="#C16C21"/>
<path d="M157.25 303.53C153.621 306.656 151.726 312.942 151.726 312.942L149.707 314.718C152.19 314.758 153.287 316.923 152.995 318.844L154.987 315.784L159.556 312.163C160.725 305.179 157.25 303.53 157.25 303.53Z" fill="#FFB9B9"/>
<path d="M150.117 313.998L151.206 312.64C151.206 312.64 153.369 312.942 155.312 316.398L153.686 317.921L150.117 313.998Z" fill="white"/>
<path d="M76.834 319.361C76.834 319.361 82.1657 336.795 93.8574 356.074L97.612 400.131L117.649 399.556V396.853L102.859 393.592L105.343 352.587L89.7504 321.926L76.834 319.361Z" fill="#2862B5"/>
<path d="M117.649 396.853L102.859 393.592H97.0532L97.6121 400.131L117.649 399.556V396.853Z" fill="#2A2954"/>
<path d="M117.649 398.169L97.4939 398.746L97.6122 400.131L117.649 399.556V398.169Z" fill="#FBBE2B"/>
<path d="M91.0784 334.445C91.0784 334.445 96.9689 347.922 104.885 360.148L105.343 352.587L100.496 343.056L91.0784 334.445Z" fill="#2A2954"/>
<path d="M131.52 290.276C131.52 290.276 127.212 290.398 123.933 292.526L120.313 288.461L125.14 283.492L131.137 285.248L131.52 290.276Z" fill="#F47064"/>
<path d="M123.901 279.942C123.901 279.942 126.106 264.686 138.629 269.284C138.629 269.284 150.627 272.612 141.707 290.869L139.504 289.781C139.504 289.781 136.534 294.587 134 293.201L124.584 284.081L123.901 279.942Z" fill="#FFB9B9"/>
<path d="M127.962 276.992L134.429 271.718L144.242 274.733C145.319 277.506 145.491 281.598 143.154 287.584L127.962 276.992Z" fill="#F47064"/>
<path d="M123.901 279.942C123.901 279.942 126.106 264.686 138.629 269.284C138.629 269.284 146.811 271.555 144.637 282.627C144.627 282.633 143.266 283.513 139.034 281.752C139.034 281.752 136.519 282.268 134.86 285.48L133.351 284.568C133.351 284.568 135.271 279.905 133.323 278.403L130.802 278.943C130.802 278.943 129.143 282.878 126.233 283.006L124.323 282.505L123.901 279.942Z" fill="#273A62"/>
<path d="M133.707 278.82C134.972 280.618 133.351 284.568 133.351 284.568L134.86 285.48C136.519 282.268 139.034 281.752 139.034 281.752C143.266 283.513 144.627 282.633 144.637 282.627C145.12 280.168 145.074 278.161 144.737 276.5C143.283 277.097 141.886 277.775 140.394 278.226C138.58 278.774 136.074 279.039 133.707 278.82Z" fill="#2A2954"/>
<path d="M130.802 278.943L132.293 278.623C130.906 278.36 129.624 277.912 128.663 277.187C127.488 276.301 126.709 274.779 126.413 273.144C124.428 276.325 123.901 279.942 123.901 279.942L124.323 282.505L126.233 283.006C129.143 282.877 130.802 278.943 130.802 278.943Z" fill="#2A2954"/>
<path d="M130.575 279.425C129.87 281.147 130.172 282.901 131.252 283.342C132.331 283.784 133.777 282.744 134.481 281.022C135.186 279.299 134.882 277.543 133.804 277.102C132.725 276.661 131.28 277.701 130.575 279.425Z" fill="#FFB9B9"/>
<path d="M118.482 287.063L122.114 285.093L129.328 292.527L127.607 293.862L118.482 287.063Z" fill="white"/>
<path d="M84.5775 321.623C84.5775 321.623 89.2409 335.848 109.999 360.104L111.377 410.197H133.642V407.76L117.649 403.641L124.227 356.606L106.967 322.935L84.5775 321.623Z" fill="#2862B5"/>
<path d="M76.834 319.361C76.834 319.361 84.5773 295.302 118.482 287.063C118.482 287.063 127.004 289.918 131.52 296.34C131.52 296.34 126.393 304.937 111.377 316.577L108.365 325.66C108.365 325.66 82.9914 331.833 76.834 319.361Z" fill="#4E3096"/>
<path d="M108.365 325.66L111.377 316.577C117.569 311.775 122.058 307.508 125.221 304.133L123.485 302.24L109.109 313.719C109.109 313.719 105.991 312.616 104.176 310.007C104.176 310.007 104.71 313.581 108.083 316.577L105.343 323.53C105.343 323.53 85.4798 327.072 76.834 319.361C82.9914 331.833 108.365 325.66 108.365 325.66Z" fill="#452B8D"/>
<path d="M131.521 296.34C131.521 296.34 141.132 310.418 145.394 317.794L150.228 313.202C150.228 313.202 153.097 313.862 154.408 317.794L145.885 326.072C145.885 326.072 142.693 329.123 134.452 319.361L123.431 305.995C123.431 305.995 121.829 294.883 131.521 296.34Z" fill="#4E3096"/>
<path d="M133.641 407.76L117.649 403.641H111.197L111.377 410.197H133.641V407.76Z" fill="#2A2954"/>
<path d="M111.377 410.197H133.641V407.76H111.309L111.377 410.197Z" fill="#FBBE2B"/>
<path d="M161.648 302.24H150.128V296.704H161.648V302.24Z" fill="#F68B1E"/>
<path d="M161.648 299.059L150.128 299.842V298.272H161.648V299.059Z" fill="#C16C21"/>
<path d="M150.331 292.93C150.497 292.992 150.676 293.041 150.862 293.073C151.241 293.132 151.674 293.196 151.945 293.521C152.207 293.837 152.163 294.255 152.364 294.598C153.056 295.779 153.488 294.34 153.801 293.815C154.145 293.24 155.219 292.873 155.862 293.233C156.521 293.604 155.941 294.732 156.555 295.167C157.414 295.779 157.654 293.959 157.747 293.468C157.866 292.852 158.244 291.881 159.098 292.08C159.903 292.267 159.717 293.478 159.929 294.075C160.033 294.368 160.233 294.869 160.601 294.572C160.84 294.379 160.748 293.702 160.784 293.419C160.836 293.041 160.888 292.706 161.17 292.414L161.444 292.217V290.677H150.331V292.93Z" fill="#D7F1EE"/>
<path d="M365.902 467.967C365.902 472.694 350.278 476.526 331.003 476.526C311.731 476.526 296.106 472.694 296.106 467.967C296.106 463.239 311.731 459.406 331.003 459.406C350.278 459.406 365.902 463.239 365.902 467.967Z" fill="#99DDDF"/>
<path d="M340.334 382.457C340.334 382.457 343.802 393.524 336.417 424.161L337.407 459.494H333.117C333.117 459.494 325.121 442.003 326.056 425.728C326.056 425.728 319.97 400.308 322.869 384.97C322.869 384.97 330.804 377.515 340.334 382.457Z" fill="#2862B5"/>
<path d="M322.087 394.293C322.249 401.281 324.137 407.331 327.029 411.636C328.513 404.77 327.408 395.606 328.402 382.534L327.967 381.885C324.828 383.13 322.869 384.97 322.869 384.97C322.772 385.476 322.694 385.976 322.616 386.478C322.26 388.916 322.101 391.563 322.087 394.293Z" fill="#2A2954"/>
<path d="M310.248 373.91C310.248 373.91 302.231 390.365 312.4 421.265C312.4 421.265 307.902 428.111 312.4 461.941H316.311L321.787 421.852C321.787 421.852 327.29 397.826 328.547 381.288L310.248 373.91Z" fill="#2862B5"/>
<path d="M356.473 340.176C356.473 340.176 360.333 343.667 352.414 365.816L351.093 389.439L352.414 394.004L351.093 399.24C351.093 399.24 349.144 397.398 350.274 394.566C350.274 394.566 346.24 396.823 345.032 394.137L346.777 388.635L344.424 367.158L348.925 344.875C348.925 344.875 350.06 340.171 356.473 340.176Z" fill="#F47064"/>
<path d="M351.402 413.765L349.131 413.173C351.297 404.85 350.771 398.725 347.568 394.969C343.532 390.243 336.493 390.871 336.419 390.876C322.158 391.375 321.112 411.304 321.102 411.504L318.758 411.401C318.768 411.18 319.932 389.105 336.265 388.536C336.531 388.503 344.532 387.801 349.353 393.445C353.084 397.819 353.773 404.653 351.402 413.765Z" fill="#FBBE2B"/>
<path d="M336.417 388.901L334.315 389.529L331.446 388.901C331.446 388.901 331.855 390.193 331.444 391.742L331.459 391.748C331.439 391.951 331.449 392.161 331.507 392.376C331.797 393.473 332.761 393.493 333.719 393.49C334.797 393.489 335.616 393.548 336.633 393.858C337.501 394.118 338.441 394.097 339.194 393.461C339.481 393.22 339.869 392.724 339.942 392.56L341.39 390.512L336.417 388.901Z" fill="#F47064"/>
<path d="M327.716 332.957C327.716 332.957 339.555 319.077 356.473 340.176C356.473 340.176 355.626 345.812 350.463 354.134C350.463 354.134 347.613 360.172 342.094 360.443C342.094 360.443 338.591 375.342 340.334 382.457C340.334 382.457 321.646 393.553 307.902 373.91C307.902 373.91 315.234 362.796 317.918 353.635C317.918 353.635 320.201 340.775 327.716 332.957Z" fill="#FFB9B9"/>
<path d="M349.836 394.972C349.454 394.754 349.091 395.101 348.781 395.232C349.15 394.301 348.586 392.544 347.335 392.867L347.196 392.914C347.48 392.313 346.969 391.591 346.268 391.797C345.712 391.962 345.383 392.512 345.092 392.959C344.754 393.476 344.347 394.057 344.533 394.682C344.715 395.285 345.26 395.765 345.887 395.712C345.915 396.257 345.923 396.666 346.37 397.041C346.695 397.313 347.096 397.46 347.421 397.105C347.075 397.753 347.08 398.749 347.65 399.247C348.352 399.863 348.766 399.271 349.185 398.716C349.569 398.203 349.962 397.689 350.137 397.052C350.282 396.525 350.454 395.319 349.836 394.972Z" fill="#F47064"/>
<path d="M352.412 393.998L351.098 399.242C351.098 399.242 349.139 397.401 350.276 394.561C350.276 394.561 350.431 392.04 349.984 392.217C350.173 391.526 350.1 393.541 350.687 393.177C351.039 392.965 351.567 392.613 351.99 392.556H352.002L352.412 393.998Z" fill="#F47064"/>
<path d="M350.463 354.134C351.669 352.191 352.632 350.401 353.411 348.789C353.432 348.628 353.443 348.468 353.467 348.307C353.782 346.202 353.764 343.945 353.783 341.804C353.796 340.329 353.982 338.882 354.105 337.427C353.645 336.928 353.189 336.449 352.739 335.999C352.744 336.373 352.75 336.746 352.75 337.12C352.75 340.409 353.092 344.144 351.793 347.212C350.864 349.407 349.529 352.057 346.868 352.219C345.569 352.297 344.075 352.294 343.116 351.35C341.997 350.245 341.564 348.659 341.799 347.132C342.255 344.172 342.733 341.234 342.877 338.213C343.003 335.582 343.535 331.347 341.621 329.349C341.429 329.15 341.225 328.982 341.02 328.816C339.404 328.466 337.913 328.413 336.555 328.553L336.774 328.612C339.246 329.262 340.942 331.554 340.187 334.093C339.404 336.724 337.852 339.37 336.216 341.631C334.353 344.202 331.93 346.899 328.509 346.035C325.405 345.253 324.687 342.129 324.299 339.402C324.207 338.757 324.188 338.127 324.198 337.496C319.466 344.935 317.918 353.635 317.918 353.635C315.234 362.796 307.902 373.91 307.902 373.91C321.646 393.553 340.334 382.457 340.334 382.457C338.591 375.342 342.094 360.443 342.094 360.443C347.613 360.172 350.463 354.134 350.463 354.134Z" fill="#4E3096"/>
<path d="M340.334 382.457C338.595 375.357 342.078 360.509 342.094 360.445C340.97 359.596 339.617 359.034 338.469 358.154C337.695 357.56 336.925 357.141 336.215 356.396C335.603 355.755 335.098 355.083 334.322 354.674C333.979 356.013 334.363 357.516 334.178 358.921C334.006 360.23 333.047 361.219 332.258 362.231C330.58 364.387 330.3 366.789 329.397 369.388C328.184 372.876 324.731 378.459 320.424 378.273C316.459 378.101 312.133 374.591 309.423 371.484C308.509 372.987 307.902 373.91 307.902 373.91C321.646 393.553 340.334 382.457 340.334 382.457Z" fill="#452B8D"/>
<path d="M361.296 333.514C359.539 334.869 361.11 339.536 361.598 341.154C362.308 343.505 363.514 346.62 362.859 349.234C362.04 352.506 358.16 352.489 355.802 350.918C353.389 349.314 352.785 346.897 352.658 344.225C352.577 342.558 352.746 340.878 352.658 339.215C352.565 337.48 351.604 336.371 351.404 334.76C350.926 330.875 358.362 329.964 360.604 332.13" fill="#2A2954"/>
<path d="M330.133 335.611C330.133 335.611 334.437 326.587 340.342 332.438C340.342 332.438 343.361 336.513 336.977 346.081C336.977 346.081 328.655 357.886 327.581 362.722C327.581 362.722 333.354 378.299 335.904 382.726C335.904 382.726 340.166 387.559 341.39 390.512C341.39 390.512 328.371 394.67 331.997 385.124L318.319 362.818C318.319 362.818 321.273 351.715 330.133 335.611Z" fill="#FFB9B9"/>
<path d="M315.429 412.243C315.429 412.243 315.485 422.982 328.547 432.396L332.353 421.701L326.58 414.377L315.429 412.243Z" fill="#F68B1E"/>
<path d="M352.776 416.505L337.827 426.314L337.675 426.407L333.908 428.873L331.984 430.139L328.546 432.39C324.639 418.499 315.427 412.246 315.427 412.246L339.657 396.358C339.657 396.358 348.881 402.609 352.776 416.505Z" fill="#FBBE2B"/>
<path d="M312.4 461.941C312.4 461.941 311.97 465.522 310.776 466.97C310.776 466.97 308.133 470.43 313.293 470.43H318.894C318.894 470.43 322.42 468.678 318.455 466.186C318.455 466.186 316.246 464.658 316.311 461.941H312.4Z" fill="#FFB9B9"/>
<path d="M337.407 459.494L337.817 462.916C337.817 462.916 351.064 465.627 351.658 467.492H334.105L334.596 463.492L333.117 459.494H337.407Z" fill="#FFB9B9"/>
<path d="M311.03 449.545C311.344 453.214 311.785 457.317 312.4 461.941H316.312L318.004 449.545H311.03Z" fill="#FFB9B9"/>
<path d="M333.117 459.494H337.407L337.128 449.545H329.485C331.291 455.493 333.117 459.494 333.117 459.494Z" fill="#FFB9B9"/>
<path d="M318.743 466.387C318.63 466.601 318.476 466.792 318.238 466.949C316.899 467.816 314.728 467.387 313.317 466.998C312.474 466.763 311.852 466.198 311.559 465.504C311.345 466.069 311.087 466.591 310.776 466.97C310.776 466.97 308.133 470.43 313.293 470.43H318.894C318.894 470.43 322.208 468.77 318.743 466.387Z" fill="#34BBB6"/>
<path d="M343.764 464.306C343.725 464.621 343.759 464.882 343.438 465.13C343.097 465.395 342.664 465.362 342.236 465.342C341.306 465.304 340.431 465.141 339.486 465.141C337.777 465.141 336.086 465.144 334.395 465.141L334.105 467.492H351.658C351.34 466.49 347.37 465.245 343.764 464.306Z" fill="#34BBB6"/>
<path d="M374.824 431.535L363.828 428.484L338.659 429.787L331.984 430.139L333.907 428.872L337.675 426.407L337.827 426.314L342.838 425.903L361.94 424.331L364.405 420.13L374.824 431.535Z" fill="#FBBE2B"/>
<path d="M342.838 425.903L338.659 429.786L331.984 430.139L333.907 428.872L337.675 426.407L337.827 426.314L342.838 425.903Z" fill="#F68B1E"/>
<path d="M350.463 324.585L355.135 332.737L357.763 338.06C357.763 338.06 354.711 333.583 348.253 338.702L342.035 329.073C342.035 329.073 347.983 331.077 350.463 324.585Z" fill="#FFB9B9"/>
<path d="M350.463 324.585C350.463 324.585 354.795 309.79 366.546 316.105C366.546 316.105 375.581 319.159 367.807 333.278C367.22 334.347 367.355 336.725 366.555 337.906L364.526 336.522C364.526 336.522 360.911 340.861 358.595 339.132L350.559 328.779L350.463 324.585Z" fill="#FFB9B9"/>
<path d="M370.953 323.583C368.993 325.402 365.109 327.832 359.418 326.072C359.418 326.072 357.411 328.957 353.832 330.471C353.35 330.683 352.823 330.859 352.284 330.999C349.538 331.74 346.076 331.551 342.04 329.073C342.04 329.073 347.977 331.081 350.464 324.58C350.464 324.58 354.795 309.795 366.552 316.11C366.552 316.11 371.092 317.647 370.953 323.583Z" fill="#273A62"/>
<path d="M369.047 317.889C369.019 318.543 368.949 319.188 368.802 319.783C367.925 323.318 365.014 324.504 361.722 324.5C358.781 324.495 355.372 324.502 354.051 321.355C353.701 320.519 353.523 319.631 353.481 318.738C351.374 321.49 350.464 324.58 350.464 324.58C347.977 331.081 342.04 329.073 342.04 329.073C346.076 331.551 349.538 331.74 352.284 330.999C352.823 330.859 353.35 330.683 353.832 330.471C357.411 328.957 359.418 326.072 359.418 326.072C365.109 327.832 368.993 325.402 370.953 323.583C371.017 320.831 370.075 319.034 369.047 317.889Z" fill="#2A2954"/>
<path d="M357.145 325.01C356.205 326.616 356.256 328.397 357.265 328.984C358.269 329.574 359.847 328.748 360.786 327.141C361.728 325.535 361.675 323.755 360.668 323.165C359.662 322.576 358.084 323.401 357.145 325.01Z" fill="#FFB9B9"/>
<path d="M408.808 418.596C412.607 405.766 399.779 397.46 394.785 387.86C394.871 392.783 393.565 397.327 394.884 402.217C396.257 407.313 398.318 410.826 397.78 416.217C397.308 420.94 396.256 426.803 398.019 431.479C399.216 434.656 401.492 437.975 403.573 440.958C404.628 438.304 406.559 435.934 407.085 432.672C407.443 430.45 406.633 427.572 406.779 425.185C406.94 422.51 408.078 421.06 408.808 418.596Z" fill="#238E5A"/>
<path d="M444.985 432.53C442.568 430.718 439.628 430.797 436.694 430.646C432.995 430.457 430.867 431.707 428.394 434.373C427.528 435.305 426.835 436.696 425.765 437.429C424.559 438.253 422.692 438.281 421.473 439.356C419.588 441.015 419.371 443.635 418.848 445.915C420.947 445.682 423.66 445.868 424.638 445.714C427.804 445.216 429.529 442.897 431.372 440.408C432.502 438.879 432.886 438.213 434.81 437.995C436.283 437.826 437.937 437.965 439.333 438.173C442.767 438.68 444.875 438.457 448.148 437.614C449.196 437.343 450.683 437.731 451.793 438.485C450.628 436.023 446.962 434.013 444.985 432.53Z" fill="#40BB6A"/>
<path d="M434.25 414.817C432.688 416.873 431.556 418.82 430.613 421.219C429.77 423.361 428.621 425.837 426.666 427.251C425.122 428.374 422.929 428.53 421.243 429.337C416.739 431.492 414.924 437.653 416.224 442.542C418.608 440.956 420.329 438.107 422.71 436.44C425.577 434.43 427.167 431.118 429.902 429.085C432.891 426.865 435.964 426.309 437.971 422.732C439.488 420.027 440.058 416.776 439.898 413.687C439.875 413.245 439.692 412.246 439.591 411.263C439.386 411.371 439.171 411.472 438.961 411.61C437.133 412.805 435.652 412.973 434.25 414.817Z" fill="#238E5A"/>
<path d="M390.677 426.753C389.211 422.962 386.988 420.018 383.714 417.708C380.02 415.103 376.311 415.074 371.87 415.074C372.439 417.9 372.785 420.873 374.508 422.8C377.06 425.653 380.568 425.693 382.602 429.666C384.666 433.7 384.978 438.024 389.106 440.894C392.657 443.362 397.23 443.16 400.731 445.878C399.728 442.254 399.654 438.387 396.95 435.121C394.354 431.989 392.251 430.82 390.677 426.753Z" fill="#40BB6A"/>
<path d="M392.287 437.122C394.157 438.981 396.289 440.503 398.122 442.114C400.019 443.663 401.42 445.531 402.407 447.246L402.373 447.19C403.001 448.396 403.424 449.457 403.785 450.389C404.16 451.326 404.451 452.14 404.69 452.806C405.168 454.142 405.408 454.889 405.314 454.938C405.228 454.987 404.807 454.304 404.169 453.031C403.855 452.384 403.479 451.611 403.045 450.714C402.617 449.804 402.117 448.782 401.549 447.779L401.536 447.756L401.515 447.721C400.51 446.186 399.199 444.519 397.319 443.048C395.508 441.522 393.349 440.024 391.35 438.043C390.831 437.429 390.247 436.884 389.805 436.229C389.396 435.551 388.936 434.914 388.596 434.224C387.922 432.822 387.627 431.38 387.309 430.1C386.992 428.816 386.654 427.648 386.063 426.693C385.475 425.716 384.843 424.837 384.146 424.155C382.78 422.748 381.378 421.9 380.428 421.299C379.471 420.7 378.934 420.364 378.978 420.276C379.014 420.202 379.622 420.38 380.669 420.849C381.707 421.321 383.233 422.065 384.791 423.491C385.587 424.185 386.312 425.089 386.993 426.129C387.705 427.187 388.123 428.494 388.478 429.796C388.838 431.104 389.143 432.44 389.756 433.664C390.067 434.278 390.493 434.848 390.86 435.458C391.26 436.049 391.812 436.555 392.287 437.122Z" fill="#F68B1E"/>
<path d="M404.355 426.039C402.294 434.261 403.944 441.883 404.893 447.3C405.947 452.739 406.494 456.149 406.309 456.183C406.219 456.198 405.96 455.375 405.569 453.875C405.19 452.371 404.601 450.204 403.983 447.489C403.341 444.787 402.681 441.522 402.292 437.829C402.227 436.901 402.159 435.952 402.09 434.978C402.11 434.001 402.13 433.002 402.151 431.984C402.124 430.967 402.397 429.944 402.511 428.895C402.647 427.835 402.861 426.828 403.064 425.8C403.44 423.741 403.701 421.726 403.771 419.777C403.853 417.826 403.634 415.961 403.307 414.208C402.54 410.715 401.123 407.734 399.991 405.21C398.835 402.686 398.005 400.568 397.566 399.064C397.164 397.548 397.035 396.691 397.115 396.673C397.211 396.651 397.508 397.46 398.051 398.899C398.628 400.329 399.567 402.34 400.83 404.809C402.064 407.283 403.611 410.278 404.487 413.952C404.871 415.79 405.124 417.767 405.056 419.809C405.001 421.849 404.739 423.94 404.355 426.039Z" fill="#F68B1E"/>
<path d="M406.779 425.185C406.816 424.576 406.908 424.036 407.031 423.527C406.796 423.274 406.565 423.024 406.302 422.762C404.896 421.356 404.735 420.197 404.048 418.54C402.248 421.896 400.53 426.25 401.733 429.842C402.407 431.852 403.889 433.462 404.909 435.28C405.212 435.823 405.429 436.357 405.602 436.89C406.252 435.603 406.832 434.241 407.085 432.673C407.443 430.45 406.633 427.573 406.779 425.185Z" fill="#2A2954"/>
<path d="M418.462 437.889C417.119 440.582 416.77 443.605 415.919 446.248C415.539 447.589 414.973 448.81 414.449 449.935C413.883 451.011 413.336 451.995 412.892 452.906C411 456.525 411.307 459.183 411.028 459.163C410.956 459.167 410.819 458.527 410.849 457.35C410.856 456.171 411.205 454.446 412.047 452.522C412.452 451.552 412.957 450.537 413.476 449.447C413.931 448.357 414.423 447.206 414.757 445.909C415.522 443.363 415.817 440.295 417.283 437.31C417.714 436.611 418.022 435.843 418.549 435.231C419.067 434.628 419.518 433.946 420.077 433.44C421.158 432.376 422.265 431.441 423.336 430.576C425.501 428.888 427.464 427.452 429.024 426.137C432.143 423.517 433.564 421.382 433.763 421.521C433.838 421.57 433.527 422.129 432.891 423.11C432.25 424.086 431.154 425.392 429.643 426.828C428.126 428.262 426.187 429.803 424.099 431.513C422.042 433.262 419.765 435.188 418.462 437.889Z" fill="#F68B1E"/>
<path d="M424.246 443.646C422.849 444.23 421.557 444.718 420.536 445.608C419.445 446.408 418.555 447.394 417.716 448.337C416.111 450.292 414.983 452.364 414.063 454.031C412.494 457.538 412.545 460.071 412.268 460.032C412.178 460.029 412.148 459.418 412.178 458.298C412.224 457.185 412.492 455.559 413.214 453.657C414.08 451.831 415.124 449.701 416.773 447.577C417.638 446.553 418.567 445.483 419.757 444.586C420.879 443.589 422.385 442.998 423.747 442.434C425.133 441.872 426.418 441.313 427.357 440.431C428.342 439.555 429.09 438.435 429.89 437.397C431.377 435.257 433.554 433.492 435.682 433.287C437.76 432.938 439.377 433.396 440.449 433.624C441.525 433.897 442.099 434.107 442.084 434.193C442.069 434.285 441.45 434.244 440.359 434.127C439.281 434.05 437.678 433.768 435.865 434.198C433.998 434.518 432.294 435.995 430.863 438.112C430.104 439.148 429.35 440.344 428.228 441.378C427.094 442.459 425.628 443.084 424.246 443.646Z" fill="#F68B1E"/>
<path d="M415.631 410.297C417.063 406.472 418.003 402.756 416.586 398.75C415.986 397.059 415.102 395.486 414.553 393.787C414.134 394.388 413.582 394.965 413.331 395.543C412.76 396.85 412.716 398.36 412.392 399.738C411.813 402.196 411.119 404.7 409.889 406.894C407.503 411.158 403.528 414.225 402.627 419.341C401.752 424.306 403.6 429.694 406.409 433.617C407.472 435.104 408.65 436.602 408.995 438.413C409.162 439.288 409.153 440.158 409.249 440.984C410.253 438.883 411.974 436.978 413.287 435.167C416.248 431.08 416.558 427.385 415.443 422.737C414.468 418.671 414.135 414.296 415.631 410.297Z" fill="#40BB6A"/>
<path d="M409.923 428.55C410.659 432.535 410.28 436.444 409.926 439.844C409.538 443.272 409.11 446.316 409.051 448.882C408.836 454.027 409.932 457.1 409.663 457.176C409.576 457.206 409.303 456.451 408.877 455.038C408.618 454.339 408.491 453.45 408.363 452.411C408.301 451.892 408.203 451.336 408.163 450.743C408.149 450.152 408.139 449.527 408.124 448.87C408.064 446.238 408.404 443.129 408.721 439.725C409.007 436.314 409.336 432.597 408.626 428.746C407.988 424.922 407.268 420.939 408.334 417.42C408.638 416.577 409.006 415.755 409.367 415.002C409.776 414.297 410.174 413.612 410.558 412.952C411.321 411.636 412.023 410.415 412.549 409.255C413.648 406.95 414.087 404.933 414.224 403.513C414.292 402.097 414.277 401.285 414.384 401.27C414.456 401.257 414.647 402.05 414.734 403.532C414.757 405.011 414.431 407.188 413.397 409.629C412.906 410.86 412.234 412.137 411.508 413.484C411.144 414.154 410.767 414.843 410.38 415.557C410.062 416.273 409.761 416.997 409.494 417.762C408.596 420.938 409.263 424.626 409.923 428.55Z" fill="#F68B1E"/>
<path d="M444.326 468.67H374.674C376.997 464.639 379.573 460.953 383.875 458.75C386.633 457.34 389.465 456.907 392.312 456.156C395.459 455.333 397.543 453.639 400.419 452.397C407.298 449.444 412.588 454.583 419.152 454.989C422.135 455.169 424.861 453.311 427.978 453.579C431.349 453.866 434.496 455.963 436.788 458.376C440.266 462.017 441.644 465.568 444.326 468.67Z" fill="#1CB3A9"/>
</svg>
