<svg width="106" height="85" viewBox="0 0 106 85" fill="none" xmlns="http://www.w3.org/2000/svg">
<path d="M60.5 43.5L60.4915 43.9999L60.5 43.5ZM3.00004 85L0.206795 79.9472L5.9793 80.0546L3.00004 85ZM100.369 0.662137C100.594 0.90837 100.814 1.16234 101.027 1.42362L100.252 2.05585C100.051 1.80919 99.844 1.56974 99.6314 1.33786L100.369 0.662137ZM102.215 3.05435C102.576 3.61145 102.913 4.19275 103.222 4.79522L102.333 5.25238C102.038 4.67918 101.719 4.12706 101.376 3.59883L102.215 3.05435ZM104.053 6.62252C104.299 7.23833 104.519 7.8711 104.711 8.51816L103.753 8.80305C103.569 8.18472 103.359 7.58059 103.125 6.9932L104.053 6.62252ZM105.197 10.4642C105.33 11.1141 105.435 11.775 105.513 12.4446L104.519 12.5594C104.445 11.9183 104.344 11.2857 104.217 10.6639L105.197 10.4642ZM105.658 14.4444C105.678 15.1069 105.67 15.7755 105.634 16.4479L104.635 16.3938C104.67 15.7497 104.678 15.1092 104.658 14.4745L105.658 14.4444ZM105.442 18.4411C105.351 19.0968 105.232 19.7542 105.083 20.4112L104.108 20.191C104.25 19.5615 104.364 18.9317 104.451 18.3034L105.442 18.4411ZM104.561 22.3444C104.362 22.9748 104.135 23.6029 103.879 24.2271L102.954 23.8478C103.199 23.2494 103.417 22.6474 103.607 22.0434L104.561 22.3444ZM103.044 26.0466C102.744 26.6338 102.418 27.2159 102.063 27.7912L101.212 27.2664C101.552 26.7141 101.866 26.1556 102.153 25.5923L103.044 26.0466ZM100.946 29.4514C100.558 29.982 100.144 30.5052 99.7041 31.0197L98.9443 30.3695C99.3681 29.8743 99.7661 29.3711 100.139 28.8611L100.946 29.4514ZM98.348 32.4907C97.8869 32.9558 97.402 33.412 96.8929 33.8585L96.2336 33.1066C96.7254 32.6753 97.1933 32.235 97.6379 31.7866L98.348 32.4907ZM95.3551 35.119C94.8384 35.5151 94.3004 35.9018 93.7405 36.2783L93.1824 35.4486C93.7253 35.0834 94.2466 34.7087 94.7467 34.3254L95.3551 35.119ZM92.0575 37.3398C91.4951 37.6723 90.9134 37.9951 90.3121 38.3077L89.8509 37.4204C90.4364 37.1161 91.0022 36.802 91.5486 36.479L92.0575 37.3398ZM88.5266 39.1784C87.9386 39.4471 87.3337 39.7067 86.7115 39.9565L86.3389 39.0285C86.9468 38.7844 87.5374 38.531 88.1109 38.2689L88.5266 39.1784ZM84.8506 40.656C84.2364 40.8718 83.6068 41.0786 82.9617 41.276L82.6691 40.3198C83.3014 40.1263 83.918 39.9237 84.5192 39.7125L84.8506 40.656ZM81.0704 41.8156C80.4393 41.983 79.7945 42.1418 79.1356 42.2917L78.9138 41.3166C79.5613 41.1693 80.1946 41.0133 80.814 40.849L81.0704 41.8156ZM77.2106 42.6963C76.5737 42.8195 75.9246 42.9346 75.2631 43.0415L75.1036 42.0543C75.7551 41.949 76.3941 41.8357 77.0208 41.7145L77.2106 42.6963ZM73.3041 43.329C72.6641 43.4136 72.0132 43.4908 71.3513 43.5603L71.2468 42.5658C71.9 42.4972 72.542 42.421 73.173 42.3376L73.3041 43.329ZM69.3742 43.7424C68.7321 43.7935 68.0801 43.8375 67.4182 43.8745L67.3625 42.8761C68.0167 42.8395 68.6608 42.796 69.295 42.7456L69.3742 43.7424ZM65.4363 43.9627C64.7917 43.9842 64.138 43.9992 63.4753 44.0074L63.4628 43.0075C64.1187 42.9993 64.7654 42.9845 65.403 42.9632L65.4363 43.9627ZM61.4993 44.0123C61.1656 44.0098 60.8296 44.0057 60.4915 43.9999L60.5085 43.0001C60.8435 43.0058 61.1762 43.0099 61.5067 43.0123L61.4993 44.0123ZM60.4915 43.9999C60.1546 43.9942 59.8196 43.99 59.4865 43.9873L59.4946 42.9873C59.8307 42.99 60.1687 42.9943 60.5085 43.0001L60.4915 43.9999ZM57.5104 43.9892C56.8483 43.996 56.1938 44.0089 55.547 44.0279L55.5177 43.0283C56.171 43.0092 56.8318 42.9961 57.5002 42.9893L57.5104 43.9892ZM53.5681 44.1057C52.9075 44.1383 52.2553 44.1774 51.6112 44.2228L51.5409 43.2253C52.192 43.1794 52.8513 43.1399 53.5187 43.1069L53.5681 44.1057ZM49.6374 44.3835C48.9781 44.4446 48.3278 44.5125 47.6863 44.5868L47.5711 43.5935C48.2204 43.5182 48.8783 43.4496 49.5451 43.3878L49.6374 44.3835ZM45.727 44.8379C45.0694 44.9303 44.4216 45.0298 43.7833 45.1361L43.619 44.1497C44.2657 44.042 44.9219 43.9412 45.5878 43.8476L45.727 44.8379ZM41.8489 45.4846C41.1944 45.6115 40.5505 45.7459 39.9169 45.8873L39.699 44.9114C40.3418 44.7679 40.9949 44.6316 41.6584 44.5029L41.8489 45.4846ZM38.0192 46.3399C37.3701 46.5047 36.7325 46.6773 36.1063 46.8571L35.8302 45.896C36.4665 45.7132 37.114 45.538 37.773 45.3706L38.0192 46.3399ZM34.2318 47.428C33.6005 47.6315 32.9814 47.8426 32.3742 48.0611L32.0356 47.1202C32.6534 46.8979 33.2831 46.6831 33.925 46.4762L34.2318 47.428ZM30.5317 48.7609C29.9177 49.0066 29.3168 49.2601 28.7286 49.521L28.3232 48.6068C28.9226 48.341 29.5349 48.0828 30.1601 47.8325L30.5317 48.7609ZM26.9521 50.3494C26.3547 50.6421 25.7715 50.9426 25.2021 51.2503L24.7267 50.3705C25.3078 50.0565 25.9029 49.7499 26.5121 49.4514L26.9521 50.3494ZM23.4979 52.217C22.9307 52.5544 22.3784 52.8992 21.8407 53.2509L21.2934 52.414C21.843 52.0545 22.4073 51.7022 22.9866 51.3576L23.4979 52.217ZM20.2226 54.3604C19.6842 54.7473 19.1618 55.1412 18.6548 55.5414L18.0352 54.7565C18.5539 54.347 19.0884 53.944 19.639 53.5483L20.2226 54.3604ZM17.1457 56.7902C16.6468 57.223 16.1645 57.6619 15.6983 58.1063L15.0083 57.3825C15.4858 56.9273 15.9797 56.4778 16.4905 56.0348L17.1457 56.7902ZM14.3158 59.4884C13.8606 59.9658 13.4227 60.4482 13.0015 60.9349L12.2454 60.2805C12.677 59.7818 13.1257 59.2874 13.592 58.7983L14.3158 59.4884ZM11.7565 62.4465C11.3488 62.9669 10.959 63.4909 10.5866 64.0176L9.7701 63.4402C10.1519 62.9003 10.5514 62.3632 10.9693 61.8297L11.7565 62.4465ZM9.49571 65.6435C9.14104 66.2013 8.80486 66.7608 8.48647 67.3207L7.61719 66.8264C7.9436 66.2524 8.28825 65.6788 8.65183 65.107L9.49571 65.6435ZM7.56126 69.0453C7.26287 69.636 6.98353 70.2257 6.7224 70.813L5.80865 70.4068C6.07638 69.8046 6.36277 69.2 6.66867 68.5944L7.56126 69.0453ZM5.97223 72.6195C5.7332 73.2379 5.51388 73.852 5.31327 74.4598L4.36366 74.1463C4.56944 73.5229 4.79436 72.8932 5.03947 72.259L5.97223 72.6195ZM4.74732 76.3325C4.57034 76.9771 4.41428 77.6121 4.27782 78.2353L3.30097 78.0214C3.44113 77.3813 3.60138 76.7293 3.78301 76.0677L4.74732 76.3325ZM3.91124 80.1575C3.80372 80.8203 3.71883 81.4654 3.65481 82.0895L2.66003 81.9875C2.72607 81.3437 2.81352 80.6793 2.92414 79.9974L3.91124 80.1575Z" fill="black"/>
</svg>
