<svg width="252" height="240" viewBox="0 0 252 240" fill="none" xmlns="http://www.w3.org/2000/svg">
<path d="M91.4258 51.1958C86.0974 56.871 79.1827 60.5549 72.2354 63.9987C84.9406 66.5755 97.8445 68.5539 110.805 69.0978C123.317 59.7831 136.6 51.5167 150.607 44.6176C156.599 41.6657 162.714 38.9527 168.928 36.4878C165.472 35.0851 161.847 33.9898 158.331 32.8093C153.954 31.3388 149.564 29.9048 145.148 28.5547C136.676 25.9672 128.142 23.5835 119.564 21.3776C118.035 21.9336 116.536 22.5934 115.065 23.3703C109.669 26.2172 104.952 30.3808 101.543 35.4494C98.0308 40.6726 95.7899 46.5467 91.4258 51.1958V51.1958ZM65.4333 67.38C60.9196 69.6864 56.4467 72.1781 52.5585 75.4564C48.0308 79.2723 44.829 84.0148 42.8668 89.6036C40.6989 95.7861 39.7441 102.308 37.7401 108.538C37.1888 110.254 36.5529 111.94 35.8595 113.602C45.1919 113.077 54.539 112.999 63.8762 112.538C71.5229 103.924 79.5653 95.665 88.0689 87.8928C94.7764 81.7624 101.765 75.9309 109.011 70.446C96.2177 69.9823 83.5605 68.2366 71.2975 64.4623C69.3283 65.4342 67.3606 66.3949 65.4333 67.38V67.38ZM28.984 126.994C25.4374 133.059 21.7497 139.034 18.6095 145.325C15.3946 151.763 12.6373 158.428 10.3388 165.247C9.60478 167.426 8.93899 169.629 8.3045 171.839C10.2699 171.631 12.2342 171.401 14.2115 171.381C16.3876 171.361 18.7196 171.456 20.891 171.1C26.2807 162.271 31.9594 153.621 37.9422 145.201C45.7677 134.191 54.1498 123.558 63.0878 113.421C61.4025 113.348 59.6384 113.574 57.9594 113.661C50.4045 114.052 42.8714 114.679 35.3089 114.934C35.2993 114.935 35.2931 114.931 35.2838 114.93C33.455 119.084 31.269 123.085 28.984 126.994V126.994ZM2.62513 204.085C8.12759 193.042 14.1218 182.227 20.5385 171.675C18.4612 171.689 16.3073 172.077 14.2831 172.349C12.2157 172.624 10.1296 172.668 8.0484 172.747C5.18327 182.972 3.36758 193.494 2.62513 204.085V204.085ZM4.35024 203.966C3.70288 205.19 3.05389 206.411 2.40223 207.631C2.37158 208.409 2.34945 209.188 2.32627 209.968C5.50367 203.427 11.6114 198.419 18.3897 195.637C20.2988 194.852 22.2414 194.23 24.2027 193.708C23.6619 187.004 22.3113 180.366 21.5584 173.683C15.5132 183.597 9.7861 193.707 4.35024 203.966V203.966ZM55.8839 190.152C61.3567 189.519 66.8379 188.438 71.9031 186.241C71.7049 172.997 69.6776 159.789 68.2003 146.643L65.976 126.842C65.6054 123.545 65.176 120.255 64.7657 116.963C64.675 116.239 64.5912 115.512 64.4819 114.792C57.4414 122.777 50.7368 131.06 44.3979 139.611C36.505 150.256 29.1527 161.284 22.228 172.578C23.4171 179.492 23.8992 186.544 25.2285 193.434C35.1924 190.992 45.7107 191.332 55.8839 190.152V190.152ZM73.7488 185.388C78.6423 182.937 82.8417 179.359 86.5125 175.336C94.0935 167.029 99.4895 157.012 106.301 148.109C106.913 147.311 107.547 146.536 108.176 145.756C108.798 133.3 108.975 120.8 109.441 108.338C109.69 101.7 109.989 95.0652 110.229 88.4267C110.439 82.6002 110.481 76.7038 111.599 70.9644C106.069 75.0918 100.686 79.4195 95.4659 83.9374C84.7016 93.2551 74.6411 103.344 65.1982 113.986C65.8909 119.759 66.4241 125.558 67.1368 131.33L69.4115 149.771C70.8808 161.678 72.3008 173.592 73.4273 185.538C73.5343 185.485 73.6437 185.442 73.7488 185.388V185.388ZM158.539 114.607C163.064 89.198 164.388 63.3385 170.223 38.1529C166.44 39.6315 162.691 41.1954 158.988 42.8604C142.774 50.1518 127.481 59.2744 113.185 69.7854C113.198 69.8831 113.197 69.9829 113.174 70.0807C111.658 76.4062 111.633 83.0182 111.318 89.4841C111 96.0076 110.802 102.538 110.582 109.065C110.188 120.746 109.651 132.459 109.489 144.152C116.065 136.334 123.676 129.614 132.854 124.86C141.065 120.609 149.855 117.729 158.539 114.607ZM166.101 111.772C177.025 107.427 187.162 101.505 196.047 93.7782C200.838 89.612 205.063 85.0119 208.913 80.1011C209.842 76.2339 210.998 72.4057 211.86 68.5211C212.966 63.5295 213.919 58.5031 214.876 53.4794C216.714 43.8345 218.406 33.9531 221.587 24.6357C204.571 26.9985 187.864 31.3868 171.817 37.5277C165.144 62.4805 164.158 88.5516 160.221 113.995C162.191 113.276 164.154 112.545 166.101 111.772V111.772ZM218.554 66.0869C224.851 55.7775 230.684 44.9478 239.199 36.2421C244.776 30.5411 251.655 25.5636 259.289 22.9391C250.398 22.4719 241.47 22.6106 232.606 23.3645C229.409 23.6371 226.223 24.0101 223.045 24.4289C220.183 34.1502 218.033 43.9343 216.155 53.8916C215.224 58.8143 214.3 63.7398 213.232 68.6355C212.637 71.3545 212.07 74.1561 211.345 76.9024C213.892 73.4243 216.281 69.81 218.554 66.0869V66.0869ZM265.464 20.5498C255.113 16.5389 244.563 13.0151 233.878 10.0335C226.744 8.04294 219.541 6.28773 212.287 4.79488C205.253 3.34664 197.993 2.13839 190.79 2.72302C189.497 2.82727 188.254 3.02864 187.033 3.27463C198.24 9.68735 209.416 16.1844 220.706 22.4475C221.798 22.2841 222.887 22.103 223.981 21.9561C237.716 20.1085 251.647 19.5796 265.464 20.5498V20.5498ZM171.951 10.0323C166.548 13.7038 161.27 17.3475 154.717 18.5648C147.786 19.8544 140.683 18.9144 133.692 18.9671C129.376 18.998 125.173 19.5882 121.14 20.8574C129.28 22.9698 137.382 25.2348 145.429 27.6819C149.743 28.9956 154.053 30.3248 158.344 31.7182C162.455 33.0533 166.537 34.6613 170.712 35.7928C186.219 29.7807 202.336 25.3488 218.761 22.7397C207.88 16.2202 196.866 9.89686 185.911 3.50261C180.883 4.69885 176.374 7.02691 171.951 10.0323ZM285.553 44.0063C277.809 48.8057 270.237 53.8705 262.97 59.405C248.81 70.1892 236.077 82.5952 225.226 96.7171C214.42 110.779 204.787 125.91 195.746 141.156C187.21 155.551 179.499 170.532 174.099 186.408C168.855 201.832 165.924 218.125 166.627 234.43C169.386 227.336 172.828 220.448 176.017 213.548C179.403 206.226 182.823 198.919 186.306 191.643C193.362 176.913 200.686 162.304 208.536 147.977C223.851 120.03 241.25 92.8322 262.085 68.6408C269.437 60.1043 277.221 51.731 285.553 44.0063V44.0063ZM201.17 201.947C211.975 188.994 221.296 174.813 228.922 159.77C244.313 129.406 250.657 94.8929 269.103 66.0197C271.289 62.598 273.658 59.2807 276.19 56.0944C273.053 59.2769 269.973 62.5243 266.977 65.8692C256.415 77.6593 246.628 90.0618 237.644 103.094C219.351 129.633 204.103 158.127 190.049 187.093C186.066 195.306 182.175 203.565 178.33 211.843C174.936 219.158 171.831 226.719 168.105 233.889C180.16 224.299 191.259 213.826 201.17 201.947V201.947ZM278.073 81.9708C275.506 91.4073 274.115 101.165 274.028 110.946C273.929 122.351 275.406 133.704 275.316 145.107C275.26 152.031 274.638 159.066 272.844 165.76C273.835 163.663 274.824 161.565 275.721 159.432C277.801 154.486 279.596 149.426 280.959 144.233C283.437 134.798 284.727 125.099 285.593 115.396C287.295 96.3615 287.448 77.0304 292.464 58.4634C294.296 51.6902 296.778 45.0597 300.206 38.9522C290.075 51.6816 282.37 66.1765 278.073 81.9708ZM278.24 163.355C280.969 159.145 283.36 154.715 285.419 150.143C289.638 140.781 292.501 130.858 294.374 120.776C296.381 109.968 297.281 98.976 297.623 87.9985C297.933 78.067 297.51 68.1136 298.03 58.1911C298.389 51.3354 299.346 44.4722 301.71 38.1028C294.002 52.3719 290.72 68.4243 289.15 84.591C287.282 103.817 287.62 123.426 282.971 142.287C281.648 147.652 279.92 152.896 277.765 157.985C275.62 163.043 273.271 168.198 270.507 172.98C273.514 170.169 275.998 166.813 278.24 163.355ZM107.024 25.8977C111.585 22.0889 116.981 19.2801 122.737 17.7899C129.446 16.054 136.376 16.5896 143.223 16.7755C150.679 16.976 157.642 16.2813 164.208 12.4947C169.897 9.21603 174.968 4.90463 181.253 2.75084C194.639 -1.83604 209.664 2.15454 222.897 5.39155C237.495 8.9618 251.808 13.6726 265.646 19.5289C266.622 19.9425 267.592 20.3707 268.563 20.7969C269.202 20.8518 269.841 20.9055 270.479 20.9668C272.265 20.954 274.038 21.0766 275.822 21.344C276.087 21.3832 276.288 21.4984 276.46 21.6403C284.227 22.6508 291.93 24.1589 299.514 26.2074C302.056 26.8938 304.541 27.7143 307.007 28.6149C307.095 28.5696 307.182 28.5213 307.271 28.477C308.007 28.1053 308.679 28.7077 308.855 29.3979C309.181 29.7002 309.287 30.1109 309.247 30.5126C309.506 30.8049 309.505 31.3641 309.032 31.5749C307.891 32.0847 306.778 32.6268 305.679 33.1869C301.948 40.4239 300.536 48.6077 300.064 56.718C299.468 66.9653 299.984 77.2639 299.678 87.5232C299.053 108.518 296.384 129.756 288.005 149.192C285.756 154.407 283.113 159.456 280.026 164.226C276.741 169.303 273.018 174.175 267.952 177.592C267.159 178.126 265.988 177.225 266.489 176.328C277.46 156.73 272.317 133.909 272.203 112.648C272.098 93.1118 276.992 73.7875 286.102 56.5218C289.8 49.5123 294.179 42.9096 299.27 36.8755C274.067 53.0699 260.883 82.8696 250.988 110.284C245.177 126.385 239.792 142.659 232.242 158.059C224.996 172.84 216.109 186.799 205.877 199.691C194.35 214.214 180.964 227.772 166.187 239.008C165.339 239.653 164.05 238.987 163.982 237.962C161.749 205.07 174.249 173.457 190.313 145.406C199.105 130.055 208.667 114.95 218.948 100.552C229.467 85.8195 241.735 72.7436 255.802 61.3451C262.602 55.8357 270.221 50.4604 277.756 45.5989C285.344 40.7017 293.24 36.3335 301.089 31.8459C301.616 31.5434 301.947 31.0405 301.996 30.4555C299.896 29.1898 277.036 22.8414 276.097 24.5851C276.035 24.6995 275.924 24.7771 275.764 24.71C275.538 24.6143 275.311 24.5212 275.083 24.427C273.511 24.2021 271.932 24.001 270.346 23.8255C269.914 23.7765 269.48 23.7424 269.047 23.6978C260.339 24.3793 252.098 28.7482 245.487 34.4016C236.415 42.157 230.22 52.5399 224.114 62.6417C217.988 72.7751 211.63 82.6246 203.189 91.0167C195.163 98.9992 185.781 105.661 175.592 110.595C165.007 115.72 153.607 118.802 142.735 123.214C137.345 125.403 132.061 127.957 127.223 131.205C122.294 134.516 117.898 138.598 113.938 143.007C112.37 144.754 110.876 146.598 109.425 148.5C109.424 148.523 109.425 148.548 109.424 148.572C109.423 148.93 109.184 149.125 108.909 149.177C97.3367 164.571 88.5513 183.688 69.2504 190.097C57.5722 193.973 45.0874 193.081 33.0377 194.681C22.0502 196.14 10.7292 200.227 4.81873 210.264C3.49655 212.511 2.63049 214.967 2.27092 217.548C2.08471 218.894 0.142294 218.816 0.150007 217.433C0.173921 213.71 0.33982 209.943 0.608272 206.22C2.40104 181.454 9.73083 157.142 22.2619 135.686C25.8371 129.564 29.6811 123.587 32.7622 117.19C35.8535 110.773 37.3747 104.034 38.8989 97.122C40.2598 90.9574 42.0094 84.7724 45.8214 79.6273C48.844 75.5439 52.8045 72.3294 57.0625 69.6093C66.0096 63.8947 76.2985 60.407 84.8223 54.0091C89.5639 50.4508 92.9182 46.134 95.7238 40.9326C98.777 35.2648 102.027 30.0714 107.024 25.8977" fill="#047B57"/>
</svg>
