<svg width="167" height="79" viewBox="0 0 167 79" fill="none" xmlns="http://www.w3.org/2000/svg">
<path d="M151.806 50.5514C150.669 50.8759 149.561 51.2901 148.473 51.7628C146.857 48.2967 145.65 44.5644 144.141 41.0294C149.82 43.6219 155.401 46.4291 160.883 49.4153C161.537 49.7706 162.19 50.1259 162.844 50.4794C163.077 50.8468 163.306 51.2187 163.535 51.589C160.178 49.5788 155.842 49.3986 151.806 50.5514ZM123.461 65.7711C119.851 59.2454 117.131 52.0614 114.162 45.1118L109.691 34.6453C108.947 32.9025 108.232 31.1405 107.509 29.3848C107.35 28.9985 107.186 28.6152 107.037 28.2229C112.655 29.5068 118.195 31.0611 123.633 32.8816C130.404 35.1476 137.023 37.7991 143.511 40.7391C144.873 44.5472 146.615 48.1601 147.904 52.0078C142.432 54.5042 137.472 58.5609 132.254 61.7501C129.447 63.4655 126.51 64.9668 123.461 65.7711V65.7711ZM122.335 66.0387C119.299 66.6543 116.279 66.4651 113.389 65.8634C107.422 64.6218 102.027 61.7379 96.2629 59.9226C95.7457 59.7587 95.2243 59.6158 94.7029 59.4693C90.9188 53.6313 87.3377 47.6084 83.6261 41.7106C81.6505 38.5693 79.6493 35.4477 77.6775 32.3034C75.9458 29.5427 74.2769 26.6858 72.1332 24.3035C75.9452 24.2692 79.743 24.3855 83.5168 24.6556C91.2958 25.2117 98.953 26.404 106.468 28.0944C107.75 31.1631 109.116 34.1847 110.389 37.2604L114.455 47.0838C117.08 53.4281 119.731 59.7567 122.532 65.9922C122.466 66.0059 122.401 66.025 122.335 66.0387V66.0387ZM76.9979 58.4193C71.863 59.386 66.8328 61.2359 61.786 62.9269C52.5029 52.2246 44.6324 40.1184 34.7821 30.0084C37.0127 29.3291 39.2518 28.7043 41.4974 28.1447C51.3286 25.6997 61.2302 24.4851 71.0417 24.3172C71.0629 24.3683 71.091 24.417 71.1297 24.4564C73.628 26.9772 75.4895 30.187 77.4501 33.2209C79.4279 36.2809 81.3498 39.3887 83.2812 42.4873C86.7387 48.031 90.2737 53.5372 93.6241 59.173C88.277 57.7971 82.7384 57.34 76.9979 58.4193ZM57.3588 64.3434C50.8937 66.2679 44.3655 67.1326 37.9342 66.6565C34.466 66.3998 31.1497 65.7209 27.9252 64.7546C26.3961 63.2139 24.7694 61.7779 23.2692 60.2037C21.3404 58.1806 19.4771 56.0852 17.6111 53.9929C14.0299 49.975 10.4524 45.7873 6.3166 42.4248C15.1545 37.2806 24.4109 33.2383 33.8406 30.2934C44.0287 39.9801 51.7972 52.3134 60.8066 63.2506C59.6592 63.629 58.5103 64.0003 57.3588 64.3434V64.3434ZM19.3707 61.494C13.4614 58.8008 7.62757 55.6845 1.10021 54.5943C-3.17498 53.8791 -7.8729 54.0007 -12.277 55.5457C-8.13441 52.03 -3.80536 48.794 0.665533 45.8826C2.27847 44.8321 3.91294 43.8352 5.55797 42.863C9.65334 46.5398 13.4239 50.5108 17.1119 54.6657C18.9364 56.7198 20.7585 58.7775 22.6418 60.7664C23.6886 61.8714 24.7438 63.0271 25.8617 64.0949C23.6631 63.3437 21.5048 62.4666 19.3707 61.494ZM4.41594 42.0051C-2.70112 46.1861 -9.54284 51.0826 -15.9115 56.6658C-12.0599 50.8833 -7.97633 45.2647 -3.67553 39.859C-0.804457 36.2513 2.16604 32.7318 5.23493 29.32C8.20949 26.013 11.3597 22.739 14.9853 20.358C15.6351 19.9318 16.2889 19.5701 16.9455 19.237C13.354 26.5064 9.80082 33.8063 6.12712 41.0334C5.55721 41.3575 4.98257 41.6722 4.41594 42.0051V42.0051ZM26.0833 16.95C29.708 16.7388 33.2628 16.5627 36.7528 14.7321C40.4438 12.7956 43.5943 9.71 46.9691 7.14868C49.0512 5.56768 51.2364 4.29987 53.5297 3.42591C50.209 7.46736 46.9485 11.5664 43.7672 15.7365C42.061 17.9723 40.3627 20.2132 38.69 22.4794C37.0881 24.6505 35.5752 26.9451 33.8863 29.0399C24.7519 31.8476 15.7673 35.6507 7.14431 40.4563C10.5489 33.2554 14.0732 26.1007 17.5485 18.9333C20.2991 17.6561 23.1176 17.1226 26.0833 16.95V16.95ZM57.1517 2.4037C60.5409 1.79489 63.9738 2.077 67.0293 3.28472C70.1792 4.52922 72.8992 6.56165 76.2974 7.21194C80.4454 8.00572 84.7994 7.2412 89.1008 6.34942C83.7164 12.3037 78.0684 18.0417 71.9929 23.1C63.3737 23.1932 54.6779 24.08 46.0175 25.9004C42.311 26.6785 38.6138 27.62 34.9379 28.7186C36.2068 26.756 37.642 24.8817 39.0015 23.0058C40.6937 20.6711 42.4021 18.3483 44.1458 16.0572C47.4935 11.662 50.928 7.34494 54.4328 3.09648C55.3227 2.80256 56.2287 2.56842 57.1517 2.4037V2.4037ZM93.3158 5.47944C96.1299 4.93346 98.9763 4.49378 101.762 4.65127C105.006 4.83496 107.871 5.96062 110.377 7.9582C113.149 10.1667 115.433 12.9903 118.139 15.2839C118.884 15.9158 119.661 16.501 120.459 17.0545C115.828 20.2523 111.314 23.6714 106.698 26.9011C100.613 25.5333 94.4384 24.485 88.1773 23.8454C83.2384 23.3412 78.2493 23.0859 73.2328 23.0946C79.25 18.1357 84.8445 12.6032 89.6812 6.22818C90.8999 5.97271 92.1132 5.71299 93.3158 5.47944V5.47944ZM121.108 17.489C123.148 18.835 125.319 19.9761 127.511 21.0338C130.911 22.6755 134.354 24.223 137.624 26.1253C140.97 28.0723 144.16 30.2985 147.173 32.77C148.136 33.5598 149.071 34.3868 149.995 35.2291C148.992 35.8539 147.984 36.4689 147.028 37.1908C145.977 37.9863 144.883 38.8947 143.739 39.5242C138.679 37.2173 133.53 35.1056 128.3 33.2173C121.458 30.7491 114.456 28.67 107.324 27.0392C108.114 26.3804 109.024 25.8375 109.855 25.2589C113.596 22.655 117.391 20.1734 121.097 17.5003C121.101 17.4969 121.103 17.4925 121.108 17.489V17.489ZM147.264 37.6881C148.335 37.0576 149.349 36.3074 150.372 35.5751C154.609 39.4967 158.426 43.9508 161.745 48.8349C156.012 45.491 150.105 42.441 144.069 39.6743C145.071 38.9121 146.215 38.3058 147.264 37.6881V37.6881ZM166.669 54.4214C165.617 52.6152 164.483 50.8423 163.312 49.1287C155.521 37.7286 145.197 28.598 133.173 22.7818C129.741 21.1218 126.222 19.6331 122.952 17.6569C119.671 15.6748 117.055 12.9552 114.388 10.1528C112.01 7.65152 109.438 5.28709 106.167 4.18983C103.572 3.32051 100.77 3.21921 97.9621 3.46962C92.0635 3.99497 86.1431 6.10329 80.2573 6.14057C76.9832 6.16051 74.1634 5.29857 71.3609 3.80256C68.3071 2.17154 65.2927 0.84482 61.7238 0.659461C58.4667 0.490887 55.0868 1.11968 51.9039 2.52361C48.1945 4.15912 45.0139 6.98396 41.7756 9.60674C38.2479 12.4644 34.709 14.7005 30.4928 15.2854C26.8428 15.7919 23.1993 15.5685 19.5762 16.8447C11.8604 19.5623 5.75671 27.0646 0.302065 33.5365C-5.71282 40.6749 -11.2738 48.2642 -16.2853 56.2363C-16.6388 56.7993 -16.9853 57.3663 -17.3327 57.933C-17.6243 58.1958 -17.9158 58.4586 -18.2055 58.7247C-19.0663 59.3787 -19.8859 60.0947 -20.668 60.8848C-20.7838 61.0015 -20.848 61.1327 -20.8908 61.2652C-24.3409 64.6302 -27.621 68.2146 -30.6919 72.018C-31.9097 73.5256 -33.0485 75.081 -34.1369 76.6976C-34.754 77.6162 -33.6874 78.5286 -32.9993 77.6621C-28.819 72.3927 -24.5656 67.2787 -19.8923 62.565C-19.8315 62.5977 -19.7561 62.5957 -19.6984 62.5033C-19.6166 62.3726 -19.5322 62.2426 -19.4501 62.1126C-18.7566 61.4219 -18.0555 60.7403 -17.342 60.0679C-17.1471 59.8845 -16.9489 59.7069 -16.7532 59.5247C-12.378 56.6357 -7.19577 55.7158 -2.43688 56.0235C4.09283 56.4451 9.9749 59.2109 15.7357 61.8726C21.5146 64.5419 27.3254 66.9876 33.7289 67.9541C39.8198 68.8724 46.1919 68.6479 52.4686 67.2807C58.9887 65.8615 65.3301 63.1455 71.7885 61.2732C74.9912 60.3444 78.2449 59.6349 81.4785 59.4278C84.7746 59.2155 88.0287 59.5775 91.1659 60.2617C92.4083 60.5319 93.6418 60.8774 94.871 61.2675C94.8773 61.2785 94.8852 61.2903 94.8915 61.3013C94.9934 61.4758 95.1609 61.4823 95.3084 61.4058C105.176 64.6237 114.746 70.6858 125.815 66.6671C132.511 64.2357 138.261 59.1828 144.499 55.504C150.189 52.1502 156.771 49.9531 162.421 52.6565C163.683 53.2609 164.788 54.1367 165.682 55.2621C166.149 55.8476 167.06 55.0913 166.669 54.4214" fill="#047B57"/>
</svg>
