<svg width="244" height="200" viewBox="0 0 244 200" fill="none" xmlns="http://www.w3.org/2000/svg">
<path d="M86.1134 43.117L33.6469 12.6823L0 130.718L122.177 200L38.3606 99.9205L86.1134 43.117Z" fill="#C1E7E8"/>
<path d="M122.177 200L243.184 130.443L209.406 12.5263L158.034 42.8225L206.025 99.917L122.177 200Z" fill="#C1E7E8"/>
<path d="M158.034 42.8225L122.197 0L86.1134 43.117L122.172 64.167L158.034 42.8225Z" fill="#C1E7E8"/>
<path d="M206.025 99.917L158.034 42.8225L122.172 64.167L154.746 83.0298L122.177 200L206.025 99.917Z" fill="#C1E7E8"/>
<path d="M86.1134 43.117L38.3606 99.9205L122.177 200L89.6421 83.0339L122.172 64.167L86.1134 43.117Z" fill="#C1E7E8"/>
<path d="M89.6421 83.0339L122.177 200L154.746 83.0298L122.172 64.167L89.6421 83.0339Z" fill="#C1E7E8"/>
<path d="M122.172 64.1692L154.747 83.0305L122.176 199.997L89.6455 83.0271L122.172 64.1692Z" fill="#78CACD"/>
<path d="M206.028 99.9205L158.033 42.8213L122.175 64.176L154.747 83.0305L122.175 199.99L206.028 99.9205Z" fill="#96D6D8"/>
<path d="M122.175 64.176L86.115 43.1166L38.364 99.9171L122.175 199.99L89.6455 83.0305L122.175 64.176Z" fill="#96D6D8"/>
</svg>
