<svg width="242" height="200" viewBox="0 0 242 200" fill="none" xmlns="http://www.w3.org/2000/svg">
<path d="M156.264 43.117L208.461 12.6823L241.935 130.718L120.386 200L203.772 99.9205L156.264 43.117Z" fill="#94A3BB"/>
<path d="M120.386 200L-4.57764e-05 130.443L33.6048 12.5263L84.7127 42.8225L36.9687 99.917L120.386 200Z" fill="#94A3BB"/>
<path d="M84.7127 42.8225L120.366 0L156.264 43.117L120.391 64.167L84.7127 42.8225Z" fill="#94A3BB"/>
<path d="M36.9687 99.917L84.7127 42.8225L120.391 64.167L87.9837 83.0298L120.386 200L36.9687 99.917Z" fill="#94A3BB"/>
<path d="M156.264 43.117L203.772 99.9205L120.386 200L152.754 83.0339L120.391 64.167L156.264 43.117Z" fill="#94A3BB"/>
<path d="M152.754 83.0339L120.386 200L87.9837 83.0298L120.391 64.167L152.754 83.0339Z" fill="#94A3BB"/>
<path d="M120.391 64.1692L87.9832 83.0305L120.387 199.997L152.75 83.0271L120.391 64.1692Z" fill="#475569"/>
<path d="M36.9653 99.9207L84.7137 42.8215L120.387 64.1762L87.9834 83.0307L120.387 199.99L36.9653 99.9207Z" fill="#64748B"/>
<path d="M120.387 64.1762L156.263 43.1169L203.768 99.9173L120.387 199.99L152.75 83.0307L120.387 64.1762Z" fill="#64748B"/>
</svg>
