<svg width="32" height="32" viewBox="0 0 32 32" fill="none" xmlns="http://www.w3.org/2000/svg">
<path d="M0 8C0 5.79086 1.79086 4 4 4H28C30.2091 4 32 5.79086 32 8V24C32 26.2091 30.2091 28 28 28H4C1.79086 28 0 26.2091 0 24V8ZM4 6C2.89543 6 2 6.89543 2 8V8.43381L16 16.8338L30 8.43381V8C30 6.89543 29.1046 6 28 6H4ZM30 10.7662L20.4844 16.4756L30 22.2271V10.7662ZM29.9311 24.5224L18.5441 17.6398L16 19.1662L13.4559 17.6398L2.06891 24.5224C2.29862 25.3736 3.07616 26 4 26H28C28.9238 26 29.7014 25.3736 29.9311 24.5224ZM2 22.2271L11.5156 16.4756L2 10.7662V22.2271Z" fill="white"/>
</svg>
