<svg width="20" height="16" viewBox="0 0 20 16" fill="none" xmlns="http://www.w3.org/2000/svg">
<path d="M0 1.13766C0 0.835931 0.105357 0.546564 0.292893 0.333212C0.48043 0.11986 0.734784 0 1 0H19C19.2652 0 19.5196 0.11986 19.7071 0.333212C19.8946 0.546564 20 0.835931 20 1.13766C20 1.43938 19.8946 1.72875 19.7071 1.9421C19.5196 2.15545 19.2652 2.27531 19 2.27531H1C0.734784 2.27531 0.48043 2.15545 0.292893 1.9421C0.105357 1.72875 0 1.43938 0 1.13766V1.13766Z" fill="black"/>
<path d="M0 8.00002C0 7.6983 0.105357 7.40893 0.292893 7.19558C0.48043 6.98223 0.734784 6.86237 1 6.86237H19C19.2652 6.86237 19.5196 6.98223 19.7071 7.19558C19.8946 7.40893 20 7.6983 20 8.00002C20 8.30175 19.8946 8.59112 19.7071 8.80447C19.5196 9.01782 19.2652 9.13768 19 9.13768H1C0.734784 9.13768 0.48043 9.01782 0.292893 8.80447C0.105357 8.59112 0 8.30175 0 8.00002V8.00002Z" fill="black"/>
<path d="M1 13.7247C0.734784 13.7247 0.48043 13.8445 0.292893 14.0579C0.105357 14.2712 0 14.5606 0 14.8623C0 15.1641 0.105357 15.4534 0.292893 15.6668C0.48043 15.8801 0.734784 16 1 16H19C19.2652 16 19.5196 15.8801 19.7071 15.6668C19.8946 15.4534 20 15.1641 20 14.8623C20 14.5606 19.8946 14.2712 19.7071 14.0579C19.5196 13.8445 19.2652 13.7247 19 13.7247H1Z" fill="black"/>
</svg>
