<svg width="434" height="383" viewBox="0 0 434 383" fill="none" xmlns="http://www.w3.org/2000/svg">
<path d="M152.263 120.306C144.047 135.837 124.796 141.767 109.265 133.549C93.7351 125.333 87.8061 106.082 96.023 90.5518C104.24 75.0212 123.491 69.0931 139.021 77.3089H139.021C154.551 85.5247 160.481 104.775 152.263 120.306ZM186.899 126.145C183.65 123.985 180.324 121.937 177.12 119.713C176.535 119.307 176.014 118.26 176.075 117.562C176.463 113.06 177.112 108.578 177.47 104.073C177.574 102.761 177.866 102.075 179.12 101.573C183.537 99.8122 187.905 97.9328 192.29 96.0921C193.001 95.7956 193.702 95.4717 194.927 94.9288C192.782 88.1956 190.661 81.5377 188.487 74.711C182.834 75.8719 177.679 76.8459 172.572 78.0274C170.771 78.4448 169.787 78.2418 168.615 76.579C166.219 73.1759 163.351 70.1127 160.775 66.8327C160.379 66.3287 160.204 65.3114 160.428 64.7206C162.136 60.209 163.839 55.686 165.816 51.2907C166.766 49.1809 166.278 48.0518 164.387 47.087C163.66 46.7152 163.067 46.0834 162.412 45.5679C159.149 43.8413 155.885 42.1147 152.621 40.388C152.211 40.3082 151.776 40.2945 151.397 40.1417C147.418 38.545 148.183 38.5747 145.951 41.9003C143.233 45.9557 140.583 50.0545 138.256 53.5967C132.174 53.0675 126.489 52.5749 120.618 52.0662C118.361 46.6901 116.003 41.0723 113.629 35.4179C106.475 36.4284 99.9101 38.7275 93.475 41.8341C94.6283 47.3904 95.7391 52.8121 96.8895 58.2269C97.096 59.1986 97.0405 59.7871 96.0919 60.5055C92.3779 63.3224 88.7305 66.2397 85.2196 69.3052C84.2073 70.1879 83.5527 70.1971 82.456 69.7432C77.9293 67.8751 73.3593 66.112 68.8245 64.2645C67.6979 63.8037 66.971 63.8425 66.146 64.9464C62.4475 69.9005 59.9401 75.4317 57.8917 81.2138C57.4863 82.3565 58.0388 82.8469 58.9046 83.4012C62.9105 85.9672 66.8542 88.6313 70.8773 91.1676C72.0366 91.8998 72.3932 92.5339 72.1728 94.0256C71.4103 99.185 70.9484 104.388 70.3257 109.992C65.4389 112.042 59.8938 114.371 54.3503 116.698C55.351 123.987 57.3525 130.728 60.6283 137.144C66.6863 135.857 72.5802 134.603 77.9184 133.469C81.2782 137.29 84.309 140.923 87.5634 144.342C88.793 145.635 89.0163 146.614 88.3131 148.227C86.4396 152.519 84.7335 156.887 83.0046 161.241C82.6629 162.101 81.9855 163.105 83.3301 163.803C88.7994 166.645 94.2658 169.491 99.7361 172.329C100.899 172.933 101.627 172.539 102.321 171.442C104.903 167.366 107.664 163.399 110.176 159.278C111.144 157.69 112.198 157.622 113.842 157.831C117.902 158.349 121.995 158.789 126.08 158.856C127.842 158.883 128.49 159.337 129.095 160.899C131.038 165.917 133.179 170.86 135.201 175.727C139.565 175.698 151.428 171.893 155.694 169.202C154.536 163.853 153.421 158.434 152.155 153.048C151.839 151.7 152.235 151.119 153.262 150.3C156.575 147.656 159.7 144.78 162.987 142.105C163.54 141.653 164.667 141.4 165.303 141.644C169.345 143.195 173.332 144.887 177.319 146.58C179.547 147.524 180.443 147.914 181.292 147.337L190.485 129.963C190.497 128.552 189.527 127.895 186.899 126.145" fill="#CAE1F9"/>
<path d="M298.254 122.153C297.511 120.367 296.725 118.553 296.012 116.709C295.789 116.137 295.551 115.97 294.904 115.959C293.405 115.936 291.904 115.773 290.413 115.584C290.265 115.565 290.13 115.552 290.006 115.552C289.623 115.552 289.336 115.674 289.066 116.116C288.145 117.628 287.132 119.082 286.183 120.579C286.01 120.855 285.83 121.009 285.596 121.009C285.489 121.009 285.369 120.975 285.234 120.907C283.226 119.864 281.221 118.818 279.212 117.775C278.719 117.518 278.968 117.152 279.092 116.835C279.728 115.237 280.353 113.633 281.041 112.057C281.3 111.466 281.217 111.106 280.767 110.633C279.572 109.376 278.458 108.043 277.224 106.641C275.267 107.056 273.102 107.517 270.878 107.99C269.677 105.634 268.942 103.16 268.574 100.483C270.609 99.6307 272.645 98.7761 274.438 98.0222C274.667 95.964 274.836 94.0558 275.117 92.1603C275.198 91.6142 275.066 91.3807 274.641 91.113C273.164 90.1814 271.716 89.2026 270.247 88.2624C269.928 88.0589 269.726 87.8769 269.874 87.4571C270.626 85.3368 271.547 83.3064 272.905 81.4859C273.093 81.2354 273.266 81.1347 273.47 81.1347C273.594 81.1347 273.731 81.1711 273.888 81.2354C275.552 81.9143 277.229 82.5611 278.891 83.2486C279.058 83.3171 279.197 83.3557 279.328 83.3557C279.516 83.3557 279.687 83.2764 279.906 83.0858C281.195 81.9614 282.534 80.8906 283.896 79.8561C284.245 79.5927 284.264 79.3763 284.189 79.0187C283.767 77.0333 283.36 75.0415 282.936 73.0026C285.299 71.8632 287.708 71.0193 290.334 70.6467C291.206 72.722 292.071 74.7845 292.9 76.7591C295.054 76.9455 297.142 77.1254 299.374 77.3203C300.229 76.0203 301.201 74.5146 302.199 73.0261C302.685 72.3022 302.784 72.0045 303.09 72.0045C303.3 72.0045 303.604 72.1437 304.197 72.3815C304.339 72.4372 304.497 72.4436 304.647 72.4714C305.846 73.1054 307.044 73.7393 308.243 74.3733C308.483 74.5617 308.699 74.7952 308.967 74.9301C309.661 75.2856 309.841 75.699 309.492 76.4743C308.766 78.087 308.14 79.7469 307.513 81.4024C307.431 81.6209 307.496 81.9957 307.641 82.1799C308.586 83.3835 309.639 84.5079 310.52 85.7566C310.828 86.1956 311.1 86.3562 311.475 86.3562C311.623 86.3562 311.785 86.3327 311.972 86.2898C313.846 85.8551 315.739 85.4974 317.814 85.0712C318.611 87.577 319.391 90.0207 320.177 92.4923C319.727 92.6915 319.47 92.8114 319.209 92.9206C317.6 93.5953 315.996 94.2849 314.375 94.9317C313.914 95.1159 313.807 95.3686 313.769 95.8505C313.638 97.5039 313.4 99.1488 313.257 100.8C313.235 101.057 313.426 101.443 313.64 101.59C314.818 102.406 316.039 103.158 317.23 103.953C318.196 104.593 318.551 104.835 318.547 105.353L315.172 111.731C315.073 111.8 314.97 111.83 314.852 111.83C314.6 111.83 314.27 111.689 313.713 111.453C312.25 110.832 310.787 110.211 309.303 109.641C309.241 109.618 309.166 109.607 309.085 109.607C308.864 109.607 308.601 109.688 308.453 109.81C307.247 110.793 306.099 111.849 304.883 112.819C304.506 113.119 304.36 113.333 304.478 113.828C304.941 115.805 305.352 117.795 305.776 119.756C304.21 120.746 299.856 122.142 298.254 122.153V122.153ZM294.204 84.6664C290.017 84.6664 285.967 86.9259 283.872 90.886C280.855 96.5873 283.031 103.653 288.732 106.671C290.473 107.591 292.343 108.028 294.185 108.028C298.372 108.028 302.422 105.769 304.516 101.809C307.532 96.1075 305.356 89.042 299.655 86.0243C297.914 85.1033 296.046 84.6664 294.204 84.6664Z" fill="#EBF3FE"/>
<path d="M110.681 324.975C110.681 324.975 49.6544 294.886 39.1593 279.191C28.6644 263.496 44.0919 262.608 44.0919 262.608C44.0919 262.608 16.8588 236.123 20.6901 224.971C24.5217 213.821 38.6292 224.048 38.6292 224.048C38.6292 224.048 21.1182 185.069 29.3748 181.149C44.7537 173.85 66.328 215.792 66.328 215.792C66.328 215.792 61.6916 197.572 72.2815 198.163C88.2524 199.056 87.5926 240.269 87.5926 240.269C87.5926 240.269 89.3963 224.468 99.0223 229.601C116.293 238.811 110.681 324.975 110.681 324.975" fill="#3C8F7C"/>
<path d="M102.497 223.226C94.9807 219.056 87.4941 231.246 87.4941 231.246C87.4941 231.246 88.2525 199.056 72.2816 198.163C61.6916 197.572 66.328 215.792 66.328 215.792C66.328 215.792 44.7538 173.85 29.3749 181.149L110.751 324.307C111.326 314.309 117.388 231.488 102.497 223.226Z" fill="#50BFA5"/>
<path d="M109.103 325.347C109.103 325.347 59.1922 331.548 46.269 326.022C33.346 320.499 42.6073 313.675 42.6073 313.675C42.6073 313.675 14.8584 308.22 12.7175 299.709C10.5767 291.198 23.3773 291.877 23.3773 291.877C23.3773 291.877 -3.23026 274.646 0.32743 268.847C6.95394 258.046 37.4526 275.439 37.4526 275.439C37.4526 275.439 27.1575 265.957 34.0033 262.025C44.3277 256.093 60.6631 282.065 60.6631 282.065C60.6631 282.065 59.6486 275.664 67.7383 274.955C82.2535 273.68 109.103 325.347 109.103 325.347Z" fill="#3C8F7C"/>
<path d="M68.0657 270.303C59.976 271.012 60.6631 282.065 60.6631 282.065C60.6631 282.065 44.0326 251.276 33.7079 257.208C26.8621 261.143 34.9615 274.064 34.9615 274.064C34.9615 274.064 6.9539 258.046 0.327393 268.846L109.255 325.071C105.551 318.603 81.624 269.112 68.0657 270.303" fill="#50BFA5"/>
<path d="M396.102 252.456L398.782 245.977C400.863 241.212 406.185 238.937 410.671 240.895C421.976 245.829 426.889 259.564 421.647 271.571L417.816 280.352C416.136 284.196 416.721 288.428 418.986 291.412C421.043 294.121 421.378 297.888 419.952 301.154L417.929 305.783C415.743 310.794 411.487 314.504 406.44 316.035C403.488 316.93 400.88 319.145 399.501 322.304L396.64 328.857C393.477 336.103 385.385 339.562 378.564 336.585L374.673 334.887C367.855 331.91 364.887 323.623 368.05 316.378C373.166 307.715 372.759 301.249 370.944 296.862C368.281 290.416 368.311 282.997 371.194 276.392L371.598 275.467C374.64 268.495 380.516 263.293 387.513 261.063C390.605 260.08 393.823 257.677 396.102 252.456" fill="#50BFA5"/>
<path d="M219.503 380.437C212.259 371.045 172.532 320.723 146.629 312.339C118.036 303.082 144.984 339.845 144.984 339.845C144.984 339.845 94.2615 284.38 75.648 289.381C58.5855 293.965 75.648 328.344 75.648 328.344C75.648 328.344 56.4307 309.306 33.1259 309.306C10.4448 309.306 48.9717 376.824 51.0503 380.437H219.503" fill="#96D9C9"/>
<path d="M433.493 178.982C433.493 178.982 426.181 188.422 421.872 192.127C417.568 195.831 413.466 199.378 407.976 211.164C402.486 222.95 402.646 224.299 401.188 227.334C399.727 230.369 392.068 242.255 391.492 244.626C390.91 246.999 378.404 258.359 374.534 264.137C370.665 269.916 364.315 277.979 363.481 282.642L364.612 282.618C364.612 282.618 367.978 272.077 377.901 262.94C387.823 253.803 387.241 251.505 396.94 247.882C406.636 244.258 415.643 230.112 415.643 230.112C415.643 230.112 428.081 215.362 429.704 206.57C431.33 197.776 435.424 190.458 433.493 178.982" fill="#256653"/>
<path d="M425.904 160.081C425.904 160.081 424.008 166.958 420.808 170.562C417.61 174.165 415.098 176.222 413.654 180.59C412.21 184.957 408.128 196.134 400.577 200.3C393.026 204.464 388.314 221.107 382.376 225.093C376.442 229.078 374.971 232.593 373.814 241.528C372.664 250.464 372.831 263.256 362.263 277.447L361.617 273.157C361.617 273.157 369.573 261.31 370.148 253.423C370.721 245.538 369.239 233.075 372.044 227.915C374.847 222.756 369.442 220.364 374.784 212.816C380.13 205.269 379.404 202.045 385.719 195.914C385.719 195.914 386.272 195.687 388.911 189.87C391.549 184.053 403.977 175.157 409.391 172.394C414.808 169.632 422.759 165.035 425.904 160.081" fill="#256653"/>
<path d="M399.464 190.167C399.464 190.167 391.883 198.19 390.415 204.149C388.949 210.107 388.465 215.119 383.82 222.666C379.173 230.211 383.415 236.652 380.792 240.805C378.173 244.959 376.807 250.279 375.912 254.349C375.017 258.416 365.633 270.386 363.1 276.963C360.569 283.541 361.781 283.845 361.781 283.845C361.781 283.845 364.905 275.111 367.036 272.479C369.166 269.846 375.925 260.633 377.867 256.91C379.811 253.19 383.176 251.295 387.128 245.146C391.079 238.999 395.795 234.141 397.745 224.568C399.699 214.994 405.862 205.845 399.464 190.167Z" fill="#3C8F7C"/>
<path d="M366.829 278.455C366.829 278.455 372.099 267.258 383.038 268.562C393.976 269.864 399.749 273.43 409.285 266.572C418.821 259.715 426.372 247.072 429.329 245.279C429.329 245.279 425.996 242.45 418.332 246.871C410.671 251.291 405.215 254.727 400.776 257.305C396.334 259.884 393.896 256.96 389.523 258.324C385.859 259.468 380.418 263.968 377.916 266.407C377.105 267.2 376.199 267.889 375.211 268.448C374.313 268.96 373.239 269.59 372.533 270.074C371.116 271.042 365.995 278.305 365.995 278.305L366.829 278.455" fill="#3C8F7C"/>
<path d="M363.558 275.5C363.558 275.5 370.667 261.962 369.79 254.325C368.912 246.687 362.244 239.635 363.591 235.279C364.938 230.922 372.781 220.126 370.729 210.252C370.729 210.252 367.314 217.84 365.356 219.25C363.398 220.659 351.126 225.324 350.817 235.182C350.508 245.039 360.311 249.641 362.211 253.006C364.106 256.368 367.536 257.163 367.13 259.013C366.722 260.862 365.831 267.721 363.154 274.074L363.558 275.5" fill="#3C8F7C"/>
<path d="M369.908 266.812L378.724 252.831C378.724 252.831 384.67 241.319 388.841 231.536C393.011 221.752 399.463 190.168 399.463 190.168C399.463 190.168 391.882 198.191 390.413 204.149C388.946 210.108 388.464 215.119 383.817 222.667C379.17 230.212 383.412 236.652 380.791 240.805C378.172 244.96 376.806 250.28 375.911 254.349C375.014 258.416 365.632 270.387 363.098 276.964C361.711 280.566 361.448 282.284 361.495 283.104C362.031 276.962 369.908 266.812 369.908 266.812" fill="#327F6B"/>
<path d="M398.021 263.801C393.093 263.645 388.954 262.344 382.397 265.206C375.837 268.067 371.514 271.749 371.514 271.749C371.514 271.749 367.958 275.655 366.368 277.782C366.133 278.11 365.995 278.305 365.995 278.305L366.829 278.455C366.829 278.455 372.099 267.258 383.038 268.562C393.976 269.864 399.749 273.43 409.285 266.572C418.821 259.715 426.372 247.072 429.329 245.279C429.329 245.279 419.864 249.649 413.63 254.015C407.397 258.38 402.952 263.955 398.021 263.801" fill="#327F6B"/>
<path d="M365.354 219.25C363.397 220.66 351.126 225.324 350.817 235.183C350.507 245.039 360.312 249.641 362.209 253.006C364.103 256.368 367.535 257.163 367.129 259.014C366.721 260.862 365.83 267.722 363.152 274.074L363.33 274.698C364.485 272.243 366.173 268.491 367.119 265.565C368.659 260.81 368.339 258.622 367.693 254.33C367.05 250.04 359.226 239.787 357.776 235.015C356.328 230.244 365.069 224.866 367.434 221.837C369.802 218.809 370.728 210.253 370.728 210.253C370.728 210.253 367.311 217.841 365.354 219.25Z" fill="#327F6B"/>
<path d="M234.154 380.437C241.398 371.045 281.123 320.723 307.028 312.339C335.622 303.082 308.67 339.845 308.67 339.845C308.67 339.845 359.397 284.38 378.007 289.381C395.069 293.965 378.007 328.344 378.007 328.344C378.007 328.344 397.227 309.306 420.533 309.306C443.212 309.306 404.686 376.824 402.608 380.437H234.154Z" fill="#96D9C9"/>
<path d="M106.692 380.15C83.5341 348.658 55.3796 319.55 21.902 294.239C21.5679 293.986 21.1168 294.569 21.4533 294.826C53.2042 319.233 81.2945 348.054 104.932 380.621L106.692 380.15Z" fill="#256653"/>
<path d="M40.584 322.43C41.3578 321.882 43.3633 319.798 46.0396 319.147C48.5735 318.29 51.7782 318.864 51.6674 318.935C51.7341 319.087 49.5568 316.611 46.1572 315.894C42.8915 314.939 38.4033 315.74 36.9366 317.035C33.608 319.288 33.3415 323.116 34.9913 323.825C36.6306 324.581 38.8207 323.538 40.584 322.43" fill="#256653"/>
<path d="M26.9491 310.417C27.7231 309.869 29.7286 307.787 32.4047 307.134C34.9388 306.278 38.1433 306.851 38.0328 306.922C38.0991 307.074 35.9221 304.601 32.5225 303.881C29.2566 302.928 24.7686 303.729 23.3019 305.025C19.9731 307.276 19.7066 311.103 21.3564 311.814C22.9959 312.568 25.186 311.527 26.9491 310.417Z" fill="#256653"/>
<path d="M63.5328 317.095C62.8076 317.547 60.2273 318.455 59.0416 320.518C57.6662 322.375 57.6859 325.384 57.7812 325.317C57.9311 325.435 55.7031 322.557 55.5641 319.318C55.1518 316.104 56.8281 312.529 58.4738 311.773C61.4789 309.786 65.5925 311.084 66.0429 312.799C66.5435 314.523 65.0338 316.007 63.5328 317.095" fill="#256653"/>
<path d="M67.0622 274.167C87.7862 306.534 102.911 342.49 111.559 380.688L112.98 380.306C104.368 342.907 89.3443 307.016 68.6548 274.685C63.8464 267.172 58.6542 258.256 49.651 255.326C49.4773 255.268 49.4115 255.533 49.5771 255.596C57.8003 258.695 62.5633 267.142 67.0622 274.167" fill="#256653"/>
<path d="M65.1683 254.094C64.6348 254.88 62.5927 256.926 61.9926 259.614C61.1866 262.164 61.8229 265.358 61.8915 265.246C62.0455 265.308 59.5285 263.182 58.7421 259.796C57.7241 256.551 58.4366 252.047 59.7028 250.554C61.8895 247.183 65.7104 246.84 66.4523 248.477C67.2398 250.1 66.2411 252.31 65.1683 254.094Z" fill="#256653"/>
<path d="M60.2104 282.986C60.984 282.438 62.9898 280.354 65.6659 279.701C68.1999 278.846 71.4044 279.42 71.2939 279.489C71.3605 279.643 69.1832 277.167 65.7836 276.447C62.5179 275.494 58.0297 276.295 56.5631 277.591C53.2342 279.844 52.968 283.671 54.6175 284.38C56.2572 285.136 58.4472 284.093 60.2104 282.986Z" fill="#256653"/>
<path d="M67.6923 295.648C68.4661 295.1 70.4718 293.016 73.1479 292.365C75.6818 291.508 78.8862 292.082 78.7759 292.153C78.8423 292.305 76.665 289.831 73.2655 289.112C69.9998 288.156 65.5118 288.957 64.0449 290.253C60.7162 292.506 60.4498 296.333 62.0996 297.042C63.7391 297.798 65.929 296.755 67.6923 295.648" fill="#256653"/>
<path d="M75.637 268.422C74.9864 269.114 72.6472 270.813 71.6309 273.372C70.4331 275.764 70.5581 279.018 70.6432 278.917C70.7852 279.005 68.6353 276.505 68.3922 273.04C67.899 269.673 69.3125 265.338 70.798 264.066C73.4893 261.081 77.3161 261.344 77.791 263.077C78.3125 264.805 76.9777 266.829 75.637 268.422" fill="#256653"/>
<path d="M86.6393 282.783C85.7132 283.273 82.4785 284.164 80.8517 286.584C79.01 288.739 78.7761 292.423 78.8984 292.348C79.0719 292.506 76.5929 288.795 76.6999 284.822C76.4708 280.853 78.8277 276.623 80.9056 275.839C84.7524 273.663 89.6737 275.604 90.0776 277.741C90.5426 279.893 88.5685 281.581 86.6393 282.783" fill="#256653"/>
<path d="M98.219 304.532C97.2235 304.86 93.8852 305.194 91.8743 307.308C89.6968 309.122 88.8468 312.713 88.98 312.66C89.1241 312.844 87.3047 308.768 88.0785 304.87C88.5202 300.919 91.5548 297.147 93.7348 296.723C97.8926 295.226 102.417 297.968 102.456 300.141C102.553 302.341 100.323 303.671 98.219 304.532" fill="#256653"/>
<path d="M46.1139 259.187C46.5478 258.83 47.6431 257.508 49.1976 257.007C50.6591 256.388 52.5798 256.587 52.5177 256.634C52.5637 256.722 51.1673 255.354 49.1247 255.075C47.1514 254.655 44.5314 255.326 43.7203 256.155C41.8497 257.635 41.8596 259.909 42.8666 260.256C43.8694 260.633 45.1195 259.92 46.1139 259.187" fill="#256653"/>
<path d="M50.2689 249.946C50.2496 250.507 49.8733 252.179 50.4238 253.719C50.8273 255.253 52.1573 256.654 52.1562 256.574C52.2534 256.559 50.3171 256.287 48.8509 254.84C47.3123 253.533 46.244 251.049 46.4063 249.901C46.4354 247.515 48.2435 246.133 49.1336 246.72C50.0427 247.286 50.2419 248.71 50.2689 249.946" fill="#256653"/>
<path d="M17.1302 298.182C17.5639 297.824 18.6592 296.505 20.2139 296.001C21.6754 295.385 23.5961 295.584 23.5338 295.629C23.5798 295.717 22.1836 294.348 20.141 294.072C18.1674 293.65 15.5477 294.32 14.7364 295.151C12.866 296.629 12.8759 298.906 13.8827 299.253C14.8857 299.627 16.1356 298.914 17.1302 298.182" fill="#256653"/>
<path d="M22.1423 288.861C22.0772 289.42 21.5651 291.056 21.9877 292.635C22.2639 294.196 23.4751 295.702 23.4802 295.622C23.5785 295.614 21.6709 295.185 20.3283 293.622C18.9019 292.196 18.0405 289.632 18.2966 288.499C18.5209 286.126 20.436 284.897 21.2751 285.554C22.135 286.192 22.2166 287.627 22.1423 288.861" fill="#256653"/>
<path d="M26.6012 351.042C47.7627 353.361 67.4713 362.701 86.4443 371.81C99.2385 377.953 98.5932 379.702 101.199 380.617C101.622 380.767 102.044 380.306 101.838 379.902C100.836 377.914 98.2073 376.571 96.3782 375.43C94.2494 374.1 92.0252 372.924 89.7682 371.829C84.9391 369.484 79.984 367.375 75.0612 365.235C65.0469 360.885 54.8703 356.792 44.2903 354.021C38.4905 352.502 32.5884 351.408 26.6151 350.868C26.5039 350.86 26.4909 351.029 26.6012 351.042" fill="#256653"/>
<path d="M43.8622 344.205C43.7244 345.073 42.82 347.593 43.3779 350.084C43.7086 352.541 45.5014 354.965 45.5147 354.843C45.6687 354.837 42.7198 354.047 40.7252 351.519C38.5911 349.2 37.4119 345.145 37.8844 343.394C38.3868 339.706 41.4544 337.911 42.7215 338.99C44.0224 340.04 44.0571 342.286 43.8622 344.205Z" fill="#256653"/>
<path d="M62.5048 350.881C62.3671 351.748 61.4626 354.269 62.0203 356.76C62.3512 359.215 64.1441 361.639 64.1574 361.519C64.3114 361.513 61.3624 360.72 59.3678 358.195C57.2338 355.876 56.0543 351.819 56.527 350.069C57.0295 346.379 60.0969 344.587 61.3639 345.664C62.665 346.715 62.6997 348.962 62.5048 350.881" fill="#256653"/>
<path d="M81.4473 359.324C81.3096 360.191 80.4052 362.712 80.9631 365.203C81.2938 367.659 83.0868 370.084 83.0999 369.962C83.2539 369.955 80.3047 369.165 78.3104 366.638C76.1763 364.318 74.9971 360.264 75.4698 358.512C75.972 354.824 79.0396 353.029 80.3067 354.107C81.6076 355.158 81.6422 357.405 81.4473 359.324" fill="#256653"/>
<path d="M38.2967 361.624C38.6799 360.906 39.4203 358.544 41.221 357.021C42.8352 355.396 45.5096 354.61 45.452 354.706C45.5614 354.798 42.9468 353.734 40.0668 354.483C37.1999 355.002 34.0677 357.332 33.4391 358.885C31.7501 361.883 33.0096 364.918 34.545 364.83C36.0901 364.783 37.3696 363.147 38.2967 361.624Z" fill="#256653"/>
<path d="M57.6881 368.486C58.0711 367.771 58.8115 365.408 60.6124 363.884C62.2264 362.26 64.901 361.474 64.8434 361.57C64.9529 361.66 62.3382 360.598 59.4583 361.346C56.5913 361.864 53.4589 364.194 52.8305 365.749C51.1415 368.747 52.4008 371.782 53.9362 371.694C55.4813 371.645 56.7608 370.011 57.6881 368.486Z" fill="#256653"/>
<path d="M23.5288 354.558C23.864 354.158 24.641 352.772 25.9729 352.055C27.2012 351.247 28.9846 351.106 28.9356 351.159C28.9921 351.232 27.4908 350.219 25.5836 350.307C23.7149 350.256 21.44 351.305 20.8401 352.196C19.3835 353.856 19.7733 355.929 20.7491 356.077C21.7257 356.25 22.7451 355.392 23.5288 354.558" fill="#256653"/>
<path d="M25.7665 345.441C25.8434 345.957 25.7806 347.544 26.5396 348.853C27.1642 350.185 28.6105 351.237 28.5963 351.166C28.6822 351.134 26.8727 351.213 25.2942 350.138C23.6738 349.206 22.2842 347.122 22.2399 346.047C21.867 343.871 23.2831 342.31 24.1921 342.693C25.1152 343.055 25.5352 344.321 25.7665 345.441" fill="#256653"/>
<path d="M376.321 230.801C376.321 313.551 309.239 380.632 226.488 380.632C143.74 380.632 76.6578 313.551 76.6578 230.801C76.6578 148.05 143.74 80.9701 226.488 80.9701C309.239 80.9701 376.321 148.05 376.321 230.801" fill="#B75742"/>
<path d="M363.125 230.801C363.125 306.26 301.95 367.434 226.49 367.434C151.029 367.434 89.856 306.26 89.856 230.801C89.856 155.338 151.029 94.166 226.49 94.166C301.95 94.166 363.125 155.338 363.125 230.801Z" fill="#F47458"/>
<path d="M341.386 230.801C341.386 294.256 289.947 345.698 226.489 345.698C163.034 345.698 111.593 294.256 111.593 230.801C111.593 167.344 163.034 115.903 226.489 115.903C289.947 115.903 341.386 167.344 341.386 230.801Z" fill="#FCF5EB"/>
<path d="M312.856 230.801C312.856 278.499 274.19 317.168 226.489 317.168C178.791 317.168 140.123 278.499 140.123 230.801C140.123 183.1 178.791 144.434 226.489 144.434C274.19 144.434 312.856 183.1 312.856 230.801Z" fill="#F47458"/>
<path d="M287.82 230.801C287.82 264.672 260.363 292.131 226.489 292.131C192.618 292.131 165.16 264.672 165.16 230.801C165.16 196.929 192.618 169.47 226.489 169.47C260.363 169.47 287.82 196.929 287.82 230.801Z" fill="#FCF5EB"/>
<path d="M242.13 230.801C242.13 239.438 235.127 246.44 226.489 246.44C217.854 246.44 210.85 239.438 210.85 230.801C210.85 222.163 217.854 215.162 226.489 215.162C235.127 215.162 242.13 222.163 242.13 230.801Z" fill="#B75742"/>
<path d="M322.511 153.172L321.956 143.01L356.353 116.108L354.555 130.82L320.846 157.185L322.511 153.172Z" fill="#184655"/>
<path d="M325.054 156.594L334.782 159.579L369.178 132.676L354.466 130.878L320.756 157.245L325.054 156.594" fill="#12353D"/>
<path d="M225.317 232.097C226.099 233.097 227.543 233.275 228.543 232.491L325.452 156.693L322.618 153.073L225.712 228.871C224.711 229.653 224.534 231.096 225.317 232.097" fill="#184655"/>
<path d="M369.911 260.238C369.911 261.211 370.276 261.997 370.724 261.997C371.172 261.997 371.535 261.211 371.535 260.238C371.535 259.268 371.172 258.48 370.724 258.48C370.276 258.48 369.911 259.268 369.911 260.238Z" fill="#F7A491"/>
<path d="M362.269 374.271C362.481 372.757 362.548 370.431 362.524 367.747H367.827C367.277 371.549 366.845 374.507 366.845 374.507L366.976 375.708L366.979 379.255H355.381C355.381 379.255 357.84 378.152 361.285 375.971C361.54 375.811 362.126 375.297 362.269 374.271Z" fill="#F7A491"/>
<path d="M384.885 373.38L383.344 368.962H387.38C387.592 371.797 387.667 373.712 387.667 373.712L388.695 376.616L389.737 380.069C389.737 380.069 386.305 380.953 384.502 379.959L384.701 376.522L384.885 373.38" fill="#F7A491"/>
<path d="M363.947 277.36C365.347 275.445 371.123 269.902 371.766 269.913C373.634 269.945 379.774 269.947 380.975 270.557L380.918 281.11C380.721 281.996 376.482 295.794 376.729 298.815L376.699 298.843C373.146 302.274 367.545 302.005 364.294 298.246C364.294 298.246 364.309 294.061 363.809 290.242C363.025 284.263 360.47 282.112 363.947 277.36" fill="#F7CC7F"/>
<path d="M373.647 263.972C373.647 263.972 373.485 267.866 373.834 269.341C374.183 270.819 374.649 270.93 371.649 271.378C370.468 271.556 369.33 271.819 369.33 271.819C369.33 271.819 369.64 269.65 369.687 268.735C369.762 267.23 369.34 262.576 369.34 262.576L373.647 263.972" fill="#F7A491"/>
<path d="M371.359 265.91C370.742 266.244 370.164 266.441 369.635 266.523C369.531 264.685 369.34 262.576 369.34 262.576L373.448 263.908C372.972 264.704 372.295 265.405 371.359 265.91Z" fill="#F47458"/>
<path d="M384.706 376.509C386.29 377.213 387.997 376.789 388.682 376.562L388.911 377.177L389.782 380.09C389.782 380.09 386.307 380.953 384.504 379.959L384.706 376.509" fill="#E25A44"/>
<path d="M367.102 380.137H355.042C354.596 380.096 354.487 379.73 354.639 379.507C354.958 379.045 356.368 378.704 357.946 377.967C360.722 378.259 366.542 376.344 366.98 375.701C367.233 376.989 367.349 380.081 367.102 380.137" fill="#E25A44"/>
<path d="M368.014 299.017L375.084 349.298L381.518 372.48H388.522C388.522 372.48 386.898 353.802 383.413 347.186C383.413 347.186 381.892 329.455 380.371 318.612C380.145 316.99 381.27 312.784 380.976 311.696C378.716 303.339 376.731 298.816 376.731 298.816L368.014 299.017" fill="#355389"/>
<path d="M372.384 320.758L370.747 340.072C370.747 340.072 372.421 351.11 371.271 358.435C370.124 365.76 368.604 372.48 368.604 372.48H362.167L360.888 336.007C360.888 336.007 358.413 316.187 359.27 310.812C360.127 305.438 364.293 298.246 364.293 298.246L374.42 298.709C374.42 298.709 377.166 308.548 376.702 311.85C376.356 314.302 372.384 320.758 372.384 320.758" fill="#466EB6"/>
<path d="M382.336 287.63C389.99 285.334 387.941 278.587 387.899 278.844C387.921 278.635 388.643 277.786 388.998 277.06C390.484 274.034 388.524 270.393 386.279 269.132C387.767 265.285 386.289 261.597 383.484 260.059C382.069 259.282 380.878 258.179 379.922 256.902C377.798 254.069 373.936 251.218 369.295 252.148C364.699 253.324 370.851 255.986 370.243 260.404C369.933 262.644 370.821 262.323 372.203 264.124C370.213 267.626 371.363 273.503 374.418 276.17C372.922 282.479 374.529 289.975 382.336 287.63" fill="#184655"/>
<path d="M376.65 256.791C377.557 260.52 372.663 263.227 368.788 263.325C366.269 263.39 365.114 263.13 364.706 260.477C364.046 256.174 365.817 253.551 368.302 252.465C371.507 251.062 375.905 253.716 376.65 256.791" fill="#184655"/>
<path d="M370.964 254.283C370.964 254.283 372.665 254.855 373.572 256.575C374.481 258.295 374.03 263.803 370.251 265.619C366.474 267.435 364.738 263.311 365.012 260.267C365.288 257.224 366.382 253.242 370.964 254.283" fill="#F7A491"/>
<path d="M368.602 262.76L365.92 262.719C365.92 262.719 365.968 263.756 367.146 263.81C368.583 263.874 368.602 262.76 368.602 262.76Z" fill="white"/>
<path d="M374.917 260.742C375.476 257.898 375.255 255.739 373.233 254.698C371.213 253.657 369.483 252.625 367.675 254.497L367.264 254.726C367.264 254.726 370.681 255.671 370.871 257.485C371.063 259.297 372.876 261.453 372.599 262.344C372.317 263.235 371.996 265.011 371.996 265.011L372.744 264.396C372.744 264.396 374.358 263.589 374.917 260.742Z" fill="#184655"/>
<path d="M371.397 259.654C371.116 260.44 371.329 261.228 371.873 261.417C372.418 261.603 373.088 261.119 373.371 260.333C373.654 259.547 373.439 258.757 372.897 258.57C372.35 258.382 371.68 258.868 371.397 259.654" fill="#F7A491"/>
<path d="M84.709 324.392L90.4402 287.863H125.234L119.492 324.392H84.709ZM156.344 89.9458L150.602 126.477H115.76L121.491 89.9458H156.344ZM131.456 248.279L125.714 284.809H90.9191L96.6502 248.279H131.456ZM137.678 208.696L131.936 245.225H97.1293L102.86 208.696H137.678ZM109.549 166.061L115.28 129.529H150.122L144.38 166.061H109.549ZM143.9 169.113L138.158 205.642H103.339L109.07 169.113H143.9ZM84.2301 327.446H119.012L110.711 380.255H114.299L161.117 82.4069H157.529L156.824 86.8938H121.969L122.674 82.4069H119.085L72.222 380.255H75.8101L84.2301 327.446Z" fill="#F7CC7F"/>
<path d="M232.408 33.2554C232.373 33.391 232.082 34.3069 231.638 35.6724L236.291 36.6097C236.338 35.8485 236.386 35.2133 236.443 34.7518C236.824 31.5235 238.339 30.6481 239.119 28.8567C239.902 27.0654 242.928 25.9283 242.552 25.3216C242.181 24.7126 239.362 27.1748 238.684 26.9108C238.006 26.6467 241.096 22.9451 240.723 22.4503C240.04 21.5415 237.104 26.3327 236.759 25.9378C236.414 25.5429 239.205 20.4852 238.087 20.421C236.971 20.3568 235.734 25.895 235.146 25.6499C234.559 25.4073 236.769 20.5495 235.646 19.8239C235.047 19.4361 232.913 28.469 231.963 28.99C231.012 29.5109 229.673 25.9497 228.766 26.2518C227.857 26.5539 232.568 32.6964 232.408 33.2554" fill="#F79C8D"/>
<path d="M189.097 14.0557C189.077 14.1932 188.962 15.1459 188.803 16.5737L184.178 15.5085C184.448 14.7958 184.668 14.1957 184.808 13.7531C185.79 10.6574 184.77 9.23213 184.799 7.27921C184.827 5.3238 182.539 3.04081 183.13 2.64073C183.72 2.24314 185.274 5.64636 185.999 5.68637C186.725 5.72638 185.438 1.07788 185.98 0.782813C186.978 0.235197 187.676 5.81139 188.154 5.59385C188.631 5.3763 188.175 -0.382434 189.219 0.0201512C190.263 0.422737 189.107 5.97642 189.742 5.99642C190.378 6.01893 190.367 0.680292 191.69 0.48275C192.397 0.377727 190.613 9.48717 191.264 10.3524C191.915 11.22 194.605 8.52696 195.305 9.1771C196.007 9.82724 189.184 13.4805 189.097 14.0557Z" fill="#F79C8D"/>
<path d="M236.847 35.2324C236.847 35.2324 231.307 33.9064 231.252 34.3507C230.088 44.0999 229.564 47.6268 229.367 47.7276C228.696 48.0734 219.792 39.9318 218.205 39.3799C217.444 39.1165 216.62 39.16 215.827 39.1829C213.938 39.2402 213.567 39.2471 213.567 39.2471C213.512 39.2493 213.498 39.2516 213.498 39.2516L213.505 41.0265C215.635 42.9411 220.506 71.9369 220.916 71.9186C221.374 71.8957 231.002 74.3187 230.833 73.508C230.805 73.3775 224.306 68.0574 222.46 60.383C221.841 57.8066 221.537 55.0309 221.202 52.6033C223.341 53.6751 231.696 57.786 233.02 57.2432C237.137 55.5531 236.847 35.2324 236.847 35.2324" fill="#F7CC7F"/>
<path d="M253.426 86.7161C253.426 86.7161 262.384 93.7324 262.682 94.9767C263.113 96.7672 271.315 94.4134 269.336 94.0472C268.882 93.9637 267.426 93.5953 267.306 93.5311C266.666 93.1884 258.694 83.5849 258.694 83.5849L253.426 86.7161" fill="#F7A491"/>
<path d="M273.183 94.0472L267.465 93.5824C267.465 93.5824 265.83 94.936 262.689 94.9981C262.689 94.9981 262.185 96.4331 262.425 98.1122C262.466 98.4013 262.515 99.2752 262.806 99.2559C263.862 99.1831 266.679 98.4827 269.885 97.8423C269.885 97.8423 274.196 96.9278 276.685 95.4393C279.176 93.9487 273.183 94.0472 273.183 94.0472" fill="#F7CC7F"/>
<path d="M213.294 69.1174C213.294 69.1174 219.852 70.2183 227.106 68.5221C235.501 66.5581 244.782 64.7419 247.502 66.3225C249.69 67.5968 263.361 88.2517 263.361 88.2517L258.082 92.1046L243.03 75.2492C243.03 75.2492 223.827 82.3341 219.513 81.5502C209.691 79.7618 209.552 71.9167 213.294 69.1174Z" fill="#355389"/>
<path d="M233.801 100.575C233.801 100.575 233.402 111.408 233.154 113.241C232.908 115.068 237.752 120.57 237.133 118.656C236.99 118.217 236.624 116.758 236.624 116.623C236.621 115.897 238.42 103.539 238.42 103.539L233.801 100.575" fill="#F7A491"/>
<path d="M240.23 122.603L236.654 116.788C236.654 116.788 234.687 115.991 233.137 113.256C233.137 113.256 231.638 113.498 230.273 114.505C230.038 114.678 228.438 115.85 228.549 116.12C228.958 117.116 231.141 119.247 233.527 121.573C233.527 121.573 236.906 124.301 239.401 125.783C241.894 127.265 240.23 122.603 240.23 122.603" fill="#F7CC7F"/>
<path d="M244.432 79.2157C242.139 76.1574 223.628 73.2532 223.628 73.2532L218.466 63.3305L207.053 70.3704C207.053 70.3704 208.194 79.4513 209.051 81.8779C210.19 85.1119 217.862 85.2768 222.546 85.2297C226.857 85.1847 234.73 86.065 234.73 86.065L232.068 109.558C232.068 109.558 237.303 110.748 238.774 110.556C238.939 110.534 247.285 83.0195 244.432 79.2157" fill="#466EB6"/>
<path d="M213.559 39.2685L207.121 39.6274C207.121 39.6274 206.974 39.6726 206.929 39.6816C206.403 39.7787 206.879 58.5456 207.349 65.5545C207.814 72.5633 208.764 75.5068 208.764 75.5068C208.764 75.5068 217.498 73.956 220.179 72.9154C221.29 72.4843 223.983 69.1187 223.983 69.1187C223.983 69.1187 221.233 65.4213 219.847 59.4147C218.777 54.7828 217.461 46.5708 216.707 44.8553C214.974 40.9208 213.559 39.2685 213.559 39.2685Z" fill="#184655"/>
<path d="M207.304 33.9417L207.121 39.6277C207.121 39.6277 211.289 46.81 213.429 45.8086C215.225 44.9684 213.632 39.5057 213.632 39.5057C213.632 39.5057 213.319 38.2534 212.888 36.8123C212.587 35.8087 212.336 34.7175 212.357 33.9187C212.4 31.9758 207.304 33.9417 207.304 33.9417Z" fill="#F7A491"/>
<path d="M212.357 33.9187C212.4 31.9758 207.304 33.9417 207.304 33.9417L207.286 34.4965C207.458 34.7567 207.646 34.9753 207.856 35.1434C209.225 36.2576 211.208 36.7571 212.819 36.5729C212.55 35.636 212.338 34.6554 212.357 33.9187" fill="#F47458"/>
<path d="M212.282 20.9756C212.282 20.9756 214.407 24.1768 214.565 26.8733C214.724 29.5674 214.154 31.4062 214.154 31.4062L207.337 23.2574L212.282 20.9756Z" fill="#F7CC7F"/>
<path d="M215.275 26.3191C215.371 27.2626 215.002 28.0722 214.453 28.1286C213.905 28.1849 213.382 27.4644 213.288 26.5209C213.192 25.5775 213.558 24.7678 214.106 24.7114C214.655 24.6551 215.178 25.3756 215.275 26.3191Z" fill="#F48C7F"/>
<path d="M205.131 24.5638C204.975 24.5306 204.992 32.3754 207.264 34.221C209.539 36.0666 213.495 36.2279 214.651 34.3681C215.93 32.3114 214.713 24.0466 211.331 22.2912C207.95 20.5358 205.131 24.5638 205.131 24.5638" fill="#F7A491"/>
<path d="M204.556 19.6967C202.822 21.2175 201.98 22.3298 200.806 25.035C199.363 28.3624 202.226 31.8099 204.629 33.1793C207.032 34.5487 207.232 36.204 207.232 36.204L207.33 35.183C207.379 34.8106 207.364 34.5079 207.3 34.246C207.225 33.9361 207.084 33.6814 206.96 33.4172C206.754 32.9799 206.096 31.4808 205.842 31.0868C205.165 30.0441 205.032 29.8183 205.366 28.8285C205.623 28.0645 205.325 26.3828 205.722 25.1263L208.956 24.4271C208.956 24.4271 210.98 23.9418 212.001 22.7622C214.935 19.3772 209.136 15.6029 204.556 19.6967" fill="#F7CC7F"/>
<path d="M206.134 29.6886C206.532 30.5487 206.448 31.4343 205.949 31.6667C205.448 31.8968 204.72 31.3878 204.322 30.5277C203.923 29.6654 204.007 28.7798 204.506 28.5496C205.007 28.3172 205.735 28.8262 206.134 29.6886Z" fill="#F7A491"/>
<path d="M207.121 39.627C207.121 39.627 200.737 39.3298 199.09 38.5857C198.092 38.1339 189.888 31.5235 189.888 31.5235L189.98 13.8259L184.21 13.3861C184.21 13.3861 181.219 32.949 182.255 35.0896C183.325 37.3003 195.333 46.404 197.734 50.3543C199.118 52.6302 202.003 83.5824 202.439 83.8603C205.547 85.4766 215.142 87.0929 214.915 86.112C208.67 59.0038 207.121 39.627 207.121 39.627" fill="#F7CC7F"/>
<path d="M209.845 31.7323L213.56 30.5515C213.56 30.5515 213.923 31.9911 212.303 32.5573C210.329 33.2459 209.845 31.7323 209.845 31.7323" fill="white"/>
<path d="M368.415 100.603C368.896 100.522 369.136 99.8894 368.891 99.4922C368.499 98.8524 368.116 98.2051 367.731 97.5604C366.878 96.1384 366.802 96.109 366.871 95.9448C367.037 95.5574 367.766 95.7339 368.028 95.8246C368.611 96.0257 369.146 96.3738 369.766 96.4522C370.972 96.6067 371.852 95.6824 371.316 94.513C370.823 93.4417 370.269 92.3899 369.705 91.348C371.002 91.6128 372.291 91.9143 373.588 92.1619C374.049 92.2477 374.363 91.8383 374.179 91.4117C373.767 90.4654 372.546 87.6583 372.144 86.7341C372.039 86.4938 371.423 85.4371 371.637 85.2361C371.828 85.0522 372.715 85.2999 372.919 85.3293C374.047 85.4935 374.446 85.5352 378.121 85.9838C378.56 86.0378 378.925 85.4396 378.663 85.0743C376.099 81.4876 376.545 81.1615 375.63 80.659C375.427 80.5462 375.231 80.6859 375.199 80.8967C375.118 81.4361 375.138 81.571 376.104 83.2822C376.354 83.7235 376.613 84.1599 376.886 84.5889C372.431 83.9588 371.325 83.694 370.722 84.6943C370.305 85.3881 370.507 85.5744 372.831 90.8797C371.487 90.5316 370.129 90.2668 368.768 89.9751C368.251 89.8623 367.871 90.3502 368.094 90.8282C369.874 94.6552 370.077 94.6822 370.141 95.0622C370.144 95.072 370.377 95.1259 370.028 95.0941C369.438 95.0426 368.347 94.182 367.214 94.312C366.219 94.4272 365.27 95.2436 365.495 96.3297C365.625 96.9597 365.861 97.1828 367.047 99.2912C365.878 99.5217 364.74 99.8919 363.576 100.426C363.071 100.659 362.769 100.875 362.453 101.338C362.193 101.713 362.517 102.324 362.98 102.297C364.299 102.223 364.873 101.201 368.415 100.603" fill="#F7CC7F"/>
<path d="M391.813 111.189C391.647 110.067 391.566 108.992 391.598 107.815C391.603 107.592 391.564 107.179 391.79 107.038C392.33 106.703 393.138 107.633 395.216 108.088C396.117 108.285 397.967 108.771 398.359 107.558C398.564 106.937 398.432 106.155 398.429 105.511C398.429 105.02 398.445 104.532 398.452 104.044C401.826 104.997 401.632 105.194 402.398 104.859C402.595 104.773 402.699 104.47 402.582 104.283C402.143 103.589 402.232 103.789 397.993 102.545C397.603 102.431 397.128 102.701 397.13 103.14C397.133 103.802 397.307 106.797 397.27 107.168C397.237 107.145 397.073 107.176 397.039 107.174C395.629 107.124 394.444 106.615 393.169 106.088C392.122 105.657 390.699 105.649 390.372 106.989C390.192 107.716 390.268 109.215 390.374 110.371C388.32 109.714 386.27 109.041 384.213 108.4C383.81 108.272 383.234 108.571 383.265 109.054C383.356 110.394 383.403 111.732 383.436 113.075C382.229 112.678 381.088 112.093 380.052 111.345C379.291 110.794 378.319 111.862 380.34 113.119C381.447 113.859 382.662 114.4 383.966 114.743C384.397 114.857 384.917 114.582 384.917 114.085C384.92 112.758 384.865 111.428 384.784 110.101C386.836 110.729 388.899 111.337 390.951 111.968C391.455 112.122 391.889 111.688 391.813 111.189" fill="#F47458"/>
<path d="M398.919 138.095C398.927 138.504 399.189 138.766 399.574 138.834C401.459 139.174 403.327 139.35 405.223 139.027C406.208 138.86 405.857 137.391 404.893 137.495C403.382 137.66 401.821 137.747 400.297 137.55C400.333 136.416 400.477 135.295 400.758 134.198C400.865 133.782 400.587 133.221 400.1 133.234C398.88 133.268 394.273 133.535 394.234 133.585C394.239 133.577 394.247 133.546 394.231 133.462C394.142 132.972 394.501 131.309 394.464 130.547C394.422 129.693 393.286 129.384 392.599 129.319C391.206 129.183 389.658 130.191 388.302 129.649C386.995 129.128 388.464 127.08 387.409 125.477C386.599 124.243 385.201 124.615 383.001 125.039C382.459 125.144 381.932 125.252 381.66 125.783C381.592 125.914 381.579 126.108 381.702 126.221C382.367 126.839 383.161 126.558 385.175 126.226C385.431 126.184 385.863 126.032 386.094 126.221C386.853 126.852 385.74 128.588 386.639 130.05C387.341 131.189 388.744 131.398 389.936 131.254C390.868 131.142 392.021 130.6 392.969 130.937C392.916 131.747 392.84 132.564 392.851 133.373C392.864 134.258 393.314 134.874 394.205 134.947C395.19 135.028 396.211 134.892 397.196 134.848C397.858 134.816 398.516 134.79 399.178 134.753C398.99 135.856 398.898 136.966 398.919 138.095" fill="#3CB4C5"/>
<path d="M344.653 86.6303C339.385 82.3084 336.7 86.1979 338.217 87.9909C338.867 88.7607 340.021 88.8218 340.603 87.9524C340.868 87.554 340.477 86.8952 339.981 87.0514C339.569 87.1804 339.471 86.714 339.908 86.5329C340.497 86.2907 341.21 86.7208 341.715 86.988C342.894 87.6128 344.434 88.4075 344.635 89.8881C344.934 92.0955 342.688 94.4319 339.36 93.1459C334.561 91.2872 334.789 83.4336 339.879 82.1295C342.65 81.4209 345.625 82.5959 347.325 84.8757C347.658 85.3194 348.251 84.7987 348.072 84.3527C346.714 80.9704 342.396 79.6822 339.12 80.8277C335.763 82.0027 334.09 85.5436 334.592 88.9644C335.118 92.5528 338.185 95.5389 341.93 95.1563C346.035 94.7352 348.337 89.6526 344.653 86.6303" fill="#3CB4C5"/>
<path d="M396.545 150.058C395.684 149.457 393.911 149.086 393.334 150.258C393.066 150.801 393.216 151.473 393.847 151.68C394.465 151.883 395.045 151.551 395.522 152.123C395.932 152.614 395.684 153.319 395.311 153.759C394.172 155.1 391.739 154.689 390.381 153.944C388.217 152.762 387.84 149.666 390.172 148.184C390.902 147.721 391.752 147.62 392.577 147.429C393.03 147.321 393.249 146.6 392.767 146.358C390.915 145.422 388.632 146.623 387.534 148.197C386.382 149.851 386.426 152.206 387.495 153.891C388.688 155.773 391.095 156.71 393.259 156.687C397.759 156.637 399.33 152.005 396.545 150.058" fill="#3C8F7C"/>
<path d="M307.671 288.908C307.532 289.384 307.453 289.54 307.279 289.859C306.148 291.917 303.523 294.856 303.523 294.856L301.495 290.283C301.495 290.283 301.824 288.846 302.398 286.794C304.358 287.306 306.226 287.602 307.671 288.908" fill="#F8A492"/>
<path d="M296.033 284.942C296.033 284.942 307.354 289.816 307.72 289.724C307.956 289.664 312.364 282.286 312.411 275.347C312.432 272.143 309.106 268.287 305.392 269.05C303.523 269.433 303.553 269.954 300.786 273.972C298.021 277.992 296.033 284.942 296.033 284.942Z" fill="#466EB6"/>
<path d="M286.37 372.346L286.639 376.802C286.738 377.366 287.128 378.76 287.128 379.274C287.128 381.202 277.974 377.638 280.026 376.783C280.21 376.706 281.184 376.121 281.244 375.464C281.339 374.453 281.576 372.408 281.576 372.408L286.37 372.346" fill="#F7A491"/>
<path d="M280.047 376.764C280.047 376.764 282.197 377.355 283.298 377.503C284.399 377.648 285.849 376.408 286.629 376.742C287.485 377.113 287.451 380.435 287.451 380.435C287.451 380.435 275.926 381.379 272.686 380.403C271.401 380.015 275.654 378.139 280.047 376.764Z" fill="#3C8F7C"/>
<path d="M305.097 372.346L305.367 376.802C305.465 377.366 305.855 378.76 305.855 379.274C305.855 381.202 296.699 377.638 298.751 376.783C298.937 376.706 300.199 375.684 300.259 375.029C300.353 374.016 300.304 372.408 300.304 372.408L305.097 372.346" fill="#F7A491"/>
<path d="M298.774 376.764C298.774 376.764 300.923 377.355 302.023 377.503C303.124 377.648 304.576 376.408 305.354 376.742C306.211 377.113 306.247 380.435 306.247 380.435C306.247 380.435 294.669 381.538 291.411 380.403C290.148 379.961 294.38 378.139 298.774 376.764Z" fill="#3C8F7C"/>
<path d="M304.247 261.796L305.285 268.36C305.285 268.36 301.33 271.534 299.025 270.866C297.091 270.303 298.417 267.773 298.417 267.773C298.417 267.773 299.447 264.27 299.13 262.434C298.815 260.596 304.247 261.796 304.247 261.796Z" fill="#F7A491"/>
<path d="M303.501 263.779C302.51 264.248 300.55 264.886 299.025 265.041C299.171 264.124 299.254 263.152 299.13 262.434C298.984 261.586 300.064 261.385 301.267 261.415C302.842 261.55 304.247 261.796 304.247 261.796L304.446 263.057C304.146 263.372 303.831 263.625 303.501 263.779" fill="#FE875E"/>
<path d="M309.237 254.225C309.4 254.225 307.673 261.558 305.003 262.82C302.33 264.081 298.346 263.424 297.599 261.449C296.772 259.264 299.788 251.783 303.546 250.832C307.303 249.881 309.237 254.225 309.237 254.225Z" fill="#F7A491"/>
<path d="M306.146 247.487C308.279 248.719 309.26 250.543 309.588 251.291C310.59 251.766 311.803 252.794 312.385 255.566C313.101 258.971 310.556 261.597 307.86 262.387C305.163 263.177 304.748 264.961 304.748 264.961L304.442 263.04C304.442 263.04 305.041 261.37 305.943 260.532C306.845 259.695 305.517 258.476 305.399 257.48C305.309 256.716 305.872 255.227 305.75 253.972C305.75 253.972 304.253 251.7 302.775 251.139C300.259 250.183 303.407 245.909 306.146 247.487" fill="#13375B"/>
<path d="M305.009 258.757C304.66 259.605 304.803 260.444 305.328 260.635C305.855 260.826 306.564 260.295 306.913 259.446C307.262 258.6 307.119 257.759 306.594 257.568C306.069 257.38 305.358 257.911 305.009 258.757Z" fill="#F7A491"/>
<path d="M295.056 291.553L279.505 289.017C279.505 289.017 281.274 284.563 281.908 284.563C282.54 284.563 293.666 289.42 293.666 289.42L294.551 291.198L295.056 291.553" fill="#F8A492"/>
<path d="M303.024 302.217C303.024 302.217 304.574 309.717 303.943 315.403C303.311 321.09 303.261 341.293 303.261 341.293L305.673 373.613L299.948 373.74C299.948 373.74 293.161 341.432 293.287 342.261C293.414 343.092 291.011 319.513 291.011 319.513L299.104 301.506L303.024 302.217" fill="#184655"/>
<path d="M301.505 301.861C301.505 301.861 302.518 308.614 301.252 311.576C299.989 314.538 290.409 343.599 290.283 345.968C290.156 348.339 286.969 374.53 286.969 374.53L280.313 374.342L278.874 345.223L281.887 308.625L284.815 299.373L301.505 301.861Z" fill="#13375B"/>
<path d="M305.285 268.36C305.285 268.36 303.643 269.438 302.111 269.311C300.582 269.187 298.417 267.774 298.417 267.774L298.717 266.754C298.717 266.754 302.679 266.178 302.777 266.24C302.878 266.302 305.285 268.36 305.285 268.36" fill="#F7A491"/>
<path d="M287.79 284.342C287.79 284.342 281.908 289.893 279.253 288.947C276.597 287.998 275.498 284.76 281.977 280.018C287.775 275.777 287.79 284.342 287.79 284.342Z" fill="#F8A492"/>
<path d="M283.804 291.198C284.678 286.443 291.011 271.648 291.516 268.924C291.762 267.598 295.178 267.57 298.434 267.741C301.869 267.925 305.285 268.36 305.285 268.36C305.285 268.36 308.327 268.859 309.665 270.114C311.004 271.367 311.361 274.837 309.436 281.423C307.917 286.621 306.033 289.476 305.101 293.262C304.913 294.532 304.752 295.785 304.536 297.25C304.195 302.911 304.54 310.392 304.54 310.392C304.54 310.392 287.976 313.827 281.78 308.614C281.78 308.614 282.908 296.068 283.804 291.198Z" fill="#50BFA5"/>
<path d="M279.58 280.975C279.58 280.975 286.08 286.34 286.46 286.34C286.704 286.34 295.735 279.696 297.819 274.239C298.972 271.222 296.554 267.846 293.793 267.857C291.88 267.866 291.028 268.358 287.235 271.558C283.442 274.755 279.58 280.975 279.58 280.975Z" fill="#466EB6"/>
<path d="M298.061 258.277L300.501 259.613C300.501 259.613 299.862 260.639 298.77 260.087C297.438 259.412 298.061 258.277 298.061 258.277Z" fill="white"/>
<path d="M143.585 286.869C143.394 286.323 146.055 285.882 146.197 285.327C146.338 284.774 142.837 284.732 142.711 284.243C142.48 283.348 146.549 284.055 146.469 283.637C146.389 283.217 142.229 282.282 142.678 281.564C143.128 280.844 146.891 282.984 147.005 282.496C147.119 282.007 143.327 280.821 143.395 279.752C143.431 279.18 149.619 282.603 150.336 282.292C151.054 281.98 149.565 279.294 150.136 278.895C150.707 278.497 152.347 284.355 152.742 284.552C153.135 284.747 161.495 289.518 164.47 290.277C164.831 289.281 169.091 283.112 169.41 282.17C171.079 283.359 172.791 283.522 174.513 284.603C173.265 287.73 167.537 296.413 166.668 296.805C164.021 298.002 153.782 289.51 151.739 288.056C149.693 286.601 148.523 287.073 147.14 286.614C145.756 286.154 143.776 287.417 143.585 286.869" fill="#F7A491"/>
<path d="M200.39 264.214C198.859 260.132 194.854 257.66 190.686 258.423C189.406 256.358 187.273 254.827 184.953 254.33C180.376 253.349 174.186 255.156 174.353 260.003C172.577 263.259 172.509 267.915 175.226 270.391C174.281 274.768 178.381 279.002 183.712 278.848C185.568 281.909 189.105 283.877 192.621 283.457C193.466 283.357 194.753 283.147 194.967 283.198C194.697 283.149 200.615 287.685 205.629 280.709C210.745 273.59 207.151 264.974 200.39 264.214" fill="#184655"/>
<path d="M186.021 303.585C186.173 303.65 184.01 306.436 181.902 308.408C180.203 310.542 178.609 313.067 178.06 315.819C177.226 320.004 177.92 340.68 177.194 342.151C170.958 348.249 166.442 363.549 165.174 368.218C164.927 369.129 164.426 369.947 163.733 370.585L164.01 375.86L167.109 378.715C167.109 378.715 166.419 374.417 167.797 371.227C167.797 371.227 183.498 347.45 184.43 345.632C186.211 340.455 192.696 313.936 192.696 313.936L194.2 307.839L186.021 303.585" fill="#F7A491"/>
<path d="M160.338 372.283C160.338 372.283 162.299 375.305 162.467 376.483C162.634 377.661 163.679 380.332 164.834 380.501C165.097 380.54 169.59 380.87 169.557 380.308C169.532 379.878 167.906 379.265 167.151 378.745C165.845 377.843 163.819 370.499 163.819 370.499C163.819 370.499 160.423 371.341 160.338 372.283" fill="#355389"/>
<path d="M186.677 271.29C186.677 271.29 193.248 259.472 194.847 256.96C196.445 254.448 200.611 244.465 200.758 244.073C200.908 243.679 197.891 238.954 198.563 238.794C199.238 238.631 199.983 241.282 200.701 240.968C201.42 240.651 203.519 234.264 203.928 234.581C204.693 235.174 202.797 238.543 203.204 238.755C203.613 238.967 204.849 235.048 205.652 235.164C206.453 235.279 204.127 238.755 204.352 239.061C204.575 239.37 206.991 236.093 207.428 236.791C207.665 237.17 205.207 239.65 205.68 239.884C206.151 240.115 208.338 238.515 208.569 238.976C208.803 239.438 206.547 240.07 205.873 241.315C205.2 242.559 204.052 243.097 203.575 245.401C203.097 247.706 202.386 256.045 199.942 260.205C197.501 264.366 192.131 273.573 192.131 273.573L186.677 271.29Z" fill="#F79C8D"/>
<path d="M199.441 312.75C199.441 312.75 209.554 334.373 209.619 338.174C209.674 341.434 207.852 359.718 208.361 374.943C208.378 375.494 209.075 376.224 210.088 376.689C210.659 376.95 213.414 378.18 213.414 378.18L213.791 379.165L204.307 378.49L204.172 375.901C204.172 375.901 200.396 353.124 200.782 346.681C200.842 345.668 201.334 339.611 201.334 339.611L189.928 317.59L197.1 308.162L199.441 312.75Z" fill="#F7A491"/>
<path d="M190.726 277.688C190.998 276.026 193.571 271.864 193.978 270.845C193.978 270.845 190.994 267.054 188.573 267.341C188.573 267.341 185.319 272.736 183.469 272.916C181.619 273.098 175.111 273.381 173.971 274.072C172.83 274.764 167.99 282.196 167.99 282.196C167.99 282.196 172.339 286.638 174.089 286.627C174.089 286.627 175.019 284.796 175.39 284.395C175.653 285.248 179.706 298.377 179.7 301.352L179.731 301.377C183.52 304.448 189.047 303.737 191.968 299.803C191.968 299.803 191.625 295.71 191.82 291.936C192.125 286.023 193.322 282.881 190.726 277.688" fill="#3C8F7C"/>
<path d="M211.818 328.481L191.968 299.803C190.744 300.3 189.587 300.73 188.278 300.983C185.432 301.534 182.582 301.444 179.7 301.351C179.7 301.459 179.694 301.553 179.683 301.632C179.352 303.997 176.216 307.657 175.57 314.832C174.836 322.974 175.28 337.12 175.528 338.05C188.725 336.446 208.074 332.411 211.818 328.481" fill="#F7CC7F"/>
<path d="M180.121 268.135C180.121 268.135 180.819 271.896 180.679 273.378C180.54 274.863 181.212 279.641 184.226 279.658C187.241 279.673 184.799 273.58 184.515 272.128C184.231 270.673 184.164 266.176 184.164 266.176L180.121 268.135Z" fill="#F7A491"/>
<path d="M184.226 268.431C184.179 267.202 184.164 266.176 184.164 266.176L180.121 268.135C180.121 268.135 180.264 268.904 180.407 269.883C182.177 270.254 183.459 269.572 184.226 268.431Z" fill="#F47458"/>
<path d="M178.643 257.759C178.643 257.759 177.086 258.658 176.516 260.609C175.947 262.561 176.595 267.594 180.619 268.808C184.643 270.022 186.386 266.037 185.558 262.92C184.729 259.804 182.926 255.859 178.643 257.759" fill="#F7A491"/>
<path d="M186.061 261.712C185.982 262.55 185.539 263.19 185.07 263.141C184.602 263.094 184.287 262.376 184.366 261.541C184.444 260.704 184.888 260.063 185.356 260.11C185.824 260.16 186.14 260.877 186.061 261.712Z" fill="#F7A491"/>
<path d="M177.675 264.938C178.148 265.67 178.146 266.533 177.671 266.865C177.196 267.197 176.428 266.874 175.955 266.144C175.483 265.411 175.484 264.548 175.959 264.216C176.434 263.884 177.202 264.207 177.675 264.938Z" fill="#F7A491"/>
<path d="M204.275 380.296H216.256C216.699 380.255 216.808 379.897 216.654 379.677C216.337 379.225 214.939 378.891 213.369 378.167C210.612 378.454 204.611 376.571 204.176 375.939C203.926 377.205 204.029 380.242 204.275 380.296Z" fill="#355389"/>
<path d="M180.695 265.771L183.267 265.013C183.267 265.013 183.5 266.026 182.379 266.392C181.012 266.84 180.695 265.771 180.695 265.771Z" fill="white"/>
<path d="M115.436 206.404C115.771 206.419 116.689 206.726 118.031 209.261C119.745 212.502 122.249 222.285 122.249 222.285L114.773 225.07L113.812 223.026L112.23 207.306C112.23 207.306 115.343 206.4 115.436 206.404Z" fill="#3C8F7C"/>
<path d="M105.553 204.995C107.691 204.997 112.981 205.621 115.436 206.407C115.436 206.407 117.24 221.908 113.812 233.688C113.045 236.324 114.447 244.619 114.447 244.619L92.2931 244.326C92.2931 244.326 94.9178 224.275 93.9289 221.037C92.9403 217.798 92.9168 206.509 92.9168 206.509C92.9168 206.509 93.0686 206.486 97.8941 205.653C100.145 205.263 103.271 204.991 105.553 204.995" fill="#96D9C9"/>
<path d="M102.972 273.391C102.972 273.391 103.462 279.048 104.363 280.615C105.264 282.181 104.315 284.845 104.268 285.209C104.221 285.575 102.371 286.098 99.4306 285.783C96.49 285.471 96.5373 284.792 96.7746 283.695C97.0117 282.599 98.5766 281.189 98.6715 280.144C98.7664 279.101 97.7705 275.34 97.7705 275.34L102.972 273.391Z" fill="#F7A491"/>
<path d="M111.947 239.95C111.947 239.95 127.24 239.1 130.655 241.169C134.07 243.238 128.229 253.387 128.229 253.387C128.229 253.387 117.587 252.897 96.7444 254.101C91.8088 254.385 91.3832 241.231 92.3061 240.141C93.2292 239.053 111.947 239.95 111.947 239.95Z" fill="#355389"/>
<path d="M99.0637 286.222C96.0357 285.901 96.4103 284.412 96.6545 283.284C96.8074 282.577 97.6758 281.744 98.1937 280.956C98.4644 281.17 98.9048 281.551 100.22 281.939C101.585 282.344 103.457 281.545 104.65 281.046C105.075 282.626 105.094 284.644 105.054 284.95C105.005 285.327 102.092 286.546 99.0637 286.222Z" fill="#13375B"/>
<path d="M100.735 250.89C101.346 255.514 104.371 278.529 104.371 278.529L97.3521 279.399C97.3521 279.399 88.7203 249.359 89.1628 244.763C89.6055 240.169 92.8365 239.781 92.8365 239.781C92.8365 239.781 99.118 238.652 100.735 250.89Z" fill="#466EB6"/>
<path d="M92.6756 208.233C94.7469 207.456 95.7601 226.119 96.0396 233.801C99.7076 234.155 106.101 233.803 107.693 233.684C108.442 233.628 110.168 232.996 110.913 232.898C111.676 232.799 112.367 232.745 112.743 232.812C112.88 232.835 116.704 234.399 117.031 234.742C117.436 235.168 118.533 236.241 118.348 236.703C118.163 237.168 116.239 235.412 116.239 235.412L115.299 234.883C116.469 236.027 118.702 237.532 118.38 238.081C118.066 238.616 116.053 237.089 114.617 236.046C115.848 237.157 117.378 239.149 117.025 239.458C116.709 239.738 114.969 237.434 113.11 236.77C112.421 236.523 111.734 237.205 111.192 237.288C110.794 237.348 110.178 237.477 109.788 237.365L107.775 236.795C107.089 236.858 107.072 237.262 106.379 237.41C105.575 237.581 104.256 237.761 103.232 238.012C97.3367 239.451 95.3701 240.122 93.5651 240.119C88.0975 240.115 87.7803 210.069 92.6756 208.233" fill="#F7A491"/>
<path d="M88.7446 225.755C88.3566 217.886 88.4133 208.188 92.8242 206.533C94.5648 205.88 97.6328 209.805 97.0811 225.916C94.7263 226.108 91.2693 226.265 88.7446 225.755Z" fill="#3C8F7C"/>
<path d="M123.497 278.229C123.497 278.229 122.885 280.193 123.982 281.493C125.078 282.791 129.635 284.066 130.234 284.768C130.832 285.473 130.786 286.07 130.786 286.07L117.996 285.719L118.136 281.855L118.725 279.08L123.497 278.229" fill="#F7A491"/>
<path d="M124.777 282.14C124.777 282.14 121.491 283.47 119.903 282.682C118.316 281.896 118.364 281.678 117.904 281.971C117.445 282.264 117.28 285.886 117.28 285.886L131.663 286.308C132.664 286.284 133.17 285.548 132.356 284.916C131.799 284.483 131.155 284.194 130.788 283.984C129.663 283.34 124.777 282.14 124.777 282.14Z" fill="#13375B"/>
<path d="M123.013 243.574C124.001 241.495 126.25 238.785 130.206 240.417C133.978 241.972 134.991 245.797 133.801 249.712C132.611 253.627 124.774 276.647 124.5 279.812L118.243 279.853C118.243 279.853 119.38 261.627 119.659 257.221C119.928 252.983 121.302 247.174 123.013 243.574Z" fill="#466EB6"/>
<path d="M133.17 222.373H112.254C111.701 222.373 111.202 222.709 110.992 223.223L104.552 238.984H93.0206C92.698 238.984 92.4365 239.246 92.4365 239.569C92.4365 239.892 92.698 240.156 93.0206 240.156H125.84C126.742 240.156 127.56 239.623 127.93 238.798L134.415 224.303C134.82 223.397 134.16 222.373 133.17 222.373Z" fill="#12353D"/>
<path d="M121.909 231.553C121.768 232.259 121.152 232.733 120.535 232.608C119.917 232.484 119.53 231.812 119.672 231.103C119.813 230.394 120.428 229.921 121.046 230.045C121.664 230.169 122.05 230.844 121.909 231.553Z" fill="white"/>
<path d="M110.524 186.06C109.894 185.848 109.273 185.608 108.673 185.319C107.996 184.994 107.118 184.61 106.564 184.525C105.396 184.345 103.391 184.465 102.284 185.666C100.904 187.163 98.4525 185.936 98.9461 193.775C99.5053 202.648 104.439 201.673 104.558 201.523C104.678 201.374 108.958 195.848 108.958 195.848C108.958 195.848 110.455 199.12 110.455 199C110.455 198.885 118.096 188.611 110.524 186.06" fill="#0E2E35"/>
<path d="M106.779 202.179L107.205 205.349C107.205 205.349 108.158 209.917 106.931 210.797C105.704 211.677 101.712 205.218 101.712 205.218L102.133 197.186L106.779 202.179Z" fill="#F7A491"/>
<path d="M101.997 199.789C103.011 202.53 105.426 204.213 107.14 204.867L106.779 202.179L102.133 197.186L101.997 199.789Z" fill="#F47458"/>
<path d="M106.527 188.444C109.127 188.024 111.46 190.114 111.395 192.719C111.367 193.85 111.274 195.263 111.039 196.786C110.473 200.446 107.976 203.667 106.326 203.38C104.675 203.091 100.521 199.934 101.252 194.728C101.703 191.511 103.797 188.885 106.527 188.444Z" fill="#F7A491"/>
<path d="M102.397 195.349C102.258 196.154 101.614 196.713 100.958 196.599C100.302 196.484 99.8831 195.739 100.022 194.935C100.162 194.13 100.806 193.571 101.462 193.685C102.118 193.798 102.537 194.543 102.397 195.349Z" fill="#F7A491"/>
<path d="M101.462 193.685C101.462 193.685 103.458 194.182 104.199 192.897C104.94 191.611 107.589 188.842 110.956 189.99C114.323 191.14 107.993 187.197 107.724 187.197C107.454 187.197 104.222 187.176 104.222 187.176C104.222 187.176 101.73 189.226 101.64 189.45C101.55 189.675 100.832 192.13 100.832 192.13L101.462 193.685" fill="#0E2E35"/>
<path d="M105.114 199.041L108.746 199.735C108.746 199.735 108.4 201.104 106.794 200.844C104.835 200.53 105.114 199.041 105.114 199.041" fill="white"/>
<path d="M419.846 380.054H41.0991C40.3574 380.054 39.7561 380.655 39.7561 381.397C39.7561 382.138 40.3574 382.739 41.0991 382.739H419.846C420.588 382.739 421.188 382.138 421.188 381.397C421.188 380.655 420.588 380.054 419.846 380.054Z" fill="#12353D"/>
<path d="M342.328 282.498C342.136 281.952 344.799 281.508 344.94 280.956C345.082 280.401 341.579 280.358 341.454 279.872C341.225 278.977 345.292 279.684 345.211 279.266C345.132 278.846 340.971 277.91 341.421 277.191C341.871 276.473 345.634 278.613 345.747 278.124C345.864 277.636 342.069 276.45 342.139 275.381C342.175 274.809 348.362 278.229 349.08 277.919C349.797 277.608 348.307 274.922 348.879 274.524C349.45 274.126 351.092 279.983 351.484 280.178C351.877 280.373 360.239 285.145 363.213 285.905C363.574 284.907 364.354 283.564 364.675 282.622C366.342 283.811 367.582 284.406 369.304 285.49C368.055 288.617 366.28 292.041 365.411 292.433C362.763 293.628 352.525 285.138 350.482 283.684C348.436 282.23 347.266 282.701 345.883 282.243C344.498 281.782 342.519 283.046 342.328 282.498" fill="#F7A491"/>
<path d="M373.214 276.535C374.003 279.793 369.785 287.053 369.785 287.053C369.785 287.053 363.777 284.218 362.719 282.995C362.719 282.995 366.802 275.95 367.071 275.522C368.281 273.582 369.925 273.58 370.998 273.706C371.86 273.807 373.214 276.535 373.214 276.535" fill="#EAB765"/>
</svg>
