<svg width="196" height="150" viewBox="0 0 196 150" fill="none" xmlns="http://www.w3.org/2000/svg">
<path d="M41.0191 125.845C-39.5507 67.6817 16.9022 17.7136 55.1999 0C63.9784 13.6259 95.1375 35.2132 149.545 12.5553C203.953 -10.1026 199.226 52.1677 190.062 86.135C173.952 123.606 121.589 184.008 41.0191 125.845Z" fill="#E0F6F6"/>
<path d="M121.822 59.474C124.175 58.5297 129.693 56.0201 129.857 44.2123C130.021 32.4084 124.473 28.9684 116.509 23.86H116.571C114.751 22.3126 112.981 21.1699 112.35 19.432C111.057 15.8552 110.985 5.67803 110.985 5.67803H99.6874C99.6874 5.67803 99.6153 15.8552 98.3218 19.432C97.693 21.1699 95.9209 22.3126 94.1008 23.86H94.1989C86.2354 28.9803 80.6868 32.4242 80.865 44.2321C81.0452 56.0399 86.5658 58.5436 88.9206 59.4859C92.5529 60.9381 91.6218 62.2732 91.7139 64.5685C91.808 66.8658 82.6552 69.1611 82.1185 75.2297C81.6159 80.9035 81.7401 114.726 81.7581 119.104H81.7461V128.575C81.7461 128.575 81.7461 135.122 88.3119 134.945C94.0767 134.791 92.9053 130.079 95.979 130.202C99.0547 130.325 98.0675 132.105 100.08 133.646C102.433 135.451 108.374 135.451 110.727 133.646C112.739 132.105 111.752 130.325 114.825 130.202C117.901 130.079 116.728 134.791 122.495 134.945C129.06 135.122 129.06 128.575 129.06 128.575V119.104H129.058C129.07 114.805 129.152 80.8916 128.644 75.2118C128.099 69.1433 119.415 66.8579 119.507 64.5625C119.597 62.2653 118.191 60.9301 121.822 59.474" fill="#AADBFB"/>
<path d="M121.822 59.4743C124.174 58.5299 129.693 56.0204 129.857 44.2125C130.021 32.4086 124.473 28.9686 116.509 23.8602H116.571C114.753 22.3128 112.981 21.1701 112.35 19.4323C111.057 15.8554 110.985 5.6783 110.985 5.6783H104.695C104.695 5.6783 104.765 15.8554 106.061 19.4323C106.69 21.1701 108.462 22.3128 110.282 23.8602H110.218C118.181 28.9686 123.732 32.4086 123.568 44.2125C123.404 56.0204 117.883 58.5299 115.53 59.4743C111.9 60.9304 113.306 62.2655 113.215 64.5628C113.125 66.8581 121.808 69.1435 122.352 75.2101C122.863 80.8919 122.779 114.806 122.767 119.105H122.771V128.576C122.771 128.576 122.769 132.635 119.563 134.273C120.282 134.654 121.217 134.912 122.494 134.946C129.06 135.122 129.06 128.576 129.06 128.576V119.105H129.058C129.07 114.806 129.152 80.8919 128.644 75.2101C128.099 69.1435 119.415 66.8581 119.505 64.5628C119.597 62.2655 118.191 60.9304 121.822 59.4743" fill="#85C2F9"/>
<path d="M122.495 131.651C116.728 131.496 117.901 126.834 114.826 126.957C111.752 127.078 112.739 128.837 110.727 130.365C108.374 132.151 102.433 132.151 100.08 130.365C98.0676 128.837 99.0548 127.078 95.9791 126.957C92.9055 126.834 94.0769 131.496 88.312 131.651C81.7442 131.825 81.7442 125.346 81.7442 125.346V128.593C81.7442 128.593 81.7442 135.071 88.312 134.896C94.0769 134.741 92.9055 130.081 95.9791 130.202C99.0548 130.323 98.0676 132.083 100.08 133.611C102.433 135.396 108.374 135.396 110.727 133.611C112.739 132.083 111.752 130.323 114.826 130.202C117.901 130.081 116.728 134.741 122.495 134.896C129.06 135.071 129.06 128.593 129.06 128.593V125.346C129.06 125.346 129.06 131.825 122.495 131.651" fill="#85C2F9"/>
<path d="M111.057 13.2666H99.277C98.3479 13.2666 97.595 12.5207 97.595 11.6002V5.66847C97.595 4.74796 98.3479 4.00005 99.277 4.00005H111.057C111.988 4.00005 112.741 4.74796 112.741 5.66847V11.6002C112.741 12.5207 111.988 13.2666 111.057 13.2666Z" fill="#304298"/>
<path d="M111.752 15.395H98.7203C98.3939 15.395 98.1276 15.1312 98.1276 14.8078V14.6074C98.1276 14.2841 98.3939 14.0202 98.7203 14.0202H111.752C112.078 14.0202 112.345 14.2841 112.345 14.6074V14.8078C112.345 15.1312 112.078 15.395 111.752 15.395Z" fill="#304298"/>
<path d="M99.9538 13.2666H98.9186V5.33716H99.9538V13.2666Z" fill="#223466"/>
<path d="M102.188 13.2666H101.153V5.33716H102.188V13.2666Z" fill="#223466"/>
<path d="M104.754 13.2666H103.718V5.33716H104.754V13.2666Z" fill="#223466"/>
<path d="M107.237 13.2666H106.201V5.33716H107.237V13.2666Z" fill="#223466"/>
<path d="M109.513 13.2666H108.478V5.33716H109.513V13.2666Z" fill="#223466"/>
<path d="M111.333 13.2666H110.3V5.33716H111.333V13.2666Z" fill="#223466"/>
<path d="M111.341 4.88086H98.9065C98.7403 4.88086 98.6041 4.74596 98.6041 4.58328C98.6041 4.41862 98.7403 4.28373 98.9065 4.28373H111.341C111.507 4.28373 111.644 4.41862 111.644 4.58328C111.644 4.74596 111.507 4.88086 111.341 4.88086Z" fill="#405CC6"/>
<path d="M97.7391 38.4932C96.9922 38.4912 96.1933 38.4694 95.3403 38.4237C93.446 38.3206 91.5498 38.2571 89.6535 38.1718C88.6383 38.1281 87.4028 37.898 87.0264 36.7017C86.8702 36.2078 86.9102 35.6523 86.9863 35.1286C87.9094 28.7763 92.5149 26.973 96.9982 26.973C98.3579 26.973 99.7055 27.1396 100.937 27.3935C103.774 27.9808 106.59 29.7504 108.109 32.8392C108.594 33.8252 108.652 38.4932 97.7391 38.4932" fill="#DBF0FD"/>
<path d="M92.3308 122.951C90.805 122.951 88.9007 121.929 88.5804 119.255C88.3341 117.21 88.0477 82.2129 88.5083 78.3087C89.0289 73.8748 91.4978 68.1673 95.4385 67.5761C95.9071 67.5066 96.3756 67.4471 96.8222 67.4471C97.9475 67.4471 98.9287 67.8241 99.3852 69.3556C99.9018 71.0875 96.3436 74.3807 95.6448 78.6162C95.5006 79.499 95.833 117.642 95.5807 119.146C95.3284 120.65 94.6476 122.14 93.5683 122.685C93.2279 122.858 92.7974 122.951 92.3308 122.951" fill="#DBF0FD"/>
<path d="M101.247 23.5742C101.047 23.5722 100.847 23.5306 100.661 23.4334C99.9637 23.0763 99.7434 22.1716 99.8415 21.3999C99.9376 20.6282 100.266 19.8981 100.354 19.1244C100.454 18.2397 100.532 16.601 101.664 16.601C101.81 16.601 101.974 16.6288 102.158 16.6883C103.414 17.097 103.238 18.934 103.266 19.9319C103.292 20.8147 103.308 21.7431 102.889 22.5228C102.567 23.1179 101.898 23.5742 101.247 23.5742" fill="#DBF0FD"/>
<path d="M113.284 61.018H100.416C100.416 61.018 109.055 60.0915 113.926 57.7684C118.798 55.4473 121.259 53.1659 122.687 51.0511C124.115 48.9364 125.961 49.0098 125.961 49.0098L124.04 54.3384L116.141 61.5913L113.284 61.018" fill="#85C2F9"/>
</svg>
