<svg width="95" height="79" viewBox="0 0 95 79" fill="none" xmlns="http://www.w3.org/2000/svg">
<path d="M3 78.5L0.138107 73.4857L5.91154 73.5144L3 78.5ZM95 1.5C94.6792 1.5 94.355 1.50139 94.0274 1.50421L94.0188 0.504251C94.3492 0.501401 94.6763 0.5 95 0.5V1.5ZM92.0248 1.53872C91.3802 1.55528 90.7243 1.57733 90.0579 1.60518L90.0161 0.606056C90.6879 0.577979 91.3491 0.555749 91.9991 0.539045L92.0248 1.53872ZM88.072 1.70394C87.4178 1.74162 86.7547 1.78485 86.0834 1.83393L86.0105 0.836591C86.6869 0.787139 87.3552 0.743564 88.0145 0.70559L88.072 1.70394ZM84.1137 1.9929C83.4574 2.05084 82.7942 2.11435 82.1246 2.18369L82.0216 1.189C82.6962 1.11915 83.3645 1.05515 84.0257 0.99677L84.1137 1.9929ZM80.1613 2.40177C79.508 2.47926 78.8494 2.56231 78.1859 2.65113L78.0532 1.65998C78.7217 1.57048 79.3853 1.48681 80.0435 1.40873L80.1613 2.40177ZM76.222 2.92905C75.5719 3.02604 74.9177 3.12862 74.2598 3.23698L74.0973 2.25028C74.7602 2.14109 75.4194 2.03773 76.0745 1.94L76.222 2.92905ZM72.3012 3.57499C71.6545 3.69172 71.0047 3.81411 70.3522 3.94232L70.1594 2.96109C70.817 2.83187 71.4718 2.70853 72.1236 2.59089L72.3012 3.57499ZM68.4035 4.34122C67.7605 4.47815 67.1153 4.62081 66.4685 4.76939L66.2446 3.79477C66.8967 3.64498 67.5471 3.50117 68.1952 3.36315L68.4035 4.34122ZM64.5333 5.23048C63.8947 5.3882 63.2547 5.55177 62.6138 5.72137L62.358 4.75465C63.0043 4.58362 63.6496 4.41867 64.2936 4.25965L64.5333 5.23048ZM60.6958 6.24638C60.0623 6.42561 59.4283 6.61084 58.794 6.80222L58.5051 5.84486C59.145 5.65178 59.7846 5.46493 60.4235 5.28415L60.6958 6.24638ZM56.8965 7.39325C56.2692 7.59479 55.6421 7.80249 55.0155 8.0165L54.6923 7.07017C55.3247 6.85417 55.9576 6.64456 56.5906 6.44118L56.8965 7.39325ZM53.142 8.67594C52.5222 8.90066 51.9032 9.13172 51.2854 9.36926L50.9266 8.43586C51.5504 8.196 52.1754 7.9627 52.8011 7.73583L53.142 8.67594ZM49.4398 10.0997C48.829 10.3485 48.2196 10.6039 47.612 10.8658L47.2161 9.94756C47.83 9.68286 48.4456 9.42492 49.0626 9.1736L49.4398 10.0997ZM45.7987 11.6701C45.1984 11.9439 44.6002 12.2244 44.0044 12.5118L43.57 11.611C44.1723 11.3205 44.777 11.037 45.3837 10.7603L45.7987 11.6701ZM42.2283 13.3925C41.6404 13.6922 41.0553 13.9988 40.4731 14.3124L39.9988 13.432C40.5878 13.1148 41.1796 12.8047 41.7741 12.5016L42.2283 13.3925ZM38.7397 15.2724C38.1663 15.5987 37.5962 15.9322 37.0296 16.2729L36.5142 15.416C37.0878 15.0711 37.6648 14.7335 38.245 14.4033L38.7397 15.2724ZM35.3451 17.3143C34.7884 17.6681 34.2355 18.0292 33.6867 18.3977L33.1292 17.5676C33.685 17.1943 34.245 16.8285 34.8088 16.4703L35.3451 17.3143ZM32.058 19.5223C31.5202 19.9041 30.9868 20.2934 30.458 20.6903L29.8577 19.8906C30.3936 19.4882 30.9342 19.0937 31.4791 18.7069L32.058 19.5223ZM28.8926 21.899C28.3762 22.3092 27.8646 22.727 27.3583 23.1526L26.7148 22.3872C27.2283 21.9555 27.7471 21.5318 28.2707 21.1159L28.8926 21.899ZM25.8641 24.4454C25.3714 24.8841 24.8842 25.3307 24.4027 25.7852L23.7162 25.0579C24.2049 24.5967 24.6992 24.1437 25.1991 23.6986L25.8641 24.4454ZM22.9877 27.1606C22.5219 27.627 22.062 28.1014 21.6083 28.5838L20.8798 27.8987C21.3404 27.4089 21.8073 26.9274 22.2802 26.4539L22.9877 27.1606ZM20.2784 30.0413C19.8421 30.5343 19.4122 31.0354 18.9888 31.5446L18.2199 30.9053C18.6499 30.3881 19.0865 29.8793 19.5296 29.3786L20.2784 30.0413ZM17.7504 33.0818C17.3461 33.5999 16.9484 34.1261 16.5577 34.6603L15.7505 34.07C16.1474 33.5273 16.5513 32.9929 16.962 32.4666L17.7504 33.0818ZM15.4159 36.2742C15.0457 36.8152 14.6825 37.3641 14.3265 37.9212L13.4839 37.3826C13.8456 36.8167 14.2146 36.259 14.5906 35.7095L15.4159 36.2742ZM13.285 39.6084C12.9507 40.1696 12.6236 40.7385 12.3038 41.3155L11.4292 40.8307C11.754 40.2446 12.0863 39.6667 12.4259 39.0966L13.285 39.6084ZM11.3666 43.0703C11.0688 43.6494 10.7783 44.2361 10.4952 44.8306L9.59236 44.4007C9.87982 43.797 10.1748 43.2011 10.4772 42.6131L11.3666 43.0703ZM9.66994 46.6345C9.40695 47.2333 9.15132 47.8397 8.90326 48.4537L7.97606 48.0792C8.22785 47.4559 8.48735 46.8403 8.75436 46.2324L9.66994 46.6345ZM8.19078 50.2954C7.96199 50.9136 7.74071 51.5394 7.52711 52.1728L6.57955 51.8532C6.79624 51.2107 7.02077 50.5757 7.25294 49.9484L8.19078 50.2954ZM6.9265 54.0405C6.73368 54.6703 6.5483 55.3074 6.37054 55.9519L5.40654 55.686C5.58677 55.0326 5.77475 54.3865 5.97031 53.7478L6.9265 54.0405ZM5.87211 57.8595C5.71547 58.4937 5.56606 59.1348 5.42404 59.7829L4.44722 59.5688C4.59112 58.9122 4.74252 58.2625 4.90127 57.6197L5.87211 57.8595ZM5.02093 61.7447C4.89901 62.3796 4.78404 63.021 4.67615 63.6689L3.68973 63.5047C3.79896 62.8487 3.91539 62.1992 4.03887 61.5561L5.02093 61.7447ZM4.37385 65.6323C4.28161 66.2839 4.19639 66.9419 4.11831 67.6063L3.12515 67.4896C3.20413 66.8174 3.29037 66.1516 3.38373 65.4922L4.37385 65.6323ZM3.9115 69.5576C3.84937 70.2141 3.79409 70.8768 3.74579 71.5457L2.74839 71.4737C2.79722 70.7975 2.85311 70.1274 2.91594 69.4634L3.9115 69.5576ZM3.62429 73.5247C3.59137 74.1738 3.5649 74.8286 3.54499 75.4891L2.54544 75.4589C2.56556 74.7917 2.59231 74.1301 2.62557 73.4741L3.62429 73.5247Z" fill="black"/>
</svg>
