<svg width="95" height="79" viewBox="0 0 95 79" fill="none" xmlns="http://www.w3.org/2000/svg">
<path d="M92 78.5L94.8619 73.4857L89.0885 73.5144L92 78.5ZM0 1.5C0.320766 1.5 0.644997 1.50139 0.972584 1.50421L0.981207 0.504251C0.650757 0.501401 0.323651 0.5 0 0.5V1.5ZM2.9752 1.53872C3.61985 1.55528 4.27572 1.57733 4.94209 1.60518L4.98385 0.606056C4.31213 0.577979 3.6509 0.555749 3.00089 0.539045L2.9752 1.53872ZM6.92797 1.70394C7.5822 1.74162 8.2453 1.78485 8.91663 1.83393L8.98953 0.836591C8.31306 0.787139 7.64482 0.743564 6.98547 0.70559L6.92797 1.70394ZM10.8863 1.9929C11.5426 2.05084 12.2058 2.11435 12.8754 2.18369L12.9784 1.189C12.3038 1.11915 11.6355 1.05515 10.9743 0.99677L10.8863 1.9929ZM14.8387 2.40177C15.492 2.47926 16.1506 2.56231 16.8141 2.65113L16.9468 1.65998C16.2783 1.57048 15.6147 1.48681 14.9565 1.40873L14.8387 2.40177ZM18.778 2.92905C19.4281 3.02604 20.0823 3.12862 20.7402 3.23698L20.9027 2.25028C20.2398 2.14109 19.5806 2.03773 18.9255 1.94L18.778 2.92905ZM22.6988 3.57499C23.3455 3.69172 23.9953 3.81411 24.6478 3.94232L24.8406 2.96109C24.183 2.83187 23.5282 2.70853 22.8764 2.59089L22.6988 3.57499ZM26.5965 4.34122C27.2395 4.47815 27.8847 4.62081 28.5315 4.76939L28.7554 3.79477C28.1033 3.64498 27.4529 3.50117 26.8048 3.36315L26.5965 4.34122ZM30.4667 5.23048C31.1053 5.3882 31.7453 5.55177 32.3862 5.72137L32.642 4.75465C31.9957 4.58362 31.3504 4.41867 30.7064 4.25965L30.4667 5.23048ZM34.3042 6.24638C34.9377 6.42561 35.5717 6.61084 36.206 6.80222L36.4949 5.84486C35.855 5.65178 35.2154 5.46493 34.5765 5.28415L34.3042 6.24638ZM38.1035 7.39325C38.7308 7.59479 39.3579 7.80249 39.9845 8.0165L40.3077 7.07017C39.6753 6.85417 39.0424 6.64456 38.4094 6.44118L38.1035 7.39325ZM41.858 8.67594C42.4778 8.90066 43.0968 9.13172 43.7146 9.36926L44.0734 8.43586C43.4496 8.196 42.8246 7.9627 42.1989 7.73583L41.858 8.67594ZM45.5602 10.0997C46.171 10.3485 46.7804 10.6039 47.388 10.8658L47.784 9.94756C47.17 9.68286 46.5544 9.42492 45.9374 9.1736L45.5602 10.0997ZM49.2013 11.6701C49.8016 11.9439 50.3998 12.2244 50.9956 12.5118L51.43 11.611C50.8277 11.3205 50.223 11.037 49.6163 10.7603L49.2013 11.6701ZM52.7717 13.3925C53.3596 13.6922 53.9447 13.9988 54.5269 14.3124L55.0012 13.432C54.4122 13.1148 53.8204 12.8047 53.2259 12.5016L52.7717 13.3925ZM56.2603 15.2724C56.8337 15.5987 57.4038 15.9322 57.9704 16.2729L58.4858 15.416C57.9122 15.0711 57.3352 14.7335 56.755 14.4033L56.2603 15.2724ZM59.6549 17.3143C60.2116 17.6681 60.7645 18.0292 61.3133 18.3977L61.8708 17.5676C61.315 17.1943 60.755 16.8285 60.1912 16.4703L59.6549 17.3143ZM62.942 19.5223C63.4798 19.9041 64.0132 20.2934 64.542 20.6903L65.1423 19.8906C64.6064 19.4882 64.0658 19.0937 63.5209 18.7069L62.942 19.5223ZM66.1074 21.899C66.6238 22.3092 67.1354 22.727 67.6416 23.1526L68.2852 22.3872C67.7717 21.9555 67.2529 21.5318 66.7293 21.1159L66.1074 21.899ZM69.1359 24.4454C69.6286 24.8841 70.1158 25.3307 70.5973 25.7852L71.2838 25.0579C70.7951 24.5967 70.3008 24.1437 69.8009 23.6986L69.1359 24.4454ZM72.0123 27.1606C72.4781 27.627 72.938 28.1014 73.3917 28.5838L74.1202 27.8987C73.6596 27.4089 73.1927 26.9274 72.7198 26.4539L72.0123 27.1606ZM74.7216 30.0413C75.1579 30.5343 75.5878 31.0354 76.0112 31.5446L76.7801 30.9053C76.3502 30.3881 75.9135 29.8793 75.4704 29.3786L74.7216 30.0413ZM77.2496 33.0818C77.6539 33.5999 78.0516 34.1261 78.4423 34.6603L79.2495 34.07C78.8526 33.5273 78.4487 32.9929 78.038 32.4666L77.2496 33.0818ZM79.5841 36.2742C79.9543 36.8152 80.3175 37.3641 80.6735 37.9212L81.5161 37.3826C81.1544 36.8167 80.7854 36.259 80.4094 35.7095L79.5841 36.2742ZM81.715 39.6084C82.0493 40.1696 82.3764 40.7385 82.6962 41.3155L83.5708 40.8307C83.246 40.2446 82.9137 39.6667 82.5741 39.0966L81.715 39.6084ZM83.6334 43.0703C83.9312 43.6494 84.2217 44.2361 84.5048 44.8306L85.4076 44.4007C85.1202 43.797 84.8251 43.2011 84.5228 42.6131L83.6334 43.0703ZM85.3301 46.6345C85.5931 47.2333 85.8487 47.8397 86.0967 48.4537L87.0239 48.0792C86.7722 47.4559 86.5126 46.8403 86.2456 46.2324L85.3301 46.6345ZM86.8092 50.2954C87.038 50.9136 87.2593 51.5394 87.4729 52.1728L88.4205 51.8532C88.2038 51.2107 87.9792 50.5757 87.7471 49.9484L86.8092 50.2954ZM88.0735 54.0405C88.2663 54.6703 88.4517 55.3074 88.6295 55.9519L89.5935 55.686C89.4132 55.0326 89.2253 54.3865 89.0297 53.7478L88.0735 54.0405ZM89.1279 57.8595C89.2845 58.4937 89.4339 59.1348 89.576 59.7829L90.5528 59.5688C90.4089 58.9122 90.2575 58.2625 90.0987 57.6197L89.1279 57.8595ZM89.9791 61.7447C90.101 62.3796 90.216 63.021 90.3239 63.6689L91.3103 63.5047C91.201 62.8487 91.0846 62.1992 90.9611 61.5561L89.9791 61.7447ZM90.6261 65.6323C90.7184 66.2839 90.8036 66.9419 90.8817 67.6063L91.8749 67.4896C91.7959 66.8174 91.7096 66.1516 91.6163 65.4922L90.6261 65.6323ZM91.0885 69.5576C91.1506 70.2141 91.2059 70.8768 91.2542 71.5457L92.2516 71.4737C92.2028 70.7975 92.1469 70.1274 92.0841 69.4634L91.0885 69.5576ZM91.3757 73.5247C91.4086 74.1738 91.4351 74.8286 91.455 75.4891L92.4546 75.4589C92.4344 74.7917 92.4077 74.1301 92.3744 73.4741L91.3757 73.5247Z" fill="black"/>
</svg>
