<svg width="346" height="232" viewBox="0 0 346 232" fill="none" xmlns="http://www.w3.org/2000/svg">
<path d="M177.728 229.245L338.471 134.227C343.586 131.39 347.983 126.663 342.991 123.542L181.624 30.5384C179.203 29.035 175.525 28.0516 173.066 29.4889L4.3336 127.457C-0.791258 130.426 -1.69898 138.728 3.38806 141.706L156.5 229.113C159.721 230.981 163.373 231.976 167.097 232C170.82 232.023 174.484 231.073 177.728 229.245V229.245Z" fill="#007F68"/>
<path d="M187.58 24.6853H187.079C186.103 24.6853 185.311 25.4769 185.311 26.4535V49.6856C185.311 50.6621 186.103 51.4537 187.079 51.4537H187.58C188.557 51.4537 189.349 50.6621 189.349 49.6856V26.4535C189.349 25.4769 188.557 24.6853 187.58 24.6853Z" fill="#BC532A"/>
<path d="M197.301 30.1601C196.355 26.1226 192.232 8.31797 184.904 13.5468C181.122 16.2227 180.092 20.421 178.588 24.5152C177.223 27.8963 176.434 31.4823 176.253 35.1242C176.139 42.5278 183.666 43.4356 189.434 43.4072C192.762 43.4072 197.499 41.431 198.274 37.819C198.747 35.6443 197.944 33.0913 197.48 30.9449L197.301 30.1601Z" fill="#2C9135"/>
<path d="M197.698 30.945L197.518 30.1602C196.696 26.5861 193.367 12.2516 187.533 12.6109C189.264 20.1753 191.817 28.1462 190.455 35.8808C189.997 38.5851 188.915 41.1457 187.297 43.3601C188.072 43.3601 188.838 43.4073 189.576 43.3601C192.904 43.3601 197.641 41.3839 198.416 37.7719C198.918 35.6444 198.123 33.082 197.698 30.945Z" fill="#156819"/>
<path d="M289.832 88.0276H285.738C284.761 88.0276 283.969 88.8192 283.969 89.7958V136.818C283.969 137.794 284.761 138.586 285.738 138.586H289.832C290.808 138.586 291.6 137.794 291.6 136.818V89.7958C291.6 88.8192 290.808 88.0276 289.832 88.0276Z" fill="#BC532A"/>
<path d="M306.615 98.372C304.857 90.7415 297.046 57.1178 283.194 66.9988C276.103 72.0574 274.098 79.9717 271.261 87.7157C268.907 94.1265 266.959 100.868 266.855 107.742C266.628 121.736 280.859 123.438 291.751 123.391C298.03 123.391 306.984 119.609 308.45 112.839C309.339 108.726 307.826 103.885 306.946 99.8565C306.839 99.3459 306.729 98.8511 306.615 98.372Z" fill="#2C9135"/>
<path d="M307.277 99.8563C307.17 99.3583 307.06 98.8635 306.946 98.3718C305.386 91.6206 299.098 64.559 288.092 65.2209C291.364 79.4892 296.186 94.5329 293.614 109.17C292.799 114.285 290.805 119.141 287.79 123.353C289.255 123.429 290.692 123.448 292.082 123.438C298.361 123.438 307.315 119.656 308.781 112.886C309.66 108.726 308.157 103.884 307.277 99.8563Z" fill="#156819"/>
<path d="M232.986 111.534L185.907 82.7703L137.523 111.534L185.907 138.567L232.986 111.534Z" fill="#06577A"/>
<path d="M137.523 111.534L120.031 81.2008L169.606 52.0496L185.907 82.7704L137.523 111.534Z" fill="#31AFB4"/>
<path d="M178.276 86.5808C178.276 86.5808 189.131 71.5087 184.394 61.051C184.394 61.051 180.489 54.3565 174.939 53.2881C174.939 53.2881 175.496 67.5847 169.956 65.7598C164.415 63.9349 169.956 50.8013 169.956 50.8013C169.956 50.8013 164.15 43.2369 157.786 43.4733C151.423 43.7097 157.786 56.8433 153.361 54.6686C148.936 52.4938 153.087 41.3175 148.104 39.9937C143.544 38.9872 138.923 38.2765 134.271 37.8662C134.271 37.8662 129.543 50.9053 134.271 52.768C138.998 54.6308 145.891 55.2643 142.572 58.1387C139.254 61.0132 129.845 57.7132 129.845 57.7132C129.845 57.7132 129.259 65.0507 132.455 68.2277C135.651 71.4047 154.458 64.3793 151.139 70.6861C147.82 76.9929 135.377 73.8348 135.377 73.8348C135.377 73.8348 141.74 82.5811 149.21 86.5713C156.68 90.5615 178.276 86.5808 178.276 86.5808Z" fill="#8CCC00"/>
<path d="M138.431 43.6719C140.445 45.3172 142.487 46.9908 144.52 48.6833C144.312 46.6031 144.057 44.5419 143.717 42.4806C143.537 41.3932 145.267 40.9204 145.456 42.0172C145.91 44.7782 146.257 47.5518 146.497 50.3381C151.839 54.8483 157.134 59.5571 162.07 64.5212C162.494 61.0112 162.605 57.4703 162.401 53.9406C162.334 52.8248 164.14 52.8343 164.197 53.9406C164.43 58.0233 164.252 62.1191 163.668 66.1665C166.811 69.4271 169.769 72.8617 172.527 76.454C175.607 72.3713 177.715 67.6403 178.692 62.6207C178.91 61.5239 180.64 61.9872 180.432 63.084C179.401 68.4221 177.134 73.4447 173.813 77.7494C173.761 77.8105 173.7 77.8645 173.634 77.9102C181.557 88.6989 186.994 100.811 187.467 114.834C187.467 115.95 185.708 115.95 185.671 114.834C185.226 101.322 179.997 89.6255 172.433 79.1867C165.152 81.0421 157.626 81.7472 150.127 81.2763C148.974 81.2101 148.964 79.4703 150.127 79.546C157.246 79.9895 164.39 79.3519 171.317 77.6549C167.489 72.684 163.298 68.0033 158.779 63.6513C158.726 63.6559 158.672 63.6559 158.618 63.6513C154.42 64.0106 150.213 64.37 145.995 64.5118C143.263 64.6063 140.653 64.8427 138.166 63.6419C137.126 63.1408 138.043 61.6468 139.112 62.1479C142.024 63.5568 146.08 62.8098 149.191 62.6396C151.858 62.4883 154.524 62.2708 157.191 62.0439C150.676 55.9924 143.802 50.3097 137.183 44.8917C136.237 44.1731 137.552 42.9533 138.431 43.6719Z" fill="#06577A"/>
<path d="M209.451 101.927C209.451 101.927 228.504 102.636 235.094 93.1904C235.094 93.1904 238.876 86.4203 236.824 81.3616C236.824 81.3616 224.589 89.4933 223.218 84.0186C221.847 78.5439 236.333 75.9814 236.333 75.9814C236.333 75.9814 239.85 67.1973 236.219 62.167C232.588 57.1367 224.504 69.3532 224.031 64.5876C223.558 59.822 235.586 57.1934 234.073 52.4373C232.56 47.6812 228.504 40.0696 228.504 40.0696C228.504 40.0696 214.557 43.2277 215.446 48.0311C216.334 52.8345 219.502 58.8009 215.19 57.6473C210.879 56.4937 208.732 47.0855 208.732 47.0855C208.732 47.0855 201.981 50.5557 200.922 54.8485C199.863 59.1412 216.117 70.6391 208.808 71.3293C201.499 72.0196 197.575 60.2286 197.575 60.2286C197.575 60.2286 193.329 70.0907 193.793 78.298C194.256 86.5054 209.451 101.927 209.451 101.927Z" fill="#8CCC00"/>
<path d="M199.088 71.036C198.757 69.9676 200.497 69.5042 200.828 70.5727C202.818 77.0218 206.879 82.6348 212.382 86.543C214.425 81.0966 216.29 75.5936 217.98 70.0338C213.657 65.8983 210.084 61.0453 207.418 55.6898C206.917 54.6875 208.477 53.7987 208.969 54.8199C211.426 59.7254 214.668 64.1967 218.566 68.0576C220.457 61.6846 222.102 55.2549 223.502 48.7495C223.738 47.6621 225.469 48.116 225.242 49.2128C223.329 58.0997 220.962 66.8827 218.15 75.5274C221.527 74.904 224.819 73.882 227.955 72.4827C228.995 72.0099 229.913 73.5039 228.901 73.9767C225.287 75.6282 221.472 76.7981 217.554 77.4563V77.4563C215.663 83.1296 213.526 88.8029 211.248 94.3532C216.623 94.1918 221.927 93.0677 226.906 91.0343C227.955 90.5994 228.882 92.0933 227.851 92.5283C222.37 94.7875 216.514 95.9998 210.586 96.1025C207.692 103.036 204.512 109.866 201.045 116.592C200.525 117.585 198.974 116.715 199.494 115.723C204.109 106.801 208.213 97.6235 211.786 88.2355V88.2355C205.742 84.0916 201.268 78.0329 199.088 71.036V71.036Z" fill="#06577A"/>
<path d="M175.733 124.308C175.733 124.308 183.571 116.867 182.04 110.465C182.04 110.465 180.565 106.258 177.539 105.085C177.539 105.085 176.272 113.255 173.331 111.657C170.391 110.059 174.986 103.147 174.986 103.147C174.986 103.147 172.527 98.2489 168.887 97.7383C165.247 97.2277 167.403 105.303 165.105 103.638C162.807 101.974 166.429 96.0741 163.753 94.7692C161.275 93.729 158.733 92.8509 156.141 92.1406C156.141 92.1406 152.028 99.062 154.486 100.603C156.945 102.145 160.803 103.213 158.6 104.508C156.396 105.804 151.423 102.958 151.423 102.958C151.423 102.958 150.279 107.061 151.735 109.189C153.191 111.316 164.651 109.264 162.07 112.498C159.488 115.732 152.766 112.668 152.766 112.668C152.766 112.668 155.404 118.285 159.205 121.32C163.006 124.355 175.733 124.308 175.733 124.308Z" fill="#8CCC00"/>
<path d="M161.616 99.7618L166.57 107.752C167.175 106.974 167.701 106.138 168.14 105.255C168.641 104.253 170.192 105.123 169.691 106.125C169.124 107.254 168.429 108.314 167.62 109.283L167.554 109.34L172.925 118.001C173.523 117.457 173.914 116.722 174.031 115.921C174.173 114.834 175.979 114.815 175.827 115.921C175.661 117.322 174.951 118.602 173.851 119.486L180.565 130.322C181.16 131.267 179.619 132.156 179.014 131.192L170.154 116.905C168.67 116.928 167.192 116.714 165.776 116.271C165.554 116.207 165.367 116.058 165.255 115.855C165.143 115.653 165.117 115.415 165.18 115.193C165.244 114.971 165.394 114.784 165.596 114.672C165.798 114.56 166.036 114.533 166.258 114.597C167.166 114.871 168.102 115.039 169.048 115.099L160.075 100.622C159.469 99.6767 161.02 98.8068 161.616 99.7618Z" fill="#06577A"/>
<path d="M185.907 192.614V138.557L137.523 111.534V165.146L185.907 192.614Z" fill="#31AFB4"/>
<path d="M185.907 138.557L232.985 111.534C232.985 111.534 234.29 166.026 232.985 166.895C231.681 167.765 185.907 192.614 185.907 192.614V138.557Z" fill="#31AFB4"/>
<path opacity="0.42" d="M185.907 138.557L232.985 111.534C232.985 111.534 234.29 166.026 232.985 166.895C231.681 167.765 185.907 192.614 185.907 192.614V138.557Z" fill="#9B4726"/>
<path d="M232.986 111.534L245.75 84.2644L193.67 112.631L185.907 138.567L232.986 111.534Z" fill="#31AFB4"/>
<path d="M144.511 151.18C145.449 152.671 146.729 153.916 148.246 154.811C148.719 155.076 149.191 155.303 149.674 155.52L150.146 155.738L150.818 156.041L159.261 159.946L159.507 160.078L159.659 170.025L158.987 169.723L156.018 168.37L153.787 167.34C152.605 166.823 151.536 166.081 150.638 165.156C150.096 164.614 149.666 163.971 149.371 163.265C147.789 159.312 146.213 155.36 144.643 151.407L144.511 151.18Z" fill="white"/>
<path d="M151.829 143.209C151.915 143.245 151.991 143.3 152.053 143.368C152.115 143.437 152.161 143.518 152.189 143.607C153.449 146.821 154.739 150.033 156.056 153.242C156.056 153.327 156.113 153.421 156.179 153.61L153.891 151.19L153.238 152.135L151.063 155.312C150.959 155.473 150.846 155.511 150.619 155.407C149.482 154.91 148.393 154.308 147.366 153.61C145.902 152.526 144.783 151.042 144.142 149.337C143.917 148.898 143.8 148.412 143.8 147.918C143.8 147.425 143.917 146.939 144.142 146.5C144.813 145.346 145.447 144.174 146.099 143.011C146.099 142.945 146.166 142.869 146.213 142.784L143.906 139.749L144.152 139.834L151.782 143.228L151.829 143.209Z" fill="white"/>
<path d="M155.385 132.355L155.668 132.497C156.911 133.294 157.935 134.389 158.647 135.683C159.561 137.124 160.312 138.662 160.888 140.269C160.937 140.39 160.937 140.526 160.888 140.647C159.627 142.444 158.391 144.237 157.181 146.027L157.096 146.094L149.532 137.65C149.58 137.568 149.634 137.489 149.692 137.413C150.865 135.834 152.037 134.236 153.238 132.686C153.491 132.374 153.851 132.167 154.248 132.106C154.644 132.045 155.05 132.134 155.385 132.355V132.355Z" fill="white"/>
<path d="M166.022 136.78C167.698 137.615 168.99 139.06 169.634 140.817C170.268 142.34 170.863 143.871 171.525 145.441L173.898 145.11V145.186L173.643 145.555C172.423 147.342 171.213 149.119 170.012 150.916C169.899 151.095 169.766 151.095 169.539 150.991C167.119 149.857 164.698 148.741 162.278 147.606L161.937 147.436L164.093 146.812L163.895 146.302C162.836 143.692 161.786 141.082 160.708 138.482C160.087 136.901 159.222 135.427 158.146 134.113C157.805 133.716 157.427 133.357 157.058 132.998C156.964 132.894 156.85 132.809 156.746 132.714V132.629L159.583 133.905L160.982 134.539C162.646 135.286 164.339 136.014 166.022 136.78Z" fill="white"/>
<path d="M166.003 160.05C166.069 161.128 166.126 162.102 166.192 163.094L166.476 163.246C168.632 164.191 170.797 165.222 172.953 166.167C174.058 166.739 175.312 166.96 176.546 166.801C176.97 166.692 177.387 166.556 177.794 166.394L177.728 166.555C176.319 169.004 174.891 171.472 173.492 173.902C172.764 175.15 171.553 175.358 169.984 174.687L168.887 174.195L166.693 173.183L166.306 173.004C166.306 174.044 166.306 175.056 166.249 176.171C166.154 175.954 166.098 175.84 166.05 175.727L162.363 166.631C162.278 166.423 162.221 166.253 162.363 166.101L165.937 160.201L166.003 160.05Z" fill="white"/>
<path d="M175.005 153.639L176.272 156.948C176.934 158.679 177.605 160.418 178.257 162.149C178.491 162.629 178.601 163.159 178.577 163.693C178.554 164.226 178.399 164.745 178.125 165.203C177.873 165.523 177.544 165.772 177.168 165.928C176.792 166.084 176.383 166.14 175.979 166.092C174.666 166.044 173.377 165.722 172.196 165.146L171.582 164.853C171.437 164.763 171.32 164.636 171.241 164.484C170.056 161.547 168.874 158.606 167.696 155.662C167.696 155.596 167.696 155.53 167.62 155.435L175.005 153.639Z" fill="white"/>
<path style="mix-blend-mode:multiply" opacity="0.63" d="M51.0341 145.923C54.4097 148.476 57.6529 151.256 60.934 153.894C64.215 156.532 73.6894 164.191 77.0083 166.65C78.0956 166.016 79.6747 164.371 80.7337 163.69C87.0216 159.681 89.8582 153.951 95.8625 149.507C89.5935 142.586 76.2896 123.599 71.9401 120.252C65.8413 125.745 50.5424 134.539 42.9969 140.411C45.6067 142.33 48.4433 143.957 51.0341 145.923Z" fill="url(#paint0_linear_809:3111)"/>
<path d="M90.52 40.2679C88.8313 39.2882 87.2277 38.1685 85.7261 36.9207C84.0998 39.6627 85.2912 44.485 85.7261 47.7282C86.0003 47.5297 87.3714 48.0686 87.6834 47.9741C87.9954 47.8795 88.4587 47.6999 88.837 47.558C89.2152 47.4162 89.8771 47.1893 90.3877 46.9718C91.5271 46.4761 92.6006 45.8409 93.5836 45.0807C93.7138 44.9972 93.8185 44.8794 93.8862 44.7403C93.933 44.5733 93.933 44.3967 93.8862 44.2297C93.7403 43.387 93.6801 42.5316 93.7065 41.6768C93.7262 41.4882 93.7036 41.2976 93.6403 41.1189C93.4512 40.6934 92.5719 40.8352 92.1842 40.7407C91.6172 40.6299 91.0606 40.4717 90.52 40.2679V40.2679Z" fill="#E6F1FF"/>
<path d="M84.582 11.6462C85.3763 13.4901 85.7734 15.4757 86.9175 17.1493C89.0923 20.298 93.2432 25.7443 90.9645 29.7913C90.0189 31.4649 88.194 31.758 86.4637 32.0322L80.0718 17.0453" fill="#FF6A26"/>
<path d="M82.4358 86.7983L82.5493 86.5997C86.6435 77.4752 87.1541 66.7432 87.0312 56.8339C86.0856 57.023 80.9797 53.742 80.6109 54.7064C80.1571 55.8884 78.8995 58.5359 77.8594 59.2072C76.8193 59.8786 82.2089 67.7171 81.5281 68.7289C80.6676 70.0526 80.28 72.0572 79.7505 73.5606C79.2777 74.8844 78.8049 76.2176 78.3416 77.5414C77.6041 79.6216 76.8571 81.7112 76.1196 83.7914C75.382 85.8716 74.0394 90.1171 75.7886 92.0177C76.2765 92.5282 76.9169 92.8666 77.6135 92.9821C77.9758 93.0734 78.3593 93.0191 78.682 92.8309C78.9009 92.6515 79.081 92.4295 79.2115 92.1784L82.4358 86.7983Z" fill="#EDC624"/>
<path d="M79.9204 131.863C80.9255 131.734 81.8817 131.354 82.7003 130.757C84.6671 129.225 84.147 127.306 82.9651 125.698C82.0648 125.276 81.2174 124.749 80.4405 124.129C76.3274 120.847 73.5569 114.285 73.5569 114.285L66.2195 112.782L65.047 124.129L68.1106 125.254L68.7819 121.784L70.3137 126.861C70.3137 126.861 76.5543 130.653 79.9204 131.863Z" fill="#4D4D4D"/>
<path d="M91.8533 152.249C92.8373 152.125 93.774 151.754 94.5765 151.171C96.4676 149.668 95.9853 147.795 94.8412 146.216C93.9581 145.805 93.1265 145.291 92.3639 144.685C88.3358 141.47 85.6221 135.05 85.6221 135.05L78.4454 133.574L77.2919 144.685L80.2893 145.791L80.9417 142.396L82.4356 147.313C85.4556 149.177 88.6026 150.826 91.8533 152.249V152.249Z" fill="#4D4D4D"/>
<path d="M77.2446 101.587C77.1111 100.699 76.8764 99.8299 76.5449 98.9959C75.0415 94.7125 73.7083 90.3536 72.6303 85.9568V86.0513C68.3281 94.5613 66.872 103.941 65.4915 113.283C67.1888 114.121 68.946 114.832 70.7487 115.411C71.9488 115.826 73.1703 116.176 74.408 116.46C74.5782 115.978 74.7484 115.515 74.8902 115.013C75.4292 113.302 75.8357 111.534 76.1856 109.775C76.5354 108.016 76.9137 106.163 77.1311 104.329C77.2845 103.423 77.3226 102.502 77.2446 101.587V101.587Z" fill="#EDC624"/>
<path d="M84.5442 59.8503C84.0241 60.8904 81.4333 57.5716 80.2798 57.7134C76.4125 58.1767 73.8406 59.387 70.6636 57.061C70.049 56.6166 68.4983 56.3329 68.0444 55.7561C63.884 67.0459 64.9146 85.068 70.4461 95.4691C71.5069 97.4883 72.3106 99.6325 72.8383 101.851C74.5876 109 74.0013 116.706 75.1738 123.949C75.8641 128.223 77.0649 132.459 77.8403 136.695C80.6107 136.997 84.6104 136.222 85.7167 134C85.681 133.855 85.6336 133.712 85.5748 133.575C85.1704 132.564 84.854 131.52 84.6293 130.454C83.7405 126.852 83.7405 107.988 84.043 103.431C84.3173 99.2702 83.0975 95.157 82.2749 91.1385C81.1118 85.399 80.0812 79.338 81.178 73.5135" fill="#FFD93B"/>
<path d="M86.8136 48.4282C86.6452 46.3241 86.5947 44.2122 86.6623 42.1025C86.8703 37.5071 87.3147 32.9117 87.4377 28.3164C87.5608 27.0511 87.481 25.7743 87.2013 24.5342C86.5394 22.3594 84.5821 21.8772 82.899 20.752C81.8306 20.005 81.197 20.0996 79.9016 20.2981C78.4689 20.5285 77.0512 20.8443 75.6561 21.2437C72.8873 21.9844 70.2128 23.0409 67.6852 24.3924C66.4844 25.0041 65.3945 25.8127 64.4609 26.7846C63.6402 27.667 63.1176 28.785 62.9669 29.9805C63.1263 30.2627 63.2562 30.5606 63.3546 30.8694C65.7941 38.4905 70.7866 50.0734 66.9288 58.1957C67.1368 58.4131 67.3448 58.6306 67.5623 58.8386C68.7663 59.9175 70.1746 60.7439 71.7038 61.2687C72.0252 61.3916 72.3562 61.4956 72.6493 61.5902C74.5197 62.0922 76.4528 62.3215 78.3888 62.271C80.4268 62.3927 82.454 61.8949 84.2039 60.8432C84.7738 60.4284 85.297 59.9528 85.764 59.4249L86.0761 59.0656C86.4164 58.6757 86.6997 58.2396 86.9176 57.7702C87.1866 56.8954 87.2608 55.9724 87.1351 55.0659C87.1445 52.8911 86.9649 50.6596 86.8136 48.4282Z" fill="#31AFB4"/>
<path d="M72.101 22.9455V23.1252C72.1966 24.0421 72.5218 24.9202 73.0465 25.6782C73.5107 26.2475 74.1039 26.698 74.7769 26.9925C75.1501 27.1759 75.5394 27.3247 75.9399 27.4369C76.1574 27.5031 76.3843 27.5598 76.6113 27.6071C76.9222 27.6793 77.2384 27.7268 77.5568 27.7489C77.8114 27.7217 78.0687 27.7608 78.3038 27.8624C78.5042 27.9873 78.6804 28.1475 78.8238 28.3351L78.9184 28.4581C79.6679 29.3566 80.3566 30.3043 80.9797 31.2947C81.2886 31.7864 81.5848 32.2875 81.8685 32.7981C82.0009 33.0629 82.1427 33.3087 82.2751 33.5735C82.3426 33.6958 82.4026 33.8221 82.4547 33.9517C82.4547 34.0179 82.5209 34.103 82.5587 34.1786C82.5937 34.2373 82.6192 34.3011 82.6344 34.3677C82.6344 34.1975 82.6344 34.0179 82.6344 33.8382C82.6344 33.6586 82.6344 33.6302 82.6344 33.5167C82.6541 33.2377 82.6888 32.9599 82.7384 32.6846C82.814 32.0984 82.8802 31.5027 82.9275 30.8976C83.0522 29.6115 83.0522 28.3164 82.9275 27.0303C82.7666 25.6522 82.4947 24.2893 82.1143 22.955C81.9336 22.334 81.7915 21.7024 81.6888 21.0639C81.6321 20.6195 81.6888 20.0049 81.339 19.7212C80.9891 19.4375 80.0814 7.42911 79.4479 12.1568C79.2304 13.6886 77.4717 17.7639 76.2425 16.7995C75.3594 16.0793 74.5515 15.2715 73.8313 14.3883C73.5412 15.4567 73.37 16.5539 73.3207 17.6599C73.3436 18.6205 73.0623 19.5636 72.517 20.3547C72.2783 20.7369 72.1184 21.1631 72.047 21.608C71.9755 22.053 71.9939 22.5078 72.101 22.9455V22.9455Z" fill="#FFDFCC"/>
<path d="M83.8162 5.64186C84.1945 6.6536 86.1612 17.6503 81.7833 18.5013C77.4054 19.3523 72.9803 15.1635 72.9803 15.1635C72.2323 14.1619 71.888 12.9157 72.0159 11.6722C72.1437 10.4286 72.7343 9.27858 73.6705 8.45014C77.0178 5.07454 83.8162 5.64186 83.8162 5.64186Z" fill="#FFCFB3"/>
<path d="M91.1063 41.204C91.5229 40.7323 92.0355 40.3551 92.6098 40.0977C92.9565 39.9212 93.3031 39.751 93.6498 39.5871C94.0693 39.3847 94.506 39.2202 94.9547 39.0954C95.1857 39.0127 95.4325 38.9833 95.6765 39.0095C95.9205 39.0357 96.1554 39.1168 96.3636 39.2467C96.5171 39.3845 96.6415 39.5518 96.7292 39.7386C96.8169 39.9254 96.8662 40.1279 96.8742 40.3341C96.8995 40.7497 96.8995 41.1665 96.8742 41.5822C96.9093 42.5224 97.0813 43.4525 97.3848 44.3432C97.5119 44.8303 97.4889 45.3445 97.3186 45.8182C97.1263 46.1948 96.8086 46.4924 96.4203 46.6598C96.2442 46.7407 96.0605 46.8041 95.8719 46.8489C95.6599 46.8988 95.4452 46.9367 95.2289 46.9623C94.0406 47.1673 92.818 47.0092 91.7209 46.5085C91.3758 46.3078 91.103 46.0031 90.9416 45.6379C90.7803 45.2727 90.7386 44.8659 90.8227 44.4756C90.834 44.4098 90.834 44.3427 90.8227 44.277C90.8015 44.2122 90.7695 44.1515 90.7281 44.0973C90.4919 43.6332 90.4017 43.1085 90.4692 42.5921C90.5367 42.0757 90.7588 41.5918 91.1063 41.204V41.204Z" fill="#FFBF99"/>
<path d="M86.4448 26.9735C86.388 27.1531 86.2273 27.1626 86.0476 27.2666C85.5911 27.552 85.2113 27.9448 84.9414 28.4107C84.4524 29.315 84.0534 30.2651 83.75 31.2473C83.5609 31.7705 83.3623 32.2937 83.1543 32.8169L82.8517 33.5734C82.795 33.7058 82.5302 34.1502 82.568 34.2825C82.4868 33.9132 82.4519 33.5353 82.464 33.1573C82.4582 31.7196 82.5403 30.2828 82.7099 28.8551C82.7596 28.1548 82.9258 27.4678 83.2016 26.8222C83.6365 25.8766 84.478 25.2147 84.6577 24.2125C84.6668 23.8838 84.7474 23.5612 84.8941 23.2669C84.9067 23.2434 84.9242 23.2228 84.9454 23.2065C84.9666 23.1902 84.991 23.1785 85.017 23.1724C85.0446 23.1744 85.0715 23.1822 85.0959 23.1952C85.1203 23.2082 85.1418 23.2262 85.1588 23.248C85.9275 23.9992 86.3863 25.0115 86.4448 26.0846C86.4631 26.3365 86.4631 26.5893 86.4448 26.8411C86.4522 26.8849 86.4522 26.9296 86.4448 26.9735V26.9735Z" fill="#B3D5FF"/>
<path d="M80.3555 31.3798C80.0187 31.1224 79.6323 30.9374 79.2206 30.8366C78.809 30.7357 78.3809 30.721 77.9632 30.7936C77.2275 30.9243 76.5595 31.3051 76.0721 31.8715C75.3798 31.2805 74.7231 30.6491 74.1054 29.9804C73.1288 28.894 72.3998 27.6084 71.9688 26.2125C71.5379 24.8167 71.4151 23.3439 71.6092 21.896C71.6092 22.0189 71.8266 22.3404 71.8834 22.435C71.9933 22.6172 72.1166 22.791 72.2521 22.955C72.5231 23.2816 72.8419 23.5653 73.1977 23.7965C73.5475 24.0235 73.8123 24.3166 74.1432 24.5813C74.5435 24.8963 74.9601 25.1898 75.3913 25.4607C76.9754 26.3108 78.476 27.308 79.8732 28.4392C80.6919 29.1693 81.3543 30.0576 81.8206 31.0504C82.287 32.0433 82.5477 33.1202 82.587 34.2165C82.587 34.2637 82.587 34.311 82.587 34.3678C82.0663 33.2231 81.3052 32.204 80.3555 31.3798Z" fill="#B3D5FF"/>
<path d="M72.101 22.9456V23.1253C72.3828 23.6074 72.6988 24.0688 73.0465 24.5058C73.9134 25.5777 74.8859 26.5597 75.9494 27.437C76.1668 27.5032 76.3938 27.5599 76.6207 27.6072C76.9316 27.6794 77.2478 27.7269 77.5662 27.749C77.8209 27.7218 78.0782 27.7609 78.3132 27.8625C78.5137 27.9874 78.6899 28.1476 78.8333 28.3352L78.9278 28.4582C79.6774 29.3567 80.366 30.3044 80.9891 31.2948C81.298 31.7865 81.5943 32.2876 81.8779 32.7982C82.0103 33.063 82.1522 33.3088 82.2845 33.5736C82.352 33.6959 82.412 33.8222 82.4642 33.9518C82.4642 34.018 82.5304 34.1031 82.5682 34.1787C82.6032 34.2374 82.6287 34.3012 82.6438 34.3678C82.6438 34.1976 82.6438 34.018 82.6438 33.8383C82.4152 32.0177 81.8611 30.2529 81.008 28.6284C79.8639 26.378 78.4078 24.3356 77.2259 22.1135C76.6718 21.1888 76.3475 20.1448 76.2803 19.0689C76.3236 18.3131 76.3236 17.5554 76.2803 16.7996C75.384 16.0814 74.5634 15.2735 73.8313 14.3884C73.5412 15.4568 73.37 16.554 73.3207 17.66C73.3436 18.6206 73.0623 19.5637 72.517 20.3548C72.2783 20.737 72.1184 21.1632 72.047 21.6081C71.9755 22.0531 71.9939 22.5079 72.101 22.9456V22.9456Z" fill="#FFCFB3"/>
<path d="M84.5443 26.6992C84.7584 26.4506 85.0443 26.2745 85.3626 26.1949C85.6809 26.1153 86.016 26.1362 86.3219 26.2548C86.1637 24.8707 85.7125 23.5363 84.9981 22.3403C84.7445 21.9008 84.4257 21.5023 84.0526 21.1583C83.2101 20.5235 82.322 19.9515 81.3956 19.4469C81.2873 19.3646 81.1609 19.3095 81.0269 19.2861C81.447 20.2705 81.7148 21.3131 81.8211 22.3781C81.9346 23.456 82.0354 24.5339 82.1237 25.6118C82.193 26.4691 82.2529 27.3264 82.3033 28.1837C82.3033 28.9307 82.3033 29.6777 82.3601 30.4152C82.442 31.7642 82.5681 33.1069 82.7383 34.4432C82.7372 33.5864 82.8549 32.7336 83.0881 31.9092C83.226 30.8535 83.4186 29.8057 83.6649 28.77C83.7885 28.0578 84.0767 27.3844 84.5065 26.8032L84.5443 26.6992Z" fill="#E6F1FF"/>
<path d="M77.5474 29.4508C77.0998 29.8795 76.6743 30.327 76.2709 30.7935C75.1457 29.3657 74.011 27.9569 72.9615 26.4629C72.0521 25.3193 71.4064 23.9891 71.0704 22.5672C70.9289 21.7048 71.0203 20.8201 71.3351 20.0048C71.4955 19.591 71.6983 19.1949 71.9403 18.8229C72.1308 18.463 72.3874 18.1422 72.6967 17.8773C72.7857 17.8128 72.8872 17.7677 72.9947 17.7449C73.1022 17.7221 73.2133 17.7221 73.3208 17.7449C73.264 18.2177 73.1978 18.6905 73.1222 19.1633C73.0252 19.53 72.9869 19.9098 73.0087 20.2885C73.1421 21.0113 73.4688 21.6844 73.9543 22.2363C75.3631 23.9761 76.9611 25.5268 78.4362 27.2099C79.3593 28.2356 80.1914 29.3397 80.923 30.5098C81.6312 31.7472 82.214 33.0522 82.6628 34.4055C82.1837 33.5734 81.6857 32.7508 81.1688 31.9376C80.769 31.2834 80.3033 30.6719 79.7788 30.1127C79.4472 29.7614 79.0647 29.4618 78.6442 29.2239C78.162 28.9875 77.9823 29.0348 77.5474 29.4508Z" fill="#E6F1FF"/>
<path d="M57.3126 73.8634C57.3108 74.8618 57.5035 75.851 57.88 76.7757C58.0168 77.3778 58.3218 77.9286 58.7593 78.3642C58.8678 78.4471 58.9719 78.5355 59.0714 78.629C59.1946 78.7814 59.2964 78.95 59.3739 79.1301C59.5914 79.5707 59.8613 79.9834 60.1776 80.3593C60.362 80.6372 60.6165 80.8614 60.9154 81.0092C61.2143 81.157 61.5469 81.2231 61.8796 81.2009H61.9364C61.9754 81.1915 62.0113 81.1719 62.0404 81.1441C62.075 81.1025 62.1007 81.0542 62.116 81.0023C62.1387 80.8554 62.1302 80.7055 62.0911 80.5621C62.052 80.4188 61.9832 80.2852 61.8891 80.1702C61.6997 79.9444 61.5378 79.6968 61.4069 79.4327C61.2957 79.0911 61.2697 78.7276 61.3312 78.3737C61.3312 77.9576 61.4258 77.5416 61.4919 77.1256C61.5352 76.8892 61.592 76.6556 61.6621 76.4259C61.7189 76.2935 61.7851 76.1611 61.8513 76.0476C61.9174 75.9342 61.9836 75.8302 62.0971 75.868C62.2106 75.9058 62.2106 76.1138 62.22 76.2462V76.7095C62.2319 77.0891 62.2635 77.4678 62.3146 77.8442C62.3885 78.4646 62.6305 79.0531 63.0143 79.5462C63.0615 79.6124 63.1229 79.6673 63.1939 79.7069C63.2784 79.7452 63.3731 79.7548 63.4636 79.7343C63.554 79.7139 63.6353 79.6644 63.6951 79.5934C63.8193 79.4482 63.9011 79.2715 63.9315 79.0828C64.0168 78.5695 64.0168 78.0455 63.9315 77.5321C63.818 76.5299 63.7045 75.5276 63.5816 74.5159C63.4304 73.5472 63.1801 72.5967 62.8346 71.6792C62.8089 71.5952 62.7773 71.513 62.7401 71.4334C62.5271 70.9834 62.3377 70.5226 62.1727 70.0529C62.0593 69.6652 62.0593 69.2208 61.9458 68.852C61.9458 69.0222 61.3785 69.1924 61.2745 69.1924C60.8463 69.1864 60.4194 69.1453 59.998 69.0695C59.4868 68.993 59.0044 68.7844 58.5986 68.4644C58.2582 69.807 57.8989 71.1497 57.5585 72.4924C57.4354 72.9411 57.3531 73.3999 57.3126 73.8634V73.8634Z" fill="#FFDFCC"/>
<path d="M57.3126 73.8631C57.3108 74.8615 57.5035 75.8507 57.88 76.7754C58.0168 77.3775 58.3218 77.9283 58.7593 78.3639C58.8678 78.4468 58.9719 78.5352 59.0714 78.6287C59.1946 78.7811 59.2964 78.9497 59.3739 79.1298C59.5914 79.5704 59.8613 79.9831 60.1776 80.359C60.362 80.6369 60.6165 80.8611 60.9154 81.0089C61.2143 81.1567 61.5469 81.2228 61.8796 81.2006H61.9364C61.3718 80.7589 60.872 80.2401 60.4519 79.6593C60.1662 79.2051 59.9195 78.7274 59.7143 78.2316C59.385 77.5265 59.1131 76.7961 58.9012 76.0473C58.6439 75.0127 58.6212 73.9337 58.835 72.8892C58.8465 72.7628 58.8923 72.6418 58.9673 72.5394C59.1281 72.3597 59.4023 72.3881 59.6387 72.407C60.1959 72.475 60.7613 72.426 61.2985 72.2632C61.8358 72.1004 62.3332 71.8273 62.759 71.4614C62.546 71.0115 62.3566 70.5507 62.1917 70.081C62.0782 69.6933 62.0782 69.2489 61.9647 68.8801C61.9647 69.0503 61.3974 69.2205 61.2934 69.2205C60.8652 69.2145 60.4383 69.1734 60.0169 69.0976C59.5057 69.0211 59.0233 68.8125 58.6175 68.4924C58.2771 69.8351 57.9178 71.1778 57.5774 72.5205C57.4495 72.9593 57.3609 73.4086 57.3126 73.8631V73.8631Z" fill="#FFCFB3"/>
<path d="M65.3214 53.1557C66.4664 47.5132 67.9665 41.9487 69.8127 36.4952C70.6164 34.1313 71.8267 31.7675 70.3044 29.432C69.5311 28.1139 68.3542 27.0795 66.9477 26.4819C63.0804 25.2905 61.9552 32.089 61.2082 34.5474C59.8307 39.1609 58.8314 43.8791 58.2203 48.6549C58.0123 50.4137 57.7948 52.1913 57.7286 53.9689C57.6624 55.7465 57.5868 57.7511 57.6624 59.6422C57.7286 61.2874 58.069 67.6415 58.069 69.1733C58.0697 69.3732 58.1049 69.5715 58.173 69.7595C58.2059 69.8297 58.2507 69.8937 58.3054 69.9486C58.3818 70.0513 58.4744 70.1407 58.5796 70.2134C59.0669 70.6301 59.6423 70.9308 60.2627 71.0927C60.5773 71.1816 60.9063 71.2072 61.2309 71.1683C61.5555 71.1293 61.8691 71.0265 62.1538 70.8658C62.2696 70.8083 62.3701 70.7241 62.4469 70.62C62.6644 70.3269 62.5982 69.8257 62.6833 69.4664C62.7967 68.9274 62.8535 68.3412 62.9386 67.7928C63.1088 66.6581 63.2695 65.5424 63.4303 64.4077C63.9125 60.635 64.5366 56.8717 65.3214 53.1557Z" fill="#31AFB4"/>
<path d="M73.4531 1.24526C70.2503 2.87957 67.7308 5.59672 66.3426 8.91365C65.3211 11.7946 64.5523 14.7591 64.045 17.7734C63.0238 22.747 62.4281 24.9123 62.967 29.9993C63.4398 34.5001 66.8721 37.3273 70.2288 37.3179C71.5585 37.3695 72.8893 37.2551 74.1907 36.9775C76.7626 36.3156 78.3133 34.0935 79.2966 31.758C79.7659 30.819 79.9687 29.7692 79.8829 28.7228C79.6963 27.7535 79.1903 26.8746 78.4456 26.2266C76.2709 24.2031 73.7652 23.39 73.5761 20.0049C73.5282 17.3866 74.1018 14.7943 75.2497 12.4405C75.7134 11.3103 76.4809 10.3304 77.4672 9.60943C78.4536 8.88848 79.6202 8.45458 80.8379 8.35577C84.3837 8.01538 86.6624 3.62804 83.1923 1.41546C81.7321 0.519656 80.0587 0.0313958 78.3459 0.0014641C76.6332 -0.0284676 74.9437 0.401022 73.4531 1.24526Z" fill="#FF6A26"/>
<path d="M76.0723 13.0457C75.9927 12.0486 75.6062 11.1006 74.966 10.332C74.8464 10.1995 74.6977 10.0965 74.5316 10.0312C74.3655 9.96588 74.1866 9.94 74.0088 9.95558C73.831 9.97116 73.6592 10.0278 73.507 10.121C73.3548 10.2142 73.2263 10.3415 73.1316 10.4928C72.1861 12.1853 73.6895 14.0196 75.3442 14.2749C75.4405 14.2897 75.539 14.2761 75.6276 14.2358C75.7163 14.1955 75.7913 14.1302 75.8435 14.048C75.8956 13.9657 75.9227 13.8701 75.9214 13.7727C75.92 13.6753 75.8903 13.5804 75.8359 13.4996C75.9124 13.4522 75.9748 13.385 76.0164 13.3051C76.058 13.2252 76.0773 13.1356 76.0723 13.0457V13.0457Z" fill="#FFCFB3"/>
<path d="M85.7546 52.059C86.102 50.7042 86.5966 49.3915 87.2297 48.1444C88.0145 46.6126 90.558 44.8161 90.1419 42.9817C89.6408 40.7219 89.9339 38.7173 88.7709 37.3084C87.6079 35.8996 86.2841 33.5262 87.485 33.0062C88.6858 32.4861 88.4305 35.4173 89.4233 35.0013C90.4162 34.5853 90.3689 32.0228 90.3689 32.0228C90.3689 32.0228 91.6454 29.9615 92.1465 32.0228C92.428 33.0767 92.596 34.1576 92.6476 35.2471C92.6476 35.2471 94.4064 30.2074 95.5599 32.0228C95.8826 32.5882 96.0539 33.2273 96.0572 33.8783C96.0605 34.5293 95.8958 35.1702 95.5788 35.7388C95.5788 35.7388 97.4699 32.8265 97.7536 34.9067C98.0373 36.9869 96.8081 41.5728 96.8081 41.5728C96.8081 41.5728 94.3213 44.6175 98.1224 47.0286C104.562 51.1134 107.767 58.1294 105.914 65.8166C104.06 73.5039 93.9241 75.8584 87.9483 71.0266C83.2205 67.2444 84.3647 59.7557 85.1684 54.5174C85.3216 53.6884 85.5173 52.8679 85.7546 52.059V52.059Z" fill="#4D4D4D"/>
<path d="M97.6119 39.5872C97.4227 39.915 97.2273 40.2302 97.0256 40.5328C97.2019 40.6107 97.3573 40.7293 97.4789 40.8789C97.6005 41.0284 97.685 41.2047 97.7253 41.3932C97.7641 41.5841 97.7588 41.7813 97.7096 41.9698C97.6604 42.1583 97.5688 42.333 97.4417 42.4806C97.423 42.4956 97.4075 42.5143 97.3961 42.5354C97.3848 42.5565 97.3777 42.5797 97.3755 42.6035C97.3755 42.6508 97.4227 42.6886 97.4606 42.7264C97.5446 42.8183 97.6055 42.9287 97.6384 43.0488C97.6713 43.1688 97.6751 43.2949 97.6497 43.4167C97.5977 43.6607 97.5118 43.8963 97.3944 44.1164C97.388 44.1539 97.388 44.1923 97.3944 44.2299C97.3971 44.2967 97.4166 44.3617 97.4511 44.419C97.6061 44.7435 97.6364 45.1137 97.5362 45.4591C97.4872 45.6279 97.4029 45.7843 97.2887 45.918C97.1746 46.0517 97.0334 46.1595 96.8743 46.2344C96.6113 46.3314 96.3319 46.3763 96.0517 46.3668H94.709C94.4411 46.3998 94.1692 46.3573 93.9242 46.2439C93.8547 46.2091 93.7983 46.1527 93.7635 46.0831C93.7475 46.0179 93.7475 45.9498 93.7635 45.8846C93.7856 45.6031 93.8946 45.3354 94.0755 45.1187C93.9493 45.1421 93.819 45.1172 93.7103 45.0489C93.6017 44.9805 93.5228 44.8738 93.4893 44.7499C93.4586 44.623 93.4545 44.4911 93.4773 44.3626C93.5001 44.234 93.5492 44.1115 93.6217 44.0029C93.7724 43.7938 93.9541 43.6088 94.1606 43.4545C94.0657 43.4067 93.9891 43.3289 93.943 43.2332C93.8968 43.1374 93.8836 43.0291 93.9053 42.925C93.9633 42.6853 94.0802 42.4638 94.2452 42.2805C94.4103 42.0973 94.6185 41.9581 94.8509 41.8754C95.3031 41.7156 95.7227 41.4754 96.0895 41.1663C95.7964 41.0623 95.456 40.911 95.3993 40.599C95.3841 40.4538 95.4069 40.3072 95.4655 40.1735C95.6449 39.5442 96.0149 38.986 96.5245 38.5755C96.8097 38.4608 97.1281 38.4608 97.4133 38.5755C97.8672 38.8119 97.8293 39.209 97.6119 39.5872Z" fill="#FFCFB3"/>
<path d="M90.8511 42.2726C90.7231 42.3819 90.5836 42.477 90.4351 42.5563C90.3593 42.5984 90.2948 42.6583 90.247 42.7307C90.1993 42.8031 90.1697 42.886 90.1609 42.9723C90.1666 43.0131 90.1666 43.0544 90.1609 43.0952C90.1563 43.1161 90.1441 43.1345 90.1265 43.1468C90.109 43.1591 90.0875 43.1643 90.0663 43.1614H90.0096C89.8911 43.0318 89.7981 42.881 89.7354 42.717C89.5316 42.2361 89.4348 41.7167 89.4517 41.1947C89.4444 41.1079 89.4608 41.0207 89.4991 40.9425C89.5374 40.8642 89.5962 40.7978 89.6692 40.7503C90.0172 40.5759 90.4154 40.5291 90.7944 40.6179C91.1537 40.6746 91.4941 40.8354 91.3901 41.2703C91.3176 41.6518 91.1294 42.0018 90.8511 42.2726V42.2726Z" fill="#FFCFB3"/>
<defs>
<linearGradient id="paint0_linear_809:3111" x1="61.5709" y1="161.857" x2="68.2572" y2="155.306" gradientUnits="userSpaceOnUse">
<stop stop-color="white" stop-opacity="0"/>
<stop offset="0.99" stop-color="#FFA86A"/>
</linearGradient>
</defs>
</svg>
