<svg width="81" height="81" viewBox="0 0 81 81" fill="none" xmlns="http://www.w3.org/2000/svg">
<rect x="1" y="1" width="78.2467" height="78.2467" rx="39.1234" fill="white"/>
<path d="M34.415 30.5074L22.5327 23.6487L22.9483 22.9309L29.1867 12.4139C29.4827 11.9193 30.0155 11.6147 30.5928 11.6147C32.7808 11.6147 35.0736 12.2412 36.5475 14.6327C38.7947 18.2736 40.2809 20.7021 40.2809 20.7021L34.8306 29.7909L34.415 30.5074" fill="#278A8E"/>
<path d="M55.2268 29.6058L61.9968 17.879L57.7811 20.3124L57.7799 20.3099L54.5731 14.7536C53.4532 12.811 51.3799 11.6147 49.1389 11.6147H34.2582C36.4993 11.6147 37.6081 12.811 38.7292 14.7524L45.8963 27.1699L45.8988 27.1736L41.6856 29.6058H55.2268Z" fill="#31AFB4"/>
<path d="M28.0621 40.4639L28.0633 40.4602L32.2766 42.8924L25.5066 31.1655H11.9666L16.1823 33.599L16.1798 33.6027L12.9706 39.1578C11.8495 41.0991 11.8482 43.4919 12.9694 45.4344L20.4103 58.3207C19.2892 56.3794 19.7714 54.8204 20.8925 52.879L28.0621 40.4639" fill="#31AFB4"/>
<path d="M36.6945 62.4587L35.8668 62.4575L23.6392 62.3119C23.062 62.3045 22.5316 61.9938 22.243 61.4942C21.593 60.3694 21.117 59.1027 21.1157 57.7411C21.1157 56.8087 21.3377 55.8331 21.8792 54.8279C23.9081 51.0624 25.2685 48.5599 25.2685 48.5599L35.8656 48.7363L36.6945 48.7375V62.4587Z" fill="#278A8E"/>
<path d="M55.9778 48.1653L50.8321 38.9002L50.4189 38.1824L62.3013 31.3211L62.7132 32.039L68.7012 42.7014C68.8406 42.9494 68.9109 43.2244 68.9109 43.4982C68.9109 43.7819 68.8381 44.0656 68.6914 44.3196C67.5974 46.2141 65.9089 47.8853 63.1005 47.968C58.8244 48.0925 55.9778 48.1653 55.9778 48.1653" fill="#278A8E"/>
<path d="M61.9053 49.7969L47.5686 49.7945H47.5637V44.9301L40.7937 56.6569L47.5637 68.3826V63.5157H47.5674L53.9833 63.5169C56.2256 63.5182 58.2977 62.3218 59.42 60.3805L66.8597 47.4918C65.7398 49.4343 64.1488 49.7969 61.9053 49.7969" fill="#31AFB4"/>
<rect x="1" y="1" width="78.2467" height="78.2467" rx="39.1234" stroke="#E2E8F0" stroke-width="2"/>
</svg>
