<svg width="359" height="196" viewBox="0 0 359 196" fill="none" xmlns="http://www.w3.org/2000/svg">
<g clip-path="url(#clip0_601:2497)">
<path d="M156.954 70.9225C157.292 70.976 157.63 71.0307 157.968 71.0859Z" fill="#F3F6FC"/>
<path d="M127.693 25.9542L123.465 29.6955L126.567 24.0798C124.374 20.5519 122.047 17.4704 119.922 14.9415L117.695 17.0458L118.583 13.3875C115.074 9.41278 112.411 7.15554 112.411 7.15554C110.422 11.6741 109.029 16.2809 108.09 20.8383L113.592 23.363L107.756 22.574C106.799 27.8504 106.432 33.0358 106.445 37.9089L114.235 42.468L106.484 40.4219C106.642 45.9006 107.251 50.9131 107.979 55.1336C111.688 55.1336 117.67 55.1336 117.67 55.1336L108.31 56.9616C109.634 63.9149 111.176 68.2871 111.176 68.2871L135.376 52.8793C135.554 42.6762 132.028 33.428 127.693 25.9542" fill="#31AFB4"/>
<path d="M125.767 59.9457C124.076 56.2938 122.615 51.9128 121.365 47.3137C121.346 46.7715 121.261 41.1629 125.684 38.0178C125.799 37.9367 125.826 37.7773 125.744 37.6627C125.662 37.548 125.503 37.5204 125.389 37.6027C122.091 39.9475 121.183 43.5936 120.94 45.7138C119.488 40.1063 118.344 34.2659 117.472 29.0877C117.607 28.4791 118.655 24.094 121.252 22.2648C121.367 22.1843 121.395 22.0249 121.314 21.9097C121.233 21.795 121.075 21.7668 120.959 21.848C118.872 23.3185 117.757 26.216 117.268 27.8576C115.88 19.3679 115.254 12.9419 115.241 12.802C115.227 12.6621 115.105 12.5633 114.963 12.5721C114.823 12.5856 114.72 12.7103 114.733 12.8502C114.741 12.9355 114.975 15.3362 115.467 19.1062C114.91 18.6382 113.919 18.0138 112.442 17.8327C112.302 17.8145 112.176 17.9144 112.158 18.0544C112.141 18.1943 112.24 18.3213 112.38 18.3383C114.387 18.5853 115.419 19.736 115.575 19.9229C115.921 22.5094 116.378 25.6533 116.957 29.0924C116.954 29.1329 116.961 29.1718 116.976 29.2076C117.32 31.252 117.708 33.3987 118.139 35.5942C117.205 34.6499 115.242 33.033 112.446 32.6443C112.305 32.6249 112.178 32.7225 112.159 32.8619C112.14 33.0012 112.237 33.13 112.376 33.15C115.95 33.6462 118.158 36.3491 118.334 36.572C119.055 40.1492 119.893 43.8305 120.858 47.3854C120.858 47.3877 120.858 47.3995 120.858 47.4001C120.861 47.4383 120.872 47.473 120.89 47.5047C121.206 48.6642 121.534 49.8102 121.878 50.9344C120.568 49.692 117.554 47.543 112.406 47.6329C112.265 47.6359 112.154 47.7523 112.157 47.8934C112.16 48.0333 112.25 48.1298 112.416 48.1433C119.049 48.0057 122.072 51.8558 122.23 52.0639C123.157 54.9826 124.18 57.732 125.305 60.1603C125.348 60.2532 125.44 60.3079 125.536 60.3079C125.573 60.3079 125.609 60.3002 125.643 60.2843C125.771 60.225 125.827 60.0739 125.767 59.9457" fill="#39526D"/>
<path d="M144.105 41.1445L150.028 38.9855C150.284 36.3119 150.274 33.3815 150.139 30.6256H146.967L150.03 28.7982C149.68 23.7564 149.005 19.7182 149.005 19.7182C143.724 22.601 139.77 26.2688 136.808 30.1459L138.166 34.1317L136.096 31.1201C133.477 34.7767 131.699 38.5698 130.498 42.0364L133.749 44.981L130.128 43.1389C127.973 49.8924 127.972 55.1335 127.972 55.1335C127.972 55.1335 143.747 52.8793 148.039 46.2246C148.916 44.8652 149.471 42.9502 149.805 40.7711L144.105 41.1445" fill="#278A8E"/>
<path d="M148.267 27.5988C147.106 27.5229 145.979 28.1186 145.23 28.6377C146.362 26.287 147.162 24.8012 147.187 24.7542C147.254 24.6307 147.208 24.4761 147.085 24.4084C146.96 24.3414 146.806 24.3873 146.739 24.5113C146.7 24.5837 144.827 28.0615 142.723 32.8782C142.603 31.9133 142.254 30.4899 141.251 29.3698C141.157 29.2645 140.995 29.2557 140.891 29.3498C140.786 29.4438 140.777 29.605 140.871 29.7096C142.314 31.3201 142.278 33.7172 142.272 33.9224C141.447 35.8598 140.605 37.9747 139.836 40.1508C139.823 40.1761 139.814 40.2008 139.81 40.2279C139.365 41.4932 138.946 42.7785 138.571 44.0597C137.996 39.5399 135.856 37.7196 135.756 37.6372C135.648 37.5485 135.487 37.5643 135.397 37.6731C135.308 37.7819 135.324 37.9424 135.433 38.0318C135.458 38.0524 137.927 40.1385 138.184 45.4332C137.673 47.3447 137.274 49.2291 137.052 51.0054C137.035 51.1454 137.134 51.2723 137.273 51.29C137.284 51.2912 137.295 51.2917 137.306 51.2917C137.432 51.2917 137.542 51.1977 137.558 51.0683C137.977 47.7134 139.032 43.9686 140.295 40.3796C140.588 40.0274 142.645 37.6431 145.436 36.6806C145.57 36.6348 145.64 36.4895 145.594 36.3566C145.549 36.2243 145.405 36.1532 145.271 36.1985C143.271 36.8876 141.667 38.2323 140.737 39.1513C142.05 35.587 143.524 32.2485 144.733 29.6826C144.999 29.4374 146.616 28.0157 148.235 28.1068C148.366 28.1162 148.496 28.0092 148.505 27.8687C148.514 27.7281 148.407 27.607 148.267 27.5988" fill="#39526D"/>
<path d="M103.612 60.679C103.612 60.679 76.4257 57.03 76.7179 41.932C76.7179 41.932 76.4975 38.2819 82.8646 39.7489C89.2318 41.2159 102.539 47.2267 103.612 60.679" fill="#31AFB4"/>
<path d="M109.11 68.627C108.988 68.627 108.87 68.5611 108.809 68.4459C102.763 57.0286 86.3011 47.9732 86.1359 47.8827C85.9713 47.7933 85.9102 47.5869 86.0001 47.4217C86.0895 47.2571 86.2952 47.1953 86.461 47.2865C86.6286 47.377 103.269 56.5312 109.409 68.1278C109.498 68.2942 109.434 68.4994 109.268 68.5876C109.218 68.614 109.163 68.627 109.11 68.627Z" fill="#39526D"/>
<path d="M97.704 71.8416C97.704 71.8416 87.8009 59.1766 92.666 56.9147C98.2637 54.3117 98.9004 66.9043 97.704 71.8416Z" fill="#29B7A0"/>
<path d="M100.035 77.8923C99.9514 77.8923 99.8702 77.8518 99.8209 77.7771C97.2472 73.8447 94.9445 61.6719 94.8475 61.1557C94.8217 61.0175 94.9128 60.8835 95.0509 60.8582C95.1897 60.8323 95.3225 60.9228 95.349 61.0616C95.3725 61.1868 97.7292 73.6501 100.248 77.4978C100.325 77.616 100.292 77.7736 100.174 77.8512C100.131 77.8788 100.082 77.8923 100.035 77.8923Z" fill="#39526D"/>
<path d="M67.9122 59.2477C67.9122 59.2477 71.8374 81.7188 94.8429 91.8784L98.2108 84.1566C98.2108 84.1566 87.5146 61.5378 67.9122 59.2477" fill="#31AFB4"/>
<path d="M96.0715 87.8185C94.7206 86.251 93.2122 84.5776 91.6267 82.8695L89.0348 73.7483C88.9837 73.5678 88.795 73.4632 88.6145 73.5143C88.434 73.5661 88.3294 73.7536 88.3805 73.9341L90.6109 81.7818C86.4182 77.315 81.827 72.7153 78.2716 69.2209L77.8372 64.7247C77.8189 64.5377 77.6579 64.4037 77.4662 64.4195C77.2793 64.4372 77.1423 64.6036 77.1605 64.7906L77.5174 68.4807C74.3758 65.4038 72.209 63.3483 72.1525 63.2948C72.0161 63.166 71.8016 63.1707 71.6717 63.3077C71.5429 63.4441 71.5488 63.6593 71.6852 63.7886C71.7704 63.8692 76.6009 68.4513 82.3431 74.2258L77.1882 73.5049C77.0006 73.479 76.8302 73.6084 76.8049 73.7942C76.779 73.98 76.9078 74.1523 77.0941 74.1781L83.1338 75.0225C87.3782 79.3094 92.0147 84.1501 95.556 88.2618C95.6236 88.34 95.7182 88.3806 95.8135 88.3806C95.8922 88.3806 95.9716 88.353 96.0351 88.2977C96.1779 88.1754 96.1938 87.9608 96.0715 87.8185" fill="#39526D"/>
<path d="M159.548 45.676C159.424 45.676 159.316 45.5861 159.296 45.4608C159.273 45.3109 157.009 30.307 162.386 14.0537C162.429 13.9196 162.574 13.8461 162.707 13.8914C162.841 13.9361 162.913 14.0807 162.869 14.2136C157.533 30.3452 159.777 45.2333 159.8 45.3815C159.821 45.5208 159.727 45.6513 159.587 45.6731C159.574 45.6749 159.561 45.676 159.548 45.676" fill="#39526D"/>
<path d="M159.058 38.5259C159.058 38.5259 153.431 37.661 153.472 33.4728C153.513 29.2847 159.058 38.5259 159.058 38.5259Z" fill="#31AFB4"/>
<path d="M159.193 32.3838C159.193 32.3838 161.149 28.5455 164.146 29.2434C167.143 29.9413 159.193 32.3838 159.193 32.3838Z" fill="#31AFB4"/>
<path d="M159.807 26.3013C159.807 26.3013 156.266 25.5487 156.265 22.6329C156.264 19.7177 159.368 23.9741 159.807 26.3013Z" fill="#278A8E"/>
<path d="M160.74 21.073C160.74 21.073 163.037 18.2807 164.557 18.7734C166.076 19.2662 162.465 21.0324 160.74 21.073Z" fill="#278A8E"/>
<path d="M162.279 15.2209C162.279 15.2209 161.601 11.5061 160.041 12.2452C158.481 12.9843 161.643 15.158 162.279 15.2209Z" fill="#31AFB4"/>
<path d="M163.492 42.3611L173.794 41.6455C189.391 27.3343 197.117 -1.90613e-05 197.117 -1.90613e-05C179.947 4.29336 163.492 42.3611 163.492 42.3611" fill="#278A8E"/>
<path d="M170.646 41.4709C170.61 41.4709 170.572 41.4633 170.538 41.4463C170.411 41.3857 170.356 41.234 170.416 41.107C178.206 24.6755 190.633 7.18272 190.757 7.00809C190.839 6.89344 190.998 6.8658 191.113 6.94812C191.227 7.02984 191.254 7.18917 191.173 7.30383C191.048 7.47787 178.647 24.9354 170.877 41.3251C170.833 41.4174 170.742 41.4709 170.646 41.4709" fill="#39526D"/>
<path d="M231.172 2.00382C223.302 22.7546 235.321 60.3931 235.321 60.3931H236.227C244.336 29.1588 231.172 2.00382 231.172 2.00382Z" fill="#31AFB4"/>
<path d="M236.226 51.4888C236.089 51.4888 235.976 51.38 235.971 51.2418C235.594 39.3701 231.956 11.0509 231.919 10.7663C231.902 10.6264 232.001 10.4988 232.14 10.4806C232.285 10.4647 232.407 10.5617 232.426 10.7011C232.462 10.9857 236.103 39.3295 236.481 51.2259C236.485 51.3665 236.375 51.4841 236.234 51.4888C236.231 51.4888 236.228 51.4888 236.226 51.4888" fill="#39526D"/>
<path d="M175.511 5.43815C160.202 3.14858 159.968 23.3372 201.267 43.7922H202.269C202.269 43.7922 190.822 7.7283 175.511 5.43815Z" fill="#31AFB4"/>
<path d="M200.408 44.0469C200.322 44.0469 200.238 44.0034 200.19 43.9234C193.134 32.2092 171.404 11.128 171.185 10.9169C171.084 10.8193 171.081 10.6577 171.179 10.5565C171.277 10.456 171.439 10.453 171.539 10.5506C171.759 10.7623 193.537 31.89 200.627 43.6606C200.699 43.7811 200.661 43.9381 200.54 44.0104C200.499 44.0357 200.453 44.0469 200.408 44.0469" fill="#39526D"/>
<path d="M199.101 42.6999C199.101 42.6999 207.849 18.7476 225.877 16.4581C243.906 14.1679 236.036 30.1232 220.154 35.4549C204.271 40.7866 199.101 44.5073 199.101 44.5073V42.6999" fill="#278A8E"/>
<path d="M201.124 42.6157C201.066 42.6157 201.009 42.5969 200.962 42.5581C200.854 42.4687 200.837 42.3082 200.927 42.1994C209.011 32.3327 216.784 27.2038 221.882 24.639C227.42 21.8515 230.992 21.4116 231.142 21.394C231.286 21.3793 231.407 21.4787 231.424 21.618C231.441 21.758 231.34 21.8844 231.201 21.9008C231.057 21.9179 216.661 23.8012 201.321 42.5222C201.27 42.584 201.198 42.6157 201.124 42.6157" fill="#39526D"/>
<path d="M262.507 35.3485C243.906 39.7853 243.906 56.2427 243.906 56.2427C286.975 53.3804 290.302 21.1807 290.302 21.1807C290.302 21.1807 281.108 30.9122 262.507 35.3485Z" fill="#278A8E"/>
<path d="M284.02 29.2769C283.906 29.1929 283.747 29.2146 283.663 29.3281C283.629 29.3728 281.782 31.7858 277.965 34.8168C278.153 33.8396 278.661 31.9381 279.936 30.5428C280.031 30.4394 280.024 30.2777 279.92 30.183C279.816 30.0883 279.656 30.0948 279.56 30.1989C277.855 32.0651 277.446 34.6798 277.373 35.2807C274.157 37.7538 269.667 40.5643 263.831 42.8197C264.837 41.5656 267.018 39.0161 268.929 37.9313C269.051 37.8625 269.094 37.7067 269.025 37.5844C268.954 37.4615 268.798 37.4198 268.677 37.488C266.103 38.9491 263.197 42.7856 262.888 43.1984C260.511 44.1286 258.301 45.1957 256.273 46.3593C256.263 46.364 256.253 46.3687 256.243 46.3752C254.684 47.2713 253.231 48.2191 251.875 49.1928C252.393 47.5535 253.932 43.4412 256.815 41.5732C256.933 41.4962 256.968 41.3386 256.891 41.2204C256.814 41.1011 256.656 41.0693 256.538 41.1452C252.888 43.51 251.36 49.0552 251.192 49.7025C244.605 54.5962 240.49 60.0244 238.653 62.7908C238.576 62.9078 238.607 63.066 238.725 63.1442C238.768 63.173 238.817 63.1865 238.865 63.1865C238.948 63.1865 239.029 63.1471 239.078 63.073C241.32 59.6969 246.963 52.312 256.426 46.8562C256.86 46.9561 258.6 47.3218 260.788 47.3218C262.053 47.3218 263.467 47.199 264.861 46.8315C264.997 46.7956 265.078 46.6557 265.042 46.5198C265.007 46.384 264.868 46.304 264.731 46.3382C261.698 47.1384 258.491 46.7209 257.127 46.4757C259.124 45.3662 261.27 44.3373 263.599 43.4583C266.39 42.404 268.878 41.2193 271.08 39.9998C271.499 39.9698 275.869 39.6247 278.686 38.2982C278.813 38.2382 278.868 38.0865 278.807 37.9589C278.748 37.8314 278.596 37.7773 278.469 37.8372C276.529 38.7498 273.736 39.1902 272.175 39.3766C274.331 38.1177 276.185 36.8377 277.742 35.6376C277.763 35.6241 277.78 35.6129 277.796 35.5941C282.002 32.3403 284.035 29.6815 284.07 29.6338C284.155 29.5215 284.132 29.3616 284.02 29.2769" fill="#39526D"/>
<path d="M239.2 68.0515C239.059 68.0515 238.945 67.9375 238.945 67.7969C238.945 44.308 253.047 13.7939 253.19 13.4882C253.25 13.3606 253.403 13.3059 253.529 13.3647C253.657 13.4241 253.712 13.5758 253.652 13.704C253.51 14.008 239.455 44.4221 239.455 67.7969C239.455 67.9375 239.34 68.0515 239.2 68.0515" fill="#39526D"/>
<path d="M242.649 43.5952C240.807 39.6958 240.489 35.099 241.778 30.9832C242.804 33.3204 242.833 35.9445 242.916 38.4951C242.972 40.1732 242.594 41.9171 242.649 43.5952" fill="#278A8E"/>
<path d="M253.851 31.5388C250.665 31.4865 247.478 32.7683 245.214 35.0108C247.166 35.4859 249.115 34.8003 250.901 33.8807C252.016 33.3069 253.209 32.6148 253.851 31.5388" fill="#31AFB4"/>
<path d="M246.93 29.7837C245.427 27.5206 245.073 24.5348 246.005 21.983C247.024 22.9109 247.405 24.3314 247.434 25.709C247.463 27.0867 247.298 28.456 246.93 29.7837" fill="#31AFB4"/>
<path d="M249.044 23.9759C249.497 23.3085 250.271 22.9152 251.061 22.7535C251.85 22.5918 252.665 22.6365 253.47 22.6817C254.067 22.7153 254.716 22.7699 255.155 23.175C253.372 24.7302 251.189 24.9766 249.044 23.9759Z" fill="#278A8E"/>
<path d="M250.874 19.4749C250.114 18.8169 249.568 17.9156 249.337 16.9372C249.106 15.9582 249.192 14.9081 249.578 13.9797C250.015 14.3989 250.36 14.881 250.572 15.4472C251.052 16.7273 251.074 18.1225 250.874 19.4749" fill="#278A8E"/>
<path d="M252.933 14.6052C253.611 14.5658 254.243 14.2518 254.917 14.1601C255.751 14.0472 256.629 14.3001 257.276 14.8398C256.732 15.4278 255.873 15.6259 255.075 15.5724C254.276 15.5183 253.637 14.9868 252.933 14.6052Z" fill="#31AFB4"/>
<path d="M259.788 86.4668L262.542 90.124C279.748 72.4337 284.5 44.4138 284.5 44.4138C271.402 53.388 259.788 86.4668 259.788 86.4668" fill="#278A8E"/>
<path d="M264.796 84.0466C264.756 84.0466 264.715 84.0366 264.677 84.0172C264.553 83.952 264.505 83.7979 264.57 83.6733C267.007 79.01 280.251 50.5075 280.384 50.22C280.443 50.0924 280.594 50.0383 280.723 50.0959C280.85 50.1553 280.906 50.307 280.846 50.4346C280.713 50.7221 267.465 79.2358 265.021 83.9096C264.977 83.9966 264.887 84.0466 264.796 84.0466" fill="#39526D"/>
<path d="M213.083 46.8704C215.194 44.5432 218.785 39.8165 221.723 38.7052C223.148 38.166 224.675 37.9444 226.109 37.4305C226.816 41.815 224.456 48.7866 221.947 52.4503C221.708 52.7989 221.433 53.1576 221.035 53.2993C220.711 53.4145 220.354 53.3681 220.017 53.3022C216.894 52.6931 214.327 49.7991 213.083 46.8704" fill="#278A8E"/>
<path d="M217.663 51.4888C217.631 51.4888 217.597 51.4823 217.565 51.4694C217.435 51.4153 217.373 51.2665 217.427 51.136C219.077 47.1531 222.907 41.2786 222.946 41.2198C223.022 41.1011 223.179 41.0681 223.298 41.1457C223.416 41.2228 223.449 41.3809 223.371 41.4985C223.334 41.5573 219.529 47.393 217.899 51.3312C217.858 51.4294 217.763 51.4888 217.663 51.4888" fill="#39526D"/>
<path d="M277.612 56.2426C267.964 52.3784 259.788 59.5846 259.788 59.5846C287.121 84.1995 304.716 65.8777 304.716 65.8777C294.844 66.926 287.26 60.1067 277.612 56.2426" fill="#31AFB4"/>
<path d="M296.81 67.6286C296.779 67.4916 296.648 67.4052 296.506 67.4346C295.235 67.7162 293.943 67.7968 292.622 67.7221C292.616 67.7221 292.612 67.7209 292.607 67.7215C291.145 67.638 289.646 67.3593 288.103 66.9559C289.128 66.5508 291.073 65.8482 292.349 65.7994C292.49 65.7941 292.6 65.6753 292.595 65.5354C292.589 65.3943 292.46 65.2743 292.329 65.2902C290.586 65.3572 287.808 66.515 287.293 66.736C284.883 66.0464 282.359 65.075 279.679 64.042C277.613 63.2458 275.505 62.4374 273.315 61.6995C273.308 61.6965 273.3 61.6942 273.292 61.6918C272.013 61.2614 270.707 60.8557 269.36 60.4935C270.203 59.9226 272.296 58.7049 275.347 58.2839C275.487 58.2645 275.584 58.1363 275.565 57.9964C275.546 57.8576 275.415 57.7589 275.278 57.7789C271.508 58.2986 269.202 59.9503 268.714 60.3277C268.477 60.2672 268.243 60.2025 268.004 60.1449C253.535 56.6535 240.973 65.5801 240.848 65.6712C240.734 65.7535 240.708 65.9129 240.79 66.0275C240.872 66.141 241.032 66.1663 241.146 66.0846C241.27 65.9952 253.647 57.2038 267.884 60.6405C269.648 61.0668 271.343 61.5772 272.993 62.1287C273.098 62.8601 273.7 65.82 276.718 68.4876C276.766 68.5305 276.826 68.5517 276.887 68.5517C276.957 68.5517 277.028 68.5223 277.078 68.4659C277.171 68.36 277.161 68.1989 277.056 68.106C274.477 65.8264 273.741 63.2788 273.545 62.3151C275.587 63.0136 277.559 63.7715 279.495 64.5182C284.217 66.338 288.462 67.9708 292.48 68.2224C292.682 68.5288 293.318 69.319 294.829 69.8635C294.858 69.8741 294.887 69.8782 294.916 69.8782C295.019 69.8782 295.118 69.8135 295.155 69.71C295.203 69.5777 295.135 69.4313 295.002 69.3837C294.028 69.0327 293.465 68.5735 293.16 68.2507C293.284 68.253 293.408 68.2595 293.53 68.2595C294.572 68.2595 295.599 68.1578 296.616 67.9326C296.754 67.902 296.841 67.7656 296.81 67.6286" fill="#39526D"/>
<path d="M247.139 71.4557C247.505 71.2881 247.87 71.1206 248.237 70.9553C253.901 68.4071 259.847 66.4897 265.933 65.2485C260.498 70.1128 253.58 72.9462 246.715 75.4104C246.606 74.238 247.249 72.6281 247.139 71.4557" fill="#31AFB4"/>
<path d="M275.431 76.9386C275.431 76.9386 273.829 82.3415 270.229 89.4783C266.628 96.6157 267.884 103.759 267.884 103.759L269.542 106.641C279.919 95.7296 275.431 76.9386 275.431 76.9386" fill="#31AFB4"/>
<path d="M275.864 84.8603C275.921 84.7633 275.888 84.6381 275.791 84.5816C275.693 84.5258 275.569 84.5575 275.512 84.6545C275.308 85.005 274.912 85.3948 274.612 85.6635C274.79 84.1524 274.843 83.1905 274.844 83.1576C274.85 83.0453 274.763 82.9494 274.651 82.9435C274.542 82.9477 274.442 83.0247 274.437 83.1376C274.435 83.1905 274.3 85.6823 273.709 88.9961C273.407 88.347 272.957 87.2622 272.909 86.4549C272.902 86.342 272.805 86.2509 272.694 86.2632C272.581 86.2697 272.495 86.3661 272.502 86.4784C272.572 87.6626 273.395 89.3072 273.584 89.6711C273.12 92.0941 272.415 94.8735 271.354 97.44C270.95 95.4338 271.009 92.3099 271.01 92.2752C271.012 92.1624 270.923 92.0695 270.81 92.0671C270.809 92.0671 270.807 92.0671 270.806 92.0671C270.695 92.0671 270.604 92.1553 270.602 92.2664C270.598 92.4234 270.53 96.0877 271.084 98.0721C270.579 99.2122 270.001 100.3 269.336 101.279C269.272 101.373 269.296 101.5 269.39 101.563C269.424 101.587 269.464 101.598 269.504 101.598C269.569 101.598 269.634 101.566 269.673 101.509C270.359 100.498 270.954 99.3756 271.473 98.2002C271.477 98.1932 271.479 98.1867 271.482 98.1791C271.953 97.1107 272.358 95.9989 272.708 94.8835C272.904 94.6812 274.609 92.8956 275.338 91.2816C275.384 91.1787 275.338 91.0581 275.235 91.0117C275.132 90.9658 275.012 91.0111 274.966 91.1134C274.499 92.1471 273.583 93.2871 272.98 93.9786C273.402 92.5122 273.732 91.0623 273.988 89.7217C273.994 89.707 273.993 89.6946 273.996 89.6799C274.236 88.4146 274.412 87.251 274.538 86.2662C274.758 86.0874 275.524 85.4436 275.864 84.8603" fill="#39526D"/>
<path d="M334.056 138.703C336.477 143.099 340.143 147.338 345.092 148.165C347.506 148.568 350.26 147.959 351.722 145.997C352.538 144.904 352.866 143.523 353.014 142.168C353.704 135.846 350.884 129.642 347.302 124.387C344.507 120.286 337.075 112.876 331.849 117.883C326.993 122.535 331.49 134.046 334.056 138.703V138.703ZM55.684 137.479C57.9896 136.522 59.909 134.765 61.3176 132.704C61.9548 131.772 62.508 130.736 62.6026 129.612C62.7954 127.329 61.0001 125.255 58.8879 124.37C53.098 121.941 44.2072 124.373 40.0798 128.937C39.009 130.121 38.1224 131.615 38.2119 133.208C38.4549 137.532 43.982 138.739 48.9454 138.613C51.6966 138.543 54.2743 138.064 55.684 137.479V137.479ZM358.953 183.639C358.399 193.582 355.525 195.867 346.376 195.811C339.17 195.768 331.961 195.811 324.755 195.811C301.156 195.811 277.558 195.811 253.959 195.811C198.724 195.811 143.49 195.811 88.2553 195.811C71.8021 195.811 55.3496 195.811 38.8969 195.811C33.5294 196.159 24.5565 196.047 19.2771 195.302C12.5673 194.354 9.28921 187.351 5.56203 182.171C3.1375 178.801 0.919022 175.134 0.227164 171.04C-0.69255 165.601 1.25822 159.929 4.67265 155.596C11.8097 146.541 20.7953 144.562 31.7248 145.359C41.0415 146.04 50.8118 145.665 59.0843 141.325C61.8507 139.874 64.3803 138.013 66.8252 136.068C74.5533 129.919 81.6653 122.705 86.5675 114.064C88.4434 110.757 89.4445 107.03 91.6766 103.993C93.7994 101.104 96.1297 98.3549 98.554 95.7155C103.819 89.9834 109.675 84.7516 116.071 80.3101C128.095 71.9608 143.412 65.6148 158.152 69.8259C181.32 76.4441 203.948 84.7404 226.713 92.8792C250.041 101.22 275.32 104.044 299.905 100.943C306.162 100.154 312.498 102.25 316.847 106.897C320.492 110.791 322.559 115.992 323.249 121.281C323.902 126.282 323.4 131.441 324.676 136.321C327.518 147.188 337.295 152.452 346.015 158.061C354.678 163.632 359.534 173.227 358.953 183.639" fill="#D2EFE5"/>
<path d="M262.207 195.812C272.556 179.963 278.577 161.031 278.577 140.69C278.577 84.9416 233.393 39.7488 177.655 39.7488C121.917 39.7488 76.7336 84.9416 76.7336 140.69C76.7336 161.031 82.7545 179.963 93.1039 195.812H262.207" fill="#7FD4CE"/>
<path d="M257.206 153.47C258.929 152.157 261.072 151.368 262.5 149.737C265.018 146.862 264.478 142.491 265.688 138.865C266.191 137.358 267.018 135.912 267.055 134.324C267.113 131.768 264.148 128.819 264.398 126.275C264.629 123.929 264.856 121.528 264.274 119.244C263.856 117.608 263.024 116.023 263.133 114.337C263.235 112.74 264.174 111.112 263.58 109.625C263.224 108.731 262.383 108.125 261.883 107.303C261.302 106.344 261.227 105.173 260.897 104.101C260.24 101.962 258.474 100.199 256.336 99.545C255.157 99.1846 253.89 99.1434 252.74 98.7007C250.901 97.9928 249.569 96.3447 247.779 95.5203C245.696 94.5614 243.196 94.8083 241.155 93.7629C239.918 93.1291 238.948 92.0684 237.747 91.3699C235.944 90.3203 233.505 90.0887 231.696 91.1288C230.148 92.0196 228.21 91.7332 226.476 91.3069C224.741 90.8807 222.93 90.3386 221.205 90.7972C219.867 91.1523 218.764 92.0654 217.632 92.8609C216.5 93.6565 214.929 93.9017 213.611 94.3215C212.151 94.7866 210.796 94.9494 209.422 95.628C206.568 97.0367 204.192 99.3945 202.762 102.237C201.838 104.075 201.274 106.139 199.916 107.683C198.878 108.864 197.465 109.635 196.082 110.382C195.082 110.922 194.023 111.477 192.887 111.446C191.633 111.41 190.525 110.67 189.35 110.228C187.468 109.519 185.305 109.593 183.475 110.428C181.941 111.128 180.555 112.356 178.87 112.39C175.836 112.453 174.21 108.86 171.633 107.259C169.927 106.199 167.397 105.6 167.172 103.604C167.056 102.577 167.639 101.376 166.969 100.589C166.193 99.6773 164.722 100.373 163.783 101.114C162.843 101.856 161.412 102.594 160.59 101.725C160.266 100.283 162.461 99.1576 162.106 97.7229C161.802 96.4923 160.075 96.4682 158.834 96.7257C158.711 96.0566 159.193 95.4504 159.493 94.8401C159.792 94.2303 159.787 93.2872 159.137 93.0879C158.903 93.0162 158.649 93.0715 158.418 93.1514C156.969 93.653 156.014 95.0523 155.459 96.4817C154.904 97.9116 154.645 99.448 154.021 100.849C153.397 102.25 152.284 103.569 150.777 103.853C149.27 104.138 147.498 102.915 147.688 101.392C147.767 100.758 148.145 100.206 148.372 99.6079C149.379 96.9597 147.325 93.9352 148.133 91.2193C148.912 88.6034 151.97 87.3722 153.332 85.0068C153.79 84.2107 154.039 83.3105 154.462 82.4944C155.935 79.6521 159.685 78.2404 162.667 79.4046C163.651 79.7891 164.534 80.4089 165.531 80.7634C166.528 81.1179 167.743 81.155 168.54 80.4588C168.9 79.4752 168.215 78.4103 167.41 77.7389C166.605 77.068 165.626 76.5582 165.066 75.6727C163.681 73.4849 165.58 70.8026 166.538 68.3966C167.395 66.2422 167.463 63.7833 166.727 61.5843C166.253 60.1685 165.464 58.8714 165.018 57.4456C164.572 56.0197 164.528 54.3381 165.447 53.1604C166.405 51.9304 168.09 51.6011 169.482 50.9003C170.875 50.1994 172.134 48.4919 171.294 47.1784C170.906 46.5716 170.186 46.2717 169.673 45.7667C168.702 44.8106 168.61 43.3095 168.397 41.9637C168.304 41.3786 168.132 40.7636 167.866 40.2227C145.274 42.3987 124.863 52.0233 109.11 66.6121C111.389 70.849 114.621 74.8249 114.771 79.5998C114.861 82.4615 115.437 85.7524 114.939 88.5723C114.504 91.0353 115.45 93.6012 117.032 95.538C118.615 97.4748 120.777 98.8548 123.016 99.9684C124.564 100.738 126.22 101.438 127.347 102.748C128.709 104.33 129.112 106.601 130.597 108.068C131.264 108.726 132.109 109.177 132.801 109.808C134.3 111.17 135.067 113.34 136.879 114.243C137.014 114.31 137.172 114.369 137.308 114.308C137.575 114.191 137.494 113.792 137.355 113.536C136.453 111.878 134.909 110.542 134.458 108.709C134.16 107.496 134.34 106.082 133.532 105.13C133.254 104.802 132.878 104.562 132.629 104.212C132.38 103.863 132.303 103.32 132.627 103.038C132.879 102.82 133.259 102.849 133.581 102.936C134.537 103.193 135.342 103.824 136.103 104.458C137.309 105.463 138.476 106.515 139.6 107.611C140.491 108.48 141.365 109.384 142.422 110.039C144.507 111.33 147.386 111.661 149.699 110.848C152.128 109.994 154.742 109.131 157.226 109.804C157.972 110.006 158.677 110.342 159.423 110.545C161.221 111.037 163.226 110.707 164.771 109.663C165.359 109.268 165.93 108.756 166.636 108.703C167.834 108.613 168.653 109.818 169.515 110.655C170.694 111.8 172.316 112.403 173.5 113.543C174.248 114.264 174.806 115.185 175.652 115.789C177.422 117.053 179.842 116.576 181.966 116.108C184.089 115.64 186.583 115.323 188.196 116.783C188.953 117.468 189.375 118.441 190.001 119.247C191.286 120.902 193.544 122.103 193.631 124.196C193.702 125.932 192.184 127.296 191.65 128.948C191.446 129.579 191.388 130.253 191.168 130.879C190.623 132.432 189.424 133.599 188.113 134.593C185.751 136.384 185.221 139.854 186.066 142.695C186.912 145.537 188.852 147.903 190.746 150.183C193.171 153.102 195.619 156.046 198.607 158.386C199.579 159.147 200.641 159.856 201.854 160.088C203.063 160.32 204.305 160.055 205.529 159.916C208.396 159.591 211.605 160.113 213.5 162.289C216.579 165.825 214.655 171.455 216.32 175.838C216.682 176.789 217.213 177.674 217.513 178.648C217.919 179.968 217.879 181.377 217.953 182.757C218.197 187.252 219.679 191.569 221.207 195.812H242.407C242.404 195.553 242.404 195.295 242.42 195.039C242.713 190.157 248.365 187.401 250.154 182.848C250.905 180.937 250.94 178.77 251.916 176.962C252.968 175.014 254.945 173.778 256.521 172.223C257.954 170.807 259.099 169.031 259.458 167.049C259.816 165.066 259.299 162.872 257.847 161.475C256.989 160.65 255.832 160.102 255.234 159.073C254.144 157.2 255.482 154.785 257.206 153.47" fill="#ADE2CF"/>
<path d="M167.049 88.1835C167.662 87.9883 168.318 87.9954 168.958 87.9295C170.103 87.8108 171.222 87.4509 172.221 86.8782C172.887 86.4972 173.531 86.0116 174.293 85.921C174.788 85.8616 175.286 85.9769 175.784 85.9839C176.893 86.0004 177.972 85.4818 179.077 85.5847C179.62 85.6353 180.203 85.8922 180.392 86.4037C180.57 86.8859 180.344 87.4145 180.123 87.8784C179.925 88.2929 179.723 88.7139 179.414 89.0543C179.106 89.3948 178.671 89.6493 178.212 89.6329C177.755 89.6158 177.343 89.3389 176.889 89.2854C175.611 89.1349 174.655 90.7271 173.37 90.6707C172.384 90.6271 171.647 89.6205 170.662 89.5576C169.997 89.5153 169.396 89.9139 168.773 90.1521C168.203 90.3702 166.665 90.9076 166.118 90.5043C165.051 89.7164 166.199 88.454 167.049 88.1835" fill="#ADE2CF"/>
<path d="M174.504 77.2031C174.674 77.5471 174.649 78.0575 174.296 78.2074C174.202 78.2474 174.099 78.2544 173.998 78.2615C173.657 78.2844 173.308 78.3021 172.982 78.2021C172.543 78.0669 172.196 77.7347 171.868 77.413C171.478 77.0309 171.086 76.6481 170.694 76.2659C170.331 75.9102 169.94 75.4839 169.98 74.9771C169.996 74.7695 170.085 74.5761 170.172 74.3879C170.425 73.8446 170.678 73.3019 170.931 72.7592C171.016 72.5764 171.12 72.3759 171.311 72.3124C171.597 72.2154 171.881 72.4917 171.982 72.7763C172.084 73.0603 172.089 73.3807 172.246 73.6394C172.58 74.1921 173.478 74.2809 173.663 74.8995C173.796 75.3451 173.558 75.7703 173.773 76.2048C173.949 76.5628 174.321 76.8316 174.504 77.2031" fill="#ADE2CF"/>
<path d="M127.329 195.812C127.694 193.803 127.704 191.655 127.669 189.623C127.649 188.473 127.615 187.269 127.053 186.266C126.122 184.604 124.056 183.983 122.676 182.67C120.226 180.341 120.336 176.312 118.274 173.633C117.004 171.983 115.011 170.987 113.817 169.282C109.951 163.765 116.614 155.288 112.848 149.704C111.466 147.655 109.033 146.648 106.962 145.299C104.273 143.547 102.078 141.107 99.3529 139.411C96.6276 137.714 92.9787 136.873 90.2633 138.584C87.7014 140.198 84.1978 140.036 81.5953 138.489C80.1709 137.641 78.9646 136.299 77.3333 136.003C77.1698 135.974 77.0082 135.957 76.8477 135.949C76.7748 137.52 76.7336 139.1 76.7336 140.69C76.7336 161.031 82.7545 179.963 93.1039 195.812H127.329" fill="#ADE2CF"/>
<path d="M222.666 50.3276C222.204 50.7809 221.872 51.413 221.753 52.3014C221.169 56.6801 229.372 58.8368 231.358 61.8001C232.494 63.4947 232.778 65.689 234.086 67.2548C236.332 69.9442 240.49 69.706 243.66 71.1977C245.683 72.1496 247.272 73.8019 248.965 75.2624C250.657 76.7229 252.633 78.0682 254.867 78.1764C255.473 78.2058 256.093 78.1052 256.677 77.9036C247.532 66.4046 235.931 56.95 222.666 50.3276" fill="#ADE2CF"/>
<path d="M183.486 80.183C184.243 80.0419 184.969 79.685 185.74 79.7003C186.677 79.7191 187.531 80.2883 188.467 80.3418C188.942 80.3694 189.427 80.263 189.889 80.3741C190.351 80.4853 190.791 80.9468 190.635 81.396C190.534 81.6906 190.217 81.8576 189.911 81.9164C189.605 81.9758 189.288 81.9558 188.983 82.021C187.949 82.2445 187.323 83.3704 186.311 83.6803C185.516 83.9243 184.661 83.6109 183.926 83.2223C183.191 82.8336 182.473 82.355 181.65 82.2386C181.106 82.1616 180.554 82.2503 180.005 82.2474C179.456 82.245 178.867 82.131 178.486 81.7359C178.255 81.4966 178.14 81.0709 178.388 80.8504C178.512 80.7398 178.688 80.7157 178.85 80.6769C179.622 80.4882 179.831 79.8538 180.65 79.9784C181.611 80.1242 182.505 80.3647 183.486 80.183" fill="#ADE2CF"/>
<path d="M211.208 195.812C210.713 194.243 208.648 192.762 207.562 191.663C207.307 191.405 207.042 191.141 206.705 191.004C206.083 190.751 205.369 190.987 204.709 190.866C203.523 190.651 202.799 189.376 201.655 188.996C201.024 188.786 200.306 188.866 199.713 188.562C199.169 188.283 198.827 187.728 198.362 187.329C197.564 186.644 196.432 186.445 195.644 185.748C194.644 184.863 194.184 183.206 192.865 183.004C191.888 182.856 191.036 183.636 190.087 183.91C189.487 184.083 188.834 184.053 188.255 184.289C186.91 184.838 186.509 186.5 185.733 187.728C184.26 190.058 181.312 190.879 178.631 191.517C176.572 192.007 174.512 192.498 172.452 192.988C171.896 193.12 171.326 193.259 170.856 193.583C170.14 194.076 169.794 194.93 169.756 195.812H211.208" fill="#C0774D"/>
<path d="M221.959 195.812C221.83 194.717 221.117 193.811 219.999 193.103C219.048 192.502 217.987 192.117 217.094 191.416C216.207 190.721 215.506 189.821 214.669 189.07C213.72 188.218 212.486 187.523 211.225 187.719C210.407 187.847 209.696 188.331 208.934 188.657C207.313 189.35 205.489 189.317 203.744 189.57C200.341 190.064 197.116 191.72 194.732 194.199C194.378 194.568 194.028 194.979 193.926 195.481C193.904 195.591 193.898 195.701 193.899 195.812H221.959" fill="#8F644C"/>
<path d="M131.039 195.812C130.98 195.756 130.918 195.705 130.856 195.66C127.986 193.599 124.283 192.738 120.798 193.321C120.378 193.392 119.948 193.482 119.528 193.406C118.763 193.268 118.212 192.623 117.627 192.11C117.041 191.598 116.187 191.179 115.512 191.566C115.339 191.666 115.181 191.816 114.981 191.824C114.839 191.829 114.705 191.757 114.58 191.686C113.31 190.958 111.933 190.01 110.517 190.377C109.935 190.529 109.433 190.892 108.98 191.288C108.166 192.001 107.47 192.849 106.921 193.782C106.661 194.225 106.135 195.087 105.931 195.812H131.039" fill="#C0774D"/>
<path d="M34.2783 150.552C23.8871 171.226 34.2783 178.683 34.2783 178.683C34.2783 178.683 44.6699 171.226 34.2783 150.552Z" fill="#31AFB4"/>
<path d="M37.1827 165.694C37.216 165.607 37.1714 165.509 37.0835 165.476C36.9956 165.444 36.898 165.487 36.8649 165.575L34.4485 171.999V164.755L35.9539 160.753C35.987 160.665 35.9427 160.567 35.8545 160.534C35.7665 160.501 35.6684 160.545 35.6361 160.634L34.4485 163.79V159.703C34.4485 159.61 34.3724 159.534 34.2785 159.534C34.1848 159.534 34.1085 159.61 34.1085 159.703V166.228L32.4575 161.838C32.4249 161.75 32.3261 161.707 32.2389 161.739C32.151 161.771 32.1066 161.87 32.1394 161.958L34.1085 167.193V175.379L31.6921 168.954C31.659 168.866 31.5612 168.822 31.4733 168.854C31.3856 168.888 31.341 168.986 31.3741 169.073L34.1085 176.344V191.411C34.1085 191.505 34.1848 191.581 34.2785 191.581C34.3724 191.581 34.4485 191.505 34.4485 191.411V172.964L37.1827 165.694" fill="#39526D"/>
<path d="M48.4886 161.823C40.9633 176.794 48.4886 182.194 48.4886 182.194C48.4886 182.194 56.0139 176.794 48.4886 161.823Z" fill="#278A8E"/>
<path d="M50.3298 173.878C50.2511 173.827 50.1452 173.853 50.0964 173.934L48.6585 176.281V171.567L49.816 169.677C49.8648 169.596 49.8396 169.491 49.7596 169.443C49.6802 169.393 49.575 169.417 49.5262 169.499L48.6585 170.915V168.45C48.6585 168.356 48.5827 168.28 48.4886 168.28C48.3946 168.28 48.3187 168.356 48.3187 168.45V173.444L47.0219 171.426C46.9708 171.348 46.8655 171.324 46.7868 171.375C46.708 171.426 46.6851 171.532 46.7356 171.61L48.3187 174.072V178.811L46.3776 175.792C46.3265 175.712 46.2218 175.689 46.1431 175.74C46.0643 175.791 46.0414 175.896 46.0919 175.975L48.3187 179.439V191.411C48.3187 191.505 48.3946 191.581 48.4886 191.581C48.5827 191.581 48.6585 191.505 48.6585 191.411V176.933L50.3863 174.112C50.4351 174.031 50.4104 173.927 50.3298 173.878" fill="#39526D"/>
<path d="M18.3337 161.823C10.8083 176.794 18.3337 182.194 18.3337 182.194C18.3337 182.194 25.8588 176.794 18.3337 161.823Z" fill="#278A8E"/>
<path d="M20.0271 174.591C19.9447 174.543 19.8421 174.572 19.7955 174.654L18.5035 176.923V171.321L19.5628 169.461C19.6092 169.379 19.5807 169.275 19.499 169.229C19.417 169.181 19.3132 169.21 19.2673 169.292L18.5035 170.634V168.45C18.5035 168.356 18.4275 168.28 18.3336 168.28C18.2397 168.28 18.1637 168.356 18.1637 168.45V172.978L16.7475 170.393C16.7027 170.311 16.5978 170.28 16.5167 170.326C16.4343 170.37 16.4042 170.474 16.4492 170.557L18.1637 173.684V179.267L16.2648 175.802C16.22 175.719 16.1162 175.688 16.034 175.735C15.9518 175.779 15.9215 175.882 15.9668 175.965L18.1637 179.973V191.411C18.1637 191.505 18.2397 191.581 18.3336 191.581C18.4275 191.581 18.5035 191.505 18.5035 191.411V177.61L20.091 174.823C20.1374 174.741 20.1087 174.637 20.0271 174.591" fill="#39526D"/>
<path d="M57.3907 195.812L57.5682 195.788C56.1209 194.29 54.4314 192.683 52.3486 192.688C51.8854 192.689 51.4215 192.773 50.9618 192.721C49.8372 192.593 48.979 191.704 48.1365 190.947C47.2941 190.191 46.1813 189.483 45.0991 189.814C44.5365 189.986 44.0873 190.416 43.5371 190.623C42.6124 190.971 41.583 190.64 40.5954 190.682C39.5043 190.73 38.4933 191.233 37.5004 191.688C37.2919 191.784 37.0682 191.88 36.8406 191.85C36.5887 191.816 36.3862 191.636 36.1797 191.488C34.7193 190.44 32.7031 190.837 30.9888 191.378C30.6301 191.491 30.2618 191.609 29.8866 191.583C29.5743 191.561 29.2776 191.439 28.999 191.295C27.0228 190.272 25.5339 188.054 23.3089 188.016C21.8898 187.993 20.6406 188.9 19.2759 189.291C18.3325 189.561 17.3339 189.581 16.3829 189.822C14.9615 190.183 13.6585 191.065 12.8859 192.311C12.2456 193.345 12.0036 194.625 12.2417 195.812H57.3907" fill="#8F644C"/>
<path d="M332.618 195.812C332.618 195.812 329.931 193.698 326.716 191.175C324.462 189.407 321.672 190.957 320.492 192.168C319.311 193.378 310.511 195.812 310.511 195.812H332.618" fill="#8F644C"/>
<path d="M344.709 159.497C341.604 151.054 339.115 144.676 337.626 136.242C336.138 144.676 333.648 151.054 330.544 159.497C325.723 172.607 337.626 178.245 337.626 178.245C337.626 178.245 349.53 172.607 344.709 159.497" fill="#31AFB4"/>
<path d="M339.937 187.847C339.937 187.847 346.286 185.651 346.282 177.78C338.306 180.856 339.937 187.847 339.937 187.847Z" fill="#278A8E"/>
<path d="M335.62 184.864C335.62 184.864 330.111 182.958 330.115 176.127C337.037 178.797 335.62 184.864 335.62 184.864Z" fill="#278A8E"/>
<path d="M343.798 181.714C343.719 181.666 343.614 181.687 343.563 181.767L337.796 190.929V175.135L342.143 166.226C342.184 166.142 342.149 166.041 342.065 165.999C341.98 165.958 341.878 165.993 341.838 166.078L337.796 174.361V167.994L341.015 161.396C341.056 161.312 341.021 161.21 340.937 161.169C340.852 161.127 340.75 161.162 340.71 161.247L337.796 167.219V161.361L340.083 156.674C340.124 156.59 340.088 156.488 340.005 156.447C339.92 156.404 339.818 156.44 339.777 156.525L337.796 160.587V154.653L339.289 151.594C339.33 151.509 339.295 151.407 339.21 151.366C339.127 151.324 339.024 151.36 338.983 151.445L337.796 153.879V150.052C337.796 149.958 337.72 149.882 337.626 149.882C337.533 149.882 337.456 149.958 337.456 150.052V153.879L336.268 151.445C336.228 151.36 336.125 151.325 336.041 151.366C335.957 151.407 335.921 151.509 335.963 151.594L337.456 154.653V160.587L335.475 156.525C335.433 156.441 335.332 156.405 335.248 156.447C335.163 156.488 335.128 156.59 335.169 156.674L337.456 161.361V167.219L334.542 161.247C334.501 161.163 334.399 161.128 334.315 161.169C334.23 161.21 334.195 161.312 334.237 161.396L337.456 167.994V174.361L333.415 166.078C333.374 165.993 333.272 165.958 333.188 165.999C333.103 166.041 333.068 166.142 333.11 166.226L337.456 175.135V187.46L332.493 179.577C332.442 179.496 332.338 179.475 332.258 179.523C332.179 179.574 332.155 179.678 332.205 179.757L337.456 188.099V193.954C337.456 194.048 337.533 194.124 337.626 194.124C337.72 194.124 337.796 194.048 337.796 193.954V191.567L343.852 181.948C343.901 181.869 343.878 181.764 343.798 181.714" fill="#39526D"/>
<path d="M343.135 192.168C338.842 192.842 338.735 193.486 337.34 192.842C335.945 192.198 334.442 192.412 333.369 192.735C332.296 193.056 330.794 194.166 323.711 195.812H349.466C349.466 195.812 347.428 191.493 343.135 192.168Z" fill="#C0774D"/>
<path d="M180.891 187.698C180.531 187.458 180.348 186.951 180.539 186.562C180.635 186.367 180.805 186.223 180.971 186.084C181.535 185.61 183.948 183.702 183.819 185.667C183.744 186.807 182.014 188.45 180.891 187.698Z" fill="#C0774D"/>
<path d="M205.726 186.76C205.594 186.633 205.412 186.572 205.238 186.515C205.072 186.462 204.908 186.408 204.742 186.353C204.377 186.235 203.989 186.114 203.614 186.198C203.238 186.283 203.208 187.175 203.208 187.175C203.499 187.705 204.063 188.073 204.665 188.128C205.042 188.162 205.45 188.065 205.705 187.786C205.959 187.505 205.999 187.022 205.726 186.76" fill="#8F644C"/>
<path d="M217.855 189.362C217.236 188.663 217.068 187.686 216.925 186.763C216.88 186.479 216.836 186.188 216.892 185.905C216.948 185.623 217.123 185.346 217.396 185.253C217.639 185.17 217.915 185.248 218.127 185.394C218.338 185.541 218.498 185.749 218.654 185.953C218.964 186.359 219.278 186.773 219.457 187.251C219.693 187.883 219.674 188.577 219.652 189.251C219.602 190.816 218.579 190.18 217.855 189.362" fill="#8F644C"/>
<path d="M122.593 190.524C122.21 190.258 121.693 190.247 121.25 190.391C120.806 190.535 120.421 190.816 120.056 191.106C119.888 191.438 119.891 191.851 120.063 192.18C120.063 192.18 121.537 192.276 122.147 192.087C122.514 191.973 122.9 191.749 122.983 191.374C123.056 191.051 122.866 190.712 122.593 190.524" fill="#C0774D"/>
<path d="M28.4628 188.728C28.0426 188.284 27.7753 187.676 27.8235 187.066C27.8396 186.867 27.8951 186.659 28.0412 186.522C28.2345 186.341 28.5427 186.334 28.7875 186.435C29.0323 186.536 29.2284 186.725 29.4178 186.909C30.0101 187.486 30.6418 188.146 30.6783 188.972C30.6877 189.183 30.6507 189.408 30.5144 189.571C30.0721 190.1 28.7916 189.075 28.4628 188.728Z" fill="#8F644C"/>
<path d="M40.2227 187.744C40.0187 187.383 39.5496 187.269 39.1362 187.291C38.3417 187.333 37.5173 187.858 37.3944 188.645C37.3423 188.98 37.5593 189.427 37.8888 189.347L38.3527 189.283C38.8421 189.269 39.3562 189.247 39.7747 188.993C40.1933 188.739 40.4637 188.17 40.2227 187.744" fill="#8F644C"/>
<path d="M54.2109 191.171C54.0898 190.954 53.9975 190.708 54.0298 190.462C54.0628 190.216 54.2515 189.978 54.4984 189.958C54.6847 189.943 54.8575 190.048 55.0104 190.155C55.6059 190.572 56.1309 191.089 56.5565 191.679C57.0285 192.333 57.0215 193.095 56.125 192.859C55.4195 192.674 54.5501 191.78 54.2109 191.171" fill="#8F644C"/>
<path d="M331.293 189.406C330.83 188.844 330.324 188.317 329.782 187.832C329.495 187.573 329.187 187.322 328.82 187.203C328.452 187.085 328.01 187.127 327.738 187.4C327.435 187.705 327.425 188.216 327.615 188.601C327.805 188.986 328.153 189.268 328.509 189.507C329.126 189.922 329.802 190.249 330.51 190.476L330.794 190.485C331.036 190.479 331.278 190.472 331.52 190.465C331.783 190.17 331.545 189.711 331.293 189.406" fill="#C0774D"/>
<path d="M349.336 191.253C348.998 190.517 348.398 189.931 347.739 189.461C347.502 189.292 347.239 189.13 346.947 189.117C346.355 189.093 345.899 189.747 345.961 190.336C346.023 190.926 346.461 191.414 346.957 191.74C347.453 192.067 348.017 192.272 348.529 192.572L348.578 192.531C348.837 192.765 349.294 192.583 349.434 192.263C349.574 191.944 349.481 191.57 349.336 191.253" fill="#8F644C"/>
<path d="M226.482 191.512L224.765 191.081L228.08 177.86L229.797 178.29L226.482 191.512" fill="#A74646"/>
<path d="M245.26 189.534C244.875 189.534 244.496 189.39 244.196 189.113L232.222 177.991C231.947 177.736 231.931 177.306 232.187 177.031C232.441 176.755 232.872 176.74 233.147 176.995L245.121 188.117C245.21 188.199 245.3 188.18 245.36 188.15C245.419 188.119 245.487 188.058 245.474 187.938L243.384 169.736C243.341 169.363 243.608 169.025 243.982 168.982C244.358 168.935 244.691 169.207 244.734 169.58L246.823 187.783C246.899 188.443 246.565 189.062 245.973 189.363C245.745 189.478 245.501 189.534 245.26 189.534" fill="#6C3541"/>
<path d="M251.366 189.534C250.981 189.534 250.602 189.39 250.303 189.112L238.328 177.991C238.053 177.736 238.037 177.306 238.293 177.031C238.547 176.755 238.978 176.74 239.253 176.995L251.228 188.117C251.316 188.2 251.406 188.18 251.465 188.15C251.525 188.119 251.593 188.058 251.58 187.938L249.491 169.736C249.448 169.363 249.714 169.025 250.088 168.982C250.46 168.935 250.797 169.207 250.84 169.58L252.93 187.783C253.006 188.443 252.671 189.063 252.079 189.363C251.851 189.478 251.608 189.534 251.366 189.534" fill="#A74646"/>
<path d="M229.362 191.876C229.362 194.018 227.626 195.755 225.483 195.755C223.342 195.755 221.605 194.018 221.605 191.876C221.605 189.734 223.342 187.997 225.483 187.997C227.626 187.997 229.362 189.734 229.362 191.876Z" fill="#413B5F"/>
<path d="M227.57 191.876C227.57 193.029 226.636 193.962 225.483 193.962C224.332 193.962 223.398 193.029 223.398 191.876C223.398 190.724 224.332 189.789 225.483 189.789C226.636 189.789 227.57 190.724 227.57 191.876Z" fill="#9A92AF"/>
<path d="M283.29 107.763C283.039 105.724 282.36 101.752 282.36 101.752C282.36 101.752 280.686 102.424 278.521 102.255L278.764 106.546C278.764 106.546 271.145 116.421 269.804 117.172C268.463 117.923 267.979 118.246 267.282 119.158C266.584 120.07 266.236 121.358 266.075 122.834C265.914 124.31 265.941 124.981 265.807 125.222C265.672 125.464 265.941 125.785 266.209 125.679C266.477 125.571 267.362 124.847 267.389 124.471C267.416 124.095 268.248 124.766 268.489 124.336C268.731 123.907 269.268 124.202 269.402 123.639C269.536 123.075 270.206 123.504 270.206 122.861C270.206 122.217 270.985 122.458 271.119 122.029C271.253 121.599 271.521 121.304 271.628 120.607C271.736 119.909 282.362 111.062 283.514 109.394C283.515 109.394 283.515 109.393 283.515 109.393C283.426 108.791 283.347 108.23 283.29 107.763" fill="#FFB9B9"/>
<path d="M282.36 101.752C282.36 101.752 280.686 102.424 278.521 102.255L278.579 103.27C279.501 103.586 280.935 103.927 282.71 103.863C282.518 102.678 282.36 101.752 282.36 101.752Z" fill="#E6655A"/>
<path d="M270.834 119.062C270.603 119.281 269.965 119.247 269.804 119.265C269.643 119.283 269.339 120.088 269.339 120.088C269.339 120.088 269.339 120.088 269.214 119.802C269.089 119.516 268.795 119.397 268.487 119.54C268.181 119.683 268.194 121.018 268.074 120.75C267.952 120.482 267.726 120.445 267.676 120.464C267.349 120.587 267.246 120.947 267.282 121.894C267.309 122.614 267.459 123.814 267.531 124.353C267.553 124.354 267.58 124.359 267.606 124.363L267.91 122.184C267.91 122.184 271.127 119.444 271.145 119.354C271.163 119.265 271.063 118.842 270.834 119.062" fill="#EE605B"/>
<path d="M254.141 153.106L253.468 153.008L256.419 132.854L256.507 132.773L271.612 118.748L272.074 119.245L257.056 133.19L254.141 153.106" fill="#6C3541"/>
<path d="M266.289 123.394L266.987 124.219L272.514 119.218C272.779 118.979 272.796 118.569 272.551 118.309C272.309 118.052 271.904 118.041 271.647 118.284L266.289 123.394Z" fill="#FCCC1C"/>
<path d="M267.747 120.911C267.264 121.412 267.497 124.355 267.497 124.355C267.497 124.355 267.502 124.359 267.502 124.36C267.74 124.332 268.297 124.677 268.489 124.336C268.534 124.258 268.589 124.209 268.649 124.169C268.907 123.527 268.23 120.41 267.747 120.911" fill="#F46D5C"/>
<path d="M268.649 124.169C268.649 124.169 267.944 119.891 268.706 119.73C269.258 119.613 269.842 122.163 269.636 123.344C269.429 124.524 268.649 124.169 268.649 124.169" fill="#F46D5C"/>
<path d="M269.636 123.344C269.636 123.344 269.342 120.223 269.636 119.727C269.929 119.229 270.179 119.641 270.287 119.802C270.394 119.963 270.501 122.234 270.501 122.539C270.501 122.842 270.504 123.594 269.636 123.344" fill="#F46D5C"/>
<path d="M271.146 121.442C271.146 121.442 271.092 120.021 270.841 119.909C270.591 119.798 270.345 120.077 270.345 120.077C270.345 120.077 270.358 121.932 270.421 121.973C270.483 122.014 271.146 121.442 271.146 121.442" fill="#F46D5C"/>
<path d="M270.474 119.97C270.398 120.021 270.345 120.076 270.345 120.076C270.345 120.076 270.348 120.57 270.361 121.053L270.39 121.767C270.39 121.767 270.39 121.769 270.39 121.77C270.39 121.763 270.462 120.422 270.474 119.97" fill="#EE605B"/>
<path d="M305.861 179.246L309.009 190.838L313.445 189.908L310.654 177.1L305.861 179.246" fill="#FFB9B9"/>
<path d="M283.004 179.256L282.467 193.494L286.545 192.305L288.099 178.137L283.004 179.256" fill="#FFB9B9"/>
<path d="M307.793 159.139C306.649 152.484 304.645 148.192 305.146 143.684C305.646 139.176 309.223 123.862 306.555 113.726L286.044 119.489C286.044 119.489 285.973 128.228 284.184 134.095C282.396 139.963 282.753 142.043 282.753 144.831C282.753 147.619 281.931 180.66 281.931 180.66C281.931 180.66 286.08 182.216 288.763 180.821C288.763 180.821 289.049 176.527 289.907 171.733C290.766 166.938 292.124 151.907 291.839 147.041C291.839 147.041 292.538 144.652 294.343 141.465C294.343 141.465 302.427 167.297 305.217 180.07C305.217 180.07 308.437 181.196 312.407 178.835C312.407 178.835 308.938 165.794 307.793 159.139" fill="#413B5F"/>
<path d="M293.945 137.619C294.218 134.506 294.813 128.331 295.282 122.7C295.282 122.7 292.125 135.487 292.34 145.328L292.358 145.589C292.756 144.586 293.396 143.138 294.343 141.465C294.136 140.392 293.847 138.739 293.945 137.619" fill="#312A47"/>
<path d="M272.116 195.812H287.976C287.976 195.812 288.253 194.72 287.976 193.674C287.698 192.627 287.752 191.5 286.92 191.339C286.089 191.178 285.418 192.171 284.372 192.01C283.326 191.849 283.406 191.124 282.574 191.178C281.742 191.232 281.242 191.822 280.356 192.305C279.471 192.788 275.59 193.844 274.061 194.166C272.531 194.487 272.154 194.348 271.99 194.478C271.454 194.908 272.116 195.812 272.116 195.812" fill="#955723"/>
<path d="M271.785 194.881C271.753 195.314 272.116 195.812 272.116 195.812H287.976C287.976 195.812 288.073 195.418 288.094 194.881H271.785Z" fill="#704822"/>
<path d="M299.207 195.812H304.09L315.424 192.531C315.424 192.531 315.387 191.405 314.831 190.477C314.273 189.549 314.011 188.451 313.167 188.528C312.324 188.605 311.956 189.745 310.906 189.881C309.856 190.017 309.732 189.299 308.948 189.581C308.164 189.865 307.433 190.523 306.717 191.234C306.001 191.943 303.663 193.073 302.284 193.808C300.905 194.543 299.544 194.531 299.423 194.702C299.026 195.264 299.207 195.812 299.207 195.812" fill="#955723"/>
<path d="M315.154 191.18C312.286 192.157 303.93 194.881 303.93 194.881L299.237 195.072C299.102 195.482 299.207 195.812 299.207 195.812H304.09L315.424 192.531C315.424 192.531 315.403 191.892 315.154 191.18Z" fill="#704822"/>
<path d="M289.54 78.9396C289.54 78.9396 290.73 79.7128 293.985 80.1061C297.24 80.5001 299.709 81.2156 300.674 82.3604C301.64 83.5052 303.769 86.582 304.681 89.3191C305.593 92.0561 306.773 94.632 307.149 94.9542C307.524 95.2764 307.417 95.5986 306.881 95.8126C306.344 96.0273 304.072 96.8145 304.072 96.8145C304.072 96.8145 304.001 103.283 305.289 107.24C306.576 111.198 307.793 113.487 307.793 113.487C307.793 113.487 305.861 115.347 300.71 117.136C295.559 118.925 286.831 119.569 285.043 120.285C285.043 120.285 285.221 117.78 284.685 115.634C284.148 113.487 283.54 109.802 283.29 107.763C283.039 105.724 282.36 101.752 282.36 101.752C282.36 101.752 279.784 102.79 276.887 101.967C276.887 101.967 277.781 100.321 277.673 98.3891C277.566 96.4565 277.137 90.4462 277.423 88.4071C277.709 86.3674 284.613 81.0721 285.15 80.7505C285.686 80.4283 289.54 78.9396 289.54 78.9396" fill="#61A1DC"/>
<path d="M299.369 95.8398L297.544 89.2656C297.544 89.2656 299.744 100.783 293.063 105.994C291.368 107.316 300.281 102.284 300.281 102.284L302.213 100.214L300.031 97.2797L299.369 95.8398" fill="#4F86CD"/>
<path d="M289.897 83.8449C290.353 82.8559 290.967 80.7903 290.979 79.5139C289.963 79.2105 289.54 78.9394 289.54 78.9394C289.54 78.9394 285.686 80.4281 285.15 80.7504C285.013 80.8327 284.458 81.2413 283.706 81.8363C283.567 83.0758 283.556 85.1402 284.828 86.0492C286.706 87.3909 289.28 85.1866 289.897 83.8449" fill="#DFE4EF"/>
<path d="M307.149 94.9541C307.005 94.8306 306.743 94.3744 306.423 93.707C304.406 94.8842 299.369 95.8396 299.369 95.8396L299.825 97.8252C302.534 97.4495 304.073 96.8145 304.073 96.8145C304.073 96.8145 306.344 96.0272 306.881 95.8126C307.417 95.598 307.525 95.2763 307.149 94.9541" fill="#DFE4EF"/>
<path d="M277.583 99.8243C277.371 101.068 276.887 101.966 276.887 101.966C279.784 102.789 282.36 101.752 282.36 101.752L281.931 99.2833C281.931 99.2833 279.911 100.057 277.583 99.8243" fill="#DFE4EF"/>
<path d="M281.233 93.3979C281.233 93.3979 280.978 98.669 280.272 102.225C281.525 102.087 282.36 101.752 282.36 101.752L281.931 99.2835L281.233 93.3979Z" fill="#4F86CD"/>
<path d="M280.272 102.225C280.586 102.19 280.872 102.144 281.127 102.093C281.127 102.093 281.129 102.092 281.13 102.092C281.252 102.068 281.365 102.042 281.471 102.018C281.485 102.014 281.497 102.011 281.51 102.008C281.602 101.985 281.689 101.963 281.767 101.942C281.783 101.938 281.797 101.933 281.812 101.929C281.884 101.909 281.95 101.889 282.009 101.871C282.022 101.868 282.035 101.863 282.047 101.859C282.104 101.842 282.153 101.825 282.194 101.811C282.202 101.809 282.211 101.806 282.218 101.804C282.258 101.79 282.289 101.779 282.312 101.77C282.315 101.769 282.322 101.766 282.325 101.765C282.346 101.758 282.36 101.752 282.36 101.752L281.931 99.2835C281.931 99.2835 281.447 99.4681 280.683 99.6292C280.567 100.528 280.432 101.421 280.272 102.225Z" fill="#C3CBE0"/>
<path d="M288.315 73.3267C288.315 73.3267 289.765 73.5948 289.872 72.6552C289.979 71.7163 289.925 71.2335 290.22 70.4551C290.515 69.6772 289.925 68.7917 289.872 68.1208C289.818 67.4499 289.603 64.8205 288.342 64.2302C287.081 63.6399 285.338 62.6738 284.426 62.9954C283.513 63.3176 282.976 63.9615 282.494 63.9344C282.011 63.908 279.945 63.5323 279.06 64.1767C278.174 64.8205 278.04 65.5449 277.987 66.0012C277.933 66.4568 277.692 66.9672 277.343 67.3429C276.994 67.7186 276.645 67.9867 276.726 68.7111C276.806 69.4355 276.913 70.1334 277.155 71.0995C277.396 72.0655 278.142 73.6219 278.87 73.6619C279.596 73.7024 284.721 71.2071 284.721 71.2071L288.288 72.1996L288.315 73.3267Z" fill="#1E0F0E"/>
<path d="M288.262 74.6145C288.262 74.6145 289.442 79.0154 289.818 79.6058C290.193 80.1961 289.228 84.3284 287.135 85.1333C285.043 85.9382 283.916 83.3088 284.721 81.5914C284.721 81.5914 284.403 79.203 283.636 78.5321C282.869 77.8613 288.262 74.6145 288.262 74.6145Z" fill="#FFB9B9"/>
<path d="M278.395 72.53C278.395 72.53 280.214 77.6465 282.869 77.8611C285.525 78.0757 287.654 76.5046 288.101 74.99C288.584 73.3531 288.155 71.18 288.155 71.18C288.155 71.18 288.691 71.314 288.852 70.4015C289.013 69.4895 288.342 67.9596 287.94 67.7985C287.538 67.638 287.135 67.7721 287.028 68.0402C286.92 68.3083 287.243 69.7036 287.001 70.1063C286.76 70.5091 286.465 70.2674 286.196 69.8647C285.928 69.4625 285.311 69.3284 284.962 68.7381C284.613 68.1478 284.158 68.0402 284.158 68.0402C284.158 68.0402 284.211 68.6305 283.218 68.8722C282.226 69.1138 281.528 68.9257 281.233 69.0062C280.938 69.0868 281.233 69.3819 280.536 69.7306C279.838 70.0799 278.63 69.8382 278.523 69.9188C278.416 69.9987 279.013 71.7521 278.395 72.53" fill="#FFB9B9"/>
<path d="M279.238 74.4052C279.238 74.4052 279.167 74.7756 279.274 75.1784C279.382 75.5805 279.73 75.5805 279.918 76.4931C280.106 77.4056 280.321 78.13 281.126 78.2905C281.931 78.4516 281.958 79.1225 282.708 79.2571C283.46 79.3912 284.908 79.5253 285.579 79.096C286.25 78.6668 285.794 78.1694 286.491 77.8813C287.189 77.5932 288.074 77.3245 288.37 76.0368C288.665 74.7492 288.503 71.7434 288.047 71.5553C287.591 71.3677 287.698 71.7975 287.538 72.2803C287.377 72.763 287.216 73.2463 286.518 73.1657C285.821 73.0852 284.694 73.3533 284.211 73.9172C283.728 74.4804 283.713 74.5675 283.376 74.5675C283.038 74.5675 282.253 74.588 281.716 75.0443C281.179 75.5 280.777 75.5 280.374 75.2319C279.972 74.9632 279.238 74.4052 279.238 74.4052" fill="#1E0F0E"/>
<path d="M285.053 75.0824C285.26 74.9542 285.467 74.8084 285.708 74.7761C285.829 74.7602 285.964 74.7802 286.043 74.8725C286.12 74.9631 286.12 75.1018 286.072 75.2118C286.024 75.3217 285.938 75.4093 285.854 75.494C285.514 75.835 285.168 76.179 284.749 76.4159C284.331 76.6529 283.823 76.774 283.362 76.6364C282.744 76.4524 282.751 75.9573 283.317 75.768C283.926 75.5651 284.497 75.427 285.053 75.0824" fill="white"/>
<path d="M283.867 59.7117C285.829 58.7474 289.021 63.5882 289.021 63.5882L275.855 67.7969C275.855 67.7969 274.977 63.9521 276.714 62.0388C276.714 62.0388 277.566 61.0011 279.426 61.1087C281.286 61.2157 283.867 59.7117 283.867 59.7117" fill="#F7932B"/>
<path d="M290.458 64.025L274.937 68.9863L274.536 67.7304L290.057 62.7697L290.458 64.025" fill="#FCCC1C"/>
<path d="M304.073 96.8144C304.073 96.8144 302.636 97.4006 300.114 97.7793L300.674 101.108C297.097 102.968 283.263 112.787 282.248 113.701C281.233 114.615 277.865 116.459 277.438 116.886C277.012 117.312 276.028 117.902 276.421 118.737C276.655 119.234 276.319 120.179 276.319 120.179C276.319 120.179 276.319 120.179 276.482 120.463C276.644 120.747 276.909 120.646 276.989 120.727C277.071 120.808 277.132 120.93 277.456 121.215C277.781 121.499 278.106 121.133 278.208 121.296C278.309 121.458 278.756 121.58 279.061 121.58C279.365 121.58 279.406 121.194 279.649 121.356C279.893 121.519 280.218 121.6 280.685 121.194C281.151 120.788 281.598 119.671 282.43 118.717C283.263 117.762 282.628 117.923 286.652 115.562C290.677 113.201 305.164 105.151 306.236 103.433C307.171 101.937 305.787 97.4735 305.414 96.3452C304.726 96.588 304.073 96.8144 304.073 96.8144" fill="#FFB9B9"/>
<path d="M304.073 96.8143C304.073 96.8143 302.636 97.4006 300.115 97.7792L300.25 98.5806C301.492 98.5342 304.731 98.486 306.187 99.1304C305.917 97.9192 305.573 96.8279 305.414 96.3451C304.726 96.588 304.073 96.8143 304.073 96.8143Z" fill="#E6655A"/>
<path d="M259.195 153.106L258.521 153.008L261.472 132.853L276.658 118.989L277.116 119.49L262.11 133.191L259.195 153.106" fill="#6C3541"/>
<path d="M277.321 117.902C277.281 117.926 277.237 117.943 277.201 117.977L271.843 123.086L272.541 123.912L277.099 119.788C277.582 118.991 277.445 118.258 277.321 117.902Z" fill="#FCCC1C"/>
<path d="M258.686 145.328L199.335 161.383C199.335 161.383 203.465 184.55 232.029 180.09C257.507 176.113 262.22 161.973 258.686 145.328Z" fill="#F14453"/>
<path d="M258.686 145.328L199.335 161.383C199.335 161.383 199.703 163.441 200.974 166.212L259.389 149.465C259.216 148.106 258.983 146.727 258.686 145.328" fill="#F89B9C"/>
<path d="M250.321 143.818C250.222 143.68 250.19 143.506 250.114 143.354C249.844 142.819 249.127 142.715 248.529 142.759C247.932 142.803 247.278 142.912 246.776 142.584C246.529 142.422 246.228 142.158 245.993 142.335C245.907 142.401 245.866 142.511 245.793 142.591C245.533 142.874 245.073 142.655 244.739 142.464C242.759 141.323 239.992 141.815 238.525 143.567C238.138 144.03 237.772 144.606 237.179 144.717C236.679 144.81 236.155 144.53 235.665 144.662C234.979 144.846 234.663 145.735 233.975 145.907C233.388 146.054 232.79 145.612 232.191 145.693C231.9 145.732 231.64 145.892 231.409 146.074C230.279 146.965 229.702 148.505 229.966 149.919C230.002 150.106 230.06 150.304 230.214 150.413C230.361 150.517 230.557 150.511 230.736 150.498C233.472 150.305 236.122 149.443 238.851 149.165C239.55 149.094 240.256 149.06 240.941 148.907C241.727 148.731 242.473 148.4 243.262 148.24C243.999 148.089 244.761 148.091 245.501 147.958C246.268 147.821 247.003 147.543 247.731 147.267C248.844 146.845 250.533 146.536 251.467 145.792C252.654 144.844 250.703 144.359 250.321 143.818Z" fill="#8F644C"/>
<path d="M220.331 148.448C220.548 148.509 220.753 148.611 220.975 148.637C221.784 148.731 222.372 147.833 223.17 147.666C223.926 147.508 224.691 148.039 225.452 147.909C225.878 147.837 226.269 147.561 226.699 147.592C227.369 147.641 227.743 148.369 227.987 148.996C228.044 149.142 228.102 149.299 228.065 149.451C228.041 149.551 227.979 149.637 227.917 149.718C226.963 150.966 225.582 151.879 224.061 152.27C222.541 152.66 220.89 152.525 219.454 151.891C218.642 151.533 217.828 150.687 218.094 149.711C218.336 148.825 219.467 148.207 220.331 148.448" fill="#8F644C"/>
<path d="M238.79 147.174C238.04 147.445 238.04 147.44 236.859 147.977C235.679 148.514 234.176 147.869 232.684 147.333C231.192 146.796 229.562 147.762 228.059 148.192C226.557 148.62 226.235 149.157 225.591 149.801C224.947 150.445 224.088 150.016 223.338 149.801C222.586 149.587 222.05 150.552 221.298 150.982C220.548 151.411 219.474 150.66 218.831 149.909C218.186 149.157 217.22 148.406 215.182 148.728C213.142 149.05 212.392 151.197 211.533 152.484C210.675 153.773 208.957 153.128 207.885 153.88C206.811 154.632 206.811 156.134 205.416 155.769C204.021 155.405 203.377 156.027 203.27 157.744C203.162 159.461 200.694 161.179 200.694 161.179L242.7 149.652C242.7 149.652 239.542 146.903 238.79 147.174" fill="#C0774D"/>
<path d="M238.146 150.875C238.146 150.875 238.749 148.83 240.594 148C242.439 147.171 242.976 147.677 243.566 147.156C244.156 146.635 244.317 146.313 245.337 146.313C246.356 146.313 247.375 146.581 248.986 146.313C250.595 146.044 252.098 144.596 252.688 144.864C253.278 145.132 253.804 146.648 253.804 146.648L238.146 150.875" fill="#D5945D"/>
<path d="M158.539 93.1496L161.773 96.668C161.773 96.668 163.497 94.7024 166.026 92.9773C168.555 91.2528 175.194 85.3601 175.739 84.5846C176.286 83.8085 176.717 83.0612 177.292 82.8883C177.866 82.716 178.067 82.659 178.039 82.8883C178.01 83.1182 177.694 83.5786 177.751 83.665C177.809 83.7509 184.562 83.722 186.028 83.4921C187.494 83.2623 187.292 83.8085 187.092 84.0384C186.89 84.2683 185.425 84.8433 183.528 85.1302C181.631 85.4183 178.901 85.7629 178.039 86.0216C177.177 86.2803 169.086 98.1609 163.27 101.074C163.27 101.074 162.319 101.725 161.4 101.457C160.48 101.188 155.359 97.0114 155.359 97.0114L158.539 93.1496" fill="#FFB9B9"/>
<path d="M138.524 178.45L136.225 193.167L140.516 192.784L143.142 178.45H138.524Z" fill="#FFB9B9"/>
<path d="M149.532 75.1442C149.532 75.1442 150.652 73.1451 150.767 71.7363C150.858 70.6221 150.464 69.4808 150.209 68.4084C150.008 67.5664 149.785 66.4128 148.941 65.9665C148.542 65.756 148.07 65.7501 147.636 65.6249C146.814 65.3885 146.169 64.7353 145.365 64.4443C144.516 64.1379 143.579 64.2608 142.689 64.4078C141.973 64.5254 141.219 64.6753 140.678 65.1592C140.396 65.4121 140.191 65.7407 139.914 65.9989C139.434 66.4451 138.78 66.645 138.221 66.9884C137.18 67.6281 136.509 68.7523 136.168 69.9259C135.427 72.4754 136.262 75.1742 135.248 77.6572C134.415 79.6986 135.047 82.2275 134.501 83.4922C133.955 84.757 132.921 85.2456 132.547 86.5391C132.173 87.8326 132.173 90.1604 133.006 91.2241C133.84 92.2877 142.95 86.9701 142.95 86.9701L143.669 77.7436L149.532 75.1442" fill="#1E0F0E"/>
<path d="M166.419 179.753L168.18 193.167L163.737 193.934L161.821 180.214L166.419 179.753" fill="#FFB9B9"/>
<path d="M139.789 115.828C139.789 115.828 139.041 119.22 140.593 128.303C142.145 137.386 141.896 144.342 141.436 151.394C140.977 158.445 137.145 180.214 137.145 180.214C137.145 180.214 140.651 181.535 143.984 181.075C143.984 181.075 146.801 165.037 148.18 158.139C149.559 151.24 152.088 136.064 152.088 136.064C152.088 136.064 154.042 141.583 154.847 145.377C155.652 149.171 161.054 177.799 161.054 182.628C161.054 182.628 165.308 182.628 167.262 181.248C167.262 181.248 163.468 153.424 163.009 145.837C162.549 138.248 161.629 135.719 161.17 133.994C160.71 132.27 154.503 112.479 154.503 112.479L139.789 115.828Z" fill="#413B5F"/>
<path d="M147.105 81.7376C147.105 81.7376 150.795 82.3426 152.836 84.2394C154.876 86.1368 156.916 90.9558 159.216 92.7568C159.216 92.7568 157.491 96.3211 155.69 98.0074L154.311 96.8197C154.311 96.8197 154.32 100.516 153.986 103.995C153.65 107.474 155.643 113.759 155.643 113.759C155.643 113.759 149.789 117.745 139.06 116.135C139.06 116.135 139.597 112.532 138.869 108.509C138.141 104.485 137.528 101.686 137.451 98.9276C137.451 98.9276 133.926 98.1609 130.976 96.2447C130.976 96.2447 133.198 91.7225 133.773 89.5376C134.347 87.3533 135.114 85.5906 135.497 85.1302C135.88 84.671 140.843 81.7964 142.059 81.5089C143.275 81.2214 147.105 81.7376 147.105 81.7376" fill="#F14453"/>
<path d="M145.316 86.8684C146.823 86.5827 148.881 82.889 148.711 82.1235C147.781 81.8495 147.105 81.7378 147.105 81.7378C147.105 81.7378 143.275 81.2215 142.059 81.5091C141.716 81.5902 141.07 81.8807 140.318 82.2611C140.335 82.491 140.404 82.7767 140.563 83.1477C141.243 84.7217 143.809 87.1548 145.316 86.8684" fill="#F89B9C"/>
<path d="M159.216 92.7567C158.907 92.5145 158.603 92.2152 158.302 91.8783C157.788 92.9484 156.458 95.4661 154.628 97.093L155.69 98.0073C157.491 96.321 159.216 92.7567 159.216 92.7567Z" fill="#F89B9C"/>
<path d="M137.987 97.2408C135.694 97.1603 133.045 95.6562 131.675 94.7725C131.272 95.6409 130.976 96.2448 130.976 96.2448C133.784 98.0687 137.106 98.8489 137.42 98.9207L137.987 97.2408Z" fill="#F89B9C"/>
<path d="M138.061 104.089C138.227 99.6895 140.306 92.1294 140.306 92.1294C140.306 92.1294 137.209 98.8699 137.451 98.9275L137.799 102.488C137.877 103.004 137.964 103.536 138.061 104.089Z" fill="#C84648"/>
<path d="M142.059 78.1175C142.059 78.1175 142.432 81.1638 142.059 81.5089C141.685 81.8541 141.369 81.71 141.14 82.0263C140.909 82.3427 142.697 85.5007 144.674 85.907C146.65 86.3127 148.18 82.515 148.036 82.141C147.892 81.7676 147.059 82.0264 146.973 81.5089C146.887 80.9915 147.146 77.6859 147.146 77.6859L142.059 78.1175" fill="#FFB9B9"/>
<path d="M174.849 65.7866C176.659 67.3671 177.234 70.9602 177.953 74.2658C178.671 77.5714 181.847 77.4479 181.847 77.4479C183.815 65.5855 174.849 65.7866 174.849 65.7866Z" fill="#278A8E"/>
<path d="M187.637 70.0976C182.264 72.0238 184.43 76.7664 184.43 76.7664C191.471 75.5316 193.471 67.6833 193.471 67.6833C193.471 67.6833 193.012 68.172 187.637 70.0976" fill="#31AFB4"/>
<path d="M181.746 82.6902C181.74 82.6902 181.733 82.6896 181.726 82.6878C181.67 82.6767 181.636 82.6232 181.647 82.5673C181.663 82.4897 183.184 74.6767 177.989 68.3519C177.953 68.3084 177.959 68.2437 178.003 68.2084C178.046 68.1726 178.111 68.179 178.146 68.2219C183.405 74.6244 181.863 82.5291 181.846 82.6091C181.837 82.6567 181.794 82.6902 181.746 82.6902" fill="#040606"/>
<path d="M181.847 82.021C181.84 82.021 181.833 82.0204 181.826 82.0186C181.77 82.0063 181.736 81.9522 181.748 81.8969C182.941 76.5199 190.32 70.1816 190.604 70.0875C190.657 70.0693 190.714 70.0987 190.732 70.1522C190.749 70.2027 190.725 70.2562 190.677 70.2774C190.233 70.5349 183.104 76.7275 181.947 81.941C181.936 81.9887 181.895 82.021 181.847 82.021" fill="#040606"/>
<path d="M140.622 74.7254C140.622 74.7254 141.484 79.9783 144.358 80.4563C147.232 80.9338 149.445 76.3058 149.56 74.9553C149.675 73.6041 149.675 70.6819 149.675 70.6819C149.675 70.6819 148.372 70.9694 147.548 70.088C147.303 70.0451 147.196 69.7052 147.033 69.5183C147.014 69.4965 146.992 69.4742 146.964 69.4695C146.922 69.4612 146.885 69.493 146.854 69.5206C146.512 69.824 146.062 70.0022 145.605 70.0157C145.115 70.0298 144.575 69.874 144.168 70.1462C143.89 70.3326 143.763 70.6683 143.575 70.9447C143.419 71.174 143.215 71.3692 142.979 71.515C142.665 71.7085 142.276 71.8337 142.096 72.1547C141.985 72.3529 141.976 72.5893 141.96 72.8156C141.929 73.2431 141.862 73.6711 141.719 74.0756C141.683 74.1774 141.619 74.2955 141.511 74.2997C141.471 74.3008 141.433 74.2861 141.397 74.2685C141.169 74.1574 141.003 73.9457 140.897 73.7146C140.792 73.4836 140.742 73.2319 140.692 72.9838C140.638 72.7086 140.582 72.434 140.528 72.1594C140.482 71.9331 140.123 71.8431 139.902 71.9107C139.682 71.9789 139.534 72.1741 139.403 72.3641C139.003 72.9432 139.225 74.2079 139.294 74.3496C139.413 74.5913 139.552 74.8429 139.789 74.9711C140.026 75.0999 140.532 74.9794 140.622 74.7254" fill="#FFB9B9"/>
<path d="M157.798 114.076C158.603 114.211 158.621 113.77 158.449 113.502C158.276 113.234 157.51 112.831 155.961 112.135C154.413 111.437 152.874 110.742 153.238 110.723C153.602 110.704 154.043 110.474 154.043 110.397C154.043 110.321 153.679 109.956 153.123 109.807C152.568 109.656 151.265 109.803 151.265 109.803C150.537 109.803 149.617 109.995 145.747 107.351C141.877 104.706 135.631 101.679 135.631 101.679C136.819 99.4939 136.875 98.7689 136.875 98.7689C134.341 98.1157 131.668 96.6681 131.668 96.6681C131.668 96.6681 129.06 101.775 130.209 103.384C131.573 105.293 147.892 111.95 148.199 112.122C148.506 112.295 150.134 112.735 150.977 113.464C151.82 114.192 153.219 115.188 153.563 115.399C153.909 115.61 154.292 115.648 154.349 115.303C154.406 114.958 153.736 114.46 153.736 114.46C153.736 114.46 156.112 115.571 156.706 115.514C157.299 115.456 157.108 114.996 157.108 114.996C157.108 114.996 157.472 115.13 157.951 115.284C158.43 115.437 158.487 115.053 158.537 114.862C158.586 114.671 157.798 114.076 157.798 114.076" fill="#FFB9B9"/>
<path d="M178.699 83.7045C178.699 83.7045 179.217 81.7389 180.625 81.4232C182.034 81.1068 182.752 83.671 182.752 83.671C182.752 83.671 179.62 83.8938 178.699 83.7045Z" fill="#8F644C"/>
<path d="M180.725 83.7808C180.725 83.7808 181.516 81.9975 183.183 81.6811C184.85 81.3648 185.833 83.5179 185.833 83.5179C185.833 83.5179 182.205 83.8678 180.725 83.7808" fill="#C0774D"/>
<path d="M154.311 96.8196L155.691 98.0073C155.844 97.8639 155.996 97.7028 156.147 97.5352C155.014 95.9112 154.014 90.7641 154.014 90.7641C154.531 93.811 154.311 96.8196 154.311 96.8196" fill="#C84648"/>
<path d="M155.494 96.2123C155.218 96.5215 154.933 96.822 154.628 97.093L155.69 98.0073C155.844 97.8639 155.996 97.7028 156.147 97.5352C155.921 97.2124 155.702 96.7461 155.494 96.2123" fill="#DDAD86"/>
<path d="M152.089 136.064C152.089 136.064 153.081 138.869 153.943 141.855C154.31 137.004 154.733 131.32 154.733 130.832C154.733 129.97 152.203 120.6 152.203 120.6C152.203 120.6 153.353 128.992 153.123 131.12C152.893 133.247 152.089 136.064 152.089 136.064" fill="#312A47"/>
<path d="M151.437 194.297C151.856 194.56 151.035 195.812 151.035 195.812H134.769C134.769 195.812 134.54 194.757 135.171 193.78C135.803 192.803 135.421 191.117 136.512 191.289C137.605 191.462 137.835 192.439 138.869 191.922C139.904 191.404 140.364 191.386 140.823 191.281C141.283 191.174 141.954 191.883 143.736 192.573C145.517 193.263 150.057 193.436 151.437 194.297Z" fill="#FCCC1C"/>
<path d="M151.437 194.297C151.856 194.56 151.035 195.812 151.035 195.812H134.769C134.769 195.812 134.54 194.757 135.171 193.78C135.803 192.803 135.421 191.117 136.512 191.289C137.605 191.462 137.835 192.439 138.869 191.922C139.904 191.404 140.364 191.386 140.823 191.281C141.283 191.174 141.954 191.883 143.736 192.573C145.517 193.263 150.057 193.436 151.437 194.297Z" fill="#8C4044"/>
<path d="M178.53 194.297C178.949 194.56 178.127 195.812 178.127 195.812H161.862C161.862 195.812 161.632 194.757 162.264 193.78C162.896 192.803 162.513 191.117 163.605 191.289C164.697 191.462 164.927 192.439 165.962 191.922C166.996 191.404 167.456 191.386 167.916 191.281C168.376 191.174 169.046 191.883 170.828 192.573C172.61 193.263 177.15 193.436 178.53 194.297Z" fill="#8C4044"/>
<path d="M161.862 195.812H178.127C178.127 195.812 178.94 194.573 178.534 194.303H162.009C161.714 195.098 161.862 195.812 161.862 195.812" fill="#5A3242"/>
<path d="M134.768 195.812H151.034C151.034 195.812 151.846 194.573 151.44 194.303H134.916C134.621 195.098 134.768 195.812 134.768 195.812" fill="#5A3242"/>
<path d="M146.293 77.4525C146.396 77.4408 146.501 77.4278 146.599 77.4572C146.698 77.486 146.788 77.5713 146.787 77.6742C146.786 77.7888 146.68 77.8723 146.58 77.9294C145.925 78.3039 145.085 78.3221 144.406 77.9987C144.24 77.9205 143.667 77.633 143.901 77.3949C144.075 77.2168 144.549 77.3702 144.748 77.409C145.257 77.509 145.78 77.5096 146.293 77.4525" fill="white"/>
<path d="M78.5396 86.0899C78.5396 86.0899 77.9353 85.813 77.4703 84.4889C77.0053 83.1654 76.3257 80.8758 77.0053 79.5158C77.6849 78.1564 78.1781 78.264 78.5396 77.8348C78.9012 77.4056 79.9029 76.3319 81.4407 76.5465C82.9792 76.7612 83.2649 77.0834 83.7657 76.9046C84.2666 76.7253 85.3042 76.4037 86.0907 76.6894C86.8779 76.9758 86.9855 77.5126 87.3788 77.6196C87.772 77.7272 88.595 78.1923 88.7738 79.0154C88.9531 79.838 88.8096 80.5536 89.0959 81.0545C89.3822 81.5555 90.0259 84.346 89.0959 85.5625C88.1659 86.779 87.464 88.6717 86.0625 87.8327C84.6599 86.9937 78.5396 86.0899 78.5396 86.0899" fill="#1E0F0E"/>
<path d="M54.2367 111.895C54.2367 111.895 51.8941 112.128 51.2139 111.626C50.5349 111.126 49.8548 110.339 49.5326 110.267C49.211 110.196 49.3363 111.376 49.3721 111.483C49.408 111.591 49.4256 112.181 49.4256 112.181C49.4256 112.181 47.3869 111.859 46.9754 112.181C46.5639 112.503 46.4387 112.861 46.7068 113.021C46.9754 113.183 46.3676 113.273 46.3676 113.63C46.3676 113.988 46.528 114.274 46.7785 114.399C47.0289 114.525 46.7785 115.097 47.1541 115.258C47.5298 115.419 47.3328 115.813 47.6726 115.974C48.013 116.134 49.8371 116.242 51.2498 115.544C52.663 114.847 54.5048 114.292 54.5048 114.292L54.2367 111.895" fill="#F46D5C"/>
<path d="M121.684 93.9104C121.467 93.9104 118.239 95.8936 118.239 95.8936C118.239 95.8936 121.829 92.9261 121.974 92.6074C122.119 92.2888 121.829 92.2164 121.453 92.3323C121.076 92.4481 117.689 95.4303 117.689 95.4303C117.689 95.4303 120.526 92.5639 120.729 92.3035C120.932 92.043 120.526 91.8689 120.266 91.956C120.005 92.043 116.821 95.0828 116.717 95.1046C116.614 95.1263 116.691 94.8658 116.713 94.6483C116.734 94.4313 116.713 93.4759 116.148 94.0409C115.583 94.6054 115.171 95.8648 114.693 96.5163C114.215 97.1672 111.176 99.2521 111.176 99.2521L111.9 101.771L115.591 99.3968C115.591 99.3968 117.53 98.2679 118.153 97.9204C118.775 97.5729 120.816 96.1688 121.033 95.9659C121.25 95.7631 121.265 95.4879 121.105 95.4738C120.946 95.4591 119.614 95.8501 119.614 95.8501C119.614 95.8501 121.901 94.3737 122.012 94.2432C122.122 94.1132 121.901 93.9104 121.684 93.9104" fill="#FFB9B9"/>
<path d="M71.4965 176.223L71.282 189.281L75.0737 189.067L75.7891 180.552L71.4965 176.223Z" fill="#FFB9B9"/>
<path d="M85.7692 91.1081C85.7692 91.1081 90.5979 92.5392 91.9218 93.3618C93.2451 94.185 97.0015 106.672 97.3231 107.155C97.6452 107.637 110.469 98.7824 111.864 97.8698C113.259 96.9579 113.259 96.9579 113.259 96.9579L114.923 100.017C114.923 100.017 98.0209 113.272 96.1426 112.789C94.265 112.306 90.8307 103.397 90.8307 103.397C90.8307 103.397 91.7966 108.978 91.5279 113.272C91.2598 117.566 92.3333 118.728 92.1722 119.193C92.0111 119.658 85.3042 122.396 78.9729 120.356C78.9729 120.356 76.7455 120.034 76.3704 119.31C75.9948 118.585 76.4686 116.009 76.1823 114.291C75.8966 112.575 75.6814 106.922 75.7532 105.705C75.7532 105.705 74.0366 112.718 72.9273 113.361C71.8186 114.006 62.8401 115.473 53.6107 115.401C53.6107 115.401 53.5037 111.859 53.6107 111.394C53.7182 110.929 62.4463 110.642 65.8088 109.856C69.1714 109.068 69.7082 108.925 69.9227 108.245C70.1373 107.565 73.7856 95.151 75.5745 93.6482C76.7755 92.6392 80.8688 91.4298 80.8688 91.4298L85.7692 91.1081" fill="#FAB886"/>
<path d="M85.912 87.4586C85.912 87.4586 85.447 90.6431 85.7691 91.1082C86.0907 91.5732 84.6598 94.5784 82.7287 94.2562C80.797 93.9345 80.2961 91.6444 80.332 91.4298C80.3678 91.2152 80.8328 89.5694 80.4748 88.4246C80.1174 87.2799 85.912 87.4586 85.912 87.4586Z" fill="#FFB9B9"/>
<path d="M96.5571 172.774L101.419 184.896L104.831 183.229L102.192 175.101L96.5571 172.774" fill="#FFB9B9"/>
<path d="M94.566 194.859L108.417 189.037C108.417 189.037 107.053 185.447 106.128 184.352C105.202 183.257 104.683 181.816 104.548 181.494C104.413 181.172 104.413 181.172 104.413 181.172L100.283 182.909C100.283 182.909 101.312 184.805 100.43 186.514C99.5482 188.224 95.2221 192.197 94.6895 192.799C94.1569 193.401 94.1563 194.507 94.566 194.859Z" fill="#8C4044"/>
<path d="M94.2803 193.873C94.2539 194.288 94.3526 194.676 94.566 194.859L108.417 189.037C108.417 189.037 108.268 188.647 108.038 188.09L94.2803 193.873" fill="#5A3242"/>
<path d="M99.7605 191.569C99.0527 190.362 97.867 190.255 97.1986 190.305C96.0258 191.489 94.94 192.516 94.6895 192.799C94.4344 193.087 94.3045 193.492 94.2804 193.874L99.7605 191.569Z" fill="#A1703D"/>
<path d="M79.0264 81.5012C77.9795 80.621 79.0529 82.3332 78.0071 83.2728C78.0071 83.2728 78.5967 90.4102 82.2991 90.142C86.002 89.8733 86.9673 85.8487 86.9673 85.8487C86.9673 85.8487 88.0942 85.8751 88.2283 84.4799C88.3623 83.0846 87.5846 83.1652 87.236 83.5409C87.236 83.5409 86.5652 84.3458 85.1967 83.5409C84.5859 83.5679 84.3266 82.5207 83.7182 82.5772C83.5853 82.589 83.4636 82.6507 83.3402 82.7013C82.8105 82.92 82.2027 82.9406 81.6595 82.7589C80.9546 82.5231 80.3779 81.9686 79.6537 81.804C79.3127 81.7264 79.2939 81.727 79.0264 81.5012" fill="#FFB9B9"/>
<path d="M83.4801 87.6738C83.6135 87.6245 83.7458 87.5657 83.8875 87.551C83.9351 87.5463 83.9856 87.5474 84.0303 87.5651C84.132 87.6068 84.179 87.7332 84.1614 87.8414C84.1438 87.9502 84.0762 88.0437 84.0033 88.126C83.5941 88.5882 82.9516 88.831 82.3396 88.754C82.108 88.7252 81.8664 88.6428 81.7276 88.4553C81.6324 88.3271 81.6054 88.1348 81.6747 87.989C81.7741 87.7815 81.9463 87.8638 82.1374 87.8749C82.5924 87.9008 83.0527 87.8326 83.4801 87.6738" fill="white"/>
<path d="M92.5296 129.211C92.7118 124.048 92.0193 120.441 91.8054 119.467C90.3104 120.278 84.4994 122.136 78.9729 120.356C78.9729 120.356 77.4638 120.137 76.7208 119.655C76.6937 120.558 76.7725 121.859 76.7725 121.859C76.3433 124.489 73.2853 142.306 72.5334 146.169C71.7827 150.034 70.6558 183.522 70.6558 183.522C72.4264 183.951 76.1464 184.219 76.1464 184.219C77.2916 176.635 78.0393 146.529 79.84 143.275C82.7822 137.958 83.8733 132.788 83.8733 132.788C83.8733 132.788 84.8033 139.587 84.8033 142.306C84.8033 145.025 85.805 149.533 87.3787 152.681C88.953 155.83 98.8256 179.8 98.8256 179.8C101.544 179.657 103.476 178.298 103.476 178.298C102.474 173.647 92.1722 146.456 91.743 144.739C91.3133 143.021 92.315 135.293 92.5296 129.211" fill="#61A1DC"/>
<path d="M91.123 126.858C91.1136 126.858 91.1036 126.857 91.0942 126.855C88.0384 126.081 86.9762 122.843 86.9656 122.811C86.9462 122.748 86.9809 122.681 87.0432 122.661C87.1049 122.643 87.1725 122.676 87.1925 122.739C87.2031 122.77 88.2277 125.883 91.1524 126.624C91.2159 126.64 91.2547 126.705 91.2382 126.768C91.2247 126.822 91.1759 126.858 91.123 126.858" fill="#4F7EC8"/>
<path d="M88.3735 91.935L87.5875 91.5381C87.5875 92.1467 87.343 120.668 87.9873 121.537C88.7562 122.574 88.9531 120.625 88.9531 120.625C88.1478 116.976 88.3735 91.935 88.3735 91.935" fill="#4F86CD"/>
<path d="M78.4755 92.2337C78.4755 92.2337 77.6666 112.468 78.7224 121.102C78.8259 121.95 79.7441 121.986 79.6165 121.192C78.8917 116.684 79.4002 91.9038 79.4002 91.9038L78.4755 92.2337" fill="#4F86CD"/>
<path d="M75.7531 105.705C75.7173 106.314 75.7532 108.037 75.8343 109.821L76.8801 99.9632L75.7531 105.705" fill="#ED9280"/>
<path d="M89.7573 98.4602L90.8308 103.397L92.9324 108.222C91.9753 104.995 89.7573 98.4602 89.7573 98.4602Z" fill="#ED9280"/>
<path d="M49.7789 112.692C49.8124 112.466 49.5984 112.295 49.3327 112.167C49.2128 112.15 48.9841 112.119 48.7143 112.092C49.1281 112.202 49.6831 112.409 49.6443 112.672C49.6261 112.799 49.2475 112.887 48.6972 112.94C48.6967 112.94 48.6931 112.94 48.6931 112.94C48.6925 112.94 48.692 112.94 48.692 112.94C48.1364 112.993 47.4063 113.007 46.6768 112.986C46.6897 112.996 46.6909 113.013 46.7067 113.021C46.7685 113.058 46.7796 113.091 46.7673 113.125C46.9419 113.13 47.1488 113.134 47.3775 113.134C47.806 113.134 48.2934 113.118 48.719 113.075C48.7672 113.074 49.0976 113.066 49.2616 113.232C49.3274 113.297 49.3562 113.382 49.3486 113.491C49.3257 113.834 47.8807 114.354 46.8996 114.627C46.906 114.671 46.9113 114.717 46.9154 114.765C47.2752 114.665 48.4104 114.333 49.0464 113.957C49.1093 113.964 49.5367 114.025 49.5367 114.436C49.5367 114.734 48.301 115.201 47.3757 115.476C47.3945 115.517 47.4104 115.561 47.4233 115.605C47.8748 115.471 48.6808 115.211 49.1969 114.92C49.2052 114.919 49.214 114.921 49.221 114.916C49.2457 114.904 49.2739 114.912 49.2916 114.921C49.3339 114.945 49.3756 115.002 49.375 115.066C49.375 115.125 49.2616 115.345 49.2616 115.345C49.4144 115.259 49.5108 115.13 49.5114 115.067C49.5114 114.966 49.4538 114.868 49.3692 114.814C49.5532 114.688 49.6725 114.56 49.6725 114.436C49.6725 114.082 49.4185 113.918 49.204 113.854C49.3686 113.736 49.4767 113.617 49.4844 113.501C49.4944 113.352 49.4521 113.23 49.358 113.135C49.3027 113.08 49.2357 113.041 49.1646 113.011C49.5097 112.944 49.7566 112.845 49.7789 112.692" fill="#C15C5B"/>
<path d="M42.6224 108.818C42.6224 108.818 48.9608 108.102 49.1577 108.317C49.3541 108.532 49.4258 112.181 49.4258 112.181L48.4805 112.096C48.4805 112.096 48.4511 109.202 48.3618 109.167C48.2724 109.131 42.8441 109.498 42.8441 109.498L42.6224 108.818" fill="#8C3B45"/>
<path d="M49.3017 115.276C49.3017 115.276 49.3193 117.781 49.3099 117.834C49.3005 117.888 45.1337 118.849 45.1337 118.849L44.9697 118.184L48.501 117.208V115.735C48.501 115.735 49.1594 115.598 49.3017 115.276Z" fill="#8C3B45"/>
<path d="M31.1185 107.874L35.8795 124.051L45.2824 122.997L45.2278 105.399L31.1185 107.874" fill="#F14453"/>
<path d="M46.2905 103.723L29.2261 106.717L29.3866 108.178L46.451 105.184L46.2905 103.723Z" fill="#F89B9C"/>
<path d="M32.2876 111.847L35.0466 121.222L45.273 119.992L45.2395 109.235L32.2876 111.847" fill="#F89B9C"/>
<path d="M33.9958 117.651L19.2772 111.239L19.8005 109.084L32.0621 111.08L33.9958 117.651Z" fill="#F14453"/>
<path d="M45.2277 105.399L31.1185 107.874L31.916 110.584C35.8775 108.72 42.888 106.888 45.2307 106.301L45.2277 105.399Z" fill="#DD3C4B"/>
<path d="M31.1697 110.935C31.2987 111.85 31.6239 114.423 31.5649 116.592L33.9958 117.651L32.0618 111.08L31.1697 110.935" fill="#DD3C4B"/>
<path d="M19.1388 111.81L18.1479 111.57L18.998 108.068L19.9887 108.309L19.1388 111.81Z" fill="#F89B9C"/>
<path d="M17.6319 109.147C17.2776 110 17.3274 111.008 18.1897 111.399L18.9069 108.443C18.9069 108.443 17.9861 108.294 17.6319 109.147" fill="#DD3C4B"/>
<path d="M80.9894 141.015C83.0686 136.585 83.8734 132.788 83.8734 132.788C83.8734 132.788 83.9093 127.547 81.6554 124.65C81.6554 124.65 81.8118 134.836 80.9894 141.015Z" fill="#4F86CD"/>
<path d="M61.1054 195.812H76.1288C76.1288 195.812 76.2629 191.974 75.8337 190.606C75.4046 189.237 75.4851 187.708 75.4851 187.359C75.4851 187.01 75.4851 187.01 75.4851 187.01H71.0044C71.0044 187.01 71.2196 189.157 69.7434 190.391C68.2685 191.626 62.7414 193.611 62.0171 193.96C61.2929 194.309 60.8638 195.329 61.1054 195.812" fill="#8C4044"/>
<path d="M61.2235 194.792C61.0384 195.164 60.9796 195.56 61.1054 195.812H76.1288C76.1288 195.812 76.1429 195.395 76.1471 194.792H61.2235Z" fill="#5A3242"/>
<path d="M67.168 194.792C66.9834 193.404 65.9311 192.846 65.2956 192.633C63.756 193.271 62.3569 193.796 62.0171 193.96C61.6697 194.127 61.3934 194.45 61.2235 194.792H67.168Z" fill="#A1703D"/>
</g>
<defs>
<clipPath id="clip0_601:2497">
<rect width="359" height="196" fill="white"/>
</clipPath>
</defs>
</svg>
