<svg width="268" height="180" viewBox="0 0 268 180" fill="none" xmlns="http://www.w3.org/2000/svg">
<path d="M129.943 178.013L5.20728 108.916C1.23765 106.828 -2.168 103.392 1.70041 101.149L126.892 33.5224C128.772 32.4313 131.621 31.7196 133.53 32.7566L264.455 103.982C268.425 106.144 269.141 112.183 265.179 114.345L146.386 177.898C143.892 179.255 141.064 179.979 138.181 180C135.298 180.02 132.458 179.335 129.943 178.013Z" fill="#007F68"/>
<path style="mix-blend-mode:multiply" opacity="0.63" d="M103.374 75.4698L67.7659 93.9153L48.6138 83.5672L85.0231 66.5784" fill="url(#paint0_linear_809:3000)"/>
<path style="mix-blend-mode:multiply" opacity="0.63" d="M147.67 124.428L112.132 146.023L91.7742 133.208L128.19 116.219" fill="url(#paint1_linear_809:3000)"/>
<path style="mix-blend-mode:multiply" opacity="0.63" d="M26.5283 102.663C28.9621 103.815 31.3232 105.099 33.5997 106.508C37.2017 108.765 42.5801 110.53 45.9034 113.135L71.8065 99.1059L36.8185 93.7974L23.7136 101.068C24.6611 101.589 25.5993 102.12 26.5283 102.663Z" fill="url(#paint2_linear_809:3000)"/>
<path style="mix-blend-mode:multiply" opacity="0.63" d="M208.903 121.403L170.71 141.62L184.4 148.996L233.914 122.092C233.914 122.092 226.076 118.752 221.144 118.45C216.211 118.148 208.903 121.403 208.903 121.403Z" fill="url(#paint3_linear_809:3000)"/>
<path style="mix-blend-mode:multiply" opacity="0.63" d="M214.539 102.977L173.002 125.957L96.3584 83.6984L127.306 69.2622" fill="url(#paint4_linear_809:3000)"/>
<path d="M158.246 7.06854L145.427 0.276961C145.075 0.0918231 144.678 -0.00361129 144.275 0.000104503C143.872 0.0038203 143.478 0.106558 143.13 0.298147C142.782 0.489736 142.494 0.763534 142.293 1.09244C142.092 1.42134 141.986 1.79394 141.985 2.17335V22.8434L161.221 33.7361V32.2138V31.4198V11.8587C161.221 10.8834 160.946 9.9256 160.423 9.08372C159.9 8.24185 159.149 7.54629 158.246 7.06854V7.06854Z" fill="#31AFB4"/>
<path d="M119.656 33.7754V73.4159L139.142 84.0855L161.186 71.8935V32.2136" fill="#31AFB4"/>
<path opacity="0.61" d="M139.143 44.0907V84.0855L161.186 72.2544V32.2136L139.143 44.0907Z" fill="black"/>
<path d="M119.656 33.7753L141.852 21.7014L161.186 32.2136L139.142 44.0906L119.656 33.7753Z" fill="#31AFB4"/>
<path d="M125.118 41.3347L133.736 45.9674C134.204 46.2189 134.593 46.5827 134.864 47.0219C135.134 47.461 135.276 47.9598 135.275 48.4675V50.6132C135.286 50.9661 135.196 51.3152 135.014 51.6239C134.833 51.9327 134.566 52.1898 134.243 52.3683C133.919 52.5467 133.551 52.64 133.176 52.6383C132.801 52.6366 132.434 52.54 132.112 52.3587L123.529 47.8375C123.048 47.5833 122.646 47.2129 122.367 46.7642C122.088 46.3156 121.941 45.805 121.941 45.2849V43.1064C121.935 42.7533 122.028 42.4049 122.211 42.0966C122.394 41.7884 122.66 41.5312 122.983 41.3513C123.305 41.1713 123.673 41.075 124.048 41.0721C124.423 41.0692 124.792 41.1598 125.118 41.3347V41.3347Z" fill="#31AFB4"/>
<path opacity="0.84" d="M119.656 33.7753L141.852 21.7014L161.186 32.2136L139.142 44.0906L119.656 33.7753Z" fill="black"/>
<path opacity="0.84" d="M125.118 41.3347L133.736 45.9674C134.204 46.2189 134.593 46.5827 134.864 47.0219C135.134 47.461 135.276 47.9598 135.275 48.4675V50.6132C135.286 50.9661 135.196 51.3152 135.014 51.6239C134.833 51.9327 134.566 52.1898 134.243 52.3683C133.919 52.5467 133.551 52.64 133.176 52.6383C132.801 52.6366 132.434 52.54 132.112 52.3587L123.529 47.8375C123.048 47.5833 122.646 47.2129 122.367 46.7642C122.088 46.3156 121.941 45.805 121.941 45.2849V43.1064C121.935 42.7533 122.028 42.4049 122.211 42.0966C122.394 41.7884 122.66 41.5312 122.983 41.3513C123.305 41.1713 123.673 41.075 124.048 41.0721C124.423 41.0692 124.792 41.1598 125.118 41.3347V41.3347Z" fill="black"/>
<path d="M183.125 22.0427L170.306 15.2511C169.954 15.0659 169.557 14.9705 169.154 14.9742C168.752 14.9779 168.357 15.0807 168.009 15.2723C167.661 15.4639 167.373 15.7377 167.172 16.0666C166.971 16.3955 166.865 16.7681 166.864 17.1475V37.8175L186.1 48.7103V47.1879V46.3939V26.8329C186.1 25.8575 185.825 24.8997 185.302 24.0578C184.779 23.216 184.028 22.5204 183.125 22.0427Z" fill="#FFAF1D"/>
<path d="M144.556 48.7497V88.3902L164.049 99.0599L186.093 86.8613V47.188" fill="#FFAF1D"/>
<path d="M164.05 59.065V99.0599L186.093 87.2288V47.188L164.05 59.065Z" fill="#E08D07"/>
<path d="M144.556 48.7497L166.759 36.6758L186.093 47.188L164.049 59.065L144.556 48.7497Z" fill="#563404"/>
<path d="M150.018 56.3092L158.636 60.9419C159.104 61.1934 159.493 61.5572 159.764 61.9964C160.034 62.4355 160.176 62.9343 160.176 63.442V65.5877C160.187 65.9406 160.096 66.2897 159.915 66.5985C159.733 66.9072 159.467 67.1643 159.143 67.3428C158.82 67.5212 158.451 67.6145 158.077 67.6128C157.702 67.6111 157.334 67.5145 157.013 67.3332L148.43 62.7923C147.948 62.5382 147.547 62.1677 147.268 61.719C146.988 61.2704 146.841 60.7598 146.841 60.2398V58.0284C146.845 57.6797 146.945 57.338 147.132 57.037C147.319 56.7361 147.586 56.4864 147.907 56.3127C148.228 56.139 148.592 56.0472 148.962 56.0466C149.332 56.046 149.696 56.1365 150.018 56.3092V56.3092Z" fill="#563404"/>
<path d="M211.599 38.1523L198.78 31.3607C198.427 31.1737 198.029 31.077 197.625 31.0802C197.22 31.0833 196.824 31.1864 196.475 31.3789C196.126 31.5715 195.837 31.8468 195.636 32.1775C195.435 32.5083 195.33 32.8828 195.331 33.2637V53.9337L214.567 64.8265V63.3107V62.5167V42.9425C214.568 41.9678 214.294 41.0104 213.772 40.1686C213.25 39.3268 212.5 38.6309 211.599 38.1523V38.1523Z" fill="#8BD346"/>
<path d="M173.002 64.8591V104.5L192.488 115.169L214.539 102.977V63.2974" fill="#8BD346"/>
<path d="M192.489 75.1744V115.169L214.539 103.338V63.2974L192.489 75.1744Z" fill="#72B22F"/>
<path d="M173.002 64.8593L195.205 52.7854L214.539 63.2976L192.488 75.1746L173.002 64.8593Z" fill="#375613"/>
<path d="M178.464 72.4187L187.082 77.0514C187.55 77.3029 187.939 77.6667 188.21 78.1059C188.48 78.545 188.622 79.0438 188.622 79.5514V81.6972C188.632 82.0501 188.542 82.3992 188.36 82.7079C188.179 83.0167 187.912 83.2738 187.589 83.4522C187.266 83.6307 186.897 83.724 186.522 83.7223C186.148 83.7206 185.78 83.624 185.459 83.4427L176.854 78.9215C176.373 78.6673 175.972 78.2968 175.692 77.8482C175.413 77.3996 175.266 76.8889 175.266 76.3689V74.1576C175.264 73.8043 175.361 73.4568 175.548 73.1504C175.734 72.844 176.004 72.5895 176.328 72.4129C176.653 72.2363 177.022 72.1438 177.397 72.1448C177.772 72.1458 178.14 72.2403 178.464 72.4187V72.4187Z" fill="#375613"/>
<path d="M84.8349 84.9845L103.374 75.4697L103.562 49.5633L99.9184 34.5693L78.7528 45.3046L74.2312 54.9309V79.2363L84.4308 84.768" fill="#31AFB4"/>
<path opacity="0.61" d="M74.2313 54.9309L84.835 61.2107V84.9845L74.1199 79.2362L74.2313 54.9309Z" fill="black"/>
<path opacity="0.61" d="M84.8349 61.2108L78.7528 45.3047L74.2312 54.931L84.8349 61.2108Z" fill="black"/>
<path d="M88.8967 62.0049L100.629 55.7383V71.1916L88.8967 77.6747V62.0049Z" fill="white"/>
<path d="M53.2119 109.526V89.6961L34.3384 79.7351V99.4208L53.2119 109.526Z" fill="#ECA016"/>
<path d="M53.2122 89.696L71.5771 79.7678C71.5771 79.7678 72.0856 99.7882 71.5771 100.11C71.0685 100.431 53.2122 109.559 53.2122 109.559V89.696Z" fill="#FFB72F"/>
<path d="M71.5768 79.7351L53.2119 69.1638L34.3384 79.7351L53.2119 89.6632L71.5768 79.7351Z" fill="#E08D07"/>
<path d="M34.3385 79.7349L27.5178 68.5862L46.8511 57.8772L53.212 69.1637L34.3385 79.7349Z" fill="#FFB72F"/>
<path d="M71.5771 79.7351L76.5584 69.7151L56.2428 80.1354L53.2122 89.6633L71.5771 79.7351Z" fill="#ECA016"/>
<path d="M173.002 64.8593L195.205 52.7854V73.7113L192.488 75.1746L173.002 64.8593Z" fill="#1E2D09"/>
<path d="M148.562 58.4155L153.654 45.5148L143.936 34.7729L138.885 47.5687L148.562 58.4155Z" fill="#ECA016"/>
<path d="M153.648 45.5148L168.125 43.2378C168.125 43.2378 163.325 56.3616 162.914 56.4535C162.503 56.5454 148.562 58.4221 148.562 58.4221L153.648 45.5148Z" fill="#FFB72F"/>
<path d="M168.125 43.2378L158.907 32.1941L143.935 34.7729L153.647 45.5148L168.125 43.2378Z" fill="#FFC863"/>
<path d="M164.614 39.0316L149.663 41.1051L147.008 47.8376L144.103 44.8914L146.834 37.9751L161.855 35.7244L164.614 39.0316Z" fill="#FDEDCB"/>
<path d="M224.752 75.719C224.752 75.719 223.7 78.101 225.686 79.4068C225.95 79.584 225.595 80.7192 225.546 80.9423C224.894 83.8239 224.013 86.6556 222.913 89.4137C221.91 92.0385 220.676 94.6632 220.481 97.5111C220.328 99.7225 220.251 101.94 220.196 104.158C220.091 108.469 220.091 112.781 220.133 117.092C220.133 118.107 220.147 119.124 220.175 120.143C220.175 120.143 220.872 123.647 227.518 124.08C234.164 124.513 235.377 119.598 235.377 119.598C235.453 117.184 235.495 114.769 235.53 112.38C235.586 107.977 235.614 103.561 235.426 99.1581C235.342 97.1371 235.474 97.0649 234.973 95.0963C234.796 94.3295 234.564 93.5753 234.276 92.839C233.83 91.4413 231.97 84.6366 231.851 83.1865C231.747 81.8741 231.649 80.5092 231.58 79.164C231.58 79.164 233.342 78.1666 232.193 75.7387" fill="#ED8560"/>
<path d="M228.473 77.4711C230.527 77.4711 232.193 76.6867 232.193 75.7191C232.193 74.7515 230.527 73.967 228.473 73.967C226.418 73.967 224.752 74.7515 224.752 75.7191C224.752 76.6867 226.418 77.4711 228.473 77.4711Z" fill="#67412E"/>
<path d="M222.314 98.2855V108.785C222.314 110.425 225.024 110.432 225.024 108.785V98.2855C225.024 96.6451 222.314 96.6451 222.314 98.2855Z" fill="#FEFEFE"/>
<path d="M223.84 111.049C222.098 111.049 222.091 113.601 223.84 113.601C225.588 113.601 225.581 111.049 223.84 111.049Z" fill="#FEFEFE"/>
<path d="M209.53 97.7541C209.53 97.7541 208.875 99.2436 210.115 100.057C210.282 100.169 210.059 100.884 210.031 101.015C209.624 102.814 209.074 104.582 208.387 106.304C207.76 107.951 206.994 109.585 206.868 111.363C206.771 112.748 206.722 114.133 206.694 115.517C206.631 118.208 206.631 120.905 206.652 123.601C206.652 124.236 206.652 124.87 206.652 125.504C206.652 125.504 207.077 127.69 211.237 127.978C215.396 128.267 216.114 125.157 216.114 125.157C216.162 123.647 216.19 122.138 216.211 120.629C216.246 117.879 216.267 115.117 216.148 112.367C216.186 111.515 216.092 110.662 215.87 109.835C215.765 109.356 215.626 108.884 215.452 108.424C215.173 107.551 214.01 103.299 213.94 102.393C213.87 101.488 213.814 100.72 213.773 99.8802C213.773 99.8802 214.873 99.2568 214.156 97.741" fill="#ED8560"/>
<path d="M211.85 98.8499C213.131 98.8499 214.17 98.3593 214.17 97.754C214.17 97.1488 213.131 96.6582 211.85 96.6582C210.568 96.6582 209.53 97.1488 209.53 97.754C209.53 98.3593 210.568 98.8499 211.85 98.8499Z" fill="#67412E"/>
<path d="M208.004 111.849V118.411C208.004 118.622 208.093 118.825 208.252 118.975C208.411 119.124 208.626 119.208 208.85 119.208C209.075 119.208 209.29 119.124 209.449 118.975C209.608 118.825 209.697 118.622 209.697 118.411V111.849C209.697 111.638 209.608 111.435 209.449 111.285C209.29 111.136 209.075 111.052 208.85 111.052C208.626 111.052 208.411 111.136 208.252 111.285C208.093 111.435 208.004 111.638 208.004 111.849V111.849Z" fill="#FEFEFE"/>
<path d="M208.951 119.822C208.727 119.822 208.511 119.906 208.353 120.055C208.194 120.205 208.105 120.408 208.105 120.619C208.105 120.83 208.194 121.033 208.353 121.183C208.511 121.332 208.727 121.416 208.951 121.416C209.176 121.416 209.391 121.332 209.55 121.183C209.709 121.033 209.798 120.83 209.798 120.619C209.798 120.408 209.709 120.205 209.55 120.055C209.391 119.906 209.176 119.822 208.951 119.822Z" fill="#FEFEFE"/>
<path d="M132.573 41.8926C129.537 44.3532 127.241 47.5209 125.912 51.0793C123.571 57.1687 129.396 67.1166 129.396 67.1166L138.536 60.3578" fill="#FF8F6F"/>
<path d="M131.569 122.394L129.096 121.082L129.716 117.761C129.716 117.761 133.395 118.089 133.715 119.323" fill="#003B94"/>
<path d="M132.503 122.348C133.06 122.026 133.639 121.744 134.21 121.449C135.638 120.714 137.693 119.953 138.578 118.568C138.754 118.292 138.837 117.972 138.817 117.65C138.797 117.328 138.675 117.019 138.467 116.764C137.164 115.287 134.342 117.715 132.893 116.108C132.607 115.786 132.475 110.661 132.475 110.661L126.964 112.006C126.964 112.006 126.031 122.295 126.135 122.932C126.24 123.568 128.135 124.179 128.135 124.179C128.696 124.073 129.234 123.876 129.723 123.595C130.301 123.201 129.779 118.345 130.51 119.047C131.242 119.749 131.569 122.368 131.569 122.368C131.88 122.397 132.194 122.391 132.503 122.348V122.348Z" fill="#31AFB4"/>
<path d="M142.11 127.368L139.637 126.056L140.257 122.735C140.257 122.735 143.936 123.063 144.256 124.297" fill="#003B94"/>
<path d="M143.044 127.322C143.601 127 144.18 126.718 144.751 126.423C146.179 125.688 148.234 124.927 149.119 123.542C149.295 123.266 149.378 122.946 149.358 122.624C149.338 122.302 149.216 121.993 149.008 121.738C147.705 120.261 144.883 122.689 143.434 121.082C143.148 120.76 143.016 115.635 143.016 115.635L137.505 117.033C137.505 117.033 136.572 127.322 136.676 127.959C136.781 128.595 138.676 129.205 138.676 129.205C139.237 129.1 139.775 128.902 140.264 128.621C140.842 128.228 140.32 123.372 141.051 124.074C141.783 124.776 142.11 127.394 142.11 127.394C142.424 127.407 142.737 127.382 143.044 127.322Z" fill="#31AFB4"/>
<path d="M124.163 93.9153L122.568 114.356C122.568 114.356 125.146 117.715 133.819 115.845L133.903 102.065" fill="#EE6300"/>
<path d="M134.21 97.9639C134.022 99.729 134.21 119.139 134.21 119.139C134.21 119.139 136.606 123.365 147.05 119.139L146.897 102.643" fill="#EE6300"/>
<path d="M123.356 100.668C124.052 101.127 124.31 98.7515 125.056 99.1584C127.761 100.638 130.633 101.831 133.618 102.715H133.681C133.752 102.682 133.829 102.663 133.908 102.659C133.987 102.656 134.066 102.667 134.14 102.693C134.215 102.718 134.283 102.758 134.34 102.809C134.398 102.861 134.443 102.922 134.475 102.991C136.318 103.503 138.193 103.904 140.09 104.191C142.529 104.559 144.549 102.879 147.057 102.741C147.057 93.7185 147.106 68.009 143.023 62.5757L130.964 58.7764C130.908 59.7147 125.104 66.047 125.244 73.7638C125.404 82.4649 124.199 90.6738 123.997 93.3904C123.955 93.8498 123.384 100.195 123.356 100.668Z" fill="#EE6300"/>
<path d="M144.11 52.1947L142.995 62.5494C142.995 62.5494 133.994 62.8906 130.106 60.3643V51.5845" fill="#FF8F6F"/>
<path d="M159.437 42.6013L158.531 43.7628C159.022 42.8022 159.454 41.8163 159.827 40.8099C160.085 40.1209 158.914 39.8453 158.657 40.5343L158.524 40.8821C158.636 40.519 158.74 40.1515 158.838 39.7797C158.877 39.6335 158.852 39.4788 158.77 39.3496C158.687 39.2204 158.554 39.1272 158.399 39.0907C158.244 39.0541 158.079 39.0772 157.942 39.1547C157.805 39.2322 157.706 39.3579 157.667 39.5041C157.413 40.4606 157.109 41.4045 156.755 42.3323C156.954 41.5083 157.098 40.6733 157.187 39.8322C157.263 39.1104 156.058 39.1366 155.981 39.8322C155.881 40.7893 155.699 41.7372 155.438 42.6669C155.438 42.3432 155.405 42.0195 155.34 41.6958C155.332 41.6151 155.305 41.537 155.261 41.4669C155.218 41.3967 155.16 41.3361 155.09 41.2889C155.09 41.1643 155.02 41.0396 154.971 40.9083C154.924 40.7829 154.832 40.6768 154.711 40.6084C154.59 40.54 154.447 40.5137 154.307 40.5339C154.168 40.5542 154.04 40.6197 153.946 40.7192C153.852 40.8187 153.798 40.946 153.794 41.079L153.717 45.3639C153.499 45.8066 153.216 46.2176 152.874 46.5844C153.459 46.9812 154.022 47.4061 154.56 47.8574C155.048 48.2463 155.514 48.6603 155.953 49.0976C156.339 48.6601 156.713 48.1964 157.075 47.7065C157.12 47.6722 157.16 47.6325 157.194 47.5884C158.271 46.0879 159.383 44.6115 160.531 43.1591C160.963 42.5751 159.911 42.0173 159.437 42.6013Z" fill="#FFB9B9"/>
<path d="M140.362 40.7178C140.362 40.7178 144.611 41.8005 146.339 44.3924C147.42 46.1763 148.372 48.0265 149.189 49.9307L152.331 45.3374C152.331 45.3374 156.142 46.4398 157.66 48.2049C157.66 48.2049 153.132 57.5228 149.196 58.3168C145.259 59.1108 141.072 52.7982 141.072 52.7982C141.072 52.7982 140.208 55.423 140.375 52.6211" fill="#FF8F6F"/>
<path d="M142.814 52.8052C141.895 51.5789 141.355 50.1365 141.253 48.6384C141.253 46.9323 142.257 45.7118 143.267 44.3928C144.318 43.1038 145.138 41.6606 145.691 40.121C146.2 38.5987 146.465 37.0172 146.813 35.4555C146.82 35.3755 146.849 35.2986 146.897 35.2324C146.897 33.3623 146.2 31.5971 144.019 30.8359C138.446 28.8673 136.356 34.7731 135.659 37.1878C134.962 39.6026 134.767 41.3415 132.566 41.8534C130.364 42.3652 128.204 44.6684 129.375 47.2932C130.545 49.9179 129.166 48.7499 127.389 50.3248C125.613 51.8996 125.216 54.3866 127.438 55.9024C129.66 57.4182 141.658 58.8356 143.016 58.1072C143.508 57.8043 143.858 57.3342 143.991 56.7948C144.123 55.3747 143.705 53.9576 142.814 52.8052V52.8052Z" fill="#007F68"/>
<defs>
<linearGradient id="paint0_linear_809:3000" x1="67.8534" y1="91.0914" x2="71.2751" y2="85.1973" gradientUnits="userSpaceOnUse">
<stop stop-color="white" stop-opacity="0"/>
<stop offset="0.99" stop-color="#FFA86A"/>
</linearGradient>
<linearGradient id="paint1_linear_809:3000" x1="111.413" y1="142.945" x2="115.261" y2="136.739" gradientUnits="userSpaceOnUse">
<stop stop-color="white" stop-opacity="0"/>
<stop offset="0.99" stop-color="#FFA86A"/>
</linearGradient>
<linearGradient id="paint2_linear_809:3000" x1="40.6107" y1="111.138" x2="42.7497" y2="106.563" gradientUnits="userSpaceOnUse">
<stop stop-color="white" stop-opacity="0"/>
<stop offset="0.99" stop-color="#FFA86A"/>
</linearGradient>
<linearGradient id="paint3_linear_809:3000" x1="192.916" y1="145.838" x2="196.681" y2="139.144" gradientUnits="userSpaceOnUse">
<stop stop-color="white" stop-opacity="0"/>
<stop offset="0.99" stop-color="#FFA86A"/>
</linearGradient>
<linearGradient id="paint4_linear_809:3000" x1="137.88" y1="120.101" x2="144.834" y2="107.636" gradientUnits="userSpaceOnUse">
<stop stop-color="white" stop-opacity="0"/>
<stop offset="0.99" stop-color="#FFA86A"/>
</linearGradient>
</defs>
</svg>
