<svg width="22" height="22" viewBox="0 0 22 22" fill="none" xmlns="http://www.w3.org/2000/svg">
<path d="M5.67625 9.45851L3.44715 11.6876C1.54334 13.5914 1.54334 16.6781 3.44715 18.5819C5.35095 20.4857 8.43763 20.4857 10.3414 18.5819L13.3126 15.6107C15.2164 13.7069 15.2164 10.6202 13.3126 8.71643C12.9097 8.31353 12.4539 7.9959 11.9674 7.76353L11.0145 8.71643C10.9154 8.81552 10.8318 8.92422 10.7637 9.03953C11.2763 9.18641 11.7598 9.46172 12.1636 9.86547C13.4328 11.1347 13.4328 13.1925 12.1636 14.4617L9.19239 17.4329C7.92318 18.7021 5.8654 18.7021 4.59619 17.4329C3.32699 16.1637 3.32699 14.1059 4.59619 12.8367L5.88418 11.5487C5.70186 10.866 5.63255 10.1594 5.67625 9.45851Z" fill="#52CBD0"/>
<path d="M8.71644 6.41833C6.81263 8.32213 6.81263 11.4088 8.71644 13.3126C9.11933 13.7155 9.57521 14.0331 10.0616 14.2655L11.322 13.0052C10.7884 12.8627 10.2841 12.5822 9.86549 12.1636C8.59628 10.8944 8.59628 8.83658 9.86548 7.56738L12.8367 4.59618C14.1059 3.32698 16.1637 3.32698 17.4329 4.59618C18.7021 5.86539 18.7021 7.92317 17.4329 9.19238L16.1449 10.4804C16.3272 11.1631 16.3965 11.8697 16.3528 12.5705L18.5819 10.3414C20.4857 8.43762 20.4857 5.35094 18.5819 3.44713C16.6781 1.54333 13.5914 1.54333 11.6876 3.44713L8.71644 6.41833Z" fill="#52CBD0"/>
</svg>
