<svg width="645" height="340" viewBox="0 0 645 340" fill="none" xmlns="http://www.w3.org/2000/svg">
<path d="M74.5383 339.072C74.5383 339.072 -13.6217 246.212 48.1969 159.589C71.2639 127.267 130.154 109.116 184.288 123.841C216.264 132.538 264.758 131.255 312.142 54.5901C376.758 -49.9602 645.004 -2.41991 592.641 180.757C570.589 257.915 652.791 261.427 612.073 339.238L74.5383 339.072" fill="#E0F6F6"/>
<path d="M551.816 153.049L359.788 312.274L258.755 226.968C239.843 243.472 210.64 268.948 181.258 294.511C161.18 311.981 144.925 326.097 131.749 337.523L39.9819 337.416C65.4297 315.943 167.893 226.702 236.922 166.391L258.028 147.95L360.162 234.187L510.07 109.884L551.816 153.049" fill="#91DEE1"/>
<path d="M485.763 90.3011L577.22 181.224L603.055 77.3572L485.763 90.3011" fill="#91DEE1"/>
<path d="M185.951 281.881C185.61 273.556 184.873 266.312 183.992 261.263C182.587 253.212 181.323 248.581 181.308 248.532C181.123 247.824 178.45 244.957 172.506 245.047C166.563 245.134 167.127 248.892 167.127 248.892C167.126 249.018 167.143 249.137 167.169 249.226C167.227 249.419 172.682 269.027 172.446 294.341C172.443 294.696 172.403 295.31 172.428 295.719C172.428 295.721 186.201 296.072 186.204 295.719C186.685 293.507 186.45 287.377 185.951 281.881" fill="#B7D3F3"/>
<path d="M187.683 294.216C187.679 294.568 187.491 294.851 187.262 294.851H187.256C187.027 294.846 186.845 294.564 186.842 294.216H175.039C175.035 294.568 174.847 294.851 174.618 294.851H174.612C174.379 294.846 174.194 294.554 174.196 294.199C174.265 286.952 173.848 280.184 173.217 274.212C171.648 259.317 168.747 249.364 168.706 249.226C168.68 249.137 168.664 249.018 168.664 248.893C168.664 248.893 168.1 245.136 174.043 245.047C179.987 244.958 182.66 247.824 182.846 248.532C182.857 248.569 183.573 251.191 184.524 255.907C184.84 257.468 185.18 259.259 185.53 261.263C186.41 266.313 187.147 273.557 187.488 281.881C187.987 287.378 188.163 292.004 187.683 294.216" fill="#D2E3FC"/>
<path d="M173.324 294.851H219.6C219.6 294.851 218.522 290.529 191.722 291.172C172.757 291.629 173.324 294.851 173.324 294.851Z" fill="#C5DCF8"/>
<path d="M169.557 340C174.923 313.078 173.543 296.558 173.537 296.35C173.523 295.934 174.294 295.559 174.708 295.545C175.128 295.538 176.98 295.422 177.194 295.777C177.475 296.241 178.556 316.595 170.559 340H169.557" fill="#B7D3F3"/>
<path d="M212.764 340C207.399 313.078 208.78 296.558 208.787 296.35C208.799 295.934 208.028 295.559 207.614 295.545C207.194 295.538 205.343 295.422 205.129 295.777C204.848 296.241 203.766 316.595 211.764 340H212.764" fill="#B7D3F3"/>
<path d="M221.327 340C215.962 313.078 217.342 296.558 217.349 296.35C217.361 295.934 216.591 295.559 216.176 295.545C215.757 295.538 213.906 295.422 213.691 295.777C213.411 296.241 212.33 316.595 220.327 340H221.327" fill="#B7D3F3"/>
<path d="M178.178 340C183.543 313.078 182.164 296.558 182.157 296.35C182.144 295.934 182.914 295.559 183.329 295.545C183.749 295.538 185.601 295.422 185.815 295.777C186.096 296.241 187.176 316.595 179.179 340H178.178" fill="#B7D3F3"/>
<path d="M219.627 296.231H173.351C172.83 296.231 172.404 295.808 172.404 295.291V294.675C172.404 294.157 172.83 293.734 173.351 293.734H219.627C220.149 293.734 220.576 294.157 220.576 294.675V295.291C220.576 295.808 220.149 296.231 219.627 296.231Z" fill="#B7D3F3"/>
<path d="M218.003 254.81L233.384 251.508L234.291 253.695C234.291 253.695 217.318 263.707 215.727 263.216C214.137 262.726 218.003 254.81 218.003 254.81" fill="#FFB27D"/>
<path d="M204.017 323.764C203.632 324.202 203.583 324.69 203.773 325.212C203.773 325.215 203.776 325.217 203.778 325.219C204.129 326.184 205.295 327.264 206.648 328.34C206.821 328.478 206.975 328.606 207.109 328.722C207.143 328.751 207.18 328.782 207.212 328.814C207.238 328.838 207.265 328.862 207.292 328.884C208.553 330.037 208.08 330.3 210.345 332.64C212.93 335.306 214.711 335.354 215.215 335.113C215.645 334.905 214.774 333.491 213.811 331.903C213.764 331.825 213.718 331.748 213.669 331.671C213.543 331.458 213.413 331.245 213.286 331.033C212.157 329.121 212.448 328.221 212.713 325.377C212.933 323.063 216.345 312.455 216.345 312.455L211.392 311.609C211.392 311.609 209.899 320.057 208.255 321.357C207.377 322.051 206.392 322.06 205.548 322.573C205.487 322.609 205.429 322.645 205.373 322.684C204.892 322.998 204.405 323.324 204.017 323.764" fill="#FFB27D"/>
<path d="M204.017 323.764C203.632 324.202 203.583 324.69 203.773 325.212C203.773 325.215 203.776 325.217 203.778 325.219C204.21 326.184 205.344 327.257 206.653 328.33C206.824 328.47 206.975 328.601 207.109 328.722C207.143 328.751 207.18 328.782 207.212 328.814C207.238 328.838 207.265 328.862 207.292 328.884C208.553 330.037 208.08 330.3 210.345 332.64C212.93 335.306 214.711 335.354 215.215 335.113C215.645 334.905 214.774 333.491 213.811 331.903C213.308 331.719 210.97 330.779 209.202 328.536C207.646 326.568 206.609 324.037 205.548 322.573C205.487 322.609 205.429 322.645 205.373 322.684C204.892 322.998 204.405 323.324 204.017 323.764" fill="#1C6467"/>
<path d="M243.96 320.697C244.265 322.213 246.445 321.959 248.882 321.369C251.316 320.779 250.738 321.48 254.203 321.101C257.668 320.721 258.719 319.44 258.824 318.93C258.919 318.476 257.207 318.316 255.369 318.106C255.139 318.082 254.905 318.053 254.674 318.024C252.601 317.765 251.081 316.441 249.199 315.351C247.414 314.318 244.751 310.115 244.751 310.115L239.998 310.487C239.998 310.487 242.492 314.244 243.458 315.875C244.024 316.835 243.995 318.106 243.924 319.085C243.887 319.619 243.853 320.163 243.96 320.697" fill="#FFB27D"/>
<path d="M248.882 321.369C251.316 320.779 250.738 321.48 254.203 321.101C257.668 320.721 258.719 319.44 258.824 318.93C258.919 318.476 257.207 318.316 255.369 318.106L255.352 318.142C255.352 318.142 253.274 319.602 250.389 319.67C248.038 319.728 245.548 319.058 243.924 319.085C243.887 319.619 243.853 320.163 243.96 320.697C244.265 322.213 246.445 321.959 248.882 321.369" fill="#1C6467"/>
<path d="M233.384 251.508C233.384 251.508 234.518 248.757 235.764 248.646C237.008 248.532 240.973 247.916 241.256 248.477C241.539 249.038 241.256 251.058 240.405 251.788C239.556 252.518 234.291 253.695 234.291 253.695L233.384 251.508Z" fill="#FFB27D"/>
<path d="M225.746 290.575L215.503 317.898C215.503 317.898 213.93 318.048 212.421 317.618C211.033 317.221 209.44 316.18 209.44 316.18C209.44 316.18 211.982 289.944 216.642 284.489C221.3 279.031 225.746 290.575 225.746 290.575" fill="#1C6467"/>
<path d="M185.231 279.522C185.231 279.522 214.664 269.658 221.229 271.756C227.794 273.856 247.501 312.721 247.501 312.721C247.501 312.721 247.058 313.306 245.843 313.758C244.714 314.178 241.98 314.152 241.98 314.152C241.98 314.152 224.192 299.04 222.075 294.634C219.959 290.225 219.112 286.029 216.993 286.447C214.876 286.867 189.678 296.732 183.961 290.856C178.243 284.98 179.739 277.344 179.739 277.344L185.231 279.522Z" fill="#278A8E"/>
<path d="M202.011 209.965C200.739 209.25 199.214 209.17 198.148 209.233C198.423 208.952 198.963 208.848 198.963 208.848C198.301 208.752 196.826 209.402 196.826 209.402C187.627 205.89 186.181 219.314 186.374 222.433C186.566 225.551 186.589 229.14 181.997 231.939C172.962 237.443 180.585 247.051 180.585 247.051C180.657 247.092 184.789 254.038 184.789 254.038C184.557 251.517 196.29 238.219 202.411 234.235C203.902 232.06 204.431 228.219 204.47 227.917C204.214 230.962 203.688 232.671 203.218 233.633C208.402 228.906 205.382 211.865 202.011 209.965" fill="#B5453C"/>
<path d="M202.049 234.434C202.079 234.446 199.093 235.983 196.847 235.374C194.734 234.803 193.354 232.089 193.383 232.082C194.278 231.905 194.536 230.687 194.517 225.452L194.921 225.529L201.722 226.863C201.722 226.863 201.568 228.985 201.563 230.984C201.559 232.662 201.661 234.255 202.049 234.434" fill="#FFB27D"/>
<path d="M201.722 226.863C201.722 226.863 201.568 228.985 201.563 230.984C197.757 230.878 195.746 227.436 194.921 225.529L201.722 226.863" fill="#ED975D"/>
<path d="M194.219 224.797C194.219 224.797 192.224 221.671 191.746 219C191.404 217.096 192.384 210.026 199.55 211.046C199.55 211.046 201.631 211.249 203.588 212.559C205.143 213.598 207.39 215.848 204.878 222.014L204.226 224.098L194.219 224.797" fill="#B5453C"/>
<path d="M202.993 228.756C202.993 228.756 193.989 228.903 193.982 223.344C193.976 217.785 192.81 214.06 198.559 213.731C204.307 213.402 205.426 215.522 205.885 217.376C206.343 219.232 205.336 228.574 202.993 228.756" fill="#FFB27D"/>
<path d="M202.66 213.596C202.66 213.596 200.195 220.117 196.411 221.082C192.627 222.046 190.986 221.04 190.986 221.04C190.986 221.04 193.888 218.756 194.491 214.768C194.491 214.768 200.8 210.49 202.66 213.596" fill="#B5453C"/>
<path d="M202.049 214.125C202.049 214.125 203.89 215.58 204.339 216.997C204.788 218.413 204.99 221.326 205.848 221.226C205.848 221.226 207.704 216.793 205.617 214.287C203.404 211.626 202.049 214.125 202.049 214.125" fill="#B5453C"/>
<path d="M181.997 258.442C181.109 254.752 184.13 247.59 187.284 241.661C190.146 236.285 193.116 231.924 193.383 232.082C200.93 236.522 201.612 232.831 201.612 232.831H201.612C201.615 232.831 208.467 233.732 210.408 237.044C212.815 241.153 215.418 252.637 218.003 254.81C217.605 256.013 217.776 256.654 218.195 258.145C218.285 258.464 218.385 258.769 218.495 259.056C218.885 260.105 219.371 260.959 219.793 261.696C218.478 262.489 215.942 263.992 214.074 262.912C211.225 261.258 209.001 256.228 207.75 254.225C207.745 254.217 207.743 254.21 207.738 254.203C205.019 269.457 208.716 272.93 206.843 274.538C204.868 276.237 202.044 273.731 195.832 276.399C191.758 278.151 186.104 280.682 182.298 281.124C180.302 281.356 178.812 281.011 178.327 279.677C176.915 275.792 183.691 265.481 181.997 258.442" fill="#278A8E"/>
<path d="M200.992 225.386C200.992 225.386 201.16 226.092 202.932 225.983C202.932 225.983 204.422 225.894 204.375 225.116C204.375 225.116 202.932 224.564 200.992 225.386Z" fill="white"/>
<path d="M178.327 279.677C178.812 281.011 180.302 281.356 182.298 281.124C184.932 279.986 196.312 275.616 196.185 272.655C195.996 268.273 193.997 268.133 195.409 262.721C196.542 258.377 186.027 250.299 184.35 248.542C181.196 254.471 181.109 254.752 181.997 258.442C183.691 265.481 176.915 275.792 178.327 279.677" fill="#1C6467"/>
<path d="M177.04 263.864C179.059 261.055 181.161 259.571 182.544 258.824C182.226 258.01 191.033 247.309 191.033 245.651C191.033 243.971 193.383 232.082 193.383 232.082C193.383 232.082 186.045 232.531 183.504 236.043C180.326 240.435 173.727 257.338 177.04 263.864Z" fill="#31AFB4"/>
<path d="M182.544 258.824L197.209 262.617L195.832 265.065C195.832 265.065 177.986 264.942 177.04 263.864C176.095 262.788 182.544 258.824 182.544 258.824Z" fill="#FFB27D"/>
<path d="M207.75 254.225C209.002 256.228 211.226 261.258 214.074 262.912C215.942 263.992 218.478 262.489 219.793 261.696C219.371 260.959 218.886 260.105 218.495 259.056C217.447 259.296 216.169 259.598 215.342 259.844C213.738 260.325 207.75 254.225 207.75 254.225Z" fill="#163560"/>
<path d="M197.209 262.617C197.209 262.617 201.814 261.324 202.911 261.626C204.007 261.928 207.765 264.396 207.238 265.065C206.709 265.735 203.398 264.664 201.875 264.867C200.351 265.07 199.173 265.815 198.076 265.653C196.979 265.493 195.832 265.065 195.832 265.065L197.209 262.617Z" fill="#FFB27D"/>
<path d="M197.209 262.617C197.209 262.617 199.462 261.469 200.103 260.816C200.184 260.734 200.32 260.751 200.383 260.848C200.554 261.116 200.715 261.635 199.925 262.15C198.787 262.892 197.209 262.617 197.209 262.617" fill="#FFB27D"/>
<path d="M218.49 269.039H197.006C197.006 268.101 197.772 267.34 198.718 267.34H218.49V269.039Z" fill="#ED7D2B"/>
<path d="M218.429 245.844H251.647L243.68 269.039H210.245L218.429 245.844Z" fill="#ED7D2B"/>
<path d="M252.137 245.847L244.168 269.036H210.736L218.917 245.847H252.137" fill="#F99746"/>
<path d="M234.228 257.227C234.02 258.114 233.128 258.832 232.235 258.832C231.34 258.832 230.784 258.114 230.989 257.227C231.196 256.342 232.089 255.622 232.981 255.622C233.876 255.622 234.435 256.342 234.228 257.227Z" fill="#F9DDBF"/>
<path d="M252.137 245.847L244.168 269.036H222.027C236.693 264.077 240.597 248.948 241.253 245.847H252.137Z" fill="#ED893E"/>
<path d="M155.701 340C156.121 340 156.48 339.708 156.552 339.306L160.724 315.87L166.725 282.159L168.403 272.735L164.129 272.614L163.387 278.086L158.18 316.54L155.093 339.333C155.046 339.686 155.331 340 155.701 340" fill="#95C0F4"/>
<path d="M163.387 278.086C166.156 279.297 166.725 282.159 166.725 282.159L168.403 272.735L164.129 272.614L163.387 278.086Z" fill="#78ACEA"/>
<path d="M262.014 340C261.595 340 261.236 339.708 261.163 339.306L256.993 315.87L250.991 282.159L249.313 272.735L253.586 272.614L254.327 278.086L259.536 316.54L262.621 339.333C262.67 339.686 262.385 340 262.014 340" fill="#95C0F4"/>
<path d="M254.327 278.086C251.559 279.297 250.991 282.159 250.991 282.159L249.313 272.735L253.586 272.614L254.327 278.086" fill="#78ACEA"/>
<path d="M152.849 276.435H262.307C263.741 276.435 264.914 275.273 264.914 273.851V271.618C264.914 270.197 263.741 269.034 262.307 269.034H152.849C151.415 269.034 150.242 270.197 150.242 271.618V273.851C150.242 275.273 151.415 276.435 152.849 276.435Z" fill="#78ACEA"/>
<path d="M644.268 339.775H0.730655C0.328763 339.775 0 339.451 0 339.053V338.804C0 338.407 0.328763 338.081 0.730655 338.081H644.268C644.672 338.081 645 338.407 645 338.804V339.053C645 339.451 644.672 339.775 644.268 339.775Z" fill="#2E3552"/>
<path d="M424.729 265.089C424.729 265.089 421.888 268.579 422.777 269.056C423.661 269.532 426.008 270.421 426.562 269.861C427.116 269.3 427.288 265.186 427.288 265.186L424.729 265.089" fill="#FFB27D"/>
<path d="M424.844 265.147C424.844 265.147 423.682 265.546 423.228 266.145C422.771 266.742 421.761 267.656 422.006 267.907C422.257 268.161 423.705 267.044 423.705 267.044L424.844 265.147" fill="#FFB27D"/>
<path d="M435.461 218.48C435.461 218.48 432.261 248.01 431.975 248.851C431.916 249.032 431.665 249.968 431.309 251.312C430.807 253.233 430.095 255.993 429.417 258.618C428.401 262.582 427.467 266.242 427.467 266.242L424.687 265.333C424.687 265.333 424.544 250.983 425.257 247.679C425.975 244.375 428.258 224.071 429.414 221.339C430.568 218.608 435.461 218.48 435.461 218.48" fill="#52CBD0"/>
<path d="M428.804 289.292L411.35 284.755C409.078 284.163 407.706 281.838 408.303 279.587L410.287 272.09C410.881 269.839 413.228 268.479 415.5 269.071L432.954 273.608C435.228 274.197 436.598 276.523 436.004 278.775L434.017 286.27C433.422 288.523 431.075 289.882 428.804 289.292" fill="#A02E2E"/>
<path d="M428.39 272.399L422.155 270.777L422.585 269.16C422.655 268.882 422.947 268.715 423.226 268.787L424.793 269.194L427.667 269.94L428.44 270.141C428.496 270.156 428.54 270.177 428.587 270.204C428.778 270.322 428.878 270.555 428.819 270.782L428.39 272.399ZM412.589 272.684L410.583 280.266C410.195 281.736 410.639 283.235 411.624 284.267C411.948 284.61 412.333 284.902 412.771 285.122V285.125C413.045 285.262 413.333 285.374 413.642 285.453L431.066 289.983C433.345 290.575 435.701 289.212 436.298 286.952L438.306 279.367C438.903 277.107 437.527 274.772 435.248 274.18L429.249 272.621L429.675 271.004C429.875 270.255 429.419 269.489 428.666 269.293L428.011 269.121L424.358 268.173L423.452 267.937C423.088 267.842 422.708 267.896 422.382 268.084C422.055 268.273 421.82 268.577 421.726 268.937L421.3 270.555L417.824 269.65C417.685 269.614 417.547 269.587 417.412 269.566H417.409H417.406C416.012 269.343 414.627 269.834 413.677 270.789V270.791C413.168 271.301 412.786 271.944 412.589 272.684" fill="#BC3F3F"/>
<path d="M426.387 269.938C426.387 269.938 427.161 268.645 426.871 268.193C426.582 267.741 425.535 269.534 425.535 269.534C425.535 269.534 426.249 267.995 425.982 267.741C425.715 267.487 424.619 269.257 424.619 269.257C424.619 269.257 425.302 267.76 425.064 267.71C424.826 267.659 424.014 268.969 424.014 268.969C424.014 268.969 424.436 267.847 424.049 267.903C423.664 267.956 422.829 268.976 422.829 268.976L426.387 269.938" fill="#FFB27D"/>
<path d="M431.311 251.311C430.807 253.233 430.095 255.993 429.418 258.618C428.984 257.405 428.431 255.474 428.081 252.824C427.439 247.94 429.415 237.527 429.415 237.527L431.311 251.311Z" fill="#31AFB4"/>
<path d="M467.923 263.874C467.923 263.874 471.018 266.365 471.399 267.144C471.78 267.922 472.743 270.803 472.693 271.731C472.639 272.662 470.322 269.607 469.639 269.36C468.959 269.114 470.351 270.615 470.196 270.936C470.039 271.258 468.584 270.206 468.033 269.863C467.479 269.52 467.092 267.19 466.264 265.921C465.439 264.654 467.923 263.874 467.923 263.874" fill="#FFB27D"/>
<path d="M427.317 338.475H442.743C443.848 337.733 442.446 330.469 442.446 330.469C442.446 330.469 438.236 328.884 437.508 332.106C436.78 335.323 432.145 336.346 429.691 336.74C428.015 337.01 427.483 337.924 427.317 338.475Z" fill="#1C6467"/>
<path d="M450.198 338.475H465.628C466.733 337.733 465.33 330.469 465.33 330.469C465.33 330.469 461.12 328.884 460.389 332.106C459.66 335.323 455.027 336.345 452.575 336.739C450.895 337.01 450.366 337.924 450.198 338.475Z" fill="#1C6467"/>
<path d="M431.47 264.369C431.47 264.369 432.16 272.945 432.977 283.253C434.083 297.256 437.073 331.973 437.073 331.973C437.073 331.973 439.032 333.628 443.37 332.722C443.37 332.722 447.062 320.745 448.168 307.076C448.183 306.852 448.201 306.627 448.219 306.4C449.247 292.485 450.845 263.182 450.845 263.182L431.47 264.369" fill="#278A8E"/>
<path d="M431.232 261.405C431.232 261.405 432.16 272.945 432.977 283.253L448.168 307.076C448.183 306.852 448.201 306.627 448.219 306.4C449.247 292.485 450.844 263.182 450.844 263.182L431.232 261.405Z" fill="#1C6467"/>
<path d="M435.656 261.406C435.656 261.406 446.675 288.589 450.197 298.893C452.705 306.231 459.781 331.978 459.781 331.978C459.781 331.978 462.857 332.906 465.444 331.112C465.444 331.112 468.077 304.807 462.757 297.389C459.937 293.454 462.059 256.485 450.621 256.168C439.181 255.852 435.656 261.406 435.656 261.406Z" fill="#278A8E"/>
<path d="M456.653 263.873C452.063 266.442 432.379 266.385 431.471 264.368C429.433 259.866 428.922 236.988 429.882 229.971C429.882 229.971 430.38 219.186 431.471 219.662C438.738 216.35 450.504 219.357 450.504 219.357C453.676 220.283 453.407 227.469 454.291 237.56C454.404 238.861 454.529 240.214 454.673 241.616C455.299 247.848 456.21 255.005 457.594 262.556C457.686 263.054 457.338 263.493 456.653 263.873Z" fill="#52CBD0"/>
<path d="M445.065 218.145C444.943 220.074 442.405 219.856 439.355 219.165C436.302 218.476 437.407 216.692 437.407 216.692C437.407 216.692 437.451 215.322 437.645 213.678C437.714 213.081 437.803 212.446 437.919 211.829C437.973 211.53 438.032 211.23 438.101 210.945C438.5 209.245 444.198 210.884 444.156 211.341C444.046 212.574 444.946 216.63 445.065 218.145Z" fill="#FFB27D"/>
<path d="M438.527 221.512L438.284 218.845L441.662 219.479L440.364 221.857L438.527 221.512" fill="#233862"/>
<path d="M437.479 215.438L435.457 218.481C435.457 218.481 435.457 220.352 437.211 221.71L439.973 219.163C439.973 219.163 438.187 218.488 437.479 215.438Z" fill="#31AFB4"/>
<path d="M439.976 219.162C439.976 219.162 440.544 221.197 441.651 222.13C441.651 222.13 445.963 220.982 446.989 218.792L444.746 215.92C444.746 215.92 444.635 218.094 439.976 219.162" fill="#31AFB4"/>
<path d="M444.19 212.3C444.19 212.3 441.446 214.108 437.646 213.678C437.715 213.081 437.804 212.445 437.92 211.829C438.669 211.65 439.299 211.536 439.299 211.536L444.19 212.3Z" fill="#E2915A"/>
<path d="M445.931 210.246C444.589 213.903 439.693 212.97 437.612 212.383C437.025 212.218 436.661 212.081 436.661 212.081C436.018 211.791 435.816 210.676 435.876 209.27C435.985 206.485 437.094 202.555 437.732 201.608C438.688 200.182 440.288 198.734 445.034 200.752C449.783 202.77 447.651 205.559 445.931 210.246" fill="#FFB27D"/>
<path d="M449.597 208.368C448.099 209.579 444.88 211.819 444.88 211.819C444.88 211.819 445.239 211.399 445.676 210.19C445.727 210.052 445.742 209.852 445.733 209.639C445.718 209.047 445.86 208.455 446.176 207.95C446.369 207.633 446.441 207.307 446.194 207.075C445.787 206.692 445.094 207.043 444.636 207.352C444.337 207.556 443.942 207.567 443.635 207.379C443.632 207.377 443.629 207.377 443.626 207.374C442.348 206.579 443.762 205.179 442.722 204.017C441.679 202.854 437.175 202.695 437.356 201.967C435.822 201.107 436.789 197.931 436.817 197.762C436.817 197.762 439.023 197.955 441.778 197.273C444.015 196.717 446.48 198.141 447.258 198.726C447.258 198.586 447.237 198.392 447.135 198.185C447.135 198.185 447.472 198.516 447.469 198.902C447.502 198.936 447.517 198.96 447.505 198.968C447.505 198.968 447.951 198.958 448.211 199.13C448.211 199.13 448.021 199.069 447.93 199.183C447.918 199.195 447.906 199.202 447.891 199.212C450.884 201.307 450.839 207.36 449.597 208.368" fill="#233862"/>
<path d="M438.856 209.716C438.856 209.716 438.615 210.177 437.406 209.796C437.406 209.796 436.389 209.474 436.556 208.942C436.556 208.942 437.653 208.809 438.856 209.716" fill="white"/>
<path d="M438.525 221.512C438.525 221.512 435.828 255.274 435.867 258.087C435.902 260.901 438.854 263.874 438.854 263.874C438.854 263.874 441.201 261.324 441.66 258.634C442.119 255.943 440.361 221.858 440.361 221.858L438.525 221.512" fill="#278A8E"/>
<path d="M450.503 219.358C450.503 219.358 454.853 220.391 458.293 226.941C461.736 233.491 464.452 246.703 466.092 250.189C467.736 253.676 468.864 264.657 468.864 264.657L466.261 265.921C466.261 265.921 459.983 254.667 459.055 250.976C458.552 248.98 450.875 232.996 450.875 232.996L450.503 219.358" fill="#52CBD0"/>
<path d="M456.653 263.873C448.457 262.706 450.807 235.828 451.448 235.721C452.09 235.615 454.446 240.526 454.446 240.526L454.673 241.617C455.299 247.848 456.21 255.005 457.594 262.556C457.686 263.054 457.337 263.493 456.653 263.873" fill="#31AFB4"/>
<path d="M558.881 322.587C558.881 322.587 562.294 325.674 561.629 327.866C560.963 330.058 557.883 331.521 557.469 334.201C557.051 336.879 555.387 338.342 553.889 338.342C552.391 338.342 546.748 338.342 546.748 338.342C546.748 338.342 545.647 336.456 548.309 335.888C550.971 335.321 551.977 332.171 551.811 329.246C551.644 326.324 552.059 322.425 552.059 322.425L557.716 321.127L558.881 322.587" fill="#1C6467"/>
<path d="M517.029 330.569C517.029 330.569 517.642 337.592 516.142 338.322L496.976 338.284C496.976 338.284 496.976 336.091 500.054 335.603C503.135 335.118 508.541 333.331 509.459 329.35C510.373 325.372 517.029 330.569 517.029 330.569" fill="#1C6467"/>
<path d="M500.848 231.368C500.848 231.368 501.858 243.679 503.046 258.476C504.66 278.577 506.603 303.268 506.795 307.945C507.127 316.066 508.462 329.058 508.462 329.058C508.462 329.058 511.62 332.144 517.945 330.844C517.945 330.844 523.584 312.298 525.191 292.673C525.216 292.352 525.24 292.028 525.268 291.704C526.764 271.727 529.094 229.662 529.094 229.662L500.848 231.368Z" fill="#278A8E"/>
<path d="M500.848 231.368C500.848 231.368 501.858 243.679 503.046 258.476L525.191 292.673C525.216 292.352 525.24 292.028 525.268 291.704C526.764 271.727 529.094 229.662 529.094 229.662L500.848 231.368Z" fill="#1C6467"/>
<path d="M505.462 232.831C505.462 232.831 523.685 277.411 535.668 298.363C547.651 319.314 551.394 325.161 551.394 325.161C551.394 325.161 558.258 322.481 558.883 320.653C558.883 320.653 554.302 280.206 546.279 270.346C541.746 264.775 537.833 252.414 538.028 246.565C538.366 236.478 534.546 224.789 534.546 224.789L505.462 232.831" fill="#278A8E"/>
<path d="M490.914 233.485C490.914 233.485 487.509 238.051 487.26 239.27C487.007 240.488 486.715 244.839 487.122 246.112C487.529 247.386 489.653 242.313 490.51 241.728C491.37 241.143 489.975 243.724 490.306 244.116C490.641 244.51 492.279 242.53 492.926 241.856C493.573 241.179 493.267 237.8 493.96 235.743C494.646 233.686 490.914 233.485 490.914 233.485Z" fill="#FFB27D"/>
<path d="M505.915 167.127C505.915 167.127 501.32 209.55 500.908 210.758C500.817 211.022 500.459 212.366 499.949 214.297C499.225 217.055 498.203 221.021 497.234 224.79C495.769 230.487 494.19 235.413 494.19 235.413C494.19 235.413 493.497 235.858 491.821 235.715C490.678 235.618 490.061 234.651 490.061 234.651C490.061 234.651 490.229 213.823 491.258 209.076C492.287 204.327 495.568 175.162 497.227 171.237C498.883 167.311 505.915 167.127 505.915 167.127" fill="#F8FCFC"/>
<path d="M499.953 214.296C499.23 217.054 498.206 221.02 497.238 224.789C496.611 223.046 495.815 220.271 495.315 216.469C494.39 209.447 497.231 194.493 497.231 194.493L499.953 214.296Z" fill="#C5EEEE"/>
<path d="M536.36 232.343C529.761 236.031 501.485 235.949 500.176 233.054C497.253 226.585 496.518 193.718 497.899 183.636C497.899 183.636 498.615 168.143 500.176 168.824C510.621 164.07 527.526 168.389 527.526 168.389C532.082 169.718 531.691 180.042 532.965 194.54C533.128 196.405 533.309 198.354 533.512 200.365C534.413 209.317 535.722 219.602 537.709 230.45C537.843 231.163 537.34 231.797 536.36 232.343" fill="#F8FCFC"/>
<path d="M519.717 166.646C519.542 169.416 515.895 169.102 511.507 168.111C507.125 167.122 508.713 164.558 508.713 164.558C508.713 164.558 508.778 162.589 509.057 160.229C509.156 159.372 509.28 158.459 509.448 157.574C509.524 157.141 509.61 156.713 509.71 156.301C510.283 153.862 518.47 156.215 518.411 156.872C518.253 158.642 519.545 164.469 519.717 166.646" fill="#FFB27D"/>
<path d="M510.317 171.483L509.969 167.655L514.824 168.561L512.957 171.981L510.317 171.483Z" fill="#233862"/>
<path d="M508.817 162.755L505.917 167.127C505.917 167.127 505.917 169.817 508.434 171.768L512.399 168.108C512.399 168.108 509.835 167.139 508.817 162.755" fill="#C5EEEE"/>
<path d="M512.395 168.109C512.395 168.109 513.217 171.031 514.805 172.373C514.805 172.373 520.998 170.722 522.476 167.58L519.25 163.452C519.25 163.452 519.095 166.574 512.395 168.109Z" fill="#C5EEEE"/>
<path d="M518.457 158.248C518.457 158.248 514.517 160.846 509.055 160.229C509.154 159.371 509.281 158.459 509.449 157.574C510.526 157.314 511.428 157.153 511.428 157.153L518.457 158.248" fill="#E2915A"/>
<path d="M520.957 155.298C519.03 160.553 512.001 159.211 509.006 158.367C508.164 158.131 507.642 157.934 507.642 157.934C506.717 157.518 506.429 155.917 506.512 153.896C506.672 149.896 508.265 144.249 509.18 142.888C510.557 140.84 512.849 138.758 519.67 141.657C526.49 144.558 523.426 148.564 520.957 155.298" fill="#FFB27D"/>
<path d="M526.224 152.6C524.072 154.339 519.447 157.559 519.447 157.559C519.447 157.559 519.96 156.957 520.591 155.22C520.661 155.022 520.682 154.734 520.675 154.428C520.65 153.576 520.856 152.726 521.306 152C521.589 151.547 521.69 151.076 521.334 150.744C520.748 150.195 519.751 150.699 519.098 151.143C518.666 151.435 518.101 151.452 517.658 151.179C517.654 151.177 517.651 151.176 517.647 151.174C515.809 150.032 517.839 148.021 516.346 146.351C514.847 144.682 508.38 144.453 508.642 143.405C506.43 142.17 507.826 137.606 507.864 137.365C507.864 137.365 511.034 137.643 514.99 136.663C518.202 135.863 521.746 137.909 522.865 138.751C522.865 138.549 522.83 138.269 522.684 137.972C522.684 137.972 523.172 138.449 523.165 139.004C523.214 139.053 523.235 139.087 523.221 139.096C523.221 139.096 523.859 139.084 524.233 139.328C524.233 139.328 523.957 139.242 523.828 139.404C523.814 139.422 523.797 139.434 523.772 139.447C528.073 142.457 528.01 151.152 526.224 152.6" fill="#BC3F3F"/>
<path d="M510.793 154.537C510.793 154.537 510.448 155.199 508.706 154.65C508.706 154.65 507.249 154.189 507.492 153.427C507.492 153.427 509.065 153.236 510.793 154.537" fill="white"/>
<path d="M510.32 171.482C510.32 171.482 506.446 219.986 506.5 224.027C506.555 228.069 510.795 232.342 510.795 232.342C510.795 232.342 514.168 228.678 514.826 224.813C515.488 220.945 512.96 171.98 512.96 171.98L510.32 171.482" fill="#278A8E"/>
<path d="M536.36 232.343C536.357 232.343 536.357 232.343 536.357 232.343C524.585 230.663 527.956 192.05 528.882 191.898C529.804 191.746 533.189 198.801 533.189 198.801L533.511 200.365C534.413 209.317 535.722 219.602 537.708 230.45C537.843 231.163 537.34 231.797 536.36 232.343" fill="#C5EEEE"/>
<path d="M570.966 261.106L546.074 268.285C542.833 269.218 539.413 267.356 538.468 264.144L535.332 253.453C534.39 250.244 536.266 246.852 539.508 245.917L564.396 238.738C567.638 237.803 571.061 239.666 572.003 242.876L575.142 253.567C576.084 256.779 574.208 260.171 570.966 261.106" fill="#A02E2E"/>
<path d="M557.872 240.587L548.981 243.154L548.304 240.846C548.186 240.449 548.418 240.031 548.817 239.915L551.053 239.272L555.149 238.088L556.256 237.771C556.332 237.75 556.408 237.74 556.48 237.742C556.803 237.747 557.1 237.96 557.195 238.281L557.872 240.587ZM538.611 252.501L541.786 263.315C542.402 265.408 544.068 266.931 546.045 267.484C546.703 267.668 547.395 267.746 548.099 267.7H548.102C548.54 267.671 548.981 267.598 549.418 267.47L574.265 260.303C577.517 259.366 579.403 255.962 578.456 252.738L575.281 241.924C574.334 238.699 570.9 236.831 567.649 237.769L559.092 240.237L558.419 237.928C558.108 236.862 556.974 236.248 555.898 236.558L554.959 236.828L549.757 238.33L548.464 238.704C547.947 238.852 547.513 239.197 547.251 239.669C546.992 240.14 546.927 240.686 547.079 241.199L547.76 243.507L542.801 244.936C542.604 244.991 542.413 245.056 542.231 245.131L542.227 245.134H542.223C540.341 245.883 538.999 247.5 538.538 249.371V249.373C538.295 250.374 538.303 251.445 538.611 252.501" fill="#BC3F3F"/>
<path d="M550.412 233.684C550.412 233.684 549.643 240.08 551.09 239.988C552.533 239.896 556.075 239.21 556.316 238.108C556.558 237.005 553.606 231.867 553.606 231.867L550.412 233.684" fill="#FFB27D"/>
<path d="M550.599 233.667C550.599 233.667 549.493 235.031 549.395 236.104C549.3 237.177 548.771 239.053 549.268 239.174C549.765 239.294 550.671 236.839 550.671 236.839L550.599 233.667Z" fill="#FFB27D"/>
<path d="M527.528 168.389C527.528 168.389 533.776 169.873 538.719 179.283C543.661 188.693 547.564 207.672 549.927 212.682C552.283 217.691 554.082 232.723 554.082 232.723C554.082 232.723 553.713 233.47 552.44 233.743C551.455 233.953 550.441 233.871 550.441 233.871C550.441 233.871 541.148 219.114 539.813 213.814C539.091 210.945 528.061 187.982 528.061 187.982L527.528 168.389" fill="#F8FCFC"/>
<path d="M115.806 332.219L114.87 325.531L118.804 322.273L120.044 331.127L115.806 332.219Z" fill="#FFB27D"/>
<path d="M128.873 338.192H112.832C112.832 338.192 112.447 335.768 113.285 333.931C114.088 332.166 115.337 331.076 115.451 329.725C116.471 330.767 117.725 331.436 120.044 331.127C120.328 331.584 121.878 334.027 122.827 334.702C123.876 335.449 128.55 335.183 128.873 338.192Z" fill="#1C6467"/>
<path d="M125.65 241.926C124.601 250.29 123.743 258.177 123.044 265.525C119.311 304.684 120.044 328.618 120.044 328.618C120.044 328.618 119.774 329.326 117.459 329.336C116.151 329.343 114.87 329.06 114.87 329.06C114.87 329.06 106.511 303.49 107.157 288.939C107.233 287.189 107.441 285.598 107.809 284.228C109.814 276.783 100.389 248.312 110.634 237.709C120.878 227.107 126.132 238.088 125.65 241.926" fill="#F99746"/>
<path d="M125.65 241.926C124.601 250.29 123.743 258.177 123.044 265.525L107.157 288.939C107.233 287.189 107.441 285.598 107.809 284.228C109.814 276.783 100.389 248.312 110.634 237.709C120.878 227.107 126.132 238.088 125.65 241.926" fill="#ED7D2B"/>
<path d="M138.275 162.145C138.275 162.145 137.889 160.234 137.453 158.776C137.261 158.131 138.603 153.891 139.532 153.371C140.462 152.849 142.882 155.704 142.197 157.894C141.845 159.02 141.267 162.685 141.267 162.685L138.275 162.145" fill="#FFB27D"/>
<path d="M138.275 162.146C138.275 162.146 137.77 161.036 137.314 160.857C136.857 160.678 136.368 158.865 136.033 158.148C136.033 158.148 136.357 157.679 136.923 158.283C137.268 158.65 138.038 159.733 138.038 159.733L138.275 162.146" fill="#FFB27D"/>
<path d="M72.0542 168.573C71.9559 168.773 71.8191 169.133 71.6974 169.472C71.6955 169.38 71.694 169.288 71.693 169.199C71.6867 168.527 69.1509 164.862 68.1086 164.633C67.0658 164.403 65.5943 167.835 66.8966 169.733C67.5655 170.707 69.1999 174.042 69.1999 174.042L71.902 172.66C71.902 172.66 72.0578 171.454 72.441 171.149C72.8241 170.845 72.7568 168.971 72.8648 168.186C72.8648 168.186 72.4168 167.831 72.0542 168.573" fill="#FFB27D"/>
<path d="M88.904 330.213C88.6772 328.072 88.6211 322.433 88.6211 322.433C88.6211 322.433 94.4182 320.596 94.2048 321.857C93.1559 328.057 93.4407 331.127 93.4407 331.127L91.0964 332.514L88.904 330.213Z" fill="#FFB27D"/>
<path d="M120.808 241.528C120.808 241.528 98.4133 302.373 94.0049 328.765C94.0049 328.765 92.9836 329.461 91.0784 329.229C88.9177 328.968 88.3256 327.479 88.3256 327.479C88.3256 327.479 84.2798 295.847 92.3212 284.866C97.8458 277.32 89.9383 244.184 102.806 241.528C115.673 238.871 120.808 241.528 120.808 241.528" fill="#F99746"/>
<path d="M116.831 182.998C116.831 182.995 116.831 182.995 116.831 182.995C116.827 182.969 116.82 182.945 116.812 182.918C116.681 182.381 116.538 181.854 116.384 181.332C116.384 181.33 116.384 181.33 116.384 181.33C115.915 179.73 115.358 178.207 114.756 176.861C114.409 176.09 114.051 175.374 113.683 174.739C113.627 174.639 113.572 174.55 113.52 174.456L113.517 174.453C112.652 173.01 111.762 172.014 110.959 171.708C109.495 171.147 107.866 171.301 106.745 171.533C106.991 171.193 107.549 171.002 107.549 171.002C106.832 170.999 105.37 171.92 105.37 171.92C95.0553 169.634 95.6582 184.095 96.3605 187.373C97.0604 190.65 93.7394 192.243 89.0559 195.598C80.1178 201.996 80.2672 208.781 80.2672 208.781C80.348 208.815 80.436 208.853 80.5272 208.899C80.8869 208.022 81.6497 206.359 82.4494 206.008C82.4267 206.086 81.7763 208.239 81.5917 209.443C82.9532 210.188 84.8374 211.338 86.8832 212.639C86.8832 212.639 86.8832 212.639 86.8859 212.641C89.6233 214.376 92.6447 216.375 95.0658 217.997C94.9507 217.337 94.8368 216.395 95.0061 215.863L95.7774 218.232L95.8786 218.541C97.4238 219.578 98.6429 220.41 99.2618 220.835C99.3252 220.878 99.3816 220.917 99.4321 220.951C99.613 221.072 99.7098 221.139 99.7098 221.139C99.5042 220.303 100.406 218.121 101.92 215.37C102.023 215.179 102.133 214.983 102.245 214.785C102.734 213.915 103.28 212.999 103.867 212.054C104.078 211.713 104.292 211.372 104.514 211.024C104.514 211.022 104.516 211.022 104.516 211.022C104.694 210.741 104.873 210.463 105.059 210.18L105.061 210.178C105.5 209.506 105.953 208.829 106.416 208.152C107.615 206.398 108.884 204.655 110.139 203.057C111.96 200.73 113.748 198.706 115.244 197.382C115.293 197.283 115.34 197.181 115.381 197.077C115.616 196.538 115.796 195.939 115.935 195.327C115.978 195.146 116.017 194.96 116.051 194.776C116.424 192.83 116.431 190.899 116.426 190.442C116.546 192.32 116.498 193.739 116.371 194.81C116.343 195.047 116.311 195.264 116.275 195.468H116.276C116.196 195.927 116.104 196.304 116.005 196.618C116.25 196.316 116.465 195.987 116.656 195.625C116.78 195.39 116.894 195.141 116.994 194.883C118.202 191.827 117.877 187.271 116.831 182.998" fill="#163560"/>
<path d="M114.893 197.65C114.927 197.66 112.005 199.756 109.526 199.461C107.195 199.185 105.298 196.521 105.328 196.512C106.249 196.185 106.329 194.851 105.475 189.302L105.917 189.321L113.342 189.674C113.342 189.674 113.515 191.948 113.829 194.068C114.091 195.847 114.453 197.52 114.893 197.65Z" fill="#FFB27D"/>
<path d="M113.342 189.674C113.342 189.674 113.516 191.948 113.829 194.068C109.776 194.549 107.095 191.216 105.917 189.321L113.342 189.674Z" fill="#ED975D"/>
<path d="M105.055 188.654C105.055 188.654 102.443 185.652 101.51 182.894C100.844 180.926 100.758 173.279 108.52 173.238C108.52 173.238 110.76 173.126 113.043 174.209C114.859 175.072 117.598 177.105 115.917 184.037L115.557 186.35L105.055 188.654" fill="#163560"/>
<path d="M126.586 240.36C126.586 240.36 116.923 246.05 104.792 243.125C104.649 243.089 94.8027 241.532 94.8027 241.532C94.9717 241.073 96.2443 233.534 96.4108 233.114C98.563 227.608 102.496 197.732 105.783 196.258C106.622 197.164 109.02 197.783 111.073 197.604C113.436 197.396 114.228 196.384 114.032 195.296C116.647 196.521 118.657 197.66 118.657 197.66C121.048 201.21 126.586 240.36 126.586 240.36Z" fill="white"/>
<path d="M114.991 191.482C114.991 191.482 105.465 193.046 104.574 187.15C103.682 181.257 101.853 177.489 107.897 176.239C113.942 174.992 115.466 177.066 116.246 178.961C117.027 180.859 117.446 190.923 114.991 191.482Z" fill="#FFB27D"/>
<path d="M112.224 175.454C112.224 175.454 110.648 182.756 106.789 184.371C102.93 185.985 101.029 185.176 101.029 185.176C101.029 185.176 103.744 182.299 103.747 177.975C103.747 177.975 109.758 172.454 112.224 175.454Z" fill="#163560"/>
<path d="M111.661 176.111C111.661 176.111 113.845 177.368 114.547 178.799C115.248 180.23 115.926 183.29 116.819 183.051C116.819 183.051 118.083 178.06 115.47 175.725C112.7 173.252 111.661 176.111 111.661 176.111Z" fill="#163560"/>
<path d="M141.332 162.281C140.945 162.145 140.374 161.826 139.629 161.759C138.966 161.701 138.133 161.916 138.133 161.916C138.133 161.916 135.445 178.473 135.245 179.35C135.046 180.228 123.718 192.876 120.663 192.826C117.905 192.78 114.638 194.89 114.032 195.296C114.032 195.296 120.455 208.757 120.775 211.285C121.123 214.036 124.448 256.407 124.448 256.407C124.448 256.407 124.25 258.377 127.966 257.318C131.682 256.257 132.611 255.382 132.611 255.382C132.611 255.382 129.198 222.024 128.482 211.652C128.386 210.26 128.157 208.969 127.83 207.78C127.515 206.634 127.763 205.409 128.469 204.449C133.167 198.056 140.586 187.701 140.999 185.499C141.606 182.265 141.332 162.281 141.332 162.281Z" fill="#278A8E"/>
<path d="M102.27 338.192H86.2282C86.2282 338.192 85.8436 335.768 86.6816 333.931C87.4844 332.166 88.734 331.076 88.8479 329.725C89.8673 330.767 91.1215 331.436 93.4407 331.127C93.7248 331.584 95.2748 334.027 96.224 334.702C97.2721 335.449 101.947 335.183 102.27 338.192Z" fill="#1C6467"/>
<path d="M113.289 212.593C112.748 209.296 105.846 196.055 105.846 196.055C105.846 196.055 101.482 194.762 98.6103 195.794C95.7384 196.823 80.8792 188.509 80.4029 187.742C79.9266 186.979 71.9679 172.28 71.9679 172.28C71.9679 172.28 71.308 171.901 70.2505 172.447C69.2046 172.986 69.2 174.042 69.2 174.042C69.2 174.042 75.3423 192.548 76.9765 195.412C77.962 197.138 86.2468 203.149 92.6701 207.65C93.8965 208.508 94.5405 209.972 94.3391 211.447C93.4756 217.775 93.2556 221.34 92.2623 232.198C91.4383 241.206 91.1229 258.648 91.1229 258.648C91.1229 258.648 98.3108 261.113 103.272 261.44C108.232 261.768 109.314 256.584 109.314 256.584C109.314 256.584 113.845 215.984 113.289 212.593Z" fill="#278A8E"/>
<path d="M111.87 188.567C111.87 188.567 113.027 189.241 114.393 189.038C115.329 188.898 115.542 187.798 115.542 187.798C115.542 187.798 114.891 187.595 113.853 187.803C112.815 188.008 111.87 188.567 111.87 188.567" fill="white"/>
<path d="M416.137 76.1964C416.137 76.1964 411.681 68.3447 416.137 66.7467C420.592 65.1516 422.611 66.6228 422.822 68.4124C423.035 70.1991 421.124 77.2476 421.124 77.2476L416.137 76.1964" fill="#FFB27D"/>
<path d="M419.711 126.408C411.585 127.86 404.113 128.533 397.366 128.682C390.965 128.826 385.221 128.495 380.194 127.917C378.843 127.763 377.544 127.59 376.297 127.403C363.143 125.425 355.874 121.919 355.874 121.919C355.874 121.919 367.898 96.9747 377.61 97.9316C389.005 99.0581 408.311 109.193 410.231 106.348C412.391 103.147 414.2 75.6842 414.2 75.6842C419.25 72.2559 422.268 75.8709 422.268 75.8709C422.268 75.8709 432.138 124.187 419.711 126.408" fill="#F99746"/>
<path d="M419.708 126.409C411.583 127.861 404.11 128.534 397.363 128.684C390.963 128.827 385.219 128.497 380.191 127.918C377.159 118.362 374.979 108.603 381.077 114.487C391.83 124.865 419.708 126.409 419.708 126.409" fill="#ED7D2B"/>
<path d="M354.959 327.806C354.959 327.806 354.096 337.723 356.212 338.753L383.276 338.7C383.276 338.7 383.276 335.603 378.927 334.915C374.583 334.228 366.943 331.705 365.651 326.087C364.359 320.468 354.959 327.806 354.959 327.806" fill="#1C6467"/>
<path d="M374.833 207.792C374.698 214.274 374.384 220.962 373.77 226.974C370.845 255.495 369.82 289.958 369.399 296.603C368.67 308.135 366.373 326.561 366.373 326.561C366.373 326.561 361.814 330.851 352.922 328.804C352.922 328.804 345.561 302.266 343.914 274.322C343.891 273.863 343.866 273.401 343.843 272.942C343.651 269.246 343.45 265.024 343.246 260.467C341.892 229.956 340.423 184.633 340.423 184.633L374.384 176.729C374.384 176.729 375.167 191.626 374.833 207.792Z" fill="#278A8E"/>
<path d="M374.833 207.792C366.225 222.509 349.819 249.627 343.246 260.467C341.892 229.956 340.423 184.633 340.423 184.633L374.384 176.729C374.384 176.729 375.167 191.626 374.833 207.792Z" fill="#1C6467"/>
<path d="M288.835 179.28C288.835 179.28 283.309 185.722 282.812 187.508C282.314 189.294 281.429 195.729 281.904 197.662C282.377 199.596 286.053 192.27 287.389 191.489C288.725 190.706 286.387 194.402 286.843 195.018C287.299 195.634 289.937 192.862 290.967 191.922C291.996 190.984 291.893 185.932 293.13 182.945C294.366 179.957 288.835 179.28 288.835 179.28Z" fill="#FFB27D"/>
<path d="M287.54 316.537C287.54 316.537 282.721 320.893 283.662 323.989C284.601 327.085 288.95 329.15 289.537 332.932C290.125 336.718 292.473 338.782 294.588 338.782C296.705 338.782 304.672 338.782 304.672 338.782C304.672 338.782 306.228 336.118 302.467 335.316C298.709 334.513 297.29 330.066 297.526 325.94C297.761 321.811 297.173 316.308 297.173 316.308L289.184 314.473L287.54 316.537Z" fill="#1C6467"/>
<path d="M369.033 185.325C369.033 185.325 337.239 252.747 320.32 282.33C303.403 311.913 298.115 320.167 298.115 320.167C298.115 320.167 288.421 316.385 287.541 313.803C287.541 313.803 294.01 256.692 305.342 242.77C311.743 234.904 319.265 211.297 319.614 203.04C319.968 194.783 327.394 175.079 327.394 175.079L369.033 185.325Z" fill="#278A8E"/>
<path d="M378.326 188.504C378.326 188.504 365.682 196.882 347.789 196.103C339.936 195.765 324.359 193.558 321.845 187.368C321.255 185.913 321.687 184.069 322.572 181.238C324.87 173.881 330.228 159.869 328.61 128.804C328.459 125.912 328.541 123.196 328.82 120.649C330.504 105.349 339.354 96.2856 347.905 93.3263C368.76 86.0991 375.712 96.1106 375.712 96.1106C375.712 96.1106 384.93 103.348 386.322 118.455C389.099 148.676 378.326 188.504 378.326 188.504" fill="#F99746"/>
<path d="M354.017 91.5901C354.017 91.5901 363.587 97.3589 373.965 95.7262C373.965 95.7262 376.02 95.2108 375.01 92.8215C375.64 90.8944 375.566 91.0696 375.93 89.6376C376.839 86.3419 377.119 84.4401 377.119 84.4401L371.229 78.3032L365.65 72.4405C364.107 86.4561 354.017 91.5901 354.017 91.5901Z" fill="#FFB27D"/>
<path d="M364.755 77.7562C364.755 77.7562 367.96 86.2481 375.93 89.6378C376.84 86.3421 377.433 82.894 377.433 82.894L371.228 78.3025L364.755 77.7562Z" fill="#ED985F"/>
<path d="M383.73 84.1426C383.73 84.1426 365.463 86.4063 364.179 75.2808C362.898 64.1553 359.675 56.9522 371.284 55.0379C382.893 53.1237 385.653 57.1217 387.006 60.7337C388.361 64.3483 388.448 83.2664 383.73 84.1426Z" fill="#FFB27D"/>
<path d="M358.41 53.2296C358.253 53.0368 357.88 52.8708 357.034 52.7958C357.034 52.7958 357.729 52.3994 358.631 52.4128C358.853 51.2532 359.558 49.2125 361.601 48.7867C361.601 48.7867 360.49 49.3223 360.304 50.5569C362.736 48.2564 367.829 46.7085 381.701 48.318C399.983 50.4391 393.496 61.8478 391.067 63.1466C388.64 64.4455 382.812 60.4176 378.375 60.5997C373.941 60.7819 372.855 67.0861 371.323 67.8975C369.791 68.7117 370.439 67.1959 368.442 66.2103C366.446 65.2248 366.127 68.551 366.632 70.7417C367.135 72.9324 364.238 75.6854 364.238 75.6854C364.238 75.6854 364.238 75.6854 361.533 72.5708C358.829 69.4589 356.656 56.6147 358.042 53.9447C358.164 53.709 358.285 53.4707 358.41 53.2296" fill="#2C3A64"/>
<path d="M414.198 70.9898L383.187 71.2635L382.975 66.6384L413.889 64.2637L414.198 70.9898Z" fill="#278A8E"/>
<path d="M437.608 71.7618L403.845 72.2443L403.457 63.8376L437.124 61.2534L437.608 71.7618" fill="#278A8E"/>
<path d="M460.373 72.4197L431.9 72.4563L431.381 61.1065L459.737 58.5484L460.373 72.4197Z" fill="#1C6467"/>
<path d="M460.783 74.3335C461.659 74.2938 462.341 73.5569 462.301 72.6856L461.631 58.1086C461.591 57.2373 460.848 56.5647 459.972 56.6044C459.09 56.6442 458.411 57.381 458.451 58.2523L459.12 72.8293C459.157 73.7006 459.904 74.3732 460.783 74.3335" fill="#1C6467"/>
<path d="M383.092 72.2496C382.31 72.2832 381.65 71.6838 381.614 70.9112L381.439 67.1285C381.403 66.3534 382.008 65.6997 382.79 65.6635C383.572 65.6273 384.231 66.2268 384.268 67.0019L384.44 70.7846C384.476 71.5572 383.872 72.2134 383.092 72.2496" fill="#31AFB4"/>
<path d="M322.572 181.238C324.872 173.88 330.227 159.869 328.611 128.802C328.459 125.913 328.542 123.194 328.82 120.651H328.823C335.685 120.066 346.179 127.419 346.179 127.419C346.179 127.419 339.716 166.465 322.572 181.238" fill="#ED7D2B"/>
<path d="M354.014 91.5904C354.014 91.5904 336.414 94.5902 327.235 105.695C318.057 116.802 303.289 132.463 299.8 137.947C296.309 143.431 286.617 180.753 286.617 180.753C286.617 180.753 287.259 181.952 289.931 182.65C292.49 183.32 294.344 182.283 294.344 182.283C294.344 182.283 307.186 160.503 312.019 149.622C314.026 145.101 348.751 127.199 361.804 129.054C366.93 129.782 354.014 91.5904 354.014 91.5904Z" fill="#F99746"/>
<path d="M414.014 62.9384C414.014 62.9384 417.799 65.2345 420.065 64.2637C422.327 63.2929 422.129 62.4037 422.129 62.4037C422.129 62.4037 415.286 60.5212 414.014 62.9384" fill="#FFB27D"/>
<path d="M371.096 103.759C371.096 103.759 363.372 152.089 308.572 166.16L302.601 177.833L313.088 179.592C313.088 179.592 375.477 161.678 374.635 102.904L371.096 103.759" fill="#BC3F3F"/>
<path d="M369.896 96.0436L367.368 96.2884V99.9179L371.096 103.757L374.638 102.904V97.8659L372.089 96.0436H369.896Z" fill="#A02E2E"/>
<path d="M359.97 86.4323C359.97 86.4323 357.523 86.9812 351.924 91.5898C351.924 91.5898 357.49 103.302 369.234 104.704C369.234 104.704 369.047 99.2698 369.896 96.0436C369.896 96.0436 360.586 92.74 359.97 86.4323Z" fill="#ED7D2B"/>
<path d="M369.898 96.0409C369.898 96.0409 375.629 99.0578 376.053 103.757C376.053 103.757 378.244 100.315 377.609 97.9325C376.972 95.5521 375.01 92.8229 375.01 92.8229C375.01 92.8229 375.205 95.6921 369.898 96.0409Z" fill="#ED7D2B"/>
</svg>
