<svg width="32" height="32" viewBox="0 0 32 32" fill="none" xmlns="http://www.w3.org/2000/svg">
<path d="M27.2026 4.65289C24.2147 1.6498 20.2309 0 15.9886 0C7.25302 0 0.136849 7.11618 0.129247 15.8517C0.129247 18.6496 0.85911 21.3713 2.24281 23.7814L0 32L8.40863 29.7952C10.7275 31.0573 13.3352 31.7263 15.9886 31.7263H15.9962C24.7317 31.7263 31.8479 24.6101 31.8555 15.867C31.8479 11.6322 30.1981 7.64837 27.2026 4.65289ZM15.9886 29.0425C13.6165 29.0425 11.2977 28.4039 9.27534 27.2027L8.79637 26.9138L3.80897 28.2214L5.13945 23.3557L4.82774 22.8539C3.50486 20.7555 2.81301 18.3302 2.81301 15.8441C2.81301 8.59111 8.72795 2.67617 15.9962 2.67617C19.5162 2.67617 22.8234 4.05227 25.3171 6.53837C27.8032 9.03207 29.1717 12.3393 29.1717 15.8594C29.1641 23.1352 23.2492 29.0425 15.9886 29.0425ZM23.2188 19.1742C22.8234 18.9765 20.8771 18.0185 20.5122 17.8817C20.1473 17.7524 19.8812 17.684 19.6227 18.0794C19.3566 18.4747 18.5963 19.3718 18.3682 19.6303C18.1401 19.8964 17.9045 19.9268 17.5091 19.7292C17.1138 19.5315 15.8365 19.1133 14.3236 17.76C13.1451 16.7109 12.3545 15.4108 12.1188 15.0154C11.8907 14.6201 12.096 14.4072 12.2936 14.2096C12.4685 14.0347 12.689 13.7458 12.8866 13.5177C13.0843 13.2896 13.1527 13.1224 13.282 12.8563C13.4112 12.5902 13.3504 12.3621 13.2516 12.1644C13.1527 11.9667 12.3621 10.0128 12.0275 9.22214C11.7082 8.44666 11.3813 8.5531 11.138 8.5455C10.9099 8.53029 10.6438 8.53029 10.3777 8.53029C10.1116 8.53029 9.68589 8.62913 9.32096 9.02447C8.95603 9.41981 7.93726 10.3778 7.93726 12.3317C7.93726 14.2856 9.35898 16.1635 9.55665 16.4296C9.75432 16.6957 12.3469 20.6947 16.3231 22.4129C17.2658 22.8235 18.0033 23.0668 18.5811 23.2492C19.5314 23.5533 20.3906 23.5077 21.0748 23.4089C21.8351 23.2948 23.4164 22.4509 23.751 21.5234C24.0779 20.5959 24.0779 19.8052 23.979 19.6379C23.8802 19.4707 23.6141 19.3718 23.2188 19.1742Z" fill="#F8FCFC"/>
</svg>
